
<svg version="1.1" style="font-family:&quot;lucida grande&quot;, &quot;lucida sans unicode&quot;, arial, helvetica, sans-serif;font-size:12px;" xmlns="http://www.w3.org/2000/svg" viewBox="0 0 584 400">
	<desc>Created with Highstock 4.2.4
	</desc>
	<defs>
		<clipPath id="highcharts-1">
			<rect x="0" y="0" width="564" height="206">
			</rect>
		</clipPath>
		<clipPath id="highcharts-2">
			<rect x="0" y="0" width="564" height="206">
			</rect>
		</clipPath>
		<clipPath id="highcharts-3">
			<rect x="0" y="0" width="536" height="40">
			</rect>
		</clipPath>
	</defs>
	<rect x="0" y="0" width="584" height="400" fill="#FFFFFF" class=" highcharts-background">
	</rect>
	<g class="highcharts-scrollbar" transform="translate(10,372)">
		<rect x="0" y="-0.5" fill="#eeeeee" stroke="#eeeeee" stroke-width="1" rx="0" ry="0" height="14" width="564">
		</rect>
		<rect y="-0.5" height="14" fill="#bfc8d1" stroke="#bfc8d1" stroke-width="1" rx="0" ry="0" x="280.5" width="269">
		</rect>
		<path fill="none" stroke="#666" stroke-width="1" visibility="visible" d="M 411.5 3.5 L 411.5 9.3 M 414.5 3.5 L 414.5 9.3 M 417.5 3.5 L 417.5 9.3">
		</path>
		<g>
			<rect x="-0.5" y="-0.5" width="14" height="14" stroke="#bbb" stroke-width="1" fill="#ebe7e8">
			</rect>
			<path fill="#666" d="M 8 4 L 8 10 5 7">
			</path>
		</g>
		<g transform="translate(550,0)">
			<rect x="-0.5" y="-0.5" width="14" height="14" stroke="#bbb" stroke-width="1" fill="#ebe7e8">
			</rect>
			<path fill="#666" d="M 6 4 L 6 10 9 7">
			</path>
		</g>
	</g>
	<g class="highcharts-range-selector-buttons" transform="translate(0,44)">
		<text x="10" y="15" style="color:#666;fill:#666;">Zoom
		</text>
		<g class="highcharts-button" states="[object Object]" style="cursor:pointer;text-align:center;" transform="translate(48,0)">
			<rect x="0" y="0" width="32" height="22" fill="#f7f7f7" rx="0" ry="0">
			</rect>
			<text x="6.6" style="font-weight:normal;color:#444;fill:#444;" y="14">1m
			</text>
		</g>
		<g class="highcharts-button" states="[object Object]" style="cursor:pointer;text-align:center;" transform="translate(85,0)">
			<rect x="0" y="0" width="32" height="22" fill="#f7f7f7" rx="0" ry="0">
			</rect>
			<text x="6.6" style="font-weight:normal;color:#444;fill:#444;" y="14">3m
			</text>
		</g>
		<g class="highcharts-button" states="[object Object]" style="cursor:pointer;text-align:center;" transform="translate(122,0)">
			<rect x="0" y="0" width="32" height="22" fill="#e7f0f9" rx="0" ry="0">
			</rect>
			<text x="6.6" style="font-weight:bold;color:black;fill:black;" y="14">6m
			</text>
		</g>
		<g class="highcharts-button" states="[object Object]" style="cursor:pointer;text-align:center;" transform="translate(159,0)">
			<rect x="0" y="0" width="32" height="22" fill="#f7f7f7" rx="0" ry="0">
			</rect>
			<text x="3.9" style="font-weight:normal;color:#ccc;fill:#ccc;" y="14">YTD
			</text>
		</g>
		<g class="highcharts-button" states="[object Object]" style="cursor:pointer;text-align:center;" transform="translate(196,0)">
			<rect x="0" y="0" width="32" height="22" fill="#f7f7f7" rx="0" ry="0">
			</rect>
			<text x="9.0" style="font-weight:normal;color:#ccc;fill:#ccc;" y="14">1y
			</text>
		</g>
		<g class="highcharts-button" states="[object Object]" style="cursor:pointer;text-align:center;" transform="translate(233,0)">
			<rect x="0" y="0" width="32" height="22" fill="#f7f7f7" rx="0" ry="0">
			</rect>
			<text x="8.3" style="font-weight:normal;color:#444;fill:#444;" y="14">All
			</text>
		</g>
	</g>
	<g class="highcharts-input-group" transform="translate(313,44)" visibility="visible">
		<g style="fill:#666;" transform="translate(0,0)">
			<text x="2" style="font-size:12px;font-family:&quot;lucida grande&quot;, &quot;lucida sans unicode&quot;, arial, helvetica, sans-serif;color:#666;fill:#666;" y="14">From
			</text>
		</g>
		<g style="text-align:center;" transform="translate(39,0)">
			<rect x="0.5" y="0.5" width="94" height="21" fill="none" stroke="silver" stroke-width="1">
			</rect>
			<text x="15.0" style="font-size:12px;font-family:&quot;lucida grande&quot;, &quot;lucida sans unicode&quot;, arial, helvetica, sans-serif;color:#444;fill:#444;" y="14">
				<tspan>Jul  1, 2014
				</tspan>
			</text>
		</g>
		<g style="fill:#666;" transform="translate(143,0)">
			<text x="2" style="font-size:12px;font-family:&quot;lucida grande&quot;, &quot;lucida sans unicode&quot;, arial, helvetica, sans-serif;color:#666;fill:#666;" y="14">To
			</text>
		</g>
		<g style="text-align:center;" transform="translate(167,0)">
			<rect x="0.5" y="0.5" width="94" height="21" fill="none" stroke="silver" stroke-width="1">
			</rect>
			<text x="7.6" style="font-size:12px;font-family:&quot;lucida grande&quot;, &quot;lucida sans unicode&quot;, arial, helvetica, sans-serif;color:#444;fill:#444;" y="14">
				<tspan>Dec 31, 2014
				</tspan>
			</text>
		</g>
	</g>
	<g class="highcharts-grid">
	</g>
	<g class="highcharts-grid">
		<path fill="none" d="M 199.5 331 L 199.5 371" stroke="#EEE" stroke-width="1" opacity="1">
		</path>
		<path fill="none" d="M 380.5 331 L 380.5 371" stroke="#EEE" stroke-width="1" opacity="1">
		</path>
	</g>
	<g class="highcharts-grid">
		<path fill="none" d="M 10 285.5 L 574 285.5" stroke="#D8D8D8" stroke-width="1" opacity="1">
		</path>
		<path fill="none" d="M 10 216.5 L 574 216.5" stroke="#D8D8D8" stroke-width="1" opacity="1">
		</path>
		<path fill="none" d="M 10 148.5 L 574 148.5" stroke="#D8D8D8" stroke-width="1" opacity="1">
		</path>
		<path fill="none" d="M 10 78.5 L 574 78.5" stroke="#D8D8D8" stroke-width="1" opacity="1">
		</path>
	</g>
	<g class="highcharts-grid">
	</g>
	<g class="highcharts-axis">
		<path fill="none" d="M 9.5 285 L 9.5 295" stroke="#C0D0E0" stroke-width="1" opacity="1">
		</path>
		<path fill="none" d="M 105.5 285 L 105.5 295" stroke="#C0D0E0" stroke-width="1" opacity="1">
		</path>
		<path fill="none" d="M 200.5 285 L 200.5 295" stroke="#C0D0E0" stroke-width="1" opacity="1">
		</path>
		<path fill="none" d="M 293.5 285 L 293.5 295" stroke="#C0D0E0" stroke-width="1" opacity="1">
		</path>
		<path fill="none" d="M 388.5 285 L 388.5 295" stroke="#C0D0E0" stroke-width="1" opacity="1">
		</path>
		<path fill="none" d="M 480.5 285 L 480.5 295" stroke="#C0D0E0" stroke-width="1" opacity="1">
		</path>
		<path fill="none" d="M 10 285.5 L 574 285.5" stroke="#C0D0E0" stroke-width="1">
		</path>
	</g>
	<g class="highcharts-axis">
	</g>
	<g class="highcharts-axis">
	</g>
	<g class="highcharts-axis">
	</g>
	<g class="highcharts-series-group">
		<g class="highcharts-series highcharts-series-0" transform="translate(10,79) scale(1 1)" clip-path="url(#highcharts-2)">
			<path fill="#7cb5ec" d="M -3.0 108.4 L 0 111.2 L 3.0 109.5 L 6.1 98.8 L 9.2 115.3 L 12.3 93.7 L 15.4 84.8 L 18.4 85.4 L 21.5 100.2 L 24.6 83.0 L 27.7 83.0 L 30.8 85.1 L 33.9 86.1 L 36.9 92.3 L 40.0 84.1 L 43.1 86.8 L 46.2 87.8 L 49.3 94.0 L 52.3 89.6 L 55.4 98.5 L 58.5 91.6 L 61.6 91.6 L 64.7 89.2 L 67.8 88.9 L 70.8 84.4 L 73.9 78.9 L 77.0 80.3 L 80.1 91.6 L 83.2 79.6 L 86.2 82.4 L 89.3 87.8 L 92.4 93.3 L 95.5 94.0 L 98.6 98.1 L 101.7 89.6 L 104.7 94.4 L 107.8 95.1 L 110.9 93.3 L 114.0 99.5 L 117.1 86.8 L 120.1 99.2 L 123.2 90.9 L 126.3 90.2 L 129.4 93.3 L 132.5 95.7 L 135.6 107.1 L 138.6 109.1 L 141.7 99.9 L 144.8 100.5 L 147.9 99.5 L 151.0 95.7 L 154.0 98.8 L 157.1 103.3 L 160.2 113.6 L 163.3 106.7 L 166.4 109.1 L 169.5 108.4 L 172.5 114.6 L 175.6 115.3 M 206.4 91.3 L 209.5 92.0 L 212.6 96.4 L 215.7 106.4 L 218.8 117.0 L 221.9 113.9 L 224.9 101.9 L 228.0 107.4 L 231.1 110.2 L 234.2 116.7 L 237.3 121.1 L 240.3 123.6 L 243.4 121.8 L 246.5 126.6 L 249.6 108.1 L 252.7 111.2 L 255.8 132.8 L 258.8 130.4 L 261.9 120.1 L 265.0 115.3 L 268.1 109.1 L 271.2 106.7 L 274.2 103.3 L 277.3 119.4 L 280.4 121.5 L 283.5 107.1 L 286.6 123.9 L 289.7 128.0 L 292.7 102.3 L 295.8 104.3 L 298.9 105.4 L 302.0 109.5 L 305.1 114.3 L 308.1 123.6 L 311.2 115.7 L 314.3 114.6 L 317.4 114.6 L 320.5 117.0 L 323.6 133.2 L 326.6 137.6 L 329.7 140.7 L 332.8 143.1 L 335.9 139.3 L 339.0 113.6 L 342.0 110.8 L 345.1 124.2 L 348.2 116.0 L 351.3 115.0 L 354.4 110.2 L 357.5 116.3 L 360.5 101.9 L 363.6 112.9 L 366.7 137.3 L 369.8 137.3 L 372.9 123.9 L 376 123.6 L 379.0 120.8 L 382.1 113.3 L 385.2 127.0 L 388.3 127.7 L 391.4 134.5 L 394.4 138.0 L 397.5 139.3 L 400.6 114.6 L 403.7 118.7 L 406.8 127.0 L 409.9 135.9 L 412.9 137.6 L 416.0 120.8 L 419.1 121.5 L 422.2 122.5 L 425.3 126.0 L 428.3 138.7 L 431.4 130.8 L 434.5 138.0 L 437.6 141.7 L 440.7 143.5 L 443.8 146.6 L 446.8 136.3 L 449.9 125.6 L 453.0 134.5 L 456.1 140.7 L 459.2 135.9 L 462.2 141.4 L 465.3 141.1 L 468.4 139.7 L 471.5 135.6 L 474.6 132.5 L 477.7 121.8 L 480.7 135.9 L 483.8 128.7 L 486.9 133.5 L 490.0 130.4 L 493.1 132.5 L 496.1 134.9 L 499.2 130.8 L 502.3 138.0 L 505.4 137.6 L 508.5 140.7 L 511.6 135.6 L 514.6 143.1 L 517.7 136.3 L 520.8 147.6 L 523.9 141.1 L 527.0 134.5 L 530.0 134.2 L 533.1 136.3 L 536.2 135.2 L 539.3 132.1 M 548.5 151.7 L 551.6 172.3 L 554.7 166.1 L 557.8 155.1 L 560.9 132.8 L 564 131.8 L 564 131.8 L 564 122.9 L 560.9 128.7 L 557.8 129.0 L 554.7 151.4 L 551.6 155.1 L 548.5 151.4 L 548.5 151.7 M 539.3 132.1 L 539.3 122.2 L 536.2 119.1 L 533.1 123.9 L 530.0 122.2 L 527.0 125.6 L 523.9 132.1 L 520.8 135.9 L 517.7 127.7 L 514.6 118.1 L 511.6 118.7 L 508.5 124.2 L 505.4 131.4 L 502.3 124.6 L 499.2 123.9 L 496.1 121.5 L 493.1 129.7 L 490.0 122.2 L 486.9 120.1 L 483.8 124.6 L 480.7 103 L 477.7 102.3 L 474.6 126.3 L 471.5 128.7 L 468.4 131.1 L 465.3 127.7 L 462.2 130.8 L 459.2 126.6 L 456.1 132.8 L 453.0 116.3 L 449.9 115.0 L 446.8 128.7 L 443.8 132.8 L 440.7 134.2 L 437.6 130.1 L 434.5 124.6 L 431.4 121.1 L 428.3 126.3 L 425.3 111.5 L 422.2 110.8 L 419.1 108.1 L 416.0 107.1 L 412.9 113.9 L 409.9 126.3 L 406.8 108.4 L 403.7 112.2 L 400.6 101.9 L 397.5 118.4 L 394.4 127.3 L 391.4 120.8 L 388.3 117.0 L 385.2 103.6 L 382.1 108.1 L 379.0 98.8 L 376 120.8 L 372.9 121.5 L 369.8 117.7 L 366.7 102.6 L 363.6 91.6 L 360.5 92.3 L 357.5 99.9 L 354.4 100.5 L 351.3 105.7 L 348.2 107.8 L 345.1 104.0 L 342.0 101.2 L 339.0 102.6 L 335.9 111.5 L 332.8 108.8 L 329.7 105.0 L 326.6 105.7 L 323.6 100.9 L 320.5 101.6 L 317.4 101.9 L 314.3 100.5 L 311.2 102.3 L 308.1 103 L 305.1 98.8 L 302.0 93.7 L 298.9 77.2 L 295.8 75.8 L 292.7 74.8 L 289.7 75.1 L 286.6 95.1 L 283.5 95.7 L 280.4 97.1 L 277.3 94.4 L 274.2 82.7 L 271.2 96.8 L 268.1 91.6 L 265.0 102.6 L 261.9 100.2 L 258.8 99.9 L 255.8 94.0 L 252.7 89.9 L 249.6 95.4 L 246.5 82.0 L 243.4 75.8 L 240.3 72.7 L 237.3 69.0 L 234.2 68.3 L 231.1 71.7 L 228.0 75.8 L 224.9 69.0 L 221.9 81.7 L 218.8 77.2 L 215.7 82.7 L 212.6 72.4 L 209.5 78.6 L 206.4 91.3 L 206.4 91.3 M 175.6 115.3 L 175.6 69.6 L 172.5 69.0 L 169.5 70.3 L 166.4 76.9 L 163.3 84.8 L 160.2 83.4 L 157.1 80.3 L 154.0 87.8 L 151.0 86.8 L 147.9 72.4 L 144.8 82.0 L 141.7 81.3 L 138.6 68.3 L 135.6 60.4 L 132.5 73.1 L 129.4 70.0 L 126.3 58.0 L 123.2 66.2 L 120.1 56.3 L 117.1 60.4 L 114.0 67.2 L 110.9 57.3 L 107.8 56.9 L 104.7 69.0 L 101.7 72.4 L 98.6 69.6 L 95.5 75.5 L 92.4 75.1 L 89.3 72.1 L 86.2 59.0 L 83.2 62.1 L 80.1 49.4 L 77.0 44.2 L 73.9 46.3 L 70.8 30.5 L 67.8 35.0 L 64.7 38.4 L 61.6 35.3 L 58.5 43.2 L 55.4 44.9 L 52.3 53.5 L 49.3 73.8 L 46.2 79.6 L 43.1 68.3 L 40.0 56.6 L 36.9 43.2 L 33.9 40.8 L 30.8 32.6 L 27.7 37.7 L 24.6 35.3 L 21.5 59.0 L 18.4 70.7 L 15.4 62.8 L 12.3 58.0 L 9.2 86.1 L 6.1 75.1 L 3.0 63.5 L 0 57.3 L -3.0 59.7 L -3.0 108.4" fill-opacity="0.7">
			</path>
			<path fill="none" d="M -3.0 108.4 L 0 111.2 L 3.0 109.5 L 6.1 98.8 L 9.2 115.3 L 12.3 93.7 L 15.4 84.8 L 18.4 85.4 L 21.5 100.2 L 24.6 83.0 L 27.7 83.0 L 30.8 85.1 L 33.9 86.1 L 36.9 92.3 L 40.0 84.1 L 43.1 86.8 L 46.2 87.8 L 49.3 94.0 L 52.3 89.6 L 55.4 98.5 L 58.5 91.6 L 61.6 91.6 L 64.7 89.2 L 67.8 88.9 L 70.8 84.4 L 73.9 78.9 L 77.0 80.3 L 80.1 91.6 L 83.2 79.6 L 86.2 82.4 L 89.3 87.8 L 92.4 93.3 L 95.5 94.0 L 98.6 98.1 L 101.7 89.6 L 104.7 94.4 L 107.8 95.1 L 110.9 93.3 L 114.0 99.5 L 117.1 86.8 L 120.1 99.2 L 123.2 90.9 L 126.3 90.2 L 129.4 93.3 L 132.5 95.7 L 135.6 107.1 L 138.6 109.1 L 141.7 99.9 L 144.8 100.5 L 147.9 99.5 L 151.0 95.7 L 154.0 98.8 L 157.1 103.3 L 160.2 113.6 L 163.3 106.7 L 166.4 109.1 L 169.5 108.4 L 172.5 114.6 L 175.6 115.3 M 206.4 91.3 L 209.5 92.0 L 212.6 96.4 L 215.7 106.4 L 218.8 117.0 L 221.9 113.9 L 224.9 101.9 L 228.0 107.4 L 231.1 110.2 L 234.2 116.7 L 237.3 121.1 L 240.3 123.6 L 243.4 121.8 L 246.5 126.6 L 249.6 108.1 L 252.7 111.2 L 255.8 132.8 L 258.8 130.4 L 261.9 120.1 L 265.0 115.3 L 268.1 109.1 L 271.2 106.7 L 274.2 103.3 L 277.3 119.4 L 280.4 121.5 L 283.5 107.1 L 286.6 123.9 L 289.7 128.0 L 292.7 102.3 L 295.8 104.3 L 298.9 105.4 L 302.0 109.5 L 305.1 114.3 L 308.1 123.6 L 311.2 115.7 L 314.3 114.6 L 317.4 114.6 L 320.5 117.0 L 323.6 133.2 L 326.6 137.6 L 329.7 140.7 L 332.8 143.1 L 335.9 139.3 L 339.0 113.6 L 342.0 110.8 L 345.1 124.2 L 348.2 116.0 L 351.3 115.0 L 354.4 110.2 L 357.5 116.3 L 360.5 101.9 L 363.6 112.9 L 366.7 137.3 L 369.8 137.3 L 372.9 123.9 L 376 123.6 L 379.0 120.8 L 382.1 113.3 L 385.2 127.0 L 388.3 127.7 L 391.4 134.5 L 394.4 138.0 L 397.5 139.3 L 400.6 114.6 L 403.7 118.7 L 406.8 127.0 L 409.9 135.9 L 412.9 137.6 L 416.0 120.8 L 419.1 121.5 L 422.2 122.5 L 425.3 126.0 L 428.3 138.7 L 431.4 130.8 L 434.5 138.0 L 437.6 141.7 L 440.7 143.5 L 443.8 146.6 L 446.8 136.3 L 449.9 125.6 L 453.0 134.5 L 456.1 140.7 L 459.2 135.9 L 462.2 141.4 L 465.3 141.1 L 468.4 139.7 L 471.5 135.6 L 474.6 132.5 L 477.7 121.8 L 480.7 135.9 L 483.8 128.7 L 486.9 133.5 L 490.0 130.4 L 493.1 132.5 L 496.1 134.9 L 499.2 130.8 L 502.3 138.0 L 505.4 137.6 L 508.5 140.7 L 511.6 135.6 L 514.6 143.1 L 517.7 136.3 L 520.8 147.6 L 523.9 141.1 L 527.0 134.5 L 530.0 134.2 L 533.1 136.3 L 536.2 135.2 L 539.3 132.1 M 548.5 151.7 L 551.6 172.3 L 554.7 166.1 L 557.8 155.1 L 560.9 132.8 L 564 131.8 M 564 122.9 L 560.9 128.7 L 557.8 129.0 L 554.7 151.4 L 551.6 155.1 L 548.5 151.4 M 539.3 122.2 L 536.2 119.1 L 533.1 123.9 L 530.0 122.2 L 527.0 125.6 L 523.9 132.1 L 520.8 135.9 L 517.7 127.7 L 514.6 118.1 L 511.6 118.7 L 508.5 124.2 L 505.4 131.4 L 502.3 124.6 L 499.2 123.9 L 496.1 121.5 L 493.1 129.7 L 490.0 122.2 L 486.9 120.1 L 483.8 124.6 L 480.7 103 L 477.7 102.3 L 474.6 126.3 L 471.5 128.7 L 468.4 131.1 L 465.3 127.7 L 462.2 130.8 L 459.2 126.6 L 456.1 132.8 L 453.0 116.3 L 449.9 115.0 L 446.8 128.7 L 443.8 132.8 L 440.7 134.2 L 437.6 130.1 L 434.5 124.6 L 431.4 121.1 L 428.3 126.3 L 425.3 111.5 L 422.2 110.8 L 419.1 108.1 L 416.0 107.1 L 412.9 113.9 L 409.9 126.3 L 406.8 108.4 L 403.7 112.2 L 400.6 101.9 L 397.5 118.4 L 394.4 127.3 L 391.4 120.8 L 388.3 117.0 L 385.2 103.6 L 382.1 108.1 L 379.0 98.8 L 376 120.8 L 372.9 121.5 L 369.8 117.7 L 366.7 102.6 L 363.6 91.6 L 360.5 92.3 L 357.5 99.9 L 354.4 100.5 L 351.3 105.7 L 348.2 107.8 L 345.1 104.0 L 342.0 101.2 L 339.0 102.6 L 335.9 111.5 L 332.8 108.8 L 329.7 105.0 L 326.6 105.7 L 323.6 100.9 L 320.5 101.6 L 317.4 101.9 L 314.3 100.5 L 311.2 102.3 L 308.1 103 L 305.1 98.8 L 302.0 93.7 L 298.9 77.2 L 295.8 75.8 L 292.7 74.8 L 289.7 75.1 L 286.6 95.1 L 283.5 95.7 L 280.4 97.1 L 277.3 94.4 L 274.2 82.7 L 271.2 96.8 L 268.1 91.6 L 265.0 102.6 L 261.9 100.2 L 258.8 99.9 L 255.8 94.0 L 252.7 89.9 L 249.6 95.4 L 246.5 82.0 L 243.4 75.8 L 240.3 72.7 L 237.3 69.0 L 234.2 68.3 L 231.1 71.7 L 228.0 75.8 L 224.9 69.0 L 221.9 81.7 L 218.8 77.2 L 215.7 82.7 L 212.6 72.4 L 209.5 78.6 L 206.4 91.3 M 175.6 69.6 L 172.5 69.0 L 169.5 70.3 L 166.4 76.9 L 163.3 84.8 L 160.2 83.4 L 157.1 80.3 L 154.0 87.8 L 151.0 86.8 L 147.9 72.4 L 144.8 82.0 L 141.7 81.3 L 138.6 68.3 L 135.6 60.4 L 132.5 73.1 L 129.4 70.0 L 126.3 58.0 L 123.2 66.2 L 120.1 56.3 L 117.1 60.4 L 114.0 67.2 L 110.9 57.3 L 107.8 56.9 L 104.7 69.0 L 101.7 72.4 L 98.6 69.6 L 95.5 75.5 L 92.4 75.1 L 89.3 72.1 L 86.2 59.0 L 83.2 62.1 L 80.1 49.4 L 77.0 44.2 L 73.9 46.3 L 70.8 30.5 L 67.8 35.0 L 64.7 38.4 L 61.6 35.3 L 58.5 43.2 L 55.4 44.9 L 52.3 53.5 L 49.3 73.8 L 46.2 79.6 L 43.1 68.3 L 40.0 56.6 L 36.9 43.2 L 33.9 40.8 L 30.8 32.6 L 27.7 37.7 L 24.6 35.3 L 21.5 59.0 L 18.4 70.7 L 15.4 62.8 L 12.3 58.0 L 9.2 86.1 L 6.1 75.1 L 3.0 63.5 L 0 57.3 L -3.0 59.7" stroke="#7cb5ec" stroke-width="1" stroke-linejoin="round" stroke-linecap="round">
			</path>
			<path fill="rgb(192,192,192)" fill-opacity="0.0" d="M -3.0 108.4 L 0 111.2 L 3.0 109.5 L 6.1 98.8 L 9.2 115.3 L 12.3 93.7 L 15.4 84.8 L 18.4 85.4 L 21.5 100.2 L 24.6 83.0 L 27.7 83.0 L 30.8 85.1 L 33.9 86.1 L 36.9 92.3 L 40.0 84.1 L 43.1 86.8 L 46.2 87.8 L 49.3 94.0 L 52.3 89.6 L 55.4 98.5 L 58.5 91.6 L 61.6 91.6 L 64.7 89.2 L 67.8 88.9 L 70.8 84.4 L 73.9 78.9 L 77.0 80.3 L 80.1 91.6 L 83.2 79.6 L 86.2 82.4 L 89.3 87.8 L 92.4 93.3 L 95.5 94.0 L 98.6 98.1 L 101.7 89.6 L 104.7 94.4 L 107.8 95.1 L 110.9 93.3 L 114.0 99.5 L 117.1 86.8 L 120.1 99.2 L 123.2 90.9 L 126.3 90.2 L 129.4 93.3 L 132.5 95.7 L 135.6 107.1 L 138.6 109.1 L 141.7 99.9 L 144.8 100.5 L 147.9 99.5 L 151.0 95.7 L 154.0 98.8 L 157.1 103.3 L 160.2 113.6 L 163.3 106.7 L 166.4 109.1 L 169.5 108.4 L 172.5 114.6 L 175.6 115.3 M 206.4 91.3 L 209.5 92.0 L 212.6 96.4 L 215.7 106.4 L 218.8 117.0 L 221.9 113.9 L 224.9 101.9 L 228.0 107.4 L 231.1 110.2 L 234.2 116.7 L 237.3 121.1 L 240.3 123.6 L 243.4 121.8 L 246.5 126.6 L 249.6 108.1 L 252.7 111.2 L 255.8 132.8 L 258.8 130.4 L 261.9 120.1 L 265.0 115.3 L 268.1 109.1 L 271.2 106.7 L 274.2 103.3 L 277.3 119.4 L 280.4 121.5 L 283.5 107.1 L 286.6 123.9 L 289.7 128.0 L 292.7 102.3 L 295.8 104.3 L 298.9 105.4 L 302.0 109.5 L 305.1 114.3 L 308.1 123.6 L 311.2 115.7 L 314.3 114.6 L 317.4 114.6 L 320.5 117.0 L 323.6 133.2 L 326.6 137.6 L 329.7 140.7 L 332.8 143.1 L 335.9 139.3 L 339.0 113.6 L 342.0 110.8 L 345.1 124.2 L 348.2 116.0 L 351.3 115.0 L 354.4 110.2 L 357.5 116.3 L 360.5 101.9 L 363.6 112.9 L 366.7 137.3 L 369.8 137.3 L 372.9 123.9 L 376 123.6 L 379.0 120.8 L 382.1 113.3 L 385.2 127.0 L 388.3 127.7 L 391.4 134.5 L 394.4 138.0 L 397.5 139.3 L 400.6 114.6 L 403.7 118.7 L 406.8 127.0 L 409.9 135.9 L 412.9 137.6 L 416.0 120.8 L 419.1 121.5 L 422.2 122.5 L 425.3 126.0 L 428.3 138.7 L 431.4 130.8 L 434.5 138.0 L 437.6 141.7 L 440.7 143.5 L 443.8 146.6 L 446.8 136.3 L 449.9 125.6 L 453.0 134.5 L 456.1 140.7 L 459.2 135.9 L 462.2 141.4 L 465.3 141.1 L 468.4 139.7 L 471.5 135.6 L 474.6 132.5 L 477.7 121.8 L 480.7 135.9 L 483.8 128.7 L 486.9 133.5 L 490.0 130.4 L 493.1 132.5 L 496.1 134.9 L 499.2 130.8 L 502.3 138.0 L 505.4 137.6 L 508.5 140.7 L 511.6 135.6 L 514.6 143.1 L 517.7 136.3 L 520.8 147.6 L 523.9 141.1 L 527.0 134.5 L 530.0 134.2 L 533.1 136.3 L 536.2 135.2 L 539.3 132.1 M 548.5 151.7 L 551.6 172.3 L 554.7 166.1 L 557.8 155.1 L 560.9 132.8 L 564 131.8 L 564 131.8 L 564 122.9 L 560.9 128.7 L 557.8 129.0 L 554.7 151.4 L 551.6 155.1 L 548.5 151.4 L 548.5 151.7 M 539.3 132.1 L 539.3 122.2 L 536.2 119.1 L 533.1 123.9 L 530.0 122.2 L 527.0 125.6 L 523.9 132.1 L 520.8 135.9 L 517.7 127.7 L 514.6 118.1 L 511.6 118.7 L 508.5 124.2 L 505.4 131.4 L 502.3 124.6 L 499.2 123.9 L 496.1 121.5 L 493.1 129.7 L 490.0 122.2 L 486.9 120.1 L 483.8 124.6 L 480.7 103 L 477.7 102.3 L 474.6 126.3 L 471.5 128.7 L 468.4 131.1 L 465.3 127.7 L 462.2 130.8 L 459.2 126.6 L 456.1 132.8 L 453.0 116.3 L 449.9 115.0 L 446.8 128.7 L 443.8 132.8 L 440.7 134.2 L 437.6 130.1 L 434.5 124.6 L 431.4 121.1 L 428.3 126.3 L 425.3 111.5 L 422.2 110.8 L 419.1 108.1 L 416.0 107.1 L 412.9 113.9 L 409.9 126.3 L 406.8 108.4 L 403.7 112.2 L 400.6 101.9 L 397.5 118.4 L 394.4 127.3 L 391.4 120.8 L 388.3 117.0 L 385.2 103.6 L 382.1 108.1 L 379.0 98.8 L 376 120.8 L 372.9 121.5 L 369.8 117.7 L 366.7 102.6 L 363.6 91.6 L 360.5 92.3 L 357.5 99.9 L 354.4 100.5 L 351.3 105.7 L 348.2 107.8 L 345.1 104.0 L 342.0 101.2 L 339.0 102.6 L 335.9 111.5 L 332.8 108.8 L 329.7 105.0 L 326.6 105.7 L 323.6 100.9 L 320.5 101.6 L 317.4 101.9 L 314.3 100.5 L 311.2 102.3 L 308.1 103 L 305.1 98.8 L 302.0 93.7 L 298.9 77.2 L 295.8 75.8 L 292.7 74.8 L 289.7 75.1 L 286.6 95.1 L 283.5 95.7 L 280.4 97.1 L 277.3 94.4 L 274.2 82.7 L 271.2 96.8 L 268.1 91.6 L 265.0 102.6 L 261.9 100.2 L 258.8 99.9 L 255.8 94.0 L 252.7 89.9 L 249.6 95.4 L 246.5 82.0 L 243.4 75.8 L 240.3 72.7 L 237.3 69.0 L 234.2 68.3 L 231.1 71.7 L 228.0 75.8 L 224.9 69.0 L 221.9 81.7 L 218.8 77.2 L 215.7 82.7 L 212.6 72.4 L 209.5 78.6 L 206.4 91.3 L 206.4 91.3 M 175.6 115.3 L 175.6 69.6 L 172.5 69.0 L 169.5 70.3 L 166.4 76.9 L 163.3 84.8 L 160.2 83.4 L 157.1 80.3 L 154.0 87.8 L 151.0 86.8 L 147.9 72.4 L 144.8 82.0 L 141.7 81.3 L 138.6 68.3 L 135.6 60.4 L 132.5 73.1 L 129.4 70.0 L 126.3 58.0 L 123.2 66.2 L 120.1 56.3 L 117.1 60.4 L 114.0 67.2 L 110.9 57.3 L 107.8 56.9 L 104.7 69.0 L 101.7 72.4 L 98.6 69.6 L 95.5 75.5 L 92.4 75.1 L 89.3 72.1 L 86.2 59.0 L 83.2 62.1 L 80.1 49.4 L 77.0 44.2 L 73.9 46.3 L 70.8 30.5 L 67.8 35.0 L 64.7 38.4 L 61.6 35.3 L 58.5 43.2 L 55.4 44.9 L 52.3 53.5 L 49.3 73.8 L 46.2 79.6 L 43.1 68.3 L 40.0 56.6 L 36.9 43.2 L 33.9 40.8 L 30.8 32.6 L 27.7 37.7 L 24.6 35.3 L 21.5 59.0 L 18.4 70.7 L 15.4 62.8 L 12.3 58.0 L 9.2 86.1 L 6.1 75.1 L 3.0 63.5 L 0 57.3 L -3.0 59.7 L -3.0 108.4" stroke-linejoin="round" visibility="visible" stroke="rgb(192,192,192)" stroke-opacity="0.0" stroke-width="1" class=" highcharts-tracker" style="">
			</path>
		</g>
		<g class="highcharts-markers highcharts-series-0 highcharts-tracker" transform="translate(10,79) scale(1 1)" style="" clip-path="none">
		</g>
		<g class="highcharts-series highcharts-series-1" transform="translate(24,331) scale(1 1)" clip-path="url(#highcharts-3)">
			<path fill="#4572A7" d="M 0 22.8 C 0 22.8 0.8 21.9 1.4 21.9 C 2.0 21.9 2.3 22.0 2.9 22.0 C 3.5 22.0 3.8 21.3 4.4 20.9 C 5.0 20.5 5.3 20.1 5.8 20.1 C 6.4 20.1 6.7 20.4 7.3 20.4 C 7.9 20.4 8.2 19.3 8.8 19.3 C 9.4 19.3 9.7 19.3 10.3 19.3 C 10.8 19.3 11.1 24.9 11.7 24.9 C 12.3 24.9 12.6 24.8 13.2 24.7 C 13.8 24.7 14.1 24.5 14.7 24.5 C 15.3 24.5 15.6 31.1 16.1 32.1 C 16.7 33.1 17.0 33.1 17.6 33.1 C 18.2 33.1 18.5 33.1 19.1 33.1 C 19.7 33.1 20.0 33.8 20.6 33.8 C 21.2 33.8 21.4 31.5 22.0 29.9 C 22.6 28.2 22.9 25.6 23.5 25.6 C 24.1 25.6 24.4 26.9 25.0 26.9 C 25.6 26.9 25.9 26.6 26.5 26.6 C 27.0 26.6 27.3 30.4 27.9 30.4 C 28.5 30.4 28.8 29.5 29.4 29.5 C 30.0 29.5 30.3 32.0 30.9 32.0 C 31.5 32.0 31.8 28.0 32.3 28.0 C 32.9 28.0 33.2 30.9 33.8 30.9 C 34.4 30.9 34.7 29.9 35.3 29.5 C 35.9 29.1 36.2 29.3 36.8 29.0 C 37.4 28.8 37.6 28.8 38.2 28.3 C 38.8 27.7 39.1 26.2 39.7 26.2 C 40.3 26.2 40.6 27.2 41.2 27.9 C 41.8 28.7 42.1 29.0 42.7 30.0 C 43.2 31.0 43.5 32.7 44.1 32.7 C 44.7 32.7 45.0 28.8 45.6 27.4 C 46.2 26.0 46.5 26.7 47.1 25.7 C 47.7 24.7 48.0 22.3 48.5 22.3 C 49.1 22.3 49.4 24.7 50.0 24.7 C 50.6 24.7 50.9 24.7 51.5 24.4 C 52.1 24.1 52.4 23.5 53.0 23.3 C 53.6 23.0 53.8 23.3 54.4 23.0 C 55.0 22.8 55.3 22.4 55.9 22.0 C 56.5 21.7 56.8 21.7 57.4 21.4 C 58.0 21.1 58.3 20.4 58.9 20.4 C 59.4 20.4 59.7 21.8 60.3 22.4 C 60.9 23.0 61.2 23.1 61.8 23.4 C 62.4 23.7 62.7 24.0 63.3 24.0 C 63.9 24.0 64.2 20 64.7 20 C 65.3 20 65.6 21.1 66.2 21.7 C 66.8 22.2 67.1 22.8 67.7 22.8 C 68.3 22.8 68.6 22.8 69.2 22.8 C 69.7 22.8 70.0 26.1 70.6 27.5 C 71.2 29.0 71.5 29.5 72.1 30.2 C 72.7 31.0 73.0 31.1 73.6 31.1 C 74.2 31.1 74.5 26.7 75.0 25.0 C 75.6 23.2 75.9 23.8 76.5 22.3 C 77.1 20.8 77.4 17.4 78.0 17.4 C 78.6 17.4 78.9 17.4 79.5 17.6 C 80.1 17.9 80.4 22.0 80.9 22.0 C 81.5 22.0 81.8 20 82.4 20 C 83.0 20 83.3 20 83.9 20 C 84.5 20 84.8 18.6 85.4 18.6 C 85.9 18.6 86.2 20.6 86.8 21.5 C 87.4 22.5 87.7 23.4 88.3 23.4 C 88.9 23.4 89.2 23.1 89.8 22.6 C 90.4 22.2 90.7 21.6 91.2 20.9 C 91.8 20.3 92.1 20.0 92.7 19.3 C 93.3 18.7 93.6 17.6 94.2 17.6 C 94.8 17.6 95.1 20.8 95.7 20.8 C 96.3 20.8 96.5 20.0 97.1 19.2 C 97.7 18.4 98.0 16.6 98.6 16.6 C 99.2 16.6 99.5 18.1 100.1 19.0 C 100.7 19.9 101.0 20.1 101.6 21.1 C 102.1 22.0 102.4 23.0 103.0 23.9 C 103.6 24.8 103.9 25.6 104.5 25.6 C 105.1 25.6 105.4 23.6 106.0 23.6 C 106.6 23.6 106.9 23.7 107.4 23.9 C 108.0 24.0 108.3 24.2 108.9 24.2 C 109.5 24.2 109.8 22.9 110.4 22.9 C 111.0 22.9 111.3 24.8 111.9 25.5 C 112.5 26.2 112.7 26.4 113.3 26.4 C 113.9 26.4 114.2 24.8 114.8 23.7 C 115.4 22.7 115.7 21.9 116.3 21.2 C 116.9 20.5 117.2 20.2 117.8 20.2 C 118.3 20.2 118.6 21.2 119.2 22.0 C 119.8 22.9 120.1 23.5 120.7 24.5 C 121.3 25.5 121.6 27.1 122.2 27.1 C 122.8 27.1 123.1 27.1 123.6 26.2 C 124.2 25.3 124.5 19.5 125.1 19.1 C 125.7 18.7 126.0 18.7 126.6 18.7 C 127.2 18.7 127.5 19.7 128.1 20.1 C 128.6 20.4 128.9 20.1 129.5 20.4 C 130.1 20.8 130.4 21.4 131.0 22.4 C 131.6 23.4 131.9 25.6 132.5 25.6 C 133.1 25.6 133.4 21.4 134 21.4 C 134.5 21.4 134.8 24.4 135.4 25.3 C 136.0 26.3 136.3 26.3 136.9 26.3 C 137.5 26.3 137.8 25.2 138.4 23.9 C 139.0 22.5 139.3 21.0 139.8 19.6 C 140.4 18.2 140.7 17.0 141.3 17.0 C 141.9 17.0 142.2 17.2 142.8 17.5 C 143.4 17.8 143.7 18.2 144.3 18.6 C 144.8 19.0 145.1 19.3 145.7 19.3 C 146.3 19.3 146.6 19.3 147.2 18.6 C 147.8 17.9 148.1 16.0 148.7 16.0 C 149.3 16.0 149.6 19.5 150.1 19.6 C 150.7 19.7 151.0 19.7 151.6 19.7 C 152.2 19.8 152.5 19.7 153.1 19.8 C 153.7 19.9 154.0 22.3 154.6 22.3 C 155.2 22.3 155.4 18.1 156.0 18.1 C 156.6 18.1 156.9 19.0 157.5 19.8 C 158.1 20.7 158.4 22.3 159.0 22.3 C 159.6 22.3 159.9 22.0 160.5 22.0 C 161.0 22.0 161.3 22.4 161.9 22.4 C 162.5 22.4 162.8 21.5 163.4 20.4 C 164.0 19.4 164.3 17.4 164.9 17.3 C 165.5 17.1 165.8 17.1 166.3 17.1 C 166.9 17.1 167.2 18.0 167.8 18.6 C 168.4 19.2 168.7 20.3 169.3 20.3 C 169.9 20.3 170.2 18.6 170.8 18.4 C 171.4 18.1 171.6 18.4 172.2 18.1 C 172.8 17.9 173.1 15.8 173.7 15.8 C 174.3 15.8 174.6 18.4 175.2 20.7 C 175.8 23.0 176.1 27.4 176.7 27.4 C 177.2 27.4 177.5 27.4 178.1 26.4 C 178.7 25.5 179.0 18.6 179.6 18.6 C 180.2 18.6 180.5 24.9 181.1 24.9 C 181.7 24.9 182.0 20.7 182.5 19.2 C 183.1 17.7 183.4 18.0 184.0 17.4 C 184.6 16.8 184.9 16.2 185.5 16.2 C 186.1 16.2 186.4 19.1 187.0 20.2 C 187.6 21.3 187.8 21.5 188.4 21.5 C 189.0 21.5 189.3 16.2 189.9 16.2 C 190.5 16.2 190.8 17.1 191.4 17.1 C 192.0 17.1 192.3 16.4 192.9 16.4 C 193.4 16.4 193.7 17.6 194.3 17.6 C 194.9 17.6 195.2 16.8 195.8 16.8 C 196.4 16.8 196.7 21.8 197.3 21.8 C 197.9 21.8 198.2 17.0 198.7 15.3 C 199.3 13.6 199.6 13.5 200.2 13.2 C 200.8 13.0 201.1 13.0 201.7 13.0 C 202.3 13.0 202.6 13.3 203.2 13.8 C 203.7 14.4 204.0 15.8 204.6 15.8 C 205.2 15.8 205.5 15.8 206.1 14.8 C 206.7 13.8 207.0 10.5 207.6 10.5 C 208.2 10.5 208.5 12.7 209.0 12.7 C 209.6 12.7 209.9 11.4 210.5 11.4 C 211.1 11.4 211.4 17.1 212.0 17.1 C 212.6 17.1 212.9 14.4 213.5 14.4 C 214.1 14.4 214.4 18.0 214.9 18.0 C 215.5 18.0 215.8 14.8 216.4 14.8 C 217.0 14.8 217.3 16.4 217.9 17.1 C 218.5 17.9 218.8 18.5 219.4 18.5 C 219.9 18.5 220.2 15.5 220.8 15.5 C 221.4 15.5 221.7 17.9 222.3 17.9 C 222.9 17.9 223.2 17.2 223.8 16.0 C 224.4 14.9 224.7 12.2 225.2 12.2 C 225.8 12.2 226.1 12.4 226.7 12.4 C 227.3 12.4 227.6 8.2 228.2 8.2 C 228.8 8.2 229.1 8.2 229.7 8.3 C 230.3 8.4 230.5 13.7 231.1 13.7 C 231.7 13.7 232.0 13.3 232.6 12.8 C 233.2 12.4 233.5 11.2 234.1 11.2 C 234.7 11.2 235.0 15.2 235.6 15.2 C 236.1 15.2 236.4 9.3 237.0 9.3 C 237.6 9.3 237.9 10.0 238.5 10.5 C 239.1 11.0 239.4 10.6 240.0 11.9 C 240.6 13.2 240.9 17.0 241.4 17.0 C 242.0 17.0 242.3 16.2 242.9 15.0 C 243.5 13.9 243.8 11.5 244.4 11.5 C 245.0 11.5 245.3 14.6 245.9 14.6 C 246.5 14.6 246.7 9.9 247.3 9.9 C 247.9 9.9 248.2 12.1 248.8 12.1 C 249.4 12.1 249.7 11.0 250.3 11.0 C 250.9 11.0 251.2 11.7 251.8 13.1 C 252.3 14.5 252.6 17.9 253.2 17.9 C 253.8 17.9 254.1 11.9 254.7 11.9 C 255.3 11.9 255.6 17.7 256.2 17.7 C 256.8 17.7 257.1 16.4 257.6 16.4 C 258.2 16.4 258.5 17.4 259.1 17.4 C 259.7 17.4 260.0 13.8 260.6 13.8 C 261.2 13.8 261.5 14.9 262.1 15.4 C 262.6 16.0 262.9 16.6 263.5 16.6 C 264.1 16.6 264.4 13.8 265.0 13.8 C 265.6 13.8 265.9 14.8 266.5 14.8 C 267.1 14.8 267.4 14.8 268 14.2 C 268.5 13.6 268.8 10.4 269.4 10.4 C 270.0 10.4 270.3 16.3 270.9 16.3 C 271.5 16.3 271.8 10.7 272.4 8.6 C 273.0 6.4 273.3 5.4 273.8 5.4 C 274.4 5.4 274.7 5.4 275.3 5.6 C 275.9 5.9 276.2 10.9 276.8 10.9 C 277.4 10.9 277.7 4.8 278.3 4.8 C 278.8 4.8 279.1 4.8 279.7 4.8 C 280.3 4.8 280.6 5.3 281.2 5.5 C 281.8 5.7 282.1 5.5 282.7 5.9 C 283.3 6.2 283.6 8.1 284.1 8.1 C 284.7 8.1 285.0 5.1 285.6 5.1 C 286.2 5.1 286.5 5.8 287.1 6.1 C 287.7 6.4 288.0 6.1 288.6 6.5 C 289.2 6.8 289.4 8.7 290.0 8.7 C 290.6 8.7 290.9 7.1 291.5 7.1 C 292.1 7.1 292.4 10.3 293.0 10.3 C 293.6 10.3 293.9 7.8 294.5 7.8 C 295.0 7.8 295.3 7.8 295.9 7.8 C 296.5 7.8 296.8 7.1 297.4 7.0 C 298.0 6.8 298.3 7.0 298.9 6.8 C 299.5 6.7 299.8 6.0 300.3 5.2 C 300.9 4.5 301.2 3.3 301.8 3.3 C 302.4 3.3 302.7 3.3 303.3 3.8 C 303.9 4.3 304.2 7.8 304.8 7.8 C 305.4 7.8 305.6 3.5 306.2 3.5 C 306.8 3.5 307.1 3.9 307.7 4.5 C 308.3 5.1 308.6 5.7 309.2 6.5 C 309.8 7.3 310.1 8.2 310.7 8.4 C 311.2 8.7 311.5 8.4 312.1 8.7 C 312.7 8.9 313.0 10.1 313.6 10.1 C 314.2 10.1 314.5 7.1 315.1 7.1 C 315.7 7.1 316.0 8.6 316.5 8.8 C 317.1 9.0 317.4 9.0 318.0 9.0 C 318.6 9.0 318.9 8.4 319.5 8.4 C 320.1 8.4 320.4 10.6 321.0 10.6 C 321.6 10.6 321.8 6.1 322.4 6.1 C 323.0 6.1 323.3 10.5 323.9 10.5 C 324.5 10.5 324.8 7.8 325.4 7.6 C 326.0 7.3 326.3 7.3 326.9 7.3 C 327.4 7.3 327.7 8.0 328.3 8.4 C 328.9 8.8 329.2 8.4 329.8 9.3 C 330.4 10.1 330.7 12.6 331.3 13.3 C 331.9 14.1 332.2 14.1 332.7 14.1 C 333.3 14.1 333.6 10.8 334.2 10.8 C 334.8 10.8 335.1 11.0 335.7 11.0 C 336.3 11.0 336.6 11.0 337.2 10.6 C 337.7 10.3 338.0 9.3 338.6 9.3 C 339.2 9.3 339.5 9.9 340.1 10.4 C 340.7 10.9 341.0 10.9 341.6 12.0 C 342.2 13.0 342.5 15.7 343.0 15.7 C 343.6 15.7 343.9 13.2 344.5 13.2 C 345.1 13.2 345.4 14.1 346.0 14.1 C 346.6 14.1 346.9 13.8 347.5 13.8 C 348.1 13.8 348.4 15.8 348.9 16.0 C 349.5 16.3 350.4 16.3 350.4 16.3 C 350.4 16.3 350.4 40 350.4 40 C 350.4 40 365.1 40 365.1 40 C 365.1 40 365.1 7.7 365.1 7.7 C 365.1 7.7 366.0 7.7 366.6 7.9 C 367.2 8.2 367.5 8.5 368.1 9.5 C 368.7 10.6 369.0 11.6 369.6 13.1 C 370.1 14.6 370.4 16.9 371.0 16.9 C 371.6 16.9 371.9 16.9 372.5 15.8 C 373.1 14.7 373.4 11.5 374.0 11.5 C 374.6 11.5 374.9 12.9 375.4 13.5 C 376.0 14.0 376.3 13.8 376.9 14.4 C 377.5 15.1 377.8 16.0 378.4 16.8 C 379.0 17.5 379.3 17.9 379.9 18.4 C 380.5 18.8 380.7 19.2 381.3 19.2 C 381.9 19.2 382.2 18.6 382.8 18.6 C 383.4 18.6 383.7 20.3 384.3 20.3 C 384.9 20.3 385.2 13.7 385.8 13.7 C 386.3 13.7 386.6 13.7 387.2 14.8 C 387.8 15.9 388.1 22.5 388.7 22.5 C 389.3 22.5 389.6 22.5 390.2 21.7 C 390.8 20.8 391.1 19.1 391.6 18.0 C 392.2 16.9 392.5 17.1 393.1 16.3 C 393.7 15.5 394.0 14.7 394.6 14.1 C 395.2 13.5 395.5 13.6 396.1 13.2 C 396.6 12.8 396.9 12.0 397.5 12.0 C 398.1 12.0 398.4 17.0 399.0 17.7 C 399.6 18.5 399.9 18.5 400.5 18.5 C 401.1 18.5 401.4 13.3 402 13.3 C 402.5 13.3 402.8 17.9 403.4 19.3 C 404.0 20.8 404.3 20.8 404.9 20.8 C 405.5 20.8 405.8 11.6 406.4 11.6 C 407.0 11.6 407.3 12.1 407.8 12.4 C 408.4 12.6 408.7 12.4 409.3 12.7 C 409.9 13.1 410.2 13.6 410.8 14.2 C 411.4 14.8 411.7 14.9 412.3 15.9 C 412.8 16.9 413.1 19.2 413.7 19.2 C 414.3 19.2 414.6 16.8 415.2 16.4 C 415.8 16.0 416.1 16.0 416.7 16.0 C 417.3 16.0 417.6 16.0 418.1 16.0 C 418.7 16.0 419.0 16.0 419.6 16.9 C 420.2 17.7 420.5 21.2 421.1 22.6 C 421.7 24.1 422.0 23.7 422.6 24.2 C 423.2 24.8 423.4 24.9 424.0 25.3 C 424.6 25.7 424.9 26.2 425.5 26.2 C 426.1 26.2 426.4 26.2 427.0 24.9 C 427.6 23.5 427.9 16.6 428.5 15.7 C 429.0 14.7 429.3 14.7 429.9 14.7 C 430.5 14.7 430.8 19.5 431.4 19.5 C 432.0 19.5 432.3 16.9 432.9 16.5 C 433.5 16.2 433.8 16.5 434.3 16.2 C 434.9 15.8 435.2 14.4 435.8 14.4 C 436.4 14.4 436.7 16.6 437.3 16.6 C 437.9 16.6 438.2 11.5 438.8 11.5 C 439.4 11.5 439.6 12.9 440.2 15.4 C 440.8 17.9 441.1 24.1 441.7 24.1 C 442.3 24.1 442.6 24.1 443.2 24.1 C 443.8 24.1 444.1 19.5 444.7 19.3 C 445.2 19.2 445.5 19.3 446.1 19.2 C 446.7 19.1 447.0 19.0 447.6 18.2 C 448.2 17.5 448.5 15.5 449.1 15.5 C 449.7 15.5 450.0 20.2 450.5 20.4 C 451.1 20.7 451.4 20.4 452.0 20.7 C 452.6 20.9 452.9 22.4 453.5 23.1 C 454.1 23.9 454.4 24.0 455.0 24.4 C 455.6 24.7 455.8 24.9 456.4 24.9 C 457.0 24.9 457.3 16.0 457.9 16.0 C 458.5 16.0 458.8 16.6 459.4 17.5 C 460.0 18.4 460.3 19.2 460.9 20.4 C 461.4 21.7 461.7 23.0 462.3 23.6 C 462.9 24.2 463.2 24.2 463.8 24.2 C 464.4 24.2 464.7 18.2 465.3 18.2 C 465.9 18.2 466.2 18.4 466.7 18.5 C 467.3 18.6 467.6 18.5 468.2 18.8 C 468.8 19.2 469.1 18.9 469.7 20.1 C 470.3 21.2 470.6 24.6 471.2 24.6 C 471.7 24.6 472.0 21.8 472.6 21.8 C 473.2 21.8 473.5 23.6 474.1 24.4 C 474.7 25.1 475.0 25.3 475.6 25.7 C 476.2 26.1 476.5 26.0 477.0 26.3 C 477.6 26.7 477.9 27.4 478.5 27.4 C 479.1 27.4 479.4 25.2 480.0 23.7 C 480.6 22.3 480.9 20 481.5 20 C 482.1 20 482.4 22.1 482.9 23.1 C 483.5 24.2 483.8 25.3 484.4 25.3 C 485.0 25.3 485.3 23.6 485.9 23.6 C 486.5 23.6 486.8 25.6 487.4 25.6 C 487.9 25.6 488.2 25.6 488.8 25.5 C 489.4 25.3 489.7 25.4 490.3 25.0 C 490.9 24.6 491.2 24.0 491.8 23.5 C 492.4 23.0 492.7 23.4 493.2 22.4 C 493.8 21.4 494.1 18.6 494.7 18.6 C 495.3 18.6 495.6 23.6 496.2 23.6 C 496.8 23.6 497.1 21.1 497.7 21.1 C 498.3 21.1 498.5 22.8 499.1 22.8 C 499.7 22.8 500.0 21.7 500.6 21.7 C 501.2 21.7 501.5 22.1 502.1 22.4 C 502.7 22.7 503.0 23.3 503.6 23.3 C 504.1 23.3 504.4 21.8 505.0 21.8 C 505.6 21.8 505.9 24.4 506.5 24.4 C 507.1 24.4 507.4 24.2 508.0 24.2 C 508.6 24.2 508.9 25.3 509.4 25.3 C 510.0 25.3 510.3 23.5 510.9 23.5 C 511.5 23.5 511.8 26.2 512.4 26.2 C 513.0 26.2 513.3 23.7 513.9 23.7 C 514.5 23.7 514.7 27.8 515.3 27.8 C 515.9 27.8 516.2 26.4 516.8 25.5 C 517.4 24.5 517.7 23.3 518.3 23.1 C 518.9 23.0 519.2 23.0 519.8 23.0 C 520.3 23.0 520.6 23.7 521.2 23.7 C 521.8 23.7 522.1 23.7 522.7 23.4 C 523.3 23.1 524.2 22.3 524.2 22.3 C 524.2 22.3 524.2 40 524.2 40 C 524.2 40 528.6 40 528.6 40 C 528.6 40 528.6 29.3 528.6 29.3 C 528.6 29.3 529.5 36.6 530.1 36.6 C 530.6 36.6 530.9 35.6 531.5 34.4 C 532.1 33.2 532.4 32.9 533.0 30.5 C 533.6 28.1 533.9 22.9 534.5 22.5 C 535.1 22.2 536 22.2 536 22.2 L 536 40 C 536 40 535.1 40 534.5 40 C 533.9 40 533.6 40 533.0 40 C 532.4 40 532.1 40 531.5 40 C 530.9 40 530.6 40 530.1 40 C 529.5 40 529.2 40 528.6 40 C 528.6 40 528.6 40 528.6 40 C 526.8 40 525.9 40 524.2 40 C 524.2 40 524.2 40 524.2 40 C 523.6 40 523.3 40 522.7 40 C 522.1 40 521.8 40 521.2 40 C 520.6 40 520.3 40 519.8 40 C 519.2 40 518.9 40 518.3 40 C 517.7 40 517.4 40 516.8 40 C 516.2 40 515.9 40 515.3 40 C 514.7 40 514.5 40 513.9 40 C 513.3 40 513.0 40 512.4 40 C 511.8 40 511.5 40 510.9 40 C 510.3 40 510.0 40 509.4 40 C 508.9 40 508.6 40 508.0 40 C 507.4 40 507.1 40 506.5 40 C 505.9 40 505.6 40 505.0 40 C 504.4 40 504.1 40 503.6 40 C 503.0 40 502.7 40 502.1 40 C 501.5 40 501.2 40 500.6 40 C 500.0 40 499.7 40 499.1 40 C 498.5 40 498.3 40 497.7 40 C 497.1 40 496.8 40 496.2 40 C 495.6 40 495.3 40 494.7 40 C 494.1 40 493.8 40 493.2 40 C 492.7 40 492.4 40 491.8 40 C 491.2 40 490.9 40 490.3 40 C 489.7 40 489.4 40 488.8 40 C 488.2 40 487.9 40 487.4 40 C 486.8 40 486.5 40 485.9 40 C 485.3 40 485.0 40 484.4 40 C 483.8 40 483.5 40 482.9 40 C 482.4 40 482.1 40 481.5 40 C 480.9 40 480.6 40 480.0 40 C 479.4 40 479.1 40 478.5 40 C 477.9 40 477.6 40 477.0 40 C 476.5 40 476.2 40 475.6 40 C 475.0 40 474.7 40 474.1 40 C 473.5 40 473.2 40 472.6 40 C 472.0 40 471.7 40 471.2 40 C 470.6 40 470.3 40 469.7 40 C 469.1 40 468.8 40 468.2 40 C 467.6 40 467.3 40 466.7 40 C 466.2 40 465.9 40 465.3 40 C 464.7 40 464.4 40 463.8 40 C 463.2 40 462.9 40 462.3 40 C 461.7 40 461.4 40 460.9 40 C 460.3 40 460.0 40 459.4 40 C 458.8 40 458.5 40 457.9 40 C 457.3 40 457.0 40 456.4 40 C 455.8 40 455.6 40 455.0 40 C 454.4 40 454.1 40 453.5 40 C 452.9 40 452.6 40 452.0 40 C 451.4 40 451.1 40 450.5 40 C 450.0 40 449.7 40 449.1 40 C 448.5 40 448.2 40 447.6 40 C 447.0 40 446.7 40 446.1 40 C 445.5 40 445.2 40 444.7 40 C 444.1 40 443.8 40 443.2 40 C 442.6 40 442.3 40 441.7 40 C 441.1 40 440.8 40 440.2 40 C 439.6 40 439.4 40 438.8 40 C 438.2 40 437.9 40 437.3 40 C 436.7 40 436.4 40 435.8 40 C 435.2 40 434.9 40 434.3 40 C 433.8 40 433.5 40 432.9 40 C 432.3 40 432.0 40 431.4 40 C 430.8 40 430.5 40 429.9 40 C 429.3 40 429.0 40 428.5 40 C 427.9 40 427.6 40 427.0 40 C 426.4 40 426.1 40 425.5 40 C 424.9 40 424.6 40 424.0 40 C 423.4 40 423.2 40 422.6 40 C 422.0 40 421.7 40 421.1 40 C 420.5 40 420.2 40 419.6 40 C 419.0 40 418.7 40 418.1 40 C 417.6 40 417.3 40 416.7 40 C 416.1 40 415.8 40 415.2 40 C 414.6 40 414.3 40 413.7 40 C 413.1 40 412.8 40 412.3 40 C 411.7 40 411.4 40 410.8 40 C 410.2 40 409.9 40 409.3 40 C 408.7 40 408.4 40 407.8 40 C 407.3 40 407.0 40 406.4 40 C 405.8 40 405.5 40 404.9 40 C 404.3 40 404.0 40 403.4 40 C 402.8 40 402.5 40 402 40 C 401.4 40 401.1 40 400.5 40 C 399.9 40 399.6 40 399.0 40 C 398.4 40 398.1 40 397.5 40 C 396.9 40 396.6 40 396.1 40 C 395.5 40 395.2 40 394.6 40 C 394.0 40 393.7 40 393.1 40 C 392.5 40 392.2 40 391.6 40 C 391.1 40 390.8 40 390.2 40 C 389.6 40 389.3 40 388.7 40 C 388.1 40 387.8 40 387.2 40 C 386.6 40 386.3 40 385.8 40 C 385.2 40 384.9 40 384.3 40 C 383.7 40 383.4 40 382.8 40 C 382.2 40 381.9 40 381.3 40 C 380.7 40 380.5 40 379.9 40 C 379.3 40 379.0 40 378.4 40 C 377.8 40 377.5 40 376.9 40 C 376.3 40 376.0 40 375.4 40 C 374.9 40 374.6 40 374.0 40 C 373.4 40 373.1 40 372.5 40 C 371.9 40 371.6 40 371.0 40 C 370.4 40 370.1 40 369.6 40 C 369.0 40 368.7 40 368.1 40 C 367.5 40 367.2 40 366.6 40 C 366.0 40 365.7 40 365.1 40 C 365.1 40 365.1 40 365.1 40 C 359.2 40 356.3 40 350.4 40 C 350.4 40 350.4 40 350.4 40 C 349.8 40 349.5 40 348.9 40 C 348.4 40 348.1 40 347.5 40 C 346.9 40 346.6 40 346.0 40 C 345.4 40 345.1 40 344.5 40 C 343.9 40 343.6 40 343.0 40 C 342.5 40 342.2 40 341.6 40 C 341.0 40 340.7 40 340.1 40 C 339.5 40 339.2 40 338.6 40 C 338.0 40 337.7 40 337.2 40 C 336.6 40 336.3 40 335.7 40 C 335.1 40 334.8 40 334.2 40 C 333.6 40 333.3 40 332.7 40 C 332.2 40 331.9 40 331.3 40 C 330.7 40 330.4 40 329.8 40 C 329.2 40 328.9 40 328.3 40 C 327.7 40 327.4 40 326.9 40 C 326.3 40 326.0 40 325.4 40 C 324.8 40 324.5 40 323.9 40 C 323.3 40 323.0 40 322.4 40 C 321.8 40 321.6 40 321.0 40 C 320.4 40 320.1 40 319.5 40 C 318.9 40 318.6 40 318.0 40 C 317.4 40 317.1 40 316.5 40 C 316.0 40 315.7 40 315.1 40 C 314.5 40 314.2 40 313.6 40 C 313.0 40 312.7 40 312.1 40 C 311.5 40 311.2 40 310.7 40 C 310.1 40 309.8 40 309.2 40 C 308.6 40 308.3 40 307.7 40 C 307.1 40 306.8 40 306.2 40 C 305.6 40 305.4 40 304.8 40 C 304.2 40 303.9 40 303.3 40 C 302.7 40 302.4 40 301.8 40 C 301.2 40 300.9 40 300.3 40 C 299.8 40 299.5 40 298.9 40 C 298.3 40 298.0 40 297.4 40 C 296.8 40 296.5 40 295.9 40 C 295.3 40 295.0 40 294.5 40 C 293.9 40 293.6 40 293.0 40 C 292.4 40 292.1 40 291.5 40 C 290.9 40 290.6 40 290.0 40 C 289.4 40 289.2 40 288.6 40 C 288.0 40 287.7 40 287.1 40 C 286.5 40 286.2 40 285.6 40 C 285.0 40 284.7 40 284.1 40 C 283.6 40 283.3 40 282.7 40 C 282.1 40 281.8 40 281.2 40 C 280.6 40 280.3 40 279.7 40 C 279.1 40 278.8 40 278.3 40 C 277.7 40 277.4 40 276.8 40 C 276.2 40 275.9 40 275.3 40 C 274.7 40 274.4 40 273.8 40 C 273.3 40 273.0 40 272.4 40 C 271.8 40 271.5 40 270.9 40 C 270.3 40 270.0 40 269.4 40 C 268.8 40 268.5 40 268 40 C 267.4 40 267.1 40 266.5 40 C 265.9 40 265.6 40 265.0 40 C 264.4 40 264.1 40 263.5 40 C 262.9 40 262.6 40 262.1 40 C 261.5 40 261.2 40 260.6 40 C 260.0 40 259.7 40 259.1 40 C 258.5 40 258.2 40 257.6 40 C 257.1 40 256.8 40 256.2 40 C 255.6 40 255.3 40 254.7 40 C 254.1 40 253.8 40 253.2 40 C 252.6 40 252.3 40 251.8 40 C 251.2 40 250.9 40 250.3 40 C 249.7 40 249.4 40 248.8 40 C 248.2 40 247.9 40 247.3 40 C 246.7 40 246.5 40 245.9 40 C 245.3 40 245.0 40 244.4 40 C 243.8 40 243.5 40 242.9 40 C 242.3 40 242.0 40 241.4 40 C 240.9 40 240.6 40 240.0 40 C 239.4 40 239.1 40 238.5 40 C 237.9 40 237.6 40 237.0 40 C 236.4 40 236.1 40 235.6 40 C 235.0 40 234.7 40 234.1 40 C 233.5 40 233.2 40 232.6 40 C 232.0 40 231.7 40 231.1 40 C 230.5 40 230.3 40 229.7 40 C 229.1 40 228.8 40 228.2 40 C 227.6 40 227.3 40 226.7 40 C 226.1 40 225.8 40 225.2 40 C 224.7 40 224.4 40 223.8 40 C 223.2 40 222.9 40 222.3 40 C 221.7 40 221.4 40 220.8 40 C 220.2 40 219.9 40 219.4 40 C 218.8 40 218.5 40 217.9 40 C 217.3 40 217.0 40 216.4 40 C 215.8 40 215.5 40 214.9 40 C 214.4 40 214.1 40 213.5 40 C 212.9 40 212.6 40 212.0 40 C 211.4 40 211.1 40 210.5 40 C 209.9 40 209.6 40 209.0 40 C 208.5 40 208.2 40 207.6 40 C 207.0 40 206.7 40 206.1 40 C 205.5 40 205.2 40 204.6 40 C 204.0 40 203.7 40 203.2 40 C 202.6 40 202.3 40 201.7 40 C 201.1 40 200.8 40 200.2 40 C 199.6 40 199.3 40 198.7 40 C 198.2 40 197.9 40 197.3 40 C 196.7 40 196.4 40 195.8 40 C 195.2 40 194.9 40 194.3 40 C 193.7 40 193.4 40 192.9 40 C 192.3 40 192.0 40 191.4 40 C 190.8 40 190.5 40 189.9 40 C 189.3 40 189.0 40 188.4 40 C 187.8 40 187.6 40 187.0 40 C 186.4 40 186.1 40 185.5 40 C 184.9 40 184.6 40 184.0 40 C 183.4 40 183.1 40 182.5 40 C 182.0 40 181.7 40 181.1 40 C 180.5 40 180.2 40 179.6 40 C 179.0 40 178.7 40 178.1 40 C 177.5 40 177.2 40 176.7 40 C 176.1 40 175.8 40 175.2 40 C 174.6 40 174.3 40 173.7 40 C 173.1 40 172.8 40 172.2 40 C 171.6 40 171.4 40 170.8 40 C 170.2 40 169.9 40 169.3 40 C 168.7 40 168.4 40 167.8 40 C 167.2 40 166.9 40 166.3 40 C 165.8 40 165.5 40 164.9 40 C 164.3 40 164.0 40 163.4 40 C 162.8 40 162.5 40 161.9 40 C 161.3 40 161.0 40 160.5 40 C 159.9 40 159.6 40 159.0 40 C 158.4 40 158.1 40 157.5 40 C 156.9 40 156.6 40 156.0 40 C 155.4 40 155.2 40 154.6 40 C 154.0 40 153.7 40 153.1 40 C 152.5 40 152.2 40 151.6 40 C 151.0 40 150.7 40 150.1 40 C 149.6 40 149.3 40 148.7 40 C 148.1 40 147.8 40 147.2 40 C 146.6 40 146.3 40 145.7 40 C 145.1 40 144.8 40 144.3 40 C 143.7 40 143.4 40 142.8 40 C 142.2 40 141.9 40 141.3 40 C 140.7 40 140.4 40 139.8 40 C 139.3 40 139.0 40 138.4 40 C 137.8 40 137.5 40 136.9 40 C 136.3 40 136.0 40 135.4 40 C 134.8 40 134.5 40 134 40 C 133.4 40 133.1 40 132.5 40 C 131.9 40 131.6 40 131.0 40 C 130.4 40 130.1 40 129.5 40 C 128.9 40 128.6 40 128.1 40 C 127.5 40 127.2 40 126.6 40 C 126.0 40 125.7 40 125.1 40 C 124.5 40 124.2 40 123.6 40 C 123.1 40 122.8 40 122.2 40 C 121.6 40 121.3 40 120.7 40 C 120.1 40 119.8 40 119.2 40 C 118.6 40 118.3 40 117.8 40 C 117.2 40 116.9 40 116.3 40 C 115.7 40 115.4 40 114.8 40 C 114.2 40 113.9 40 113.3 40 C 112.7 40 112.5 40 111.9 40 C 111.3 40 111.0 40 110.4 40 C 109.8 40 109.5 40 108.9 40 C 108.3 40 108.0 40 107.4 40 C 106.9 40 106.6 40 106.0 40 C 105.4 40 105.1 40 104.5 40 C 103.9 40 103.6 40 103.0 40 C 102.4 40 102.1 40 101.6 40 C 101.0 40 100.7 40 100.1 40 C 99.5 40 99.2 40 98.6 40 C 98.0 40 97.7 40 97.1 40 C 96.5 40 96.3 40 95.7 40 C 95.1 40 94.8 40 94.2 40 C 93.6 40 93.3 40 92.7 40 C 92.1 40 91.8 40 91.2 40 C 90.7 40 90.4 40 89.8 40 C 89.2 40 88.9 40 88.3 40 C 87.7 40 87.4 40 86.8 40 C 86.2 40 85.9 40 85.4 40 C 84.8 40 84.5 40 83.9 40 C 83.3 40 83.0 40 82.4 40 C 81.8 40 81.5 40 80.9 40 C 80.4 40 80.1 40 79.5 40 C 78.9 40 78.6 40 78.0 40 C 77.4 40 77.1 40 76.5 40 C 75.9 40 75.6 40 75.0 40 C 74.5 40 74.2 40 73.6 40 C 73.0 40 72.7 40 72.1 40 C 71.5 40 71.2 40 70.6 40 C 70.0 40 69.7 40 69.2 40 C 68.6 40 68.3 40 67.7 40 C 67.1 40 66.8 40 66.2 40 C 65.6 40 65.3 40 64.7 40 C 64.2 40 63.9 40 63.3 40 C 62.7 40 62.4 40 61.8 40 C 61.2 40 60.9 40 60.3 40 C 59.7 40 59.4 40 58.9 40 C 58.3 40 58.0 40 57.4 40 C 56.8 40 56.5 40 55.9 40 C 55.3 40 55.0 40 54.4 40 C 53.8 40 53.6 40 53.0 40 C 52.4 40 52.1 40 51.5 40 C 50.9 40 50.6 40 50.0 40 C 49.4 40 49.1 40 48.5 40 C 48.0 40 47.7 40 47.1 40 C 46.5 40 46.2 40 45.6 40 C 45.0 40 44.7 40 44.1 40 C 43.5 40 43.2 40 42.7 40 C 42.1 40 41.8 40 41.2 40 C 40.6 40 40.3 40 39.7 40 C 39.1 40 38.8 40 38.2 40 C 37.6 40 37.4 40 36.8 40 C 36.2 40 35.9 40 35.3 40 C 34.7 40 34.4 40 33.8 40 C 33.2 40 32.9 40 32.3 40 C 31.8 40 31.5 40 30.9 40 C 30.3 40 30.0 40 29.4 40 C 28.8 40 28.5 40 27.9 40 C 27.3 40 27.0 40 26.5 40 C 25.9 40 25.6 40 25.0 40 C 24.4 40 24.1 40 23.5 40 C 22.9 40 22.6 40 22.0 40 C 21.4 40 21.2 40 20.6 40 C 20.0 40 19.7 40 19.1 40 C 18.5 40 18.2 40 17.6 40 C 17.0 40 16.7 40 16.1 40 C 15.6 40 15.3 40 14.7 40 C 14.1 40 13.8 40 13.2 40 C 12.6 40 12.3 40 11.7 40 C 11.1 40 10.8 40 10.3 40 C 9.7 40 9.4 40 8.8 40 C 8.2 40 7.9 40 7.3 40 C 6.7 40 6.4 40 5.8 40 C 5.3 40 5.0 40 4.4 40 C 3.8 40 3.5 40 2.9 40 C 2.3 40 2.0 40 1.4 40 C 0.8 40 0 40 0 40" fill-opacity="0.0">
			</path>
			<path fill="none" d="M 0 22.8 C 0 22.8 0.8 21.9 1.4 21.9 C 2.0 21.9 2.3 22.0 2.9 22.0 C 3.5 22.0 3.8 21.3 4.4 20.9 C 5.0 20.5 5.3 20.1 5.8 20.1 C 6.4 20.1 6.7 20.4 7.3 20.4 C 7.9 20.4 8.2 19.3 8.8 19.3 C 9.4 19.3 9.7 19.3 10.3 19.3 C 10.8 19.3 11.1 24.9 11.7 24.9 C 12.3 24.9 12.6 24.8 13.2 24.7 C 13.8 24.7 14.1 24.5 14.7 24.5 C 15.3 24.5 15.6 31.1 16.1 32.1 C 16.7 33.1 17.0 33.1 17.6 33.1 C 18.2 33.1 18.5 33.1 19.1 33.1 C 19.7 33.1 20.0 33.8 20.6 33.8 C 21.2 33.8 21.4 31.5 22.0 29.9 C 22.6 28.2 22.9 25.6 23.5 25.6 C 24.1 25.6 24.4 26.9 25.0 26.9 C 25.6 26.9 25.9 26.6 26.5 26.6 C 27.0 26.6 27.3 30.4 27.9 30.4 C 28.5 30.4 28.8 29.5 29.4 29.5 C 30.0 29.5 30.3 32.0 30.9 32.0 C 31.5 32.0 31.8 28.0 32.3 28.0 C 32.9 28.0 33.2 30.9 33.8 30.9 C 34.4 30.9 34.7 29.9 35.3 29.5 C 35.9 29.1 36.2 29.3 36.8 29.0 C 37.4 28.8 37.6 28.8 38.2 28.3 C 38.8 27.7 39.1 26.2 39.7 26.2 C 40.3 26.2 40.6 27.2 41.2 27.9 C 41.8 28.7 42.1 29.0 42.7 30.0 C 43.2 31.0 43.5 32.7 44.1 32.7 C 44.7 32.7 45.0 28.8 45.6 27.4 C 46.2 26.0 46.5 26.7 47.1 25.7 C 47.7 24.7 48.0 22.3 48.5 22.3 C 49.1 22.3 49.4 24.7 50.0 24.7 C 50.6 24.7 50.9 24.7 51.5 24.4 C 52.1 24.1 52.4 23.5 53.0 23.3 C 53.6 23.0 53.8 23.3 54.4 23.0 C 55.0 22.8 55.3 22.4 55.9 22.0 C 56.5 21.7 56.8 21.7 57.4 21.4 C 58.0 21.1 58.3 20.4 58.9 20.4 C 59.4 20.4 59.7 21.8 60.3 22.4 C 60.9 23.0 61.2 23.1 61.8 23.4 C 62.4 23.7 62.7 24.0 63.3 24.0 C 63.9 24.0 64.2 20 64.7 20 C 65.3 20 65.6 21.1 66.2 21.7 C 66.8 22.2 67.1 22.8 67.7 22.8 C 68.3 22.8 68.6 22.8 69.2 22.8 C 69.7 22.8 70.0 26.1 70.6 27.5 C 71.2 29.0 71.5 29.5 72.1 30.2 C 72.7 31.0 73.0 31.1 73.6 31.1 C 74.2 31.1 74.5 26.7 75.0 25.0 C 75.6 23.2 75.9 23.8 76.5 22.3 C 77.1 20.8 77.4 17.4 78.0 17.4 C 78.6 17.4 78.9 17.4 79.5 17.6 C 80.1 17.9 80.4 22.0 80.9 22.0 C 81.5 22.0 81.8 20 82.4 20 C 83.0 20 83.3 20 83.9 20 C 84.5 20 84.8 18.6 85.4 18.6 C 85.9 18.6 86.2 20.6 86.8 21.5 C 87.4 22.5 87.7 23.4 88.3 23.4 C 88.9 23.4 89.2 23.1 89.8 22.6 C 90.4 22.2 90.7 21.6 91.2 20.9 C 91.8 20.3 92.1 20.0 92.7 19.3 C 93.3 18.7 93.6 17.6 94.2 17.6 C 94.8 17.6 95.1 20.8 95.7 20.8 C 96.3 20.8 96.5 20.0 97.1 19.2 C 97.7 18.4 98.0 16.6 98.6 16.6 C 99.2 16.6 99.5 18.1 100.1 19.0 C 100.7 19.9 101.0 20.1 101.6 21.1 C 102.1 22.0 102.4 23.0 103.0 23.9 C 103.6 24.8 103.9 25.6 104.5 25.6 C 105.1 25.6 105.4 23.6 106.0 23.6 C 106.6 23.6 106.9 23.7 107.4 23.9 C 108.0 24.0 108.3 24.2 108.9 24.2 C 109.5 24.2 109.8 22.9 110.4 22.9 C 111.0 22.9 111.3 24.8 111.9 25.5 C 112.5 26.2 112.7 26.4 113.3 26.4 C 113.9 26.4 114.2 24.8 114.8 23.7 C 115.4 22.7 115.7 21.9 116.3 21.2 C 116.9 20.5 117.2 20.2 117.8 20.2 C 118.3 20.2 118.6 21.2 119.2 22.0 C 119.8 22.9 120.1 23.5 120.7 24.5 C 121.3 25.5 121.6 27.1 122.2 27.1 C 122.8 27.1 123.1 27.1 123.6 26.2 C 124.2 25.3 124.5 19.5 125.1 19.1 C 125.7 18.7 126.0 18.7 126.6 18.7 C 127.2 18.7 127.5 19.7 128.1 20.1 C 128.6 20.4 128.9 20.1 129.5 20.4 C 130.1 20.8 130.4 21.4 131.0 22.4 C 131.6 23.4 131.9 25.6 132.5 25.6 C 133.1 25.6 133.4 21.4 134 21.4 C 134.5 21.4 134.8 24.4 135.4 25.3 C 136.0 26.3 136.3 26.3 136.9 26.3 C 137.5 26.3 137.8 25.2 138.4 23.9 C 139.0 22.5 139.3 21.0 139.8 19.6 C 140.4 18.2 140.7 17.0 141.3 17.0 C 141.9 17.0 142.2 17.2 142.8 17.5 C 143.4 17.8 143.7 18.2 144.3 18.6 C 144.8 19.0 145.1 19.3 145.7 19.3 C 146.3 19.3 146.6 19.3 147.2 18.6 C 147.8 17.9 148.1 16.0 148.7 16.0 C 149.3 16.0 149.6 19.5 150.1 19.6 C 150.7 19.7 151.0 19.7 151.6 19.7 C 152.2 19.8 152.5 19.7 153.1 19.8 C 153.7 19.9 154.0 22.3 154.6 22.3 C 155.2 22.3 155.4 18.1 156.0 18.1 C 156.6 18.1 156.9 19.0 157.5 19.8 C 158.1 20.7 158.4 22.3 159.0 22.3 C 159.6 22.3 159.9 22.0 160.5 22.0 C 161.0 22.0 161.3 22.4 161.9 22.4 C 162.5 22.4 162.8 21.5 163.4 20.4 C 164.0 19.4 164.3 17.4 164.9 17.3 C 165.5 17.1 165.8 17.1 166.3 17.1 C 166.9 17.1 167.2 18.0 167.8 18.6 C 168.4 19.2 168.7 20.3 169.3 20.3 C 169.9 20.3 170.2 18.6 170.8 18.4 C 171.4 18.1 171.6 18.4 172.2 18.1 C 172.8 17.9 173.1 15.8 173.7 15.8 C 174.3 15.8 174.6 18.4 175.2 20.7 C 175.8 23.0 176.1 27.4 176.7 27.4 C 177.2 27.4 177.5 27.4 178.1 26.4 C 178.7 25.5 179.0 18.6 179.6 18.6 C 180.2 18.6 180.5 24.9 181.1 24.9 C 181.7 24.9 182.0 20.7 182.5 19.2 C 183.1 17.7 183.4 18.0 184.0 17.4 C 184.6 16.8 184.9 16.2 185.5 16.2 C 186.1 16.2 186.4 19.1 187.0 20.2 C 187.6 21.3 187.8 21.5 188.4 21.5 C 189.0 21.5 189.3 16.2 189.9 16.2 C 190.5 16.2 190.8 17.1 191.4 17.1 C 192.0 17.1 192.3 16.4 192.9 16.4 C 193.4 16.4 193.7 17.6 194.3 17.6 C 194.9 17.6 195.2 16.8 195.8 16.8 C 196.4 16.8 196.7 21.8 197.3 21.8 C 197.9 21.8 198.2 17.0 198.7 15.3 C 199.3 13.6 199.6 13.5 200.2 13.2 C 200.8 13.0 201.1 13.0 201.7 13.0 C 202.3 13.0 202.6 13.3 203.2 13.8 C 203.7 14.4 204.0 15.8 204.6 15.8 C 205.2 15.8 205.5 15.8 206.1 14.8 C 206.7 13.8 207.0 10.5 207.6 10.5 C 208.2 10.5 208.5 12.7 209.0 12.7 C 209.6 12.7 209.9 11.4 210.5 11.4 C 211.1 11.4 211.4 17.1 212.0 17.1 C 212.6 17.1 212.9 14.4 213.5 14.4 C 214.1 14.4 214.4 18.0 214.9 18.0 C 215.5 18.0 215.8 14.8 216.4 14.8 C 217.0 14.8 217.3 16.4 217.9 17.1 C 218.5 17.9 218.8 18.5 219.4 18.5 C 219.9 18.5 220.2 15.5 220.8 15.5 C 221.4 15.5 221.7 17.9 222.3 17.9 C 222.9 17.9 223.2 17.2 223.8 16.0 C 224.4 14.9 224.7 12.2 225.2 12.2 C 225.8 12.2 226.1 12.4 226.7 12.4 C 227.3 12.4 227.6 8.2 228.2 8.2 C 228.8 8.2 229.1 8.2 229.7 8.3 C 230.3 8.4 230.5 13.7 231.1 13.7 C 231.7 13.7 232.0 13.3 232.6 12.8 C 233.2 12.4 233.5 11.2 234.1 11.2 C 234.7 11.2 235.0 15.2 235.6 15.2 C 236.1 15.2 236.4 9.3 237.0 9.3 C 237.6 9.3 237.9 10.0 238.5 10.5 C 239.1 11.0 239.4 10.6 240.0 11.9 C 240.6 13.2 240.9 17.0 241.4 17.0 C 242.0 17.0 242.3 16.2 242.9 15.0 C 243.5 13.9 243.8 11.5 244.4 11.5 C 245.0 11.5 245.3 14.6 245.9 14.6 C 246.5 14.6 246.7 9.9 247.3 9.9 C 247.9 9.9 248.2 12.1 248.8 12.1 C 249.4 12.1 249.7 11.0 250.3 11.0 C 250.9 11.0 251.2 11.7 251.8 13.1 C 252.3 14.5 252.6 17.9 253.2 17.9 C 253.8 17.9 254.1 11.9 254.7 11.9 C 255.3 11.9 255.6 17.7 256.2 17.7 C 256.8 17.7 257.1 16.4 257.6 16.4 C 258.2 16.4 258.5 17.4 259.1 17.4 C 259.7 17.4 260.0 13.8 260.6 13.8 C 261.2 13.8 261.5 14.9 262.1 15.4 C 262.6 16.0 262.9 16.6 263.5 16.6 C 264.1 16.6 264.4 13.8 265.0 13.8 C 265.6 13.8 265.9 14.8 266.5 14.8 C 267.1 14.8 267.4 14.8 268 14.2 C 268.5 13.6 268.8 10.4 269.4 10.4 C 270.0 10.4 270.3 16.3 270.9 16.3 C 271.5 16.3 271.8 10.7 272.4 8.6 C 273.0 6.4 273.3 5.4 273.8 5.4 C 274.4 5.4 274.7 5.4 275.3 5.6 C 275.9 5.9 276.2 10.9 276.8 10.9 C 277.4 10.9 277.7 4.8 278.3 4.8 C 278.8 4.8 279.1 4.8 279.7 4.8 C 280.3 4.8 280.6 5.3 281.2 5.5 C 281.8 5.7 282.1 5.5 282.7 5.9 C 283.3 6.2 283.6 8.1 284.1 8.1 C 284.7 8.1 285.0 5.1 285.6 5.1 C 286.2 5.1 286.5 5.8 287.1 6.1 C 287.7 6.4 288.0 6.1 288.6 6.5 C 289.2 6.8 289.4 8.7 290.0 8.7 C 290.6 8.7 290.9 7.1 291.5 7.1 C 292.1 7.1 292.4 10.3 293.0 10.3 C 293.6 10.3 293.9 7.8 294.5 7.8 C 295.0 7.8 295.3 7.8 295.9 7.8 C 296.5 7.8 296.8 7.1 297.4 7.0 C 298.0 6.8 298.3 7.0 298.9 6.8 C 299.5 6.7 299.8 6.0 300.3 5.2 C 300.9 4.5 301.2 3.3 301.8 3.3 C 302.4 3.3 302.7 3.3 303.3 3.8 C 303.9 4.3 304.2 7.8 304.8 7.8 C 305.4 7.8 305.6 3.5 306.2 3.5 C 306.8 3.5 307.1 3.9 307.7 4.5 C 308.3 5.1 308.6 5.7 309.2 6.5 C 309.8 7.3 310.1 8.2 310.7 8.4 C 311.2 8.7 311.5 8.4 312.1 8.7 C 312.7 8.9 313.0 10.1 313.6 10.1 C 314.2 10.1 314.5 7.1 315.1 7.1 C 315.7 7.1 316.0 8.6 316.5 8.8 C 317.1 9.0 317.4 9.0 318.0 9.0 C 318.6 9.0 318.9 8.4 319.5 8.4 C 320.1 8.4 320.4 10.6 321.0 10.6 C 321.6 10.6 321.8 6.1 322.4 6.1 C 323.0 6.1 323.3 10.5 323.9 10.5 C 324.5 10.5 324.8 7.8 325.4 7.6 C 326.0 7.3 326.3 7.3 326.9 7.3 C 327.4 7.3 327.7 8.0 328.3 8.4 C 328.9 8.8 329.2 8.4 329.8 9.3 C 330.4 10.1 330.7 12.6 331.3 13.3 C 331.9 14.1 332.2 14.1 332.7 14.1 C 333.3 14.1 333.6 10.8 334.2 10.8 C 334.8 10.8 335.1 11.0 335.7 11.0 C 336.3 11.0 336.6 11.0 337.2 10.6 C 337.7 10.3 338.0 9.3 338.6 9.3 C 339.2 9.3 339.5 9.9 340.1 10.4 C 340.7 10.9 341.0 10.9 341.6 12.0 C 342.2 13.0 342.5 15.7 343.0 15.7 C 343.6 15.7 343.9 13.2 344.5 13.2 C 345.1 13.2 345.4 14.1 346.0 14.1 C 346.6 14.1 346.9 13.8 347.5 13.8 C 348.1 13.8 348.4 15.8 348.9 16.0 C 349.5 16.3 350.4 16.3 350.4 16.3 M 365.1 7.7 C 365.1 7.7 366.0 7.7 366.6 7.9 C 367.2 8.2 367.5 8.5 368.1 9.5 C 368.7 10.6 369.0 11.6 369.6 13.1 C 370.1 14.6 370.4 16.9 371.0 16.9 C 371.6 16.9 371.9 16.9 372.5 15.8 C 373.1 14.7 373.4 11.5 374.0 11.5 C 374.6 11.5 374.9 12.9 375.4 13.5 C 376.0 14.0 376.3 13.8 376.9 14.4 C 377.5 15.1 377.8 16.0 378.4 16.8 C 379.0 17.5 379.3 17.9 379.9 18.4 C 380.5 18.8 380.7 19.2 381.3 19.2 C 381.9 19.2 382.2 18.6 382.8 18.6 C 383.4 18.6 383.7 20.3 384.3 20.3 C 384.9 20.3 385.2 13.7 385.8 13.7 C 386.3 13.7 386.6 13.7 387.2 14.8 C 387.8 15.9 388.1 22.5 388.7 22.5 C 389.3 22.5 389.6 22.5 390.2 21.7 C 390.8 20.8 391.1 19.1 391.6 18.0 C 392.2 16.9 392.5 17.1 393.1 16.3 C 393.7 15.5 394.0 14.7 394.6 14.1 C 395.2 13.5 395.5 13.6 396.1 13.2 C 396.6 12.8 396.9 12.0 397.5 12.0 C 398.1 12.0 398.4 17.0 399.0 17.7 C 399.6 18.5 399.9 18.5 400.5 18.5 C 401.1 18.5 401.4 13.3 402 13.3 C 402.5 13.3 402.8 17.9 403.4 19.3 C 404.0 20.8 404.3 20.8 404.9 20.8 C 405.5 20.8 405.8 11.6 406.4 11.6 C 407.0 11.6 407.3 12.1 407.8 12.4 C 408.4 12.6 408.7 12.4 409.3 12.7 C 409.9 13.1 410.2 13.6 410.8 14.2 C 411.4 14.8 411.7 14.9 412.3 15.9 C 412.8 16.9 413.1 19.2 413.7 19.2 C 414.3 19.2 414.6 16.8 415.2 16.4 C 415.8 16.0 416.1 16.0 416.7 16.0 C 417.3 16.0 417.6 16.0 418.1 16.0 C 418.7 16.0 419.0 16.0 419.6 16.9 C 420.2 17.7 420.5 21.2 421.1 22.6 C 421.7 24.1 422.0 23.7 422.6 24.2 C 423.2 24.8 423.4 24.9 424.0 25.3 C 424.6 25.7 424.9 26.2 425.5 26.2 C 426.1 26.2 426.4 26.2 427.0 24.9 C 427.6 23.5 427.9 16.6 428.5 15.7 C 429.0 14.7 429.3 14.7 429.9 14.7 C 430.5 14.7 430.8 19.5 431.4 19.5 C 432.0 19.5 432.3 16.9 432.9 16.5 C 433.5 16.2 433.8 16.5 434.3 16.2 C 434.9 15.8 435.2 14.4 435.8 14.4 C 436.4 14.4 436.7 16.6 437.3 16.6 C 437.9 16.6 438.2 11.5 438.8 11.5 C 439.4 11.5 439.6 12.9 440.2 15.4 C 440.8 17.9 441.1 24.1 441.7 24.1 C 442.3 24.1 442.6 24.1 443.2 24.1 C 443.8 24.1 444.1 19.5 444.7 19.3 C 445.2 19.2 445.5 19.3 446.1 19.2 C 446.7 19.1 447.0 19.0 447.6 18.2 C 448.2 17.5 448.5 15.5 449.1 15.5 C 449.7 15.5 450.0 20.2 450.5 20.4 C 451.1 20.7 451.4 20.4 452.0 20.7 C 452.6 20.9 452.9 22.4 453.5 23.1 C 454.1 23.9 454.4 24.0 455.0 24.4 C 455.6 24.7 455.8 24.9 456.4 24.9 C 457.0 24.9 457.3 16.0 457.9 16.0 C 458.5 16.0 458.8 16.6 459.4 17.5 C 460.0 18.4 460.3 19.2 460.9 20.4 C 461.4 21.7 461.7 23.0 462.3 23.6 C 462.9 24.2 463.2 24.2 463.8 24.2 C 464.4 24.2 464.7 18.2 465.3 18.2 C 465.9 18.2 466.2 18.4 466.7 18.5 C 467.3 18.6 467.6 18.5 468.2 18.8 C 468.8 19.2 469.1 18.9 469.7 20.1 C 470.3 21.2 470.6 24.6 471.2 24.6 C 471.7 24.6 472.0 21.8 472.6 21.8 C 473.2 21.8 473.5 23.6 474.1 24.4 C 474.7 25.1 475.0 25.3 475.6 25.7 C 476.2 26.1 476.5 26.0 477.0 26.3 C 477.6 26.7 477.9 27.4 478.5 27.4 C 479.1 27.4 479.4 25.2 480.0 23.7 C 480.6 22.3 480.9 20 481.5 20 C 482.1 20 482.4 22.1 482.9 23.1 C 483.5 24.2 483.8 25.3 484.4 25.3 C 485.0 25.3 485.3 23.6 485.9 23.6 C 486.5 23.6 486.8 25.6 487.4 25.6 C 487.9 25.6 488.2 25.6 488.8 25.5 C 489.4 25.3 489.7 25.4 490.3 25.0 C 490.9 24.6 491.2 24.0 491.8 23.5 C 492.4 23.0 492.7 23.4 493.2 22.4 C 493.8 21.4 494.1 18.6 494.7 18.6 C 495.3 18.6 495.6 23.6 496.2 23.6 C 496.8 23.6 497.1 21.1 497.7 21.1 C 498.3 21.1 498.5 22.8 499.1 22.8 C 499.7 22.8 500.0 21.7 500.6 21.7 C 501.2 21.7 501.5 22.1 502.1 22.4 C 502.7 22.7 503.0 23.3 503.6 23.3 C 504.1 23.3 504.4 21.8 505.0 21.8 C 505.6 21.8 505.9 24.4 506.5 24.4 C 507.1 24.4 507.4 24.2 508.0 24.2 C 508.6 24.2 508.9 25.3 509.4 25.3 C 510.0 25.3 510.3 23.5 510.9 23.5 C 511.5 23.5 511.8 26.2 512.4 26.2 C 513.0 26.2 513.3 23.7 513.9 23.7 C 514.5 23.7 514.7 27.8 515.3 27.8 C 515.9 27.8 516.2 26.4 516.8 25.5 C 517.4 24.5 517.7 23.3 518.3 23.1 C 518.9 23.0 519.2 23.0 519.8 23.0 C 520.3 23.0 520.6 23.7 521.2 23.7 C 521.8 23.7 522.1 23.7 522.7 23.4 C 523.3 23.1 524.2 22.3 524.2 22.3 M 528.6 29.3 C 528.6 29.3 529.5 36.6 530.1 36.6 C 530.6 36.6 530.9 35.6 531.5 34.4 C 532.1 33.2 532.4 32.9 533.0 30.5 C 533.6 28.1 533.9 22.9 534.5 22.5 C 535.1 22.2 536 22.2 536 22.2" stroke="#4572A7" stroke-width="1" stroke-linejoin="round" stroke-linecap="round">
			</path>
		</g>
		<g class="highcharts-markers highcharts-series-1" transform="translate(24,331) scale(1 1)" clip-path="none">
		</g>
	</g>
	<g class="highcharts-navigator">
		<rect fill="rgb(128,179,236)" fill-opacity="0.3" style="cursor:ew-resize;" x="290" y="331" width="270" height="40">
		</rect>
		<path fill="none" stroke="#b2b1b6" stroke-width="1" d="M 10 331.5 L 289.5 331.5 289.5 385.5 L 559.5 385.5 L 559.5 331.5 574 331.5 M 290.5 331.5 L 559.5 331.5">
		</path>
	</g>
	<text x="292" text-anchor="middle" class="highcharts-title" style="color:#333333;font-size:16px;fill:#333333;width:520px;" y="22">
		<tspan>Temperature variation by day
		</tspan>
	</text>
	<g class="highcharts-axis-labels highcharts-xaxis-labels">
		<text x="26.6" style="color:#606060;cursor:default;font-size:11px;fill:#606060;width:103px;text-overflow:clip;" text-anchor="middle" transform="translate(0,0)" y="304" opacity="1">
			<tspan>Jul '14
			</tspan>
		</text>
		<text x="105.5" style="color:#606060;cursor:default;font-size:11px;fill:#606060;width:103px;text-overflow:clip;" text-anchor="middle" transform="translate(0,0)" y="304" opacity="1">
			<tspan>Aug '14
			</tspan>
		</text>
		<text x="201.0" style="color:#606060;cursor:default;font-size:11px;fill:#606060;width:103px;text-overflow:clip;" text-anchor="middle" transform="translate(0,0)" y="304" opacity="1">
			<tspan>Sep '14
			</tspan>
		</text>
		<text x="293.5" style="color:#606060;cursor:default;font-size:11px;fill:#606060;width:103px;text-overflow:clip;" text-anchor="middle" transform="translate(0,0)" y="304" opacity="1">
			<tspan>Oct '14
			</tspan>
		</text>
		<text x="388.9" style="color:#606060;cursor:default;font-size:11px;fill:#606060;width:103px;text-overflow:clip;" text-anchor="middle" transform="translate(0,0)" y="304" opacity="1">
			<tspan>Nov '14
			</tspan>
		</text>
		<text x="481.4" style="color:#606060;cursor:default;font-size:11px;fill:#606060;width:103px;text-overflow:clip;" text-anchor="middle" transform="translate(0,0)" y="304" opacity="1">
			<tspan>Dec '14
			</tspan>
		</text>
	</g>
	<g class="highcharts-axis-labels highcharts-xaxis-labels">
		<text x="202.7" style="color:#888;cursor:default;font-size:11px;fill:#888;width:554px;text-overflow:clip;" text-anchor="start" transform="translate(0,0)" y="367" opacity="1">
			<tspan>May '14
			</tspan>
		</text>
		<text x="383.8" style="color:#888;cursor:default;font-size:11px;fill:#888;width:554px;text-overflow:clip;" text-anchor="start" transform="translate(0,0)" y="367" opacity="1">
			<tspan>Sep '14
			</tspan>
		</text>
	</g>
	<g class="highcharts-axis-labels highcharts-yaxis-labels">
		<text x="574" style="color:#606060;cursor:default;font-size:11px;fill:#606060;width:183px;text-overflow:clip;" text-anchor="end" transform="translate(0,0)" y="283" opacity="1">-20
		</text>
		<text x="574" style="color:#606060;cursor:default;font-size:11px;fill:#606060;width:183px;text-overflow:clip;" text-anchor="end" transform="translate(0,0)" y="214" opacity="1">0
		</text>
		<text x="574" style="color:#606060;cursor:default;font-size:11px;fill:#606060;width:183px;text-overflow:clip;" text-anchor="end" transform="translate(0,0)" y="146" opacity="1">20
		</text>
		<text x="0" style="color:#606060;cursor:default;font-size:11px;fill:#606060;width:183px;text-overflow:clip;" text-anchor="end" transform="translate(0,0)" y="-9999">40
		</text>
	</g>
	<g class="highcharts-axis-labels highcharts-yaxis-labels">
	</g>
	<g class="highcharts-tooltip" style="cursor:default;padding:0;pointer-events:none;white-space:nowrap;" transform="translate(0,-9999)">
		<path fill="none" d="M 3.5 0.5 L 13.5 0.5 C 16.5 0.5 16.5 0.5 16.5 3.5 L 16.5 13.5 C 16.5 16.5 16.5 16.5 13.5 16.5 L 3.5 16.5 C 0.5 16.5 0.5 16.5 0.5 13.5 L 0.5 3.5 C 0.5 0.5 0.5 0.5 3.5 0.5"  stroke="black" stroke-opacity="0.0" stroke-width="5" transform="translate(1, 1)">
		</path>
		<path fill="none" d="M 3.5 0.5 L 13.5 0.5 C 16.5 0.5 16.5 0.5 16.5 3.5 L 16.5 13.5 C 16.5 16.5 16.5 16.5 13.5 16.5 L 3.5 16.5 C 0.5 16.5 0.5 16.5 0.5 13.5 L 0.5 3.5 C 0.5 0.5 0.5 0.5 3.5 0.5"  stroke="black" stroke-opacity="0.0" stroke-width="3" transform="translate(1, 1)">
		</path>
		<path fill="none" d="M 3.5 0.5 L 13.5 0.5 C 16.5 0.5 16.5 0.5 16.5 3.5 L 16.5 13.5 C 16.5 16.5 16.5 16.5 13.5 16.5 L 3.5 16.5 C 0.5 16.5 0.5 16.5 0.5 13.5 L 0.5 3.5 C 0.5 0.5 0.5 0.5 3.5 0.5"  stroke="black" stroke-opacity="0.1" stroke-width="1" transform="translate(1, 1)">
		</path>
		<path fill="rgb(249, 249, 249)" fill-opacity=" .85" d="M 3.5 0.5 L 13.5 0.5 C 16.5 0.5 16.5 0.5 16.5 3.5 L 16.5 13.5 C 16.5 16.5 16.5 16.5 13.5 16.5 L 3.5 16.5 C 0.5 16.5 0.5 16.5 0.5 13.5 L 0.5 3.5 C 0.5 0.5 0.5 0.5 3.5 0.5">
		</path>
		<text x="8" style="font-size:12px;color:#333333;fill:#333333;" y="20">
		</text>
	</g>
	<g class="highcharts-navigator-handle-right" style="cursor:ew-resize;" transform="translate(560,343)">
		<rect x="-4.5" y="0.5" width="8" height="15" fill="#ebe7e8" stroke="#b2b1b6" stroke-width="1">
		</rect>
		<path fill="#ebe7e8" d="M -1.5 4 L -1.5 12 M 0.5 4 L 0.5 12" stroke="#b2b1b6" stroke-width="1">
		</path>
	</g>
	<g class="highcharts-navigator-handle-left" style="cursor:ew-resize;" transform="translate(290,343)">
		<rect x="-4.5" y="0.5" width="8" height="15" fill="#ebe7e8" stroke="#b2b1b6" stroke-width="1">
		</rect>
		<path fill="#ebe7e8" d="M -1.5 4 L -1.5 12 M 0.5 4 L 0.5 12" stroke="#b2b1b6" stroke-width="1">
		</path>
	</g>
</svg>