
<svg version="1.1" style="font-family:&quot;lucida grande&quot;, &quot;lucida sans unicode&quot;, arial, helvetica, sans-serif;font-size:12px;" xmlns="http://www.w3.org/2000/svg" viewBox="0 0 584 400">
	<desc>Created with Highstock 4.2.4
	</desc>
	<defs>
		<clipPath id="highcharts-1">
			<rect x="0" y="0" width="539" height="206">
			</rect>
		</clipPath>
		<clipPath id="highcharts-3">
			<rect x="0" y="0" width="540" height="72">
			</rect>
		</clipPath>
		<clipPath id="highcharts-4">
			<rect x="0" y="0" width="512" height="40">
			</rect>
		</clipPath>
	</defs>
	<rect x="0" y="0" width="584" height="400" fill="#FFFFFF" class=" highcharts-background">
	</rect>
	<g class="highcharts-scrollbar" transform="translate(10,372)">
		<rect x="0" y="-0.5" fill="#eeeeee" stroke="#eeeeee" stroke-width="1" rx="0" ry="0" height="14" width="540">
		</rect>
		<rect y="-0.5" height="14" fill="#bfc8d1" stroke="#bfc8d1" stroke-width="1" rx="0" ry="0" x="508.5" width="17">
		</rect>
		<path fill="none" stroke="#666" stroke-width="1" visibility="visible" d="M 513.5 3.5 L 513.5 9.3 M 516.5 3.5 L 516.5 9.3 M 519.5 3.5 L 519.5 9.3">
		</path>
		<g>
			<rect x="-0.5" y="-0.5" width="14" height="14" stroke="#bbb" stroke-width="1" fill="#ebe7e8">
			</rect>
			<path fill="#666" d="M 8 4 L 8 10 5 7">
			</path>
		</g>
		<g transform="translate(526,0)">
			<rect x="-0.5" y="-0.5" width="14" height="14" stroke="#bbb" stroke-width="1" fill="#ebe7e8">
			</rect>
			<path fill="#666" d="M 6 4 L 6 10 9 7">
			</path>
		</g>
	</g>
	<g class="highcharts-range-selector-buttons" transform="translate(0,44)">
		<text x="10" y="15" style="color:#666;fill:#666;">Zoom
		</text>
		<g class="highcharts-button" states="[object Object]" style="cursor:pointer;text-align:center;" transform="translate(48,0)">
			<rect x="0" y="0" width="32" height="22" fill="#f7f7f7" rx="0" ry="0">
			</rect>
			<text x="6.6" style="font-weight:normal;color:#444;fill:#444;" y="14">1m
			</text>
		</g>
		<g class="highcharts-button" states="[object Object]" style="cursor:pointer;text-align:center;" transform="translate(85,0)">
			<rect x="0" y="0" width="32" height="22" fill="#e7f0f9" rx="0" ry="0">
			</rect>
			<text x="6.6" style="font-weight:bold;color:black;fill:black;" y="14">3m
			</text>
		</g>
		<g class="highcharts-button" states="[object Object]" style="cursor:pointer;text-align:center;" transform="translate(122,0)">
			<rect x="0" y="0" width="32" height="22" fill="#f7f7f7" rx="0" ry="0">
			</rect>
			<text x="6.6" style="font-weight:normal;color:#444;fill:#444;" y="14">6m
			</text>
		</g>
		<g class="highcharts-button" states="[object Object]" style="cursor:pointer;text-align:center;" transform="translate(159,0)">
			<rect x="0" y="0" width="32" height="22" fill="#f7f7f7" rx="0" ry="0">
			</rect>
			<text x="3.9" style="font-weight:normal;color:#444;fill:#444;" y="14">YTD
			</text>
		</g>
		<g class="highcharts-button" states="[object Object]" style="cursor:pointer;text-align:center;" transform="translate(196,0)">
			<rect x="0" y="0" width="32" height="22" fill="#f7f7f7" rx="0" ry="0">
			</rect>
			<text x="9.0" style="font-weight:normal;color:#444;fill:#444;" y="14">1y
			</text>
		</g>
		<g class="highcharts-button" states="[object Object]" style="cursor:pointer;text-align:center;" transform="translate(233,0)">
			<rect x="0" y="0" width="32" height="22" fill="#f7f7f7" rx="0" ry="0">
			</rect>
			<text x="8.3" style="font-weight:normal;color:#444;fill:#444;" y="14">All
			</text>
		</g>
	</g>
	<g class="highcharts-input-group" transform="translate(313,44)" visibility="visible">
		<g style="fill:#666;" transform="translate(0,0)">
			<text x="2" style="font-size:12px;font-family:&quot;lucida grande&quot;, &quot;lucida sans unicode&quot;, arial, helvetica, sans-serif;color:#666;fill:#666;" y="14">From
			</text>
		</g>
		<g style="text-align:center;" transform="translate(39,0)">
			<rect x="0.5" y="0.5" width="94" height="21" fill="none" stroke="silver" stroke-width="1">
			</rect>
			<text x="9.6" style="font-size:12px;font-family:&quot;lucida grande&quot;, &quot;lucida sans unicode&quot;, arial, helvetica, sans-serif;color:#444;fill:#444;" y="14">
				<tspan>Jan 21, 2016
				</tspan>
			</text>
		</g>
		<g style="fill:#666;" transform="translate(143,0)">
			<text x="2" style="font-size:12px;font-family:&quot;lucida grande&quot;, &quot;lucida sans unicode&quot;, arial, helvetica, sans-serif;color:#666;fill:#666;" y="14">To
			</text>
		</g>
		<g style="text-align:center;" transform="translate(167,0)">
			<rect x="0.5" y="0.5" width="94" height="21" fill="none" stroke="silver" stroke-width="1">
			</rect>
			<text x="8.2" style="font-size:12px;font-family:&quot;lucida grande&quot;, &quot;lucida sans unicode&quot;, arial, helvetica, sans-serif;color:#444;fill:#444;" y="14">
				<tspan>Apr 21, 2016
				</tspan>
			</text>
		</g>
	</g>
	<g class="highcharts-grid">
	</g>
	<g class="highcharts-grid">
		<path fill="none" d="M 74.5 331 L 74.5 371" stroke="#EEE" stroke-width="1" opacity="1">
		</path>
		<path fill="none" d="M 220.5 331 L 220.5 371" stroke="#EEE" stroke-width="1" opacity="1">
		</path>
		<path fill="none" d="M 366.5 331 L 366.5 371" stroke="#EEE" stroke-width="1" opacity="1">
		</path>
		<path fill="none" d="M 513.5 331 L 513.5 371" stroke="#EEE" stroke-width="1" opacity="1">
		</path>
	</g>
	<g class="highcharts-grid">
		<path fill="none" d="M 10 203.5 L 550 203.5" stroke="#D8D8D8" stroke-width="1" opacity="1">
		</path>
		<path fill="none" d="M 10 162.5 L 550 162.5" stroke="#D8D8D8" stroke-width="1" opacity="1">
		</path>
		<path fill="none" d="M 10 120.5 L 550 120.5" stroke="#D8D8D8" stroke-width="1" opacity="1">
		</path>
		<path fill="none" d="M 10 78.5 L 550 78.5" stroke="#D8D8D8" stroke-width="1" opacity="1">
		</path>
	</g>
	<g class="highcharts-grid">
		<path fill="none" d="M 10 285.5 L 550 285.5" stroke="#D8D8D8" stroke-width="1" opacity="1">
		</path>
		<path fill="none" d="M 10 212.5 L 550 212.5" stroke="#D8D8D8" stroke-width="1" opacity="1">
		</path>
	</g>
	<g class="highcharts-grid">
	</g>
	<g class="highcharts-axis">
		<path fill="none" d="M 12.5 285 L 12.5 295" stroke="#C0D0E0" stroke-width="1" opacity="1">
		</path>
		<path fill="none" d="M 89.5 285 L 89.5 295" stroke="#C0D0E0" stroke-width="1" opacity="1">
		</path>
		<path fill="none" d="M 166.5 285 L 166.5 295" stroke="#C0D0E0" stroke-width="1" opacity="1">
		</path>
		<path fill="none" d="M 243.5 285 L 243.5 295" stroke="#C0D0E0" stroke-width="1" opacity="1">
		</path>
		<path fill="none" d="M 320.5 285 L 320.5 295" stroke="#C0D0E0" stroke-width="1" opacity="1">
		</path>
		<path fill="none" d="M 397.5 285 L 397.5 295" stroke="#C0D0E0" stroke-width="1" opacity="1">
		</path>
		<path fill="none" d="M 475.5 285 L 475.5 295" stroke="#C0D0E0" stroke-width="1" opacity="1">
		</path>
		<path fill="none" d="M 10 285.5 L 550 285.5" stroke="#C0D0E0" stroke-width="1">
		</path>
	</g>
	<g class="highcharts-axis">
	</g>
	<g class="highcharts-axis">
		<text x="560" text-anchor="middle" transform="translate(0,0) rotate(90 560 141)" class=" highcharts-yaxis-title" style="color:#707070;fill:#707070;" y="141">OHLC
		</text>
		<path fill="none" d="M 550 79 L 550 203" stroke="#C0D0E0" stroke-width="2">
		</path>
	</g>
	<g class="highcharts-axis">
		<text x="560" text-anchor="middle" transform="translate(0,0) rotate(90 560 249)" class=" highcharts-yaxis-title" style="color:#707070;fill:#707070;" y="249">Volume
		</text>
		<path fill="none" d="M 550 213 L 550 285" stroke="#C0D0E0" stroke-width="2">
		</path>
	</g>
	<g class="highcharts-axis">
	</g>
	<g class="highcharts-series-group">
		<g class="highcharts-series highcharts-series-0 highcharts-tracker" transform="translate(10,79) scale(1 1)" style="" clip-path="url(#highcharts-1)">
			<path fill="white" d="M -7.5 88.5 L -7.5 77.5 L 12.5 77.5 L 12.5 88.5 Z M 2.5 77.5 L 2.5 77.5 M 2.5 88.5 L 2.5 89" stroke="black" stroke-width="1">
			</path>
			<path fill="#7cb5ec" d="M 30.5 94.5 L 30.5 76.5 L 50.5 76.5 L 50.5 94.5 Z M 40.5 76.5 L 40.5 76.5 M 40.5 94.5 L 40.5 114" stroke="black" stroke-width="1">
			</path>
			<path fill="#7cb5ec" d="M 69.5 107.5 L 69.5 97.5 L 89.5 97.5 L 89.5 107.5 Z M 79.5 97.5 L 79.5 94 M 79.5 107.5 L 79.5 109" stroke="black" stroke-width="1">
			</path>
			<path fill="white" d="M 107.5 111.5 L 107.5 108.5 L 127.5 108.5 L 127.5 111.5 Z M 117.5 108.5 L 117.5 98 M 117.5 111.5 L 117.5 113" stroke="black" stroke-width="1">
			</path>
			<path fill="white" d="M 146.5 103.5 L 146.5 99.5 L 166.5 99.5 L 166.5 103.5 Z M 156.5 99.5 L 156.5 87 M 156.5 103.5 L 156.5 105" stroke="black" stroke-width="1">
			</path>
			<path fill="white" d="M 184.5 98.5 L 184.5 95.5 L 204.5 95.5 L 204.5 98.5 Z M 194.5 95.5 L 194.5 91 M 194.5 98.5 L 194.5 110" stroke="black" stroke-width="1">
			</path>
			<path fill="white" d="M 223.5 96.5 L 223.5 70.5 L 243.5 70.5 L 243.5 96.5 Z M 233.5 70.5 L 233.5 67 M 233.5 96.5 L 233.5 97" stroke="black" stroke-width="1">
			</path>
			<path fill="#7cb5ec" d="M 262.5 73.5 L 262.5 73.5 L 282.5 73.5 L 282.5 73.5 Z M 272.5 73.5 L 272.5 71 M 272.5 73.5 L 272.5 82" stroke="black" stroke-width="1">
			</path>
			<path fill="white" d="M 300.5 75.5 L 300.5 58.5 L 320.5 58.5 L 320.5 75.5 Z M 310.5 58.5 L 310.5 56 M 310.5 75.5 L 310.5 75" stroke="black" stroke-width="1">
			</path>
			<path fill="#7cb5ec" d="M 339.5 59.5 L 339.5 58.5 L 359.5 58.5 L 359.5 59.5 Z M 349.5 58.5 L 349.5 51 M 349.5 59.5 L 349.5 62" stroke="black" stroke-width="1">
			</path>
			<path fill="white" d="M 377.5 58.5 L 377.5 41.5 L 397.5 41.5 L 397.5 58.5 Z M 387.5 41.5 L 387.5 40 M 387.5 58.5 L 387.5 62" stroke="black" stroke-width="1">
			</path>
			<path fill="#7cb5ec" d="M 416.5 47.5 L 416.5 40.5 L 436.5 40.5 L 436.5 47.5 Z M 426.5 40.5 L 426.5 32 M 426.5 47.5 L 426.5 49" stroke="black" stroke-width="1">
			</path>
			<path fill="white" d="M 455.5 46.5 L 455.5 42.5 L 475.5 42.5 L 475.5 46.5 Z M 465.5 42.5 L 465.5 31 M 465.5 46.5 L 465.5 47" stroke="black" stroke-width="1">
			</path>
			<path fill="#7cb5ec" d="M 493.5 58.5 L 493.5 46.5 L 513.5 46.5 L 513.5 58.5 Z M 503.5 46.5 L 503.5 46.5 M 503.5 58.5 L 503.5 60" stroke="black" stroke-width="1">
			</path>
		</g>
		<g class="highcharts-markers highcharts-series-0" transform="translate(10,79) scale(1 1)" clip-path="none">
		</g>
		<g class="highcharts-series highcharts-series-1 highcharts-tracker" transform="translate(10,213) scale(1 1)" style="" clip-path="url(#highcharts-3)">
			<rect x="-7" y="64" width="19" height="9" fill="#434348" rx="0" ry="0">
			</rect>
			<rect x="32" y="20" width="19" height="53" fill="#434348" rx="0" ry="0">
			</rect>
			<rect x="70" y="42" width="19" height="31" fill="#434348" rx="0" ry="0">
			</rect>
			<rect x="109" y="40" width="19" height="33" fill="#434348" rx="0" ry="0">
			</rect>
			<rect x="148" y="49" width="19" height="24" fill="#434348" rx="0" ry="0">
			</rect>
			<rect x="186" y="50" width="19" height="23" fill="#434348" rx="0" ry="0">
			</rect>
			<rect x="225" y="44" width="19" height="29" fill="#434348" rx="0" ry="0">
			</rect>
			<rect x="263" y="51" width="19" height="22" fill="#434348" rx="0" ry="0">
			</rect>
			<rect x="302" y="47" width="19" height="26" fill="#434348" rx="0" ry="0">
			</rect>
			<rect x="341" y="56" width="19" height="17" fill="#434348" rx="0" ry="0">
			</rect>
			<rect x="379" y="52" width="19" height="21" fill="#434348" rx="0" ry="0">
			</rect>
			<rect x="418" y="52" width="19" height="21" fill="#434348" rx="0" ry="0">
			</rect>
			<rect x="456" y="50" width="19" height="23" fill="#434348" rx="0" ry="0">
			</rect>
			<rect x="495" y="51" width="19" height="22" fill="#434348" rx="0" ry="0">
			</rect>
		</g>
		<g class="highcharts-markers highcharts-series-1" transform="translate(10,213) scale(1 1)" clip-path="none">
		</g>
		<g class="highcharts-series highcharts-series-2" transform="translate(24,331) scale(1 1)" clip-path="url(#highcharts-4)">
			<path fill="#4572A7" d="M 0 36.6 C 0 36.6 0.8 36.6 1.4 36.6 C 1.9 36.6 2.2 36.3 2.8 36.3 C 3.3 36.3 3.6 36.6 4.2 36.6 C 4.7 36.6 5.0 36.6 5.6 36.6 C 6.1 36.5 6.4 36.5 7.0 36.3 C 7.5 36.2 7.8 36.0 8.4 36.0 C 8.9 35.9 9.2 35.9 9.8 35.9 C 10.3 35.9 10.6 36.1 11.2 36.1 C 11.7 36.1 12.0 36.1 12.6 36.1 C 13.1 36.0 13.4 35.9 14.0 35.9 C 14.5 35.9 14.8 36.1 15.4 36.1 C 15.9 36.1 16.2 35.9 16.8 35.8 C 17.3 35.6 17.6 35.4 18.2 35.3 C 18.7 35.2 19.0 35.2 19.6 35.1 C 20.1 35.0 20.4 34.9 21.0 34.9 C 21.6 34.9 21.8 34.9 22.4 34.9 C 23.0 34.9 23.2 35.0 23.8 35.0 C 24.4 35.0 24.6 34.7 25.2 34.7 C 25.8 34.7 26.0 34.8 26.6 34.8 C 27.2 34.8 27.4 34.7 28.0 34.6 C 28.6 34.5 28.8 34.5 29.4 34.4 C 30.0 34.3 30.2 34.1 30.8 34.1 C 31.4 34.1 31.7 34.1 32.2 34.1 C 32.8 34.1 33.1 34.0 33.6 33.9 C 34.2 33.9 34.5 33.9 35.0 33.8 C 35.6 33.8 35.9 33.5 36.4 33.5 C 37.0 33.5 37.3 33.5 37.8 33.5 C 38.4 33.5 38.7 33.8 39.2 33.8 C 39.8 33.8 40.1 33.5 40.6 33.4 C 41.2 33.3 41.5 33.3 42.0 33.3 C 42.6 33.3 42.9 33.3 43.4 33.3 C 44.0 33.4 44.3 33.4 44.8 33.5 C 45.4 33.5 45.7 33.7 46.2 33.7 C 46.8 33.7 47.1 33.7 47.6 33.7 C 48.2 33.7 48.5 33.6 49.0 33.4 C 49.6 33.3 49.9 33.0 50.4 33.0 C 51.0 32.9 51.3 32.9 51.9 32.9 C 52.4 32.9 52.7 33.0 53.3 33.0 C 53.8 33.0 54.1 33.0 54.7 33.0 C 55.2 33.0 55.5 33.1 56.1 33.3 C 56.6 33.4 56.9 33.7 57.5 33.7 C 58.0 33.7 58.3 33.7 58.9 33.6 C 59.4 33.5 59.7 33.4 60.3 33.4 C 60.8 33.4 61.1 33.5 61.7 33.5 C 62.2 33.5 62.5 33.2 63.1 33.0 C 63.6 32.9 63.9 32.6 64.5 32.5 C 65.0 32.4 65.3 32.5 65.9 32.4 C 66.4 32.4 66.7 32.4 67.3 32.3 C 67.8 32.2 68.1 32.1 68.7 32.0 C 69.2 31.9 69.5 31.9 70.1 31.8 C 70.6 31.7 70.9 31.7 71.5 31.6 C 72.1 31.4 72.3 31.3 72.9 31.1 C 73.5 30.9 73.7 30.7 74.3 30.7 C 74.9 30.7 75.1 31.1 75.7 31.1 C 76.3 31.1 76.5 31.1 77.1 31.1 C 77.7 31.1 77.9 31.5 78.5 31.5 C 79.1 31.5 79.3 31.5 79.9 31.4 C 80.5 31.3 80.7 30.9 81.3 30.9 C 81.9 30.9 82.2 31.3 82.7 31.3 C 83.3 31.3 83.6 31.0 84.1 30.8 C 84.7 30.6 85.0 30.4 85.5 30.4 C 86.1 30.4 86.4 30.9 86.9 31.0 C 87.5 31.1 87.8 31.1 88.3 31.1 C 88.9 31.2 89.2 31.2 89.7 31.2 C 90.3 31.2 90.6 31.2 91.1 31.2 C 91.7 31.1 92.0 31.0 92.5 30.9 C 93.1 30.9 93.4 30.9 93.9 30.9 C 94.5 30.9 94.8 31.1 95.3 31.1 C 95.9 31.2 96.2 31.2 96.7 31.3 C 97.3 31.4 97.6 31.6 98.1 31.6 C 98.7 31.6 99.0 31.6 99.5 31.5 C 100.1 31.3 100.4 31.1 100.9 30.9 C 101.5 30.7 101.8 30.7 102.4 30.5 C 102.9 30.3 103.2 30.1 103.8 29.9 C 104.3 29.8 104.6 29.7 105.2 29.7 C 105.7 29.7 106.0 29.8 106.6 29.8 C 107.1 29.8 107.4 29.5 108.0 29.3 C 108.5 29.1 108.8 28.8 109.4 28.8 C 109.9 28.8 110.2 29.0 110.8 29.0 C 111.3 29.0 111.6 28.9 112.2 28.8 C 112.7 28.7 113.0 28.5 113.6 28.5 C 114.1 28.5 114.4 29.0 115.0 29.0 C 115.5 29.0 115.8 28.9 116.4 28.8 C 116.9 28.7 117.2 28.7 117.8 28.6 C 118.3 28.5 118.6 28.4 119.2 28.4 C 119.7 28.4 120.0 28.4 120.6 28.4 C 121.1 28.3 121.4 28.3 122.0 28.3 C 122.5 28.3 122.8 28.3 123.4 28.2 C 124.0 28.2 124.2 28.1 124.8 28.0 C 125.4 27.8 125.6 27.4 126.2 27.4 C 126.8 27.4 127.0 27.7 127.6 27.7 C 128.2 27.7 128.4 27.7 129.0 27.6 C 129.6 27.6 129.8 27.6 130.4 27.5 C 131.0 27.4 131.2 27.2 131.8 27.0 C 132.4 26.9 132.6 26.8 133.2 26.8 C 133.8 26.8 134.1 27.5 134.6 27.5 C 135.2 27.5 135.5 27.0 136.0 27.0 C 136.6 27.0 136.9 27.0 137.4 27.0 C 138.0 27.1 138.3 27.5 138.8 27.5 C 139.4 27.5 139.7 27.5 140.2 27.5 C 140.8 27.5 141.1 27.2 141.6 27.2 C 142.2 27.2 142.5 27.5 143.0 27.6 C 143.6 27.7 143.9 27.9 144.4 27.9 C 145.0 27.9 145.3 27.8 145.8 27.6 C 146.4 27.5 146.7 27.2 147.2 27.2 C 147.8 27.2 148.1 27.2 148.6 27.2 C 149.2 27.2 149.5 27.2 150.0 27.3 C 150.6 27.3 150.9 27.6 151.4 27.7 C 152.0 27.8 152.3 27.8 152.8 27.8 C 153.4 27.8 153.7 27.4 154.3 27.4 C 154.8 27.4 155.1 27.6 155.7 27.8 C 156.2 27.9 156.5 28.0 157.1 28.1 C 157.6 28.2 157.9 28.3 158.5 28.3 C 159.0 28.3 159.3 28.1 159.9 27.9 C 160.4 27.6 160.7 27.4 161.3 27.2 C 161.8 27.0 162.1 27.1 162.7 26.8 C 163.2 26.6 163.5 26.1 164.1 25.8 C 164.6 25.5 164.9 25.3 165.5 25.3 C 166.0 25.3 166.3 25.3 166.9 25.5 C 167.4 25.6 167.7 26.4 168.3 26.4 C 168.8 26.4 169.1 26.1 169.7 26.1 C 170.2 26.1 170.5 26.5 171.1 26.5 C 171.6 26.5 171.9 25.7 172.5 25.7 C 173.0 25.7 173.3 25.9 173.9 25.9 C 174.5 25.9 174.7 25.9 175.3 25.7 C 175.9 25.4 176.1 24.8 176.7 24.8 C 177.3 24.8 177.5 24.8 178.1 25.1 C 178.7 25.4 178.9 26.2 179.5 26.2 C 180.1 26.2 180.3 25.4 180.9 25.1 C 181.5 24.8 181.7 24.7 182.3 24.7 C 182.9 24.7 183.1 24.9 183.7 25.0 C 184.3 25.0 184.6 25.0 185.1 25.1 C 185.7 25.1 186.0 25.1 186.5 25.2 C 187.1 25.4 187.4 25.6 187.9 25.8 C 188.5 26.0 188.8 26.3 189.3 26.3 C 189.9 26.3 190.2 26.1 190.7 25.9 C 191.3 25.7 191.6 25.4 192.1 25.4 C 192.7 25.4 193.0 25.6 193.5 25.6 C 194.1 25.6 194.4 25.5 194.9 25.4 C 195.5 25.2 195.8 25.1 196.3 24.9 C 196.9 24.7 197.2 24.7 197.7 24.5 C 198.3 24.4 198.6 24.2 199.1 24.1 C 199.7 24.0 200.0 24.1 200.5 23.9 C 201.1 23.8 201.4 23.7 201.9 23.4 C 202.5 23.2 202.8 23.1 203.3 22.8 C 203.9 22.5 204.2 22.4 204.8 22.0 C 205.3 21.6 205.6 21.1 206.2 20.8 C 206.7 20.4 207.0 20.6 207.6 20.3 C 208.1 20.0 208.4 19.4 209.0 19.4 C 209.5 19.3 209.8 19.4 210.4 19.3 C 210.9 19.3 211.2 18.3 211.8 17.8 C 212.3 17.3 212.6 17.0 213.2 16.7 C 213.7 16.4 214.0 16.5 214.6 16.3 C 215.1 16.2 215.4 16.0 216.0 15.9 C 216.5 15.7 216.8 15.4 217.4 15.4 C 217.9 15.4 218.2 16.5 218.8 16.8 C 219.3 17.0 219.6 16.9 220.2 17.0 C 220.7 17.1 221.0 17.1 221.6 17.3 C 222.1 17.5 222.4 17.8 223.0 18.1 C 223.5 18.4 223.8 18.7 224.4 18.7 C 224.9 18.7 225.2 18.5 225.8 18.4 C 226.4 18.2 226.6 17.9 227.2 17.9 C 227.8 17.9 228.0 18.0 228.6 18.0 C 229.2 18.0 229.4 17.8 230.0 17.7 C 230.6 17.6 230.8 17.5 231.4 17.5 C 232.0 17.5 232.2 17.8 232.8 17.8 C 233.4 17.8 233.6 17.1 234.2 16.8 C 234.8 16.6 235.0 16.5 235.6 16.4 C 236.2 16.3 236.5 16.3 237.0 16.3 C 237.6 16.3 237.9 17.3 238.4 17.3 C 239.0 17.3 239.3 16.8 239.8 16.5 C 240.4 16.2 240.7 16.1 241.2 15.9 C 241.8 15.7 242.1 15.7 242.6 15.4 C 243.2 15.0 243.5 14.5 244.0 14.2 C 244.6 13.8 244.9 13.6 245.4 13.6 C 246.0 13.6 246.3 13.6 246.8 13.6 C 247.4 13.6 247.7 13.6 248.2 13.5 C 248.8 13.4 249.1 12.5 249.6 12.5 C 250.2 12.5 250.5 13.2 251.0 13.5 C 251.6 13.7 251.9 13.6 252.4 13.9 C 253.0 14.2 253.3 14.9 253.8 15.0 C 254.4 15.1 254.7 15.0 255.2 15.1 C 255.8 15.3 256.1 15.6 256.7 15.9 C 257.2 16.3 257.5 16.4 258.1 16.9 C 258.6 17.3 258.9 17.5 259.5 18.0 C 260.0 18.4 260.3 19.2 260.9 19.2 C 261.4 19.2 261.7 18.7 262.3 18.3 C 262.8 18.0 263.1 17.4 263.7 17.4 C 264.2 17.4 264.5 17.7 265.1 18.2 C 265.6 18.6 265.9 19.2 266.5 19.6 C 267.0 19.9 267.3 19.9 267.9 20.0 C 268.4 20.1 268.7 20.2 269.3 20.2 C 269.8 20.2 270.1 19.3 270.7 19.3 C 271.2 19.3 271.5 19.6 272.1 19.9 C 272.6 20.2 272.9 20.5 273.5 20.9 C 274.0 21.2 274.3 21.3 274.9 21.7 C 275.4 22.1 275.7 22.8 276.3 22.8 C 276.9 22.8 277.1 22.8 277.7 22.6 C 278.3 22.5 278.5 22.1 279.1 22.1 C 279.7 22.1 279.9 22.6 280.5 22.8 C 281.1 23.1 281.3 23.0 281.9 23.2 C 282.5 23.4 282.7 23.9 283.3 23.9 C 283.9 23.9 284.1 23.9 284.7 23.7 C 285.3 23.5 285.5 23.1 286.1 22.9 C 286.7 22.7 287.0 22.6 287.5 22.6 C 288.1 22.6 288.4 23.6 288.9 23.7 C 289.5 23.8 289.8 23.7 290.3 23.8 C 290.9 23.9 291.2 24.3 291.7 24.6 C 292.3 24.8 292.6 25.0 293.1 25.0 C 293.7 25.0 294.0 23.9 294.5 23.5 C 295.1 23.0 295.4 22.6 295.9 22.6 C 296.5 22.6 296.8 23.2 297.3 23.3 C 297.9 23.5 298.2 23.5 298.7 23.5 C 299.3 23.5 299.6 23.1 300.1 23.1 C 300.7 23.1 301.0 23.1 301.5 23.2 C 302.1 23.2 302.4 23.3 302.9 23.5 C 303.5 23.7 303.8 23.7 304.3 24.0 C 304.9 24.3 305.2 25.0 305.7 25.0 C 306.3 25.0 306.6 24.7 307.2 24.5 C 307.7 24.4 308.0 24.3 308.6 24.2 C 309.1 24.1 309.4 24.0 310.0 23.8 C 310.5 23.7 310.8 23.8 311.4 23.7 C 311.9 23.5 312.2 23.2 312.8 22.9 C 313.3 22.7 313.6 22.7 314.2 22.4 C 314.7 22.1 315.0 21.9 315.6 21.5 C 316.1 21.2 316.4 20.7 317.0 20.7 C 317.5 20.7 317.8 21.2 318.4 21.2 C 318.9 21.2 319.2 21.0 319.8 21.0 C 320.3 21.0 320.6 21.3 321.2 21.6 C 321.7 21.9 322.0 22.4 322.6 22.4 C 323.1 22.4 323.4 21.3 324.0 21.3 C 324.5 21.3 324.8 21.6 325.4 21.6 C 325.9 21.6 326.2 21.5 326.8 21.4 C 327.3 21.3 327.6 21.2 328.2 20.9 C 328.8 20.7 329.0 20.1 329.6 19.9 C 330.2 19.8 330.4 19.8 331.0 19.8 C 331.6 19.8 331.8 20.0 332.4 20.0 C 333.0 20.0 333.2 20.0 333.8 20.0 C 334.4 20.0 334.6 20.1 335.2 20.1 C 335.8 20.1 336.0 19.9 336.6 19.5 C 337.2 19.2 337.4 18.2 338.0 18.2 C 338.6 18.2 338.9 18.2 339.4 18.2 C 340.0 18.3 340.3 18.8 340.8 18.8 C 341.4 18.8 341.7 18.1 342.2 18.1 C 342.8 18.1 343.1 18.4 343.6 18.6 C 344.2 18.8 344.5 19.2 345.0 19.2 C 345.6 19.2 345.9 19.0 346.4 19.0 C 347.0 18.9 347.3 18.8 347.8 18.8 C 348.4 18.8 348.7 20.3 349.2 20.4 C 349.8 20.5 350.1 20.5 350.6 20.5 C 351.2 20.5 351.5 19.8 352.0 19.5 C 352.6 19.3 352.9 19.3 353.4 19.3 C 354.0 19.3 354.3 19.9 354.8 19.9 C 355.4 19.9 355.7 19.7 356.2 19.6 C 356.8 19.6 357.1 19.5 357.6 19.5 C 358.2 19.5 358.5 19.7 359.1 19.7 C 359.6 19.7 359.9 19.2 360.5 19.2 C 361.0 19.2 361.3 19.2 361.9 19.2 C 362.4 19.2 362.7 19.7 363.3 19.8 C 363.8 20.0 364.1 20.1 364.7 20.1 C 365.2 20.1 365.5 19.7 366.1 19.1 C 366.6 18.5 366.9 17.3 367.5 17.2 C 368.0 17.0 368.3 17.0 368.9 17.0 C 369.4 17.0 369.7 17.1 370.3 17.1 C 370.8 17.1 371.1 16.8 371.7 16.5 C 372.2 16.2 372.5 15.9 373.1 15.6 C 373.6 15.3 373.9 15.3 374.5 15.1 C 375.0 14.8 375.3 14.4 375.9 14.4 C 376.4 14.4 376.7 14.7 377.3 14.8 C 377.8 15.0 378.1 15.2 378.7 15.2 C 379.3 15.2 379.5 14.7 380.1 14.5 C 380.7 14.2 380.9 14.1 381.5 14.0 C 382.1 13.8 382.3 13.8 382.9 13.8 C 383.5 13.8 383.7 13.8 384.3 13.8 C 384.9 13.7 385.1 13.2 385.7 13.2 C 386.3 13.2 386.5 13.9 387.1 13.9 C 387.7 13.9 387.9 13.8 388.5 13.5 C 389.1 13.3 389.4 12.9 389.9 12.6 C 390.5 12.3 390.8 12.0 391.3 12.0 C 391.9 12.0 392.2 12.1 392.7 12.2 C 393.3 12.4 393.6 12.6 394.1 12.6 C 394.7 12.6 395.0 12.0 395.5 12.0 C 396.1 12.0 396.4 12.2 396.9 12.3 C 397.5 12.4 397.8 12.6 398.3 12.6 C 398.9 12.6 399.2 12.5 399.7 12.5 C 400.3 12.5 400.6 12.9 401.1 12.9 C 401.7 12.9 402.0 12.2 402.5 11.7 C 403.1 11.3 403.4 11.0 403.9 10.6 C 404.5 10.3 404.8 10.2 405.3 9.9 C 405.9 9.7 406.2 9.8 406.7 9.5 C 407.3 9.1 407.6 8.5 408.1 8.1 C 408.7 7.6 409.0 7.2 409.6 7.2 C 410.1 7.2 410.4 7.5 411.0 7.8 C 411.5 8.2 411.8 8.5 412.4 8.9 C 412.9 9.3 413.2 9.7 413.8 9.7 C 414.3 9.7 414.6 9.0 415.2 8.8 C 415.7 8.7 416.0 8.7 416.6 8.7 C 417.1 8.7 417.4 9.9 418.0 9.9 C 418.5 9.9 418.8 9.6 419.4 9.6 C 419.9 9.6 420.2 9.6 420.8 9.6 C 421.3 9.6 421.6 8.5 422.2 7.9 C 422.7 7.4 423.0 7.4 423.6 6.9 C 424.1 6.5 424.4 6.3 425.0 5.8 C 425.5 5.3 425.8 4.7 426.4 4.3 C 426.9 3.8 427.2 3.5 427.8 3.5 C 428.3 3.5 428.6 3.7 429.2 4.1 C 429.7 4.4 430.0 5.1 430.6 5.1 C 431.2 5.1 431.4 4.7 432.0 4.7 C 432.6 4.7 432.8 4.9 433.4 5.0 C 434.0 5.1 434.2 5.2 434.8 5.2 C 435.4 5.2 435.6 5.0 436.2 4.9 C 436.8 4.8 437.0 4.8 437.6 4.7 C 438.2 4.6 438.4 4.6 439.0 4.3 C 439.6 4.1 439.8 3.6 440.4 3.6 C 441.0 3.6 441.3 4.6 441.8 4.6 C 442.4 4.6 442.7 4.6 443.2 4.6 C 443.8 4.6 444.1 3.9 444.6 3.7 C 445.2 3.4 445.5 3.3 446.0 3.3 C 446.6 3.3 446.9 3.5 447.4 3.7 C 448.0 3.9 448.3 4.1 448.8 4.3 C 449.4 4.4 449.7 4.6 450.2 4.6 C 450.8 4.6 451.1 4.4 451.6 4.4 C 452.2 4.4 452.5 4.7 453.0 4.9 C 453.6 5.1 453.9 5.4 454.4 5.4 C 455.0 5.4 455.3 4.9 455.8 4.7 C 456.4 4.5 456.7 4.5 457.2 4.5 C 457.8 4.5 458.1 5.2 458.6 5.8 C 459.2 6.4 459.5 7.4 460.0 7.7 C 460.6 8.0 460.9 7.9 461.5 8.0 C 462.0 8.1 462.3 8.0 462.9 8.2 C 463.4 8.5 463.7 10.3 464.3 10.3 C 464.8 10.3 465.1 9.6 465.7 9.4 C 466.2 9.1 466.5 9.3 467.1 9.0 C 467.6 8.8 467.9 8.0 468.5 8.0 C 469.0 8.0 469.3 8.1 469.9 8.4 C 470.4 8.7 470.7 9.3 471.3 9.4 C 471.8 9.4 472.1 9.4 472.7 9.4 C 473.2 9.4 473.5 9.3 474.1 9.1 C 474.6 9.0 474.9 8.8 475.5 8.5 C 476.0 8.1 476.3 7.6 476.9 7.2 C 477.4 6.8 477.7 6.2 478.3 6.2 C 478.8 6.2 479.1 7.2 479.7 7.5 C 480.2 7.8 480.5 7.9 481.1 7.9 C 481.7 7.9 481.9 7.1 482.5 7.1 C 483.1 7.1 483.3 7.4 483.9 7.5 C 484.5 7.6 484.7 7.5 485.3 7.7 C 485.9 7.9 486.1 8.7 486.7 9.2 C 487.3 9.7 487.5 10.2 488.1 10.3 C 488.7 10.3 488.9 10.3 489.5 10.3 C 490.1 10.4 490.3 11.6 490.9 12.2 C 491.5 12.7 491.8 12.6 492.3 12.9 C 492.9 13.1 493.2 13.3 493.7 13.3 C 494.3 13.3 494.6 13.3 495.1 13.3 C 495.7 13.4 496.0 13.6 496.5 13.7 C 497.1 13.9 497.4 14.2 497.9 14.2 C 498.5 14.2 498.8 13.5 499.3 13.5 C 499.9 13.5 500.2 13.7 500.7 13.7 C 501.3 13.7 501.6 13.0 502.1 12.6 C 502.7 12.3 503.0 12.3 503.5 12.0 C 504.1 11.8 504.4 11.5 504.9 11.2 C 505.5 11.0 505.8 11.0 506.3 10.8 C 506.9 10.6 507.2 10.5 507.7 10.3 C 508.3 10.1 508.6 9.8 509.1 9.6 C 509.7 9.5 510.0 9.4 510.5 9.4 C 511.1 9.4 512 10.3 512 10.3 L 512 40 C 512 40 511.1 40 510.5 40 C 510.0 40 509.7 40 509.1 40 C 508.6 40 508.3 40 507.7 40 C 507.2 40 506.9 40 506.3 40 C 505.8 40 505.5 40 504.9 40 C 504.4 40 504.1 40 503.5 40 C 503.0 40 502.7 40 502.1 40 C 501.6 40 501.3 40 500.7 40 C 500.2 40 499.9 40 499.3 40 C 498.8 40 498.5 40 497.9 40 C 497.4 40 497.1 40 496.5 40 C 496.0 40 495.7 40 495.1 40 C 494.6 40 494.3 40 493.7 40 C 493.2 40 492.9 40 492.3 40 C 491.8 40 491.5 40 490.9 40 C 490.3 40 490.1 40 489.5 40 C 488.9 40 488.7 40 488.1 40 C 487.5 40 487.3 40 486.7 40 C 486.1 40 485.9 40 485.3 40 C 484.7 40 484.5 40 483.9 40 C 483.3 40 483.1 40 482.5 40 C 481.9 40 481.7 40 481.1 40 C 480.5 40 480.2 40 479.7 40 C 479.1 40 478.8 40 478.3 40 C 477.7 40 477.4 40 476.9 40 C 476.3 40 476.0 40 475.5 40 C 474.9 40 474.6 40 474.1 40 C 473.5 40 473.2 40 472.7 40 C 472.1 40 471.8 40 471.3 40 C 470.7 40 470.4 40 469.9 40 C 469.3 40 469.0 40 468.5 40 C 467.9 40 467.6 40 467.1 40 C 466.5 40 466.2 40 465.7 40 C 465.1 40 464.8 40 464.3 40 C 463.7 40 463.4 40 462.9 40 C 462.3 40 462.0 40 461.5 40 C 460.9 40 460.6 40 460.0 40 C 459.5 40 459.2 40 458.6 40 C 458.1 40 457.8 40 457.2 40 C 456.7 40 456.4 40 455.8 40 C 455.3 40 455.0 40 454.4 40 C 453.9 40 453.6 40 453.0 40 C 452.5 40 452.2 40 451.6 40 C 451.1 40 450.8 40 450.2 40 C 449.7 40 449.4 40 448.8 40 C 448.3 40 448.0 40 447.4 40 C 446.9 40 446.6 40 446.0 40 C 445.5 40 445.2 40 444.6 40 C 444.1 40 443.8 40 443.2 40 C 442.7 40 442.4 40 441.8 40 C 441.3 40 441.0 40 440.4 40 C 439.8 40 439.6 40 439.0 40 C 438.4 40 438.2 40 437.6 40 C 437.0 40 436.8 40 436.2 40 C 435.6 40 435.4 40 434.8 40 C 434.2 40 434.0 40 433.4 40 C 432.8 40 432.6 40 432.0 40 C 431.4 40 431.2 40 430.6 40 C 430.0 40 429.7 40 429.2 40 C 428.6 40 428.3 40 427.8 40 C 427.2 40 426.9 40 426.4 40 C 425.8 40 425.5 40 425.0 40 C 424.4 40 424.1 40 423.6 40 C 423.0 40 422.7 40 422.2 40 C 421.6 40 421.3 40 420.8 40 C 420.2 40 419.9 40 419.4 40 C 418.8 40 418.5 40 418.0 40 C 417.4 40 417.1 40 416.6 40 C 416.0 40 415.7 40 415.2 40 C 414.6 40 414.3 40 413.8 40 C 413.2 40 412.9 40 412.4 40 C 411.8 40 411.5 40 411.0 40 C 410.4 40 410.1 40 409.6 40 C 409.0 40 408.7 40 408.1 40 C 407.6 40 407.3 40 406.7 40 C 406.2 40 405.9 40 405.3 40 C 404.8 40 404.5 40 403.9 40 C 403.4 40 403.1 40 402.5 40 C 402.0 40 401.7 40 401.1 40 C 400.6 40 400.3 40 399.7 40 C 399.2 40 398.9 40 398.3 40 C 397.8 40 397.5 40 396.9 40 C 396.4 40 396.1 40 395.5 40 C 395.0 40 394.7 40 394.1 40 C 393.6 40 393.3 40 392.7 40 C 392.2 40 391.9 40 391.3 40 C 390.8 40 390.5 40 389.9 40 C 389.4 40 389.1 40 388.5 40 C 387.9 40 387.7 40 387.1 40 C 386.5 40 386.3 40 385.7 40 C 385.1 40 384.9 40 384.3 40 C 383.7 40 383.5 40 382.9 40 C 382.3 40 382.1 40 381.5 40 C 380.9 40 380.7 40 380.1 40 C 379.5 40 379.3 40 378.7 40 C 378.1 40 377.8 40 377.3 40 C 376.7 40 376.4 40 375.9 40 C 375.3 40 375.0 40 374.5 40 C 373.9 40 373.6 40 373.1 40 C 372.5 40 372.2 40 371.7 40 C 371.1 40 370.8 40 370.3 40 C 369.7 40 369.4 40 368.9 40 C 368.3 40 368.0 40 367.5 40 C 366.9 40 366.6 40 366.1 40 C 365.5 40 365.2 40 364.7 40 C 364.1 40 363.8 40 363.3 40 C 362.7 40 362.4 40 361.9 40 C 361.3 40 361.0 40 360.5 40 C 359.9 40 359.6 40 359.1 40 C 358.5 40 358.2 40 357.6 40 C 357.1 40 356.8 40 356.2 40 C 355.7 40 355.4 40 354.8 40 C 354.3 40 354.0 40 353.4 40 C 352.9 40 352.6 40 352.0 40 C 351.5 40 351.2 40 350.6 40 C 350.1 40 349.8 40 349.2 40 C 348.7 40 348.4 40 347.8 40 C 347.3 40 347.0 40 346.4 40 C 345.9 40 345.6 40 345.0 40 C 344.5 40 344.2 40 343.6 40 C 343.1 40 342.8 40 342.2 40 C 341.7 40 341.4 40 340.8 40 C 340.3 40 340.0 40 339.4 40 C 338.9 40 338.6 40 338.0 40 C 337.4 40 337.2 40 336.6 40 C 336.0 40 335.8 40 335.2 40 C 334.6 40 334.4 40 333.8 40 C 333.2 40 333.0 40 332.4 40 C 331.8 40 331.6 40 331.0 40 C 330.4 40 330.2 40 329.6 40 C 329.0 40 328.8 40 328.2 40 C 327.6 40 327.3 40 326.8 40 C 326.2 40 325.9 40 325.4 40 C 324.8 40 324.5 40 324.0 40 C 323.4 40 323.1 40 322.6 40 C 322.0 40 321.7 40 321.2 40 C 320.6 40 320.3 40 319.8 40 C 319.2 40 318.9 40 318.4 40 C 317.8 40 317.5 40 317.0 40 C 316.4 40 316.1 40 315.6 40 C 315.0 40 314.7 40 314.2 40 C 313.6 40 313.3 40 312.8 40 C 312.2 40 311.9 40 311.4 40 C 310.8 40 310.5 40 310.0 40 C 309.4 40 309.1 40 308.6 40 C 308.0 40 307.7 40 307.2 40 C 306.6 40 306.3 40 305.7 40 C 305.2 40 304.9 40 304.3 40 C 303.8 40 303.5 40 302.9 40 C 302.4 40 302.1 40 301.5 40 C 301.0 40 300.7 40 300.1 40 C 299.6 40 299.3 40 298.7 40 C 298.2 40 297.9 40 297.3 40 C 296.8 40 296.5 40 295.9 40 C 295.4 40 295.1 40 294.5 40 C 294.0 40 293.7 40 293.1 40 C 292.6 40 292.3 40 291.7 40 C 291.2 40 290.9 40 290.3 40 C 289.8 40 289.5 40 288.9 40 C 288.4 40 288.1 40 287.5 40 C 287.0 40 286.7 40 286.1 40 C 285.5 40 285.3 40 284.7 40 C 284.1 40 283.9 40 283.3 40 C 282.7 40 282.5 40 281.9 40 C 281.3 40 281.1 40 280.5 40 C 279.9 40 279.7 40 279.1 40 C 278.5 40 278.3 40 277.7 40 C 277.1 40 276.9 40 276.3 40 C 275.7 40 275.4 40 274.9 40 C 274.3 40 274.0 40 273.5 40 C 272.9 40 272.6 40 272.1 40 C 271.5 40 271.2 40 270.7 40 C 270.1 40 269.8 40 269.3 40 C 268.7 40 268.4 40 267.9 40 C 267.3 40 267.0 40 266.5 40 C 265.9 40 265.6 40 265.1 40 C 264.5 40 264.2 40 263.7 40 C 263.1 40 262.8 40 262.3 40 C 261.7 40 261.4 40 260.9 40 C 260.3 40 260.0 40 259.5 40 C 258.9 40 258.6 40 258.1 40 C 257.5 40 257.2 40 256.7 40 C 256.1 40 255.8 40 255.2 40 C 254.7 40 254.4 40 253.8 40 C 253.3 40 253.0 40 252.4 40 C 251.9 40 251.6 40 251.0 40 C 250.5 40 250.2 40 249.6 40 C 249.1 40 248.8 40 248.2 40 C 247.7 40 247.4 40 246.8 40 C 246.3 40 246.0 40 245.4 40 C 244.9 40 244.6 40 244.0 40 C 243.5 40 243.2 40 242.6 40 C 242.1 40 241.8 40 241.2 40 C 240.7 40 240.4 40 239.8 40 C 239.3 40 239.0 40 238.4 40 C 237.9 40 237.6 40 237.0 40 C 236.5 40 236.2 40 235.6 40 C 235.0 40 234.8 40 234.2 40 C 233.6 40 233.4 40 232.8 40 C 232.2 40 232.0 40 231.4 40 C 230.8 40 230.6 40 230.0 40 C 229.4 40 229.2 40 228.6 40 C 228.0 40 227.8 40 227.2 40 C 226.6 40 226.4 40 225.8 40 C 225.2 40 224.9 40 224.4 40 C 223.8 40 223.5 40 223.0 40 C 222.4 40 222.1 40 221.6 40 C 221.0 40 220.7 40 220.2 40 C 219.6 40 219.3 40 218.8 40 C 218.2 40 217.9 40 217.4 40 C 216.8 40 216.5 40 216.0 40 C 215.4 40 215.1 40 214.6 40 C 214.0 40 213.7 40 213.2 40 C 212.6 40 212.3 40 211.8 40 C 211.2 40 210.9 40 210.4 40 C 209.8 40 209.5 40 209.0 40 C 208.4 40 208.1 40 207.6 40 C 207.0 40 206.7 40 206.2 40 C 205.6 40 205.3 40 204.8 40 C 204.2 40 203.9 40 203.3 40 C 202.8 40 202.5 40 201.9 40 C 201.4 40 201.1 40 200.5 40 C 200.0 40 199.7 40 199.1 40 C 198.6 40 198.3 40 197.7 40 C 197.2 40 196.9 40 196.3 40 C 195.8 40 195.5 40 194.9 40 C 194.4 40 194.1 40 193.5 40 C 193.0 40 192.7 40 192.1 40 C 191.6 40 191.3 40 190.7 40 C 190.2 40 189.9 40 189.3 40 C 188.8 40 188.5 40 187.9 40 C 187.4 40 187.1 40 186.5 40 C 186.0 40 185.7 40 185.1 40 C 184.6 40 184.3 40 183.7 40 C 183.1 40 182.9 40 182.3 40 C 181.7 40 181.5 40 180.9 40 C 180.3 40 180.1 40 179.5 40 C 178.9 40 178.7 40 178.1 40 C 177.5 40 177.3 40 176.7 40 C 176.1 40 175.9 40 175.3 40 C 174.7 40 174.5 40 173.9 40 C 173.3 40 173.0 40 172.5 40 C 171.9 40 171.6 40 171.1 40 C 170.5 40 170.2 40 169.7 40 C 169.1 40 168.8 40 168.3 40 C 167.7 40 167.4 40 166.9 40 C 166.3 40 166.0 40 165.5 40 C 164.9 40 164.6 40 164.1 40 C 163.5 40 163.2 40 162.7 40 C 162.1 40 161.8 40 161.3 40 C 160.7 40 160.4 40 159.9 40 C 159.3 40 159.0 40 158.5 40 C 157.9 40 157.6 40 157.1 40 C 156.5 40 156.2 40 155.7 40 C 155.1 40 154.8 40 154.3 40 C 153.7 40 153.4 40 152.8 40 C 152.3 40 152.0 40 151.4 40 C 150.9 40 150.6 40 150.0 40 C 149.5 40 149.2 40 148.6 40 C 148.1 40 147.8 40 147.2 40 C 146.7 40 146.4 40 145.8 40 C 145.3 40 145.0 40 144.4 40 C 143.9 40 143.6 40 143.0 40 C 142.5 40 142.2 40 141.6 40 C 141.1 40 140.8 40 140.2 40 C 139.7 40 139.4 40 138.8 40 C 138.3 40 138.0 40 137.4 40 C 136.9 40 136.6 40 136.0 40 C 135.5 40 135.2 40 134.6 40 C 134.1 40 133.8 40 133.2 40 C 132.6 40 132.4 40 131.8 40 C 131.2 40 131.0 40 130.4 40 C 129.8 40 129.6 40 129.0 40 C 128.4 40 128.2 40 127.6 40 C 127.0 40 126.8 40 126.2 40 C 125.6 40 125.4 40 124.8 40 C 124.2 40 124.0 40 123.4 40 C 122.8 40 122.5 40 122.0 40 C 121.4 40 121.1 40 120.6 40 C 120.0 40 119.7 40 119.2 40 C 118.6 40 118.3 40 117.8 40 C 117.2 40 116.9 40 116.4 40 C 115.8 40 115.5 40 115.0 40 C 114.4 40 114.1 40 113.6 40 C 113.0 40 112.7 40 112.2 40 C 111.6 40 111.3 40 110.8 40 C 110.2 40 109.9 40 109.4 40 C 108.8 40 108.5 40 108.0 40 C 107.4 40 107.1 40 106.6 40 C 106.0 40 105.7 40 105.2 40 C 104.6 40 104.3 40 103.8 40 C 103.2 40 102.9 40 102.4 40 C 101.8 40 101.5 40 100.9 40 C 100.4 40 100.1 40 99.5 40 C 99.0 40 98.7 40 98.1 40 C 97.6 40 97.3 40 96.7 40 C 96.2 40 95.9 40 95.3 40 C 94.8 40 94.5 40 93.9 40 C 93.4 40 93.1 40 92.5 40 C 92.0 40 91.7 40 91.1 40 C 90.6 40 90.3 40 89.7 40 C 89.2 40 88.9 40 88.3 40 C 87.8 40 87.5 40 86.9 40 C 86.4 40 86.1 40 85.5 40 C 85.0 40 84.7 40 84.1 40 C 83.6 40 83.3 40 82.7 40 C 82.2 40 81.9 40 81.3 40 C 80.7 40 80.5 40 79.9 40 C 79.3 40 79.1 40 78.5 40 C 77.9 40 77.7 40 77.1 40 C 76.5 40 76.3 40 75.7 40 C 75.1 40 74.9 40 74.3 40 C 73.7 40 73.5 40 72.9 40 C 72.3 40 72.1 40 71.5 40 C 70.9 40 70.6 40 70.1 40 C 69.5 40 69.2 40 68.7 40 C 68.1 40 67.8 40 67.3 40 C 66.7 40 66.4 40 65.9 40 C 65.3 40 65.0 40 64.5 40 C 63.9 40 63.6 40 63.1 40 C 62.5 40 62.2 40 61.7 40 C 61.1 40 60.8 40 60.3 40 C 59.7 40 59.4 40 58.9 40 C 58.3 40 58.0 40 57.5 40 C 56.9 40 56.6 40 56.1 40 C 55.5 40 55.2 40 54.7 40 C 54.1 40 53.8 40 53.3 40 C 52.7 40 52.4 40 51.9 40 C 51.3 40 51.0 40 50.4 40 C 49.9 40 49.6 40 49.0 40 C 48.5 40 48.2 40 47.6 40 C 47.1 40 46.8 40 46.2 40 C 45.7 40 45.4 40 44.8 40 C 44.3 40 44.0 40 43.4 40 C 42.9 40 42.6 40 42.0 40 C 41.5 40 41.2 40 40.6 40 C 40.1 40 39.8 40 39.2 40 C 38.7 40 38.4 40 37.8 40 C 37.3 40 37.0 40 36.4 40 C 35.9 40 35.6 40 35.0 40 C 34.5 40 34.2 40 33.6 40 C 33.1 40 32.8 40 32.2 40 C 31.7 40 31.4 40 30.8 40 C 30.2 40 30.0 40 29.4 40 C 28.8 40 28.6 40 28.0 40 C 27.4 40 27.2 40 26.6 40 C 26.0 40 25.8 40 25.2 40 C 24.6 40 24.4 40 23.8 40 C 23.2 40 23.0 40 22.4 40 C 21.8 40 21.6 40 21.0 40 C 20.4 40 20.1 40 19.6 40 C 19.0 40 18.7 40 18.2 40 C 17.6 40 17.3 40 16.8 40 C 16.2 40 15.9 40 15.4 40 C 14.8 40 14.5 40 14.0 40 C 13.4 40 13.1 40 12.6 40 C 12.0 40 11.7 40 11.2 40 C 10.6 40 10.3 40 9.8 40 C 9.2 40 8.9 40 8.4 40 C 7.8 40 7.5 40 7.0 40 C 6.4 40 6.1 40 5.6 40 C 5.0 40 4.7 40 4.2 40 C 3.6 40 3.3 40 2.8 40 C 2.2 40 1.9 40 1.4 40 C 0.8 40 0 40 0 40" fill-opacity="0.0">
			</path>
			<path fill="none" d="M 0 36.6 C 0 36.6 0.8 36.6 1.4 36.6 C 1.9 36.6 2.2 36.3 2.8 36.3 C 3.3 36.3 3.6 36.6 4.2 36.6 C 4.7 36.6 5.0 36.6 5.6 36.6 C 6.1 36.5 6.4 36.5 7.0 36.3 C 7.5 36.2 7.8 36.0 8.4 36.0 C 8.9 35.9 9.2 35.9 9.8 35.9 C 10.3 35.9 10.6 36.1 11.2 36.1 C 11.7 36.1 12.0 36.1 12.6 36.1 C 13.1 36.0 13.4 35.9 14.0 35.9 C 14.5 35.9 14.8 36.1 15.4 36.1 C 15.9 36.1 16.2 35.9 16.8 35.8 C 17.3 35.6 17.6 35.4 18.2 35.3 C 18.7 35.2 19.0 35.2 19.6 35.1 C 20.1 35.0 20.4 34.9 21.0 34.9 C 21.6 34.9 21.8 34.9 22.4 34.9 C 23.0 34.9 23.2 35.0 23.8 35.0 C 24.4 35.0 24.6 34.7 25.2 34.7 C 25.8 34.7 26.0 34.8 26.6 34.8 C 27.2 34.8 27.4 34.7 28.0 34.6 C 28.6 34.5 28.8 34.5 29.4 34.4 C 30.0 34.3 30.2 34.1 30.8 34.1 C 31.4 34.1 31.7 34.1 32.2 34.1 C 32.8 34.1 33.1 34.0 33.6 33.9 C 34.2 33.9 34.5 33.9 35.0 33.8 C 35.6 33.8 35.9 33.5 36.4 33.5 C 37.0 33.5 37.3 33.5 37.8 33.5 C 38.4 33.5 38.7 33.8 39.2 33.8 C 39.8 33.8 40.1 33.5 40.6 33.4 C 41.2 33.3 41.5 33.3 42.0 33.3 C 42.6 33.3 42.9 33.3 43.4 33.3 C 44.0 33.4 44.3 33.4 44.8 33.5 C 45.4 33.5 45.7 33.7 46.2 33.7 C 46.8 33.7 47.1 33.7 47.6 33.7 C 48.2 33.7 48.5 33.6 49.0 33.4 C 49.6 33.3 49.9 33.0 50.4 33.0 C 51.0 32.9 51.3 32.9 51.9 32.9 C 52.4 32.9 52.7 33.0 53.3 33.0 C 53.8 33.0 54.1 33.0 54.7 33.0 C 55.2 33.0 55.5 33.1 56.1 33.3 C 56.6 33.4 56.9 33.7 57.5 33.7 C 58.0 33.7 58.3 33.7 58.9 33.6 C 59.4 33.5 59.7 33.4 60.3 33.4 C 60.8 33.4 61.1 33.5 61.7 33.5 C 62.2 33.5 62.5 33.2 63.1 33.0 C 63.6 32.9 63.9 32.6 64.5 32.5 C 65.0 32.4 65.3 32.5 65.9 32.4 C 66.4 32.4 66.7 32.4 67.3 32.3 C 67.8 32.2 68.1 32.1 68.7 32.0 C 69.2 31.9 69.5 31.9 70.1 31.8 C 70.6 31.7 70.9 31.7 71.5 31.6 C 72.1 31.4 72.3 31.3 72.9 31.1 C 73.5 30.9 73.7 30.7 74.3 30.7 C 74.9 30.7 75.1 31.1 75.7 31.1 C 76.3 31.1 76.5 31.1 77.1 31.1 C 77.7 31.1 77.9 31.5 78.5 31.5 C 79.1 31.5 79.3 31.5 79.9 31.4 C 80.5 31.3 80.7 30.9 81.3 30.9 C 81.9 30.9 82.2 31.3 82.7 31.3 C 83.3 31.3 83.6 31.0 84.1 30.8 C 84.7 30.6 85.0 30.4 85.5 30.4 C 86.1 30.4 86.4 30.9 86.9 31.0 C 87.5 31.1 87.8 31.1 88.3 31.1 C 88.9 31.2 89.2 31.2 89.7 31.2 C 90.3 31.2 90.6 31.2 91.1 31.2 C 91.7 31.1 92.0 31.0 92.5 30.9 C 93.1 30.9 93.4 30.9 93.9 30.9 C 94.5 30.9 94.8 31.1 95.3 31.1 C 95.9 31.2 96.2 31.2 96.7 31.3 C 97.3 31.4 97.6 31.6 98.1 31.6 C 98.7 31.6 99.0 31.6 99.5 31.5 C 100.1 31.3 100.4 31.1 100.9 30.9 C 101.5 30.7 101.8 30.7 102.4 30.5 C 102.9 30.3 103.2 30.1 103.8 29.9 C 104.3 29.8 104.6 29.7 105.2 29.7 C 105.7 29.7 106.0 29.8 106.6 29.8 C 107.1 29.8 107.4 29.5 108.0 29.3 C 108.5 29.1 108.8 28.8 109.4 28.8 C 109.9 28.8 110.2 29.0 110.8 29.0 C 111.3 29.0 111.6 28.9 112.2 28.8 C 112.7 28.7 113.0 28.5 113.6 28.5 C 114.1 28.5 114.4 29.0 115.0 29.0 C 115.5 29.0 115.8 28.9 116.4 28.8 C 116.9 28.7 117.2 28.7 117.8 28.6 C 118.3 28.5 118.6 28.4 119.2 28.4 C 119.7 28.4 120.0 28.4 120.6 28.4 C 121.1 28.3 121.4 28.3 122.0 28.3 C 122.5 28.3 122.8 28.3 123.4 28.2 C 124.0 28.2 124.2 28.1 124.8 28.0 C 125.4 27.8 125.6 27.4 126.2 27.4 C 126.8 27.4 127.0 27.7 127.6 27.7 C 128.2 27.7 128.4 27.7 129.0 27.6 C 129.6 27.6 129.8 27.6 130.4 27.5 C 131.0 27.4 131.2 27.2 131.8 27.0 C 132.4 26.9 132.6 26.8 133.2 26.8 C 133.8 26.8 134.1 27.5 134.6 27.5 C 135.2 27.5 135.5 27.0 136.0 27.0 C 136.6 27.0 136.9 27.0 137.4 27.0 C 138.0 27.1 138.3 27.5 138.8 27.5 C 139.4 27.5 139.7 27.5 140.2 27.5 C 140.8 27.5 141.1 27.2 141.6 27.2 C 142.2 27.2 142.5 27.5 143.0 27.6 C 143.6 27.7 143.9 27.9 144.4 27.9 C 145.0 27.9 145.3 27.8 145.8 27.6 C 146.4 27.5 146.7 27.2 147.2 27.2 C 147.8 27.2 148.1 27.2 148.6 27.2 C 149.2 27.2 149.5 27.2 150.0 27.3 C 150.6 27.3 150.9 27.6 151.4 27.7 C 152.0 27.8 152.3 27.8 152.8 27.8 C 153.4 27.8 153.7 27.4 154.3 27.4 C 154.8 27.4 155.1 27.6 155.7 27.8 C 156.2 27.9 156.5 28.0 157.1 28.1 C 157.6 28.2 157.9 28.3 158.5 28.3 C 159.0 28.3 159.3 28.1 159.9 27.9 C 160.4 27.6 160.7 27.4 161.3 27.2 C 161.8 27.0 162.1 27.1 162.7 26.8 C 163.2 26.6 163.5 26.1 164.1 25.8 C 164.6 25.5 164.9 25.3 165.5 25.3 C 166.0 25.3 166.3 25.3 166.9 25.5 C 167.4 25.6 167.7 26.4 168.3 26.4 C 168.8 26.4 169.1 26.1 169.7 26.1 C 170.2 26.1 170.5 26.5 171.1 26.5 C 171.6 26.5 171.9 25.7 172.5 25.7 C 173.0 25.7 173.3 25.9 173.9 25.9 C 174.5 25.9 174.7 25.9 175.3 25.7 C 175.9 25.4 176.1 24.8 176.7 24.8 C 177.3 24.8 177.5 24.8 178.1 25.1 C 178.7 25.4 178.9 26.2 179.5 26.2 C 180.1 26.2 180.3 25.4 180.9 25.1 C 181.5 24.8 181.7 24.7 182.3 24.7 C 182.9 24.7 183.1 24.9 183.7 25.0 C 184.3 25.0 184.6 25.0 185.1 25.1 C 185.7 25.1 186.0 25.1 186.5 25.2 C 187.1 25.4 187.4 25.6 187.9 25.8 C 188.5 26.0 188.8 26.3 189.3 26.3 C 189.9 26.3 190.2 26.1 190.7 25.9 C 191.3 25.7 191.6 25.4 192.1 25.4 C 192.7 25.4 193.0 25.6 193.5 25.6 C 194.1 25.6 194.4 25.5 194.9 25.4 C 195.5 25.2 195.8 25.1 196.3 24.9 C 196.9 24.7 197.2 24.7 197.7 24.5 C 198.3 24.4 198.6 24.2 199.1 24.1 C 199.7 24.0 200.0 24.1 200.5 23.9 C 201.1 23.8 201.4 23.7 201.9 23.4 C 202.5 23.2 202.8 23.1 203.3 22.8 C 203.9 22.5 204.2 22.4 204.8 22.0 C 205.3 21.6 205.6 21.1 206.2 20.8 C 206.7 20.4 207.0 20.6 207.6 20.3 C 208.1 20.0 208.4 19.4 209.0 19.4 C 209.5 19.3 209.8 19.4 210.4 19.3 C 210.9 19.3 211.2 18.3 211.8 17.8 C 212.3 17.3 212.6 17.0 213.2 16.7 C 213.7 16.4 214.0 16.5 214.6 16.3 C 215.1 16.2 215.4 16.0 216.0 15.9 C 216.5 15.7 216.8 15.4 217.4 15.4 C 217.9 15.4 218.2 16.5 218.8 16.8 C 219.3 17.0 219.6 16.9 220.2 17.0 C 220.7 17.1 221.0 17.1 221.6 17.3 C 222.1 17.5 222.4 17.8 223.0 18.1 C 223.5 18.4 223.8 18.7 224.4 18.7 C 224.9 18.7 225.2 18.5 225.8 18.4 C 226.4 18.2 226.6 17.9 227.2 17.9 C 227.8 17.9 228.0 18.0 228.6 18.0 C 229.2 18.0 229.4 17.8 230.0 17.7 C 230.6 17.6 230.8 17.5 231.4 17.5 C 232.0 17.5 232.2 17.8 232.8 17.8 C 233.4 17.8 233.6 17.1 234.2 16.8 C 234.8 16.6 235.0 16.5 235.6 16.4 C 236.2 16.3 236.5 16.3 237.0 16.3 C 237.6 16.3 237.9 17.3 238.4 17.3 C 239.0 17.3 239.3 16.8 239.8 16.5 C 240.4 16.2 240.7 16.1 241.2 15.9 C 241.8 15.7 242.1 15.7 242.6 15.4 C 243.2 15.0 243.5 14.5 244.0 14.2 C 244.6 13.8 244.9 13.6 245.4 13.6 C 246.0 13.6 246.3 13.6 246.8 13.6 C 247.4 13.6 247.7 13.6 248.2 13.5 C 248.8 13.4 249.1 12.5 249.6 12.5 C 250.2 12.5 250.5 13.2 251.0 13.5 C 251.6 13.7 251.9 13.6 252.4 13.9 C 253.0 14.2 253.3 14.9 253.8 15.0 C 254.4 15.1 254.7 15.0 255.2 15.1 C 255.8 15.3 256.1 15.6 256.7 15.9 C 257.2 16.3 257.5 16.4 258.1 16.9 C 258.6 17.3 258.9 17.5 259.5 18.0 C 260.0 18.4 260.3 19.2 260.9 19.2 C 261.4 19.2 261.7 18.7 262.3 18.3 C 262.8 18.0 263.1 17.4 263.7 17.4 C 264.2 17.4 264.5 17.7 265.1 18.2 C 265.6 18.6 265.9 19.2 266.5 19.6 C 267.0 19.9 267.3 19.9 267.9 20.0 C 268.4 20.1 268.7 20.2 269.3 20.2 C 269.8 20.2 270.1 19.3 270.7 19.3 C 271.2 19.3 271.5 19.6 272.1 19.9 C 272.6 20.2 272.9 20.5 273.5 20.9 C 274.0 21.2 274.3 21.3 274.9 21.7 C 275.4 22.1 275.7 22.8 276.3 22.8 C 276.9 22.8 277.1 22.8 277.7 22.6 C 278.3 22.5 278.5 22.1 279.1 22.1 C 279.7 22.1 279.9 22.6 280.5 22.8 C 281.1 23.1 281.3 23.0 281.9 23.2 C 282.5 23.4 282.7 23.9 283.3 23.9 C 283.9 23.9 284.1 23.9 284.7 23.7 C 285.3 23.5 285.5 23.1 286.1 22.9 C 286.7 22.7 287.0 22.6 287.5 22.6 C 288.1 22.6 288.4 23.6 288.9 23.7 C 289.5 23.8 289.8 23.7 290.3 23.8 C 290.9 23.9 291.2 24.3 291.7 24.6 C 292.3 24.8 292.6 25.0 293.1 25.0 C 293.7 25.0 294.0 23.9 294.5 23.5 C 295.1 23.0 295.4 22.6 295.9 22.6 C 296.5 22.6 296.8 23.2 297.3 23.3 C 297.9 23.5 298.2 23.5 298.7 23.5 C 299.3 23.5 299.6 23.1 300.1 23.1 C 300.7 23.1 301.0 23.1 301.5 23.2 C 302.1 23.2 302.4 23.3 302.9 23.5 C 303.5 23.7 303.8 23.7 304.3 24.0 C 304.9 24.3 305.2 25.0 305.7 25.0 C 306.3 25.0 306.6 24.7 307.2 24.5 C 307.7 24.4 308.0 24.3 308.6 24.2 C 309.1 24.1 309.4 24.0 310.0 23.8 C 310.5 23.7 310.8 23.8 311.4 23.7 C 311.9 23.5 312.2 23.2 312.8 22.9 C 313.3 22.7 313.6 22.7 314.2 22.4 C 314.7 22.1 315.0 21.9 315.6 21.5 C 316.1 21.2 316.4 20.7 317.0 20.7 C 317.5 20.7 317.8 21.2 318.4 21.2 C 318.9 21.2 319.2 21.0 319.8 21.0 C 320.3 21.0 320.6 21.3 321.2 21.6 C 321.7 21.9 322.0 22.4 322.6 22.4 C 323.1 22.4 323.4 21.3 324.0 21.3 C 324.5 21.3 324.8 21.6 325.4 21.6 C 325.9 21.6 326.2 21.5 326.8 21.4 C 327.3 21.3 327.6 21.2 328.2 20.9 C 328.8 20.7 329.0 20.1 329.6 19.9 C 330.2 19.8 330.4 19.8 331.0 19.8 C 331.6 19.8 331.8 20.0 332.4 20.0 C 333.0 20.0 333.2 20.0 333.8 20.0 C 334.4 20.0 334.6 20.1 335.2 20.1 C 335.8 20.1 336.0 19.9 336.6 19.5 C 337.2 19.2 337.4 18.2 338.0 18.2 C 338.6 18.2 338.9 18.2 339.4 18.2 C 340.0 18.3 340.3 18.8 340.8 18.8 C 341.4 18.8 341.7 18.1 342.2 18.1 C 342.8 18.1 343.1 18.4 343.6 18.6 C 344.2 18.8 344.5 19.2 345.0 19.2 C 345.6 19.2 345.9 19.0 346.4 19.0 C 347.0 18.9 347.3 18.8 347.8 18.8 C 348.4 18.8 348.7 20.3 349.2 20.4 C 349.8 20.5 350.1 20.5 350.6 20.5 C 351.2 20.5 351.5 19.8 352.0 19.5 C 352.6 19.3 352.9 19.3 353.4 19.3 C 354.0 19.3 354.3 19.9 354.8 19.9 C 355.4 19.9 355.7 19.7 356.2 19.6 C 356.8 19.6 357.1 19.5 357.6 19.5 C 358.2 19.5 358.5 19.7 359.1 19.7 C 359.6 19.7 359.9 19.2 360.5 19.2 C 361.0 19.2 361.3 19.2 361.9 19.2 C 362.4 19.2 362.7 19.7 363.3 19.8 C 363.8 20.0 364.1 20.1 364.7 20.1 C 365.2 20.1 365.5 19.7 366.1 19.1 C 366.6 18.5 366.9 17.3 367.5 17.2 C 368.0 17.0 368.3 17.0 368.9 17.0 C 369.4 17.0 369.7 17.1 370.3 17.1 C 370.8 17.1 371.1 16.8 371.7 16.5 C 372.2 16.2 372.5 15.9 373.1 15.6 C 373.6 15.3 373.9 15.3 374.5 15.1 C 375.0 14.8 375.3 14.4 375.9 14.4 C 376.4 14.4 376.7 14.7 377.3 14.8 C 377.8 15.0 378.1 15.2 378.7 15.2 C 379.3 15.2 379.5 14.7 380.1 14.5 C 380.7 14.2 380.9 14.1 381.5 14.0 C 382.1 13.8 382.3 13.8 382.9 13.8 C 383.5 13.8 383.7 13.8 384.3 13.8 C 384.9 13.7 385.1 13.2 385.7 13.2 C 386.3 13.2 386.5 13.9 387.1 13.9 C 387.7 13.9 387.9 13.8 388.5 13.5 C 389.1 13.3 389.4 12.9 389.9 12.6 C 390.5 12.3 390.8 12.0 391.3 12.0 C 391.9 12.0 392.2 12.1 392.7 12.2 C 393.3 12.4 393.6 12.6 394.1 12.6 C 394.7 12.6 395.0 12.0 395.5 12.0 C 396.1 12.0 396.4 12.2 396.9 12.3 C 397.5 12.4 397.8 12.6 398.3 12.6 C 398.9 12.6 399.2 12.5 399.7 12.5 C 400.3 12.5 400.6 12.9 401.1 12.9 C 401.7 12.9 402.0 12.2 402.5 11.7 C 403.1 11.3 403.4 11.0 403.9 10.6 C 404.5 10.3 404.8 10.2 405.3 9.9 C 405.9 9.7 406.2 9.8 406.7 9.5 C 407.3 9.1 407.6 8.5 408.1 8.1 C 408.7 7.6 409.0 7.2 409.6 7.2 C 410.1 7.2 410.4 7.5 411.0 7.8 C 411.5 8.2 411.8 8.5 412.4 8.9 C 412.9 9.3 413.2 9.7 413.8 9.7 C 414.3 9.7 414.6 9.0 415.2 8.8 C 415.7 8.7 416.0 8.7 416.6 8.7 C 417.1 8.7 417.4 9.9 418.0 9.9 C 418.5 9.9 418.8 9.6 419.4 9.6 C 419.9 9.6 420.2 9.6 420.8 9.6 C 421.3 9.6 421.6 8.5 422.2 7.9 C 422.7 7.4 423.0 7.4 423.6 6.9 C 424.1 6.5 424.4 6.3 425.0 5.8 C 425.5 5.3 425.8 4.7 426.4 4.3 C 426.9 3.8 427.2 3.5 427.8 3.5 C 428.3 3.5 428.6 3.7 429.2 4.1 C 429.7 4.4 430.0 5.1 430.6 5.1 C 431.2 5.1 431.4 4.7 432.0 4.7 C 432.6 4.7 432.8 4.9 433.4 5.0 C 434.0 5.1 434.2 5.2 434.8 5.2 C 435.4 5.2 435.6 5.0 436.2 4.9 C 436.8 4.8 437.0 4.8 437.6 4.7 C 438.2 4.6 438.4 4.6 439.0 4.3 C 439.6 4.1 439.8 3.6 440.4 3.6 C 441.0 3.6 441.3 4.6 441.8 4.6 C 442.4 4.6 442.7 4.6 443.2 4.6 C 443.8 4.6 444.1 3.9 444.6 3.7 C 445.2 3.4 445.5 3.3 446.0 3.3 C 446.6 3.3 446.9 3.5 447.4 3.7 C 448.0 3.9 448.3 4.1 448.8 4.3 C 449.4 4.4 449.7 4.6 450.2 4.6 C 450.8 4.6 451.1 4.4 451.6 4.4 C 452.2 4.4 452.5 4.7 453.0 4.9 C 453.6 5.1 453.9 5.4 454.4 5.4 C 455.0 5.4 455.3 4.9 455.8 4.7 C 456.4 4.5 456.7 4.5 457.2 4.5 C 457.8 4.5 458.1 5.2 458.6 5.8 C 459.2 6.4 459.5 7.4 460.0 7.7 C 460.6 8.0 460.9 7.9 461.5 8.0 C 462.0 8.1 462.3 8.0 462.9 8.2 C 463.4 8.5 463.7 10.3 464.3 10.3 C 464.8 10.3 465.1 9.6 465.7 9.4 C 466.2 9.1 466.5 9.3 467.1 9.0 C 467.6 8.8 467.9 8.0 468.5 8.0 C 469.0 8.0 469.3 8.1 469.9 8.4 C 470.4 8.7 470.7 9.3 471.3 9.4 C 471.8 9.4 472.1 9.4 472.7 9.4 C 473.2 9.4 473.5 9.3 474.1 9.1 C 474.6 9.0 474.9 8.8 475.5 8.5 C 476.0 8.1 476.3 7.6 476.9 7.2 C 477.4 6.8 477.7 6.2 478.3 6.2 C 478.8 6.2 479.1 7.2 479.7 7.5 C 480.2 7.8 480.5 7.9 481.1 7.9 C 481.7 7.9 481.9 7.1 482.5 7.1 C 483.1 7.1 483.3 7.4 483.9 7.5 C 484.5 7.6 484.7 7.5 485.3 7.7 C 485.9 7.9 486.1 8.7 486.7 9.2 C 487.3 9.7 487.5 10.2 488.1 10.3 C 488.7 10.3 488.9 10.3 489.5 10.3 C 490.1 10.4 490.3 11.6 490.9 12.2 C 491.5 12.7 491.8 12.6 492.3 12.9 C 492.9 13.1 493.2 13.3 493.7 13.3 C 494.3 13.3 494.6 13.3 495.1 13.3 C 495.7 13.4 496.0 13.6 496.5 13.7 C 497.1 13.9 497.4 14.2 497.9 14.2 C 498.5 14.2 498.8 13.5 499.3 13.5 C 499.9 13.5 500.2 13.7 500.7 13.7 C 501.3 13.7 501.6 13.0 502.1 12.6 C 502.7 12.3 503.0 12.3 503.5 12.0 C 504.1 11.8 504.4 11.5 504.9 11.2 C 505.5 11.0 505.8 11.0 506.3 10.8 C 506.9 10.6 507.2 10.5 507.7 10.3 C 508.3 10.1 508.6 9.8 509.1 9.6 C 509.7 9.5 510.0 9.4 510.5 9.4 C 511.1 9.4 512 10.3 512 10.3" stroke="#4572A7" stroke-width="1" stroke-linejoin="round" stroke-linecap="round">
			</path>
		</g>
		<g class="highcharts-markers highcharts-series-2" transform="translate(24,331) scale(1 1)" clip-path="none">
		</g>
	</g>
	<g class="highcharts-navigator">
		<rect fill="rgb(128,179,236)" fill-opacity="0.3" style="cursor:ew-resize;" x="518" y="331" width="18" height="40">
		</rect>
		<path fill="none" stroke="#b2b1b6" stroke-width="1" d="M 10 331.5 L 517.5 331.5 517.5 385.5 L 535.5 385.5 L 535.5 331.5 550 331.5 M 518.5 331.5 L 535.5 331.5">
		</path>
	</g>
	<text x="292" text-anchor="middle" class="highcharts-title" style="color:#333333;font-size:16px;fill:#333333;width:520px;" y="22">
		<tspan>AAPL Historical
		</tspan>
	</text>
	<g class="highcharts-axis-labels highcharts-xaxis-labels">
		<text x="28.5" style="color:#606060;cursor:default;font-size:11px;fill:#606060;width:84px;text-overflow:clip;" text-anchor="middle" transform="translate(0,0)" y="304" opacity="1">
			<tspan>18. Jan
			</tspan>
		</text>
		<text x="89.7" style="color:#606060;cursor:default;font-size:11px;fill:#606060;width:84px;text-overflow:clip;" text-anchor="middle" transform="translate(0,0)" y="304" opacity="1">
			<tspan> 1. Feb
			</tspan>
		</text>
		<text x="166.8" style="color:#606060;cursor:default;font-size:11px;fill:#606060;width:84px;text-overflow:clip;" text-anchor="middle" transform="translate(0,0)" y="304" opacity="1">
			<tspan>15. Feb
			</tspan>
		</text>
		<text x="244.0" style="color:#606060;cursor:default;font-size:11px;fill:#606060;width:84px;text-overflow:clip;" text-anchor="middle" transform="translate(0,0)" y="304" opacity="1">
			<tspan>29. Feb
			</tspan>
		</text>
		<text x="321.2" style="color:#606060;cursor:default;font-size:11px;fill:#606060;width:84px;text-overflow:clip;" text-anchor="middle" transform="translate(0,0)" y="304" opacity="1">
			<tspan>14. Mar
			</tspan>
		</text>
		<text x="398.4" style="color:#606060;cursor:default;font-size:11px;fill:#606060;width:84px;text-overflow:clip;" text-anchor="middle" transform="translate(0,0)" y="304" opacity="1">
			<tspan>28. Mar
			</tspan>
		</text>
		<text x="475.5" style="color:#606060;cursor:default;font-size:11px;fill:#606060;width:84px;text-overflow:clip;" text-anchor="middle" transform="translate(0,0)" y="304" opacity="1">
			<tspan>11. Apr
			</tspan>
		</text>
	</g>
	<g class="highcharts-axis-labels highcharts-xaxis-labels">
		<text x="77.6" style="color:#888;cursor:default;font-size:11px;fill:#888;width:178px;text-overflow:clip;" text-anchor="start" transform="translate(0,0)" y="367" opacity="1">2010
		</text>
		<text x="223.9" style="color:#888;cursor:default;font-size:11px;fill:#888;width:178px;text-overflow:clip;" text-anchor="start" transform="translate(0,0)" y="367" opacity="1">2012
		</text>
		<text x="370.4" style="color:#888;cursor:default;font-size:11px;fill:#888;width:178px;text-overflow:clip;" text-anchor="start" transform="translate(0,0)" y="367" opacity="1">2014
		</text>
		<text x="516.7" style="color:#888;cursor:default;font-size:11px;fill:#888;width:178px;text-overflow:clip;" text-anchor="start" transform="translate(0,0)" y="367" opacity="1">2016
		</text>
	</g>
	<g class="highcharts-axis-labels highcharts-yaxis-labels">
		<text x="547" style="color:#606060;cursor:default;font-size:11px;fill:#606060;width:183px;text-overflow:clip;" text-anchor="end" transform="translate(0,0)" y="201" opacity="1">90
		</text>
		<text x="547" style="color:#606060;cursor:default;font-size:11px;fill:#606060;width:183px;text-overflow:clip;" text-anchor="end" transform="translate(0,0)" y="160" opacity="1">100
		</text>
		<text x="547" style="color:#606060;cursor:default;font-size:11px;fill:#606060;width:183px;text-overflow:clip;" text-anchor="end" transform="translate(0,0)" y="118" opacity="1">110
		</text>
		<text x="0" style="color:#606060;cursor:default;font-size:11px;fill:#606060;width:183px;text-overflow:clip;" text-anchor="end" transform="translate(0,0)" y="-9999">120
		</text>
	</g>
	<g class="highcharts-axis-labels highcharts-yaxis-labels">
		<text x="547" style="color:#606060;cursor:default;font-size:11px;fill:#606060;width:183px;text-overflow:clip;" text-anchor="end" transform="translate(0,0)" y="283" opacity="1">0M
		</text>
		<text x="0" style="color:#606060;cursor:default;font-size:11px;fill:#606060;width:183px;text-overflow:clip;" text-anchor="end" transform="translate(0,0)" y="-9999">500M
		</text>
	</g>
	<g class="highcharts-axis-labels highcharts-yaxis-labels">
	</g>
	<g class="highcharts-tooltip" style="cursor:default;padding:0;pointer-events:none;white-space:nowrap;" transform="translate(0,-9999)">
		<path fill="none" d="M 3.5 0.5 L 13.5 0.5 C 16.5 0.5 16.5 0.5 16.5 3.5 L 16.5 13.5 C 16.5 16.5 16.5 16.5 13.5 16.5 L 3.5 16.5 C 0.5 16.5 0.5 16.5 0.5 13.5 L 0.5 3.5 C 0.5 0.5 0.5 0.5 3.5 0.5"  stroke="black" stroke-opacity="0.0" stroke-width="5" transform="translate(1, 1)">
		</path>
		<path fill="none" d="M 3.5 0.5 L 13.5 0.5 C 16.5 0.5 16.5 0.5 16.5 3.5 L 16.5 13.5 C 16.5 16.5 16.5 16.5 13.5 16.5 L 3.5 16.5 C 0.5 16.5 0.5 16.5 0.5 13.5 L 0.5 3.5 C 0.5 0.5 0.5 0.5 3.5 0.5"  stroke="black" stroke-opacity="0.0" stroke-width="3" transform="translate(1, 1)">
		</path>
		<path fill="none" d="M 3.5 0.5 L 13.5 0.5 C 16.5 0.5 16.5 0.5 16.5 3.5 L 16.5 13.5 C 16.5 16.5 16.5 16.5 13.5 16.5 L 3.5 16.5 C 0.5 16.5 0.5 16.5 0.5 13.5 L 0.5 3.5 C 0.5 0.5 0.5 0.5 3.5 0.5"  stroke="black" stroke-opacity="0.1" stroke-width="1" transform="translate(1, 1)">
		</path>
		<path fill="rgb(249, 249, 249)" fill-opacity=" .85" d="M 3.5 0.5 L 13.5 0.5 C 16.5 0.5 16.5 0.5 16.5 3.5 L 16.5 13.5 C 16.5 16.5 16.5 16.5 13.5 16.5 L 3.5 16.5 C 0.5 16.5 0.5 16.5 0.5 13.5 L 0.5 3.5 C 0.5 0.5 0.5 0.5 3.5 0.5">
		</path>
		<text x="8" style="font-size:12px;color:#333333;fill:#333333;" y="20">
		</text>
	</g>
	<g class="highcharts-navigator-handle-right" style="cursor:ew-resize;" transform="translate(536,343)">
		<rect x="-4.5" y="0.5" width="8" height="15" fill="#ebe7e8" stroke="#b2b1b6" stroke-width="1">
		</rect>
		<path fill="#ebe7e8" d="M -1.5 4 L -1.5 12 M 0.5 4 L 0.5 12" stroke="#b2b1b6" stroke-width="1">
		</path>
	</g>
	<g class="highcharts-navigator-handle-left" style="cursor:ew-resize;" transform="translate(518,343)">
		<rect x="-4.5" y="0.5" width="8" height="15" fill="#ebe7e8" stroke="#b2b1b6" stroke-width="1">
		</rect>
		<path fill="#ebe7e8" d="M -1.5 4 L -1.5 12 M 0.5 4 L 0.5 12" stroke="#b2b1b6" stroke-width="1">
		</path>
	</g>
</svg>