
<svg version="1.1" style="font-family:&quot;lucida grande&quot;, &quot;lucida sans unicode&quot;, arial, helvetica, sans-serif;font-size:12px;" xmlns="http://www.w3.org/2000/svg" viewBox="0 0 584 400">
	<desc>Created with Highstock 4.2.4
	</desc>
	<defs>
		<clipPath id="highcharts-1">
			<rect x="0" y="0" width="564" height="206">
			</rect>
		</clipPath>
		<clipPath id="highcharts-2">
			<rect x="0" y="0" width="564" height="206">
			</rect>
		</clipPath>
		<clipPath id="highcharts-3">
			<rect x="0" y="0" width="536" height="40">
			</rect>
		</clipPath>
	</defs>
	<rect x="0" y="0" width="584" height="400" fill="#FFFFFF" class=" highcharts-background">
	</rect>
	<g class="highcharts-scrollbar" transform="translate(10,372)">
		<rect x="0" y="-0.5" fill="#eeeeee" stroke="#eeeeee" stroke-width="1" rx="0" ry="0" height="14" width="564">
		</rect>
		<rect y="-0.5" height="14" fill="#bfc8d1" stroke="#bfc8d1" stroke-width="1" rx="0" ry="0" x="531.5" width="18">
		</rect>
		<path fill="none" stroke="#666" stroke-width="1" visibility="visible" d="M 537 3.5 L 537 9.3 M 540 3.5 L 540 9.3 M 543 3.5 L 543 9.3">
		</path>
		<g>
			<rect x="-0.5" y="-0.5" width="14" height="14" stroke="#bbb" stroke-width="1" fill="#ebe7e8">
			</rect>
			<path fill="#666" d="M 8 4 L 8 10 5 7">
			</path>
		</g>
		<g transform="translate(550,0)">
			<rect x="-0.5" y="-0.5" width="14" height="14" stroke="#bbb" stroke-width="1" fill="#ebe7e8">
			</rect>
			<path fill="#666" d="M 6 4 L 6 10 9 7">
			</path>
		</g>
	</g>
	<g class="highcharts-range-selector-buttons" transform="translate(0,44)">
		<text x="10" y="15" style="color:#666;fill:#666;">Zoom
		</text>
		<g class="highcharts-button" states="[object Object]" style="cursor:pointer;text-align:center;" transform="translate(48,0)">
			<rect x="0" y="0" width="32" height="22" fill="#f7f7f7" rx="0" ry="0">
			</rect>
			<text x="6.6" style="font-weight:normal;color:#444;fill:#444;" y="14">1m
			</text>
		</g>
		<g class="highcharts-button" states="[object Object]" style="cursor:pointer;text-align:center;" transform="translate(85,0)">
			<rect x="0" y="0" width="32" height="22" fill="#e7f0f9" rx="0" ry="0">
			</rect>
			<text x="6.6" style="font-weight:bold;color:black;fill:black;" y="14">3m
			</text>
		</g>
		<g class="highcharts-button" states="[object Object]" style="cursor:pointer;text-align:center;" transform="translate(122,0)">
			<rect x="0" y="0" width="32" height="22" fill="#f7f7f7" rx="0" ry="0">
			</rect>
			<text x="6.6" style="font-weight:normal;color:#444;fill:#444;" y="14">6m
			</text>
		</g>
		<g class="highcharts-button" states="[object Object]" style="cursor:pointer;text-align:center;" transform="translate(159,0)">
			<rect x="0" y="0" width="32" height="22" fill="#f7f7f7" rx="0" ry="0">
			</rect>
			<text x="3.9" style="font-weight:normal;color:#444;fill:#444;" y="14">YTD
			</text>
		</g>
		<g class="highcharts-button" states="[object Object]" style="cursor:pointer;text-align:center;" transform="translate(196,0)">
			<rect x="0" y="0" width="32" height="22" fill="#f7f7f7" rx="0" ry="0">
			</rect>
			<text x="9.0" style="font-weight:normal;color:#444;fill:#444;" y="14">1y
			</text>
		</g>
		<g class="highcharts-button" states="[object Object]" style="cursor:pointer;text-align:center;" transform="translate(233,0)">
			<rect x="0" y="0" width="32" height="22" fill="#f7f7f7" rx="0" ry="0">
			</rect>
			<text x="8.3" style="font-weight:normal;color:#444;fill:#444;" y="14">All
			</text>
		</g>
	</g>
	<g class="highcharts-input-group" transform="translate(313,44)" visibility="visible">
		<g style="fill:#666;" transform="translate(0,0)">
			<text x="2" style="font-size:12px;font-family:&quot;lucida grande&quot;, &quot;lucida sans unicode&quot;, arial, helvetica, sans-serif;color:#666;fill:#666;" y="14">From
			</text>
		</g>
		<g style="text-align:center;" transform="translate(39,0)">
			<rect x="0.5" y="0.5" width="94" height="21" fill="none" stroke="silver" stroke-width="1">
			</rect>
			<text x="9.6" style="font-size:12px;font-family:&quot;lucida grande&quot;, &quot;lucida sans unicode&quot;, arial, helvetica, sans-serif;color:#444;fill:#444;" y="14">
				<tspan>Jan 21, 2016
				</tspan>
			</text>
		</g>
		<g style="fill:#666;" transform="translate(143,0)">
			<text x="2" style="font-size:12px;font-family:&quot;lucida grande&quot;, &quot;lucida sans unicode&quot;, arial, helvetica, sans-serif;color:#666;fill:#666;" y="14">To
			</text>
		</g>
		<g style="text-align:center;" transform="translate(167,0)">
			<rect x="0.5" y="0.5" width="94" height="21" fill="none" stroke="silver" stroke-width="1">
			</rect>
			<text x="8.2" style="font-size:12px;font-family:&quot;lucida grande&quot;, &quot;lucida sans unicode&quot;, arial, helvetica, sans-serif;color:#444;fill:#444;" y="14">
				<tspan>Apr 21, 2016
				</tspan>
			</text>
		</g>
	</g>
	<g class="highcharts-grid">
	</g>
	<g class="highcharts-grid">
		<path fill="none" d="M 76.5 331 L 76.5 371" stroke="#EEE" stroke-width="1" opacity="1">
		</path>
		<path fill="none" d="M 229.5 331 L 229.5 371" stroke="#EEE" stroke-width="1" opacity="1">
		</path>
		<path fill="none" d="M 383.5 331 L 383.5 371" stroke="#EEE" stroke-width="1" opacity="1">
		</path>
		<path fill="none" d="M 536.5 331 L 536.5 371" stroke="#EEE" stroke-width="1" opacity="1">
		</path>
	</g>
	<g class="highcharts-grid">
		<path fill="none" d="M 10 285.5 L 574 285.5" stroke="#D8D8D8" stroke-width="1" opacity="1">
		</path>
		<path fill="none" d="M 10 234.5 L 574 234.5" stroke="#D8D8D8" stroke-width="1" opacity="1">
		</path>
		<path fill="none" d="M 10 182.5 L 574 182.5" stroke="#D8D8D8" stroke-width="1" opacity="1">
		</path>
		<path fill="none" d="M 10 131.5 L 574 131.5" stroke="#D8D8D8" stroke-width="1" opacity="1">
		</path>
		<path fill="none" d="M 10 79.5 L 574 79.5" stroke="#D8D8D8" stroke-width="1" opacity="1">
		</path>
	</g>
	<g class="highcharts-grid">
	</g>
	<g class="highcharts-axis">
		<path fill="none" d="M 12.5 285 L 12.5 295" stroke="#C0D0E0" stroke-width="1" opacity="1">
		</path>
		<path fill="none" d="M 92.5 285 L 92.5 295" stroke="#C0D0E0" stroke-width="1" opacity="1">
		</path>
		<path fill="none" d="M 173.5 285 L 173.5 295" stroke="#C0D0E0" stroke-width="1" opacity="1">
		</path>
		<path fill="none" d="M 253.5 285 L 253.5 295" stroke="#C0D0E0" stroke-width="1" opacity="1">
		</path>
		<path fill="none" d="M 334.5 285 L 334.5 295" stroke="#C0D0E0" stroke-width="1" opacity="1">
		</path>
		<path fill="none" d="M 415.5 285 L 415.5 295" stroke="#C0D0E0" stroke-width="1" opacity="1">
		</path>
		<path fill="none" d="M 495.5 285 L 495.5 295" stroke="#C0D0E0" stroke-width="1" opacity="1">
		</path>
		<path fill="none" d="M 10 285.5 L 574 285.5" stroke="#C0D0E0" stroke-width="1">
		</path>
	</g>
	<g class="highcharts-axis">
	</g>
	<g class="highcharts-axis">
	</g>
	<g class="highcharts-axis">
	</g>
	<g class="highcharts-series-group">
		<g class="highcharts-series highcharts-series-0 highcharts-tracker" transform="translate(10,79) scale(1 1)" style="" clip-path="url(#highcharts-2)">
			<rect x="-7" y="173" width="20" height="34" fill="#7cb5ec" rx="0" ry="0">
			</rect>
			<rect x="33" y="18" width="20" height="189" fill="#7cb5ec" rx="0" ry="0">
			</rect>
			<rect x="74" y="96" width="20" height="111" fill="#7cb5ec" rx="0" ry="0">
			</rect>
			<rect x="114" y="88" width="20" height="119" fill="#7cb5ec" rx="0" ry="0">
			</rect>
			<rect x="154" y="122" width="20" height="85" fill="#7cb5ec" rx="0" ry="0">
			</rect>
			<rect x="194" y="126" width="20" height="81" fill="#7cb5ec" rx="0" ry="0">
			</rect>
			<rect x="235" y="104" width="20" height="103" fill="#7cb5ec" rx="0" ry="0">
			</rect>
			<rect x="275" y="127" width="20" height="80" fill="#7cb5ec" rx="0" ry="0">
			</rect>
			<rect x="315" y="114" width="20" height="93" fill="#7cb5ec" rx="0" ry="0">
			</rect>
			<rect x="356" y="146" width="20" height="61" fill="#7cb5ec" rx="0" ry="0">
			</rect>
			<rect x="396" y="132" width="20" height="75" fill="#7cb5ec" rx="0" ry="0">
			</rect>
			<rect x="436" y="133" width="20" height="74" fill="#7cb5ec" rx="0" ry="0">
			</rect>
			<rect x="477" y="125" width="20" height="82" fill="#7cb5ec" rx="0" ry="0">
			</rect>
			<rect x="517" y="128" width="20" height="79" fill="#7cb5ec" rx="0" ry="0">
			</rect>
		</g>
		<g class="highcharts-markers highcharts-series-0" transform="translate(10,79) scale(1 1)" clip-path="none">
		</g>
		<g class="highcharts-series highcharts-series-1" transform="translate(24,331) scale(1 1)" clip-path="url(#highcharts-3)">
			<path fill="#4572A7" d="M 0 25.6 C 0 25.6 0.8 27.7 1.4 27.7 C 2.0 27.7 2.3 26.7 2.9 26.7 C 3.5 26.7 3.8 26.7 4.4 27.0 C 4.9 27.3 5.2 29.6 5.8 29.6 C 6.4 29.6 6.7 25.2 7.3 25.2 C 7.9 25.2 8.2 25.8 8.8 25.8 C 9.3 25.8 9.6 22.1 10.2 22.1 C 10.8 22.1 11.1 25.2 11.7 25.2 C 12.3 25.2 12.6 24.8 13.2 24.8 C 13.8 24.8 14.0 28.0 14.6 28.0 C 15.2 28.0 15.5 27.5 16.1 27.5 C 16.7 27.5 17.0 27.6 17.6 27.6 C 18.2 27.6 18.5 21.8 19.0 21.8 C 19.6 21.8 19.9 28.2 20.5 28.8 C 21.1 29.5 21.4 29.3 22.0 29.5 C 22.6 29.7 22.9 30.0 23.4 30.0 C 24.0 30.0 24.3 28.6 24.9 28.6 C 25.5 28.6 25.8 29.2 26.4 29.5 C 27.0 29.8 27.3 30.2 27.9 30.2 C 28.4 30.2 28.7 28.0 29.3 26.9 C 29.9 25.7 30.2 24.5 30.8 24.5 C 31.4 24.5 31.7 26.8 32.3 27.2 C 32.8 27.7 33.1 27.5 33.7 27.7 C 34.3 27.8 34.6 27.7 35.2 28.1 C 35.8 28.4 36.1 30.1 36.7 30.1 C 37.2 30.1 37.5 16.5 38.1 16.5 C 38.7 16.5 39.0 20.2 39.6 22.3 C 40.2 24.5 40.5 26.0 41.1 27.3 C 41.7 28.6 41.9 28.8 42.5 28.8 C 43.1 28.8 43.4 28.2 44.0 28.2 C 44.6 28.2 44.9 30.6 45.5 30.6 C 46.1 30.6 46.4 25.4 46.9 24.7 C 47.5 24.0 47.8 24.0 48.4 24.0 C 49.0 24.0 49.3 27.8 49.9 27.8 C 50.5 27.9 50.8 27.9 51.3 27.9 C 51.9 27.9 52.2 27.9 52.8 27.6 C 53.4 27.3 53.7 26.7 54.3 26.3 C 54.9 25.9 55.2 26.3 55.8 25.7 C 56.3 25.1 56.6 25.7 57.2 21.3 C 57.8 17.0 58.1 3.3 58.7 3.3 C 59.3 3.3 59.6 16.2 60.2 20.7 C 60.7 25.1 61.0 24.3 61.6 25.7 C 62.2 27.1 62.5 27.8 63.1 27.8 C 63.7 27.8 64.0 26.6 64.6 26.1 C 65.2 25.6 65.4 25.4 66.0 25.3 C 66.6 25.3 66.9 25.3 67.5 25.3 C 68.1 25.3 68.4 27.7 69.0 27.7 C 69.6 27.7 69.9 24.9 70.4 24.9 C 71.0 24.9 71.3 26.7 71.9 26.7 C 72.5 26.7 72.8 25.8 73.4 25.8 C 74.0 25.8 74.3 28.3 74.8 28.3 C 75.4 28.3 75.7 19.6 76.3 19.6 C 76.9 19.6 77.2 23.9 77.8 23.9 C 78.4 23.9 78.7 13.8 79.2 13.8 C 79.8 13.8 80.1 19.8 80.7 19.8 C 81.3 19.8 81.6 13.5 82.2 13.5 C 82.8 13.5 83.1 16.9 83.7 18.3 C 84.2 19.7 84.5 20.4 85.1 20.4 C 85.7 20.4 86.0 18.7 86.6 18.7 C 87.2 18.7 87.5 20.4 88.1 20.9 C 88.6 21.4 88.9 21.4 89.5 21.4 C 90.1 21.4 90.4 18.1 91.0 18.1 C 91.6 18.1 91.9 23.8 92.5 23.8 C 93.1 23.8 93.3 17.0 93.9 16.8 C 94.5 16.6 94.8 16.6 95.4 16.6 C 96.0 16.6 96.3 23.5 96.9 26.0 C 97.5 28.6 97.8 29.2 98.3 29.2 C 98.9 29.2 99.2 27.9 99.8 27.9 C 100.4 27.9 100.7 29.8 101.3 29.8 C 101.9 29.8 102.2 26.0 102.7 26.0 C 103.3 26.0 103.6 26.4 104.2 27.0 C 104.8 27.5 105.1 28.6 105.7 28.6 C 106.3 28.6 106.6 27.8 107.1 26.6 C 107.7 25.3 108.0 22.3 108.6 22.3 C 109.2 22.3 109.5 22.8 110.1 23.5 C 110.7 24.2 111.0 25.8 111.6 25.8 C 112.1 25.8 112.4 25.6 113.0 24.2 C 113.6 22.9 113.9 19.1 114.5 19.1 C 115.1 19.1 115.4 28.4 116.0 28.4 C 116.5 28.4 116.8 27.3 117.4 27.3 C 118.0 27.3 118.3 28.1 118.9 28.1 C 119.5 28.1 119.8 27.1 120.4 27.1 C 121.0 27.1 121.2 29.4 121.8 29.4 C 122.4 29.4 122.7 28.1 123.3 28.1 C 123.9 28.1 124.2 30.6 124.8 30.6 C 125.4 30.6 125.7 29.6 126.2 29.6 C 126.8 29.6 127.1 31.2 127.7 32.2 C 128.3 33.2 128.6 34.6 129.2 34.6 C 129.8 34.6 130.1 32.0 130.6 31.1 C 131.2 30.3 131.5 31.1 132.1 30.2 C 132.7 29.3 133.0 10.5 133.6 10.5 C 134.2 10.5 134.5 22.9 135.1 26.6 C 135.6 30.3 135.9 30.3 136.5 30.3 C 137.1 30.3 137.4 25.9 138.0 25.9 C 138.6 25.9 138.9 27.0 139.5 27.0 C 140.0 27.0 140.3 23.9 140.9 23.9 C 141.5 23.9 141.8 26.7 142.4 27.1 C 143.0 27.5 143.3 27.5 143.9 27.5 C 144.4 27.5 144.7 20.4 145.3 20.4 C 145.9 20.4 146.2 28.0 146.8 29.4 C 147.4 30.8 147.7 30.8 148.3 30.8 C 148.9 30.8 149.1 28.7 149.7 28.7 C 150.3 28.7 150.6 29.6 151.2 29.6 C 151.8 29.6 152.1 23.6 152.7 23.6 C 153.3 23.6 153.6 26.2 154.1 27.5 C 154.7 28.9 155.0 29.5 155.6 30.4 C 156.2 31.3 156.5 31.9 157.1 31.9 C 157.7 31.9 158.0 30.0 158.5 30.0 C 159.1 30.0 159.4 32.1 160.0 32.1 C 160.6 32.1 160.9 29.1 161.5 29.0 C 162.1 29.0 162.4 29.0 163.0 29.0 C 163.5 29.0 163.8 28.7 164.4 28.2 C 165.0 27.7 165.3 26.5 165.9 26.5 C 166.5 26.5 166.8 30.5 167.4 30.5 C 167.9 30.5 168.2 29.1 168.8 28.6 C 169.4 28.2 169.7 28.6 170.3 28.2 C 170.9 27.7 171.2 22.2 171.8 22.2 C 172.4 22.2 172.6 24.3 173.2 24.3 C 173.8 24.3 174.1 16.8 174.7 16.8 C 175.3 16.8 175.6 16.8 176.2 17.1 C 176.8 17.3 177.1 23.9 177.6 23.9 C 178.2 23.9 178.5 22.4 179.1 22.4 C 179.7 22.4 180.0 28.5 180.6 28.5 C 181.2 28.5 181.5 28.1 182.0 27.7 C 182.6 27.2 182.9 27.7 183.5 26.3 C 184.1 25.0 184.4 20.4 185.0 20.4 C 185.6 20.4 185.9 23.7 186.4 23.7 C 187.0 23.7 187.3 18.8 187.9 18.8 C 188.5 18.8 188.8 25.8 189.4 25.8 C 190.0 25.8 190.3 19.8 190.9 19.8 C 191.4 19.8 191.7 27.0 192.3 28.1 C 192.9 29.3 193.2 29.3 193.8 29.3 C 194.4 29.3 194.7 26.0 195.3 26.0 C 195.8 26.0 196.1 28.2 196.7 28.9 C 197.3 29.6 197.6 29.4 198.2 29.6 C 198.8 29.7 199.1 29.6 199.7 29.7 C 200.3 29.9 200.5 31.1 201.1 31.1 C 201.7 31.1 202.0 30.6 202.6 30.6 C 203.2 30.6 203.5 32.1 204.1 32.7 C 204.7 33.4 205.0 33.7 205.5 33.7 C 206.1 33.7 206.4 32.1 207.0 32.1 C 207.6 32.1 207.9 32.7 208.5 32.7 C 209.1 32.7 209.4 32.7 209.9 31.8 C 210.5 30.8 210.8 27.0 211.4 27.0 C 212.0 27.0 212.3 31.7 212.9 31.7 C 213.5 31.7 213.8 29.2 214.3 26.7 C 214.9 24.2 215.2 19.2 215.8 19.2 C 216.4 19.2 216.7 26.2 217.3 26.2 C 217.9 26.2 218.2 23.7 218.8 23.0 C 219.3 22.3 219.6 23.0 220.2 22.3 C 220.8 21.6 221.1 16.4 221.7 16.4 C 222.3 16.4 222.6 20.8 223.2 22.0 C 223.7 23.1 224.0 23.1 224.6 23.1 C 225.2 23.1 225.5 23.0 226.1 22.5 C 226.7 22.0 227.0 22.4 227.6 20.7 C 228.2 19.1 228.4 14.4 229.0 14.4 C 229.6 14.4 229.9 17.1 230.5 19.5 C 231.1 22.0 231.4 25.3 232.0 26.8 C 232.6 28.3 232.9 28.3 233.4 28.3 C 234.0 28.3 234.3 24.9 234.9 24.9 C 235.5 24.9 235.8 25.0 236.4 25.4 C 237.0 25.9 237.3 26.5 237.8 27.1 C 238.4 27.8 238.7 28.5 239.3 28.8 C 239.9 29.2 240.2 28.9 240.8 29.2 C 241.4 29.5 241.7 29.8 242.3 30.4 C 242.8 30.9 243.1 31.8 243.7 31.8 C 244.3 31.8 244.6 30.2 245.2 29.6 C 245.8 28.9 246.1 28.7 246.7 28.7 C 247.2 28.7 247.5 30.8 248.1 30.8 C 248.7 30.8 249.0 25.4 249.6 25.4 C 250.2 25.4 250.5 28.2 251.1 29.7 C 251.6 31.2 251.9 33.0 252.5 33.0 C 253.1 33.0 253.4 33.0 254.0 31.4 C 254.6 29.8 254.9 24.9 255.5 24.9 C 256.1 24.9 256.3 31.6 256.9 31.6 C 257.5 31.6 257.8 31.6 258.4 30.3 C 259.0 29.1 259.3 24.6 259.9 24.6 C 260.5 24.6 260.8 29.2 261.3 29.2 C 261.9 29.2 262.2 24.8 262.8 24.8 C 263.4 24.8 263.7 26.3 264.3 26.3 C 264.9 26.3 265.2 24.1 265.7 24.1 C 266.3 24.1 266.6 26.2 267.2 26.2 C 267.8 26.2 268.1 21.6 268.7 21.6 C 269.3 21.6 269.6 26.9 270.2 26.9 C 270.7 26.9 271.0 20.6 271.6 20.6 C 272.2 20.6 272.5 20.6 273.1 21.1 C 273.7 21.6 274.0 25.7 274.6 25.9 C 275.1 26.2 275.4 26.2 276.0 26.2 C 276.6 26.2 276.9 19.3 277.5 19.3 C 278.1 19.3 278.4 21.3 279.0 22.3 C 279.6 23.4 279.8 22.8 280.4 24.5 C 281.0 26.3 281.3 31.2 281.9 31.2 C 282.5 31.2 282.8 25.6 283.4 25.6 C 284.0 25.6 284.3 27.7 284.8 27.7 C 285.4 27.7 285.7 25.7 286.3 22.9 C 286.9 20.2 287.2 13.9 287.8 13.9 C 288.4 13.9 288.7 26.0 289.2 26.0 C 289.8 26.0 290.1 24.2 290.7 24.2 C 291.3 24.2 291.6 26.5 292.2 27.4 C 292.8 28.3 293.1 28.6 293.6 28.6 C 294.2 28.6 294.5 27.9 295.1 27.5 C 295.7 27.0 296.0 26.4 296.6 26.4 C 297.2 26.4 297.5 27.4 298.1 27.7 C 298.6 28.0 298.9 27.7 299.5 28.1 C 300.1 28.4 300.4 29.4 301.0 29.4 C 301.6 29.4 301.9 29.1 302.5 29.1 C 303.0 29.1 303.3 31.5 303.9 31.5 C 304.5 31.5 304.8 26.6 305.4 24.9 C 306.0 23.2 306.3 23.0 306.9 23.0 C 307.5 23.0 307.7 25.0 308.3 26.0 C 308.9 27.1 309.2 28.3 309.8 28.3 C 310.4 28.3 310.7 26.5 311.3 26.5 C 311.9 26.5 312.2 28.6 312.7 29.3 C 313.3 30.0 313.6 29.9 314.2 30.1 C 314.8 30.3 315.1 30.1 315.7 30.3 C 316.3 30.6 316.6 31.5 317.1 31.5 C 317.7 31.5 318.0 31.5 318.6 31.2 C 319.2 30.9 319.5 28.8 320.1 28.8 C 320.7 28.8 321.0 30.1 321.5 30.6 C 322.1 31.2 322.4 31.0 323.0 31.6 C 323.6 32.1 323.9 33.6 324.5 33.6 C 325.1 33.6 325.4 31.2 326.0 31.2 C 326.5 31.2 326.8 32.5 327.4 32.5 C 328.0 32.5 328.3 32.5 328.9 31.9 C 329.5 31.3 329.8 24.8 330.4 24.8 C 330.9 24.8 331.2 30.4 331.8 30.9 C 332.4 31.4 332.7 31.4 333.3 31.4 C 333.9 31.4 334.2 31.4 334.8 31.3 C 335.4 31.2 335.6 25.7 336.2 25.7 C 336.8 25.7 337.1 25.8 337.7 26.6 C 338.3 27.4 338.6 28.6 339.2 29.7 C 339.8 30.7 340.1 31.7 340.6 31.8 C 341.2 32.0 341.5 31.9 342.1 32.0 C 342.7 32.1 343.0 32.4 343.6 32.4 C 344.2 32.4 344.5 30.0 345.0 29.4 C 345.6 28.7 345.9 28.7 346.5 28.7 C 347.1 28.7 347.4 32.7 348.0 32.9 C 348.6 33.1 348.9 33.0 349.5 33.1 C 350.0 33.3 350.3 33.6 350.9 33.6 C 351.5 33.6 351.8 32.0 352.4 31.0 C 353.0 30.1 353.3 28.7 353.9 28.7 C 354.4 28.7 354.7 31.5 355.3 31.5 C 355.9 31.5 356.2 30.0 356.8 30.0 C 357.4 30.0 357.7 32.4 358.3 32.4 C 358.8 32.4 359.1 32.4 359.7 32.4 C 360.3 32.3 360.6 31.8 361.2 31.4 C 361.8 31.0 362.1 30.7 362.7 30.4 C 363.3 30.0 363.5 30.4 364.1 29.5 C 364.7 28.7 365.0 22.6 365.6 22.6 C 366.2 22.6 366.5 29.4 367.1 30.5 C 367.7 31.7 368.0 31.4 368.5 31.7 C 369.1 32.0 369.4 32.0 370.0 32.0 C 370.6 32.0 370.9 31.9 371.5 31.9 C 372.1 31.9 372.4 33.8 372.9 33.8 C 373.5 33.8 373.8 33.6 374.4 33.5 C 375.0 33.4 375.3 33.4 375.9 33.2 C 376.5 33.0 376.8 32.5 377.4 32.5 C 377.9 32.5 378.2 34.4 378.8 34.4 C 379.4 34.4 379.7 33.0 380.3 33.0 C 380.9 33.0 381.2 33.2 381.8 33.2 C 382.3 33.2 382.6 29.6 383.2 29.6 C 383.8 29.6 384.1 29.6 384.7 29.7 C 385.3 29.9 385.6 31.1 386.2 31.9 C 386.8 32.8 387.0 34.1 387.6 34.1 C 388.2 34.1 388.5 34.1 389.1 33.4 C 389.7 32.7 390.0 29.2 390.6 29.2 C 391.2 29.2 391.5 30.1 392.0 31.0 C 392.6 31.8 392.9 32.7 393.5 33.4 C 394.1 34.2 394.4 34.3 395.0 34.6 C 395.6 34.9 395.9 34.8 396.4 35.0 C 397.0 35.3 397.3 35.9 397.9 35.9 C 398.5 35.9 398.8 35.0 399.4 34.7 C 400.0 34.4 400.3 34.5 400.8 34.3 C 401.4 34.1 401.7 33.8 402.3 33.8 C 402.9 33.8 403.2 34.4 403.8 34.6 C 404.4 34.8 404.7 34.6 405.3 34.9 C 405.8 35.1 406.1 35.8 406.7 35.8 C 407.3 35.8 407.6 34.4 408.2 34.4 C 408.8 34.4 409.1 34.5 409.7 34.5 C 410.2 34.5 410.5 32.1 411.1 31.2 C 411.7 30.2 412.0 29.9 412.6 29.9 C 413.2 29.9 413.5 33.3 414.1 33.3 C 414.7 33.3 414.9 32.5 415.5 32.5 C 416.1 32.5 416.4 34.4 417.0 34.4 C 417.6 34.4 417.9 34.1 418.5 33.7 C 419.1 33.2 419.4 32.1 419.9 32.1 C 420.5 32.1 420.8 32.1 421.4 32.1 C 422.0 32.1 422.3 34.5 422.9 34.9 C 423.5 35.3 423.8 35.3 424.3 35.3 C 424.9 35.3 425.2 35.3 425.8 35.2 C 426.4 35.1 426.7 34.6 427.3 34.6 C 427.9 34.6 428.2 34.8 428.7 34.8 C 429.3 34.8 429.6 34.0 430.2 34.0 C 430.8 34.0 431.1 34.1 431.7 34.1 C 432.3 34.1 432.6 32.7 433.2 32.7 C 433.7 32.7 434.0 36.4 434.6 36.4 C 435.2 36.4 435.5 36.1 436.1 35.5 C 436.7 35.0 437.0 34.1 437.6 33.6 C 438.1 33.2 438.4 33.2 439.0 33.2 C 439.6 33.2 439.9 34.3 440.5 34.3 C 441.1 34.3 441.4 29.9 442.0 29.9 C 442.6 29.9 442.8 33.9 443.4 33.9 C 444.0 33.9 444.3 33.2 444.9 33.2 C 445.5 33.2 445.8 34.5 446.4 34.5 C 447.0 34.5 447.3 31.9 447.8 31.9 C 448.4 31.9 448.7 34.4 449.3 34.4 C 449.9 34.4 450.2 32.7 450.8 32.7 C 451.4 32.7 451.7 33.5 452.2 34.0 C 452.8 34.4 453.1 35.0 453.7 35.1 C 454.3 35.3 454.6 35.2 455.2 35.3 C 455.8 35.4 456.1 35.6 456.7 35.7 C 457.2 35.8 457.5 35.9 458.1 35.9 C 458.7 35.9 459.0 35.9 459.6 35.2 C 460.2 34.4 460.5 30.8 461.1 30.8 C 461.6 30.8 461.9 33.0 462.5 33.9 C 463.1 34.7 463.4 35.2 464.0 35.2 C 464.6 35.2 464.9 35.1 465.5 35.0 C 466.0 34.8 466.3 34.4 466.9 34.4 C 467.5 34.4 467.8 35.9 468.4 35.9 C 469.0 35.9 469.3 34.9 469.9 34.9 C 470.5 34.9 470.7 35.3 471.3 35.4 C 471.9 35.4 472.2 35.4 472.8 35.4 C 473.4 35.5 473.7 35.6 474.3 35.6 C 474.9 35.6 475.2 33.8 475.7 33.8 C 476.3 33.8 476.6 35.6 477.2 35.6 C 477.8 35.6 478.1 32.4 478.7 32.4 C 479.3 32.4 479.6 35.5 480.1 35.5 C 480.7 35.5 481.0 31.6 481.6 31.6 C 482.2 31.6 482.5 32.1 483.1 32.4 C 483.7 32.6 484.0 32.9 484.6 32.9 C 485.1 32.9 485.4 29.3 486.0 29.3 C 486.6 29.3 486.9 33.4 487.5 33.4 C 488.1 33.4 488.4 33.0 489.0 33.0 C 489.5 33.0 489.8 33.5 490.4 33.8 C 491.0 34.1 491.3 34.6 491.9 34.6 C 492.5 34.6 492.8 33.0 493.4 33.0 C 494.0 33.0 494.2 33.6 494.8 34.1 C 495.4 34.6 495.7 35.7 496.3 35.7 C 496.9 35.7 497.2 35.5 497.8 34.9 C 498.4 34.3 498.7 32.8 499.2 32.8 C 499.8 32.8 500.1 35.4 500.7 35.4 C 501.3 35.4 501.6 35.0 502.2 35.0 C 502.8 35.0 503.1 35.2 503.6 35.5 C 504.2 35.9 504.5 36.6 505.1 36.6 C 505.7 36.6 506.0 35.2 506.6 35.2 C 507.2 35.2 507.5 35.6 508.0 35.6 C 508.6 35.6 508.9 33.0 509.5 33.0 C 510.1 33.0 510.4 36.1 511.0 36.2 C 511.6 36.3 511.9 36.3 512.5 36.3 C 513.0 36.3 513.3 32.4 513.9 32.4 C 514.5 32.4 514.8 33.2 515.4 33.2 C 516.0 33.2 516.3 33.2 516.9 33.2 C 517.4 33.2 517.7 31.9 518.3 31.9 C 518.9 31.9 519.2 35.0 519.8 35.0 C 520.4 35.0 520.7 34.7 521.3 34.7 C 521.9 34.7 522.1 34.9 522.7 35.2 C 523.3 35.5 523.6 36.2 524.2 36.2 C 524.8 36.2 525.1 35.3 525.7 35.3 C 526.3 35.3 526.6 36.3 527.1 36.3 C 527.7 36.3 528.0 35.7 528.6 35.7 C 529.2 35.7 529.5 36.4 530.1 36.4 C 530.7 36.4 531.0 36.4 531.5 36.4 C 532.1 36.4 532.4 36.5 533.0 36.5 C 533.6 36.5 533.9 36.4 534.5 36.2 C 535.1 36.0 536 35.5 536 35.5 L 536 40 C 536 40 535.1 40 534.5 40 C 533.9 40 533.6 40 533.0 40 C 532.4 40 532.1 40 531.5 40 C 531.0 40 530.7 40 530.1 40 C 529.5 40 529.2 40 528.6 40 C 528.0 40 527.7 40 527.1 40 C 526.6 40 526.3 40 525.7 40 C 525.1 40 524.8 40 524.2 40 C 523.6 40 523.3 40 522.7 40 C 522.1 40 521.9 40 521.3 40 C 520.7 40 520.4 40 519.8 40 C 519.2 40 518.9 40 518.3 40 C 517.7 40 517.4 40 516.9 40 C 516.3 40 516.0 40 515.4 40 C 514.8 40 514.5 40 513.9 40 C 513.3 40 513.0 40 512.5 40 C 511.9 40 511.6 40 511.0 40 C 510.4 40 510.1 40 509.5 40 C 508.9 40 508.6 40 508.0 40 C 507.5 40 507.2 40 506.6 40 C 506.0 40 505.7 40 505.1 40 C 504.5 40 504.2 40 503.6 40 C 503.1 40 502.8 40 502.2 40 C 501.6 40 501.3 40 500.7 40 C 500.1 40 499.8 40 499.2 40 C 498.7 40 498.4 40 497.8 40 C 497.2 40 496.9 40 496.3 40 C 495.7 40 495.4 40 494.8 40 C 494.2 40 494.0 40 493.4 40 C 492.8 40 492.5 40 491.9 40 C 491.3 40 491.0 40 490.4 40 C 489.8 40 489.5 40 489.0 40 C 488.4 40 488.1 40 487.5 40 C 486.9 40 486.6 40 486.0 40 C 485.4 40 485.1 40 484.6 40 C 484.0 40 483.7 40 483.1 40 C 482.5 40 482.2 40 481.6 40 C 481.0 40 480.7 40 480.1 40 C 479.6 40 479.3 40 478.7 40 C 478.1 40 477.8 40 477.2 40 C 476.6 40 476.3 40 475.7 40 C 475.2 40 474.9 40 474.3 40 C 473.7 40 473.4 40 472.8 40 C 472.2 40 471.9 40 471.3 40 C 470.7 40 470.5 40 469.9 40 C 469.3 40 469.0 40 468.4 40 C 467.8 40 467.5 40 466.9 40 C 466.3 40 466.0 40 465.5 40 C 464.9 40 464.6 40 464.0 40 C 463.4 40 463.1 40 462.5 40 C 461.9 40 461.6 40 461.1 40 C 460.5 40 460.2 40 459.6 40 C 459.0 40 458.7 40 458.1 40 C 457.5 40 457.2 40 456.7 40 C 456.1 40 455.8 40 455.2 40 C 454.6 40 454.3 40 453.7 40 C 453.1 40 452.8 40 452.2 40 C 451.7 40 451.4 40 450.8 40 C 450.2 40 449.9 40 449.3 40 C 448.7 40 448.4 40 447.8 40 C 447.3 40 447.0 40 446.4 40 C 445.8 40 445.5 40 444.9 40 C 444.3 40 444.0 40 443.4 40 C 442.8 40 442.6 40 442.0 40 C 441.4 40 441.1 40 440.5 40 C 439.9 40 439.6 40 439.0 40 C 438.4 40 438.1 40 437.6 40 C 437.0 40 436.7 40 436.1 40 C 435.5 40 435.2 40 434.6 40 C 434.0 40 433.7 40 433.2 40 C 432.6 40 432.3 40 431.7 40 C 431.1 40 430.8 40 430.2 40 C 429.6 40 429.3 40 428.7 40 C 428.2 40 427.9 40 427.3 40 C 426.7 40 426.4 40 425.8 40 C 425.2 40 424.9 40 424.3 40 C 423.8 40 423.5 40 422.9 40 C 422.3 40 422.0 40 421.4 40 C 420.8 40 420.5 40 419.9 40 C 419.4 40 419.1 40 418.5 40 C 417.9 40 417.6 40 417.0 40 C 416.4 40 416.1 40 415.5 40 C 414.9 40 414.7 40 414.1 40 C 413.5 40 413.2 40 412.6 40 C 412.0 40 411.7 40 411.1 40 C 410.5 40 410.2 40 409.7 40 C 409.1 40 408.8 40 408.2 40 C 407.6 40 407.3 40 406.7 40 C 406.1 40 405.8 40 405.3 40 C 404.7 40 404.4 40 403.8 40 C 403.2 40 402.9 40 402.3 40 C 401.7 40 401.4 40 400.8 40 C 400.3 40 400.0 40 399.4 40 C 398.8 40 398.5 40 397.9 40 C 397.3 40 397.0 40 396.4 40 C 395.9 40 395.6 40 395.0 40 C 394.4 40 394.1 40 393.5 40 C 392.9 40 392.6 40 392.0 40 C 391.5 40 391.2 40 390.6 40 C 390.0 40 389.7 40 389.1 40 C 388.5 40 388.2 40 387.6 40 C 387.0 40 386.8 40 386.2 40 C 385.6 40 385.3 40 384.7 40 C 384.1 40 383.8 40 383.2 40 C 382.6 40 382.3 40 381.8 40 C 381.2 40 380.9 40 380.3 40 C 379.7 40 379.4 40 378.8 40 C 378.2 40 377.9 40 377.4 40 C 376.8 40 376.5 40 375.9 40 C 375.3 40 375.0 40 374.4 40 C 373.8 40 373.5 40 372.9 40 C 372.4 40 372.1 40 371.5 40 C 370.9 40 370.6 40 370.0 40 C 369.4 40 369.1 40 368.5 40 C 368.0 40 367.7 40 367.1 40 C 366.5 40 366.2 40 365.6 40 C 365.0 40 364.7 40 364.1 40 C 363.5 40 363.3 40 362.7 40 C 362.1 40 361.8 40 361.2 40 C 360.6 40 360.3 40 359.7 40 C 359.1 40 358.8 40 358.3 40 C 357.7 40 357.4 40 356.8 40 C 356.2 40 355.9 40 355.3 40 C 354.7 40 354.4 40 353.9 40 C 353.3 40 353.0 40 352.4 40 C 351.8 40 351.5 40 350.9 40 C 350.3 40 350.0 40 349.5 40 C 348.9 40 348.6 40 348.0 40 C 347.4 40 347.1 40 346.5 40 C 345.9 40 345.6 40 345.0 40 C 344.5 40 344.2 40 343.6 40 C 343.0 40 342.7 40 342.1 40 C 341.5 40 341.2 40 340.6 40 C 340.1 40 339.8 40 339.2 40 C 338.6 40 338.3 40 337.7 40 C 337.1 40 336.8 40 336.2 40 C 335.6 40 335.4 40 334.8 40 C 334.2 40 333.9 40 333.3 40 C 332.7 40 332.4 40 331.8 40 C 331.2 40 330.9 40 330.4 40 C 329.8 40 329.5 40 328.9 40 C 328.3 40 328.0 40 327.4 40 C 326.8 40 326.5 40 326.0 40 C 325.4 40 325.1 40 324.5 40 C 323.9 40 323.6 40 323.0 40 C 322.4 40 322.1 40 321.5 40 C 321.0 40 320.7 40 320.1 40 C 319.5 40 319.2 40 318.6 40 C 318.0 40 317.7 40 317.1 40 C 316.6 40 316.3 40 315.7 40 C 315.1 40 314.8 40 314.2 40 C 313.6 40 313.3 40 312.7 40 C 312.2 40 311.9 40 311.3 40 C 310.7 40 310.4 40 309.8 40 C 309.2 40 308.9 40 308.3 40 C 307.7 40 307.5 40 306.9 40 C 306.3 40 306.0 40 305.4 40 C 304.8 40 304.5 40 303.9 40 C 303.3 40 303.0 40 302.5 40 C 301.9 40 301.6 40 301.0 40 C 300.4 40 300.1 40 299.5 40 C 298.9 40 298.6 40 298.1 40 C 297.5 40 297.2 40 296.6 40 C 296.0 40 295.7 40 295.1 40 C 294.5 40 294.2 40 293.6 40 C 293.1 40 292.8 40 292.2 40 C 291.6 40 291.3 40 290.7 40 C 290.1 40 289.8 40 289.2 40 C 288.7 40 288.4 40 287.8 40 C 287.2 40 286.9 40 286.3 40 C 285.7 40 285.4 40 284.8 40 C 284.3 40 284.0 40 283.4 40 C 282.8 40 282.5 40 281.9 40 C 281.3 40 281.0 40 280.4 40 C 279.8 40 279.6 40 279.0 40 C 278.4 40 278.1 40 277.5 40 C 276.9 40 276.6 40 276.0 40 C 275.4 40 275.1 40 274.6 40 C 274.0 40 273.7 40 273.1 40 C 272.5 40 272.2 40 271.6 40 C 271.0 40 270.7 40 270.2 40 C 269.6 40 269.3 40 268.7 40 C 268.1 40 267.8 40 267.2 40 C 266.6 40 266.3 40 265.7 40 C 265.2 40 264.9 40 264.3 40 C 263.7 40 263.4 40 262.8 40 C 262.2 40 261.9 40 261.3 40 C 260.8 40 260.5 40 259.9 40 C 259.3 40 259.0 40 258.4 40 C 257.8 40 257.5 40 256.9 40 C 256.3 40 256.1 40 255.5 40 C 254.9 40 254.6 40 254.0 40 C 253.4 40 253.1 40 252.5 40 C 251.9 40 251.6 40 251.1 40 C 250.5 40 250.2 40 249.6 40 C 249.0 40 248.7 40 248.1 40 C 247.5 40 247.2 40 246.7 40 C 246.1 40 245.8 40 245.2 40 C 244.6 40 244.3 40 243.7 40 C 243.1 40 242.8 40 242.3 40 C 241.7 40 241.4 40 240.8 40 C 240.2 40 239.9 40 239.3 40 C 238.7 40 238.4 40 237.8 40 C 237.3 40 237.0 40 236.4 40 C 235.8 40 235.5 40 234.9 40 C 234.3 40 234.0 40 233.4 40 C 232.9 40 232.6 40 232.0 40 C 231.4 40 231.1 40 230.5 40 C 229.9 40 229.6 40 229.0 40 C 228.4 40 228.2 40 227.6 40 C 227.0 40 226.7 40 226.1 40 C 225.5 40 225.2 40 224.6 40 C 224.0 40 223.7 40 223.2 40 C 222.6 40 222.3 40 221.7 40 C 221.1 40 220.8 40 220.2 40 C 219.6 40 219.3 40 218.8 40 C 218.2 40 217.9 40 217.3 40 C 216.7 40 216.4 40 215.8 40 C 215.2 40 214.9 40 214.3 40 C 213.8 40 213.5 40 212.9 40 C 212.3 40 212.0 40 211.4 40 C 210.8 40 210.5 40 209.9 40 C 209.4 40 209.1 40 208.5 40 C 207.9 40 207.6 40 207.0 40 C 206.4 40 206.1 40 205.5 40 C 205.0 40 204.7 40 204.1 40 C 203.5 40 203.2 40 202.6 40 C 202.0 40 201.7 40 201.1 40 C 200.5 40 200.3 40 199.7 40 C 199.1 40 198.8 40 198.2 40 C 197.6 40 197.3 40 196.7 40 C 196.1 40 195.8 40 195.3 40 C 194.7 40 194.4 40 193.8 40 C 193.2 40 192.9 40 192.3 40 C 191.7 40 191.4 40 190.9 40 C 190.3 40 190.0 40 189.4 40 C 188.8 40 188.5 40 187.9 40 C 187.3 40 187.0 40 186.4 40 C 185.9 40 185.6 40 185.0 40 C 184.4 40 184.1 40 183.5 40 C 182.9 40 182.6 40 182.0 40 C 181.5 40 181.2 40 180.6 40 C 180.0 40 179.7 40 179.1 40 C 178.5 40 178.2 40 177.6 40 C 177.1 40 176.8 40 176.2 40 C 175.6 40 175.3 40 174.7 40 C 174.1 40 173.8 40 173.2 40 C 172.6 40 172.4 40 171.8 40 C 171.2 40 170.9 40 170.3 40 C 169.7 40 169.4 40 168.8 40 C 168.2 40 167.9 40 167.4 40 C 166.8 40 166.5 40 165.9 40 C 165.3 40 165.0 40 164.4 40 C 163.8 40 163.5 40 163.0 40 C 162.4 40 162.1 40 161.5 40 C 160.9 40 160.6 40 160.0 40 C 159.4 40 159.1 40 158.5 40 C 158.0 40 157.7 40 157.1 40 C 156.5 40 156.2 40 155.6 40 C 155.0 40 154.7 40 154.1 40 C 153.6 40 153.3 40 152.7 40 C 152.1 40 151.8 40 151.2 40 C 150.6 40 150.3 40 149.7 40 C 149.1 40 148.9 40 148.3 40 C 147.7 40 147.4 40 146.8 40 C 146.2 40 145.9 40 145.3 40 C 144.7 40 144.4 40 143.9 40 C 143.3 40 143.0 40 142.4 40 C 141.8 40 141.5 40 140.9 40 C 140.3 40 140.0 40 139.5 40 C 138.9 40 138.6 40 138.0 40 C 137.4 40 137.1 40 136.5 40 C 135.9 40 135.6 40 135.1 40 C 134.5 40 134.2 40 133.6 40 C 133.0 40 132.7 40 132.1 40 C 131.5 40 131.2 40 130.6 40 C 130.1 40 129.8 40 129.2 40 C 128.6 40 128.3 40 127.7 40 C 127.1 40 126.8 40 126.2 40 C 125.7 40 125.4 40 124.8 40 C 124.2 40 123.9 40 123.3 40 C 122.7 40 122.4 40 121.8 40 C 121.2 40 121.0 40 120.4 40 C 119.8 40 119.5 40 118.9 40 C 118.3 40 118.0 40 117.4 40 C 116.8 40 116.5 40 116.0 40 C 115.4 40 115.1 40 114.5 40 C 113.9 40 113.6 40 113.0 40 C 112.4 40 112.1 40 111.6 40 C 111.0 40 110.7 40 110.1 40 C 109.5 40 109.2 40 108.6 40 C 108.0 40 107.7 40 107.1 40 C 106.6 40 106.3 40 105.7 40 C 105.1 40 104.8 40 104.2 40 C 103.6 40 103.3 40 102.7 40 C 102.2 40 101.9 40 101.3 40 C 100.7 40 100.4 40 99.8 40 C 99.2 40 98.9 40 98.3 40 C 97.8 40 97.5 40 96.9 40 C 96.3 40 96.0 40 95.4 40 C 94.8 40 94.5 40 93.9 40 C 93.3 40 93.1 40 92.5 40 C 91.9 40 91.6 40 91.0 40 C 90.4 40 90.1 40 89.5 40 C 88.9 40 88.6 40 88.1 40 C 87.5 40 87.2 40 86.6 40 C 86.0 40 85.7 40 85.1 40 C 84.5 40 84.2 40 83.7 40 C 83.1 40 82.8 40 82.2 40 C 81.6 40 81.3 40 80.7 40 C 80.1 40 79.8 40 79.2 40 C 78.7 40 78.4 40 77.8 40 C 77.2 40 76.9 40 76.3 40 C 75.7 40 75.4 40 74.8 40 C 74.3 40 74.0 40 73.4 40 C 72.8 40 72.5 40 71.9 40 C 71.3 40 71.0 40 70.4 40 C 69.9 40 69.6 40 69.0 40 C 68.4 40 68.1 40 67.5 40 C 66.9 40 66.6 40 66.0 40 C 65.4 40 65.2 40 64.6 40 C 64.0 40 63.7 40 63.1 40 C 62.5 40 62.2 40 61.6 40 C 61.0 40 60.7 40 60.2 40 C 59.6 40 59.3 40 58.7 40 C 58.1 40 57.8 40 57.2 40 C 56.6 40 56.3 40 55.8 40 C 55.2 40 54.9 40 54.3 40 C 53.7 40 53.4 40 52.8 40 C 52.2 40 51.9 40 51.3 40 C 50.8 40 50.5 40 49.9 40 C 49.3 40 49.0 40 48.4 40 C 47.8 40 47.5 40 46.9 40 C 46.4 40 46.1 40 45.5 40 C 44.9 40 44.6 40 44.0 40 C 43.4 40 43.1 40 42.5 40 C 41.9 40 41.7 40 41.1 40 C 40.5 40 40.2 40 39.6 40 C 39.0 40 38.7 40 38.1 40 C 37.5 40 37.2 40 36.7 40 C 36.1 40 35.8 40 35.2 40 C 34.6 40 34.3 40 33.7 40 C 33.1 40 32.8 40 32.3 40 C 31.7 40 31.4 40 30.8 40 C 30.2 40 29.9 40 29.3 40 C 28.7 40 28.4 40 27.9 40 C 27.3 40 27.0 40 26.4 40 C 25.8 40 25.5 40 24.9 40 C 24.3 40 24.0 40 23.4 40 C 22.9 40 22.6 40 22.0 40 C 21.4 40 21.1 40 20.5 40 C 19.9 40 19.6 40 19.0 40 C 18.5 40 18.2 40 17.6 40 C 17.0 40 16.7 40 16.1 40 C 15.5 40 15.2 40 14.6 40 C 14.0 40 13.8 40 13.2 40 C 12.6 40 12.3 40 11.7 40 C 11.1 40 10.8 40 10.2 40 C 9.6 40 9.3 40 8.8 40 C 8.2 40 7.9 40 7.3 40 C 6.7 40 6.4 40 5.8 40 C 5.2 40 4.9 40 4.4 40 C 3.8 40 3.5 40 2.9 40 C 2.3 40 2.0 40 1.4 40 C 0.8 40 0 40 0 40" fill-opacity="0.0">
			</path>
			<path fill="none" d="M 0 25.6 C 0 25.6 0.8 27.7 1.4 27.7 C 2.0 27.7 2.3 26.7 2.9 26.7 C 3.5 26.7 3.8 26.7 4.4 27.0 C 4.9 27.3 5.2 29.6 5.8 29.6 C 6.4 29.6 6.7 25.2 7.3 25.2 C 7.9 25.2 8.2 25.8 8.8 25.8 C 9.3 25.8 9.6 22.1 10.2 22.1 C 10.8 22.1 11.1 25.2 11.7 25.2 C 12.3 25.2 12.6 24.8 13.2 24.8 C 13.8 24.8 14.0 28.0 14.6 28.0 C 15.2 28.0 15.5 27.5 16.1 27.5 C 16.7 27.5 17.0 27.6 17.6 27.6 C 18.2 27.6 18.5 21.8 19.0 21.8 C 19.6 21.8 19.9 28.2 20.5 28.8 C 21.1 29.5 21.4 29.3 22.0 29.5 C 22.6 29.7 22.9 30.0 23.4 30.0 C 24.0 30.0 24.3 28.6 24.9 28.6 C 25.5 28.6 25.8 29.2 26.4 29.5 C 27.0 29.8 27.3 30.2 27.9 30.2 C 28.4 30.2 28.7 28.0 29.3 26.9 C 29.9 25.7 30.2 24.5 30.8 24.5 C 31.4 24.5 31.7 26.8 32.3 27.2 C 32.8 27.7 33.1 27.5 33.7 27.7 C 34.3 27.8 34.6 27.7 35.2 28.1 C 35.8 28.4 36.1 30.1 36.7 30.1 C 37.2 30.1 37.5 16.5 38.1 16.5 C 38.7 16.5 39.0 20.2 39.6 22.3 C 40.2 24.5 40.5 26.0 41.1 27.3 C 41.7 28.6 41.9 28.8 42.5 28.8 C 43.1 28.8 43.4 28.2 44.0 28.2 C 44.6 28.2 44.9 30.6 45.5 30.6 C 46.1 30.6 46.4 25.4 46.9 24.7 C 47.5 24.0 47.8 24.0 48.4 24.0 C 49.0 24.0 49.3 27.8 49.9 27.8 C 50.5 27.9 50.8 27.9 51.3 27.9 C 51.9 27.9 52.2 27.9 52.8 27.6 C 53.4 27.3 53.7 26.7 54.3 26.3 C 54.9 25.9 55.2 26.3 55.8 25.7 C 56.3 25.1 56.6 25.7 57.2 21.3 C 57.8 17.0 58.1 3.3 58.7 3.3 C 59.3 3.3 59.6 16.2 60.2 20.7 C 60.7 25.1 61.0 24.3 61.6 25.7 C 62.2 27.1 62.5 27.8 63.1 27.8 C 63.7 27.8 64.0 26.6 64.6 26.1 C 65.2 25.6 65.4 25.4 66.0 25.3 C 66.6 25.3 66.9 25.3 67.5 25.3 C 68.1 25.3 68.4 27.7 69.0 27.7 C 69.6 27.7 69.9 24.9 70.4 24.9 C 71.0 24.9 71.3 26.7 71.9 26.7 C 72.5 26.7 72.8 25.8 73.4 25.8 C 74.0 25.8 74.3 28.3 74.8 28.3 C 75.4 28.3 75.7 19.6 76.3 19.6 C 76.9 19.6 77.2 23.9 77.8 23.9 C 78.4 23.9 78.7 13.8 79.2 13.8 C 79.8 13.8 80.1 19.8 80.7 19.8 C 81.3 19.8 81.6 13.5 82.2 13.5 C 82.8 13.5 83.1 16.9 83.7 18.3 C 84.2 19.7 84.5 20.4 85.1 20.4 C 85.7 20.4 86.0 18.7 86.6 18.7 C 87.2 18.7 87.5 20.4 88.1 20.9 C 88.6 21.4 88.9 21.4 89.5 21.4 C 90.1 21.4 90.4 18.1 91.0 18.1 C 91.6 18.1 91.9 23.8 92.5 23.8 C 93.1 23.8 93.3 17.0 93.9 16.8 C 94.5 16.6 94.8 16.6 95.4 16.6 C 96.0 16.6 96.3 23.5 96.9 26.0 C 97.5 28.6 97.8 29.2 98.3 29.2 C 98.9 29.2 99.2 27.9 99.8 27.9 C 100.4 27.9 100.7 29.8 101.3 29.8 C 101.9 29.8 102.2 26.0 102.7 26.0 C 103.3 26.0 103.6 26.4 104.2 27.0 C 104.8 27.5 105.1 28.6 105.7 28.6 C 106.3 28.6 106.6 27.8 107.1 26.6 C 107.7 25.3 108.0 22.3 108.6 22.3 C 109.2 22.3 109.5 22.8 110.1 23.5 C 110.7 24.2 111.0 25.8 111.6 25.8 C 112.1 25.8 112.4 25.6 113.0 24.2 C 113.6 22.9 113.9 19.1 114.5 19.1 C 115.1 19.1 115.4 28.4 116.0 28.4 C 116.5 28.4 116.8 27.3 117.4 27.3 C 118.0 27.3 118.3 28.1 118.9 28.1 C 119.5 28.1 119.8 27.1 120.4 27.1 C 121.0 27.1 121.2 29.4 121.8 29.4 C 122.4 29.4 122.7 28.1 123.3 28.1 C 123.9 28.1 124.2 30.6 124.8 30.6 C 125.4 30.6 125.7 29.6 126.2 29.6 C 126.8 29.6 127.1 31.2 127.7 32.2 C 128.3 33.2 128.6 34.6 129.2 34.6 C 129.8 34.6 130.1 32.0 130.6 31.1 C 131.2 30.3 131.5 31.1 132.1 30.2 C 132.7 29.3 133.0 10.5 133.6 10.5 C 134.2 10.5 134.5 22.9 135.1 26.6 C 135.6 30.3 135.9 30.3 136.5 30.3 C 137.1 30.3 137.4 25.9 138.0 25.9 C 138.6 25.9 138.9 27.0 139.5 27.0 C 140.0 27.0 140.3 23.9 140.9 23.9 C 141.5 23.9 141.8 26.7 142.4 27.1 C 143.0 27.5 143.3 27.5 143.9 27.5 C 144.4 27.5 144.7 20.4 145.3 20.4 C 145.9 20.4 146.2 28.0 146.8 29.4 C 147.4 30.8 147.7 30.8 148.3 30.8 C 148.9 30.8 149.1 28.7 149.7 28.7 C 150.3 28.7 150.6 29.6 151.2 29.6 C 151.8 29.6 152.1 23.6 152.7 23.6 C 153.3 23.6 153.6 26.2 154.1 27.5 C 154.7 28.9 155.0 29.5 155.6 30.4 C 156.2 31.3 156.5 31.9 157.1 31.9 C 157.7 31.9 158.0 30.0 158.5 30.0 C 159.1 30.0 159.4 32.1 160.0 32.1 C 160.6 32.1 160.9 29.1 161.5 29.0 C 162.1 29.0 162.4 29.0 163.0 29.0 C 163.5 29.0 163.8 28.7 164.4 28.2 C 165.0 27.7 165.3 26.5 165.9 26.5 C 166.5 26.5 166.8 30.5 167.4 30.5 C 167.9 30.5 168.2 29.1 168.8 28.6 C 169.4 28.2 169.7 28.6 170.3 28.2 C 170.9 27.7 171.2 22.2 171.8 22.2 C 172.4 22.2 172.6 24.3 173.2 24.3 C 173.8 24.3 174.1 16.8 174.7 16.8 C 175.3 16.8 175.6 16.8 176.2 17.1 C 176.8 17.3 177.1 23.9 177.6 23.9 C 178.2 23.9 178.5 22.4 179.1 22.4 C 179.7 22.4 180.0 28.5 180.6 28.5 C 181.2 28.5 181.5 28.1 182.0 27.7 C 182.6 27.2 182.9 27.7 183.5 26.3 C 184.1 25.0 184.4 20.4 185.0 20.4 C 185.6 20.4 185.9 23.7 186.4 23.7 C 187.0 23.7 187.3 18.8 187.9 18.8 C 188.5 18.8 188.8 25.8 189.4 25.8 C 190.0 25.8 190.3 19.8 190.9 19.8 C 191.4 19.8 191.7 27.0 192.3 28.1 C 192.9 29.3 193.2 29.3 193.8 29.3 C 194.4 29.3 194.7 26.0 195.3 26.0 C 195.8 26.0 196.1 28.2 196.7 28.9 C 197.3 29.6 197.6 29.4 198.2 29.6 C 198.8 29.7 199.1 29.6 199.7 29.7 C 200.3 29.9 200.5 31.1 201.1 31.1 C 201.7 31.1 202.0 30.6 202.6 30.6 C 203.2 30.6 203.5 32.1 204.1 32.7 C 204.7 33.4 205.0 33.7 205.5 33.7 C 206.1 33.7 206.4 32.1 207.0 32.1 C 207.6 32.1 207.9 32.7 208.5 32.7 C 209.1 32.7 209.4 32.7 209.9 31.8 C 210.5 30.8 210.8 27.0 211.4 27.0 C 212.0 27.0 212.3 31.7 212.9 31.7 C 213.5 31.7 213.8 29.2 214.3 26.7 C 214.9 24.2 215.2 19.2 215.8 19.2 C 216.4 19.2 216.7 26.2 217.3 26.2 C 217.9 26.2 218.2 23.7 218.8 23.0 C 219.3 22.3 219.6 23.0 220.2 22.3 C 220.8 21.6 221.1 16.4 221.7 16.4 C 222.3 16.4 222.6 20.8 223.2 22.0 C 223.7 23.1 224.0 23.1 224.6 23.1 C 225.2 23.1 225.5 23.0 226.1 22.5 C 226.7 22.0 227.0 22.4 227.6 20.7 C 228.2 19.1 228.4 14.4 229.0 14.4 C 229.6 14.4 229.9 17.1 230.5 19.5 C 231.1 22.0 231.4 25.3 232.0 26.8 C 232.6 28.3 232.9 28.3 233.4 28.3 C 234.0 28.3 234.3 24.9 234.9 24.9 C 235.5 24.9 235.8 25.0 236.4 25.4 C 237.0 25.9 237.3 26.5 237.8 27.1 C 238.4 27.8 238.7 28.5 239.3 28.8 C 239.9 29.2 240.2 28.9 240.8 29.2 C 241.4 29.5 241.7 29.8 242.3 30.4 C 242.8 30.9 243.1 31.8 243.7 31.8 C 244.3 31.8 244.6 30.2 245.2 29.6 C 245.8 28.9 246.1 28.7 246.7 28.7 C 247.2 28.7 247.5 30.8 248.1 30.8 C 248.7 30.8 249.0 25.4 249.6 25.4 C 250.2 25.4 250.5 28.2 251.1 29.7 C 251.6 31.2 251.9 33.0 252.5 33.0 C 253.1 33.0 253.4 33.0 254.0 31.4 C 254.6 29.8 254.9 24.9 255.5 24.9 C 256.1 24.9 256.3 31.6 256.9 31.6 C 257.5 31.6 257.8 31.6 258.4 30.3 C 259.0 29.1 259.3 24.6 259.9 24.6 C 260.5 24.6 260.8 29.2 261.3 29.2 C 261.9 29.2 262.2 24.8 262.8 24.8 C 263.4 24.8 263.7 26.3 264.3 26.3 C 264.9 26.3 265.2 24.1 265.7 24.1 C 266.3 24.1 266.6 26.2 267.2 26.2 C 267.8 26.2 268.1 21.6 268.7 21.6 C 269.3 21.6 269.6 26.9 270.2 26.9 C 270.7 26.9 271.0 20.6 271.6 20.6 C 272.2 20.6 272.5 20.6 273.1 21.1 C 273.7 21.6 274.0 25.7 274.6 25.9 C 275.1 26.2 275.4 26.2 276.0 26.2 C 276.6 26.2 276.9 19.3 277.5 19.3 C 278.1 19.3 278.4 21.3 279.0 22.3 C 279.6 23.4 279.8 22.8 280.4 24.5 C 281.0 26.3 281.3 31.2 281.9 31.2 C 282.5 31.2 282.8 25.6 283.4 25.6 C 284.0 25.6 284.3 27.7 284.8 27.7 C 285.4 27.7 285.7 25.7 286.3 22.9 C 286.9 20.2 287.2 13.9 287.8 13.9 C 288.4 13.9 288.7 26.0 289.2 26.0 C 289.8 26.0 290.1 24.2 290.7 24.2 C 291.3 24.2 291.6 26.5 292.2 27.4 C 292.8 28.3 293.1 28.6 293.6 28.6 C 294.2 28.6 294.5 27.9 295.1 27.5 C 295.7 27.0 296.0 26.4 296.6 26.4 C 297.2 26.4 297.5 27.4 298.1 27.7 C 298.6 28.0 298.9 27.7 299.5 28.1 C 300.1 28.4 300.4 29.4 301.0 29.4 C 301.6 29.4 301.9 29.1 302.5 29.1 C 303.0 29.1 303.3 31.5 303.9 31.5 C 304.5 31.5 304.8 26.6 305.4 24.9 C 306.0 23.2 306.3 23.0 306.9 23.0 C 307.5 23.0 307.7 25.0 308.3 26.0 C 308.9 27.1 309.2 28.3 309.8 28.3 C 310.4 28.3 310.7 26.5 311.3 26.5 C 311.9 26.5 312.2 28.6 312.7 29.3 C 313.3 30.0 313.6 29.9 314.2 30.1 C 314.8 30.3 315.1 30.1 315.7 30.3 C 316.3 30.6 316.6 31.5 317.1 31.5 C 317.7 31.5 318.0 31.5 318.6 31.2 C 319.2 30.9 319.5 28.8 320.1 28.8 C 320.7 28.8 321.0 30.1 321.5 30.6 C 322.1 31.2 322.4 31.0 323.0 31.6 C 323.6 32.1 323.9 33.6 324.5 33.6 C 325.1 33.6 325.4 31.2 326.0 31.2 C 326.5 31.2 326.8 32.5 327.4 32.5 C 328.0 32.5 328.3 32.5 328.9 31.9 C 329.5 31.3 329.8 24.8 330.4 24.8 C 330.9 24.8 331.2 30.4 331.8 30.9 C 332.4 31.4 332.7 31.4 333.3 31.4 C 333.9 31.4 334.2 31.4 334.8 31.3 C 335.4 31.2 335.6 25.7 336.2 25.7 C 336.8 25.7 337.1 25.8 337.7 26.6 C 338.3 27.4 338.6 28.6 339.2 29.7 C 339.8 30.7 340.1 31.7 340.6 31.8 C 341.2 32.0 341.5 31.9 342.1 32.0 C 342.7 32.1 343.0 32.4 343.6 32.4 C 344.2 32.4 344.5 30.0 345.0 29.4 C 345.6 28.7 345.9 28.7 346.5 28.7 C 347.1 28.7 347.4 32.7 348.0 32.9 C 348.6 33.1 348.9 33.0 349.5 33.1 C 350.0 33.3 350.3 33.6 350.9 33.6 C 351.5 33.6 351.8 32.0 352.4 31.0 C 353.0 30.1 353.3 28.7 353.9 28.7 C 354.4 28.7 354.7 31.5 355.3 31.5 C 355.9 31.5 356.2 30.0 356.8 30.0 C 357.4 30.0 357.7 32.4 358.3 32.4 C 358.8 32.4 359.1 32.4 359.7 32.4 C 360.3 32.3 360.6 31.8 361.2 31.4 C 361.8 31.0 362.1 30.7 362.7 30.4 C 363.3 30.0 363.5 30.4 364.1 29.5 C 364.7 28.7 365.0 22.6 365.6 22.6 C 366.2 22.6 366.5 29.4 367.1 30.5 C 367.7 31.7 368.0 31.4 368.5 31.7 C 369.1 32.0 369.4 32.0 370.0 32.0 C 370.6 32.0 370.9 31.9 371.5 31.9 C 372.1 31.9 372.4 33.8 372.9 33.8 C 373.5 33.8 373.8 33.6 374.4 33.5 C 375.0 33.4 375.3 33.4 375.9 33.2 C 376.5 33.0 376.8 32.5 377.4 32.5 C 377.9 32.5 378.2 34.4 378.8 34.4 C 379.4 34.4 379.7 33.0 380.3 33.0 C 380.9 33.0 381.2 33.2 381.8 33.2 C 382.3 33.2 382.6 29.6 383.2 29.6 C 383.8 29.6 384.1 29.6 384.7 29.7 C 385.3 29.9 385.6 31.1 386.2 31.9 C 386.8 32.8 387.0 34.1 387.6 34.1 C 388.2 34.1 388.5 34.1 389.1 33.4 C 389.7 32.7 390.0 29.2 390.6 29.2 C 391.2 29.2 391.5 30.1 392.0 31.0 C 392.6 31.8 392.9 32.7 393.5 33.4 C 394.1 34.2 394.4 34.3 395.0 34.6 C 395.6 34.9 395.9 34.8 396.4 35.0 C 397.0 35.3 397.3 35.9 397.9 35.9 C 398.5 35.9 398.8 35.0 399.4 34.7 C 400.0 34.4 400.3 34.5 400.8 34.3 C 401.4 34.1 401.7 33.8 402.3 33.8 C 402.9 33.8 403.2 34.4 403.8 34.6 C 404.4 34.8 404.7 34.6 405.3 34.9 C 405.8 35.1 406.1 35.8 406.7 35.8 C 407.3 35.8 407.6 34.4 408.2 34.4 C 408.8 34.4 409.1 34.5 409.7 34.5 C 410.2 34.5 410.5 32.1 411.1 31.2 C 411.7 30.2 412.0 29.9 412.6 29.9 C 413.2 29.9 413.5 33.3 414.1 33.3 C 414.7 33.3 414.9 32.5 415.5 32.5 C 416.1 32.5 416.4 34.4 417.0 34.4 C 417.6 34.4 417.9 34.1 418.5 33.7 C 419.1 33.2 419.4 32.1 419.9 32.1 C 420.5 32.1 420.8 32.1 421.4 32.1 C 422.0 32.1 422.3 34.5 422.9 34.9 C 423.5 35.3 423.8 35.3 424.3 35.3 C 424.9 35.3 425.2 35.3 425.8 35.2 C 426.4 35.1 426.7 34.6 427.3 34.6 C 427.9 34.6 428.2 34.8 428.7 34.8 C 429.3 34.8 429.6 34.0 430.2 34.0 C 430.8 34.0 431.1 34.1 431.7 34.1 C 432.3 34.1 432.6 32.7 433.2 32.7 C 433.7 32.7 434.0 36.4 434.6 36.4 C 435.2 36.4 435.5 36.1 436.1 35.5 C 436.7 35.0 437.0 34.1 437.6 33.6 C 438.1 33.2 438.4 33.2 439.0 33.2 C 439.6 33.2 439.9 34.3 440.5 34.3 C 441.1 34.3 441.4 29.9 442.0 29.9 C 442.6 29.9 442.8 33.9 443.4 33.9 C 444.0 33.9 444.3 33.2 444.9 33.2 C 445.5 33.2 445.8 34.5 446.4 34.5 C 447.0 34.5 447.3 31.9 447.8 31.9 C 448.4 31.9 448.7 34.4 449.3 34.4 C 449.9 34.4 450.2 32.7 450.8 32.7 C 451.4 32.7 451.7 33.5 452.2 34.0 C 452.8 34.4 453.1 35.0 453.7 35.1 C 454.3 35.3 454.6 35.2 455.2 35.3 C 455.8 35.4 456.1 35.6 456.7 35.7 C 457.2 35.8 457.5 35.9 458.1 35.9 C 458.7 35.9 459.0 35.9 459.6 35.2 C 460.2 34.4 460.5 30.8 461.1 30.8 C 461.6 30.8 461.9 33.0 462.5 33.9 C 463.1 34.7 463.4 35.2 464.0 35.2 C 464.6 35.2 464.9 35.1 465.5 35.0 C 466.0 34.8 466.3 34.4 466.9 34.4 C 467.5 34.4 467.8 35.9 468.4 35.9 C 469.0 35.9 469.3 34.9 469.9 34.9 C 470.5 34.9 470.7 35.3 471.3 35.4 C 471.9 35.4 472.2 35.4 472.8 35.4 C 473.4 35.5 473.7 35.6 474.3 35.6 C 474.9 35.6 475.2 33.8 475.7 33.8 C 476.3 33.8 476.6 35.6 477.2 35.6 C 477.8 35.6 478.1 32.4 478.7 32.4 C 479.3 32.4 479.6 35.5 480.1 35.5 C 480.7 35.5 481.0 31.6 481.6 31.6 C 482.2 31.6 482.5 32.1 483.1 32.4 C 483.7 32.6 484.0 32.9 484.6 32.9 C 485.1 32.9 485.4 29.3 486.0 29.3 C 486.6 29.3 486.9 33.4 487.5 33.4 C 488.1 33.4 488.4 33.0 489.0 33.0 C 489.5 33.0 489.8 33.5 490.4 33.8 C 491.0 34.1 491.3 34.6 491.9 34.6 C 492.5 34.6 492.8 33.0 493.4 33.0 C 494.0 33.0 494.2 33.6 494.8 34.1 C 495.4 34.6 495.7 35.7 496.3 35.7 C 496.9 35.7 497.2 35.5 497.8 34.9 C 498.4 34.3 498.7 32.8 499.2 32.8 C 499.8 32.8 500.1 35.4 500.7 35.4 C 501.3 35.4 501.6 35.0 502.2 35.0 C 502.8 35.0 503.1 35.2 503.6 35.5 C 504.2 35.9 504.5 36.6 505.1 36.6 C 505.7 36.6 506.0 35.2 506.6 35.2 C 507.2 35.2 507.5 35.6 508.0 35.6 C 508.6 35.6 508.9 33.0 509.5 33.0 C 510.1 33.0 510.4 36.1 511.0 36.2 C 511.6 36.3 511.9 36.3 512.5 36.3 C 513.0 36.3 513.3 32.4 513.9 32.4 C 514.5 32.4 514.8 33.2 515.4 33.2 C 516.0 33.2 516.3 33.2 516.9 33.2 C 517.4 33.2 517.7 31.9 518.3 31.9 C 518.9 31.9 519.2 35.0 519.8 35.0 C 520.4 35.0 520.7 34.7 521.3 34.7 C 521.9 34.7 522.1 34.9 522.7 35.2 C 523.3 35.5 523.6 36.2 524.2 36.2 C 524.8 36.2 525.1 35.3 525.7 35.3 C 526.3 35.3 526.6 36.3 527.1 36.3 C 527.7 36.3 528.0 35.7 528.6 35.7 C 529.2 35.7 529.5 36.4 530.1 36.4 C 530.7 36.4 531.0 36.4 531.5 36.4 C 532.1 36.4 532.4 36.5 533.0 36.5 C 533.6 36.5 533.9 36.4 534.5 36.2 C 535.1 36.0 536 35.5 536 35.5" stroke="#4572A7" stroke-width="1" stroke-linejoin="round" stroke-linecap="round">
			</path>
		</g>
		<g class="highcharts-markers highcharts-series-1" transform="translate(24,331) scale(1 1)" clip-path="none">
		</g>
	</g>
	<g class="highcharts-navigator">
		<rect fill="rgb(128,179,236)" fill-opacity="0.3" style="cursor:ew-resize;" x="541" y="331" width="19" height="40">
		</rect>
		<path fill="none" stroke="#b2b1b6" stroke-width="1" d="M 10 331.5 L 540.5 331.5 540.5 385.5 L 559.5 385.5 L 559.5 331.5 574 331.5 M 541.5 331.5 L 559.5 331.5">
		</path>
	</g>
	<text x="292" text-anchor="middle" class="highcharts-title" style="color:#333333;font-size:16px;fill:#333333;width:520px;" y="22">
		<tspan>AAPL Stock Volume
		</tspan>
	</text>
	<g class="highcharts-axis-labels highcharts-xaxis-labels">
		<text x="28.5" style="color:#606060;cursor:default;font-size:11px;fill:#606060;width:84px;text-overflow:clip;" text-anchor="middle" transform="translate(0,0)" y="304" opacity="1">
			<tspan>18. Jan
			</tspan>
		</text>
		<text x="93.2" style="color:#606060;cursor:default;font-size:11px;fill:#606060;width:84px;text-overflow:clip;" text-anchor="middle" transform="translate(0,0)" y="304" opacity="1">
			<tspan> 1. Feb
			</tspan>
		</text>
		<text x="173.8" style="color:#606060;cursor:default;font-size:11px;fill:#606060;width:84px;text-overflow:clip;" text-anchor="middle" transform="translate(0,0)" y="304" opacity="1">
			<tspan>15. Feb
			</tspan>
		</text>
		<text x="254.4" style="color:#606060;cursor:default;font-size:11px;fill:#606060;width:84px;text-overflow:clip;" text-anchor="middle" transform="translate(0,0)" y="304" opacity="1">
			<tspan>29. Feb
			</tspan>
		</text>
		<text x="335.0" style="color:#606060;cursor:default;font-size:11px;fill:#606060;width:84px;text-overflow:clip;" text-anchor="middle" transform="translate(0,0)" y="304" opacity="1">
			<tspan>14. Mar
			</tspan>
		</text>
		<text x="415.6" style="color:#606060;cursor:default;font-size:11px;fill:#606060;width:84px;text-overflow:clip;" text-anchor="middle" transform="translate(0,0)" y="304" opacity="1">
			<tspan>28. Mar
			</tspan>
		</text>
		<text x="496.2" style="color:#606060;cursor:default;font-size:11px;fill:#606060;width:84px;text-overflow:clip;" text-anchor="middle" transform="translate(0,0)" y="304" opacity="1">
			<tspan>11. Apr
			</tspan>
		</text>
	</g>
	<g class="highcharts-axis-labels highcharts-xaxis-labels">
		<text x="80.0" style="color:#888;cursor:default;font-size:11px;fill:#888;width:178px;text-overflow:clip;" text-anchor="start" transform="translate(0,0)" y="367" opacity="1">2010
		</text>
		<text x="233.1" style="color:#888;cursor:default;font-size:11px;fill:#888;width:178px;text-overflow:clip;" text-anchor="start" transform="translate(0,0)" y="367" opacity="1">2012
		</text>
		<text x="386.5" style="color:#888;cursor:default;font-size:11px;fill:#888;width:178px;text-overflow:clip;" text-anchor="start" transform="translate(0,0)" y="367" opacity="1">2014
		</text>
		<text x="539.6" style="color:#888;cursor:default;font-size:11px;fill:#888;width:178px;text-overflow:clip;" text-anchor="start" transform="translate(0,0)" y="367" opacity="1">2016
		</text>
	</g>
	<g class="highcharts-axis-labels highcharts-yaxis-labels">
		<text x="574" style="color:#606060;cursor:default;font-size:11px;fill:#606060;width:183px;text-overflow:clip;" text-anchor="end" transform="translate(0,0)" y="283" opacity="1">0M
		</text>
		<text x="574" style="color:#606060;cursor:default;font-size:11px;fill:#606060;width:183px;text-overflow:clip;" text-anchor="end" transform="translate(0,0)" y="232" opacity="1">100M
		</text>
		<text x="574" style="color:#606060;cursor:default;font-size:11px;fill:#606060;width:183px;text-overflow:clip;" text-anchor="end" transform="translate(0,0)" y="180" opacity="1">200M
		</text>
		<text x="574" style="color:#606060;cursor:default;font-size:11px;fill:#606060;width:183px;text-overflow:clip;" text-anchor="end" transform="translate(0,0)" y="129" opacity="1">300M
		</text>
		<text x="0" style="color:#606060;cursor:default;font-size:11px;fill:#606060;width:183px;text-overflow:clip;" text-anchor="end" transform="translate(0,0)" y="-9999">400M
		</text>
	</g>
	<g class="highcharts-axis-labels highcharts-yaxis-labels">
	</g>
	<g class="highcharts-tooltip" style="cursor:default;padding:0;pointer-events:none;white-space:nowrap;" transform="translate(0,-9999)">
		<path fill="none" d="M 3.5 0.5 L 13.5 0.5 C 16.5 0.5 16.5 0.5 16.5 3.5 L 16.5 13.5 C 16.5 16.5 16.5 16.5 13.5 16.5 L 3.5 16.5 C 0.5 16.5 0.5 16.5 0.5 13.5 L 0.5 3.5 C 0.5 0.5 0.5 0.5 3.5 0.5"  stroke="black" stroke-opacity="0.0" stroke-width="5" transform="translate(1, 1)">
		</path>
		<path fill="none" d="M 3.5 0.5 L 13.5 0.5 C 16.5 0.5 16.5 0.5 16.5 3.5 L 16.5 13.5 C 16.5 16.5 16.5 16.5 13.5 16.5 L 3.5 16.5 C 0.5 16.5 0.5 16.5 0.5 13.5 L 0.5 3.5 C 0.5 0.5 0.5 0.5 3.5 0.5"  stroke="black" stroke-opacity="0.0" stroke-width="3" transform="translate(1, 1)">
		</path>
		<path fill="none" d="M 3.5 0.5 L 13.5 0.5 C 16.5 0.5 16.5 0.5 16.5 3.5 L 16.5 13.5 C 16.5 16.5 16.5 16.5 13.5 16.5 L 3.5 16.5 C 0.5 16.5 0.5 16.5 0.5 13.5 L 0.5 3.5 C 0.5 0.5 0.5 0.5 3.5 0.5"  stroke="black" stroke-opacity="0.1" stroke-width="1" transform="translate(1, 1)">
		</path>
		<path fill="rgb(249, 249, 249)" fill-opacity=" .85" d="M 3.5 0.5 L 13.5 0.5 C 16.5 0.5 16.5 0.5 16.5 3.5 L 16.5 13.5 C 16.5 16.5 16.5 16.5 13.5 16.5 L 3.5 16.5 C 0.5 16.5 0.5 16.5 0.5 13.5 L 0.5 3.5 C 0.5 0.5 0.5 0.5 3.5 0.5">
		</path>
		<text x="8" style="font-size:12px;color:#333333;fill:#333333;" y="20">
		</text>
	</g>
	<g class="highcharts-navigator-handle-right" style="cursor:ew-resize;" transform="translate(560,343)">
		<rect x="-4.5" y="0.5" width="8" height="15" fill="#ebe7e8" stroke="#b2b1b6" stroke-width="1">
		</rect>
		<path fill="#ebe7e8" d="M -1.5 4 L -1.5 12 M 0.5 4 L 0.5 12" stroke="#b2b1b6" stroke-width="1">
		</path>
	</g>
	<g class="highcharts-navigator-handle-left" style="cursor:ew-resize;" transform="translate(541,343)">
		<rect x="-4.5" y="0.5" width="8" height="15" fill="#ebe7e8" stroke="#b2b1b6" stroke-width="1">
		</rect>
		<path fill="#ebe7e8" d="M -1.5 4 L -1.5 12 M 0.5 4 L 0.5 12" stroke="#b2b1b6" stroke-width="1">
		</path>
	</g>
</svg>