
<svg version="1.1" style="font-family:&quot;lucida grande&quot;, &quot;lucida sans unicode&quot;, arial, helvetica, sans-serif;font-size:12px;" xmlns="http://www.w3.org/2000/svg" viewBox="0 0 584 400">
	<desc>Created with Highstock 4.2.4
	</desc>
	<defs>
		<clipPath id="highcharts-1">
			<rect x="0" y="0" width="564" height="206">
			</rect>
		</clipPath>
		<clipPath id="highcharts-2">
			<rect x="0" y="0" width="564" height="206">
			</rect>
		</clipPath>
		<clipPath id="highcharts-3">
			<rect x="0" y="0" width="536" height="40">
			</rect>
		</clipPath>
	</defs>
	<rect x="0" y="0" width="584" height="400" fill="#FFFFFF" class=" highcharts-background" stroke="transparent">
	</rect>
	<g class="highcharts-scrollbar" transform="translate(10,372)">
		<rect x="0" y="-0.5" fill="#eeeeee" stroke="#eeeeee" stroke-width="1" rx="0" ry="0" height="14" width="564">
		</rect>
		<rect y="-0.5" height="14" fill="#bfc8d1" stroke="#bfc8d1" stroke-width="1" rx="0" ry="0" x="519.5" width="30">
		</rect>
		<path fill="none" stroke="#666" stroke-width="1" visibility="visible" d="M 531 3.5 L 531 9.3 M 534 3.5 L 534 9.3 M 537 3.5 L 537 9.3">
		</path>
		<g>
			<rect x="-0.5" y="-0.5" width="14" height="14" stroke="#bbb" stroke-width="1" fill="#ebe7e8">
			</rect>
			<path fill="#666" d="M 8 4 L 8 10 5 7">
			</path>
		</g>
		<g transform="translate(550,0)">
			<rect x="-0.5" y="-0.5" width="14" height="14" stroke="#bbb" stroke-width="1" fill="#ebe7e8">
			</rect>
			<path fill="#666" d="M 6 4 L 6 10 9 7">
			</path>
		</g>
	</g>
	<g class="highcharts-range-selector-buttons" transform="translate(0,44)">
		<text x="10" y="15" style="color:#666;fill:#666;">Zoom
		</text>
		<g class="highcharts-button" states="[object Object]" style="cursor:pointer;text-align:center;" transform="translate(48,0)">
			<rect x="0" y="0" width="32" height="22" fill="#e7f0f9" rx="0" ry="0">
			</rect>
			<text x="7.0" style="font-weight:bold;color:black;fill:black;" y="14">1M
			</text>
		</g>
		<g class="highcharts-button" states="[object Object]" style="cursor:pointer;text-align:center;" transform="translate(85,0)">
			<rect x="0" y="0" width="32" height="22" fill="#f7f7f7" rx="0" ry="0">
			</rect>
			<text x="7.0" style="font-weight:normal;color:#444;fill:#444;" y="14">5M
			</text>
		</g>
		<g class="highcharts-button" states="[object Object]" style="cursor:pointer;text-align:center;" transform="translate(122,0)">
			<rect x="0" y="0" width="32" height="22" fill="#f7f7f7" rx="0" ry="0">
			</rect>
			<text x="8.3" style="font-weight:normal;color:#444;fill:#444;" y="14">All
			</text>
		</g>
	</g>
	<g class="highcharts-grid">
	</g>
	<g class="highcharts-grid">
		<path fill="none" d="M 154.5 331 L 154.5 371" stroke="#EEE" stroke-width="1" opacity="1">
		</path>
		<path fill="none" d="M 316.5 331 L 316.5 371" stroke="#EEE" stroke-width="1" opacity="1">
		</path>
		<path fill="none" d="M 477.5 331 L 477.5 371" stroke="#EEE" stroke-width="1" opacity="1">
		</path>
	</g>
	<g class="highcharts-grid">
		<path fill="none" d="M 10 285.5 L 574 285.5" stroke="#D8D8D8" stroke-width="1" opacity="1">
		</path>
		<path fill="none" d="M 10 244.5 L 574 244.5" stroke="#D8D8D8" stroke-width="1" opacity="1">
		</path>
		<path fill="none" d="M 10 203.5 L 574 203.5" stroke="#D8D8D8" stroke-width="1" opacity="1">
		</path>
		<path fill="none" d="M 10 161.5 L 574 161.5" stroke="#D8D8D8" stroke-width="1" opacity="1">
		</path>
		<path fill="none" d="M 10 120.5 L 574 120.5" stroke="#D8D8D8" stroke-width="1" opacity="1">
		</path>
		<path fill="none" d="M 10 78.5 L 574 78.5" stroke="#D8D8D8" stroke-width="1" opacity="1">
		</path>
	</g>
	<g class="highcharts-grid">
	</g>
	<g class="highcharts-axis">
		<path fill="none" d="M 58.5 285 L 58.5 295" stroke="#C0D0E0" stroke-width="1" opacity="1">
		</path>
		<path fill="none" d="M 152.5 285 L 152.5 295" stroke="#C0D0E0" stroke-width="1" opacity="1">
		</path>
		<path fill="none" d="M 246.5 285 L 246.5 295" stroke="#C0D0E0" stroke-width="1" opacity="1">
		</path>
		<path fill="none" d="M 340.5 285 L 340.5 295" stroke="#C0D0E0" stroke-width="1" opacity="1">
		</path>
		<path fill="none" d="M 434.5 285 L 434.5 295" stroke="#C0D0E0" stroke-width="1" opacity="1">
		</path>
		<path fill="none" d="M 528.5 285 L 528.5 295" stroke="#C0D0E0" stroke-width="1" opacity="1">
		</path>
		<path fill="none" d="M 10 285.5 L 574 285.5" stroke="#C0D0E0" stroke-width="1">
		</path>
	</g>
	<g class="highcharts-axis">
	</g>
	<g class="highcharts-axis">
	</g>
	<g class="highcharts-axis">
	</g>
	<g class="highcharts-series-group">
		<g class="highcharts-series highcharts-series-0" transform="translate(10,79) scale(1 1)" clip-path="url(#highcharts-2)">
			<path fill="none" d="M -9.4 186.2 L 0 97.2 L 9.4 87.3 L 18.8 135.1 L 28.2 146.6 L 37.6 140.0 L 47 148.3 L 56.4 54.3 L 65.8 174.6 L 75.2 92.2 L 84.6 90.6 L 94 158.2 L 103.4 64.2 L 112.8 60.9 L 122.2 196.1 L 131.6 182.9 L 141 123.6 L 150.4 151.6 L 159.8 107.1 L 169.2 113.7 L 178.6 158.2 L 188 110.4 L 197.4 52.7 L 206.8 42.8 L 216.2 161.5 L 225.6 67.5 L 235 123.6 L 244.4 51.0 L 253.8 67.5 L 263.2 143.3 L 272.6 98.8 L 282 90.6 L 291.4 52.7 L 300.8 90.6 L 310.2 163.1 L 319.6 72.5 L 329 46.1 L 338.4 103.8 L 347.8 166.4 L 357.2 51.0 L 366.6 75.8 L 376 128.5 L 385.4 64.2 L 394.8 138.4 L 404.2 59.3 L 413.6 191.1 L 423 82.4 L 432.4 149.9 L 441.8 72.5 L 451.2 70.8 L 460.6 54.3 L 470 47.7 L 479.4 166.4 L 488.8 196.1 L 498.2 120.3 L 507.6 145.0 L 517 196.1 L 526.4 182.9 L 535.8 177.9 L 545.2 126.8 L 554.6 173.0 L 564 177.9" stroke="#7cb5ec" stroke-width="2" stroke-linejoin="round" stroke-linecap="round">
			</path>
			<path fill="none" d="M -19.4 186.2 L -9.4 186.2 L 0 97.2 L 9.4 87.3 L 18.8 135.1 L 28.2 146.6 L 37.6 140.0 L 47 148.3 L 56.4 54.3 L 65.8 174.6 L 75.2 92.2 L 84.6 90.6 L 94 158.2 L 103.4 64.2 L 112.8 60.9 L 122.2 196.1 L 131.6 182.9 L 141 123.6 L 150.4 151.6 L 159.8 107.1 L 169.2 113.7 L 178.6 158.2 L 188 110.4 L 197.4 52.7 L 206.8 42.8 L 216.2 161.5 L 225.6 67.5 L 235 123.6 L 244.4 51.0 L 253.8 67.5 L 263.2 143.3 L 272.6 98.8 L 282 90.6 L 291.4 52.7 L 300.8 90.6 L 310.2 163.1 L 319.6 72.5 L 329 46.1 L 338.4 103.8 L 347.8 166.4 L 357.2 51.0 L 366.6 75.8 L 376 128.5 L 385.4 64.2 L 394.8 138.4 L 404.2 59.3 L 413.6 191.1 L 423 82.4 L 432.4 149.9 L 441.8 72.5 L 451.2 70.8 L 460.6 54.3 L 470 47.7 L 479.4 166.4 L 488.8 196.1 L 498.2 120.3 L 507.6 145.0 L 517 196.1 L 526.4 182.9 L 535.8 177.9 L 545.2 126.8 L 554.6 173.0 L 564 177.9 L 574 177.9" stroke-linejoin="round" visibility="visible" stroke="rgb(192,192,192)" stroke-opacity="0.0" stroke-width="22" class=" highcharts-tracker" style="">
			</path>
		</g>
		<g class="highcharts-markers highcharts-series-0 highcharts-tracker" transform="translate(10,79) scale(1 1)" style="" clip-path="none">
		</g>
		<g class="highcharts-series highcharts-series-1" transform="translate(24,331) scale(1 1)" clip-path="url(#highcharts-3)">
			<path fill="#4572A7" d="M 0 24.0 C 0 24.0 1.6 17.4 2.6 17.4 C 3.7 17.4 4.3 21.6 5.3 21.6 C 6.4 21.6 7.0 19.8 8.0 17.8 C 9.1 15.8 9.6 13.3 10.7 11.7 C 11.8 10.1 12.3 9.7 13.4 9.7 C 14.5 9.7 15.0 26.1 16.1 26.6 C 17.2 27.2 17.7 27.2 18.8 27.2 C 19.9 27.2 20.4 11.6 21.5 11.6 C 22.6 11.6 23.1 14.9 24.2 17.0 C 25.3 19.0 25.8 21.7 26.9 21.7 C 28.0 21.7 28.5 15.9 29.6 15.9 C 30.7 15.9 31.2 33.0 32.3 33.0 C 33.3 33.0 33.9 33.0 35.0 31.1 C 36.0 29.2 36.6 18.3 37.7 18.3 C 38.7 18.3 39.3 18.3 40.4 18.3 C 41.4 18.3 42.0 17.6 43.0 17.6 C 44.1 17.6 44.7 26.3 45.7 26.3 C 46.8 26.3 47.4 23.4 48.4 21.9 C 49.5 20.4 50.0 19.0 51.1 19.0 C 52.2 19.0 52.7 21.3 53.8 21.3 C 54.9 21.3 55.4 13.2 56.5 13.2 C 57.6 13.2 58.1 17.2 59.2 17.2 C 60.3 17.2 60.8 12.2 61.9 12.2 C 63.0 12.2 63.5 22.8 64.6 24.7 C 65.7 26.5 66.2 26.5 67.3 26.5 C 68.4 26.5 68.9 3.3 70.0 3.3 C 71.1 3.3 71.6 21.3 72.7 21.3 C 73.8 21.3 74.3 18.6 75.4 17.3 C 76.4 16.1 77.0 15.2 78.1 15.2 C 79.1 15.2 79.7 15.2 80.8 15.7 C 81.8 16.3 82.4 26.9 83.4 26.9 C 84.5 26.9 85.1 10.5 86.1 10.5 C 87.2 10.5 87.8 24.7 88.8 24.7 C 89.9 24.7 90.5 24.5 91.5 24.1 C 92.6 23.7 93.1 22.7 94.2 22.7 C 95.3 22.7 95.8 26.4 96.9 26.4 C 98.0 26.4 98.5 17.1 99.6 16.1 C 100.7 15.2 101.2 15.2 102.3 15.2 C 103.4 15.2 103.9 16.3 105.0 19.0 C 106.1 21.8 106.6 29.0 107.7 29.0 C 108.8 29.0 109.3 6.9 110.4 6.9 C 111.5 6.9 112.0 20.1 113.1 20.1 C 114.2 20.1 114.7 20.1 115.8 18.7 C 116.8 17.2 117.4 12.0 118.5 12.0 C 119.5 12.0 120.1 19.8 121.2 22.8 C 122.2 25.9 122.8 27.5 123.8 27.5 C 124.9 27.5 125.5 13.1 126.5 13.1 C 127.6 13.1 128.2 36.6 129.2 36.6 C 130.3 36.6 130.9 26.7 131.9 23.1 C 133.0 19.6 133.5 18.9 134.6 18.9 C 135.7 18.9 136.2 28.5 137.3 28.5 C 138.4 28.5 138.9 25.2 140.0 24.6 C 141.1 23.9 141.6 24.6 142.7 23.9 C 143.8 23.2 144.3 20.2 145.4 17.3 C 146.5 14.5 147.0 9.6 148.1 9.6 C 149.2 9.6 149.7 26.4 150.8 26.4 C 151.9 26.4 152.4 15.4 153.5 15.4 C 154.6 15.4 155.1 29.9 156.2 29.9 C 157.2 29.9 157.8 15.6 158.9 13.6 C 159.9 11.6 160.5 11.6 161.6 11.6 C 162.6 11.6 163.2 16.1 164.3 16.1 C 165.3 16.1 165.9 11.0 166.9 11.0 C 168.0 11.0 168.6 20.9 169.6 20.9 C 170.7 20.9 171.3 6.1 172.3 6.1 C 173.4 6.1 173.9 23.8 175.0 27.2 C 176.1 30.6 176.6 30.6 177.7 30.6 C 178.8 30.6 179.3 9.8 180.4 9.8 C 181.5 9.8 182.0 23.8 183.1 23.8 C 184.2 23.8 184.7 20.4 185.8 20.4 C 186.9 20.4 187.4 26.6 188.5 26.6 C 189.6 26.6 190.1 16.5 191.2 16.5 C 192.3 16.5 192.8 25.4 193.9 25.4 C 195.0 25.4 195.5 23.7 196.6 23.7 C 197.7 23.7 198.2 27.6 199.3 27.6 C 200.3 27.6 200.9 24.2 202.0 24.1 C 203.0 24.0 203.6 24.1 204.7 24.0 C 205.7 23.9 206.3 21.3 207.3 20.1 C 208.4 18.9 209.0 18.2 210.0 18.2 C 211.1 18.2 211.7 26.5 212.7 26.5 C 213.8 26.5 214.4 13.8 215.4 13.8 C 216.5 13.8 217.0 14.9 218.1 16.7 C 219.2 18.4 219.7 21.1 220.8 22.7 C 221.9 24.2 222.4 24.6 223.5 24.6 C 224.6 24.6 225.1 21.7 226.2 21.7 C 227.3 21.7 227.8 32.4 228.9 32.4 C 230.0 32.4 230.5 23.2 231.6 23.2 C 232.7 23.2 233.2 23.7 234.3 23.7 C 235.4 23.7 235.9 4.2 237.0 4.2 C 238.1 4.2 238.6 20.6 239.7 20.6 C 240.7 20.6 241.3 10.0 242.4 10.0 C 243.4 10.0 244.0 20.8 245.1 21.2 C 246.1 21.7 246.7 21.7 247.7 21.7 C 248.8 21.7 249.4 17.9 250.4 17.6 C 251.5 17.3 252.1 17.3 253.1 17.3 C 254.2 17.3 254.8 19.7 255.8 20.5 C 256.9 21.2 257.4 20.8 258.5 21.2 C 259.6 21.7 260.1 22.8 261.2 22.8 C 262.3 22.8 262.8 18.6 263.9 18.6 C 265.0 18.6 265.5 24.5 266.6 25.2 C 267.7 26.0 268.2 26.0 269.3 26.0 C 270.4 26.0 270.9 17.2 272.0 12.9 C 273.1 8.5 273.6 4.2 274.7 4.2 C 275.8 4.2 276.3 20.8 277.4 20.8 C 278.5 20.8 279.0 11.7 280.1 11.7 C 281.1 11.7 281.7 26.6 282.8 26.6 C 283.8 26.6 284.4 25.7 285.5 24.8 C 286.5 24.0 287.1 24.7 288.2 22.5 C 289.2 20.2 289.8 13.7 290.8 13.7 C 291.9 13.7 292.5 19.1 293.5 19.1 C 294.6 19.1 295.2 9.1 296.2 9.1 C 297.3 9.1 297.8 24.2 298.9 25.8 C 300.0 27.4 300.5 27.4 301.6 27.4 C 302.7 27.4 303.2 3.6 304.3 3.6 C 305.4 3.6 305.9 16.3 307.0 17.1 C 308.1 17.8 308.6 17.1 309.7 17.8 C 310.8 18.6 311.3 25.2 312.4 25.2 C 313.5 25.2 314.0 23.5 315.1 22.5 C 316.2 21.5 316.7 22.5 317.8 20.2 C 318.9 17.9 319.4 10.9 320.5 10.9 C 321.5 10.9 322.1 16.2 323.2 20.1 C 324.2 24.0 324.8 30.5 325.9 30.5 C 326.9 30.5 327.5 17.1 328.6 17.1 C 329.6 17.1 330.2 25.3 331.2 25.3 C 332.3 25.3 332.9 23.6 333.9 22.6 C 335.0 21.6 335.6 20.3 336.6 20.3 C 337.7 20.3 338.2 22.2 339.3 22.2 C 340.4 22.2 340.9 13.6 342.0 13.6 C 343.1 13.6 343.6 16.3 344.7 20.1 C 345.8 23.9 346.3 30.3 347.4 32.4 C 348.5 34.5 349.0 34.5 350.1 34.5 C 351.2 34.5 351.7 30.4 352.8 25.2 C 353.9 20.1 354.4 8.8 355.5 8.8 C 356.6 8.8 357.1 18.3 358.2 21.8 C 359.3 25.3 359.8 26.0 360.9 26.5 C 362.0 26.9 362.5 26.9 363.6 26.9 C 364.6 26.9 365.2 14.9 366.3 14.9 C 367.3 14.9 367.9 28.6 369.0 28.6 C 370.0 28.6 370.6 22.0 371.6 21.8 C 372.7 21.6 373.3 21.6 374.3 21.6 C 375.4 21.6 376.0 22.8 377.0 22.9 C 378.1 23.1 378.7 22.9 379.7 23.1 C 380.8 23.3 381.3 25.9 382.4 25.9 C 383.5 25.9 384.0 19.2 385.1 17.6 C 386.2 16.0 386.7 16.0 387.8 16.0 C 388.9 16.0 389.4 17.7 390.5 17.7 C 391.6 17.7 392.1 16.3 393.2 15.4 C 394.3 14.6 394.8 13.3 395.9 13.3 C 397.0 13.3 397.5 13.6 398.6 13.6 C 399.7 13.6 400.2 7.8 401.3 7.8 C 402.4 7.8 402.9 18.0 404.0 21.8 C 405.0 25.6 405.6 26.9 406.7 26.9 C 407.7 26.9 408.3 26.3 409.4 25.6 C 410.4 24.9 411.0 25.6 412.1 23.6 C 413.1 21.6 413.7 11.2 414.7 10.9 C 415.8 10.6 416.4 10.6 417.4 10.6 C 418.5 10.6 419.1 18.3 420.1 20.1 C 421.2 21.9 421.7 21.9 422.8 21.9 C 423.9 21.9 424.4 18.6 425.5 17.4 C 426.6 16.3 427.1 16.2 428.2 16.2 C 429.3 16.2 429.8 29.4 430.9 29.4 C 432.0 29.4 432.5 18.1 433.6 18.1 C 434.7 18.1 435.2 20.3 436.3 20.3 C 437.4 20.3 437.9 14.8 439.0 13.0 C 440.1 11.1 440.6 11.0 441.7 11.0 C 442.8 11.0 443.3 15.9 444.4 20.0 C 445.4 24.1 446.0 31.5 447.1 31.5 C 448.1 31.5 448.7 24.6 449.8 24.6 C 450.8 24.6 451.4 35.3 452.5 35.3 C 453.5 35.3 454.1 22.7 455.1 20.6 C 456.2 18.5 456.8 19.0 457.8 18.5 C 458.9 17.9 459.5 17.9 460.5 17.9 C 461.6 17.9 462.1 30.5 463.2 30.5 C 464.3 30.5 464.8 28.3 465.9 24.2 C 467.0 20.1 467.5 10.0 468.6 10.0 C 469.7 10.0 470.2 27.5 471.3 27.5 C 472.4 27.5 472.9 24.9 474.0 24.9 C 475.1 24.9 475.6 30.7 476.7 30.7 C 477.8 30.7 478.3 26.0 479.4 23.7 C 480.5 21.4 481.0 21.9 482.1 19.2 C 483.2 16.5 483.7 10.2 484.8 10.2 C 485.9 10.2 486.4 14.5 487.5 14.5 C 488.5 14.5 489.1 12.4 490.2 12.4 C 491.2 12.4 491.8 19.1 492.9 19.1 C 493.9 19.1 494.5 17.5 495.5 17.4 C 496.6 17.3 497.2 17.4 498.2 17.3 C 499.3 17.2 499.9 15.0 500.9 15.0 C 502.0 15.0 502.6 23.0 503.6 23.0 C 504.7 23.0 505.2 23.0 506.3 22.1 C 507.4 21.1 507.9 17.1 509.0 17.1 C 510.1 17.1 510.6 19.6 511.7 20.4 C 512.8 21.1 513.3 21.1 514.4 21.1 C 515.5 21.1 516.0 10.0 517.1 10.0 C 518.2 10.0 518.7 10.2 519.8 10.2 C 520.9 10.2 521.4 8.7 522.5 8.7 C 523.6 8.7 524.1 13.9 525.2 14.5 C 526.3 15.1 526.8 15.1 527.9 15.1 C 528.9 15.1 529.5 7.0 530.6 7.0 C 531.6 7.0 532.2 30.8 533.3 31.7 C 534.3 32.5 536 32.5 536 32.5 L 536 40 C 536 40 534.3 40 533.3 40 C 532.2 40 531.6 40 530.6 40 C 529.5 40 528.9 40 527.9 40 C 526.8 40 526.3 40 525.2 40 C 524.1 40 523.6 40 522.5 40 C 521.4 40 520.9 40 519.8 40 C 518.7 40 518.2 40 517.1 40 C 516.0 40 515.5 40 514.4 40 C 513.3 40 512.8 40 511.7 40 C 510.6 40 510.1 40 509.0 40 C 507.9 40 507.4 40 506.3 40 C 505.2 40 504.7 40 503.6 40 C 502.6 40 502.0 40 500.9 40 C 499.9 40 499.3 40 498.2 40 C 497.2 40 496.6 40 495.5 40 C 494.5 40 493.9 40 492.9 40 C 491.8 40 491.2 40 490.2 40 C 489.1 40 488.5 40 487.5 40 C 486.4 40 485.9 40 484.8 40 C 483.7 40 483.2 40 482.1 40 C 481.0 40 480.5 40 479.4 40 C 478.3 40 477.8 40 476.7 40 C 475.6 40 475.1 40 474.0 40 C 472.9 40 472.4 40 471.3 40 C 470.2 40 469.7 40 468.6 40 C 467.5 40 467.0 40 465.9 40 C 464.8 40 464.3 40 463.2 40 C 462.1 40 461.6 40 460.5 40 C 459.5 40 458.9 40 457.8 40 C 456.8 40 456.2 40 455.1 40 C 454.1 40 453.5 40 452.5 40 C 451.4 40 450.8 40 449.8 40 C 448.7 40 448.1 40 447.1 40 C 446.0 40 445.4 40 444.4 40 C 443.3 40 442.8 40 441.7 40 C 440.6 40 440.1 40 439.0 40 C 437.9 40 437.4 40 436.3 40 C 435.2 40 434.7 40 433.6 40 C 432.5 40 432.0 40 430.9 40 C 429.8 40 429.3 40 428.2 40 C 427.1 40 426.6 40 425.5 40 C 424.4 40 423.9 40 422.8 40 C 421.7 40 421.2 40 420.1 40 C 419.1 40 418.5 40 417.4 40 C 416.4 40 415.8 40 414.7 40 C 413.7 40 413.1 40 412.1 40 C 411.0 40 410.4 40 409.4 40 C 408.3 40 407.7 40 406.7 40 C 405.6 40 405.0 40 404.0 40 C 402.9 40 402.4 40 401.3 40 C 400.2 40 399.7 40 398.6 40 C 397.5 40 397.0 40 395.9 40 C 394.8 40 394.3 40 393.2 40 C 392.1 40 391.6 40 390.5 40 C 389.4 40 388.9 40 387.8 40 C 386.7 40 386.2 40 385.1 40 C 384.0 40 383.5 40 382.4 40 C 381.3 40 380.8 40 379.7 40 C 378.7 40 378.1 40 377.0 40 C 376.0 40 375.4 40 374.3 40 C 373.3 40 372.7 40 371.6 40 C 370.6 40 370.0 40 369.0 40 C 367.9 40 367.3 40 366.3 40 C 365.2 40 364.6 40 363.6 40 C 362.5 40 362.0 40 360.9 40 C 359.8 40 359.3 40 358.2 40 C 357.1 40 356.6 40 355.5 40 C 354.4 40 353.9 40 352.8 40 C 351.7 40 351.2 40 350.1 40 C 349.0 40 348.5 40 347.4 40 C 346.3 40 345.8 40 344.7 40 C 343.6 40 343.1 40 342.0 40 C 340.9 40 340.4 40 339.3 40 C 338.2 40 337.7 40 336.6 40 C 335.6 40 335.0 40 333.9 40 C 332.9 40 332.3 40 331.2 40 C 330.2 40 329.6 40 328.6 40 C 327.5 40 326.9 40 325.9 40 C 324.8 40 324.2 40 323.2 40 C 322.1 40 321.5 40 320.5 40 C 319.4 40 318.9 40 317.8 40 C 316.7 40 316.2 40 315.1 40 C 314.0 40 313.5 40 312.4 40 C 311.3 40 310.8 40 309.7 40 C 308.6 40 308.1 40 307.0 40 C 305.9 40 305.4 40 304.3 40 C 303.2 40 302.7 40 301.6 40 C 300.5 40 300.0 40 298.9 40 C 297.8 40 297.3 40 296.2 40 C 295.2 40 294.6 40 293.5 40 C 292.5 40 291.9 40 290.8 40 C 289.8 40 289.2 40 288.2 40 C 287.1 40 286.5 40 285.5 40 C 284.4 40 283.8 40 282.8 40 C 281.7 40 281.1 40 280.1 40 C 279.0 40 278.5 40 277.4 40 C 276.3 40 275.8 40 274.7 40 C 273.6 40 273.1 40 272.0 40 C 270.9 40 270.4 40 269.3 40 C 268.2 40 267.7 40 266.6 40 C 265.5 40 265.0 40 263.9 40 C 262.8 40 262.3 40 261.2 40 C 260.1 40 259.6 40 258.5 40 C 257.4 40 256.9 40 255.8 40 C 254.8 40 254.2 40 253.1 40 C 252.1 40 251.5 40 250.4 40 C 249.4 40 248.8 40 247.7 40 C 246.7 40 246.1 40 245.1 40 C 244.0 40 243.4 40 242.4 40 C 241.3 40 240.7 40 239.7 40 C 238.6 40 238.1 40 237.0 40 C 235.9 40 235.4 40 234.3 40 C 233.2 40 232.7 40 231.6 40 C 230.5 40 230.0 40 228.9 40 C 227.8 40 227.3 40 226.2 40 C 225.1 40 224.6 40 223.5 40 C 222.4 40 221.9 40 220.8 40 C 219.7 40 219.2 40 218.1 40 C 217.0 40 216.5 40 215.4 40 C 214.4 40 213.8 40 212.7 40 C 211.7 40 211.1 40 210.0 40 C 209.0 40 208.4 40 207.3 40 C 206.3 40 205.7 40 204.7 40 C 203.6 40 203.0 40 202.0 40 C 200.9 40 200.3 40 199.3 40 C 198.2 40 197.7 40 196.6 40 C 195.5 40 195.0 40 193.9 40 C 192.8 40 192.3 40 191.2 40 C 190.1 40 189.6 40 188.5 40 C 187.4 40 186.9 40 185.8 40 C 184.7 40 184.2 40 183.1 40 C 182.0 40 181.5 40 180.4 40 C 179.3 40 178.8 40 177.7 40 C 176.6 40 176.1 40 175.0 40 C 173.9 40 173.4 40 172.3 40 C 171.3 40 170.7 40 169.6 40 C 168.6 40 168.0 40 166.9 40 C 165.9 40 165.3 40 164.3 40 C 163.2 40 162.6 40 161.6 40 C 160.5 40 159.9 40 158.9 40 C 157.8 40 157.2 40 156.2 40 C 155.1 40 154.6 40 153.5 40 C 152.4 40 151.9 40 150.8 40 C 149.7 40 149.2 40 148.1 40 C 147.0 40 146.5 40 145.4 40 C 144.3 40 143.8 40 142.7 40 C 141.6 40 141.1 40 140.0 40 C 138.9 40 138.4 40 137.3 40 C 136.2 40 135.7 40 134.6 40 C 133.5 40 133.0 40 131.9 40 C 130.9 40 130.3 40 129.2 40 C 128.2 40 127.6 40 126.5 40 C 125.5 40 124.9 40 123.8 40 C 122.8 40 122.2 40 121.2 40 C 120.1 40 119.5 40 118.5 40 C 117.4 40 116.8 40 115.8 40 C 114.7 40 114.2 40 113.1 40 C 112.0 40 111.5 40 110.4 40 C 109.3 40 108.8 40 107.7 40 C 106.6 40 106.1 40 105.0 40 C 103.9 40 103.4 40 102.3 40 C 101.2 40 100.7 40 99.6 40 C 98.5 40 98.0 40 96.9 40 C 95.8 40 95.3 40 94.2 40 C 93.1 40 92.6 40 91.5 40 C 90.5 40 89.9 40 88.8 40 C 87.8 40 87.2 40 86.1 40 C 85.1 40 84.5 40 83.4 40 C 82.4 40 81.8 40 80.8 40 C 79.7 40 79.1 40 78.1 40 C 77.0 40 76.4 40 75.4 40 C 74.3 40 73.8 40 72.7 40 C 71.6 40 71.1 40 70.0 40 C 68.9 40 68.4 40 67.3 40 C 66.2 40 65.7 40 64.6 40 C 63.5 40 63.0 40 61.9 40 C 60.8 40 60.3 40 59.2 40 C 58.1 40 57.6 40 56.5 40 C 55.4 40 54.9 40 53.8 40 C 52.7 40 52.2 40 51.1 40 C 50.0 40 49.5 40 48.4 40 C 47.4 40 46.8 40 45.7 40 C 44.7 40 44.1 40 43.0 40 C 42.0 40 41.4 40 40.4 40 C 39.3 40 38.7 40 37.7 40 C 36.6 40 36.0 40 35.0 40 C 33.9 40 33.3 40 32.3 40 C 31.2 40 30.7 40 29.6 40 C 28.5 40 28.0 40 26.9 40 C 25.8 40 25.3 40 24.2 40 C 23.1 40 22.6 40 21.5 40 C 20.4 40 19.9 40 18.8 40 C 17.7 40 17.2 40 16.1 40 C 15.0 40 14.5 40 13.4 40 C 12.3 40 11.8 40 10.7 40 C 9.6 40 9.1 40 8.0 40 C 7.0 40 6.4 40 5.3 40 C 4.3 40 3.7 40 2.6 40 C 1.6 40 0 40 0 40" fill-opacity="0.0">
			</path>
			<path fill="none" d="M 0 24.0 C 0 24.0 1.6 17.4 2.6 17.4 C 3.7 17.4 4.3 21.6 5.3 21.6 C 6.4 21.6 7.0 19.8 8.0 17.8 C 9.1 15.8 9.6 13.3 10.7 11.7 C 11.8 10.1 12.3 9.7 13.4 9.7 C 14.5 9.7 15.0 26.1 16.1 26.6 C 17.2 27.2 17.7 27.2 18.8 27.2 C 19.9 27.2 20.4 11.6 21.5 11.6 C 22.6 11.6 23.1 14.9 24.2 17.0 C 25.3 19.0 25.8 21.7 26.9 21.7 C 28.0 21.7 28.5 15.9 29.6 15.9 C 30.7 15.9 31.2 33.0 32.3 33.0 C 33.3 33.0 33.9 33.0 35.0 31.1 C 36.0 29.2 36.6 18.3 37.7 18.3 C 38.7 18.3 39.3 18.3 40.4 18.3 C 41.4 18.3 42.0 17.6 43.0 17.6 C 44.1 17.6 44.7 26.3 45.7 26.3 C 46.8 26.3 47.4 23.4 48.4 21.9 C 49.5 20.4 50.0 19.0 51.1 19.0 C 52.2 19.0 52.7 21.3 53.8 21.3 C 54.9 21.3 55.4 13.2 56.5 13.2 C 57.6 13.2 58.1 17.2 59.2 17.2 C 60.3 17.2 60.8 12.2 61.9 12.2 C 63.0 12.2 63.5 22.8 64.6 24.7 C 65.7 26.5 66.2 26.5 67.3 26.5 C 68.4 26.5 68.9 3.3 70.0 3.3 C 71.1 3.3 71.6 21.3 72.7 21.3 C 73.8 21.3 74.3 18.6 75.4 17.3 C 76.4 16.1 77.0 15.2 78.1 15.2 C 79.1 15.2 79.7 15.2 80.8 15.7 C 81.8 16.3 82.4 26.9 83.4 26.9 C 84.5 26.9 85.1 10.5 86.1 10.5 C 87.2 10.5 87.8 24.7 88.8 24.7 C 89.9 24.7 90.5 24.5 91.5 24.1 C 92.6 23.7 93.1 22.7 94.2 22.7 C 95.3 22.7 95.8 26.4 96.9 26.4 C 98.0 26.4 98.5 17.1 99.6 16.1 C 100.7 15.2 101.2 15.2 102.3 15.2 C 103.4 15.2 103.9 16.3 105.0 19.0 C 106.1 21.8 106.6 29.0 107.7 29.0 C 108.8 29.0 109.3 6.9 110.4 6.9 C 111.5 6.9 112.0 20.1 113.1 20.1 C 114.2 20.1 114.7 20.1 115.8 18.7 C 116.8 17.2 117.4 12.0 118.5 12.0 C 119.5 12.0 120.1 19.8 121.2 22.8 C 122.2 25.9 122.8 27.5 123.8 27.5 C 124.9 27.5 125.5 13.1 126.5 13.1 C 127.6 13.1 128.2 36.6 129.2 36.6 C 130.3 36.6 130.9 26.7 131.9 23.1 C 133.0 19.6 133.5 18.9 134.6 18.9 C 135.7 18.9 136.2 28.5 137.3 28.5 C 138.4 28.5 138.9 25.2 140.0 24.6 C 141.1 23.9 141.6 24.6 142.7 23.9 C 143.8 23.2 144.3 20.2 145.4 17.3 C 146.5 14.5 147.0 9.6 148.1 9.6 C 149.2 9.6 149.7 26.4 150.8 26.4 C 151.9 26.4 152.4 15.4 153.5 15.4 C 154.6 15.4 155.1 29.9 156.2 29.9 C 157.2 29.9 157.8 15.6 158.9 13.6 C 159.9 11.6 160.5 11.6 161.6 11.6 C 162.6 11.6 163.2 16.1 164.3 16.1 C 165.3 16.1 165.9 11.0 166.9 11.0 C 168.0 11.0 168.6 20.9 169.6 20.9 C 170.7 20.9 171.3 6.1 172.3 6.1 C 173.4 6.1 173.9 23.8 175.0 27.2 C 176.1 30.6 176.6 30.6 177.7 30.6 C 178.8 30.6 179.3 9.8 180.4 9.8 C 181.5 9.8 182.0 23.8 183.1 23.8 C 184.2 23.8 184.7 20.4 185.8 20.4 C 186.9 20.4 187.4 26.6 188.5 26.6 C 189.6 26.6 190.1 16.5 191.2 16.5 C 192.3 16.5 192.8 25.4 193.9 25.4 C 195.0 25.4 195.5 23.7 196.6 23.7 C 197.7 23.7 198.2 27.6 199.3 27.6 C 200.3 27.6 200.9 24.2 202.0 24.1 C 203.0 24.0 203.6 24.1 204.7 24.0 C 205.7 23.9 206.3 21.3 207.3 20.1 C 208.4 18.9 209.0 18.2 210.0 18.2 C 211.1 18.2 211.7 26.5 212.7 26.5 C 213.8 26.5 214.4 13.8 215.4 13.8 C 216.5 13.8 217.0 14.9 218.1 16.7 C 219.2 18.4 219.7 21.1 220.8 22.7 C 221.9 24.2 222.4 24.6 223.5 24.6 C 224.6 24.6 225.1 21.7 226.2 21.7 C 227.3 21.7 227.8 32.4 228.9 32.4 C 230.0 32.4 230.5 23.2 231.6 23.2 C 232.7 23.2 233.2 23.7 234.3 23.7 C 235.4 23.7 235.9 4.2 237.0 4.2 C 238.1 4.2 238.6 20.6 239.7 20.6 C 240.7 20.6 241.3 10.0 242.4 10.0 C 243.4 10.0 244.0 20.8 245.1 21.2 C 246.1 21.7 246.7 21.7 247.7 21.7 C 248.8 21.7 249.4 17.9 250.4 17.6 C 251.5 17.3 252.1 17.3 253.1 17.3 C 254.2 17.3 254.8 19.7 255.8 20.5 C 256.9 21.2 257.4 20.8 258.5 21.2 C 259.6 21.7 260.1 22.8 261.2 22.8 C 262.3 22.8 262.8 18.6 263.9 18.6 C 265.0 18.6 265.5 24.5 266.6 25.2 C 267.7 26.0 268.2 26.0 269.3 26.0 C 270.4 26.0 270.9 17.2 272.0 12.9 C 273.1 8.5 273.6 4.2 274.7 4.2 C 275.8 4.2 276.3 20.8 277.4 20.8 C 278.5 20.8 279.0 11.7 280.1 11.7 C 281.1 11.7 281.7 26.6 282.8 26.6 C 283.8 26.6 284.4 25.7 285.5 24.8 C 286.5 24.0 287.1 24.7 288.2 22.5 C 289.2 20.2 289.8 13.7 290.8 13.7 C 291.9 13.7 292.5 19.1 293.5 19.1 C 294.6 19.1 295.2 9.1 296.2 9.1 C 297.3 9.1 297.8 24.2 298.9 25.8 C 300.0 27.4 300.5 27.4 301.6 27.4 C 302.7 27.4 303.2 3.6 304.3 3.6 C 305.4 3.6 305.9 16.3 307.0 17.1 C 308.1 17.8 308.6 17.1 309.7 17.8 C 310.8 18.6 311.3 25.2 312.4 25.2 C 313.5 25.2 314.0 23.5 315.1 22.5 C 316.2 21.5 316.7 22.5 317.8 20.2 C 318.9 17.9 319.4 10.9 320.5 10.9 C 321.5 10.9 322.1 16.2 323.2 20.1 C 324.2 24.0 324.8 30.5 325.9 30.5 C 326.9 30.5 327.5 17.1 328.6 17.1 C 329.6 17.1 330.2 25.3 331.2 25.3 C 332.3 25.3 332.9 23.6 333.9 22.6 C 335.0 21.6 335.6 20.3 336.6 20.3 C 337.7 20.3 338.2 22.2 339.3 22.2 C 340.4 22.2 340.9 13.6 342.0 13.6 C 343.1 13.6 343.6 16.3 344.7 20.1 C 345.8 23.9 346.3 30.3 347.4 32.4 C 348.5 34.5 349.0 34.5 350.1 34.5 C 351.2 34.5 351.7 30.4 352.8 25.2 C 353.9 20.1 354.4 8.8 355.5 8.8 C 356.6 8.8 357.1 18.3 358.2 21.8 C 359.3 25.3 359.8 26.0 360.9 26.5 C 362.0 26.9 362.5 26.9 363.6 26.9 C 364.6 26.9 365.2 14.9 366.3 14.9 C 367.3 14.9 367.9 28.6 369.0 28.6 C 370.0 28.6 370.6 22.0 371.6 21.8 C 372.7 21.6 373.3 21.6 374.3 21.6 C 375.4 21.6 376.0 22.8 377.0 22.9 C 378.1 23.1 378.7 22.9 379.7 23.1 C 380.8 23.3 381.3 25.9 382.4 25.9 C 383.5 25.9 384.0 19.2 385.1 17.6 C 386.2 16.0 386.7 16.0 387.8 16.0 C 388.9 16.0 389.4 17.7 390.5 17.7 C 391.6 17.7 392.1 16.3 393.2 15.4 C 394.3 14.6 394.8 13.3 395.9 13.3 C 397.0 13.3 397.5 13.6 398.6 13.6 C 399.7 13.6 400.2 7.8 401.3 7.8 C 402.4 7.8 402.9 18.0 404.0 21.8 C 405.0 25.6 405.6 26.9 406.7 26.9 C 407.7 26.9 408.3 26.3 409.4 25.6 C 410.4 24.9 411.0 25.6 412.1 23.6 C 413.1 21.6 413.7 11.2 414.7 10.9 C 415.8 10.6 416.4 10.6 417.4 10.6 C 418.5 10.6 419.1 18.3 420.1 20.1 C 421.2 21.9 421.7 21.9 422.8 21.9 C 423.9 21.9 424.4 18.6 425.5 17.4 C 426.6 16.3 427.1 16.2 428.2 16.2 C 429.3 16.2 429.8 29.4 430.9 29.4 C 432.0 29.4 432.5 18.1 433.6 18.1 C 434.7 18.1 435.2 20.3 436.3 20.3 C 437.4 20.3 437.9 14.8 439.0 13.0 C 440.1 11.1 440.6 11.0 441.7 11.0 C 442.8 11.0 443.3 15.9 444.4 20.0 C 445.4 24.1 446.0 31.5 447.1 31.5 C 448.1 31.5 448.7 24.6 449.8 24.6 C 450.8 24.6 451.4 35.3 452.5 35.3 C 453.5 35.3 454.1 22.7 455.1 20.6 C 456.2 18.5 456.8 19.0 457.8 18.5 C 458.9 17.9 459.5 17.9 460.5 17.9 C 461.6 17.9 462.1 30.5 463.2 30.5 C 464.3 30.5 464.8 28.3 465.9 24.2 C 467.0 20.1 467.5 10.0 468.6 10.0 C 469.7 10.0 470.2 27.5 471.3 27.5 C 472.4 27.5 472.9 24.9 474.0 24.9 C 475.1 24.9 475.6 30.7 476.7 30.7 C 477.8 30.7 478.3 26.0 479.4 23.7 C 480.5 21.4 481.0 21.9 482.1 19.2 C 483.2 16.5 483.7 10.2 484.8 10.2 C 485.9 10.2 486.4 14.5 487.5 14.5 C 488.5 14.5 489.1 12.4 490.2 12.4 C 491.2 12.4 491.8 19.1 492.9 19.1 C 493.9 19.1 494.5 17.5 495.5 17.4 C 496.6 17.3 497.2 17.4 498.2 17.3 C 499.3 17.2 499.9 15.0 500.9 15.0 C 502.0 15.0 502.6 23.0 503.6 23.0 C 504.7 23.0 505.2 23.0 506.3 22.1 C 507.4 21.1 507.9 17.1 509.0 17.1 C 510.1 17.1 510.6 19.6 511.7 20.4 C 512.8 21.1 513.3 21.1 514.4 21.1 C 515.5 21.1 516.0 10.0 517.1 10.0 C 518.2 10.0 518.7 10.2 519.8 10.2 C 520.9 10.2 521.4 8.7 522.5 8.7 C 523.6 8.7 524.1 13.9 525.2 14.5 C 526.3 15.1 526.8 15.1 527.9 15.1 C 528.9 15.1 529.5 7.0 530.6 7.0 C 531.6 7.0 532.2 30.8 533.3 31.7 C 534.3 32.5 536 32.5 536 32.5" stroke="#4572A7" stroke-width="1" stroke-linejoin="round" stroke-linecap="round">
			</path>
		</g>
		<g class="highcharts-markers highcharts-series-1" transform="translate(24,331) scale(1 1)" clip-path="none">
		</g>
	</g>
	<g class="highcharts-navigator">
		<rect fill="rgb(128,179,236)" fill-opacity="0.3" style="cursor:ew-resize;" x="529" y="331" width="31" height="40">
		</rect>
		<path fill="none" stroke="#b2b1b6" stroke-width="1" d="M 10 331.5 L 528.5 331.5 528.5 385.5 L 559.5 385.5 L 559.5 331.5 574 331.5 M 529.5 331.5 L 559.5 331.5">
		</path>
	</g>
	<text x="292" text-anchor="middle" class="highcharts-title" style="color:#333333;font-size:16px;fill:#333333;width:520px;" y="22">
		<tspan>Live random data
		</tspan>
	</text>
	<g class="highcharts-axis-labels highcharts-xaxis-labels">
		<text x="58.6" style="color:#606060;cursor:default;font-size:11px;fill:#606060;width:103px;text-overflow:clip;" text-anchor="middle" transform="translate(0,0)" y="304" opacity="1">15:06:40
		</text>
		<text x="152.6" style="color:#606060;cursor:default;font-size:11px;fill:#606060;width:103px;text-overflow:clip;" text-anchor="middle" transform="translate(0,0)" y="304" opacity="1">15:06:50
		</text>
		<text x="246.6" style="color:#606060;cursor:default;font-size:11px;fill:#606060;width:103px;text-overflow:clip;" text-anchor="middle" transform="translate(0,0)" y="304" opacity="1">15:07:00
		</text>
		<text x="340.6" style="color:#606060;cursor:default;font-size:11px;fill:#606060;width:103px;text-overflow:clip;" text-anchor="middle" transform="translate(0,0)" y="304" opacity="1">15:07:10
		</text>
		<text x="434.6" style="color:#606060;cursor:default;font-size:11px;fill:#606060;width:103px;text-overflow:clip;" text-anchor="middle" transform="translate(0,0)" y="304" opacity="1">15:07:20
		</text>
		<text x="528.6" style="color:#606060;cursor:default;font-size:11px;fill:#606060;width:103px;text-overflow:clip;" text-anchor="middle" transform="translate(0,0)" y="304" opacity="1">15:07:30
		</text>
	</g>
	<g class="highcharts-axis-labels highcharts-xaxis-labels">
		<text x="158.0" style="color:#888;cursor:default;font-size:11px;fill:#888;width:272px;text-overflow:clip;" text-anchor="start" transform="translate(0,0)" y="367" opacity="1">14:55
		</text>
		<text x="319.6" style="color:#888;cursor:default;font-size:11px;fill:#888;width:272px;text-overflow:clip;" text-anchor="start" transform="translate(0,0)" y="367" opacity="1">15:00
		</text>
		<text x="481.2" style="color:#888;cursor:default;font-size:11px;fill:#888;width:272px;text-overflow:clip;" text-anchor="start" transform="translate(0,0)" y="367" opacity="1">15:05
		</text>
	</g>
	<g class="highcharts-axis-labels highcharts-yaxis-labels">
		<text x="574" style="color:#606060;cursor:default;font-size:11px;fill:#606060;width:183px;text-overflow:clip;" text-anchor="end" transform="translate(0,0)" y="283" opacity="1">0
		</text>
		<text x="574" style="color:#606060;cursor:default;font-size:11px;fill:#606060;width:183px;text-overflow:clip;" text-anchor="end" transform="translate(0,0)" y="242" opacity="1">25
		</text>
		<text x="574" style="color:#606060;cursor:default;font-size:11px;fill:#606060;width:183px;text-overflow:clip;" text-anchor="end" transform="translate(0,0)" y="201" opacity="1">50
		</text>
		<text x="574" style="color:#606060;cursor:default;font-size:11px;fill:#606060;width:183px;text-overflow:clip;" text-anchor="end" transform="translate(0,0)" y="159" opacity="1">75
		</text>
		<text x="574" style="color:#606060;cursor:default;font-size:11px;fill:#606060;width:183px;text-overflow:clip;" text-anchor="end" transform="translate(0,0)" y="118" opacity="1">100
		</text>
		<text x="0" style="color:#606060;cursor:default;font-size:11px;fill:#606060;width:183px;text-overflow:clip;" text-anchor="end" transform="translate(0,0)" y="-9999">125
		</text>
	</g>
	<g class="highcharts-axis-labels highcharts-yaxis-labels">
	</g>
	<g class="highcharts-tooltip" style="cursor:default;padding:0;pointer-events:none;white-space:nowrap;" transform="translate(0,-9999)">
		<path fill="none" d="M 3.5 0.5 L 13.5 0.5 C 16.5 0.5 16.5 0.5 16.5 3.5 L 16.5 13.5 C 16.5 16.5 16.5 16.5 13.5 16.5 L 3.5 16.5 C 0.5 16.5 0.5 16.5 0.5 13.5 L 0.5 3.5 C 0.5 0.5 0.5 0.5 3.5 0.5"  stroke="black" stroke-opacity="0.0" stroke-width="5" transform="translate(1, 1)">
		</path>
		<path fill="none" d="M 3.5 0.5 L 13.5 0.5 C 16.5 0.5 16.5 0.5 16.5 3.5 L 16.5 13.5 C 16.5 16.5 16.5 16.5 13.5 16.5 L 3.5 16.5 C 0.5 16.5 0.5 16.5 0.5 13.5 L 0.5 3.5 C 0.5 0.5 0.5 0.5 3.5 0.5"  stroke="black" stroke-opacity="0.0" stroke-width="3" transform="translate(1, 1)">
		</path>
		<path fill="none" d="M 3.5 0.5 L 13.5 0.5 C 16.5 0.5 16.5 0.5 16.5 3.5 L 16.5 13.5 C 16.5 16.5 16.5 16.5 13.5 16.5 L 3.5 16.5 C 0.5 16.5 0.5 16.5 0.5 13.5 L 0.5 3.5 C 0.5 0.5 0.5 0.5 3.5 0.5"  stroke="black" stroke-opacity="0.1" stroke-width="1" transform="translate(1, 1)">
		</path>
		<path fill="rgb(249, 249, 249)" fill-opacity=" .85" d="M 3.5 0.5 L 13.5 0.5 C 16.5 0.5 16.5 0.5 16.5 3.5 L 16.5 13.5 C 16.5 16.5 16.5 16.5 13.5 16.5 L 3.5 16.5 C 0.5 16.5 0.5 16.5 0.5 13.5 L 0.5 3.5 C 0.5 0.5 0.5 0.5 3.5 0.5">
		</path>
		<text x="8" style="font-size:12px;color:#333333;fill:#333333;" y="20">
		</text>
	</g>
	<g class="highcharts-navigator-handle-right" style="cursor:ew-resize;" transform="translate(560,343)">
		<rect x="-4.5" y="0.5" width="8" height="15" fill="#ebe7e8" stroke="#b2b1b6" stroke-width="1">
		</rect>
		<path fill="#ebe7e8" d="M -1.5 4 L -1.5 12 M 0.5 4 L 0.5 12" stroke="#b2b1b6" stroke-width="1">
		</path>
	</g>
	<g class="highcharts-navigator-handle-left" style="cursor:ew-resize;" transform="translate(529,343)">
		<rect x="-4.5" y="0.5" width="8" height="15" fill="#ebe7e8" stroke="#b2b1b6" stroke-width="1">
		</rect>
		<path fill="#ebe7e8" d="M -1.5 4 L -1.5 12 M 0.5 4 L 0.5 12" stroke="#b2b1b6" stroke-width="1">
		</path>
	</g>
</svg>