
<svg version="1.1" style="font-family:&quot;lucida grande&quot;, &quot;lucida sans unicode&quot;, arial, helvetica, sans-serif;font-size:12px;" xmlns="http://www.w3.org/2000/svg" viewBox="0 0 584 400">
	<desc>Created with Highstock 4.2.4
	</desc>
	<defs>
		<clipPath id="highcharts-1">
			<rect x="0" y="0" width="540" height="192">
			</rect>
		</clipPath>
		<clipPath id="highcharts-2">
			<rect x="0" y="0" width="540" height="192">
			</rect>
		</clipPath>
		<clipPath id="highcharts-3">
			<rect x="0" y="0" width="512" height="40">
			</rect>
		</clipPath>
	</defs>
	<rect x="0" y="0" width="584" height="400" fill="#FFFFFF" class=" highcharts-background">
	</rect>
	<g class="highcharts-scrollbar" transform="translate(10,372)">
		<rect x="0" y="-0.5" fill="#eeeeee" stroke="#eeeeee" stroke-width="1" rx="0" ry="0" height="14" width="540">
		</rect>
		<rect y="-0.5" height="14" fill="#bfc8d1" stroke="#bfc8d1" stroke-width="1" rx="0" ry="0" x="486.5" width="39">
		</rect>
		<path fill="none" stroke="#666" stroke-width="1" visibility="visible" d="M 502.5 3.5 L 502.5 9.3 M 505.5 3.5 L 505.5 9.3 M 508.5 3.5 L 508.5 9.3">
		</path>
		<g>
			<rect x="-0.5" y="-0.5" width="14" height="14" stroke="#bbb" stroke-width="1" fill="#ebe7e8">
			</rect>
			<path fill="#666" d="M 8 4 L 8 10 5 7">
			</path>
		</g>
		<g transform="translate(526,0)">
			<rect x="-0.5" y="-0.5" width="14" height="14" stroke="#bbb" stroke-width="1" fill="#ebe7e8">
			</rect>
			<path fill="#666" d="M 6 4 L 6 10 9 7">
			</path>
		</g>
	</g>
	<g class="highcharts-range-selector-buttons" transform="translate(0,58)">
		<text x="10" y="15" style="color:#666;fill:#666;">Zoom
		</text>
		<g class="highcharts-button" states="[object Object]" style="cursor:pointer;text-align:center;" transform="translate(48,0)">
			<rect x="0" y="0" width="32" height="22" fill="#f7f7f7" rx="0" ry="0">
			</rect>
			<text x="8.4" style="font-weight:normal;color:#444;fill:#444;" y="14">3d
			</text>
		</g>
		<g class="highcharts-button" states="[object Object]" style="cursor:pointer;text-align:center;" transform="translate(85,0)">
			<rect x="0" y="0" width="32" height="22" fill="#f7f7f7" rx="0" ry="0">
			</rect>
			<text x="7.5" style="font-weight:normal;color:#444;fill:#444;" y="14">1w
			</text>
		</g>
		<g class="highcharts-button" states="[object Object]" style="cursor:pointer;text-align:center;" transform="translate(122,0)">
			<rect x="0" y="0" width="32" height="22" fill="#f7f7f7" rx="0" ry="0">
			</rect>
			<text x="6.6" style="font-weight:normal;color:#444;fill:#444;" y="14">1m
			</text>
		</g>
		<g class="highcharts-button" states="[object Object]" style="cursor:pointer;text-align:center;" transform="translate(159,0)">
			<rect x="0" y="0" width="32" height="22" fill="#e7f0f9" rx="0" ry="0">
			</rect>
			<text x="6.6" style="font-weight:bold;color:black;fill:black;" y="14">6m
			</text>
		</g>
		<g class="highcharts-button" states="[object Object]" style="cursor:pointer;text-align:center;" transform="translate(196,0)">
			<rect x="0" y="0" width="32" height="22" fill="#f7f7f7" rx="0" ry="0">
			</rect>
			<text x="9.0" style="font-weight:normal;color:#444;fill:#444;" y="14">1y
			</text>
		</g>
		<g class="highcharts-button" states="[object Object]" style="cursor:pointer;text-align:center;" transform="translate(233,0)">
			<rect x="0" y="0" width="32" height="22" fill="#f7f7f7" rx="0" ry="0">
			</rect>
			<text x="8.3" style="font-weight:normal;color:#444;fill:#444;" y="14">All
			</text>
		</g>
	</g>
	<g class="highcharts-input-group" transform="translate(313,58)" visibility="visible">
		<g style="fill:#666;" transform="translate(0,0)">
			<text x="2" style="font-size:12px;font-family:&quot;lucida grande&quot;, &quot;lucida sans unicode&quot;, arial, helvetica, sans-serif;color:#666;fill:#666;" y="14">From
			</text>
		</g>
		<g style="text-align:center;" transform="translate(39,0)">
			<rect x="0.5" y="0.5" width="94" height="21" fill="none" stroke="silver" stroke-width="1">
			</rect>
			<text x="7.6" style="font-size:12px;font-family:&quot;lucida grande&quot;, &quot;lucida sans unicode&quot;, arial, helvetica, sans-serif;color:#444;fill:#444;" y="14">
				<tspan>Dec 30, 2014
				</tspan>
			</text>
		</g>
		<g style="fill:#666;" transform="translate(143,0)">
			<text x="2" style="font-size:12px;font-family:&quot;lucida grande&quot;, &quot;lucida sans unicode&quot;, arial, helvetica, sans-serif;color:#666;fill:#666;" y="14">To
			</text>
		</g>
		<g style="text-align:center;" transform="translate(167,0)">
			<rect x="0.5" y="0.5" width="94" height="21" fill="none" stroke="silver" stroke-width="1">
			</rect>
			<text x="9.2" style="font-size:12px;font-family:&quot;lucida grande&quot;, &quot;lucida sans unicode&quot;, arial, helvetica, sans-serif;color:#444;fill:#444;" y="14">
				<tspan>Jun 30, 2015
				</tspan>
			</text>
		</g>
	</g>
	<g class="highcharts-grid">
	</g>
	<g class="highcharts-grid">
		<path fill="none" d="M 101.5 331 L 101.5 371" stroke="#EEE" stroke-width="1" opacity="1">
		</path>
		<path fill="none" d="M 259.5 331 L 259.5 371" stroke="#EEE" stroke-width="1" opacity="1">
		</path>
		<path fill="none" d="M 417.5 331 L 417.5 371" stroke="#EEE" stroke-width="1" opacity="1">
		</path>
	</g>
	<g class="highcharts-grid">
		<path fill="none" d="M 10 285.5 L 550 285.5" stroke="#D8D8D8" stroke-width="1" opacity="1">
		</path>
		<path fill="none" d="M 10 237.5 L 550 237.5" stroke="#D8D8D8" stroke-width="1" opacity="1">
		</path>
		<path fill="none" d="M 10 189.5 L 550 189.5" stroke="#D8D8D8" stroke-width="1" opacity="1">
		</path>
		<path fill="none" d="M 10 141.5 L 550 141.5" stroke="#D8D8D8" stroke-width="1" opacity="1">
		</path>
		<path fill="none" d="M 10 92.5 L 550 92.5" stroke="#D8D8D8" stroke-width="1" opacity="1">
		</path>
	</g>
	<g class="highcharts-grid">
	</g>
	<g class="highcharts-axis">
		<path fill="none" d="M 14.5 285 L 14.5 295" stroke="#C0D0E0" stroke-width="1" opacity="1">
		</path>
		<path fill="none" d="M 106.5 285 L 106.5 295" stroke="#C0D0E0" stroke-width="1" opacity="1">
		</path>
		<path fill="none" d="M 190.5 285 L 190.5 295" stroke="#C0D0E0" stroke-width="1" opacity="1">
		</path>
		<path fill="none" d="M 282.5 285 L 282.5 295" stroke="#C0D0E0" stroke-width="1" opacity="1">
		</path>
		<path fill="none" d="M 371.5 285 L 371.5 295" stroke="#C0D0E0" stroke-width="1" opacity="1">
		</path>
		<path fill="none" d="M 463.5 285 L 463.5 295" stroke="#C0D0E0" stroke-width="1" opacity="1">
		</path>
		<path fill="none" d="M 10 285.5 L 550 285.5" stroke="#C0D0E0" stroke-width="1">
		</path>
	</g>
	<g class="highcharts-axis">
	</g>
	<g class="highcharts-axis">
		<text x="560" text-anchor="middle" transform="translate(0,0) rotate(90 560 189)" class=" highcharts-yaxis-title" style="color:#707070;fill:#707070;" y="189">
			<tspan>Temperature (°C)
			</tspan>
		</text>
	</g>
	<g class="highcharts-axis">
	</g>
	<g class="highcharts-series-group">
		<g class="highcharts-series highcharts-series-0" transform="translate(10,93) scale(1 1)" clip-path="url(#highcharts-2)">
			<path fill="none" d="M -0.4 136.6 L 0.9 135.9 L 2.4 132.5 L 3.9 133.6 L 5.4 123.6 L 6.9 128.3 L 8.4 130.4 L 9.8 132 L 11.3 132.6 L 12.8 135.8 L 14.3 139.7 L 15.8 143.4 L 17.3 138.8 L 18.7 138.2 L 20.2 135.5 L 21.7 129.6 L 23.2 137.7 L 24.7 132.8 L 26.2 127.3 L 27.6 137.2 L 29.1 148.3 L 30.6 148.4 L 32.1 140.5 L 33.6 128 L 35.1 132.2 L 36.6 141.6 L 38.0 132.1 L 39.5 127.6 L 41.0 131.1 L 42.5 137.8 L 44.0 133.1 L 45.5 131.2 L 46.9 127.8 L 48.4 132.0 L 49.9 129.3 L 51.4 122.8 L 52.9 131.5 L 54.4 133.8 L 55.8 135.8 L 57.3 154.6 L 58.8 168.1 L 60.3 171.9 L 61.8 162.8 L 63.3 155.6 L 64.7 155.4 L 66.2 171.9 L 67.7 179.5 L 69.2 175.3 L 70.7 160.1 L 72.2 146.9 L 73.6 138.6 L 75.1 143.4 L 76.6 141.8 L 78.1 137.0 L 79.6 134 L 81.1 139.9 L 82.6 136.4 L 84.0 130.5 L 85.5 132.3 L 87.0 138.3 L 88.5 141.9 L 90.0 140.6 L 91.5 140 L 92.9 143.2 L 94.4 154.3 L 95.9 178.9 L 97.4 178.3 L 98.9 172.8 L 100.4 154.7 L 101.8 148.2 L 103.3 149.5 L 104.8 158.6 L 106.3 160.7 L 107.8 170.9 L 109.3 156.8 L 110.7 151.6 L 112.2 145.3 L 113.7 132.6 L 115.2 131.4 L 116.7 141.8 L 118.2 136.2 L 119.6 124.3 L 121.1 128.8 L 122.6 126.1 L 124.1 119.6 L 125.6 110.8 L 127.1 115.4 L 128.6 115.8 L 130.0 120.2 L 131.5 135.1 L 133.0 128.8 L 134.5 135.5 L 136.0 134.8 L 137.5 146.7 L 138.9 132.0 L 140.4 143.0 L 141.9 131.5 L 143.4 133.8 L 144.9 126.8 L 146.4 121.4 L 147.8 119.7 L 149.3 112.4 L 150.8 104.9 L 152.3 125.0 L 153.8 119.9 L 155.3 131.8 L 156.7 123.8 L 158.2 135.6 L 159.7 132.9 L 161.2 132.2 L 162.7 127.5 L 164.2 133.7 L 165.6 122.9 L 167.1 136.2 L 168.6 123.8 L 170.1 125.6 L 171.6 127.9 L 173.1 134.8 L 174.6 118.6 L 176.0 118.5 L 177.5 114.6 L 179.0 125.3 L 180.5 105.8 L 182.0 123.5 L 183.5 126.7 L 184.9 143.2 L 186.4 138.5 L 187.9 146.7 L 189.4 133.4 L 190.9 135.2 L 192.4 133.5 L 193.8 129.8 L 195.3 116.0 L 196.8 113.9 L 198.3 105.7 L 199.8 98.3 L 201.3 111.7 L 202.7 126.2 L 204.2 114.8 L 205.7 118.3 L 207.2 112.7 L 208.7 123 L 210.2 123.4 L 211.6 127.6 L 213.1 118.7 L 214.6 134.5 L 216.1 116.0 L 217.6 147.0 L 219.1 126.2 L 220.5 150.8 L 222.0 123.6 L 223.5 137.3 L 225.0 109.6 L 226.5 127.6 L 228.0 107.3 L 229.5 121.6 L 230.9 109.5 L 232.4 118.4 L 233.9 111.7 L 235.4 123.8 L 236.9 127.9 L 238.4 133.0 L 239.8 128.2 L 241.3 136.3 L 242.8 122.5 L 244.3 132.4 L 245.8 110.8 L 247.3 134.1 L 248.7 118.7 L 250.2 147.6 L 251.7 120.4 L 253.2 137.9 L 254.7 130.9 L 256.2 139.6 L 257.6 121.9 L 259.1 132.5 L 260.6 116.2 L 262.1 123.8 L 263.6 114.6 L 265.1 132.5 L 266.5 118.4 L 268.0 136.6 L 269.5 123.0 L 271.0 133.0 L 272.5 132.4 L 274.0 140.8 L 275.5 124.6 L 276.9 126.3 L 278.4 119.8 L 279.9 150.7 L 281.4 124.4 L 282.9 143.4 L 284.4 135.7 L 285.8 134.5 L 287.3 115.3 L 288.8 112.1 L 290.3 104.1 L 291.8 112.4 L 293.3 104.2 L 294.7 109.6 L 296.2 97.5 L 297.7 103.1 L 299.2 91.6 L 300.7 122.3 L 302.2 102.4 L 303.6 126.9 L 305.1 121.7 L 306.6 133.0 L 308.1 125 L 309.6 137.3 L 311.1 130.0 L 312.5 119.6 L 314.0 117.5 L 315.5 122.7 L 317.0 115.3 L 318.5 133.3 L 320.0 104.1 L 321.5 136.7 L 322.9 103.2 L 324.4 126.4 L 325.9 92.6 L 327.4 125.2 L 328.9 84.5 L 330.4 120.3 L 331.8 104.5 L 333.3 120.3 L 334.8 101.6 L 336.3 106.6 L 337.8 111.9 L 339.3 131.2 L 340.7 122.9 L 342.2 140.0 L 343.7 129.0 L 345.2 122.9 L 346.7 114.7 L 348.2 126.4 L 349.6 103.9 L 351.1 138.8 L 352.6 102.6 L 354.1 134.0 L 355.6 110.4 L 357.1 135.5 L 358.5 114.8 L 360.0 125.1 L 361.5 102.5 L 363.0 139.4 L 364.5 103.8 L 366.0 141.8 L 367.5 98.7 L 368.9 113.4 L 370.4 92.1 L 371.9 114.4 L 373.4 87.8 L 374.9 97.8 L 376.4 79.0 L 377.8 96.7 M 380.8 112.5 L 382.3 110.0 L 383.8 126.9 L 385.3 96.4 L 386.7 121.8 L 388.2 94.5 L 389.7 111.1 L 391.2 109.4 L 392.7 109 L 394.2 93.5 L 395.6 110.4 L 397.1 89.8 L 398.6 116.4 L 400.1 88.4 L 401.6 131.8 L 403.1 86.7 L 404.5 116.0 L 406.0 111.7 L 407.5 122.2 L 409.0 98.6 L 410.5 120.3 L 412.0 85.9 L 413.5 101.4 L 414.9 83.9 L 416.4 110.2 L 417.9 93.9 L 419.4 115.9 L 420.9 92.8 L 422.4 99.6 L 423.8 106.7 L 425.3 115.1 L 426.8 104.6 L 428.3 127.3 L 429.8 115.3 L 431.3 114.7 L 432.7 95.2 L 434.2 111.5 L 435.7 94.9 L 437.2 110.8 L 438.7 94.7 L 440.2 109.4 L 441.6 90.8 L 443.1 112.6 L 444.6 94 L 446.1 117.1 L 447.6 100.9 L 449.1 109 L 450.5 103.8 L 452.0 109.5 L 453.5 104.2 L 455.0 117.9 L 456.5 98.0 L 458.0 112.3 L 459.5 101.6 L 460.9 109.4 L 462.4 95.4 L 463.9 108.5 L 465.4 80.2 L 466.9 96.4 L 468.4 79.8 L 469.8 106.7 L 471.3 104.9 L 472.8 108.4 L 474.3 86.6 L 475.8 113.8 L 477.3 86.4 L 478.7 96.1 L 480.2 84.9 L 481.7 96.4 L 483.2 80.5 L 484.7 90.4 L 486.2 75.2 L 487.6 93.9 L 489.1 80.4 L 490.6 100.8 L 492.1 99.8 L 493.6 112.4 L 495.1 96.0 L 496.5 108.0 L 498.0 76.3 L 499.5 107.2 L 501.0 101.2 L 502.5 102.3 L 504.0 82.6 L 505.5 95.6 L 506.9 68.2 L 508.4 105.3 L 509.9 62.8 L 511.4 105.6 L 512.9 62.4 L 514.4 84.9 L 515.8 45.5 L 517.3 89.7 L 518.8 51.9 L 520.3 81.5 L 521.8 85.6 L 523.3 100.8 L 524.7 90.4 L 526.2 100.7 L 527.7 64.5 L 529.2 99.7 L 530.7 53.0 L 532.2 87.5 L 533.6 63.3 L 535.1 86.7 L 536.6 78.6 L 538.1 88.3 L 539.6 75.7" stroke="#7cb5ec" stroke-width="2" stroke-linejoin="round" stroke-linecap="round">
			</path>
			<path fill="none" d="M -10.4 136.6 L -0.4 136.6 L 0.9 135.9 L 2.4 132.5 L 3.9 133.6 L 5.4 123.6 L 6.9 128.3 L 8.4 130.4 L 9.8 132 L 11.3 132.6 L 12.8 135.8 L 14.3 139.7 L 15.8 143.4 L 17.3 138.8 L 18.7 138.2 L 20.2 135.5 L 21.7 129.6 L 23.2 137.7 L 24.7 132.8 L 26.2 127.3 L 27.6 137.2 L 29.1 148.3 L 30.6 148.4 L 32.1 140.5 L 33.6 128 L 35.1 132.2 L 36.6 141.6 L 38.0 132.1 L 39.5 127.6 L 41.0 131.1 L 42.5 137.8 L 44.0 133.1 L 45.5 131.2 L 46.9 127.8 L 48.4 132.0 L 49.9 129.3 L 51.4 122.8 L 52.9 131.5 L 54.4 133.8 L 55.8 135.8 L 57.3 154.6 L 58.8 168.1 L 60.3 171.9 L 61.8 162.8 L 63.3 155.6 L 64.7 155.4 L 66.2 171.9 L 67.7 179.5 L 69.2 175.3 L 70.7 160.1 L 72.2 146.9 L 73.6 138.6 L 75.1 143.4 L 76.6 141.8 L 78.1 137.0 L 79.6 134 L 81.1 139.9 L 82.6 136.4 L 84.0 130.5 L 85.5 132.3 L 87.0 138.3 L 88.5 141.9 L 90.0 140.6 L 91.5 140 L 92.9 143.2 L 94.4 154.3 L 95.9 178.9 L 97.4 178.3 L 98.9 172.8 L 100.4 154.7 L 101.8 148.2 L 103.3 149.5 L 104.8 158.6 L 106.3 160.7 L 107.8 170.9 L 109.3 156.8 L 110.7 151.6 L 112.2 145.3 L 113.7 132.6 L 115.2 131.4 L 116.7 141.8 L 118.2 136.2 L 119.6 124.3 L 121.1 128.8 L 122.6 126.1 L 124.1 119.6 L 125.6 110.8 L 127.1 115.4 L 128.6 115.8 L 130.0 120.2 L 131.5 135.1 L 133.0 128.8 L 134.5 135.5 L 136.0 134.8 L 137.5 146.7 L 138.9 132.0 L 140.4 143.0 L 141.9 131.5 L 143.4 133.8 L 144.9 126.8 L 146.4 121.4 L 147.8 119.7 L 149.3 112.4 L 150.8 104.9 L 152.3 125.0 L 153.8 119.9 L 155.3 131.8 L 156.7 123.8 L 158.2 135.6 L 159.7 132.9 L 161.2 132.2 L 162.7 127.5 L 164.2 133.7 L 165.6 122.9 L 167.1 136.2 L 168.6 123.8 L 170.1 125.6 L 171.6 127.9 L 173.1 134.8 L 174.6 118.6 L 176.0 118.5 L 177.5 114.6 L 179.0 125.3 L 180.5 105.8 L 182.0 123.5 L 183.5 126.7 L 184.9 143.2 L 186.4 138.5 L 187.9 146.7 L 189.4 133.4 L 190.9 135.2 L 192.4 133.5 L 193.8 129.8 L 195.3 116.0 L 196.8 113.9 L 198.3 105.7 L 199.8 98.3 L 201.3 111.7 L 202.7 126.2 L 204.2 114.8 L 205.7 118.3 L 207.2 112.7 L 208.7 123 L 210.2 123.4 L 211.6 127.6 L 213.1 118.7 L 214.6 134.5 L 216.1 116.0 L 217.6 147.0 L 219.1 126.2 L 220.5 150.8 L 222.0 123.6 L 223.5 137.3 L 225.0 109.6 L 226.5 127.6 L 228.0 107.3 L 229.5 121.6 L 230.9 109.5 L 232.4 118.4 L 233.9 111.7 L 235.4 123.8 L 236.9 127.9 L 238.4 133.0 L 239.8 128.2 L 241.3 136.3 L 242.8 122.5 L 244.3 132.4 L 245.8 110.8 L 247.3 134.1 L 248.7 118.7 L 250.2 147.6 L 251.7 120.4 L 253.2 137.9 L 254.7 130.9 L 256.2 139.6 L 257.6 121.9 L 259.1 132.5 L 260.6 116.2 L 262.1 123.8 L 263.6 114.6 L 265.1 132.5 L 266.5 118.4 L 268.0 136.6 L 269.5 123.0 L 271.0 133.0 L 272.5 132.4 L 274.0 140.8 L 275.5 124.6 L 276.9 126.3 L 278.4 119.8 L 279.9 150.7 L 281.4 124.4 L 282.9 143.4 L 284.4 135.7 L 285.8 134.5 L 287.3 115.3 L 288.8 112.1 L 290.3 104.1 L 291.8 112.4 L 293.3 104.2 L 294.7 109.6 L 296.2 97.5 L 297.7 103.1 L 299.2 91.6 L 300.7 122.3 L 302.2 102.4 L 303.6 126.9 L 305.1 121.7 L 306.6 133.0 L 308.1 125 L 309.6 137.3 L 311.1 130.0 L 312.5 119.6 L 314.0 117.5 L 315.5 122.7 L 317.0 115.3 L 318.5 133.3 L 320.0 104.1 L 321.5 136.7 L 322.9 103.2 L 324.4 126.4 L 325.9 92.6 L 327.4 125.2 L 328.9 84.5 L 330.4 120.3 L 331.8 104.5 L 333.3 120.3 L 334.8 101.6 L 336.3 106.6 L 337.8 111.9 L 339.3 131.2 L 340.7 122.9 L 342.2 140.0 L 343.7 129.0 L 345.2 122.9 L 346.7 114.7 L 348.2 126.4 L 349.6 103.9 L 351.1 138.8 L 352.6 102.6 L 354.1 134.0 L 355.6 110.4 L 357.1 135.5 L 358.5 114.8 L 360.0 125.1 L 361.5 102.5 L 363.0 139.4 L 364.5 103.8 L 366.0 141.8 L 367.5 98.7 L 368.9 113.4 L 370.4 92.1 L 371.9 114.4 L 373.4 87.8 L 374.9 97.8 L 376.4 79.0 L 377.8 96.7 L 387.8 96.7 M 370.8 112.5 L 380.8 112.5 L 382.3 110.0 L 383.8 126.9 L 385.3 96.4 L 386.7 121.8 L 388.2 94.5 L 389.7 111.1 L 391.2 109.4 L 392.7 109 L 394.2 93.5 L 395.6 110.4 L 397.1 89.8 L 398.6 116.4 L 400.1 88.4 L 401.6 131.8 L 403.1 86.7 L 404.5 116.0 L 406.0 111.7 L 407.5 122.2 L 409.0 98.6 L 410.5 120.3 L 412.0 85.9 L 413.5 101.4 L 414.9 83.9 L 416.4 110.2 L 417.9 93.9 L 419.4 115.9 L 420.9 92.8 L 422.4 99.6 L 423.8 106.7 L 425.3 115.1 L 426.8 104.6 L 428.3 127.3 L 429.8 115.3 L 431.3 114.7 L 432.7 95.2 L 434.2 111.5 L 435.7 94.9 L 437.2 110.8 L 438.7 94.7 L 440.2 109.4 L 441.6 90.8 L 443.1 112.6 L 444.6 94 L 446.1 117.1 L 447.6 100.9 L 449.1 109 L 450.5 103.8 L 452.0 109.5 L 453.5 104.2 L 455.0 117.9 L 456.5 98.0 L 458.0 112.3 L 459.5 101.6 L 460.9 109.4 L 462.4 95.4 L 463.9 108.5 L 465.4 80.2 L 466.9 96.4 L 468.4 79.8 L 469.8 106.7 L 471.3 104.9 L 472.8 108.4 L 474.3 86.6 L 475.8 113.8 L 477.3 86.4 L 478.7 96.1 L 480.2 84.9 L 481.7 96.4 L 483.2 80.5 L 484.7 90.4 L 486.2 75.2 L 487.6 93.9 L 489.1 80.4 L 490.6 100.8 L 492.1 99.8 L 493.6 112.4 L 495.1 96.0 L 496.5 108.0 L 498.0 76.3 L 499.5 107.2 L 501.0 101.2 L 502.5 102.3 L 504.0 82.6 L 505.5 95.6 L 506.9 68.2 L 508.4 105.3 L 509.9 62.8 L 511.4 105.6 L 512.9 62.4 L 514.4 84.9 L 515.8 45.5 L 517.3 89.7 L 518.8 51.9 L 520.3 81.5 L 521.8 85.6 L 523.3 100.8 L 524.7 90.4 L 526.2 100.7 L 527.7 64.5 L 529.2 99.7 L 530.7 53.0 L 532.2 87.5 L 533.6 63.3 L 535.1 86.7 L 536.6 78.6 L 538.1 88.3 L 539.6 75.7 L 549.6 75.7" stroke-linejoin="round" visibility="visible" stroke="rgb(192,192,192)" stroke-opacity="0.0" stroke-width="22" class=" highcharts-tracker" style="">
			</path>
		</g>
		<g class="highcharts-markers highcharts-series-0 highcharts-tracker" transform="translate(10,93) scale(1 1)" style="" clip-path="none">
		</g>
		<g class="highcharts-series highcharts-series-1" transform="translate(24,331) scale(1 1)" clip-path="url(#highcharts-3)">
			<path fill="#4572A7" d="M 0 26.6 C 0 26.6 0.9 24.1 1.5 23.3 C 2.1 22.5 2.4 22.5 3.0 22.5 C 3.6 22.5 3.9 22.6 4.5 23.4 C 5.1 24.2 5.4 25.7 6.0 26.6 C 6.6 27.5 6.9 28.0 7.5 28.0 C 8.1 28.0 8.4 28.0 9.0 27.8 C 9.6 27.7 9.9 22.7 10.5 22.7 C 11.1 22.7 11.4 23.3 12.0 23.3 C 12.6 23.3 12.9 21.0 13.5 21.0 C 14.1 21.0 14.4 21.0 15.1 21.2 C 15.7 21.3 16.0 21.4 16.6 21.7 C 17.2 22.1 17.5 22.8 18.1 22.8 C 18.7 22.8 19.0 21.1 19.6 20.0 C 20.2 19.0 20.5 18.0 21.1 17.5 C 21.7 17.0 22.0 17.5 22.6 17.0 C 23.2 16.5 23.5 15.7 24.1 15.0 C 24.7 14.3 25.0 13.5 25.6 13.5 C 26.2 13.5 26.5 16.8 27.1 16.8 C 27.7 16.8 28.0 14.4 28.6 13.5 C 29.3 12.6 29.6 12.4 30.2 12.4 C 30.8 12.4 31.1 13.0 31.7 13.0 C 32.3 13.0 32.6 13.0 33.2 12.9 C 33.8 12.8 34.1 12.8 34.7 12.6 C 35.3 12.5 35.6 12.6 36.2 12.2 C 36.8 11.7 37.1 8.3 37.7 6.6 C 38.3 4.8 38.6 3.3 39.2 3.3 C 39.8 3.3 40.1 7.2 40.7 7.5 C 41.3 7.7 41.6 7.5 42.2 7.7 C 42.8 8.0 43.1 9.8 43.7 10.1 C 44.4 10.4 44.7 10.4 45.3 10.4 C 45.9 10.4 46.2 7.3 46.8 7.3 C 47.4 7.3 47.7 11.5 48.3 11.5 C 48.9 11.5 49.2 10.3 49.8 10.3 C 50.4 10.3 50.7 11.4 51.3 11.8 C 51.9 12.3 52.2 12.3 52.8 12.4 C 53.4 12.6 53.7 12.4 54.3 12.7 C 54.9 13.0 55.2 14.0 55.8 14.0 C 56.4 14.0 56.7 13.5 57.3 13.5 C 57.9 13.5 58.2 17.5 58.9 19.0 C 59.5 20.4 59.8 20.3 60.4 20.8 C 61.0 21.3 61.3 21.3 61.9 21.3 C 62.5 21.3 62.8 20.0 63.4 20.0 C 64.0 20.0 64.3 21.8 64.9 22.4 C 65.5 23.1 65.8 22.7 66.4 23.3 C 67.0 24.0 67.3 25.8 67.9 25.8 C 68.5 25.8 68.8 20.0 69.4 20.0 C 70.0 20.0 70.3 20.5 70.9 21.2 C 71.5 21.8 71.8 23.3 72.4 23.4 C 73.0 23.4 73.4 23.4 74.0 23.4 C 74.6 23.5 74.9 29.1 75.5 29.7 C 76.1 30.2 76.4 29.7 77.0 30.2 C 77.6 30.7 77.9 31.1 78.5 32.4 C 79.1 33.7 79.4 36.6 80.0 36.6 C 80.6 36.6 80.9 32.4 81.5 30.7 C 82.1 29.1 82.4 28.4 83.0 28.3 C 83.6 28.1 83.9 28.1 84.5 28.1 C 85.1 28.1 85.4 30.9 86.0 30.9 C 86.6 30.9 86.9 28.8 87.5 28.8 C 88.2 28.8 88.5 29.9 89.1 29.9 C 89.7 29.9 90.0 29.7 90.6 29.2 C 91.2 28.7 91.5 29.0 92.1 27.4 C 92.7 25.9 93.0 22.1 93.6 21.5 C 94.2 20.8 94.5 20.9 95.1 20.8 C 95.7 20.8 96.0 20.8 96.6 20.8 C 97.2 20.8 97.5 20.5 98.1 20.0 C 98.7 19.4 99.0 18.2 99.6 18.2 C 100.2 18.2 100.5 18.5 101.1 19.0 C 101.7 19.5 102.0 20.7 102.7 20.7 C 103.3 20.7 103.6 18.3 104.2 18.3 C 104.8 18.3 105.1 18.3 105.7 18.3 C 106.3 18.3 106.6 17.6 107.2 16.5 C 107.8 15.3 108.1 12.4 108.7 12.4 C 109.3 12.4 109.6 14.9 110.2 14.9 C 110.8 14.9 111.1 11.9 111.7 11.9 C 112.3 11.9 112.6 11.9 113.2 11.9 C 113.8 11.9 114.1 24.7 114.7 24.7 C 115.3 24.7 115.6 24.7 116.2 24.7 C 116.8 24.7 117.8 24.7 117.8 24.7 C 117.8 24.7 117.8 40 117.8 40 C 117.8 40 129.8 40 129.8 40 C 129.8 40 129.8 24.7 129.8 24.7 C 129.8 24.7 130.7 22.7 131.3 22.7 C 132.0 22.7 132.3 24.7 132.9 24.7 C 133.5 24.7 133.8 24.7 134.4 24.7 C 135.0 24.7 135.3 24.7 135.9 24.7 C 136.5 24.7 136.8 24.7 137.4 24.7 C 138.0 24.7 138.3 24.7 138.9 24.7 C 139.5 24.7 139.8 24.7 140.4 24.7 C 141.0 24.7 141.3 24.7 141.9 24.7 C 142.5 24.7 142.8 19.7 143.4 19.7 C 144.0 19.7 144.3 20.0 144.9 21.4 C 145.5 22.8 145.8 26.1 146.5 26.6 C 147.1 27.0 147.4 26.6 148.0 27.0 C 148.6 27.4 148.9 30.5 149.5 32.1 C 150.1 33.6 150.4 34.7 151.0 34.7 C 151.6 34.7 151.9 26.8 152.5 26.8 C 153.1 26.8 153.4 28.0 154.0 29.3 C 154.6 30.6 154.9 33.3 155.5 33.3 C 156.1 33.3 156.4 29.5 157.0 27.9 C 157.6 26.3 157.9 25.5 158.5 25.5 C 159.1 25.5 159.4 25.9 160.0 25.9 C 160.6 25.9 161.0 23.5 161.6 23.5 C 162.2 23.5 162.5 25.7 163.1 25.7 C 163.7 25.7 164.0 22.1 164.6 22.1 C 165.2 22.1 165.5 26.1 166.1 27.7 C 166.7 29.4 167.0 30.2 167.6 30.2 C 168.2 30.2 168.5 29.7 169.1 28.2 C 169.7 26.7 170.0 22.8 170.6 22.8 C 171.2 22.8 171.5 23.4 172.1 23.4 C 172.7 23.4 173.0 22.7 173.6 22.2 C 174.2 21.8 174.5 21.3 175.1 21.3 C 175.8 21.3 176.1 21.4 176.7 21.4 C 177.3 21.4 177.6 18.7 178.2 18.3 C 178.8 17.8 179.1 18.3 179.7 17.8 C 180.3 17.3 180.6 14.3 181.2 14.1 C 181.8 13.8 182.1 13.8 182.7 13.8 C 183.3 13.8 183.6 14.1 184.2 14.1 C 184.8 14.1 185.1 10.8 185.7 10.8 C 186.3 10.8 186.6 13.8 187.2 15.1 C 187.8 16.4 188.1 17.2 188.7 17.2 C 189.3 17.2 190.3 15.3 190.3 15.3 C 190.3 15.3 190.3 40 190.3 40 C 190.3 40 214.4 40 214.4 40 C 214.4 40 214.4 16.0 214.4 16.0 C 214.4 16.0 215.3 12.6 215.9 12.6 C 216.5 12.6 216.8 15.8 217.4 17.2 C 218.0 18.6 218.3 19.7 218.9 19.7 C 219.6 19.7 219.9 19.3 220.5 18.9 C 221.1 18.5 221.4 18.1 222.0 17.8 C 222.6 17.4 222.9 17.1 223.5 17.1 C 224.1 17.1 224.4 20.0 225.0 21.2 C 225.6 22.4 225.9 23.1 226.5 23.1 C 227.1 23.1 227.4 19.6 228.0 19.6 C 228.6 19.6 228.9 19.6 229.5 20.4 C 230.1 21.2 230.4 25.9 231.0 25.9 C 231.6 25.9 231.9 23.9 232.5 23.6 C 233.1 23.3 233.4 23.3 234.1 23.3 C 234.7 23.3 235.0 24.1 235.6 24.2 C 236.2 24.2 236.5 24.2 237.1 24.2 C 237.7 24.2 238.0 23.1 238.6 23.1 C 239.2 23.1 239.5 24.6 240.1 25.5 C 240.7 26.3 241.0 26.3 241.6 27.3 C 242.2 28.3 242.5 30.6 243.1 30.6 C 243.7 30.6 244.0 27.3 244.6 25.7 C 245.2 24.1 245.5 23.5 246.1 22.7 C 246.7 21.9 247.0 21.8 247.6 21.7 C 248.2 21.6 248.5 21.7 249.2 21.6 C 249.8 21.5 250.1 21.4 250.7 20.9 C 251.3 20.4 251.6 19.2 252.2 19.2 C 252.8 19.2 253.1 19.3 253.7 19.4 C 254.3 19.5 254.6 19.4 255.2 19.6 C 255.8 19.8 256.1 24.3 256.7 24.3 C 257.3 24.3 257.6 21.6 258.2 20.6 C 258.8 19.7 259.1 19.9 259.7 19.5 C 260.3 19.1 260.6 18.8 261.2 18.5 C 261.8 18.2 262.1 18.3 262.7 18.1 C 263.4 17.9 263.7 17.5 264.3 17.3 C 264.9 17.1 265.2 17.3 265.8 17.0 C 266.4 16.7 266.7 9.7 267.3 9.7 C 267.9 9.7 268.2 15.8 268.8 15.8 C 269.4 15.8 269.7 14.0 270.3 13.3 C 270.9 12.6 271.2 12.6 271.8 12.3 C 272.4 11.9 272.7 11.9 273.3 11.7 C 273.9 11.4 274.2 11.5 274.8 11.0 C 275.4 10.5 275.7 9.0 276.3 9.0 C 276.9 9.0 277.2 9.3 277.8 10.0 C 278.5 10.7 278.8 12.4 279.4 12.4 C 280.0 12.4 280.3 10.7 280.9 10.7 C 281.5 10.7 281.8 11.0 282.4 11.1 C 283.0 11.2 283.3 11.2 283.9 11.2 C 284.5 11.2 284.8 9.1 285.4 9.1 C 286.0 9.1 286.3 11.1 286.9 11.8 C 287.5 12.6 287.8 12.2 288.4 12.9 C 289.0 13.5 289.3 15.0 289.9 15.0 C 290.5 15.0 290.8 14.8 291.4 14.8 C 292.0 14.8 292.3 19.1 293.0 19.1 C 293.6 19.1 293.9 17.4 294.5 17.3 C 295.1 17.2 295.4 17.2 296.0 17.2 C 296.6 17.2 296.9 21.1 297.5 21.1 C 298.1 21.1 298.4 18.8 299.0 18.8 C 299.6 18.8 299.9 20.7 300.5 21.7 C 301.1 22.6 301.4 23.7 302.0 23.7 C 302.6 23.7 302.9 23.4 303.5 22.6 C 304.1 21.8 304.4 19.7 305.0 19.7 C 305.6 19.7 305.9 19.7 306.5 20.4 C 307.1 21.1 307.5 24.6 308.1 27.3 C 308.7 29.9 309.0 33.8 309.6 33.8 C 310.2 33.8 310.5 29.0 311.1 28.9 C 311.7 28.8 312.0 28.9 312.6 28.8 C 313.2 28.6 313.5 26.4 314.1 25.0 C 314.7 23.6 315.0 21.8 315.6 21.8 C 316.2 21.8 316.5 25.5 317.1 28.1 C 317.7 30.7 318.0 34.9 318.6 34.9 C 319.2 34.9 319.5 34.5 320.1 32.2 C 320.7 30.0 321.0 23.7 321.6 23.7 C 322.3 23.7 322.6 32.3 323.2 32.3 C 323.8 32.3 324.1 29.0 324.7 28.6 C 325.3 28.2 325.6 28.6 326.2 28.2 C 326.8 27.9 327.1 24.3 327.7 24.3 C 328.3 24.3 328.6 25.2 329.2 25.7 C 329.8 26.3 330.1 26.8 330.7 27.2 C 331.3 27.6 331.6 27.7 332.2 27.7 C 332.8 27.7 333.1 27.7 333.7 27.3 C 334.3 26.9 334.6 24.9 335.2 24.0 C 335.8 23.1 336.1 23.9 336.8 22.8 C 337.4 21.6 337.7 18.1 338.3 18.1 C 338.9 18.1 339.2 19.0 339.8 19.6 C 340.4 20.1 340.7 20.8 341.3 20.8 C 341.9 20.8 342.2 17.6 342.8 16.0 C 343.4 14.5 343.7 13.1 344.3 13.1 C 344.9 13.1 345.2 13.6 345.8 13.6 C 346.4 13.6 346.7 10.8 347.3 10.8 C 347.9 10.8 348.2 13.9 348.8 13.9 C 349.4 13.9 349.7 11.3 350.3 11.2 C 350.9 11.2 351.3 11.2 351.9 11.2 C 352.5 11.2 352.8 11.1 353.4 11.1 C 354.0 11.1 354.3 11.4 354.9 11.4 C 355.5 11.4 355.8 11.2 356.4 10.9 C 357.0 10.7 357.3 10.9 357.9 10.2 C 358.5 9.5 358.8 6.8 359.4 6.8 C 360.0 6.8 360.3 8.6 360.9 9.4 C 361.5 10.2 361.8 10.4 362.4 10.9 C 363.0 11.4 363.3 12.0 363.9 12.0 C 364.5 12.0 364.8 10.8 365.4 10.8 C 366.1 10.8 366.4 12.8 367.0 12.8 C 367.6 12.8 367.9 11.0 368.5 11.0 C 369.1 11.0 369.4 11.0 370.0 11.9 C 370.6 12.8 370.9 14.2 371.5 15.6 C 372.1 17.0 372.4 18.8 373.0 18.8 C 373.6 18.8 373.9 17.3 374.5 17.3 C 375.1 17.3 375.4 17.3 376.0 17.6 C 376.6 18.0 376.9 20.2 377.5 20.2 C 378.1 20.2 378.4 18.3 379.0 18.3 C 379.6 18.3 379.9 18.7 380.6 19.4 C 381.2 20.0 381.5 21.5 382.1 21.5 C 382.7 21.5 383.0 19.1 383.6 19.1 C 384.2 19.1 384.5 23.7 385.1 23.7 C 385.7 23.7 386.0 20.6 386.6 20.6 C 387.2 20.6 387.5 24.6 388.1 24.6 C 388.7 24.6 389.0 21.5 389.6 21.0 C 390.2 20.6 390.5 20.8 391.1 20.6 C 391.7 20.4 392.0 20.0 392.6 20.0 C 393.2 20.0 393.5 20.0 394.1 20.4 C 394.7 20.7 395.1 21.3 395.7 22.6 C 396.3 24.0 396.6 27.3 397.2 27.3 C 397.8 27.3 398.1 27.3 398.7 27.0 C 399.3 26.8 399.6 25.7 400.2 24.5 C 400.8 23.4 401.1 21.9 401.7 21.3 C 402.3 20.7 402.6 20.7 403.2 20.7 C 403.8 20.7 404.1 23.1 404.7 23.1 C 405.3 23.1 405.6 20.1 406.2 19.3 C 406.8 18.5 407.1 18.5 407.7 18.5 C 408.3 18.5 408.6 20.5 409.2 21.2 C 409.9 21.9 410.2 22.1 410.8 22.1 C 411.4 22.1 411.7 19.3 412.3 19.3 C 412.9 19.3 413.2 20.5 413.8 20.5 C 414.4 20.5 414.7 18.1 415.3 18.1 C 415.9 18.1 416.2 18.4 416.8 18.4 C 417.4 18.4 417.7 14.5 418.3 14.5 C 418.9 14.5 419.2 17.9 419.8 17.9 C 420.4 17.9 420.7 16.4 421.3 15.7 C 421.9 15.1 422.2 15.3 422.8 14.6 C 423.4 14.0 423.7 12.9 424.4 12.3 C 425.0 11.6 425.3 12.1 425.9 11.4 C 426.5 10.8 426.8 9.2 427.4 9.2 C 428.0 9.2 428.3 9.8 428.9 10.4 C 429.5 10.9 429.8 12.0 430.4 12.0 C 431.0 12.0 431.3 11.4 431.9 10.9 C 432.5 10.4 432.8 10.6 433.4 9.4 C 434.0 8.3 434.3 5.0 434.9 5.0 C 435.5 5.0 435.8 7.5 436.4 7.5 C 437.0 7.5 437.3 3.9 437.9 3.9 C 438.5 3.9 438.9 8.4 439.5 8.4 C 440.1 8.4 440.4 7.9 441.0 7.9 C 441.6 7.9 441.9 9.7 442.5 10.5 C 443.1 11.4 443.4 12.3 444.0 12.3 C 444.6 12.3 444.9 12.0 445.5 11.8 C 446.1 11.5 446.4 10.9 447.0 10.9 C 447.6 10.9 447.9 11.4 448.5 12.2 C 449.1 13.0 449.4 14.3 450.0 15.0 C 450.6 15.7 450.9 15.7 451.5 15.7 C 452.1 15.7 452.4 14.4 453.0 14.4 C 453.7 14.4 454.0 14.5 454.6 15.7 C 455.2 16.8 455.5 20.1 456.1 20.1 C 456.7 20.1 457.0 16.2 457.6 16.2 C 458.2 16.2 458.5 18.0 459.1 18.9 C 459.7 19.7 460.0 20.5 460.6 20.5 C 461.2 20.5 461.5 20.1 462.1 20.1 C 462.7 20.1 463.0 23.8 463.6 23.8 C 464.2 23.8 464.5 23.4 465.1 22.9 C 465.7 22.4 466.0 21.4 466.6 21.4 C 467.2 21.4 467.5 22.2 468.2 22.7 C 468.8 23.1 469.1 22.7 469.7 23.6 C 470.3 24.6 470.6 28.1 471.2 28.1 C 471.8 28.1 472.1 22.8 472.7 22.8 C 473.3 22.8 473.6 23.3 474.2 23.3 C 474.8 23.3 475.1 22.5 475.7 22.5 C 476.3 22.5 476.6 27.5 477.2 27.5 C 477.8 27.5 478.1 25.4 478.7 25.4 C 479.3 25.4 479.6 25.4 480.2 25.4 C 480.8 25.4 481.1 22.1 481.7 21.5 C 482.3 20.9 482.6 21.0 483.3 20.9 C 483.9 20.7 484.2 20.7 484.8 20.7 C 485.4 20.7 485.7 20.9 486.3 21.0 C 486.9 21.1 487.2 21.2 487.8 21.2 C 488.4 21.2 488.7 20.3 489.3 20.3 C 489.9 20.3 490.2 20.9 490.8 21.3 C 491.4 21.7 491.7 22.2 492.3 22.2 C 492.9 22.2 493.2 18.0 493.8 18.0 C 494.4 18.0 494.7 20.0 495.3 20.0 C 495.9 20.0 496.2 19.2 496.8 19.2 C 497.5 19.2 497.8 19.6 498.4 19.6 C 499.0 19.6 499.3 16.4 499.9 16.4 C 500.5 16.4 500.8 17.3 501.4 17.3 C 502.0 17.3 502.3 16.9 502.9 16.7 C 503.5 16.6 503.8 16.7 504.4 16.6 C 505.0 16.4 505.3 16.6 505.9 16.1 C 506.5 15.7 506.8 14.8 507.4 14.3 C 508.0 13.8 508.3 14.3 508.9 13.7 C 509.5 13.1 509.8 11.4 510.4 11.4 C 511.0 11.4 511.9 12.2 511.9 12.2 L 511.9 40 C 511.9 40 511.0 40 510.4 40 C 509.8 40 509.5 40 508.9 40 C 508.3 40 508.0 40 507.4 40 C 506.8 40 506.5 40 505.9 40 C 505.3 40 505.0 40 504.4 40 C 503.8 40 503.5 40 502.9 40 C 502.3 40 502.0 40 501.4 40 C 500.8 40 500.5 40 499.9 40 C 499.3 40 499.0 40 498.4 40 C 497.8 40 497.5 40 496.8 40 C 496.2 40 495.9 40 495.3 40 C 494.7 40 494.4 40 493.8 40 C 493.2 40 492.9 40 492.3 40 C 491.7 40 491.4 40 490.8 40 C 490.2 40 489.9 40 489.3 40 C 488.7 40 488.4 40 487.8 40 C 487.2 40 486.9 40 486.3 40 C 485.7 40 485.4 40 484.8 40 C 484.2 40 483.9 40 483.3 40 C 482.6 40 482.3 40 481.7 40 C 481.1 40 480.8 40 480.2 40 C 479.6 40 479.3 40 478.7 40 C 478.1 40 477.8 40 477.2 40 C 476.6 40 476.3 40 475.7 40 C 475.1 40 474.8 40 474.2 40 C 473.6 40 473.3 40 472.7 40 C 472.1 40 471.8 40 471.2 40 C 470.6 40 470.3 40 469.7 40 C 469.1 40 468.8 40 468.2 40 C 467.5 40 467.2 40 466.6 40 C 466.0 40 465.7 40 465.1 40 C 464.5 40 464.2 40 463.6 40 C 463.0 40 462.7 40 462.1 40 C 461.5 40 461.2 40 460.6 40 C 460.0 40 459.7 40 459.1 40 C 458.5 40 458.2 40 457.6 40 C 457.0 40 456.7 40 456.1 40 C 455.5 40 455.2 40 454.6 40 C 454.0 40 453.7 40 453.0 40 C 452.4 40 452.1 40 451.5 40 C 450.9 40 450.6 40 450.0 40 C 449.4 40 449.1 40 448.5 40 C 447.9 40 447.6 40 447.0 40 C 446.4 40 446.1 40 445.5 40 C 444.9 40 444.6 40 444.0 40 C 443.4 40 443.1 40 442.5 40 C 441.9 40 441.6 40 441.0 40 C 440.4 40 440.1 40 439.5 40 C 438.9 40 438.5 40 437.9 40 C 437.3 40 437.0 40 436.4 40 C 435.8 40 435.5 40 434.9 40 C 434.3 40 434.0 40 433.4 40 C 432.8 40 432.5 40 431.9 40 C 431.3 40 431.0 40 430.4 40 C 429.8 40 429.5 40 428.9 40 C 428.3 40 428.0 40 427.4 40 C 426.8 40 426.5 40 425.9 40 C 425.3 40 425.0 40 424.4 40 C 423.7 40 423.4 40 422.8 40 C 422.2 40 421.9 40 421.3 40 C 420.7 40 420.4 40 419.8 40 C 419.2 40 418.9 40 418.3 40 C 417.7 40 417.4 40 416.8 40 C 416.2 40 415.9 40 415.3 40 C 414.7 40 414.4 40 413.8 40 C 413.2 40 412.9 40 412.3 40 C 411.7 40 411.4 40 410.8 40 C 410.2 40 409.9 40 409.2 40 C 408.6 40 408.3 40 407.7 40 C 407.1 40 406.8 40 406.2 40 C 405.6 40 405.3 40 404.7 40 C 404.1 40 403.8 40 403.2 40 C 402.6 40 402.3 40 401.7 40 C 401.1 40 400.8 40 400.2 40 C 399.6 40 399.3 40 398.7 40 C 398.1 40 397.8 40 397.2 40 C 396.6 40 396.3 40 395.7 40 C 395.1 40 394.7 40 394.1 40 C 393.5 40 393.2 40 392.6 40 C 392.0 40 391.7 40 391.1 40 C 390.5 40 390.2 40 389.6 40 C 389.0 40 388.7 40 388.1 40 C 387.5 40 387.2 40 386.6 40 C 386.0 40 385.7 40 385.1 40 C 384.5 40 384.2 40 383.6 40 C 383.0 40 382.7 40 382.1 40 C 381.5 40 381.2 40 380.6 40 C 379.9 40 379.6 40 379.0 40 C 378.4 40 378.1 40 377.5 40 C 376.9 40 376.6 40 376.0 40 C 375.4 40 375.1 40 374.5 40 C 373.9 40 373.6 40 373.0 40 C 372.4 40 372.1 40 371.5 40 C 370.9 40 370.6 40 370.0 40 C 369.4 40 369.1 40 368.5 40 C 367.9 40 367.6 40 367.0 40 C 366.4 40 366.1 40 365.4 40 C 364.8 40 364.5 40 363.9 40 C 363.3 40 363.0 40 362.4 40 C 361.8 40 361.5 40 360.9 40 C 360.3 40 360.0 40 359.4 40 C 358.8 40 358.5 40 357.9 40 C 357.3 40 357.0 40 356.4 40 C 355.8 40 355.5 40 354.9 40 C 354.3 40 354.0 40 353.4 40 C 352.8 40 352.5 40 351.9 40 C 351.3 40 350.9 40 350.3 40 C 349.7 40 349.4 40 348.8 40 C 348.2 40 347.9 40 347.3 40 C 346.7 40 346.4 40 345.8 40 C 345.2 40 344.9 40 344.3 40 C 343.7 40 343.4 40 342.8 40 C 342.2 40 341.9 40 341.3 40 C 340.7 40 340.4 40 339.8 40 C 339.2 40 338.9 40 338.3 40 C 337.7 40 337.4 40 336.8 40 C 336.1 40 335.8 40 335.2 40 C 334.6 40 334.3 40 333.7 40 C 333.1 40 332.8 40 332.2 40 C 331.6 40 331.3 40 330.7 40 C 330.1 40 329.8 40 329.2 40 C 328.6 40 328.3 40 327.7 40 C 327.1 40 326.8 40 326.2 40 C 325.6 40 325.3 40 324.7 40 C 324.1 40 323.8 40 323.2 40 C 322.6 40 322.3 40 321.6 40 C 321.0 40 320.7 40 320.1 40 C 319.5 40 319.2 40 318.6 40 C 318.0 40 317.7 40 317.1 40 C 316.5 40 316.2 40 315.6 40 C 315.0 40 314.7 40 314.1 40 C 313.5 40 313.2 40 312.6 40 C 312.0 40 311.7 40 311.1 40 C 310.5 40 310.2 40 309.6 40 C 309.0 40 308.7 40 308.1 40 C 307.5 40 307.1 40 306.5 40 C 305.9 40 305.6 40 305.0 40 C 304.4 40 304.1 40 303.5 40 C 302.9 40 302.6 40 302.0 40 C 301.4 40 301.1 40 300.5 40 C 299.9 40 299.6 40 299.0 40 C 298.4 40 298.1 40 297.5 40 C 296.9 40 296.6 40 296.0 40 C 295.4 40 295.1 40 294.5 40 C 293.9 40 293.6 40 293.0 40 C 292.3 40 292.0 40 291.4 40 C 290.8 40 290.5 40 289.9 40 C 289.3 40 289.0 40 288.4 40 C 287.8 40 287.5 40 286.9 40 C 286.3 40 286.0 40 285.4 40 C 284.8 40 284.5 40 283.9 40 C 283.3 40 283.0 40 282.4 40 C 281.8 40 281.5 40 280.9 40 C 280.3 40 280.0 40 279.4 40 C 278.8 40 278.5 40 277.8 40 C 277.2 40 276.9 40 276.3 40 C 275.7 40 275.4 40 274.8 40 C 274.2 40 273.9 40 273.3 40 C 272.7 40 272.4 40 271.8 40 C 271.2 40 270.9 40 270.3 40 C 269.7 40 269.4 40 268.8 40 C 268.2 40 267.9 40 267.3 40 C 266.7 40 266.4 40 265.8 40 C 265.2 40 264.9 40 264.3 40 C 263.7 40 263.4 40 262.7 40 C 262.1 40 261.8 40 261.2 40 C 260.6 40 260.3 40 259.7 40 C 259.1 40 258.8 40 258.2 40 C 257.6 40 257.3 40 256.7 40 C 256.1 40 255.8 40 255.2 40 C 254.6 40 254.3 40 253.7 40 C 253.1 40 252.8 40 252.2 40 C 251.6 40 251.3 40 250.7 40 C 250.1 40 249.8 40 249.2 40 C 248.5 40 248.2 40 247.6 40 C 247.0 40 246.7 40 246.1 40 C 245.5 40 245.2 40 244.6 40 C 244.0 40 243.7 40 243.1 40 C 242.5 40 242.2 40 241.6 40 C 241.0 40 240.7 40 240.1 40 C 239.5 40 239.2 40 238.6 40 C 238.0 40 237.7 40 237.1 40 C 236.5 40 236.2 40 235.6 40 C 235.0 40 234.7 40 234.1 40 C 233.4 40 233.1 40 232.5 40 C 231.9 40 231.6 40 231.0 40 C 230.4 40 230.1 40 229.5 40 C 228.9 40 228.6 40 228.0 40 C 227.4 40 227.1 40 226.5 40 C 225.9 40 225.6 40 225.0 40 C 224.4 40 224.1 40 223.5 40 C 222.9 40 222.6 40 222.0 40 C 221.4 40 221.1 40 220.5 40 C 219.9 40 219.6 40 218.9 40 C 218.3 40 218.0 40 217.4 40 C 216.8 40 216.5 40 215.9 40 C 215.3 40 215.0 40 214.4 40 C 214.4 40 214.4 40 214.4 40 C 204.8 40 199.9 40 190.3 40 C 190.3 40 190.3 40 190.3 40 C 189.6 40 189.3 40 188.7 40 C 188.1 40 187.8 40 187.2 40 C 186.6 40 186.3 40 185.7 40 C 185.1 40 184.8 40 184.2 40 C 183.6 40 183.3 40 182.7 40 C 182.1 40 181.8 40 181.2 40 C 180.6 40 180.3 40 179.7 40 C 179.1 40 178.8 40 178.2 40 C 177.6 40 177.3 40 176.7 40 C 176.1 40 175.8 40 175.1 40 C 174.5 40 174.2 40 173.6 40 C 173.0 40 172.7 40 172.1 40 C 171.5 40 171.2 40 170.6 40 C 170.0 40 169.7 40 169.1 40 C 168.5 40 168.2 40 167.6 40 C 167.0 40 166.7 40 166.1 40 C 165.5 40 165.2 40 164.6 40 C 164.0 40 163.7 40 163.1 40 C 162.5 40 162.2 40 161.6 40 C 161.0 40 160.6 40 160.0 40 C 159.4 40 159.1 40 158.5 40 C 157.9 40 157.6 40 157.0 40 C 156.4 40 156.1 40 155.5 40 C 154.9 40 154.6 40 154.0 40 C 153.4 40 153.1 40 152.5 40 C 151.9 40 151.6 40 151.0 40 C 150.4 40 150.1 40 149.5 40 C 148.9 40 148.6 40 148.0 40 C 147.4 40 147.1 40 146.5 40 C 145.8 40 145.5 40 144.9 40 C 144.3 40 144.0 40 143.4 40 C 142.8 40 142.5 40 141.9 40 C 141.3 40 141.0 40 140.4 40 C 139.8 40 139.5 40 138.9 40 C 138.3 40 138.0 40 137.4 40 C 136.8 40 136.5 40 135.9 40 C 135.3 40 135.0 40 134.4 40 C 133.8 40 133.5 40 132.9 40 C 132.3 40 132.0 40 131.3 40 C 130.7 40 130.4 40 129.8 40 C 129.8 40 129.8 40 129.8 40 C 125.0 40 122.6 40 117.8 40 C 117.8 40 117.8 40 117.8 40 C 117.2 40 116.8 40 116.2 40 C 115.6 40 115.3 40 114.7 40 C 114.1 40 113.8 40 113.2 40 C 112.6 40 112.3 40 111.7 40 C 111.1 40 110.8 40 110.2 40 C 109.6 40 109.3 40 108.7 40 C 108.1 40 107.8 40 107.2 40 C 106.6 40 106.3 40 105.7 40 C 105.1 40 104.8 40 104.2 40 C 103.6 40 103.3 40 102.7 40 C 102.0 40 101.7 40 101.1 40 C 100.5 40 100.2 40 99.6 40 C 99.0 40 98.7 40 98.1 40 C 97.5 40 97.2 40 96.6 40 C 96.0 40 95.7 40 95.1 40 C 94.5 40 94.2 40 93.6 40 C 93.0 40 92.7 40 92.1 40 C 91.5 40 91.2 40 90.6 40 C 90.0 40 89.7 40 89.1 40 C 88.5 40 88.2 40 87.5 40 C 86.9 40 86.6 40 86.0 40 C 85.4 40 85.1 40 84.5 40 C 83.9 40 83.6 40 83.0 40 C 82.4 40 82.1 40 81.5 40 C 80.9 40 80.6 40 80.0 40 C 79.4 40 79.1 40 78.5 40 C 77.9 40 77.6 40 77.0 40 C 76.4 40 76.1 40 75.5 40 C 74.9 40 74.6 40 74.0 40 C 73.4 40 73.0 40 72.4 40 C 71.8 40 71.5 40 70.9 40 C 70.3 40 70.0 40 69.4 40 C 68.8 40 68.5 40 67.9 40 C 67.3 40 67.0 40 66.4 40 C 65.8 40 65.5 40 64.9 40 C 64.3 40 64.0 40 63.4 40 C 62.8 40 62.5 40 61.9 40 C 61.3 40 61.0 40 60.4 40 C 59.8 40 59.5 40 58.9 40 C 58.2 40 57.9 40 57.3 40 C 56.7 40 56.4 40 55.8 40 C 55.2 40 54.9 40 54.3 40 C 53.7 40 53.4 40 52.8 40 C 52.2 40 51.9 40 51.3 40 C 50.7 40 50.4 40 49.8 40 C 49.2 40 48.9 40 48.3 40 C 47.7 40 47.4 40 46.8 40 C 46.2 40 45.9 40 45.3 40 C 44.7 40 44.4 40 43.7 40 C 43.1 40 42.8 40 42.2 40 C 41.6 40 41.3 40 40.7 40 C 40.1 40 39.8 40 39.2 40 C 38.6 40 38.3 40 37.7 40 C 37.1 40 36.8 40 36.2 40 C 35.6 40 35.3 40 34.7 40 C 34.1 40 33.8 40 33.2 40 C 32.6 40 32.3 40 31.7 40 C 31.1 40 30.8 40 30.2 40 C 29.6 40 29.3 40 28.6 40 C 28.0 40 27.7 40 27.1 40 C 26.5 40 26.2 40 25.6 40 C 25.0 40 24.7 40 24.1 40 C 23.5 40 23.2 40 22.6 40 C 22.0 40 21.7 40 21.1 40 C 20.5 40 20.2 40 19.6 40 C 19.0 40 18.7 40 18.1 40 C 17.5 40 17.2 40 16.6 40 C 16.0 40 15.7 40 15.1 40 C 14.4 40 14.1 40 13.5 40 C 12.9 40 12.6 40 12.0 40 C 11.4 40 11.1 40 10.5 40 C 9.9 40 9.6 40 9.0 40 C 8.4 40 8.1 40 7.5 40 C 6.9 40 6.6 40 6.0 40 C 5.4 40 5.1 40 4.5 40 C 3.9 40 3.6 40 3.0 40 C 2.4 40 2.1 40 1.5 40 C 0.9 40 0 40 0 40" fill-opacity="0.0">
			</path>
			<path fill="none" d="M 0 26.6 C 0 26.6 0.9 24.1 1.5 23.3 C 2.1 22.5 2.4 22.5 3.0 22.5 C 3.6 22.5 3.9 22.6 4.5 23.4 C 5.1 24.2 5.4 25.7 6.0 26.6 C 6.6 27.5 6.9 28.0 7.5 28.0 C 8.1 28.0 8.4 28.0 9.0 27.8 C 9.6 27.7 9.9 22.7 10.5 22.7 C 11.1 22.7 11.4 23.3 12.0 23.3 C 12.6 23.3 12.9 21.0 13.5 21.0 C 14.1 21.0 14.4 21.0 15.1 21.2 C 15.7 21.3 16.0 21.4 16.6 21.7 C 17.2 22.1 17.5 22.8 18.1 22.8 C 18.7 22.8 19.0 21.1 19.6 20.0 C 20.2 19.0 20.5 18.0 21.1 17.5 C 21.7 17.0 22.0 17.5 22.6 17.0 C 23.2 16.5 23.5 15.7 24.1 15.0 C 24.7 14.3 25.0 13.5 25.6 13.5 C 26.2 13.5 26.5 16.8 27.1 16.8 C 27.7 16.8 28.0 14.4 28.6 13.5 C 29.3 12.6 29.6 12.4 30.2 12.4 C 30.8 12.4 31.1 13.0 31.7 13.0 C 32.3 13.0 32.6 13.0 33.2 12.9 C 33.8 12.8 34.1 12.8 34.7 12.6 C 35.3 12.5 35.6 12.6 36.2 12.2 C 36.8 11.7 37.1 8.3 37.7 6.6 C 38.3 4.8 38.6 3.3 39.2 3.3 C 39.8 3.3 40.1 7.2 40.7 7.5 C 41.3 7.7 41.6 7.5 42.2 7.7 C 42.8 8.0 43.1 9.8 43.7 10.1 C 44.4 10.4 44.7 10.4 45.3 10.4 C 45.9 10.4 46.2 7.3 46.8 7.3 C 47.4 7.3 47.7 11.5 48.3 11.5 C 48.9 11.5 49.2 10.3 49.8 10.3 C 50.4 10.3 50.7 11.4 51.3 11.8 C 51.9 12.3 52.2 12.3 52.8 12.4 C 53.4 12.6 53.7 12.4 54.3 12.7 C 54.9 13.0 55.2 14.0 55.8 14.0 C 56.4 14.0 56.7 13.5 57.3 13.5 C 57.9 13.5 58.2 17.5 58.9 19.0 C 59.5 20.4 59.8 20.3 60.4 20.8 C 61.0 21.3 61.3 21.3 61.9 21.3 C 62.5 21.3 62.8 20.0 63.4 20.0 C 64.0 20.0 64.3 21.8 64.9 22.4 C 65.5 23.1 65.8 22.7 66.4 23.3 C 67.0 24.0 67.3 25.8 67.9 25.8 C 68.5 25.8 68.8 20.0 69.4 20.0 C 70.0 20.0 70.3 20.5 70.9 21.2 C 71.5 21.8 71.8 23.3 72.4 23.4 C 73.0 23.4 73.4 23.4 74.0 23.4 C 74.6 23.5 74.9 29.1 75.5 29.7 C 76.1 30.2 76.4 29.7 77.0 30.2 C 77.6 30.7 77.9 31.1 78.5 32.4 C 79.1 33.7 79.4 36.6 80.0 36.6 C 80.6 36.6 80.9 32.4 81.5 30.7 C 82.1 29.1 82.4 28.4 83.0 28.3 C 83.6 28.1 83.9 28.1 84.5 28.1 C 85.1 28.1 85.4 30.9 86.0 30.9 C 86.6 30.9 86.9 28.8 87.5 28.8 C 88.2 28.8 88.5 29.9 89.1 29.9 C 89.7 29.9 90.0 29.7 90.6 29.2 C 91.2 28.7 91.5 29.0 92.1 27.4 C 92.7 25.9 93.0 22.1 93.6 21.5 C 94.2 20.8 94.5 20.9 95.1 20.8 C 95.7 20.8 96.0 20.8 96.6 20.8 C 97.2 20.8 97.5 20.5 98.1 20.0 C 98.7 19.4 99.0 18.2 99.6 18.2 C 100.2 18.2 100.5 18.5 101.1 19.0 C 101.7 19.5 102.0 20.7 102.7 20.7 C 103.3 20.7 103.6 18.3 104.2 18.3 C 104.8 18.3 105.1 18.3 105.7 18.3 C 106.3 18.3 106.6 17.6 107.2 16.5 C 107.8 15.3 108.1 12.4 108.7 12.4 C 109.3 12.4 109.6 14.9 110.2 14.9 C 110.8 14.9 111.1 11.9 111.7 11.9 C 112.3 11.9 112.6 11.9 113.2 11.9 C 113.8 11.9 114.1 24.7 114.7 24.7 C 115.3 24.7 115.6 24.7 116.2 24.7 C 116.8 24.7 117.8 24.7 117.8 24.7 M 129.8 24.7 C 129.8 24.7 130.7 22.7 131.3 22.7 C 132.0 22.7 132.3 24.7 132.9 24.7 C 133.5 24.7 133.8 24.7 134.4 24.7 C 135.0 24.7 135.3 24.7 135.9 24.7 C 136.5 24.7 136.8 24.7 137.4 24.7 C 138.0 24.7 138.3 24.7 138.9 24.7 C 139.5 24.7 139.8 24.7 140.4 24.7 C 141.0 24.7 141.3 24.7 141.9 24.7 C 142.5 24.7 142.8 19.7 143.4 19.7 C 144.0 19.7 144.3 20.0 144.9 21.4 C 145.5 22.8 145.8 26.1 146.5 26.6 C 147.1 27.0 147.4 26.6 148.0 27.0 C 148.6 27.4 148.9 30.5 149.5 32.1 C 150.1 33.6 150.4 34.7 151.0 34.7 C 151.6 34.7 151.9 26.8 152.5 26.8 C 153.1 26.8 153.4 28.0 154.0 29.3 C 154.6 30.6 154.9 33.3 155.5 33.3 C 156.1 33.3 156.4 29.5 157.0 27.9 C 157.6 26.3 157.9 25.5 158.5 25.5 C 159.1 25.5 159.4 25.9 160.0 25.9 C 160.6 25.9 161.0 23.5 161.6 23.5 C 162.2 23.5 162.5 25.7 163.1 25.7 C 163.7 25.7 164.0 22.1 164.6 22.1 C 165.2 22.1 165.5 26.1 166.1 27.7 C 166.7 29.4 167.0 30.2 167.6 30.2 C 168.2 30.2 168.5 29.7 169.1 28.2 C 169.7 26.7 170.0 22.8 170.6 22.8 C 171.2 22.8 171.5 23.4 172.1 23.4 C 172.7 23.4 173.0 22.7 173.6 22.2 C 174.2 21.8 174.5 21.3 175.1 21.3 C 175.8 21.3 176.1 21.4 176.7 21.4 C 177.3 21.4 177.6 18.7 178.2 18.3 C 178.8 17.8 179.1 18.3 179.7 17.8 C 180.3 17.3 180.6 14.3 181.2 14.1 C 181.8 13.8 182.1 13.8 182.7 13.8 C 183.3 13.8 183.6 14.1 184.2 14.1 C 184.8 14.1 185.1 10.8 185.7 10.8 C 186.3 10.8 186.6 13.8 187.2 15.1 C 187.8 16.4 188.1 17.2 188.7 17.2 C 189.3 17.2 190.3 15.3 190.3 15.3 M 214.4 16.0 C 214.4 16.0 215.3 12.6 215.9 12.6 C 216.5 12.6 216.8 15.8 217.4 17.2 C 218.0 18.6 218.3 19.7 218.9 19.7 C 219.6 19.7 219.9 19.3 220.5 18.9 C 221.1 18.5 221.4 18.1 222.0 17.8 C 222.6 17.4 222.9 17.1 223.5 17.1 C 224.1 17.1 224.4 20.0 225.0 21.2 C 225.6 22.4 225.9 23.1 226.5 23.1 C 227.1 23.1 227.4 19.6 228.0 19.6 C 228.6 19.6 228.9 19.6 229.5 20.4 C 230.1 21.2 230.4 25.9 231.0 25.9 C 231.6 25.9 231.9 23.9 232.5 23.6 C 233.1 23.3 233.4 23.3 234.1 23.3 C 234.7 23.3 235.0 24.1 235.6 24.2 C 236.2 24.2 236.5 24.2 237.1 24.2 C 237.7 24.2 238.0 23.1 238.6 23.1 C 239.2 23.1 239.5 24.6 240.1 25.5 C 240.7 26.3 241.0 26.3 241.6 27.3 C 242.2 28.3 242.5 30.6 243.1 30.6 C 243.7 30.6 244.0 27.3 244.6 25.7 C 245.2 24.1 245.5 23.5 246.1 22.7 C 246.7 21.9 247.0 21.8 247.6 21.7 C 248.2 21.6 248.5 21.7 249.2 21.6 C 249.8 21.5 250.1 21.4 250.7 20.9 C 251.3 20.4 251.6 19.2 252.2 19.2 C 252.8 19.2 253.1 19.3 253.7 19.4 C 254.3 19.5 254.6 19.4 255.2 19.6 C 255.8 19.8 256.1 24.3 256.7 24.3 C 257.3 24.3 257.6 21.6 258.2 20.6 C 258.8 19.7 259.1 19.9 259.7 19.5 C 260.3 19.1 260.6 18.8 261.2 18.5 C 261.8 18.2 262.1 18.3 262.7 18.1 C 263.4 17.9 263.7 17.5 264.3 17.3 C 264.9 17.1 265.2 17.3 265.8 17.0 C 266.4 16.7 266.7 9.7 267.3 9.7 C 267.9 9.7 268.2 15.8 268.8 15.8 C 269.4 15.8 269.7 14.0 270.3 13.3 C 270.9 12.6 271.2 12.6 271.8 12.3 C 272.4 11.9 272.7 11.9 273.3 11.7 C 273.9 11.4 274.2 11.5 274.8 11.0 C 275.4 10.5 275.7 9.0 276.3 9.0 C 276.9 9.0 277.2 9.3 277.8 10.0 C 278.5 10.7 278.8 12.4 279.4 12.4 C 280.0 12.4 280.3 10.7 280.9 10.7 C 281.5 10.7 281.8 11.0 282.4 11.1 C 283.0 11.2 283.3 11.2 283.9 11.2 C 284.5 11.2 284.8 9.1 285.4 9.1 C 286.0 9.1 286.3 11.1 286.9 11.8 C 287.5 12.6 287.8 12.2 288.4 12.9 C 289.0 13.5 289.3 15.0 289.9 15.0 C 290.5 15.0 290.8 14.8 291.4 14.8 C 292.0 14.8 292.3 19.1 293.0 19.1 C 293.6 19.1 293.9 17.4 294.5 17.3 C 295.1 17.2 295.4 17.2 296.0 17.2 C 296.6 17.2 296.9 21.1 297.5 21.1 C 298.1 21.1 298.4 18.8 299.0 18.8 C 299.6 18.8 299.9 20.7 300.5 21.7 C 301.1 22.6 301.4 23.7 302.0 23.7 C 302.6 23.7 302.9 23.4 303.5 22.6 C 304.1 21.8 304.4 19.7 305.0 19.7 C 305.6 19.7 305.9 19.7 306.5 20.4 C 307.1 21.1 307.5 24.6 308.1 27.3 C 308.7 29.9 309.0 33.8 309.6 33.8 C 310.2 33.8 310.5 29.0 311.1 28.9 C 311.7 28.8 312.0 28.9 312.6 28.8 C 313.2 28.6 313.5 26.4 314.1 25.0 C 314.7 23.6 315.0 21.8 315.6 21.8 C 316.2 21.8 316.5 25.5 317.1 28.1 C 317.7 30.7 318.0 34.9 318.6 34.9 C 319.2 34.9 319.5 34.5 320.1 32.2 C 320.7 30.0 321.0 23.7 321.6 23.7 C 322.3 23.7 322.6 32.3 323.2 32.3 C 323.8 32.3 324.1 29.0 324.7 28.6 C 325.3 28.2 325.6 28.6 326.2 28.2 C 326.8 27.9 327.1 24.3 327.7 24.3 C 328.3 24.3 328.6 25.2 329.2 25.7 C 329.8 26.3 330.1 26.8 330.7 27.2 C 331.3 27.6 331.6 27.7 332.2 27.7 C 332.8 27.7 333.1 27.7 333.7 27.3 C 334.3 26.9 334.6 24.9 335.2 24.0 C 335.8 23.1 336.1 23.9 336.8 22.8 C 337.4 21.6 337.7 18.1 338.3 18.1 C 338.9 18.1 339.2 19.0 339.8 19.6 C 340.4 20.1 340.7 20.8 341.3 20.8 C 341.9 20.8 342.2 17.6 342.8 16.0 C 343.4 14.5 343.7 13.1 344.3 13.1 C 344.9 13.1 345.2 13.6 345.8 13.6 C 346.4 13.6 346.7 10.8 347.3 10.8 C 347.9 10.8 348.2 13.9 348.8 13.9 C 349.4 13.9 349.7 11.3 350.3 11.2 C 350.9 11.2 351.3 11.2 351.9 11.2 C 352.5 11.2 352.8 11.1 353.4 11.1 C 354.0 11.1 354.3 11.4 354.9 11.4 C 355.5 11.4 355.8 11.2 356.4 10.9 C 357.0 10.7 357.3 10.9 357.9 10.2 C 358.5 9.5 358.8 6.8 359.4 6.8 C 360.0 6.8 360.3 8.6 360.9 9.4 C 361.5 10.2 361.8 10.4 362.4 10.9 C 363.0 11.4 363.3 12.0 363.9 12.0 C 364.5 12.0 364.8 10.8 365.4 10.8 C 366.1 10.8 366.4 12.8 367.0 12.8 C 367.6 12.8 367.9 11.0 368.5 11.0 C 369.1 11.0 369.4 11.0 370.0 11.9 C 370.6 12.8 370.9 14.2 371.5 15.6 C 372.1 17.0 372.4 18.8 373.0 18.8 C 373.6 18.8 373.9 17.3 374.5 17.3 C 375.1 17.3 375.4 17.3 376.0 17.6 C 376.6 18.0 376.9 20.2 377.5 20.2 C 378.1 20.2 378.4 18.3 379.0 18.3 C 379.6 18.3 379.9 18.7 380.6 19.4 C 381.2 20.0 381.5 21.5 382.1 21.5 C 382.7 21.5 383.0 19.1 383.6 19.1 C 384.2 19.1 384.5 23.7 385.1 23.7 C 385.7 23.7 386.0 20.6 386.6 20.6 C 387.2 20.6 387.5 24.6 388.1 24.6 C 388.7 24.6 389.0 21.5 389.6 21.0 C 390.2 20.6 390.5 20.8 391.1 20.6 C 391.7 20.4 392.0 20.0 392.6 20.0 C 393.2 20.0 393.5 20.0 394.1 20.4 C 394.7 20.7 395.1 21.3 395.7 22.6 C 396.3 24.0 396.6 27.3 397.2 27.3 C 397.8 27.3 398.1 27.3 398.7 27.0 C 399.3 26.8 399.6 25.7 400.2 24.5 C 400.8 23.4 401.1 21.9 401.7 21.3 C 402.3 20.7 402.6 20.7 403.2 20.7 C 403.8 20.7 404.1 23.1 404.7 23.1 C 405.3 23.1 405.6 20.1 406.2 19.3 C 406.8 18.5 407.1 18.5 407.7 18.5 C 408.3 18.5 408.6 20.5 409.2 21.2 C 409.9 21.9 410.2 22.1 410.8 22.1 C 411.4 22.1 411.7 19.3 412.3 19.3 C 412.9 19.3 413.2 20.5 413.8 20.5 C 414.4 20.5 414.7 18.1 415.3 18.1 C 415.9 18.1 416.2 18.4 416.8 18.4 C 417.4 18.4 417.7 14.5 418.3 14.5 C 418.9 14.5 419.2 17.9 419.8 17.9 C 420.4 17.9 420.7 16.4 421.3 15.7 C 421.9 15.1 422.2 15.3 422.8 14.6 C 423.4 14.0 423.7 12.9 424.4 12.3 C 425.0 11.6 425.3 12.1 425.9 11.4 C 426.5 10.8 426.8 9.2 427.4 9.2 C 428.0 9.2 428.3 9.8 428.9 10.4 C 429.5 10.9 429.8 12.0 430.4 12.0 C 431.0 12.0 431.3 11.4 431.9 10.9 C 432.5 10.4 432.8 10.6 433.4 9.4 C 434.0 8.3 434.3 5.0 434.9 5.0 C 435.5 5.0 435.8 7.5 436.4 7.5 C 437.0 7.5 437.3 3.9 437.9 3.9 C 438.5 3.9 438.9 8.4 439.5 8.4 C 440.1 8.4 440.4 7.9 441.0 7.9 C 441.6 7.9 441.9 9.7 442.5 10.5 C 443.1 11.4 443.4 12.3 444.0 12.3 C 444.6 12.3 444.9 12.0 445.5 11.8 C 446.1 11.5 446.4 10.9 447.0 10.9 C 447.6 10.9 447.9 11.4 448.5 12.2 C 449.1 13.0 449.4 14.3 450.0 15.0 C 450.6 15.7 450.9 15.7 451.5 15.7 C 452.1 15.7 452.4 14.4 453.0 14.4 C 453.7 14.4 454.0 14.5 454.6 15.7 C 455.2 16.8 455.5 20.1 456.1 20.1 C 456.7 20.1 457.0 16.2 457.6 16.2 C 458.2 16.2 458.5 18.0 459.1 18.9 C 459.7 19.7 460.0 20.5 460.6 20.5 C 461.2 20.5 461.5 20.1 462.1 20.1 C 462.7 20.1 463.0 23.8 463.6 23.8 C 464.2 23.8 464.5 23.4 465.1 22.9 C 465.7 22.4 466.0 21.4 466.6 21.4 C 467.2 21.4 467.5 22.2 468.2 22.7 C 468.8 23.1 469.1 22.7 469.7 23.6 C 470.3 24.6 470.6 28.1 471.2 28.1 C 471.8 28.1 472.1 22.8 472.7 22.8 C 473.3 22.8 473.6 23.3 474.2 23.3 C 474.8 23.3 475.1 22.5 475.7 22.5 C 476.3 22.5 476.6 27.5 477.2 27.5 C 477.8 27.5 478.1 25.4 478.7 25.4 C 479.3 25.4 479.6 25.4 480.2 25.4 C 480.8 25.4 481.1 22.1 481.7 21.5 C 482.3 20.9 482.6 21.0 483.3 20.9 C 483.9 20.7 484.2 20.7 484.8 20.7 C 485.4 20.7 485.7 20.9 486.3 21.0 C 486.9 21.1 487.2 21.2 487.8 21.2 C 488.4 21.2 488.7 20.3 489.3 20.3 C 489.9 20.3 490.2 20.9 490.8 21.3 C 491.4 21.7 491.7 22.2 492.3 22.2 C 492.9 22.2 493.2 18.0 493.8 18.0 C 494.4 18.0 494.7 20.0 495.3 20.0 C 495.9 20.0 496.2 19.2 496.8 19.2 C 497.5 19.2 497.8 19.6 498.4 19.6 C 499.0 19.6 499.3 16.4 499.9 16.4 C 500.5 16.4 500.8 17.3 501.4 17.3 C 502.0 17.3 502.3 16.9 502.9 16.7 C 503.5 16.6 503.8 16.7 504.4 16.6 C 505.0 16.4 505.3 16.6 505.9 16.1 C 506.5 15.7 506.8 14.8 507.4 14.3 C 508.0 13.8 508.3 14.3 508.9 13.7 C 509.5 13.1 509.8 11.4 510.4 11.4 C 511.0 11.4 511.9 12.2 511.9 12.2" stroke="#4572A7" stroke-width="1" stroke-linejoin="round" stroke-linecap="round">
			</path>
		</g>
		<g class="highcharts-markers highcharts-series-1" transform="translate(24,331) scale(1 1)" clip-path="none">
		</g>
	</g>
	<g class="highcharts-navigator">
		<rect fill="rgb(128,179,236)" fill-opacity="0.3" style="cursor:ew-resize;" x="496" y="331" width="40" height="40">
		</rect>
		<path fill="none" stroke="#b2b1b6" stroke-width="1" d="M 10 331.5 L 495.5 331.5 495.5 385.5 L 535.5 385.5 L 535.5 331.5 550 331.5 M 496.5 331.5 L 535.5 331.5">
		</path>
	</g>
	<text x="292" text-anchor="middle" class="highcharts-title" style="color:#333333;font-size:16px;fill:#333333;width:520px;" y="22">
		<tspan>Hourly temperatures in Vik i Sogn, Norway, 2009-2015
		</tspan>
	</text>
	<text x="292" text-anchor="middle" class="highcharts-subtitle" style="color:#555555;fill:#555555;width:520px;" y="43">
		<tspan>Built chart in 97ms
		</tspan>
	</text>
	<g class="highcharts-axis-labels highcharts-xaxis-labels">
		<text x="28.0" style="color:#606060;cursor:default;font-size:11px;fill:#606060;width:103px;text-overflow:clip;" text-anchor="middle" transform="translate(0,0)" y="304" opacity="1">
			<tspan>Jan '15
			</tspan>
		</text>
		<text x="107.4" style="color:#606060;cursor:default;font-size:11px;fill:#606060;width:103px;text-overflow:clip;" text-anchor="middle" transform="translate(0,0)" y="304" opacity="1">
			<tspan>Feb '15
			</tspan>
		</text>
		<text x="190.5" style="color:#606060;cursor:default;font-size:11px;fill:#606060;width:103px;text-overflow:clip;" text-anchor="middle" transform="translate(0,0)" y="304" opacity="1">
			<tspan>Mar '15
			</tspan>
		</text>
		<text x="282.5" style="color:#606060;cursor:default;font-size:11px;fill:#606060;width:103px;text-overflow:clip;" text-anchor="middle" transform="translate(0,0)" y="304" opacity="1">
			<tspan>Apr '15
			</tspan>
		</text>
		<text x="371.5" style="color:#606060;cursor:default;font-size:11px;fill:#606060;width:103px;text-overflow:clip;" text-anchor="middle" transform="translate(0,0)" y="304" opacity="1">
			<tspan>May '15
			</tspan>
		</text>
		<text x="463.5" style="color:#606060;cursor:default;font-size:11px;fill:#606060;width:103px;text-overflow:clip;" text-anchor="middle" transform="translate(0,0)" y="304" opacity="1">
			<tspan>Jun '15
			</tspan>
		</text>
	</g>
	<g class="highcharts-axis-labels highcharts-xaxis-labels">
		<text x="105.4" style="color:#888;cursor:default;font-size:11px;fill:#888;width:272px;text-overflow:clip;" text-anchor="start" transform="translate(0,0)" y="367" opacity="1">2010
		</text>
		<text x="262.9" style="color:#888;cursor:default;font-size:11px;fill:#888;width:272px;text-overflow:clip;" text-anchor="start" transform="translate(0,0)" y="367" opacity="1">2012
		</text>
		<text x="420.7" style="color:#888;cursor:default;font-size:11px;fill:#888;width:272px;text-overflow:clip;" text-anchor="start" transform="translate(0,0)" y="367" opacity="1">2014
		</text>
	</g>
	<g class="highcharts-axis-labels highcharts-yaxis-labels">
		<text x="550" style="color:#606060;cursor:default;font-size:11px;fill:#606060;width:183px;text-overflow:clip;" text-anchor="end" transform="translate(0,0)" y="283" opacity="1">-10
		</text>
		<text x="550" style="color:#606060;cursor:default;font-size:11px;fill:#606060;width:183px;text-overflow:clip;" text-anchor="end" transform="translate(0,0)" y="235" opacity="1">0
		</text>
		<text x="550" style="color:#606060;cursor:default;font-size:11px;fill:#606060;width:183px;text-overflow:clip;" text-anchor="end" transform="translate(0,0)" y="187" opacity="1">10
		</text>
		<text x="550" style="color:#606060;cursor:default;font-size:11px;fill:#606060;width:183px;text-overflow:clip;" text-anchor="end" transform="translate(0,0)" y="139" opacity="1">20
		</text>
		<text x="0" style="color:#606060;cursor:default;font-size:11px;fill:#606060;width:183px;text-overflow:clip;" text-anchor="end" transform="translate(0,0)" y="-9999">30
		</text>
	</g>
	<g class="highcharts-axis-labels highcharts-yaxis-labels">
	</g>
	<g class="highcharts-tooltip" style="cursor:default;padding:0;pointer-events:none;white-space:nowrap;" transform="translate(0,-9999)">
		<path fill="none" d="M 3.5 0.5 L 13.5 0.5 C 16.5 0.5 16.5 0.5 16.5 3.5 L 16.5 13.5 C 16.5 16.5 16.5 16.5 13.5 16.5 L 3.5 16.5 C 0.5 16.5 0.5 16.5 0.5 13.5 L 0.5 3.5 C 0.5 0.5 0.5 0.5 3.5 0.5"  stroke="black" stroke-opacity="0.0" stroke-width="5" transform="translate(1, 1)">
		</path>
		<path fill="none" d="M 3.5 0.5 L 13.5 0.5 C 16.5 0.5 16.5 0.5 16.5 3.5 L 16.5 13.5 C 16.5 16.5 16.5 16.5 13.5 16.5 L 3.5 16.5 C 0.5 16.5 0.5 16.5 0.5 13.5 L 0.5 3.5 C 0.5 0.5 0.5 0.5 3.5 0.5"  stroke="black" stroke-opacity="0.0" stroke-width="3" transform="translate(1, 1)">
		</path>
		<path fill="none" d="M 3.5 0.5 L 13.5 0.5 C 16.5 0.5 16.5 0.5 16.5 3.5 L 16.5 13.5 C 16.5 16.5 16.5 16.5 13.5 16.5 L 3.5 16.5 C 0.5 16.5 0.5 16.5 0.5 13.5 L 0.5 3.5 C 0.5 0.5 0.5 0.5 3.5 0.5"  stroke="black" stroke-opacity="0.1" stroke-width="1" transform="translate(1, 1)">
		</path>
		<path fill="rgb(249, 249, 249)" fill-opacity=" .85" d="M 3.5 0.5 L 13.5 0.5 C 16.5 0.5 16.5 0.5 16.5 3.5 L 16.5 13.5 C 16.5 16.5 16.5 16.5 13.5 16.5 L 3.5 16.5 C 0.5 16.5 0.5 16.5 0.5 13.5 L 0.5 3.5 C 0.5 0.5 0.5 0.5 3.5 0.5">
		</path>
		<text x="8" style="font-size:12px;color:#333333;fill:#333333;" y="20">
		</text>
	</g>
	<g class="highcharts-navigator-handle-right" style="cursor:ew-resize;" transform="translate(536,343)">
		<rect x="-4.5" y="0.5" width="8" height="15" fill="#ebe7e8" stroke="#b2b1b6" stroke-width="1">
		</rect>
		<path fill="#ebe7e8" d="M -1.5 4 L -1.5 12 M 0.5 4 L 0.5 12" stroke="#b2b1b6" stroke-width="1">
		</path>
	</g>
	<g class="highcharts-navigator-handle-left" style="cursor:ew-resize;" transform="translate(496,343)">
		<rect x="-4.5" y="0.5" width="8" height="15" fill="#ebe7e8" stroke="#b2b1b6" stroke-width="1">
		</rect>
		<path fill="#ebe7e8" d="M -1.5 4 L -1.5 12 M 0.5 4 L 0.5 12" stroke="#b2b1b6" stroke-width="1">
		</path>
	</g>
</svg>