
<svg version="1.1" style="font-family:&quot;lucida grande&quot;, &quot;lucida sans unicode&quot;, arial, helvetica, sans-serif;font-size:12px;" xmlns="http://www.w3.org/2000/svg" viewBox="0 0 584 400">
	<desc>Created with Highstock 4.2.4
	</desc>
	<defs>
		<clipPath id="highcharts-1">
			<rect x="0" y="0" width="564" height="192">
			</rect>
		</clipPath>
		<linearGradient x1="0" y1="0" x2="0" y2="1" id="highcharts-2">
			<stop offset="0" stop-color="#7cb5ec" stop-opacity="1">
			</stop>
			<stop offset="1" stop-color="rgb(124,181,236)" stop-opacity="0">
			</stop>
		</linearGradient>
		<clipPath id="highcharts-3">
			<rect x="0" y="0" width="564" height="192">
			</rect>
		</clipPath>
		<clipPath id="highcharts-4">
			<rect x="0" y="0" width="536" height="40">
			</rect>
		</clipPath>
	</defs>
	<rect x="0" y="0" width="584" height="400" fill="#FFFFFF" class=" highcharts-background">
	</rect>
	<g class="highcharts-scrollbar" transform="translate(10,372)">
		<rect x="0" y="-0.5" fill="#eeeeee" stroke="#eeeeee" stroke-width="1" rx="0" ry="0" height="14" width="564">
		</rect>
		<rect y="-0.5" height="14" fill="#bfc8d1" stroke="#bfc8d1" stroke-width="1" rx="0" ry="0" x="473.5" width="76">
		</rect>
		<path fill="none" stroke="#666" stroke-width="1" visibility="visible" d="M 508 3.5 L 508 9.3 M 511 3.5 L 511 9.3 M 514 3.5 L 514 9.3">
		</path>
		<g>
			<rect x="-0.5" y="-0.5" width="14" height="14" stroke="#bbb" stroke-width="1" fill="#ebe7e8">
			</rect>
			<path fill="#666" d="M 8 4 L 8 10 5 7">
			</path>
		</g>
		<g transform="translate(550,0)">
			<rect x="-0.5" y="-0.5" width="14" height="14" stroke="#bbb" stroke-width="1" fill="#ebe7e8">
			</rect>
			<path fill="#666" d="M 6 4 L 6 10 9 7">
			</path>
		</g>
	</g>
	<g class="highcharts-range-selector-buttons" transform="translate(0,58)">
		<text x="10" y="15" style="color:#666;fill:#666;">Zoom
		</text>
		<g class="highcharts-button" states="[object Object]" style="cursor:pointer;text-align:center;" transform="translate(48,0)">
			<rect x="0" y="0" width="32" height="22" fill="#f7f7f7" rx="0" ry="0">
			</rect>
			<text x="8.4" style="font-weight:normal;color:#444;fill:#444;" y="14">1h
			</text>
		</g>
		<g class="highcharts-button" states="[object Object]" style="cursor:pointer;text-align:center;" transform="translate(85,0)">
			<rect x="0" y="0" width="32" height="22" fill="#e7f0f9" rx="0" ry="0">
			</rect>
			<text x="7.7" style="font-weight:bold;color:black;fill:black;" y="14">1D
			</text>
		</g>
		<g class="highcharts-button" states="[object Object]" style="cursor:pointer;text-align:center;" transform="translate(122,0)">
			<rect x="0" y="0" width="32" height="22" fill="#f7f7f7" rx="0" ry="0">
			</rect>
			<text x="8.3" style="font-weight:normal;color:#444;fill:#444;" y="14">All
			</text>
		</g>
	</g>
	<g class="highcharts-grid">
	</g>
	<g class="highcharts-grid">
		<path fill="none" d="M 23.5 331 L 23.5 371" stroke="#EEE" stroke-width="1" opacity="1">
		</path>
		<path fill="none" d="M 253.5 331 L 253.5 371" stroke="#EEE" stroke-width="1" opacity="1">
		</path>
		<path fill="none" d="M 483.5 331 L 483.5 371" stroke="#EEE" stroke-width="1" opacity="1">
		</path>
	</g>
	<g class="highcharts-grid">
		<path fill="none" d="M 10 285.5 L 574 285.5" stroke="#D8D8D8" stroke-width="1" opacity="1">
		</path>
		<path fill="none" d="M 10 237.5 L 574 237.5" stroke="#D8D8D8" stroke-width="1" opacity="1">
		</path>
		<path fill="none" d="M 10 189.5 L 574 189.5" stroke="#D8D8D8" stroke-width="1" opacity="1">
		</path>
		<path fill="none" d="M 10 141.5 L 574 141.5" stroke="#D8D8D8" stroke-width="1" opacity="1">
		</path>
		<path fill="none" d="M 10 92.5 L 574 92.5" stroke="#D8D8D8" stroke-width="1" opacity="1">
		</path>
	</g>
	<g class="highcharts-grid">
	</g>
	<g class="highcharts-axis">
		<path fill="none" d="M 10.5 285 L 10.5 295" stroke="#C0D0E0" stroke-width="1" opacity="1">
		</path>
		<path fill="none" d="M 81.5 285 L 81.5 295" stroke="#C0D0E0" stroke-width="1" opacity="1">
		</path>
		<path fill="none" d="M 151.5 285 L 151.5 295" stroke="#C0D0E0" stroke-width="1" opacity="1">
		</path>
		<path fill="none" d="M 222.5 285 L 222.5 295" stroke="#C0D0E0" stroke-width="1" opacity="1">
		</path>
		<path fill="none" d="M 292.5 285 L 292.5 295" stroke="#C0D0E0" stroke-width="1" opacity="1">
		</path>
		<path fill="none" d="M 363.5 285 L 363.5 295" stroke="#C0D0E0" stroke-width="1" opacity="1">
		</path>
		<path fill="none" d="M 433.5 285 L 433.5 295" stroke="#C0D0E0" stroke-width="1" opacity="1">
		</path>
		<path fill="none" d="M 504.5 285 L 504.5 295" stroke="#C0D0E0" stroke-width="1" opacity="1">
		</path>
		<path fill="none" d="M 10 285.5 L 574 285.5" stroke="#C0D0E0" stroke-width="1">
		</path>
	</g>
	<g class="highcharts-axis">
	</g>
	<g class="highcharts-axis">
	</g>
	<g class="highcharts-axis">
	</g>
	<g class="highcharts-series-group">
		<g class="highcharts-series highcharts-series-0" transform="translate(10,93) scale(1 1)" clip-path="url(#highcharts-3)">
			<path fill="url(#highcharts-2)" d="M -4.7 162.0 L -4.7 192 L 1.1 192 L 1.1 85.2 L 7.0 72.1 L 12.9 73.3 L 18.8 74.5 L 24.6 75.4 L 30.5 75.5 L 36.4 75.8 L 42.3 74.2 L 48.1 72.2 L 54.0 75.2 L 59.9 71.9 L 65.8 66.5 L 71.6 67.1 L 77.5 66.2 L 83.4 67.8 L 89.3 68.9 L 95.1 68.7 L 101.0 72.1 L 106.9 73.8 L 112.8 67.3 L 118.6 80.4 L 124.5 79.4 L 130.4 80.5 L 136.2 83.2 L 142.1 86.7 L 148.0 82.9 L 153.9 79.3 L 159.7 78.2 L 165.6 78.1 L 171.5 82.1 L 177.4 79.7 L 183.2 79.7 L 189.1 81.3 L 195.0 77.5 L 200.9 77.9 L 206.7 77.7 L 212.6 78.5 L 218.5 77.6 L 224.4 77.9 L 230.2 79.5 L 236.1 81.0 L 242.0 85.4 L 247.9 87.5 L 253.7 88.5 L 259.6 87.2 L 265.5 85.9 L 271.4 84.7 L 277.3 83.6 L 283.1 85.3 L 289.0 85.7 L 294.9 83.4 L 300.8 84.7 L 306.6 82.0 L 312.5 80.5 L 318.4 78.8 L 324.3 75.7 L 330.1 72.9 L 336.0 73.3 L 341.9 74.7 L 347.8 76.6 L 353.6 74.3 L 359.5 70.9 L 365.4 69.2 L 371.3 66.9 L 377.1 67.7 L 383.0 68.2 L 388.9 69.1 L 394.8 68.4 L 400.6 68.7 L 406.5 64.2 L 412.4 63.9 L 418.3 58.6 L 424.1 56.1 L 430.0 53.8 L 435.9 55.2 L 441.8 56.9 L 447.6 52.4 L 453.5 51.8 L 459.4 53.3 L 465.3 52.7 L 471.1 51.0 L 477.0 49.9 L 482.9 48.9 L 488.8 48.1 L 494.6 49.9 L 500.5 51.7 L 506.4 54.9 L 512.3 56.7 L 518.1 53.5 L 524.0 50.4 L 529.9 44.2 L 535.8 43.6 L 541.6 47.1 L 547.5 45.4 L 553.4 46.1 L 559.3 35.0 L 559.3 192 L 553.4 192 L 547.5 192 L 541.6 192 L 535.8 192 L 529.9 192 L 524.0 192 L 518.1 192 L 512.3 192 L 506.4 192 L 500.5 192 L 494.6 192 L 488.8 192 L 482.9 192 L 477.0 192 L 471.1 192 L 465.3 192 L 459.4 192 L 453.5 192 L 447.6 192 L 441.8 192 L 435.9 192 L 430.0 192 L 424.1 192 L 418.3 192 L 412.4 192 L 406.5 192 L 400.6 192 L 394.8 192 L 388.9 192 L 383.0 192 L 377.1 192 L 371.3 192 L 365.4 192 L 359.5 192 L 353.6 192 L 347.8 192 L 341.9 192 L 336.0 192 L 330.1 192 L 324.3 192 L 318.4 192 L 312.5 192 L 306.6 192 L 300.8 192 L 294.9 192 L 289.0 192 L 283.1 192 L 277.3 192 L 271.4 192 L 265.5 192 L 259.6 192 L 253.7 192 L 247.9 192 L 242.0 192 L 236.1 192 L 230.2 192 L 224.4 192 L 218.5 192 L 212.6 192 L 206.7 192 L 200.9 192 L 195.0 192 L 189.1 192 L 183.2 192 L 177.4 192 L 171.5 192 L 165.6 192 L 159.7 192 L 153.9 192 L 148.0 192 L 142.1 192 L 136.2 192 L 130.4 192 L 124.5 192 L 118.6 192 L 112.8 192 L 106.9 192 L 101.0 192 L 95.1 192 L 89.3 192 L 83.4 192 L 77.5 192 L 71.6 192 L 65.8 192 L 59.9 192 L 54.0 192 L 48.1 192 L 42.3 192 L 36.4 192 L 30.5 192 L 24.6 192 L 18.8 192 L 12.9 192 L 7.0 192 L 1.1 192 L 1.1 192 L -4.7 192 L -4.7 192">
			</path>
			<path fill="none" d="M -4.7 162.0 M 1.1 85.2 L 7.0 72.1 L 12.9 73.3 L 18.8 74.5 L 24.6 75.4 L 30.5 75.5 L 36.4 75.8 L 42.3 74.2 L 48.1 72.2 L 54.0 75.2 L 59.9 71.9 L 65.8 66.5 L 71.6 67.1 L 77.5 66.2 L 83.4 67.8 L 89.3 68.9 L 95.1 68.7 L 101.0 72.1 L 106.9 73.8 L 112.8 67.3 L 118.6 80.4 L 124.5 79.4 L 130.4 80.5 L 136.2 83.2 L 142.1 86.7 L 148.0 82.9 L 153.9 79.3 L 159.7 78.2 L 165.6 78.1 L 171.5 82.1 L 177.4 79.7 L 183.2 79.7 L 189.1 81.3 L 195.0 77.5 L 200.9 77.9 L 206.7 77.7 L 212.6 78.5 L 218.5 77.6 L 224.4 77.9 L 230.2 79.5 L 236.1 81.0 L 242.0 85.4 L 247.9 87.5 L 253.7 88.5 L 259.6 87.2 L 265.5 85.9 L 271.4 84.7 L 277.3 83.6 L 283.1 85.3 L 289.0 85.7 L 294.9 83.4 L 300.8 84.7 L 306.6 82.0 L 312.5 80.5 L 318.4 78.8 L 324.3 75.7 L 330.1 72.9 L 336.0 73.3 L 341.9 74.7 L 347.8 76.6 L 353.6 74.3 L 359.5 70.9 L 365.4 69.2 L 371.3 66.9 L 377.1 67.7 L 383.0 68.2 L 388.9 69.1 L 394.8 68.4 L 400.6 68.7 L 406.5 64.2 L 412.4 63.9 L 418.3 58.6 L 424.1 56.1 L 430.0 53.8 L 435.9 55.2 L 441.8 56.9 L 447.6 52.4 L 453.5 51.8 L 459.4 53.3 L 465.3 52.7 L 471.1 51.0 L 477.0 49.9 L 482.9 48.9 L 488.8 48.1 L 494.6 49.9 L 500.5 51.7 L 506.4 54.9 L 512.3 56.7 L 518.1 53.5 L 524.0 50.4 L 529.9 44.2 L 535.8 43.6 L 541.6 47.1 L 547.5 45.4 L 553.4 46.1 L 559.3 35.0" stroke="#7cb5ec" stroke-width="2" stroke-linejoin="round" stroke-linecap="round">
			</path>
			<path fill="none" d="M -14.7 162.0 L -4.7 162.0 L 5.3 162.0 M -8.8 85.2 L 1.1 85.2 L 7.0 72.1 L 12.9 73.3 L 18.8 74.5 L 24.6 75.4 L 30.5 75.5 L 36.4 75.8 L 42.3 74.2 L 48.1 72.2 L 54.0 75.2 L 59.9 71.9 L 65.8 66.5 L 71.6 67.1 L 77.5 66.2 L 83.4 67.8 L 89.3 68.9 L 95.1 68.7 L 101.0 72.1 L 106.9 73.8 L 112.8 67.3 L 118.6 80.4 L 124.5 79.4 L 130.4 80.5 L 136.2 83.2 L 142.1 86.7 L 148.0 82.9 L 153.9 79.3 L 159.7 78.2 L 165.6 78.1 L 171.5 82.1 L 177.4 79.7 L 183.2 79.7 L 189.1 81.3 L 195.0 77.5 L 200.9 77.9 L 206.7 77.7 L 212.6 78.5 L 218.5 77.6 L 224.4 77.9 L 230.2 79.5 L 236.1 81.0 L 242.0 85.4 L 247.9 87.5 L 253.7 88.5 L 259.6 87.2 L 265.5 85.9 L 271.4 84.7 L 277.3 83.6 L 283.1 85.3 L 289.0 85.7 L 294.9 83.4 L 300.8 84.7 L 306.6 82.0 L 312.5 80.5 L 318.4 78.8 L 324.3 75.7 L 330.1 72.9 L 336.0 73.3 L 341.9 74.7 L 347.8 76.6 L 353.6 74.3 L 359.5 70.9 L 365.4 69.2 L 371.3 66.9 L 377.1 67.7 L 383.0 68.2 L 388.9 69.1 L 394.8 68.4 L 400.6 68.7 L 406.5 64.2 L 412.4 63.9 L 418.3 58.6 L 424.1 56.1 L 430.0 53.8 L 435.9 55.2 L 441.8 56.9 L 447.6 52.4 L 453.5 51.8 L 459.4 53.3 L 465.3 52.7 L 471.1 51.0 L 477.0 49.9 L 482.9 48.9 L 488.8 48.1 L 494.6 49.9 L 500.5 51.7 L 506.4 54.9 L 512.3 56.7 L 518.1 53.5 L 524.0 50.4 L 529.9 44.2 L 535.8 43.6 L 541.6 47.1 L 547.5 45.4 L 553.4 46.1 L 559.3 35.0 L 569.3 35.0" stroke-linejoin="round" visibility="visible" stroke="rgb(192,192,192)" stroke-opacity="0.0" stroke-width="22" class=" highcharts-tracker" style="">
			</path>
		</g>
		<g class="highcharts-markers highcharts-series-0 highcharts-tracker" transform="translate(10,93) scale(1 1)" style="" clip-path="none">
		</g>
		<g class="highcharts-series highcharts-series-1" transform="translate(24,331) scale(1 1)" clip-path="url(#highcharts-4)">
			<path fill="url(#highcharts-2)" d="M 0 34.1 C 0 34.1 4.9 32.8 8.1 32.8 C 10.0 32.8 11.0 33.0 12.9 33.0 C 14.8 33.0 15.8 33.0 17.7 32.6 C 19.6 32.2 20.6 31.6 22.5 30.7 C 24.4 29.7 25.4 28.0 27.3 28.0 C 29.2 28.0 30.2 28.4 32.1 28.4 C 34.0 28.4 34.9 28.4 36.9 28.4 C 38.8 28.4 39.7 28.4 41.6 28.6 C 43.6 28.8 44.5 29.3 46.4 30.0 C 48.3 30.7 49.3 31.3 51.2 32.1 C 53.1 32.9 54.1 34.0 56.0 34.0 C 57.9 34.0 58.9 32.4 60.8 32.4 C 62.7 32.4 63.7 33.3 65.6 33.3 C 67.5 33.3 68.4 33.0 70.4 32.8 C 72.3 32.7 75.2 32.4 75.2 32.4 C 75.2 32.4 75.2 40 75.2 40 C 75.2 40 79.9 40 79.9 40 C 79.9 40 79.9 32.6 79.9 32.6 C 79.9 32.6 82.8 31.2 84.7 31.2 C 86.6 31.2 87.6 31.6 89.5 31.9 C 91.4 32.3 92.4 32.9 94.3 32.9 C 96.2 32.9 97.2 32.8 99.1 32.8 C 101.0 32.8 102.0 33.3 103.9 33.8 C 105.8 34.4 106.7 35.0 108.7 35.6 C 110.6 36.2 111.5 36.6 113.4 36.6 C 115.4 36.6 116.3 36.6 118.2 36.5 C 120.2 36.5 121.1 36.4 123.0 36.4 C 124.9 36.4 125.9 36.4 127.8 36.4 C 129.7 36.4 130.7 36.4 132.6 36.3 C 134.5 36.2 135.5 35.3 137.4 35.3 C 139.3 35.3 140.3 35.9 142.2 35.9 C 144.1 35.9 145.0 35.4 147.0 35.4 C 148.9 35.4 151.7 35.5 151.7 35.5 C 151.7 35.5 151.7 40 151.7 40 C 151.7 40 156.5 40 156.5 40 C 156.5 40 156.5 33.6 156.5 33.6 C 156.5 33.6 159.4 32.2 161.3 31.6 C 163.2 31.1 164.2 30.9 166.1 30.7 C 168.0 30.4 169.0 30.7 170.9 30.3 C 172.8 29.9 173.8 27.9 175.7 27.9 C 177.6 27.9 178.6 27.9 180.5 28.0 C 182.4 28.0 183.3 28.2 185.3 28.2 C 187.2 28.2 188.1 27.7 190.0 27.5 C 192.0 27.2 192.9 27.0 194.8 27.0 C 196.7 27.0 197.7 27.1 199.6 27.2 C 201.5 27.2 202.5 27.3 204.4 27.3 C 206.3 27.3 207.3 27.2 209.2 27.2 C 211.1 27.2 212.1 27.2 214.0 27.2 C 215.9 27.2 216.9 26.6 218.8 26.6 C 220.7 26.6 221.6 27.1 223.6 27.1 C 225.5 27.1 228.3 26.0 228.3 26.0 C 228.3 26.0 228.3 40 228.3 40 C 228.3 40 233.1 40 233.1 40 C 233.1 40 233.1 22.3 233.1 22.3 C 233.1 22.3 236.0 22.3 237.9 22.4 C 239.8 22.4 240.8 22.6 242.7 22.6 C 244.6 22.6 245.6 20.6 247.5 19.7 C 249.4 18.8 250.4 18.6 252.3 18.1 C 254.2 17.5 255.1 17.0 257.1 17.0 C 259.0 17.0 259.9 17.5 261.9 17.5 C 263.8 17.5 264.7 17.1 266.6 17.0 C 268.6 16.9 269.5 16.8 271.4 16.8 C 273.3 16.8 274.3 17.4 276.2 17.7 C 278.1 17.9 279.1 18.1 281.0 18.1 C 282.9 18.1 283.9 17.6 285.8 17.4 C 287.7 17.1 288.7 16.9 290.6 16.9 C 292.5 16.9 293.4 16.9 295.4 16.9 C 297.3 16.9 298.2 15.6 300.1 15.6 C 302.1 15.6 304.9 16.6 304.9 16.6 C 304.9 16.6 304.9 40 304.9 40 C 304.9 40 309.7 40 309.7 40 C 309.7 40 309.7 14.1 309.7 14.1 C 309.7 14.1 312.6 13.5 314.5 13.1 C 316.4 12.6 317.4 12.2 319.3 11.9 C 321.2 11.5 322.2 11.4 324.1 11.4 C 326.0 11.4 327.0 11.8 328.9 12.0 C 330.8 12.2 331.7 12.3 333.7 12.3 C 335.6 12.3 336.5 12.1 338.4 12.0 C 340.4 11.9 341.3 11.6 343.2 11.6 C 345.1 11.6 346.1 12.3 348.0 12.5 C 349.9 12.7 350.9 12.7 352.8 12.7 C 354.7 12.7 355.7 12.3 357.6 12.3 C 359.5 12.3 360.5 12.3 362.4 12.3 C 364.3 12.4 365.3 12.6 367.2 13.0 C 369.1 13.5 370.0 14.0 372.0 14.5 C 373.9 15.0 374.8 15.4 376.7 15.4 C 378.7 15.4 381.5 14.8 381.5 14.8 C 381.5 14.8 381.5 40 381.5 40 C 381.5 40 386.3 40 386.3 40 C 386.3 40 386.3 15.6 386.3 15.6 C 386.3 15.6 389.2 13.8 391.1 13.6 C 393.0 13.4 394.0 13.4 395.9 13.4 C 397.8 13.4 398.8 14.0 400.7 14.0 C 402.6 14.0 403.5 13.1 405.5 13.1 C 407.4 13.0 408.3 13.0 410.3 13.0 C 412.2 13.0 413.1 13.2 415.0 13.2 C 417.0 13.2 417.9 12.4 419.8 12.4 C 421.7 12.4 422.7 12.4 424.6 12.4 C 426.5 12.5 427.5 12.4 429.4 12.5 C 431.3 12.7 432.3 13.1 434.2 13.1 C 436.1 13.1 437.1 13.0 439.0 13.0 C 440.9 13.0 441.8 13.3 443.8 13.3 C 445.7 13.3 446.6 13.1 448.5 12.8 C 450.5 12.5 451.4 11.8 453.3 11.8 C 455.3 11.8 458.1 12.0 458.1 12.0 C 458.1 12.0 458.1 40 458.1 40 C 458.1 40 462.9 40 462.9 40 C 462.9 40 462.9 5.5 462.9 5.5 C 462.9 5.5 465.8 5.4 467.7 5.3 C 469.6 5.2 470.6 5.0 472.5 5.0 C 474.4 5.0 475.4 5.4 477.3 5.6 C 479.2 5.8 480.1 5.9 482.1 5.9 C 484.0 5.9 484.9 5.7 486.8 5.7 C 488.8 5.7 489.7 5.7 491.6 5.8 C 493.5 5.9 494.5 6.2 496.4 6.2 C 498.3 6.2 499.3 6.2 501.2 6.0 C 503.1 5.9 504.1 5.7 506.0 5.5 C 507.9 5.3 508.9 5.2 510.8 5.1 C 512.7 4.9 513.7 5.0 515.6 4.8 C 517.5 4.6 518.4 4.2 520.4 4.0 C 522.3 3.8 523.2 3.8 525.1 3.8 C 527.1 3.8 528.0 3.9 529.9 3.9 C 530.5 3.9 531.3 3.3 531.3 3.3 L 531.3 40 C 531.3 40 530.5 40 529.9 40 C 528.0 40 527.1 40 525.1 40 C 523.2 40 522.3 40 520.4 40 C 518.4 40 517.5 40 515.6 40 C 513.7 40 512.7 40 510.8 40 C 508.9 40 507.9 40 506.0 40 C 504.1 40 503.1 40 501.2 40 C 499.3 40 498.3 40 496.4 40 C 494.5 40 493.5 40 491.6 40 C 489.7 40 488.8 40 486.8 40 C 484.9 40 484.0 40 482.1 40 C 480.1 40 479.2 40 477.3 40 C 475.4 40 474.4 40 472.5 40 C 470.6 40 469.6 40 467.7 40 C 465.8 40 464.8 40 462.9 40 C 462.9 40 462.9 40 462.9 40 C 461.0 40 460.0 40 458.1 40 C 458.1 40 458.1 40 458.1 40 C 456.2 40 455.3 40 453.3 40 C 451.4 40 450.5 40 448.5 40 C 446.6 40 445.7 40 443.8 40 C 441.8 40 440.9 40 439.0 40 C 437.1 40 436.1 40 434.2 40 C 432.3 40 431.3 40 429.4 40 C 427.5 40 426.5 40 424.6 40 C 422.7 40 421.7 40 419.8 40 C 417.9 40 417.0 40 415.0 40 C 413.1 40 412.2 40 410.3 40 C 408.3 40 407.4 40 405.5 40 C 403.5 40 402.6 40 400.7 40 C 398.8 40 397.8 40 395.9 40 C 394.0 40 393.0 40 391.1 40 C 389.2 40 388.2 40 386.3 40 C 386.3 40 386.3 40 386.3 40 C 384.4 40 383.4 40 381.5 40 C 381.5 40 381.5 40 381.5 40 C 379.6 40 378.7 40 376.7 40 C 374.8 40 373.9 40 372.0 40 C 370.0 40 369.1 40 367.2 40 C 365.3 40 364.3 40 362.4 40 C 360.5 40 359.5 40 357.6 40 C 355.7 40 354.7 40 352.8 40 C 350.9 40 349.9 40 348.0 40 C 346.1 40 345.1 40 343.2 40 C 341.3 40 340.4 40 338.4 40 C 336.5 40 335.6 40 333.7 40 C 331.7 40 330.8 40 328.9 40 C 327.0 40 326.0 40 324.1 40 C 322.2 40 321.2 40 319.3 40 C 317.4 40 316.4 40 314.5 40 C 312.6 40 311.6 40 309.7 40 C 309.7 40 309.7 40 309.7 40 C 307.8 40 306.8 40 304.9 40 C 304.9 40 304.9 40 304.9 40 C 303.0 40 302.1 40 300.1 40 C 298.2 40 297.3 40 295.4 40 C 293.4 40 292.5 40 290.6 40 C 288.7 40 287.7 40 285.8 40 C 283.9 40 282.9 40 281.0 40 C 279.1 40 278.1 40 276.2 40 C 274.3 40 273.3 40 271.4 40 C 269.5 40 268.6 40 266.6 40 C 264.7 40 263.8 40 261.9 40 C 259.9 40 259.0 40 257.1 40 C 255.1 40 254.2 40 252.3 40 C 250.4 40 249.4 40 247.5 40 C 245.6 40 244.6 40 242.7 40 C 240.8 40 239.8 40 237.9 40 C 236.0 40 235.0 40 233.1 40 C 233.1 40 233.1 40 233.1 40 C 231.2 40 230.3 40 228.3 40 C 228.3 40 228.3 40 228.3 40 C 226.4 40 225.5 40 223.6 40 C 221.6 40 220.7 40 218.8 40 C 216.9 40 215.9 40 214.0 40 C 212.1 40 211.1 40 209.2 40 C 207.3 40 206.3 40 204.4 40 C 202.5 40 201.5 40 199.6 40 C 197.7 40 196.7 40 194.8 40 C 192.9 40 192.0 40 190.0 40 C 188.1 40 187.2 40 185.3 40 C 183.3 40 182.4 40 180.5 40 C 178.6 40 177.6 40 175.7 40 C 173.8 40 172.8 40 170.9 40 C 169.0 40 168.0 40 166.1 40 C 164.2 40 163.2 40 161.3 40 C 159.4 40 158.4 40 156.5 40 C 156.5 40 156.5 40 156.5 40 C 154.6 40 153.7 40 151.7 40 C 151.7 40 151.7 40 151.7 40 C 149.8 40 148.9 40 147.0 40 C 145.0 40 144.1 40 142.2 40 C 140.3 40 139.3 40 137.4 40 C 135.5 40 134.5 40 132.6 40 C 130.7 40 129.7 40 127.8 40 C 125.9 40 124.9 40 123.0 40 C 121.1 40 120.2 40 118.2 40 C 116.3 40 115.4 40 113.4 40 C 111.5 40 110.6 40 108.7 40 C 106.7 40 105.8 40 103.9 40 C 102.0 40 101.0 40 99.1 40 C 97.2 40 96.2 40 94.3 40 C 92.4 40 91.4 40 89.5 40 C 87.6 40 86.6 40 84.7 40 C 82.8 40 81.9 40 79.9 40 C 79.9 40 79.9 40 79.9 40 C 78.0 40 77.1 40 75.2 40 C 75.2 40 75.2 40 75.2 40 C 73.2 40 72.3 40 70.4 40 C 68.4 40 67.5 40 65.6 40 C 63.7 40 62.7 40 60.8 40 C 58.9 40 57.9 40 56.0 40 C 54.1 40 53.1 40 51.2 40 C 49.3 40 48.3 40 46.4 40 C 44.5 40 43.6 40 41.6 40 C 39.7 40 38.8 40 36.9 40 C 34.9 40 34.0 40 32.1 40 C 30.2 40 29.2 40 27.3 40 C 25.4 40 24.4 40 22.5 40 C 20.6 40 19.6 40 17.7 40 C 15.8 40 14.8 40 12.9 40 C 11.0 40 10.0 40 8.1 40 C 4.9 40 0 40 0 40">
			</path>
			<path fill="none" d="M 0 34.1 C 0 34.1 4.9 32.8 8.1 32.8 C 10.0 32.8 11.0 33.0 12.9 33.0 C 14.8 33.0 15.8 33.0 17.7 32.6 C 19.6 32.2 20.6 31.6 22.5 30.7 C 24.4 29.7 25.4 28.0 27.3 28.0 C 29.2 28.0 30.2 28.4 32.1 28.4 C 34.0 28.4 34.9 28.4 36.9 28.4 C 38.8 28.4 39.7 28.4 41.6 28.6 C 43.6 28.8 44.5 29.3 46.4 30.0 C 48.3 30.7 49.3 31.3 51.2 32.1 C 53.1 32.9 54.1 34.0 56.0 34.0 C 57.9 34.0 58.9 32.4 60.8 32.4 C 62.7 32.4 63.7 33.3 65.6 33.3 C 67.5 33.3 68.4 33.0 70.4 32.8 C 72.3 32.7 75.2 32.4 75.2 32.4 M 79.9 32.6 C 79.9 32.6 82.8 31.2 84.7 31.2 C 86.6 31.2 87.6 31.6 89.5 31.9 C 91.4 32.3 92.4 32.9 94.3 32.9 C 96.2 32.9 97.2 32.8 99.1 32.8 C 101.0 32.8 102.0 33.3 103.9 33.8 C 105.8 34.4 106.7 35.0 108.7 35.6 C 110.6 36.2 111.5 36.6 113.4 36.6 C 115.4 36.6 116.3 36.6 118.2 36.5 C 120.2 36.5 121.1 36.4 123.0 36.4 C 124.9 36.4 125.9 36.4 127.8 36.4 C 129.7 36.4 130.7 36.4 132.6 36.3 C 134.5 36.2 135.5 35.3 137.4 35.3 C 139.3 35.3 140.3 35.9 142.2 35.9 C 144.1 35.9 145.0 35.4 147.0 35.4 C 148.9 35.4 151.7 35.5 151.7 35.5 M 156.5 33.6 C 156.5 33.6 159.4 32.2 161.3 31.6 C 163.2 31.1 164.2 30.9 166.1 30.7 C 168.0 30.4 169.0 30.7 170.9 30.3 C 172.8 29.9 173.8 27.9 175.7 27.9 C 177.6 27.9 178.6 27.9 180.5 28.0 C 182.4 28.0 183.3 28.2 185.3 28.2 C 187.2 28.2 188.1 27.7 190.0 27.5 C 192.0 27.2 192.9 27.0 194.8 27.0 C 196.7 27.0 197.7 27.1 199.6 27.2 C 201.5 27.2 202.5 27.3 204.4 27.3 C 206.3 27.3 207.3 27.2 209.2 27.2 C 211.1 27.2 212.1 27.2 214.0 27.2 C 215.9 27.2 216.9 26.6 218.8 26.6 C 220.7 26.6 221.6 27.1 223.6 27.1 C 225.5 27.1 228.3 26.0 228.3 26.0 M 233.1 22.3 C 233.1 22.3 236.0 22.3 237.9 22.4 C 239.8 22.4 240.8 22.6 242.7 22.6 C 244.6 22.6 245.6 20.6 247.5 19.7 C 249.4 18.8 250.4 18.6 252.3 18.1 C 254.2 17.5 255.1 17.0 257.1 17.0 C 259.0 17.0 259.9 17.5 261.9 17.5 C 263.8 17.5 264.7 17.1 266.6 17.0 C 268.6 16.9 269.5 16.8 271.4 16.8 C 273.3 16.8 274.3 17.4 276.2 17.7 C 278.1 17.9 279.1 18.1 281.0 18.1 C 282.9 18.1 283.9 17.6 285.8 17.4 C 287.7 17.1 288.7 16.9 290.6 16.9 C 292.5 16.9 293.4 16.9 295.4 16.9 C 297.3 16.9 298.2 15.6 300.1 15.6 C 302.1 15.6 304.9 16.6 304.9 16.6 M 309.7 14.1 C 309.7 14.1 312.6 13.5 314.5 13.1 C 316.4 12.6 317.4 12.2 319.3 11.9 C 321.2 11.5 322.2 11.4 324.1 11.4 C 326.0 11.4 327.0 11.8 328.9 12.0 C 330.8 12.2 331.7 12.3 333.7 12.3 C 335.6 12.3 336.5 12.1 338.4 12.0 C 340.4 11.9 341.3 11.6 343.2 11.6 C 345.1 11.6 346.1 12.3 348.0 12.5 C 349.9 12.7 350.9 12.7 352.8 12.7 C 354.7 12.7 355.7 12.3 357.6 12.3 C 359.5 12.3 360.5 12.3 362.4 12.3 C 364.3 12.4 365.3 12.6 367.2 13.0 C 369.1 13.5 370.0 14.0 372.0 14.5 C 373.9 15.0 374.8 15.4 376.7 15.4 C 378.7 15.4 381.5 14.8 381.5 14.8 M 386.3 15.6 C 386.3 15.6 389.2 13.8 391.1 13.6 C 393.0 13.4 394.0 13.4 395.9 13.4 C 397.8 13.4 398.8 14.0 400.7 14.0 C 402.6 14.0 403.5 13.1 405.5 13.1 C 407.4 13.0 408.3 13.0 410.3 13.0 C 412.2 13.0 413.1 13.2 415.0 13.2 C 417.0 13.2 417.9 12.4 419.8 12.4 C 421.7 12.4 422.7 12.4 424.6 12.4 C 426.5 12.5 427.5 12.4 429.4 12.5 C 431.3 12.7 432.3 13.1 434.2 13.1 C 436.1 13.1 437.1 13.0 439.0 13.0 C 440.9 13.0 441.8 13.3 443.8 13.3 C 445.7 13.3 446.6 13.1 448.5 12.8 C 450.5 12.5 451.4 11.8 453.3 11.8 C 455.3 11.8 458.1 12.0 458.1 12.0 M 462.9 5.5 C 462.9 5.5 465.8 5.4 467.7 5.3 C 469.6 5.2 470.6 5.0 472.5 5.0 C 474.4 5.0 475.4 5.4 477.3 5.6 C 479.2 5.8 480.1 5.9 482.1 5.9 C 484.0 5.9 484.9 5.7 486.8 5.7 C 488.8 5.7 489.7 5.7 491.6 5.8 C 493.5 5.9 494.5 6.2 496.4 6.2 C 498.3 6.2 499.3 6.2 501.2 6.0 C 503.1 5.9 504.1 5.7 506.0 5.5 C 507.9 5.3 508.9 5.2 510.8 5.1 C 512.7 4.9 513.7 5.0 515.6 4.8 C 517.5 4.6 518.4 4.2 520.4 4.0 C 522.3 3.8 523.2 3.8 525.1 3.8 C 527.1 3.8 528.0 3.9 529.9 3.9 C 530.5 3.9 531.3 3.3 531.3 3.3" stroke="#4572A7" stroke-width="1" stroke-linejoin="round" stroke-linecap="round">
			</path>
		</g>
		<g class="highcharts-markers highcharts-series-1" transform="translate(24,331) scale(1 1)" clip-path="none">
		</g>
	</g>
	<g class="highcharts-navigator">
		<rect fill="rgb(128,179,236)" fill-opacity="0.3" style="cursor:ew-resize;" x="483" y="331" width="77" height="40">
		</rect>
		<path fill="none" stroke="#b2b1b6" stroke-width="1" d="M 10 331.5 L 482.5 331.5 482.5 385.5 L 559.5 385.5 L 559.5 331.5 574 331.5 M 483.5 331.5 L 559.5 331.5">
		</path>
	</g>
	<text x="292" text-anchor="middle" class="highcharts-title" style="color:#333333;font-size:16px;fill:#333333;width:520px;" y="22">
		<tspan>AAPL stock price by minute
		</tspan>
	</text>
	<text x="292" text-anchor="middle" class="highcharts-subtitle" style="color:#555555;fill:#555555;width:520px;" y="43">
		<tspan>Using explicit breaks for nights and weekends
		</tspan>
	</text>
	<g class="highcharts-axis-labels highcharts-xaxis-labels">
		<text x="29.5" style="color:#606060;cursor:default;font-size:11px;fill:#606060;" text-anchor="middle" transform="translate(0,0)" y="304" opacity="1">
			<tspan>14. Oct
			</tspan>
		</text>
		<text x="81.6" style="color:#606060;cursor:default;font-size:11px;fill:#606060;" text-anchor="middle" transform="translate(0,0)" y="304" opacity="1">09:00
		</text>
		<text x="152.1" style="color:#606060;cursor:default;font-size:11px;fill:#606060;" text-anchor="middle" transform="translate(0,0)" y="304" opacity="1">10:00
		</text>
		<text x="222.6" style="color:#606060;cursor:default;font-size:11px;fill:#606060;" text-anchor="middle" transform="translate(0,0)" y="304" opacity="1">11:00
		</text>
		<text x="293.1" style="color:#606060;cursor:default;font-size:11px;fill:#606060;" text-anchor="middle" transform="translate(0,0)" y="304" opacity="1">12:00
		</text>
		<text x="363.6" style="color:#606060;cursor:default;font-size:11px;fill:#606060;" text-anchor="middle" transform="translate(0,0)" y="304" opacity="1">13:00
		</text>
		<text x="434.1" style="color:#606060;cursor:default;font-size:11px;fill:#606060;" text-anchor="middle" transform="translate(0,0)" y="304" opacity="1">14:00
		</text>
		<text x="504.6" style="color:#606060;cursor:default;font-size:11px;fill:#606060;" text-anchor="middle" transform="translate(0,0)" y="304" opacity="1">15:00
		</text>
	</g>
	<g class="highcharts-axis-labels highcharts-xaxis-labels">
		<text x="27" style="color:#888;cursor:default;font-size:11px;fill:#888;" text-anchor="start" transform="translate(0,0)" y="367" opacity="1">
			<tspan> 6. Oct
			</tspan>
		</text>
		<text x="256.7" style="color:#888;cursor:default;font-size:11px;fill:#888;" text-anchor="start" transform="translate(0,0)" y="367" opacity="1">
			<tspan>11. Oct
			</tspan>
		</text>
		<text x="486.5" style="color:#888;cursor:default;font-size:11px;fill:#888;" text-anchor="start" transform="translate(0,0)" y="367" opacity="1">
			<tspan>14. Oct
			</tspan>
		</text>
	</g>
	<g class="highcharts-axis-labels highcharts-yaxis-labels">
		<text x="574" style="color:#606060;cursor:default;font-size:11px;fill:#606060;width:183px;text-overflow:clip;" text-anchor="end" transform="translate(0,0)" y="283" opacity="1">405
		</text>
		<text x="574" style="color:#606060;cursor:default;font-size:11px;fill:#606060;width:183px;text-overflow:clip;" text-anchor="end" transform="translate(0,0)" y="235" opacity="1">410
		</text>
		<text x="574" style="color:#606060;cursor:default;font-size:11px;fill:#606060;width:183px;text-overflow:clip;" text-anchor="end" transform="translate(0,0)" y="187" opacity="1">415
		</text>
		<text x="574" style="color:#606060;cursor:default;font-size:11px;fill:#606060;width:183px;text-overflow:clip;" text-anchor="end" transform="translate(0,0)" y="139" opacity="1">420
		</text>
		<text x="0" style="color:#606060;cursor:default;font-size:11px;fill:#606060;width:183px;text-overflow:clip;" text-anchor="end" transform="translate(0,0)" y="-9999">425
		</text>
	</g>
	<g class="highcharts-axis-labels highcharts-yaxis-labels">
	</g>
	<g class="highcharts-tooltip" style="cursor:default;padding:0;pointer-events:none;white-space:nowrap;" transform="translate(0,-9999)">
		<path fill="none" d="M 3.5 0.5 L 13.5 0.5 C 16.5 0.5 16.5 0.5 16.5 3.5 L 16.5 13.5 C 16.5 16.5 16.5 16.5 13.5 16.5 L 3.5 16.5 C 0.5 16.5 0.5 16.5 0.5 13.5 L 0.5 3.5 C 0.5 0.5 0.5 0.5 3.5 0.5"  stroke="black" stroke-opacity="0.0" stroke-width="5" transform="translate(1, 1)">
		</path>
		<path fill="none" d="M 3.5 0.5 L 13.5 0.5 C 16.5 0.5 16.5 0.5 16.5 3.5 L 16.5 13.5 C 16.5 16.5 16.5 16.5 13.5 16.5 L 3.5 16.5 C 0.5 16.5 0.5 16.5 0.5 13.5 L 0.5 3.5 C 0.5 0.5 0.5 0.5 3.5 0.5"  stroke="black" stroke-opacity="0.0" stroke-width="3" transform="translate(1, 1)">
		</path>
		<path fill="none" d="M 3.5 0.5 L 13.5 0.5 C 16.5 0.5 16.5 0.5 16.5 3.5 L 16.5 13.5 C 16.5 16.5 16.5 16.5 13.5 16.5 L 3.5 16.5 C 0.5 16.5 0.5 16.5 0.5 13.5 L 0.5 3.5 C 0.5 0.5 0.5 0.5 3.5 0.5"  stroke="black" stroke-opacity="0.1" stroke-width="1" transform="translate(1, 1)">
		</path>
		<path fill="rgb(249, 249, 249)" fill-opacity=" .85" d="M 3.5 0.5 L 13.5 0.5 C 16.5 0.5 16.5 0.5 16.5 3.5 L 16.5 13.5 C 16.5 16.5 16.5 16.5 13.5 16.5 L 3.5 16.5 C 0.5 16.5 0.5 16.5 0.5 13.5 L 0.5 3.5 C 0.5 0.5 0.5 0.5 3.5 0.5">
		</path>
		<text x="8" style="font-size:12px;color:#333333;fill:#333333;" y="20">
		</text>
	</g>
	<g class="highcharts-navigator-handle-right" style="cursor:ew-resize;" transform="translate(560,343)">
		<rect x="-4.5" y="0.5" width="8" height="15" fill="#ebe7e8" stroke="#b2b1b6" stroke-width="1">
		</rect>
		<path fill="#ebe7e8" d="M -1.5 4 L -1.5 12 M 0.5 4 L 0.5 12" stroke="#b2b1b6" stroke-width="1">
		</path>
	</g>
	<g class="highcharts-navigator-handle-left" style="cursor:ew-resize;" transform="translate(483,343)">
		<rect x="-4.5" y="0.5" width="8" height="15" fill="#ebe7e8" stroke="#b2b1b6" stroke-width="1">
		</rect>
		<path fill="#ebe7e8" d="M -1.5 4 L -1.5 12 M 0.5 4 L 0.5 12" stroke="#b2b1b6" stroke-width="1">
		</path>
	</g>
</svg>