
<svg version="1.1" style="font-family:&quot;lucida grande&quot;, &quot;lucida sans unicode&quot;, arial, helvetica, sans-serif;font-size:12px;" xmlns="http://www.w3.org/2000/svg" viewBox="0 0 584 400">
	<desc>Created with Highstock 4.2.4
	</desc>
	<defs>
		<clipPath id="highcharts-1">
			<rect x="0" y="0" width="564" height="220">
			</rect>
		</clipPath>
		<clipPath id="highcharts-2">
			<rect x="0" y="0" width="564" height="220">
			</rect>
		</clipPath>
		<clipPath id="highcharts-3">
			<rect x="0" y="0" width="564" height="40">
			</rect>
		</clipPath>
	</defs>
	<rect x="0" y="0" width="584" height="400" fill="#FFFFFF" class=" highcharts-background">
	</rect>
	<g class="highcharts-range-selector-buttons" transform="translate(0,44)">
		<text x="10" y="15" style="color:#666;fill:#666;">Zoom
		</text>
		<g class="highcharts-button" states="[object Object]" style="cursor:pointer;text-align:center;" transform="translate(48,0)">
			<rect x="0" y="0" width="32" height="22" fill="#f7f7f7" rx="0" ry="0">
			</rect>
			<text x="6.6" style="font-weight:normal;color:#444;fill:#444;" y="14">1m
			</text>
		</g>
		<g class="highcharts-button" states="[object Object]" style="cursor:pointer;text-align:center;" transform="translate(85,0)">
			<rect x="0" y="0" width="32" height="22" fill="#e7f0f9" rx="0" ry="0">
			</rect>
			<text x="6.6" style="font-weight:bold;color:black;fill:black;" y="14">3m
			</text>
		</g>
		<g class="highcharts-button" states="[object Object]" style="cursor:pointer;text-align:center;" transform="translate(122,0)">
			<rect x="0" y="0" width="32" height="22" fill="#f7f7f7" rx="0" ry="0">
			</rect>
			<text x="6.6" style="font-weight:normal;color:#444;fill:#444;" y="14">6m
			</text>
		</g>
		<g class="highcharts-button" states="[object Object]" style="cursor:pointer;text-align:center;" transform="translate(159,0)">
			<rect x="0" y="0" width="32" height="22" fill="#f7f7f7" rx="0" ry="0">
			</rect>
			<text x="3.9" style="font-weight:normal;color:#444;fill:#444;" y="14">YTD
			</text>
		</g>
		<g class="highcharts-button" states="[object Object]" style="cursor:pointer;text-align:center;" transform="translate(196,0)">
			<rect x="0" y="0" width="32" height="22" fill="#f7f7f7" rx="0" ry="0">
			</rect>
			<text x="9.0" style="font-weight:normal;color:#444;fill:#444;" y="14">1y
			</text>
		</g>
		<g class="highcharts-button" states="[object Object]" style="cursor:pointer;text-align:center;" transform="translate(233,0)">
			<rect x="0" y="0" width="32" height="22" fill="#f7f7f7" rx="0" ry="0">
			</rect>
			<text x="8.3" style="font-weight:normal;color:#444;fill:#444;" y="14">All
			</text>
		</g>
	</g>
	<g class="highcharts-input-group" transform="translate(313,44)" visibility="visible">
		<g style="fill:#666;" transform="translate(0,0)">
			<text x="2" style="font-size:12px;font-family:&quot;lucida grande&quot;, &quot;lucida sans unicode&quot;, arial, helvetica, sans-serif;color:#666;fill:#666;" y="14">From
			</text>
		</g>
		<g style="text-align:center;" transform="translate(39,0)">
			<rect x="0.5" y="0.5" width="94" height="21" fill="none" stroke="silver" stroke-width="1">
			</rect>
			<text x="9.6" style="font-size:12px;font-family:&quot;lucida grande&quot;, &quot;lucida sans unicode&quot;, arial, helvetica, sans-serif;color:#444;fill:#444;" y="14">
				<tspan>Jan 21, 2016
				</tspan>
			</text>
		</g>
		<g style="fill:#666;" transform="translate(143,0)">
			<text x="2" style="font-size:12px;font-family:&quot;lucida grande&quot;, &quot;lucida sans unicode&quot;, arial, helvetica, sans-serif;color:#666;fill:#666;" y="14">To
			</text>
		</g>
		<g style="text-align:center;" transform="translate(167,0)">
			<rect x="0.5" y="0.5" width="94" height="21" fill="none" stroke="silver" stroke-width="1">
			</rect>
			<text x="8.2" style="font-size:12px;font-family:&quot;lucida grande&quot;, &quot;lucida sans unicode&quot;, arial, helvetica, sans-serif;color:#444;fill:#444;" y="14">
				<tspan>Apr 21, 2016
				</tspan>
			</text>
		</g>
	</g>
	<g class="highcharts-grid">
	</g>
	<g class="highcharts-grid">
		<path fill="none" d="M 65.5 345 L 65.5 385" stroke="#EEE" stroke-width="1" opacity="1">
		</path>
		<path fill="none" d="M 226.5 345 L 226.5 385" stroke="#EEE" stroke-width="1" opacity="1">
		</path>
		<path fill="none" d="M 387.5 345 L 387.5 385" stroke="#EEE" stroke-width="1" opacity="1">
		</path>
		<path fill="none" d="M 548.5 345 L 548.5 385" stroke="#EEE" stroke-width="1" opacity="1">
		</path>
	</g>
	<g class="highcharts-grid">
		<path fill="none" d="M 10 299.5 L 574 299.5" stroke="#D8D8D8" stroke-width="1" opacity="1">
		</path>
		<path fill="none" d="M 10 255.5 L 574 255.5" stroke="#D8D8D8" stroke-width="1" opacity="1">
		</path>
		<path fill="none" d="M 10 211.5 L 574 211.5" stroke="#D8D8D8" stroke-width="1" opacity="1">
		</path>
		<path fill="none" d="M 10 167.5 L 574 167.5" stroke="#D8D8D8" stroke-width="1" opacity="1">
		</path>
		<path fill="none" d="M 10 123.5 L 574 123.5" stroke="#D8D8D8" stroke-width="1" opacity="1">
		</path>
		<path fill="none" d="M 10 79.5 L 574 79.5" stroke="#D8D8D8" stroke-width="1" opacity="1">
		</path>
	</g>
	<g class="highcharts-grid">
	</g>
	<g class="highcharts-axis">
		<path fill="none" d="M 71.5 299 L 71.5 309" stroke="#C0D0E0" stroke-width="1" opacity="1">
		</path>
		<path fill="none" d="M 159.5 299 L 159.5 309" stroke="#C0D0E0" stroke-width="1" opacity="1">
		</path>
		<path fill="none" d="M 242.5 299 L 242.5 309" stroke="#C0D0E0" stroke-width="1" opacity="1">
		</path>
		<path fill="none" d="M 331.5 299 L 331.5 309" stroke="#C0D0E0" stroke-width="1" opacity="1">
		</path>
		<path fill="none" d="M 412.5 299 L 412.5 309" stroke="#C0D0E0" stroke-width="1" opacity="1">
		</path>
		<path fill="none" d="M 501.5 299 L 501.5 309" stroke="#C0D0E0" stroke-width="1" opacity="1">
		</path>
		<path fill="none" d="M 10 299.5 L 574 299.5" stroke="#C0D0E0" stroke-width="1">
		</path>
	</g>
	<g class="highcharts-axis">
	</g>
	<g class="highcharts-axis">
	</g>
	<g class="highcharts-axis">
	</g>
	<g class="highcharts-series-group">
		<g class="highcharts-series highcharts-series-0" transform="translate(10,79) scale(1 1)" clip-path="url(#highcharts-2)">
			<path fill="none" d="M -0.3 164.5 L 8.5 119.5 L 17.5 136.9 L 26.5 132.0 L 35.4 189.9 L 44.4 184.0 L 53.3 155.4 L 62.3 163.4 L 71.2 180.5 L 80.2 164.1 L 89.2 161.9 L 98.1 184.6 L 107.1 175.9 L 116.0 176.0 L 125.0 182.4 L 134.0 187.4 L 142.9 184.8 L 151.9 161.5 L 160.8 148.5 L 169.8 164.9 L 178.7 166.8 L 187.7 159.4 L 196.7 178.7 L 205.6 166.3 L 214.6 160.5 L 223.5 159.1 L 232.5 161.1 L 241.5 127.3 L 250.4 125.3 L 259.4 118.8 L 268.3 105.5 L 277.3 115.5 L 286.2 122.9 L 295.2 122.1 L 304.2 121.7 L 313.1 112.1 L 322.1 109.8 L 331.0 91.6 L 340.0 79.4 L 349.0 80.9 L 357.9 79.9 L 366.9 79.9 L 375.8 72.8 L 384.8 78.0 L 393.7 82.1 L 402.7 86.3 L 411.7 64.4 L 420.6 47.8 L 429.6 52.8 L 438.5 44.0 L 447.5 34.1 L 456.5 45.6 L 465.4 35.5 L 474.4 56.8 L 483.3 55.7 L 492.3 52.6 L 501.2 40.1 L 510.2 26.0 L 519.2 25.5 L 528.1 45.3 L 537.1 66.1 L 546.0 71.1 L 555.0 69.2 L 564 79.4" stroke="#7cb5ec" stroke-width="2" stroke-linejoin="round" stroke-linecap="round">
			</path>
			<path fill="none" d="M -10.3 164.5 L -0.3 164.5 L 8.5 119.5 L 17.5 136.9 L 26.5 132.0 L 35.4 189.9 L 44.4 184.0 L 53.3 155.4 L 62.3 163.4 L 71.2 180.5 L 80.2 164.1 L 89.2 161.9 L 98.1 184.6 L 107.1 175.9 L 116.0 176.0 L 125.0 182.4 L 134.0 187.4 L 142.9 184.8 L 151.9 161.5 L 160.8 148.5 L 169.8 164.9 L 178.7 166.8 L 187.7 159.4 L 196.7 178.7 L 205.6 166.3 L 214.6 160.5 L 223.5 159.1 L 232.5 161.1 L 241.5 127.3 L 250.4 125.3 L 259.4 118.8 L 268.3 105.5 L 277.3 115.5 L 286.2 122.9 L 295.2 122.1 L 304.2 121.7 L 313.1 112.1 L 322.1 109.8 L 331.0 91.6 L 340.0 79.4 L 349.0 80.9 L 357.9 79.9 L 366.9 79.9 L 375.8 72.8 L 384.8 78.0 L 393.7 82.1 L 402.7 86.3 L 411.7 64.4 L 420.6 47.8 L 429.6 52.8 L 438.5 44.0 L 447.5 34.1 L 456.5 45.6 L 465.4 35.5 L 474.4 56.8 L 483.3 55.7 L 492.3 52.6 L 501.2 40.1 L 510.2 26.0 L 519.2 25.5 L 528.1 45.3 L 537.1 66.1 L 546.0 71.1 L 555.0 69.2 L 564 79.4 L 574 79.4" stroke-linejoin="round" visibility="visible" stroke="rgb(192,192,192)" stroke-opacity="0.0" stroke-width="22" class=" highcharts-tracker" style="">
			</path>
		</g>
		<g class="highcharts-markers highcharts-series-0 highcharts-tracker" transform="translate(10,79) scale(1 1)" style="" clip-path="none">
		</g>
		<g class="highcharts-series highcharts-series-1" transform="translate(10,345) scale(1 1)" clip-path="url(#highcharts-3)">
			<path fill="#4572A7" d="M 0 36.6 C 0 36.6 0.9 36.6 1.5 36.5 C 2.1 36.5 2.4 36.3 3.0 36.3 C 3.7 36.3 4.0 36.6 4.6 36.6 C 5.2 36.6 5.5 36.6 6.1 36.6 C 6.7 36.5 7.1 36.3 7.7 36.2 C 8.3 36.1 8.6 35.9 9.2 35.9 C 9.8 35.9 10.1 35.9 10.8 35.9 C 11.4 35.9 11.7 36.1 12.3 36.1 C 12.9 36.1 13.2 36.1 13.9 36.0 C 14.5 36.0 14.8 35.9 15.4 35.9 C 16.0 35.9 16.3 36.1 16.9 36.1 C 17.6 36.1 17.9 35.8 18.5 35.7 C 19.1 35.5 19.4 35.4 20.0 35.3 C 20.7 35.1 21.0 35.1 21.6 35.0 C 22.2 35.0 22.5 34.9 23.1 34.9 C 23.7 34.9 24.1 34.9 24.7 34.9 C 25.3 34.9 25.6 34.9 26.2 34.9 C 26.8 34.9 27.1 34.7 27.8 34.7 C 28.4 34.7 28.7 34.8 29.3 34.8 C 29.9 34.8 30.2 34.7 30.9 34.6 C 31.5 34.5 31.8 34.3 32.4 34.2 C 33.0 34.2 33.3 34.1 33.9 34.1 C 34.6 34.1 34.9 34.1 35.5 34.1 C 36.1 34.0 36.4 33.9 37.0 33.9 C 37.7 33.8 38.0 33.9 38.6 33.8 C 39.2 33.8 39.5 33.4 40.1 33.4 C 40.7 33.4 41.1 33.5 41.7 33.6 C 42.3 33.7 42.6 33.8 43.2 33.8 C 43.8 33.8 44.1 33.3 44.8 33.3 C 45.4 33.2 45.7 33.2 46.3 33.2 C 46.9 33.2 47.2 33.2 47.9 33.3 C 48.5 33.3 48.8 33.5 49.4 33.6 C 50.0 33.6 50.3 33.7 50.9 33.7 C 51.6 33.7 51.9 33.7 52.5 33.6 C 53.1 33.6 53.4 33.4 54.0 33.3 C 54.7 33.2 55.0 33.0 55.6 33.0 C 56.2 32.9 56.5 32.9 57.1 32.9 C 57.7 32.9 58.0 33.0 58.7 33.0 C 59.3 33.1 59.6 33.0 60.2 33.1 C 60.8 33.1 61.1 33.2 61.8 33.3 C 62.4 33.4 62.7 33.6 63.3 33.6 C 63.9 33.6 64.2 33.6 64.8 33.5 C 65.5 33.5 65.8 33.3 66.4 33.3 C 67.0 33.3 67.3 33.4 67.9 33.4 C 68.6 33.4 68.9 33.1 69.5 32.9 C 70.1 32.7 70.4 32.4 71.0 32.4 C 71.6 32.4 72.0 32.4 72.6 32.4 C 73.2 32.4 73.5 32.3 74.1 32.2 C 74.7 32.1 75.0 32.1 75.7 32.0 C 76.3 31.9 76.6 31.8 77.2 31.7 C 77.8 31.6 78.1 31.7 78.8 31.5 C 79.4 31.4 79.7 31.1 80.3 31.0 C 80.9 30.8 81.2 30.7 81.8 30.7 C 82.5 30.7 82.8 31.2 83.4 31.2 C 84.0 31.2 84.3 31.0 84.9 31.0 C 85.6 31.0 85.9 31.4 86.5 31.4 C 87.1 31.4 87.4 31.4 88.0 31.3 C 88.6 31.2 89.0 30.8 89.6 30.8 C 90.2 30.8 90.5 31.3 91.1 31.3 C 91.7 31.3 92.0 30.8 92.7 30.7 C 93.3 30.5 93.6 30.5 94.2 30.5 C 94.8 30.5 95.1 31.1 95.8 31.1 C 96.4 31.1 96.7 31.0 97.3 31.0 C 97.9 31.0 98.2 31.2 98.8 31.2 C 99.5 31.2 99.8 31.2 100.4 31.1 C 101.0 31.1 101.3 31.0 101.9 30.9 C 102.6 30.8 102.9 30.8 103.5 30.8 C 104.1 30.8 104.4 31.0 105.0 31.1 C 105.6 31.2 106.0 31.2 106.6 31.3 C 107.2 31.4 107.5 31.6 108.1 31.6 C 108.7 31.6 109.0 31.5 109.7 31.3 C 110.3 31.2 110.6 31.0 111.2 30.8 C 111.8 30.6 112.1 30.6 112.8 30.4 C 113.4 30.2 113.7 29.7 114.3 29.7 C 114.9 29.7 115.2 29.8 115.8 29.8 C 116.5 29.8 116.8 29.8 117.4 29.7 C 118.0 29.6 118.3 29.3 118.9 29.1 C 119.5 28.9 119.9 28.7 120.5 28.7 C 121.1 28.7 121.4 28.9 122.0 28.9 C 122.6 28.9 122.9 28.8 123.6 28.7 C 124.2 28.6 124.5 28.6 125.1 28.6 C 125.7 28.6 126.0 29.0 126.7 29.0 C 127.3 29.0 127.6 28.8 128.2 28.7 C 128.8 28.6 129.1 28.6 129.7 28.5 C 130.4 28.5 130.7 28.4 131.3 28.4 C 131.9 28.3 132.2 28.4 132.8 28.3 C 133.5 28.3 133.8 28.2 134.4 28.2 C 135.0 28.2 135.3 28.2 135.9 28.2 C 136.5 28.2 136.9 28.0 137.5 27.8 C 138.1 27.7 138.4 27.3 139.0 27.3 C 139.6 27.3 139.9 27.7 140.6 27.7 C 141.2 27.7 141.5 27.6 142.1 27.5 C 142.7 27.4 143.0 27.5 143.7 27.4 C 144.3 27.2 144.6 27.0 145.2 26.9 C 145.8 26.8 146.1 26.8 146.7 26.8 C 147.4 26.8 147.7 27.4 148.3 27.4 C 148.9 27.4 149.2 26.9 149.8 26.9 C 150.5 26.9 150.8 26.9 151.4 27.0 C 152.0 27.1 152.3 27.6 152.9 27.6 C 153.5 27.6 153.9 27.5 154.5 27.4 C 155.1 27.3 155.4 27.2 156.0 27.2 C 156.6 27.2 156.9 27.5 157.6 27.6 C 158.2 27.7 158.5 27.9 159.1 27.9 C 159.7 27.9 160.0 27.6 160.7 27.5 C 161.3 27.3 161.6 27.1 162.2 27.1 C 162.8 27.1 163.1 27.2 163.7 27.2 C 164.4 27.2 164.7 27.2 165.3 27.3 C 165.9 27.3 166.2 27.6 166.8 27.7 C 167.5 27.7 167.8 27.7 168.4 27.7 C 169.0 27.7 169.3 27.3 169.9 27.3 C 170.5 27.3 170.8 27.7 171.5 27.9 C 172.1 28.0 172.4 28.0 173.0 28.1 C 173.6 28.2 173.9 28.2 174.6 28.2 C 175.2 28.2 175.5 27.9 176.1 27.7 C 176.7 27.4 177.0 27.0 177.6 26.9 C 178.3 26.8 178.6 26.9 179.2 26.8 C 179.8 26.6 180.1 26.0 180.7 25.7 C 181.4 25.4 181.7 25.2 182.3 25.2 C 182.9 25.2 183.2 25.4 183.8 25.6 C 184.4 25.8 184.8 26.3 185.4 26.3 C 186.0 26.3 186.3 26.1 186.9 26.1 C 187.5 26.1 187.8 26.1 188.5 26.1 C 189.1 26.1 189.4 25.7 190.0 25.7 C 190.6 25.7 190.9 25.8 191.6 25.8 C 192.2 25.8 192.5 25.7 193.1 25.4 C 193.7 25.2 194.0 24.6 194.6 24.6 C 195.3 24.6 195.6 25.0 196.2 25.2 C 196.8 25.5 197.1 26.1 197.7 26.1 C 198.4 26.1 198.7 24.9 199.3 24.8 C 199.9 24.8 200.2 24.8 200.8 24.8 C 201.4 24.8 201.8 24.8 202.4 24.9 C 203.0 24.9 203.3 24.9 203.9 25.0 C 204.5 25.1 204.8 25.1 205.5 25.2 C 206.1 25.4 206.4 25.6 207.0 25.8 C 207.6 26.0 207.9 26.3 208.6 26.3 C 209.2 26.3 209.5 26.0 210.1 25.8 C 210.7 25.6 211.0 25.4 211.6 25.4 C 212.3 25.4 212.6 25.7 213.2 25.7 C 213.8 25.7 214.1 25.4 214.7 25.2 C 215.4 25.0 215.7 25.0 216.3 24.8 C 216.9 24.6 217.2 24.5 217.8 24.3 C 218.4 24.2 218.8 24.2 219.4 24.1 C 220.0 24.0 220.3 24.1 220.9 23.9 C 221.5 23.8 221.8 23.7 222.5 23.4 C 223.1 23.2 223.4 23.0 224.0 22.6 C 224.6 22.3 224.9 22.1 225.6 21.7 C 226.2 21.3 226.5 21.0 227.1 20.7 C 227.7 20.4 228.0 20.4 228.6 20.1 C 229.3 19.8 229.6 19.2 230.2 19.2 C 230.8 19.2 231.1 19.3 231.7 19.3 C 232.3 19.3 232.7 18.1 233.3 17.6 C 233.9 17.0 234.2 16.8 234.8 16.6 C 235.4 16.3 235.7 16.4 236.4 16.2 C 237.0 16.0 237.3 15.5 237.9 15.5 C 238.5 15.5 238.8 15.5 239.5 15.6 C 240.1 15.7 240.4 16.9 241.0 16.9 C 241.6 17.0 241.9 16.9 242.5 17.0 C 243.2 17.0 243.5 17.3 244.1 17.4 C 244.7 17.6 245.0 17.6 245.6 17.9 C 246.3 18.2 246.6 19.0 247.2 19.0 C 247.8 19.0 248.1 18.4 248.7 18.1 C 249.3 17.9 249.7 17.7 250.3 17.7 C 250.9 17.7 251.2 17.8 251.8 17.8 C 252.4 17.8 252.7 17.8 253.4 17.7 C 254.0 17.6 254.3 17.3 254.9 17.3 C 255.5 17.3 255.8 17.7 256.5 17.7 C 257.1 17.7 257.4 16.7 258.0 16.5 C 258.6 16.3 258.9 16.4 259.5 16.3 C 260.2 16.3 260.5 16.3 261.1 16.3 C 261.7 16.3 262.0 17.1 262.6 17.1 C 263.3 17.1 263.6 16.6 264.2 16.3 C 264.8 16.0 265.1 15.9 265.7 15.7 C 266.3 15.5 266.7 15.5 267.3 15.1 C 267.9 14.7 268.2 14.2 268.8 13.9 C 269.4 13.6 269.7 13.7 270.4 13.6 C 271.0 13.5 271.3 13.4 271.9 13.4 C 272.5 13.4 272.8 13.5 273.5 13.5 C 274.1 13.5 274.4 12.4 275.0 12.4 C 275.6 12.4 275.9 13.1 276.5 13.4 C 277.2 13.7 277.5 13.6 278.1 14.0 C 278.7 14.3 279.0 15.1 279.6 15.1 C 280.3 15.1 280.6 15.1 281.2 15.1 C 281.8 15.2 282.1 15.6 282.7 15.9 C 283.3 16.3 283.6 16.6 284.3 17.0 C 284.9 17.5 285.2 17.7 285.8 18.2 C 286.4 18.6 286.7 19.3 287.4 19.3 C 288.0 19.3 288.3 18.5 288.9 18.1 C 289.5 17.6 289.8 17.2 290.4 17.2 C 291.1 17.2 291.4 18.0 292.0 18.4 C 292.6 18.9 292.9 19.3 293.5 19.5 C 294.2 19.8 294.5 19.7 295.1 19.8 C 295.7 19.9 296.0 20.2 296.6 20.2 C 297.2 20.2 297.6 19.2 298.2 19.2 C 298.8 19.2 299.1 19.6 299.7 19.9 C 300.3 20.2 300.6 20.5 301.3 20.8 C 301.9 21.2 302.2 21.4 302.8 21.8 C 303.4 22.1 303.7 22.7 304.4 22.7 C 305.0 22.7 305.3 22.6 305.9 22.5 C 306.5 22.4 306.8 22.1 307.4 22.1 C 308.1 22.1 308.4 22.6 309.0 22.8 C 309.6 23.1 309.9 23.1 310.5 23.2 C 311.2 23.4 311.5 23.8 312.1 23.8 C 312.7 23.8 313.0 23.8 313.6 23.6 C 314.2 23.3 314.6 22.7 315.2 22.7 C 315.8 22.7 316.1 22.7 316.7 22.7 C 317.3 22.7 317.6 23.8 318.3 23.8 C 318.9 23.8 319.2 23.7 319.8 23.7 C 320.4 23.7 320.7 24.7 321.4 24.7 C 322.0 24.7 322.3 24.7 322.9 24.7 C 323.5 24.7 323.8 23.7 324.4 23.3 C 325.1 22.8 325.4 22.5 326.0 22.5 C 326.6 22.5 326.9 23.4 327.5 23.4 C 328.2 23.4 328.5 23.3 329.1 23.2 C 329.7 23.2 330.0 23.0 330.6 23.0 C 331.2 23.0 331.6 23.0 332.2 23.1 C 332.8 23.2 333.1 23.3 333.7 23.5 C 334.3 23.7 334.6 23.7 335.3 24.0 C 335.9 24.3 336.2 25.1 336.8 25.1 C 337.4 25.1 337.7 24.5 338.4 24.3 C 339.0 24.1 339.3 24.2 339.9 24.1 C 340.5 24.0 340.8 23.9 341.4 23.8 C 342.1 23.7 342.4 23.8 343.0 23.6 C 343.6 23.4 343.9 23.0 344.5 22.7 C 345.1 22.5 345.5 22.7 346.1 22.4 C 346.7 22.0 347.0 21.5 347.6 21.2 C 348.2 20.8 348.5 20.7 349.2 20.7 C 349.8 20.7 350.1 21.1 350.7 21.1 C 351.3 21.1 351.6 21.0 352.3 21.0 C 352.9 21.0 353.2 21.3 353.8 21.6 C 354.4 21.9 354.7 22.4 355.3 22.4 C 356.0 22.4 356.3 21.4 356.9 21.4 C 357.5 21.4 357.8 21.5 358.4 21.5 C 359.1 21.5 359.4 21.5 360.0 21.3 C 360.6 21.2 360.9 21.0 361.5 20.7 C 362.1 20.4 362.5 19.8 363.1 19.8 C 363.7 19.8 364.0 19.8 364.6 19.8 C 365.2 19.9 365.5 19.9 366.2 19.9 C 366.8 19.9 367.1 19.8 367.7 19.8 C 368.3 19.8 368.6 20.0 369.3 20.0 C 369.9 20.0 370.2 19.5 370.8 19.1 C 371.4 18.8 371.7 18.2 372.3 18.2 C 373.0 18.2 373.3 18.2 373.9 18.2 C 374.5 18.2 374.8 18.6 375.4 18.6 C 376.1 18.6 376.4 18.0 377.0 18.0 C 377.6 18.0 377.9 18.4 378.5 18.6 C 379.1 18.8 379.5 19.1 380.1 19.1 C 380.7 19.1 381.0 18.9 381.6 18.8 C 382.2 18.7 382.5 18.7 383.2 18.7 C 383.8 18.7 384.1 20.3 384.7 20.3 C 385.3 20.3 385.6 20.3 386.3 20.3 C 386.9 20.3 387.2 19.2 387.8 19.2 C 388.4 19.2 388.7 19.2 389.3 19.3 C 390.0 19.4 390.3 19.8 390.9 19.8 C 391.5 19.8 391.8 19.6 392.4 19.5 C 393.1 19.5 393.4 19.5 394.0 19.5 C 394.6 19.5 394.9 19.5 395.5 19.5 C 396.1 19.5 396.4 19.1 397.1 19.1 C 397.7 19.1 398.0 19.1 398.6 19.2 C 399.2 19.2 399.5 19.7 400.2 19.8 C 400.8 19.9 401.1 19.9 401.7 19.9 C 402.3 19.9 402.6 19.5 403.2 18.9 C 403.9 18.3 404.2 16.9 404.8 16.9 C 405.4 16.9 405.7 16.9 406.3 16.9 C 407.0 16.9 407.3 16.9 407.9 16.9 C 408.5 16.8 408.8 16.6 409.4 16.3 C 410.0 16.0 410.4 15.6 411.0 15.4 C 411.6 15.1 411.9 15.1 412.5 14.9 C 413.1 14.7 413.4 14.4 414.1 14.4 C 414.7 14.4 415.0 14.7 415.6 14.8 C 416.2 14.9 416.5 15.1 417.2 15.1 C 417.8 15.1 418.1 14.6 418.7 14.3 C 419.3 14.0 419.6 13.7 420.2 13.7 C 420.9 13.7 421.2 13.9 421.8 13.9 C 422.4 13.9 422.7 13.7 423.3 13.5 C 424.0 13.4 424.3 13.1 424.9 13.1 C 425.5 13.1 425.8 13.9 426.4 13.9 C 427.0 13.9 427.4 13.6 428.0 13.3 C 428.6 13.0 428.9 12.5 429.5 12.3 C 430.1 12.0 430.4 11.8 431.1 11.8 C 431.7 11.8 432.0 12.4 432.6 12.4 C 433.2 12.4 433.5 12.4 434.2 12.4 C 434.8 12.3 435.1 12.0 435.7 12.0 C 436.3 12.0 436.6 12.1 437.2 12.1 C 437.9 12.2 438.2 12.4 438.8 12.4 C 439.4 12.4 439.7 12.3 440.3 12.3 C 441.0 12.3 441.3 13.0 441.9 13.0 C 442.5 13.0 442.8 12.0 443.4 11.5 C 444.0 11.0 444.4 10.7 445.0 10.4 C 445.6 10.0 445.9 10.0 446.5 9.8 C 447.1 9.5 447.4 9.4 448.1 9.0 C 448.7 8.7 449.0 8.3 449.6 7.9 C 450.2 7.4 450.5 6.9 451.2 6.9 C 451.8 6.9 452.1 7.5 452.7 7.9 C 453.3 8.3 453.6 8.5 454.2 8.9 C 454.9 9.2 455.2 9.5 455.8 9.5 C 456.4 9.5 456.7 8.6 457.3 8.6 C 457.9 8.6 458.3 8.8 458.9 9.0 C 459.5 9.2 459.8 9.7 460.4 9.8 C 461.0 9.9 461.3 9.9 462.0 9.9 C 462.6 9.9 462.9 9.5 463.5 9.2 C 464.1 8.8 464.4 8.5 465.1 8.1 C 465.7 7.6 466.0 7.3 466.6 6.8 C 467.2 6.2 467.5 5.9 468.1 5.3 C 468.8 4.8 469.1 4.3 469.7 4.0 C 470.3 3.6 470.6 3.4 471.2 3.4 C 471.9 3.4 472.2 3.8 472.8 4.1 C 473.4 4.5 473.7 5.2 474.3 5.2 C 474.9 5.2 475.3 4.5 475.9 4.5 C 476.5 4.5 476.8 5.0 477.4 5.0 C 478.0 5.0 478.3 5.0 479.0 5.0 C 479.6 5.0 479.9 4.6 480.5 4.6 C 481.1 4.6 481.4 4.7 482.1 4.7 C 482.7 4.7 483.0 4.1 483.6 4.0 C 484.2 3.8 484.5 3.8 485.1 3.8 C 485.8 3.8 486.1 4.6 486.7 4.6 C 487.3 4.6 487.6 4.6 488.2 4.4 C 488.9 4.2 489.2 3.3 489.8 3.3 C 490.4 3.3 490.7 3.3 491.3 3.3 C 491.9 3.3 492.3 3.5 492.9 3.6 C 493.5 3.8 493.8 4.0 494.4 4.2 C 495.0 4.3 495.3 4.4 496.0 4.4 C 496.6 4.4 496.9 4.3 497.5 4.3 C 498.1 4.3 498.4 4.6 499.1 4.8 C 499.7 5.0 500.0 5.5 500.6 5.5 C 501.2 5.5 501.5 4.5 502.1 4.4 C 502.8 4.3 503.1 4.3 503.7 4.3 C 504.3 4.3 504.6 5.1 505.2 5.7 C 505.9 6.4 506.2 7.7 506.8 7.7 C 507.4 7.7 507.7 7.7 508.3 7.7 C 508.9 7.7 509.2 8.0 509.9 8.4 C 510.5 8.9 510.8 9.9 511.4 9.9 C 512.0 9.9 512.3 9.5 513.0 9.3 C 513.6 9.1 513.9 9.0 514.5 8.8 C 515.1 8.5 515.4 8.0 516.0 8.0 C 516.7 8.0 517.0 8.0 517.6 8.1 C 518.2 8.3 518.5 9.3 519.1 9.3 C 519.8 9.3 520.1 9.2 520.7 9.2 C 521.3 9.1 521.6 9.2 522.2 9.1 C 522.8 8.9 523.2 8.4 523.8 8.0 C 524.4 7.7 524.7 7.5 525.3 7.1 C 525.9 6.7 526.2 6.0 526.9 6.0 C 527.5 6.0 527.8 7.6 528.4 7.6 C 529.0 7.6 529.3 7.6 530.0 7.5 C 530.6 7.4 530.9 7.1 531.5 7.1 C 532.1 7.1 532.4 7.2 533.0 7.3 C 533.7 7.4 534.0 7.3 534.6 7.6 C 535.2 7.9 535.5 9.0 536.1 9.5 C 536.8 10.0 537.1 9.9 537.7 10.1 C 538.3 10.3 538.6 10.1 539.2 10.3 C 539.8 10.5 540.2 11.8 540.8 12.3 C 541.4 12.8 541.7 12.7 542.3 12.8 C 542.9 13.0 543.2 12.9 543.9 13.0 C 544.5 13.1 544.8 13.2 545.4 13.3 C 546.0 13.4 546.3 13.5 547.0 13.7 C 547.6 13.8 547.9 14.0 548.5 14.0 C 549.1 14.0 549.4 13.3 550.0 13.3 C 550.7 13.3 551.0 13.5 551.6 13.5 C 552.2 13.5 552.5 12.5 553.1 12.2 C 553.8 11.9 554.1 12.2 554.7 11.9 C 555.3 11.7 555.6 11.2 556.2 10.9 C 556.8 10.7 557.2 10.8 557.8 10.6 C 558.4 10.4 558.7 10.2 559.3 9.9 C 559.9 9.7 560.2 9.6 560.9 9.5 C 561.5 9.4 561.8 9.2 562.4 9.2 C 563.0 9.2 564 10.4 564 10.4 L 564 40 C 564 40 563.0 40 562.4 40 C 561.8 40 561.5 40 560.9 40 C 560.2 40 559.9 40 559.3 40 C 558.7 40 558.4 40 557.8 40 C 557.2 40 556.8 40 556.2 40 C 555.6 40 555.3 40 554.7 40 C 554.1 40 553.8 40 553.1 40 C 552.5 40 552.2 40 551.6 40 C 551.0 40 550.7 40 550.0 40 C 549.4 40 549.1 40 548.5 40 C 547.9 40 547.6 40 547.0 40 C 546.3 40 546.0 40 545.4 40 C 544.8 40 544.5 40 543.9 40 C 543.2 40 542.9 40 542.3 40 C 541.7 40 541.4 40 540.8 40 C 540.2 40 539.8 40 539.2 40 C 538.6 40 538.3 40 537.7 40 C 537.1 40 536.8 40 536.1 40 C 535.5 40 535.2 40 534.6 40 C 534.0 40 533.7 40 533.0 40 C 532.4 40 532.1 40 531.5 40 C 530.9 40 530.6 40 530.0 40 C 529.3 40 529.0 40 528.4 40 C 527.8 40 527.5 40 526.9 40 C 526.2 40 525.9 40 525.3 40 C 524.7 40 524.4 40 523.8 40 C 523.2 40 522.8 40 522.2 40 C 521.6 40 521.3 40 520.7 40 C 520.1 40 519.8 40 519.1 40 C 518.5 40 518.2 40 517.6 40 C 517.0 40 516.7 40 516.0 40 C 515.4 40 515.1 40 514.5 40 C 513.9 40 513.6 40 513.0 40 C 512.3 40 512.0 40 511.4 40 C 510.8 40 510.5 40 509.9 40 C 509.2 40 508.9 40 508.3 40 C 507.7 40 507.4 40 506.8 40 C 506.2 40 505.9 40 505.2 40 C 504.6 40 504.3 40 503.7 40 C 503.1 40 502.8 40 502.1 40 C 501.5 40 501.2 40 500.6 40 C 500.0 40 499.7 40 499.1 40 C 498.4 40 498.1 40 497.5 40 C 496.9 40 496.6 40 496.0 40 C 495.3 40 495.0 40 494.4 40 C 493.8 40 493.5 40 492.9 40 C 492.3 40 491.9 40 491.3 40 C 490.7 40 490.4 40 489.8 40 C 489.2 40 488.9 40 488.2 40 C 487.6 40 487.3 40 486.7 40 C 486.1 40 485.8 40 485.1 40 C 484.5 40 484.2 40 483.6 40 C 483.0 40 482.7 40 482.1 40 C 481.4 40 481.1 40 480.5 40 C 479.9 40 479.6 40 479.0 40 C 478.3 40 478.0 40 477.4 40 C 476.8 40 476.5 40 475.9 40 C 475.3 40 474.9 40 474.3 40 C 473.7 40 473.4 40 472.8 40 C 472.2 40 471.9 40 471.2 40 C 470.6 40 470.3 40 469.7 40 C 469.1 40 468.8 40 468.1 40 C 467.5 40 467.2 40 466.6 40 C 466.0 40 465.7 40 465.1 40 C 464.4 40 464.1 40 463.5 40 C 462.9 40 462.6 40 462.0 40 C 461.3 40 461.0 40 460.4 40 C 459.8 40 459.5 40 458.9 40 C 458.3 40 457.9 40 457.3 40 C 456.7 40 456.4 40 455.8 40 C 455.2 40 454.9 40 454.2 40 C 453.6 40 453.3 40 452.7 40 C 452.1 40 451.8 40 451.2 40 C 450.5 40 450.2 40 449.6 40 C 449.0 40 448.7 40 448.1 40 C 447.4 40 447.1 40 446.5 40 C 445.9 40 445.6 40 445.0 40 C 444.4 40 444.0 40 443.4 40 C 442.8 40 442.5 40 441.9 40 C 441.3 40 441.0 40 440.3 40 C 439.7 40 439.4 40 438.8 40 C 438.2 40 437.9 40 437.2 40 C 436.6 40 436.3 40 435.7 40 C 435.1 40 434.8 40 434.2 40 C 433.5 40 433.2 40 432.6 40 C 432.0 40 431.7 40 431.1 40 C 430.4 40 430.1 40 429.5 40 C 428.9 40 428.6 40 428.0 40 C 427.4 40 427.0 40 426.4 40 C 425.8 40 425.5 40 424.9 40 C 424.3 40 424.0 40 423.3 40 C 422.7 40 422.4 40 421.8 40 C 421.2 40 420.9 40 420.2 40 C 419.6 40 419.3 40 418.7 40 C 418.1 40 417.8 40 417.2 40 C 416.5 40 416.2 40 415.6 40 C 415.0 40 414.7 40 414.1 40 C 413.4 40 413.1 40 412.5 40 C 411.9 40 411.6 40 411.0 40 C 410.4 40 410.0 40 409.4 40 C 408.8 40 408.5 40 407.9 40 C 407.3 40 407.0 40 406.3 40 C 405.7 40 405.4 40 404.8 40 C 404.2 40 403.9 40 403.2 40 C 402.6 40 402.3 40 401.7 40 C 401.1 40 400.8 40 400.2 40 C 399.5 40 399.2 40 398.6 40 C 398.0 40 397.7 40 397.1 40 C 396.4 40 396.1 40 395.5 40 C 394.9 40 394.6 40 394.0 40 C 393.4 40 393.1 40 392.4 40 C 391.8 40 391.5 40 390.9 40 C 390.3 40 390.0 40 389.3 40 C 388.7 40 388.4 40 387.8 40 C 387.2 40 386.9 40 386.3 40 C 385.6 40 385.3 40 384.7 40 C 384.1 40 383.8 40 383.2 40 C 382.5 40 382.2 40 381.6 40 C 381.0 40 380.7 40 380.1 40 C 379.5 40 379.1 40 378.5 40 C 377.9 40 377.6 40 377.0 40 C 376.4 40 376.1 40 375.4 40 C 374.8 40 374.5 40 373.9 40 C 373.3 40 373.0 40 372.3 40 C 371.7 40 371.4 40 370.8 40 C 370.2 40 369.9 40 369.3 40 C 368.6 40 368.3 40 367.7 40 C 367.1 40 366.8 40 366.2 40 C 365.5 40 365.2 40 364.6 40 C 364.0 40 363.7 40 363.1 40 C 362.5 40 362.1 40 361.5 40 C 360.9 40 360.6 40 360.0 40 C 359.4 40 359.1 40 358.4 40 C 357.8 40 357.5 40 356.9 40 C 356.3 40 356.0 40 355.3 40 C 354.7 40 354.4 40 353.8 40 C 353.2 40 352.9 40 352.3 40 C 351.6 40 351.3 40 350.7 40 C 350.1 40 349.8 40 349.2 40 C 348.5 40 348.2 40 347.6 40 C 347.0 40 346.7 40 346.1 40 C 345.5 40 345.1 40 344.5 40 C 343.9 40 343.6 40 343.0 40 C 342.4 40 342.1 40 341.4 40 C 340.8 40 340.5 40 339.9 40 C 339.3 40 339.0 40 338.4 40 C 337.7 40 337.4 40 336.8 40 C 336.2 40 335.9 40 335.3 40 C 334.6 40 334.3 40 333.7 40 C 333.1 40 332.8 40 332.2 40 C 331.6 40 331.2 40 330.6 40 C 330.0 40 329.7 40 329.1 40 C 328.5 40 328.2 40 327.5 40 C 326.9 40 326.6 40 326.0 40 C 325.4 40 325.1 40 324.4 40 C 323.8 40 323.5 40 322.9 40 C 322.3 40 322.0 40 321.4 40 C 320.7 40 320.4 40 319.8 40 C 319.2 40 318.9 40 318.3 40 C 317.6 40 317.3 40 316.7 40 C 316.1 40 315.8 40 315.2 40 C 314.6 40 314.2 40 313.6 40 C 313.0 40 312.7 40 312.1 40 C 311.5 40 311.2 40 310.5 40 C 309.9 40 309.6 40 309.0 40 C 308.4 40 308.1 40 307.4 40 C 306.8 40 306.5 40 305.9 40 C 305.3 40 305.0 40 304.4 40 C 303.7 40 303.4 40 302.8 40 C 302.2 40 301.9 40 301.3 40 C 300.6 40 300.3 40 299.7 40 C 299.1 40 298.8 40 298.2 40 C 297.6 40 297.2 40 296.6 40 C 296.0 40 295.7 40 295.1 40 C 294.5 40 294.2 40 293.5 40 C 292.9 40 292.6 40 292.0 40 C 291.4 40 291.1 40 290.4 40 C 289.8 40 289.5 40 288.9 40 C 288.3 40 288.0 40 287.4 40 C 286.7 40 286.4 40 285.8 40 C 285.2 40 284.9 40 284.3 40 C 283.6 40 283.3 40 282.7 40 C 282.1 40 281.8 40 281.2 40 C 280.6 40 280.3 40 279.6 40 C 279.0 40 278.7 40 278.1 40 C 277.5 40 277.2 40 276.5 40 C 275.9 40 275.6 40 275.0 40 C 274.4 40 274.1 40 273.5 40 C 272.8 40 272.5 40 271.9 40 C 271.3 40 271.0 40 270.4 40 C 269.7 40 269.4 40 268.8 40 C 268.2 40 267.9 40 267.3 40 C 266.7 40 266.3 40 265.7 40 C 265.1 40 264.8 40 264.2 40 C 263.6 40 263.3 40 262.6 40 C 262.0 40 261.7 40 261.1 40 C 260.5 40 260.2 40 259.5 40 C 258.9 40 258.6 40 258.0 40 C 257.4 40 257.1 40 256.5 40 C 255.8 40 255.5 40 254.9 40 C 254.3 40 254.0 40 253.4 40 C 252.7 40 252.4 40 251.8 40 C 251.2 40 250.9 40 250.3 40 C 249.7 40 249.3 40 248.7 40 C 248.1 40 247.8 40 247.2 40 C 246.6 40 246.3 40 245.6 40 C 245.0 40 244.7 40 244.1 40 C 243.5 40 243.2 40 242.5 40 C 241.9 40 241.6 40 241.0 40 C 240.4 40 240.1 40 239.5 40 C 238.8 40 238.5 40 237.9 40 C 237.3 40 237.0 40 236.4 40 C 235.7 40 235.4 40 234.8 40 C 234.2 40 233.9 40 233.3 40 C 232.7 40 232.3 40 231.7 40 C 231.1 40 230.8 40 230.2 40 C 229.6 40 229.3 40 228.6 40 C 228.0 40 227.7 40 227.1 40 C 226.5 40 226.2 40 225.6 40 C 224.9 40 224.6 40 224.0 40 C 223.4 40 223.1 40 222.5 40 C 221.8 40 221.5 40 220.9 40 C 220.3 40 220.0 40 219.4 40 C 218.8 40 218.4 40 217.8 40 C 217.2 40 216.9 40 216.3 40 C 215.7 40 215.4 40 214.7 40 C 214.1 40 213.8 40 213.2 40 C 212.6 40 212.3 40 211.6 40 C 211.0 40 210.7 40 210.1 40 C 209.5 40 209.2 40 208.6 40 C 207.9 40 207.6 40 207.0 40 C 206.4 40 206.1 40 205.5 40 C 204.8 40 204.5 40 203.9 40 C 203.3 40 203.0 40 202.4 40 C 201.8 40 201.4 40 200.8 40 C 200.2 40 199.9 40 199.3 40 C 198.7 40 198.4 40 197.7 40 C 197.1 40 196.8 40 196.2 40 C 195.6 40 195.3 40 194.6 40 C 194.0 40 193.7 40 193.1 40 C 192.5 40 192.2 40 191.6 40 C 190.9 40 190.6 40 190.0 40 C 189.4 40 189.1 40 188.5 40 C 187.8 40 187.5 40 186.9 40 C 186.3 40 186.0 40 185.4 40 C 184.8 40 184.4 40 183.8 40 C 183.2 40 182.9 40 182.3 40 C 181.7 40 181.4 40 180.7 40 C 180.1 40 179.8 40 179.2 40 C 178.6 40 178.3 40 177.6 40 C 177.0 40 176.7 40 176.1 40 C 175.5 40 175.2 40 174.6 40 C 173.9 40 173.6 40 173.0 40 C 172.4 40 172.1 40 171.5 40 C 170.8 40 170.5 40 169.9 40 C 169.3 40 169.0 40 168.4 40 C 167.8 40 167.5 40 166.8 40 C 166.2 40 165.9 40 165.3 40 C 164.7 40 164.4 40 163.7 40 C 163.1 40 162.8 40 162.2 40 C 161.6 40 161.3 40 160.7 40 C 160.0 40 159.7 40 159.1 40 C 158.5 40 158.2 40 157.6 40 C 156.9 40 156.6 40 156.0 40 C 155.4 40 155.1 40 154.5 40 C 153.9 40 153.5 40 152.9 40 C 152.3 40 152.0 40 151.4 40 C 150.8 40 150.5 40 149.8 40 C 149.2 40 148.9 40 148.3 40 C 147.7 40 147.4 40 146.7 40 C 146.1 40 145.8 40 145.2 40 C 144.6 40 144.3 40 143.7 40 C 143.0 40 142.7 40 142.1 40 C 141.5 40 141.2 40 140.6 40 C 139.9 40 139.6 40 139.0 40 C 138.4 40 138.1 40 137.5 40 C 136.9 40 136.5 40 135.9 40 C 135.3 40 135.0 40 134.4 40 C 133.8 40 133.5 40 132.8 40 C 132.2 40 131.9 40 131.3 40 C 130.7 40 130.4 40 129.7 40 C 129.1 40 128.8 40 128.2 40 C 127.6 40 127.3 40 126.7 40 C 126.0 40 125.7 40 125.1 40 C 124.5 40 124.2 40 123.6 40 C 122.9 40 122.6 40 122.0 40 C 121.4 40 121.1 40 120.5 40 C 119.9 40 119.5 40 118.9 40 C 118.3 40 118.0 40 117.4 40 C 116.8 40 116.5 40 115.8 40 C 115.2 40 114.9 40 114.3 40 C 113.7 40 113.4 40 112.8 40 C 112.1 40 111.8 40 111.2 40 C 110.6 40 110.3 40 109.7 40 C 109.0 40 108.7 40 108.1 40 C 107.5 40 107.2 40 106.6 40 C 106.0 40 105.6 40 105.0 40 C 104.4 40 104.1 40 103.5 40 C 102.9 40 102.6 40 101.9 40 C 101.3 40 101.0 40 100.4 40 C 99.8 40 99.5 40 98.8 40 C 98.2 40 97.9 40 97.3 40 C 96.7 40 96.4 40 95.8 40 C 95.1 40 94.8 40 94.2 40 C 93.6 40 93.3 40 92.7 40 C 92.0 40 91.7 40 91.1 40 C 90.5 40 90.2 40 89.6 40 C 89.0 40 88.6 40 88.0 40 C 87.4 40 87.1 40 86.5 40 C 85.9 40 85.6 40 84.9 40 C 84.3 40 84.0 40 83.4 40 C 82.8 40 82.5 40 81.8 40 C 81.2 40 80.9 40 80.3 40 C 79.7 40 79.4 40 78.8 40 C 78.1 40 77.8 40 77.2 40 C 76.6 40 76.3 40 75.7 40 C 75.0 40 74.7 40 74.1 40 C 73.5 40 73.2 40 72.6 40 C 72.0 40 71.6 40 71.0 40 C 70.4 40 70.1 40 69.5 40 C 68.9 40 68.6 40 67.9 40 C 67.3 40 67.0 40 66.4 40 C 65.8 40 65.5 40 64.8 40 C 64.2 40 63.9 40 63.3 40 C 62.7 40 62.4 40 61.8 40 C 61.1 40 60.8 40 60.2 40 C 59.6 40 59.3 40 58.7 40 C 58.0 40 57.7 40 57.1 40 C 56.5 40 56.2 40 55.6 40 C 55.0 40 54.7 40 54.0 40 C 53.4 40 53.1 40 52.5 40 C 51.9 40 51.6 40 50.9 40 C 50.3 40 50.0 40 49.4 40 C 48.8 40 48.5 40 47.9 40 C 47.2 40 46.9 40 46.3 40 C 45.7 40 45.4 40 44.8 40 C 44.1 40 43.8 40 43.2 40 C 42.6 40 42.3 40 41.7 40 C 41.1 40 40.7 40 40.1 40 C 39.5 40 39.2 40 38.6 40 C 38.0 40 37.7 40 37.0 40 C 36.4 40 36.1 40 35.5 40 C 34.9 40 34.6 40 33.9 40 C 33.3 40 33.0 40 32.4 40 C 31.8 40 31.5 40 30.9 40 C 30.2 40 29.9 40 29.3 40 C 28.7 40 28.4 40 27.8 40 C 27.1 40 26.8 40 26.2 40 C 25.6 40 25.3 40 24.7 40 C 24.1 40 23.7 40 23.1 40 C 22.5 40 22.2 40 21.6 40 C 21.0 40 20.7 40 20.0 40 C 19.4 40 19.1 40 18.5 40 C 17.9 40 17.6 40 16.9 40 C 16.3 40 16.0 40 15.4 40 C 14.8 40 14.5 40 13.9 40 C 13.2 40 12.9 40 12.3 40 C 11.7 40 11.4 40 10.8 40 C 10.1 40 9.8 40 9.2 40 C 8.6 40 8.3 40 7.7 40 C 7.1 40 6.7 40 6.1 40 C 5.5 40 5.2 40 4.6 40 C 4.0 40 3.7 40 3.0 40 C 2.4 40 2.1 40 1.5 40 C 0.9 40 0 40 0 40" fill-opacity="0.0">
			</path>
			<path fill="none" d="M 0 36.6 C 0 36.6 0.9 36.6 1.5 36.5 C 2.1 36.5 2.4 36.3 3.0 36.3 C 3.7 36.3 4.0 36.6 4.6 36.6 C 5.2 36.6 5.5 36.6 6.1 36.6 C 6.7 36.5 7.1 36.3 7.7 36.2 C 8.3 36.1 8.6 35.9 9.2 35.9 C 9.8 35.9 10.1 35.9 10.8 35.9 C 11.4 35.9 11.7 36.1 12.3 36.1 C 12.9 36.1 13.2 36.1 13.9 36.0 C 14.5 36.0 14.8 35.9 15.4 35.9 C 16.0 35.9 16.3 36.1 16.9 36.1 C 17.6 36.1 17.9 35.8 18.5 35.7 C 19.1 35.5 19.4 35.4 20.0 35.3 C 20.7 35.1 21.0 35.1 21.6 35.0 C 22.2 35.0 22.5 34.9 23.1 34.9 C 23.7 34.9 24.1 34.9 24.7 34.9 C 25.3 34.9 25.6 34.9 26.2 34.9 C 26.8 34.9 27.1 34.7 27.8 34.7 C 28.4 34.7 28.7 34.8 29.3 34.8 C 29.9 34.8 30.2 34.7 30.9 34.6 C 31.5 34.5 31.8 34.3 32.4 34.2 C 33.0 34.2 33.3 34.1 33.9 34.1 C 34.6 34.1 34.9 34.1 35.5 34.1 C 36.1 34.0 36.4 33.9 37.0 33.9 C 37.7 33.8 38.0 33.9 38.6 33.8 C 39.2 33.8 39.5 33.4 40.1 33.4 C 40.7 33.4 41.1 33.5 41.7 33.6 C 42.3 33.7 42.6 33.8 43.2 33.8 C 43.8 33.8 44.1 33.3 44.8 33.3 C 45.4 33.2 45.7 33.2 46.3 33.2 C 46.9 33.2 47.2 33.2 47.9 33.3 C 48.5 33.3 48.8 33.5 49.4 33.6 C 50.0 33.6 50.3 33.7 50.9 33.7 C 51.6 33.7 51.9 33.7 52.5 33.6 C 53.1 33.6 53.4 33.4 54.0 33.3 C 54.7 33.2 55.0 33.0 55.6 33.0 C 56.2 32.9 56.5 32.9 57.1 32.9 C 57.7 32.9 58.0 33.0 58.7 33.0 C 59.3 33.1 59.6 33.0 60.2 33.1 C 60.8 33.1 61.1 33.2 61.8 33.3 C 62.4 33.4 62.7 33.6 63.3 33.6 C 63.9 33.6 64.2 33.6 64.8 33.5 C 65.5 33.5 65.8 33.3 66.4 33.3 C 67.0 33.3 67.3 33.4 67.9 33.4 C 68.6 33.4 68.9 33.1 69.5 32.9 C 70.1 32.7 70.4 32.4 71.0 32.4 C 71.6 32.4 72.0 32.4 72.6 32.4 C 73.2 32.4 73.5 32.3 74.1 32.2 C 74.7 32.1 75.0 32.1 75.7 32.0 C 76.3 31.9 76.6 31.8 77.2 31.7 C 77.8 31.6 78.1 31.7 78.8 31.5 C 79.4 31.4 79.7 31.1 80.3 31.0 C 80.9 30.8 81.2 30.7 81.8 30.7 C 82.5 30.7 82.8 31.2 83.4 31.2 C 84.0 31.2 84.3 31.0 84.9 31.0 C 85.6 31.0 85.9 31.4 86.5 31.4 C 87.1 31.4 87.4 31.4 88.0 31.3 C 88.6 31.2 89.0 30.8 89.6 30.8 C 90.2 30.8 90.5 31.3 91.1 31.3 C 91.7 31.3 92.0 30.8 92.7 30.7 C 93.3 30.5 93.6 30.5 94.2 30.5 C 94.8 30.5 95.1 31.1 95.8 31.1 C 96.4 31.1 96.7 31.0 97.3 31.0 C 97.9 31.0 98.2 31.2 98.8 31.2 C 99.5 31.2 99.8 31.2 100.4 31.1 C 101.0 31.1 101.3 31.0 101.9 30.9 C 102.6 30.8 102.9 30.8 103.5 30.8 C 104.1 30.8 104.4 31.0 105.0 31.1 C 105.6 31.2 106.0 31.2 106.6 31.3 C 107.2 31.4 107.5 31.6 108.1 31.6 C 108.7 31.6 109.0 31.5 109.7 31.3 C 110.3 31.2 110.6 31.0 111.2 30.8 C 111.8 30.6 112.1 30.6 112.8 30.4 C 113.4 30.2 113.7 29.7 114.3 29.7 C 114.9 29.7 115.2 29.8 115.8 29.8 C 116.5 29.8 116.8 29.8 117.4 29.7 C 118.0 29.6 118.3 29.3 118.9 29.1 C 119.5 28.9 119.9 28.7 120.5 28.7 C 121.1 28.7 121.4 28.9 122.0 28.9 C 122.6 28.9 122.9 28.8 123.6 28.7 C 124.2 28.6 124.5 28.6 125.1 28.6 C 125.7 28.6 126.0 29.0 126.7 29.0 C 127.3 29.0 127.6 28.8 128.2 28.7 C 128.8 28.6 129.1 28.6 129.7 28.5 C 130.4 28.5 130.7 28.4 131.3 28.4 C 131.9 28.3 132.2 28.4 132.8 28.3 C 133.5 28.3 133.8 28.2 134.4 28.2 C 135.0 28.2 135.3 28.2 135.9 28.2 C 136.5 28.2 136.9 28.0 137.5 27.8 C 138.1 27.7 138.4 27.3 139.0 27.3 C 139.6 27.3 139.9 27.7 140.6 27.7 C 141.2 27.7 141.5 27.6 142.1 27.5 C 142.7 27.4 143.0 27.5 143.7 27.4 C 144.3 27.2 144.6 27.0 145.2 26.9 C 145.8 26.8 146.1 26.8 146.7 26.8 C 147.4 26.8 147.7 27.4 148.3 27.4 C 148.9 27.4 149.2 26.9 149.8 26.9 C 150.5 26.9 150.8 26.9 151.4 27.0 C 152.0 27.1 152.3 27.6 152.9 27.6 C 153.5 27.6 153.9 27.5 154.5 27.4 C 155.1 27.3 155.4 27.2 156.0 27.2 C 156.6 27.2 156.9 27.5 157.6 27.6 C 158.2 27.7 158.5 27.9 159.1 27.9 C 159.7 27.9 160.0 27.6 160.7 27.5 C 161.3 27.3 161.6 27.1 162.2 27.1 C 162.8 27.1 163.1 27.2 163.7 27.2 C 164.4 27.2 164.7 27.2 165.3 27.3 C 165.9 27.3 166.2 27.6 166.8 27.7 C 167.5 27.7 167.8 27.7 168.4 27.7 C 169.0 27.7 169.3 27.3 169.9 27.3 C 170.5 27.3 170.8 27.7 171.5 27.9 C 172.1 28.0 172.4 28.0 173.0 28.1 C 173.6 28.2 173.9 28.2 174.6 28.2 C 175.2 28.2 175.5 27.9 176.1 27.7 C 176.7 27.4 177.0 27.0 177.6 26.9 C 178.3 26.8 178.6 26.9 179.2 26.8 C 179.8 26.6 180.1 26.0 180.7 25.7 C 181.4 25.4 181.7 25.2 182.3 25.2 C 182.9 25.2 183.2 25.4 183.8 25.6 C 184.4 25.8 184.8 26.3 185.4 26.3 C 186.0 26.3 186.3 26.1 186.9 26.1 C 187.5 26.1 187.8 26.1 188.5 26.1 C 189.1 26.1 189.4 25.7 190.0 25.7 C 190.6 25.7 190.9 25.8 191.6 25.8 C 192.2 25.8 192.5 25.7 193.1 25.4 C 193.7 25.2 194.0 24.6 194.6 24.6 C 195.3 24.6 195.6 25.0 196.2 25.2 C 196.8 25.5 197.1 26.1 197.7 26.1 C 198.4 26.1 198.7 24.9 199.3 24.8 C 199.9 24.8 200.2 24.8 200.8 24.8 C 201.4 24.8 201.8 24.8 202.4 24.9 C 203.0 24.9 203.3 24.9 203.9 25.0 C 204.5 25.1 204.8 25.1 205.5 25.2 C 206.1 25.4 206.4 25.6 207.0 25.8 C 207.6 26.0 207.9 26.3 208.6 26.3 C 209.2 26.3 209.5 26.0 210.1 25.8 C 210.7 25.6 211.0 25.4 211.6 25.4 C 212.3 25.4 212.6 25.7 213.2 25.7 C 213.8 25.7 214.1 25.4 214.7 25.2 C 215.4 25.0 215.7 25.0 216.3 24.8 C 216.9 24.6 217.2 24.5 217.8 24.3 C 218.4 24.2 218.8 24.2 219.4 24.1 C 220.0 24.0 220.3 24.1 220.9 23.9 C 221.5 23.8 221.8 23.7 222.5 23.4 C 223.1 23.2 223.4 23.0 224.0 22.6 C 224.6 22.3 224.9 22.1 225.6 21.7 C 226.2 21.3 226.5 21.0 227.1 20.7 C 227.7 20.4 228.0 20.4 228.6 20.1 C 229.3 19.8 229.6 19.2 230.2 19.2 C 230.8 19.2 231.1 19.3 231.7 19.3 C 232.3 19.3 232.7 18.1 233.3 17.6 C 233.9 17.0 234.2 16.8 234.8 16.6 C 235.4 16.3 235.7 16.4 236.4 16.2 C 237.0 16.0 237.3 15.5 237.9 15.5 C 238.5 15.5 238.8 15.5 239.5 15.6 C 240.1 15.7 240.4 16.9 241.0 16.9 C 241.6 17.0 241.9 16.9 242.5 17.0 C 243.2 17.0 243.5 17.3 244.1 17.4 C 244.7 17.6 245.0 17.6 245.6 17.9 C 246.3 18.2 246.6 19.0 247.2 19.0 C 247.8 19.0 248.1 18.4 248.7 18.1 C 249.3 17.9 249.7 17.7 250.3 17.7 C 250.9 17.7 251.2 17.8 251.8 17.8 C 252.4 17.8 252.7 17.8 253.4 17.7 C 254.0 17.6 254.3 17.3 254.9 17.3 C 255.5 17.3 255.8 17.7 256.5 17.7 C 257.1 17.7 257.4 16.7 258.0 16.5 C 258.6 16.3 258.9 16.4 259.5 16.3 C 260.2 16.3 260.5 16.3 261.1 16.3 C 261.7 16.3 262.0 17.1 262.6 17.1 C 263.3 17.1 263.6 16.6 264.2 16.3 C 264.8 16.0 265.1 15.9 265.7 15.7 C 266.3 15.5 266.7 15.5 267.3 15.1 C 267.9 14.7 268.2 14.2 268.8 13.9 C 269.4 13.6 269.7 13.7 270.4 13.6 C 271.0 13.5 271.3 13.4 271.9 13.4 C 272.5 13.4 272.8 13.5 273.5 13.5 C 274.1 13.5 274.4 12.4 275.0 12.4 C 275.6 12.4 275.9 13.1 276.5 13.4 C 277.2 13.7 277.5 13.6 278.1 14.0 C 278.7 14.3 279.0 15.1 279.6 15.1 C 280.3 15.1 280.6 15.1 281.2 15.1 C 281.8 15.2 282.1 15.6 282.7 15.9 C 283.3 16.3 283.6 16.6 284.3 17.0 C 284.9 17.5 285.2 17.7 285.8 18.2 C 286.4 18.6 286.7 19.3 287.4 19.3 C 288.0 19.3 288.3 18.5 288.9 18.1 C 289.5 17.6 289.8 17.2 290.4 17.2 C 291.1 17.2 291.4 18.0 292.0 18.4 C 292.6 18.9 292.9 19.3 293.5 19.5 C 294.2 19.8 294.5 19.7 295.1 19.8 C 295.7 19.9 296.0 20.2 296.6 20.2 C 297.2 20.2 297.6 19.2 298.2 19.2 C 298.8 19.2 299.1 19.6 299.7 19.9 C 300.3 20.2 300.6 20.5 301.3 20.8 C 301.9 21.2 302.2 21.4 302.8 21.8 C 303.4 22.1 303.7 22.7 304.4 22.7 C 305.0 22.7 305.3 22.6 305.9 22.5 C 306.5 22.4 306.8 22.1 307.4 22.1 C 308.1 22.1 308.4 22.6 309.0 22.8 C 309.6 23.1 309.9 23.1 310.5 23.2 C 311.2 23.4 311.5 23.8 312.1 23.8 C 312.7 23.8 313.0 23.8 313.6 23.6 C 314.2 23.3 314.6 22.7 315.2 22.7 C 315.8 22.7 316.1 22.7 316.7 22.7 C 317.3 22.7 317.6 23.8 318.3 23.8 C 318.9 23.8 319.2 23.7 319.8 23.7 C 320.4 23.7 320.7 24.7 321.4 24.7 C 322.0 24.7 322.3 24.7 322.9 24.7 C 323.5 24.7 323.8 23.7 324.4 23.3 C 325.1 22.8 325.4 22.5 326.0 22.5 C 326.6 22.5 326.9 23.4 327.5 23.4 C 328.2 23.4 328.5 23.3 329.1 23.2 C 329.7 23.2 330.0 23.0 330.6 23.0 C 331.2 23.0 331.6 23.0 332.2 23.1 C 332.8 23.2 333.1 23.3 333.7 23.5 C 334.3 23.7 334.6 23.7 335.3 24.0 C 335.9 24.3 336.2 25.1 336.8 25.1 C 337.4 25.1 337.7 24.5 338.4 24.3 C 339.0 24.1 339.3 24.2 339.9 24.1 C 340.5 24.0 340.8 23.9 341.4 23.8 C 342.1 23.7 342.4 23.8 343.0 23.6 C 343.6 23.4 343.9 23.0 344.5 22.7 C 345.1 22.5 345.5 22.7 346.1 22.4 C 346.7 22.0 347.0 21.5 347.6 21.2 C 348.2 20.8 348.5 20.7 349.2 20.7 C 349.8 20.7 350.1 21.1 350.7 21.1 C 351.3 21.1 351.6 21.0 352.3 21.0 C 352.9 21.0 353.2 21.3 353.8 21.6 C 354.4 21.9 354.7 22.4 355.3 22.4 C 356.0 22.4 356.3 21.4 356.9 21.4 C 357.5 21.4 357.8 21.5 358.4 21.5 C 359.1 21.5 359.4 21.5 360.0 21.3 C 360.6 21.2 360.9 21.0 361.5 20.7 C 362.1 20.4 362.5 19.8 363.1 19.8 C 363.7 19.8 364.0 19.8 364.6 19.8 C 365.2 19.9 365.5 19.9 366.2 19.9 C 366.8 19.9 367.1 19.8 367.7 19.8 C 368.3 19.8 368.6 20.0 369.3 20.0 C 369.9 20.0 370.2 19.5 370.8 19.1 C 371.4 18.8 371.7 18.2 372.3 18.2 C 373.0 18.2 373.3 18.2 373.9 18.2 C 374.5 18.2 374.8 18.6 375.4 18.6 C 376.1 18.6 376.4 18.0 377.0 18.0 C 377.6 18.0 377.9 18.4 378.5 18.6 C 379.1 18.8 379.5 19.1 380.1 19.1 C 380.7 19.1 381.0 18.9 381.6 18.8 C 382.2 18.7 382.5 18.7 383.2 18.7 C 383.8 18.7 384.1 20.3 384.7 20.3 C 385.3 20.3 385.6 20.3 386.3 20.3 C 386.9 20.3 387.2 19.2 387.8 19.2 C 388.4 19.2 388.7 19.2 389.3 19.3 C 390.0 19.4 390.3 19.8 390.9 19.8 C 391.5 19.8 391.8 19.6 392.4 19.5 C 393.1 19.5 393.4 19.5 394.0 19.5 C 394.6 19.5 394.9 19.5 395.5 19.5 C 396.1 19.5 396.4 19.1 397.1 19.1 C 397.7 19.1 398.0 19.1 398.6 19.2 C 399.2 19.2 399.5 19.7 400.2 19.8 C 400.8 19.9 401.1 19.9 401.7 19.9 C 402.3 19.9 402.6 19.5 403.2 18.9 C 403.9 18.3 404.2 16.9 404.8 16.9 C 405.4 16.9 405.7 16.9 406.3 16.9 C 407.0 16.9 407.3 16.9 407.9 16.9 C 408.5 16.8 408.8 16.6 409.4 16.3 C 410.0 16.0 410.4 15.6 411.0 15.4 C 411.6 15.1 411.9 15.1 412.5 14.9 C 413.1 14.7 413.4 14.4 414.1 14.4 C 414.7 14.4 415.0 14.7 415.6 14.8 C 416.2 14.9 416.5 15.1 417.2 15.1 C 417.8 15.1 418.1 14.6 418.7 14.3 C 419.3 14.0 419.6 13.7 420.2 13.7 C 420.9 13.7 421.2 13.9 421.8 13.9 C 422.4 13.9 422.7 13.7 423.3 13.5 C 424.0 13.4 424.3 13.1 424.9 13.1 C 425.5 13.1 425.8 13.9 426.4 13.9 C 427.0 13.9 427.4 13.6 428.0 13.3 C 428.6 13.0 428.9 12.5 429.5 12.3 C 430.1 12.0 430.4 11.8 431.1 11.8 C 431.7 11.8 432.0 12.4 432.6 12.4 C 433.2 12.4 433.5 12.4 434.2 12.4 C 434.8 12.3 435.1 12.0 435.7 12.0 C 436.3 12.0 436.6 12.1 437.2 12.1 C 437.9 12.2 438.2 12.4 438.8 12.4 C 439.4 12.4 439.7 12.3 440.3 12.3 C 441.0 12.3 441.3 13.0 441.9 13.0 C 442.5 13.0 442.8 12.0 443.4 11.5 C 444.0 11.0 444.4 10.7 445.0 10.4 C 445.6 10.0 445.9 10.0 446.5 9.8 C 447.1 9.5 447.4 9.4 448.1 9.0 C 448.7 8.7 449.0 8.3 449.6 7.9 C 450.2 7.4 450.5 6.9 451.2 6.9 C 451.8 6.9 452.1 7.5 452.7 7.9 C 453.3 8.3 453.6 8.5 454.2 8.9 C 454.9 9.2 455.2 9.5 455.8 9.5 C 456.4 9.5 456.7 8.6 457.3 8.6 C 457.9 8.6 458.3 8.8 458.9 9.0 C 459.5 9.2 459.8 9.7 460.4 9.8 C 461.0 9.9 461.3 9.9 462.0 9.9 C 462.6 9.9 462.9 9.5 463.5 9.2 C 464.1 8.8 464.4 8.5 465.1 8.1 C 465.7 7.6 466.0 7.3 466.6 6.8 C 467.2 6.2 467.5 5.9 468.1 5.3 C 468.8 4.8 469.1 4.3 469.7 4.0 C 470.3 3.6 470.6 3.4 471.2 3.4 C 471.9 3.4 472.2 3.8 472.8 4.1 C 473.4 4.5 473.7 5.2 474.3 5.2 C 474.9 5.2 475.3 4.5 475.9 4.5 C 476.5 4.5 476.8 5.0 477.4 5.0 C 478.0 5.0 478.3 5.0 479.0 5.0 C 479.6 5.0 479.9 4.6 480.5 4.6 C 481.1 4.6 481.4 4.7 482.1 4.7 C 482.7 4.7 483.0 4.1 483.6 4.0 C 484.2 3.8 484.5 3.8 485.1 3.8 C 485.8 3.8 486.1 4.6 486.7 4.6 C 487.3 4.6 487.6 4.6 488.2 4.4 C 488.9 4.2 489.2 3.3 489.8 3.3 C 490.4 3.3 490.7 3.3 491.3 3.3 C 491.9 3.3 492.3 3.5 492.9 3.6 C 493.5 3.8 493.8 4.0 494.4 4.2 C 495.0 4.3 495.3 4.4 496.0 4.4 C 496.6 4.4 496.9 4.3 497.5 4.3 C 498.1 4.3 498.4 4.6 499.1 4.8 C 499.7 5.0 500.0 5.5 500.6 5.5 C 501.2 5.5 501.5 4.5 502.1 4.4 C 502.8 4.3 503.1 4.3 503.7 4.3 C 504.3 4.3 504.6 5.1 505.2 5.7 C 505.9 6.4 506.2 7.7 506.8 7.7 C 507.4 7.7 507.7 7.7 508.3 7.7 C 508.9 7.7 509.2 8.0 509.9 8.4 C 510.5 8.9 510.8 9.9 511.4 9.9 C 512.0 9.9 512.3 9.5 513.0 9.3 C 513.6 9.1 513.9 9.0 514.5 8.8 C 515.1 8.5 515.4 8.0 516.0 8.0 C 516.7 8.0 517.0 8.0 517.6 8.1 C 518.2 8.3 518.5 9.3 519.1 9.3 C 519.8 9.3 520.1 9.2 520.7 9.2 C 521.3 9.1 521.6 9.2 522.2 9.1 C 522.8 8.9 523.2 8.4 523.8 8.0 C 524.4 7.7 524.7 7.5 525.3 7.1 C 525.9 6.7 526.2 6.0 526.9 6.0 C 527.5 6.0 527.8 7.6 528.4 7.6 C 529.0 7.6 529.3 7.6 530.0 7.5 C 530.6 7.4 530.9 7.1 531.5 7.1 C 532.1 7.1 532.4 7.2 533.0 7.3 C 533.7 7.4 534.0 7.3 534.6 7.6 C 535.2 7.9 535.5 9.0 536.1 9.5 C 536.8 10.0 537.1 9.9 537.7 10.1 C 538.3 10.3 538.6 10.1 539.2 10.3 C 539.8 10.5 540.2 11.8 540.8 12.3 C 541.4 12.8 541.7 12.7 542.3 12.8 C 542.9 13.0 543.2 12.9 543.9 13.0 C 544.5 13.1 544.8 13.2 545.4 13.3 C 546.0 13.4 546.3 13.5 547.0 13.7 C 547.6 13.8 547.9 14.0 548.5 14.0 C 549.1 14.0 549.4 13.3 550.0 13.3 C 550.7 13.3 551.0 13.5 551.6 13.5 C 552.2 13.5 552.5 12.5 553.1 12.2 C 553.8 11.9 554.1 12.2 554.7 11.9 C 555.3 11.7 555.6 11.2 556.2 10.9 C 556.8 10.7 557.2 10.8 557.8 10.6 C 558.4 10.4 558.7 10.2 559.3 9.9 C 559.9 9.7 560.2 9.6 560.9 9.5 C 561.5 9.4 561.8 9.2 562.4 9.2 C 563.0 9.2 564 10.4 564 10.4" stroke="#4572A7" stroke-width="1" stroke-linejoin="round" stroke-linecap="round">
			</path>
		</g>
		<g class="highcharts-markers highcharts-series-1" transform="translate(10,345) scale(1 1)" clip-path="none">
		</g>
	</g>
	<g class="highcharts-navigator">
		<rect fill="rgb(128,179,236)" fill-opacity="0.3" style="cursor:ew-resize;" x="554" y="345" width="20" height="40">
		</rect>
		<path fill="none" stroke="#b2b1b6" stroke-width="1" d="M 10 345.5 L 553.5 345.5 553.5 385.5 L 573.5 385.5 L 573.5 345.5 574 345.5 M 554.5 345.5 L 573.5 345.5">
		</path>
	</g>
	<text x="292" text-anchor="middle" class="highcharts-title" style="color:#333333;font-size:16px;fill:#333333;width:520px;" y="22">
		<tspan>AAPL Stock Price
		</tspan>
	</text>
	<g class="highcharts-axis-labels highcharts-xaxis-labels">
		<text x="72.3" style="color:#606060;cursor:default;font-size:11px;fill:#606060;" text-anchor="middle" transform="translate(0,0)" y="318" opacity="1">
			<tspan> 1. Feb
			</tspan>
		</text>
		<text x="159.6" style="color:#606060;cursor:default;font-size:11px;fill:#606060;" text-anchor="middle" transform="translate(0,0)" y="318" opacity="1">
			<tspan>15. Feb
			</tspan>
		</text>
		<text x="242.5" style="color:#606060;cursor:default;font-size:11px;fill:#606060;" text-anchor="middle" transform="translate(0,0)" y="318" opacity="1">
			<tspan>29. Feb
			</tspan>
		</text>
		<text x="332.1" style="color:#606060;cursor:default;font-size:11px;fill:#606060;" text-anchor="middle" transform="translate(0,0)" y="318" opacity="1">
			<tspan>14. Mar
			</tspan>
		</text>
		<text x="412.7" style="color:#606060;cursor:default;font-size:11px;fill:#606060;" text-anchor="middle" transform="translate(0,0)" y="318" opacity="1">
			<tspan>28. Mar
			</tspan>
		</text>
		<text x="502.3" style="color:#606060;cursor:default;font-size:11px;fill:#606060;" text-anchor="middle" transform="translate(0,0)" y="318" opacity="1">
			<tspan>11. Apr
			</tspan>
		</text>
	</g>
	<g class="highcharts-axis-labels highcharts-xaxis-labels">
		<text x="68.8" style="color:#888;cursor:default;font-size:11px;fill:#888;width:178px;text-overflow:clip;" text-anchor="start" transform="translate(0,0)" y="381" opacity="1">2010
		</text>
		<text x="229.9" style="color:#888;cursor:default;font-size:11px;fill:#888;width:178px;text-overflow:clip;" text-anchor="start" transform="translate(0,0)" y="381" opacity="1">2012
		</text>
		<text x="391.3" style="color:#888;cursor:default;font-size:11px;fill:#888;width:178px;text-overflow:clip;" text-anchor="start" transform="translate(0,0)" y="381" opacity="1">2014
		</text>
		<text x="552.4" style="color:#888;cursor:default;font-size:11px;fill:#888;width:21.5;text-overflow:ellipsis;" text-anchor="start" transform="translate(0,0)" y="381" opacity="1">
			<tspan>2…
			</tspan>
			<title>2016
			</title>
		</text>
	</g>
	<g class="highcharts-axis-labels highcharts-yaxis-labels">
		<text x="574" style="color:#606060;cursor:default;font-size:11px;fill:#606060;width:183px;text-overflow:clip;" text-anchor="end" transform="translate(0,0)" y="297" opacity="1">90
		</text>
		<text x="574" style="color:#606060;cursor:default;font-size:11px;fill:#606060;width:183px;text-overflow:clip;" text-anchor="end" transform="translate(0,0)" y="253" opacity="1">95
		</text>
		<text x="574" style="color:#606060;cursor:default;font-size:11px;fill:#606060;width:183px;text-overflow:clip;" text-anchor="end" transform="translate(0,0)" y="209" opacity="1">100
		</text>
		<text x="574" style="color:#606060;cursor:default;font-size:11px;fill:#606060;width:183px;text-overflow:clip;" text-anchor="end" transform="translate(0,0)" y="165" opacity="1">105
		</text>
		<text x="574" style="color:#606060;cursor:default;font-size:11px;fill:#606060;width:183px;text-overflow:clip;" text-anchor="end" transform="translate(0,0)" y="121" opacity="1">110
		</text>
		<text x="0" style="color:#606060;cursor:default;font-size:11px;fill:#606060;width:183px;text-overflow:clip;" text-anchor="end" transform="translate(0,0)" y="-9999">115
		</text>
	</g>
	<g class="highcharts-axis-labels highcharts-yaxis-labels">
	</g>
	<g class="highcharts-tooltip" style="cursor:default;padding:0;pointer-events:none;white-space:nowrap;" transform="translate(0,-9999)">
		<path fill="none" d="M 3.5 0.5 L 13.5 0.5 C 16.5 0.5 16.5 0.5 16.5 3.5 L 16.5 13.5 C 16.5 16.5 16.5 16.5 13.5 16.5 L 3.5 16.5 C 0.5 16.5 0.5 16.5 0.5 13.5 L 0.5 3.5 C 0.5 0.5 0.5 0.5 3.5 0.5"  stroke="black" stroke-opacity="0.0" stroke-width="5" transform="translate(1, 1)">
		</path>
		<path fill="none" d="M 3.5 0.5 L 13.5 0.5 C 16.5 0.5 16.5 0.5 16.5 3.5 L 16.5 13.5 C 16.5 16.5 16.5 16.5 13.5 16.5 L 3.5 16.5 C 0.5 16.5 0.5 16.5 0.5 13.5 L 0.5 3.5 C 0.5 0.5 0.5 0.5 3.5 0.5"  stroke="black" stroke-opacity="0.0" stroke-width="3" transform="translate(1, 1)">
		</path>
		<path fill="none" d="M 3.5 0.5 L 13.5 0.5 C 16.5 0.5 16.5 0.5 16.5 3.5 L 16.5 13.5 C 16.5 16.5 16.5 16.5 13.5 16.5 L 3.5 16.5 C 0.5 16.5 0.5 16.5 0.5 13.5 L 0.5 3.5 C 0.5 0.5 0.5 0.5 3.5 0.5"  stroke="black" stroke-opacity="0.1" stroke-width="1" transform="translate(1, 1)">
		</path>
		<path fill="rgb(249, 249, 249)" fill-opacity=" .85" d="M 3.5 0.5 L 13.5 0.5 C 16.5 0.5 16.5 0.5 16.5 3.5 L 16.5 13.5 C 16.5 16.5 16.5 16.5 13.5 16.5 L 3.5 16.5 C 0.5 16.5 0.5 16.5 0.5 13.5 L 0.5 3.5 C 0.5 0.5 0.5 0.5 3.5 0.5">
		</path>
		<text x="8" style="font-size:12px;color:#333333;fill:#333333;" y="20">
		</text>
	</g>
	<g class="highcharts-navigator-handle-right" style="cursor:ew-resize;" transform="translate(574,357)">
		<rect x="-4.5" y="0.5" width="8" height="15" fill="#ebe7e8" stroke="#b2b1b6" stroke-width="1">
		</rect>
		<path fill="#ebe7e8" d="M -1.5 4 L -1.5 12 M 0.5 4 L 0.5 12" stroke="#b2b1b6" stroke-width="1">
		</path>
	</g>
	<g class="highcharts-navigator-handle-left" style="cursor:ew-resize;" transform="translate(554,357)">
		<rect x="-4.5" y="0.5" width="8" height="15" fill="#ebe7e8" stroke="#b2b1b6" stroke-width="1">
		</rect>
		<path fill="#ebe7e8" d="M -1.5 4 L -1.5 12 M 0.5 4 L 0.5 12" stroke="#b2b1b6" stroke-width="1">
		</path>
	</g>
</svg>