
<svg version="1.1" style="font-family:&quot;lucida grande&quot;, &quot;lucida sans unicode&quot;, arial, helvetica, sans-serif;font-size:12px;" xmlns="http://www.w3.org/2000/svg" viewBox="0 0 584 400">
	<desc>Created with Highstock 4.2.4
	</desc>
	<defs>
		<clipPath id="highcharts-1">
			<rect x="0" y="0" width="540" height="206">
			</rect>
		</clipPath>
		<clipPath id="highcharts-2">
			<rect x="0" y="0" width="540" height="206">
			</rect>
		</clipPath>
		<clipPath id="highcharts-3">
			<rect x="0" y="0" width="512" height="40">
			</rect>
		</clipPath>
	</defs>
	<rect x="0" y="0" width="584" height="400" fill="#FFFFFF" class=" highcharts-background">
	</rect>
	<g class="highcharts-scrollbar" transform="translate(10,372)">
		<rect x="0" y="-0.5" fill="#eeeeee" stroke="#eeeeee" stroke-width="1" rx="0" ry="0" height="14" width="540">
		</rect>
		<rect y="-0.5" height="14" fill="#bfc8d1" stroke="#bfc8d1" stroke-width="1" rx="0" ry="0" x="463.5" width="62">
		</rect>
		<path fill="none" stroke="#666" stroke-width="1" visibility="visible" d="M 491 3.5 L 491 9.3 M 494 3.5 L 494 9.3 M 497 3.5 L 497 9.3">
		</path>
		<g>
			<rect x="-0.5" y="-0.5" width="14" height="14" stroke="#bbb" stroke-width="1" fill="#ebe7e8">
			</rect>
			<path fill="#666" d="M 8 4 L 8 10 5 7">
			</path>
		</g>
		<g transform="translate(526,0)">
			<rect x="-0.5" y="-0.5" width="14" height="14" stroke="#bbb" stroke-width="1" fill="#ebe7e8">
			</rect>
			<path fill="#666" d="M 6 4 L 6 10 9 7">
			</path>
		</g>
	</g>
	<g class="highcharts-range-selector-buttons" transform="translate(0,44)">
		<text x="10" y="15" style="color:#666;fill:#666;">Zoom
		</text>
		<g class="highcharts-button" states="[object Object]" style="cursor:pointer;text-align:center;" transform="translate(48,0)">
			<rect x="0" y="0" width="32" height="22" fill="#f7f7f7" rx="0" ry="0">
			</rect>
			<text x="6.6" style="font-weight:normal;color:#444;fill:#444;" y="14">1m
			</text>
		</g>
		<g class="highcharts-button" states="[object Object]" style="cursor:pointer;text-align:center;" transform="translate(85,0)">
			<rect x="0" y="0" width="32" height="22" fill="#e7f0f9" rx="0" ry="0">
			</rect>
			<text x="6.6" style="font-weight:bold;color:black;fill:black;" y="14">3m
			</text>
		</g>
		<g class="highcharts-button" states="[object Object]" style="cursor:pointer;text-align:center;" transform="translate(122,0)">
			<rect x="0" y="0" width="32" height="22" fill="#f7f7f7" rx="0" ry="0">
			</rect>
			<text x="6.6" style="font-weight:normal;color:#444;fill:#444;" y="14">6m
			</text>
		</g>
		<g class="highcharts-button" states="[object Object]" style="cursor:pointer;text-align:center;" transform="translate(159,0)">
			<rect x="0" y="0" width="32" height="22" fill="#f7f7f7" rx="0" ry="0">
			</rect>
			<text x="3.9" style="font-weight:normal;color:#444;fill:#444;" y="14">YTD
			</text>
		</g>
		<g class="highcharts-button" states="[object Object]" style="cursor:pointer;text-align:center;" transform="translate(196,0)">
			<rect x="0" y="0" width="32" height="22" fill="#f7f7f7" rx="0" ry="0">
			</rect>
			<text x="9.0" style="font-weight:normal;color:#444;fill:#444;" y="14">1y
			</text>
		</g>
		<g class="highcharts-button" states="[object Object]" style="cursor:pointer;text-align:center;" transform="translate(233,0)">
			<rect x="0" y="0" width="32" height="22" fill="#f7f7f7" rx="0" ry="0">
			</rect>
			<text x="8.3" style="font-weight:normal;color:#444;fill:#444;" y="14">All
			</text>
		</g>
	</g>
	<g class="highcharts-input-group" transform="translate(313,44)" visibility="visible">
		<g style="fill:#666;" transform="translate(0,0)">
			<text x="2" style="font-size:12px;font-family:&quot;lucida grande&quot;, &quot;lucida sans unicode&quot;, arial, helvetica, sans-serif;color:#666;fill:#666;" y="14">From
			</text>
		</g>
		<g style="text-align:center;" transform="translate(39,0)">
			<rect x="0.5" y="0.5" width="94" height="21" fill="none" stroke="silver" stroke-width="1">
			</rect>
			<text x="7.6" style="font-size:12px;font-family:&quot;lucida grande&quot;, &quot;lucida sans unicode&quot;, arial, helvetica, sans-serif;color:#444;fill:#444;" y="14">
				<tspan>Mar 30, 2015
				</tspan>
			</text>
		</g>
		<g style="fill:#666;" transform="translate(143,0)">
			<text x="2" style="font-size:12px;font-family:&quot;lucida grande&quot;, &quot;lucida sans unicode&quot;, arial, helvetica, sans-serif;color:#666;fill:#666;" y="14">To
			</text>
		</g>
		<g style="text-align:center;" transform="translate(167,0)">
			<rect x="0.5" y="0.5" width="94" height="21" fill="none" stroke="silver" stroke-width="1">
			</rect>
			<text x="9.2" style="font-size:12px;font-family:&quot;lucida grande&quot;, &quot;lucida sans unicode&quot;, arial, helvetica, sans-serif;color:#444;fill:#444;" y="14">
				<tspan>Jun 30, 2015
				</tspan>
			</text>
		</g>
	</g>
	<path fill="none" d="M 10 237 L 550 237" stroke="green" stroke-width="2" stroke-dasharray="6,2">
	</path>
	<text x="20" text-anchor="undefined" transform="translate(0,0)" style="" y="233" visibility="visible">
		<tspan>Last quarter minimum
		</tspan>
	</text>
	<path fill="none" d="M 10 87 L 550 87" stroke="red" stroke-width="2" stroke-dasharray="6,2">
	</path>
	<text x="20" text-anchor="undefined" transform="translate(0,0)" style="" y="83" visibility="visible">
		<tspan>Last quarter maximum
		</tspan>
	</text>
	<g class="highcharts-grid">
	</g>
	<g class="highcharts-grid">
		<path fill="none" d="M 166.5 331 L 166.5 371" stroke="#EEE" stroke-width="1" opacity="1">
		</path>
		<path fill="none" d="M 413.5 331 L 413.5 371" stroke="#EEE" stroke-width="1" opacity="1">
		</path>
	</g>
	<g class="highcharts-grid">
		<path fill="none" d="M 10 285.5 L 550 285.5" stroke="#D8D8D8" stroke-width="1" opacity="1">
		</path>
		<path fill="none" d="M 10 233.5 L 550 233.5" stroke="#D8D8D8" stroke-width="1" opacity="1">
		</path>
		<path fill="none" d="M 10 182.5 L 550 182.5" stroke="#D8D8D8" stroke-width="1" opacity="1">
		</path>
		<path fill="none" d="M 10 130.5 L 550 130.5" stroke="#D8D8D8" stroke-width="1" opacity="1">
		</path>
		<path fill="none" d="M 10 78.5 L 550 78.5" stroke="#D8D8D8" stroke-width="1" opacity="1">
		</path>
	</g>
	<g class="highcharts-grid">
	</g>
	<g class="highcharts-axis">
		<path fill="none" d="M 50.5 285 L 50.5 295" stroke="#C0D0E0" stroke-width="1" opacity="1">
		</path>
		<path fill="none" d="M 132.5 285 L 132.5 295" stroke="#C0D0E0" stroke-width="1" opacity="1">
		</path>
		<path fill="none" d="M 214.5 285 L 214.5 295" stroke="#C0D0E0" stroke-width="1" opacity="1">
		</path>
		<path fill="none" d="M 296.5 285 L 296.5 295" stroke="#C0D0E0" stroke-width="1" opacity="1">
		</path>
		<path fill="none" d="M 378.5 285 L 378.5 295" stroke="#C0D0E0" stroke-width="1" opacity="1">
		</path>
		<path fill="none" d="M 460.5 285 L 460.5 295" stroke="#C0D0E0" stroke-width="1" opacity="1">
		</path>
		<path fill="none" d="M 542.5 285 L 542.5 295" stroke="#C0D0E0" stroke-width="1" opacity="1">
		</path>
		<path fill="none" d="M 10 285.5 L 550 285.5" stroke="#C0D0E0" stroke-width="1">
		</path>
	</g>
	<g class="highcharts-axis">
	</g>
	<g class="highcharts-axis">
		<text x="560" text-anchor="middle" transform="translate(0,0) rotate(90 560 182)" class=" highcharts-yaxis-title" style="color:#707070;fill:#707070;" y="182">
			<tspan>Exchange rate
			</tspan>
		</text>
	</g>
	<g class="highcharts-axis">
	</g>
	<g class="highcharts-series-group">
		<g class="highcharts-series highcharts-series-0" transform="translate(10,79) scale(1 1)" clip-path="url(#highcharts-2)">
			<path fill="none" d="M -6.8 64.2 L 0 55.4 L 6.8 37.2 L 13.6 43.0 L 20.5 64.2 L 27.3 80.5 L 34.1 84.2 L 41.0 71.2 L 47.8 52.3 L 54.6 46.1 L 61.5 24.3 L 68.3 14.2 L 75.1 15.2 L 82.0 7.6 L 88.8 23.4 L 95.6 29.4 L 102.5 42.6 L 109.3 50.6 L 116.2 51.2 L 123.0 38.7 L 129.8 38.1 L 136.7 36.4 L 143.5 54.3 L 150.3 62.6 L 157.2 61.5 L 164.0 65.0 L 170.8 81.1 L 177.7 106.5 L 184.5 121.7 L 191.3 117.8 L 198.2 115.1 L 205.0 108.7 L 211.8 115.3 L 218.7 142.5 L 225.5 128.5 L 232.4 118.4 L 239.2 116.5 L 246.0 110.4 L 252.9 120.0 L 259.7 143.1 L 266.5 151.6 L 273.4 158.2 L 280.2 157.1 L 287.0 136.3 L 293.9 109.3 L 300.7 100.1 L 307.5 103.2 L 314.4 87.3 L 321.2 82.8 L 328.1 80.3 L 334.9 62.6 L 341.7 67.9 L 348.6 75.6 L 355.4 82.1 L 362.2 77.0 L 369.1 71.8 L 375.9 110.2 L 382.7 129.5 L 389.6 124.0 L 396.4 103.2 L 403.2 102.1 L 410.1 132.4 L 416.9 131.4 L 423.7 138.2 L 430.6 127.3 L 437.4 129.1 L 444.3 120.9 L 451.1 131.4 L 457.9 125.4 L 464.8 139.8 L 471.6 143.7 L 478.4 142.5 L 485.3 145.4 L 492.1 140.4 L 498.9 112.8 L 505.8 118.6 L 512.6 118.4 L 519.4 112.2 L 526.3 79.7 L 533.1 123.5 L 540 113.2" stroke="#7cb5ec" stroke-width="2" stroke-linejoin="round" stroke-linecap="round">
			</path>
			<path fill="none" d="M -16.8 64.2 L -6.8 64.2 L 0 55.4 L 6.8 37.2 L 13.6 43.0 L 20.5 64.2 L 27.3 80.5 L 34.1 84.2 L 41.0 71.2 L 47.8 52.3 L 54.6 46.1 L 61.5 24.3 L 68.3 14.2 L 75.1 15.2 L 82.0 7.6 L 88.8 23.4 L 95.6 29.4 L 102.5 42.6 L 109.3 50.6 L 116.2 51.2 L 123.0 38.7 L 129.8 38.1 L 136.7 36.4 L 143.5 54.3 L 150.3 62.6 L 157.2 61.5 L 164.0 65.0 L 170.8 81.1 L 177.7 106.5 L 184.5 121.7 L 191.3 117.8 L 198.2 115.1 L 205.0 108.7 L 211.8 115.3 L 218.7 142.5 L 225.5 128.5 L 232.4 118.4 L 239.2 116.5 L 246.0 110.4 L 252.9 120.0 L 259.7 143.1 L 266.5 151.6 L 273.4 158.2 L 280.2 157.1 L 287.0 136.3 L 293.9 109.3 L 300.7 100.1 L 307.5 103.2 L 314.4 87.3 L 321.2 82.8 L 328.1 80.3 L 334.9 62.6 L 341.7 67.9 L 348.6 75.6 L 355.4 82.1 L 362.2 77.0 L 369.1 71.8 L 375.9 110.2 L 382.7 129.5 L 389.6 124.0 L 396.4 103.2 L 403.2 102.1 L 410.1 132.4 L 416.9 131.4 L 423.7 138.2 L 430.6 127.3 L 437.4 129.1 L 444.3 120.9 L 451.1 131.4 L 457.9 125.4 L 464.8 139.8 L 471.6 143.7 L 478.4 142.5 L 485.3 145.4 L 492.1 140.4 L 498.9 112.8 L 505.8 118.6 L 512.6 118.4 L 519.4 112.2 L 526.3 79.7 L 533.1 123.5 L 540 113.2 L 550 113.2" stroke-linejoin="round" visibility="visible" stroke="rgb(192,192,192)" stroke-opacity="0.0" stroke-width="22" class=" highcharts-tracker" style="">
			</path>
		</g>
		<g class="highcharts-markers highcharts-series-0 highcharts-tracker" transform="translate(10,79) scale(1 1)" style="" clip-path="none">
		</g>
		<g class="highcharts-series highcharts-series-1" transform="translate(24,331) scale(1 1)" clip-path="url(#highcharts-3)">
			<path fill="#4572A7" d="M 0 29.7 C 0 29.7 0.8 29.8 1.3 30.1 C 1.8 30.4 2.1 31.3 2.7 31.3 C 3.2 31.3 3.5 31.1 4.0 31.1 C 4.5 31.1 4.8 31.5 5.4 31.7 C 5.9 32.0 6.2 32.3 6.7 32.3 C 7.2 32.3 7.5 32.2 8.1 32.2 C 8.6 32.2 8.9 32.3 9.4 32.3 C 9.9 32.3 10.2 32.3 10.8 32.2 C 11.3 32.0 11.6 31.2 12.1 30.8 C 12.6 30.4 12.9 30.3 13.5 30.3 C 14.0 30.2 14.3 30.3 14.8 30.2 C 15.4 30.2 15.6 29.7 16.2 29.6 C 16.7 29.5 17.0 29.5 17.5 29.5 C 18.1 29.5 18.3 29.7 18.9 29.7 C 19.4 29.7 19.7 29.6 20.2 29.3 C 20.8 29.1 21.0 28.6 21.6 28.3 C 22.1 28.0 22.4 27.8 22.9 27.8 C 23.5 27.8 23.7 27.8 24.3 27.9 C 24.8 28.0 25.1 29.4 25.6 29.7 C 26.2 30.0 26.4 30.0 27.0 30.0 C 27.5 30.0 27.8 29.9 28.3 29.9 C 28.9 29.9 29.1 30.6 29.7 30.6 C 30.2 30.6 30.5 30.4 31.0 30.4 C 31.6 30.4 31.8 30.6 32.4 30.7 C 32.9 30.8 33.2 30.9 33.7 31.1 C 34.3 31.2 34.5 31.2 35.1 31.4 C 35.6 31.5 35.9 31.7 36.4 31.7 C 37.0 31.7 37.2 31.6 37.8 31.6 C 38.3 31.6 38.6 31.7 39.1 31.7 C 39.7 31.7 39.9 31.4 40.5 31.4 C 41.0 31.4 41.3 31.6 41.8 31.6 C 42.4 31.7 42.6 31.6 43.2 31.7 C 43.7 31.7 44.0 32.3 44.5 32.3 C 45.1 32.3 45.3 32.2 45.9 32.2 C 46.4 32.1 46.7 32.1 47.2 32.0 C 47.8 31.9 48.0 31.5 48.6 31.5 C 49.1 31.5 49.4 32.1 49.9 32.1 C 50.5 32.1 50.7 32.1 51.3 32.1 C 51.8 32.1 52.1 32.4 52.6 32.4 C 53.2 32.4 53.4 32.3 54.0 32.3 C 54.5 32.3 54.8 32.5 55.3 32.5 C 55.9 32.5 56.1 32.5 56.7 32.4 C 57.2 32.4 57.5 32.4 58.0 32.4 C 58.6 32.3 58.9 31.5 59.4 31.3 C 59.9 31.1 60.2 31.2 60.7 31.1 C 61.3 31.0 61.6 30.9 62.1 30.9 C 62.6 30.8 62.9 30.7 63.4 30.7 C 64.0 30.7 64.3 30.8 64.8 30.9 C 65.3 30.9 65.6 31.0 66.1 31.1 C 66.7 31.3 67.0 31.7 67.5 31.8 C 68.0 31.8 68.3 31.8 68.8 31.8 C 69.4 31.9 69.7 32.3 70.2 32.3 C 70.7 32.3 71.0 32.2 71.5 32.2 C 72.1 32.2 72.4 33.6 72.9 33.6 C 73.4 33.6 73.7 33.6 74.3 33.6 C 74.8 33.6 75.1 33.5 75.6 33.5 C 76.1 33.5 76.4 33.4 77.0 33.4 C 77.5 33.4 77.8 33.4 78.3 33.4 C 78.8 33.4 79.1 33.4 79.7 33.4 C 80.2 33.4 80.5 33.5 81.0 33.6 C 81.5 33.8 81.8 34.2 82.4 34.2 C 82.9 34.2 83.2 33.8 83.7 33.8 C 84.2 33.8 84.5 34.0 85.1 34.0 C 85.6 34.0 85.9 33.9 86.4 33.8 C 86.9 33.7 87.2 33.6 87.8 33.6 C 88.3 33.6 88.6 33.8 89.1 33.8 C 89.7 33.8 89.9 33.7 90.5 33.7 C 91.0 33.7 91.3 34.0 91.8 34.2 C 92.4 34.4 92.6 34.8 93.2 34.8 C 93.7 34.8 94.0 34.8 94.5 34.8 C 95.1 34.8 95.3 35.4 95.9 35.5 C 96.4 35.7 96.7 35.7 97.2 35.7 C 97.8 35.7 98.0 35.7 98.6 35.7 C 99.1 35.7 99.4 35.6 99.9 35.4 C 100.5 35.2 100.7 35.1 101.3 34.6 C 101.8 34.2 102.1 33.3 102.6 33.3 C 103.2 33.3 103.4 33.4 104.0 33.4 C 104.5 33.4 104.8 33.4 105.3 33.4 C 105.9 33.3 106.1 32.8 106.7 32.6 C 107.2 32.4 107.5 32.2 108.0 32.2 C 108.6 32.2 108.8 32.6 109.4 32.8 C 109.9 33.0 110.2 33.1 110.7 33.2 C 111.3 33.3 111.5 33.4 112.1 33.4 C 112.6 33.4 112.9 33.4 113.4 33.4 C 114.0 33.3 114.2 33.3 114.8 33.3 C 115.3 33.3 115.6 33.5 116.1 33.6 C 116.7 33.7 116.9 33.8 117.5 33.8 C 118.0 33.8 118.3 33.7 118.8 33.7 C 119.4 33.7 119.6 34.1 120.2 34.1 C 120.7 34.1 121.0 34.1 121.5 34.1 C 122.1 34.1 122.3 33.9 122.9 33.9 C 123.4 33.9 123.7 33.9 124.2 34.1 C 124.8 34.3 125.0 34.7 125.6 34.8 C 126.1 35.0 126.4 34.9 126.9 35.0 C 127.5 35.1 127.7 35.2 128.3 35.3 C 128.8 35.4 129.1 35.5 129.6 35.5 C 130.2 35.5 130.4 35.3 131.0 35.3 C 131.5 35.3 131.8 35.3 132.3 35.3 C 132.9 35.3 133.2 35.3 133.7 35.1 C 134.2 35.0 134.5 34.7 135.0 34.7 C 135.6 34.7 135.9 34.7 136.4 34.8 C 136.9 34.8 137.2 34.9 137.7 34.9 C 138.3 34.9 138.6 34.8 139.1 34.8 C 139.6 34.8 139.9 35.1 140.4 35.2 C 141.0 35.4 141.3 35.5 141.8 35.5 C 142.3 35.5 142.6 35.5 143.1 35.3 C 143.7 35.1 144.0 34.6 144.5 34.4 C 145.0 34.2 145.3 34.1 145.8 34.1 C 146.4 34.1 146.7 34.3 147.2 34.3 C 147.7 34.3 148.0 34.1 148.6 34.1 C 149.1 34.1 149.4 34.7 149.9 34.7 C 150.4 34.7 150.7 34.7 151.3 34.7 C 151.8 34.7 152.1 34.6 152.6 34.5 C 153.1 34.4 153.4 34.2 154.0 34.0 C 154.5 33.9 154.8 33.6 155.3 33.6 C 155.8 33.6 156.1 33.7 156.7 33.8 C 157.2 34.0 157.5 34.2 158.0 34.3 C 158.5 34.5 158.8 34.8 159.4 34.8 C 159.9 34.8 160.2 34.8 160.7 34.8 C 161.3 34.8 161.5 34.8 162.1 34.7 C 162.6 34.6 162.9 33.8 163.4 33.6 C 164.0 33.3 164.2 33.3 164.8 33.3 C 165.3 33.3 165.6 33.5 166.1 33.6 C 166.7 33.7 166.9 33.7 167.5 33.9 C 168.0 34.1 168.3 34.4 168.8 34.4 C 169.4 34.4 169.6 34.4 170.2 34.4 C 170.7 34.4 171.0 34.3 171.5 34.3 C 172.1 34.3 172.3 34.7 172.9 34.8 C 173.4 34.9 173.7 34.9 174.2 34.9 C 174.8 35.0 175.0 35.2 175.6 35.2 C 176.1 35.2 176.4 35.1 176.9 35.1 C 177.5 35.1 177.7 35.2 178.3 35.2 C 178.8 35.2 179.1 35.2 179.6 35.2 C 180.2 35.2 180.4 35.1 181.0 35.1 C 181.5 35.1 181.8 35.3 182.3 35.3 C 182.9 35.4 183.1 35.5 183.7 35.5 C 184.2 35.5 184.5 35.2 185.0 35.2 C 185.6 35.2 185.8 35.4 186.4 35.6 C 186.9 35.9 187.2 36.2 187.7 36.2 C 188.3 36.2 188.5 36.2 189.1 36.2 C 189.6 36.2 189.9 36.3 190.4 36.3 C 191.0 36.3 191.2 36.3 191.8 36.4 C 192.3 36.4 192.6 36.5 193.1 36.5 C 193.7 36.6 193.9 36.6 194.5 36.6 C 195.0 36.6 195.3 35.8 195.8 35.7 C 196.4 35.6 196.6 35.6 197.2 35.6 C 197.7 35.6 198.0 35.8 198.5 35.8 C 199.1 35.8 199.3 35.8 199.9 35.7 C 200.4 35.6 200.7 35.3 201.2 35.3 C 201.8 35.3 202.0 35.3 202.6 35.3 C 203.1 35.4 203.4 35.6 203.9 35.6 C 204.5 35.6 204.8 35.4 205.3 35.3 C 205.8 35.1 206.1 35.0 206.6 35.0 C 207.2 35.0 207.5 35.0 208.0 35.1 C 208.5 35.2 208.8 35.6 209.3 35.9 C 209.9 36.1 210.2 36.3 210.7 36.3 C 211.2 36.3 211.5 36.1 212.0 36.0 C 212.6 35.9 212.9 35.8 213.4 35.8 C 213.9 35.8 214.2 35.8 214.7 35.8 C 215.3 35.8 215.6 35.8 216.1 35.8 C 216.6 35.8 216.9 35.7 217.4 35.7 C 218.0 35.7 218.3 35.7 218.8 35.8 C 219.3 35.8 219.6 35.9 220.2 35.9 C 220.7 36.0 221.0 36.0 221.5 36.0 C 222.0 36.0 222.3 35.9 222.9 35.9 C 223.4 35.9 223.7 36.2 224.2 36.2 C 224.7 36.2 225.0 36.2 225.6 36.2 C 226.1 36.2 226.4 36.2 226.9 36.2 C 227.4 36.2 227.7 36.6 228.3 36.6 C 228.8 36.6 229.1 35.9 229.6 35.7 C 230.1 35.4 230.4 35.5 231.0 35.4 C 231.5 35.3 231.8 35.2 232.3 35.2 C 232.8 35.1 233.1 35.1 233.7 35.0 C 234.2 35.0 234.5 34.9 235.0 34.9 C 235.6 34.9 235.8 35.0 236.4 35.0 C 236.9 35.0 237.2 35.0 237.7 34.9 C 238.3 34.8 238.5 34.6 239.1 34.5 C 239.6 34.4 239.9 34.4 240.4 34.4 C 241.0 34.4 241.2 34.5 241.8 34.5 C 242.3 34.5 242.6 34.2 243.1 34.2 C 243.7 34.2 243.9 34.4 244.5 34.4 C 245.0 34.4 245.3 34.3 245.8 34.3 C 246.4 34.3 246.6 34.3 247.2 34.3 C 247.7 34.3 248.0 34.6 248.5 34.6 C 249.1 34.6 249.3 34.6 249.9 34.5 C 250.4 34.5 250.7 34.1 251.2 34.0 C 251.8 33.8 252.0 33.7 252.6 33.7 C 253.1 33.7 253.4 33.7 253.9 33.7 C 254.5 33.7 254.7 33.8 255.3 33.8 C 255.8 33.9 256.1 33.9 256.6 33.9 C 257.2 34.0 257.4 34.2 258.0 34.2 C 258.5 34.2 258.8 34.1 259.3 34.1 C 259.9 34.1 260.1 34.2 260.7 34.2 C 261.2 34.3 261.5 34.3 262.0 34.3 C 262.6 34.4 262.8 34.5 263.4 34.5 C 263.9 34.6 264.2 34.7 264.7 34.7 C 265.3 34.7 265.5 34.7 266.1 34.7 C 266.6 34.7 266.9 34.3 267.4 34.2 C 268.0 34.1 268.2 34.1 268.8 34.1 C 269.3 34.1 269.6 34.2 270.1 34.2 C 270.7 34.3 270.9 34.4 271.5 34.4 C 272.0 34.4 272.3 34.2 272.8 34.2 C 273.4 34.2 273.6 34.3 274.2 34.3 C 274.7 34.3 275.0 33.9 275.5 33.8 C 276.1 33.6 276.3 33.6 276.9 33.6 C 277.4 33.6 277.7 33.7 278.2 33.7 C 278.8 33.7 279.1 33.5 279.6 33.4 C 280.1 33.2 280.4 33.2 280.9 33.1 C 281.5 33.0 281.8 32.9 282.3 32.9 C 282.8 32.9 283.1 32.9 283.6 32.9 C 284.2 32.9 284.5 32.6 285.0 32.6 C 285.5 32.6 285.8 32.7 286.3 32.7 C 286.9 32.7 287.2 32.8 287.7 32.8 C 288.2 32.8 288.5 32.7 289.0 32.6 C 289.6 32.5 289.9 32.4 290.4 32.4 C 290.9 32.4 291.2 32.7 291.7 32.7 C 292.3 32.7 292.6 32.7 293.1 32.6 C 293.6 32.5 293.9 32.4 294.5 32.4 C 295.0 32.4 295.3 32.5 295.8 32.5 C 296.3 32.5 296.6 32.5 297.2 32.5 C 297.7 32.5 298.0 32.3 298.5 32.2 C 299.0 32.0 299.3 31.8 299.9 31.6 C 300.4 31.4 300.7 31.5 301.2 31.4 C 301.7 31.3 302.0 31.1 302.6 31.0 C 303.1 30.9 303.4 30.9 303.9 30.9 C 304.4 30.8 304.7 30.8 305.3 30.7 C 305.8 30.6 306.1 30.4 306.6 30.4 C 307.2 30.4 307.4 30.5 308.0 30.5 C 308.5 30.5 308.8 30.1 309.3 29.8 C 309.9 29.5 310.1 29.2 310.7 29.0 C 311.2 28.8 311.5 28.8 312.0 28.8 C 312.6 28.8 312.8 28.8 313.4 28.8 C 313.9 28.8 314.2 28.9 314.7 28.9 C 315.3 29.0 315.5 29.0 316.1 29.0 C 316.6 29.0 316.9 29.0 317.4 29.0 C 318.0 28.9 318.2 28.7 318.8 28.5 C 319.3 28.3 319.6 27.9 320.1 27.9 C 320.7 27.9 320.9 28.1 321.5 28.1 C 322.0 28.1 322.3 28.0 322.8 27.8 C 323.4 27.6 323.6 27.2 324.2 27.0 C 324.7 26.7 325.0 26.7 325.5 26.6 C 326.1 26.5 326.3 26.5 326.9 26.5 C 327.4 26.4 327.7 26.5 328.2 26.3 C 328.8 26.2 329.0 25.2 329.6 25.2 C 330.1 25.2 330.4 25.5 330.9 25.8 C 331.5 26.1 331.7 26.8 332.3 26.8 C 332.8 26.8 333.1 26.6 333.6 26.5 C 334.2 26.3 334.4 26.3 335.0 26.3 C 335.5 26.3 335.8 26.5 336.3 26.9 C 336.9 27.2 337.1 27.9 337.7 27.9 C 338.2 27.9 338.5 27.4 339.0 27.4 C 339.6 27.4 339.8 27.5 340.4 27.5 C 340.9 27.5 341.2 26.9 341.7 26.7 C 342.3 26.5 342.5 26.5 343.1 26.5 C 343.6 26.5 343.9 26.5 344.4 26.6 C 345.0 26.7 345.2 27.0 345.8 27.0 C 346.3 27.0 346.6 26.5 347.1 26.1 C 347.7 25.8 347.9 25.5 348.5 25.3 C 349.0 25.0 349.3 25.0 349.8 25.0 C 350.4 25.0 350.6 25.2 351.2 25.2 C 351.7 25.2 352.0 24.3 352.5 24.3 C 353.1 24.3 353.4 24.7 353.9 24.7 C 354.4 24.7 354.7 24.6 355.2 24.6 C 355.8 24.6 356.1 24.6 356.6 24.7 C 357.1 24.7 357.4 25.3 357.9 25.3 C 358.5 25.3 358.8 24.9 359.3 24.9 C 359.8 24.9 360.1 25.5 360.6 25.5 C 361.2 25.5 361.5 25.0 362.0 24.7 C 362.5 24.4 362.8 23.9 363.3 23.9 C 363.9 23.9 364.2 24.5 364.7 24.7 C 365.2 24.9 365.5 24.9 366.1 24.9 C 366.6 24.9 366.9 24.6 367.4 24.6 C 367.9 24.6 368.2 24.6 368.8 24.6 C 369.3 24.6 369.6 23.8 370.1 23.6 C 370.6 23.5 370.9 23.6 371.5 23.5 C 372.0 23.4 372.3 23.1 372.8 23.1 C 373.3 23.1 373.6 23.4 374.2 23.6 C 374.7 23.9 375.0 24.2 375.5 24.4 C 376.0 24.6 376.3 24.7 376.9 24.7 C 377.4 24.7 377.7 24.7 378.2 24.6 C 378.7 24.5 379.0 24.6 379.6 24.4 C 380.1 24.2 380.4 23.1 380.9 22.8 C 381.5 22.5 381.7 22.6 382.3 22.5 C 382.8 22.4 383.1 22.3 383.6 22.3 C 384.2 22.3 384.4 22.3 385.0 22.3 C 385.5 22.3 385.8 22.1 386.3 22.0 C 386.9 21.9 387.1 22.0 387.7 21.9 C 388.2 21.8 388.5 21.8 389.0 21.6 C 389.6 21.4 389.8 21.2 390.4 20.9 C 390.9 20.5 391.2 20.1 391.7 19.8 C 392.3 19.5 392.5 19.7 393.1 19.5 C 393.6 19.2 393.9 18.5 394.4 18.5 C 395.0 18.5 395.2 18.7 395.8 18.8 C 396.3 18.8 396.6 18.9 397.1 18.9 C 397.7 18.9 397.9 18.7 398.5 18.1 C 399.0 17.6 399.3 16.7 399.8 16.3 C 400.4 15.9 400.6 15.9 401.2 15.9 C 401.7 15.9 402.0 16.0 402.5 16.0 C 403.1 16.0 403.3 15.9 403.9 15.1 C 404.4 14.3 404.7 12.3 405.2 12.0 C 405.8 11.7 406.0 11.7 406.6 11.7 C 407.1 11.7 407.4 13.4 407.9 13.4 C 408.5 13.4 408.7 13.1 409.3 13.1 C 409.8 13.1 410.1 13.1 410.6 13.1 C 411.2 13.2 411.4 14.3 412.0 14.3 C 412.5 14.3 412.8 14.3 413.3 14.3 C 413.9 14.3 414.1 13.2 414.7 13.2 C 415.2 13.2 415.5 13.2 416.0 13.3 C 416.6 13.3 416.8 13.3 417.4 13.3 C 417.9 13.4 418.2 14.0 418.7 14.1 C 419.3 14.1 419.5 14.1 420.1 14.1 C 420.6 14.1 420.9 14.0 421.4 14.0 C 422.0 13.9 422.2 13.9 422.8 13.9 C 423.3 13.9 423.6 13.9 424.1 13.9 C 424.7 13.9 425.0 13.7 425.5 13.7 C 426.0 13.6 426.3 13.7 426.8 13.6 C 427.4 13.6 427.7 12.3 428.2 11.9 C 428.7 11.5 429.0 11.5 429.5 11.5 C 430.1 11.5 430.4 11.7 430.9 11.7 C 431.4 11.7 431.7 11.1 432.2 10.3 C 432.8 9.5 433.1 7.8 433.6 7.8 C 434.1 7.8 434.4 7.9 434.9 7.9 C 435.5 7.9 435.8 5.8 436.3 5.1 C 436.8 4.4 437.1 4.7 437.6 4.3 C 438.2 4.0 438.5 3.3 439.0 3.3 C 439.5 3.3 439.8 3.9 440.4 4.6 C 440.9 5.3 441.2 6.2 441.7 6.8 C 442.2 7.4 442.5 7.2 443.1 7.5 C 443.6 7.8 443.9 8.0 444.4 8.3 C 444.9 8.6 445.2 9.0 445.8 9.0 C 446.3 9.0 446.6 8.3 447.1 8.3 C 447.6 8.3 447.9 8.3 448.5 8.3 C 449.0 8.2 449.3 7.0 449.8 7.0 C 450.3 7.0 450.6 7.1 451.2 7.5 C 451.7 8.0 452.0 9.4 452.5 9.4 C 453.0 9.4 453.3 9.4 453.9 9.2 C 454.4 9.0 454.7 8.0 455.2 7.2 C 455.8 6.4 456.0 5.5 456.6 5.2 C 457.1 4.9 457.4 4.9 457.9 4.9 C 458.5 4.9 458.7 4.9 459.3 4.9 C 459.8 4.9 460.1 5.9 460.6 6.3 C 461.2 6.8 461.4 7.3 462.0 7.3 C 462.5 7.3 462.8 7.1 463.3 6.9 C 463.9 6.8 464.1 6.4 464.7 6.4 C 465.2 6.4 465.5 7.7 466.0 7.9 C 466.6 8.1 466.8 7.9 467.4 8.1 C 467.9 8.3 468.2 8.2 468.7 8.9 C 469.3 9.6 469.5 11.4 470.1 11.7 C 470.6 11.9 470.9 11.9 471.4 11.9 C 472.0 11.9 472.2 11.5 472.8 11.5 C 473.3 11.5 473.6 12.7 474.1 12.7 C 474.7 12.7 474.9 12.5 475.5 12.3 C 476.0 12.2 476.3 11.9 476.8 11.9 C 477.4 11.8 477.6 11.8 478.2 11.8 C 478.7 11.8 479.0 13.4 479.5 14.0 C 480.1 14.6 480.3 14.7 480.9 14.7 C 481.4 14.7 481.7 14.7 482.2 13.9 C 482.8 13.2 483.0 11.7 483.6 11.0 C 484.1 10.4 484.4 10.7 484.9 10.4 C 485.5 10.1 485.7 9.9 486.3 9.5 C 486.8 9.2 487.1 8.8 487.6 8.8 C 488.2 8.8 488.4 8.8 489.0 8.8 C 489.5 8.8 489.8 9.5 490.3 9.5 C 490.9 9.5 491.1 9.0 491.7 9.0 C 492.2 9.0 492.5 12.1 493.0 12.1 C 493.6 12.1 493.8 11.9 494.4 11.6 C 494.9 11.4 495.2 10.9 495.7 10.9 C 496.3 10.9 496.5 12.8 497.1 12.9 C 497.6 13.0 497.9 13.0 498.4 13.0 C 499.0 13.0 499.3 12.8 499.8 12.7 C 500.3 12.6 500.6 12.5 501.1 12.5 C 501.7 12.5 502.0 12.7 502.5 13.0 C 503.0 13.2 503.3 13.5 503.8 13.7 C 504.4 13.8 504.7 13.8 505.2 13.8 C 505.7 13.8 506.0 12.9 506.5 12.5 C 507.1 12.2 507.4 12.2 507.9 12.0 C 508.4 11.8 508.7 11.8 509.2 11.6 C 509.8 11.3 510.1 10.8 510.6 10.8 C 511.1 10.8 512 11.6 512 11.6 L 512 40 C 512 40 511.1 40 510.6 40 C 510.1 40 509.8 40 509.2 40 C 508.7 40 508.4 40 507.9 40 C 507.4 40 507.1 40 506.5 40 C 506.0 40 505.7 40 505.2 40 C 504.7 40 504.4 40 503.8 40 C 503.3 40 503.0 40 502.5 40 C 502.0 40 501.7 40 501.1 40 C 500.6 40 500.3 40 499.8 40 C 499.3 40 499.0 40 498.4 40 C 497.9 40 497.6 40 497.1 40 C 496.5 40 496.3 40 495.7 40 C 495.2 40 494.9 40 494.4 40 C 493.8 40 493.6 40 493.0 40 C 492.5 40 492.2 40 491.7 40 C 491.1 40 490.9 40 490.3 40 C 489.8 40 489.5 40 489.0 40 C 488.4 40 488.2 40 487.6 40 C 487.1 40 486.8 40 486.3 40 C 485.7 40 485.5 40 484.9 40 C 484.4 40 484.1 40 483.6 40 C 483.0 40 482.8 40 482.2 40 C 481.7 40 481.4 40 480.9 40 C 480.3 40 480.1 40 479.5 40 C 479.0 40 478.7 40 478.2 40 C 477.6 40 477.4 40 476.8 40 C 476.3 40 476.0 40 475.5 40 C 474.9 40 474.7 40 474.1 40 C 473.6 40 473.3 40 472.8 40 C 472.2 40 472.0 40 471.4 40 C 470.9 40 470.6 40 470.1 40 C 469.5 40 469.3 40 468.7 40 C 468.2 40 467.9 40 467.4 40 C 466.8 40 466.6 40 466.0 40 C 465.5 40 465.2 40 464.7 40 C 464.1 40 463.9 40 463.3 40 C 462.8 40 462.5 40 462.0 40 C 461.4 40 461.2 40 460.6 40 C 460.1 40 459.8 40 459.3 40 C 458.7 40 458.5 40 457.9 40 C 457.4 40 457.1 40 456.6 40 C 456.0 40 455.8 40 455.2 40 C 454.7 40 454.4 40 453.9 40 C 453.3 40 453.0 40 452.5 40 C 452.0 40 451.7 40 451.2 40 C 450.6 40 450.3 40 449.8 40 C 449.3 40 449.0 40 448.5 40 C 447.9 40 447.6 40 447.1 40 C 446.6 40 446.3 40 445.8 40 C 445.2 40 444.9 40 444.4 40 C 443.9 40 443.6 40 443.1 40 C 442.5 40 442.2 40 441.7 40 C 441.2 40 440.9 40 440.4 40 C 439.8 40 439.5 40 439.0 40 C 438.5 40 438.2 40 437.6 40 C 437.1 40 436.8 40 436.3 40 C 435.8 40 435.5 40 434.9 40 C 434.4 40 434.1 40 433.6 40 C 433.1 40 432.8 40 432.2 40 C 431.7 40 431.4 40 430.9 40 C 430.4 40 430.1 40 429.5 40 C 429.0 40 428.7 40 428.2 40 C 427.7 40 427.4 40 426.8 40 C 426.3 40 426.0 40 425.5 40 C 425.0 40 424.7 40 424.1 40 C 423.6 40 423.3 40 422.8 40 C 422.2 40 422.0 40 421.4 40 C 420.9 40 420.6 40 420.1 40 C 419.5 40 419.3 40 418.7 40 C 418.2 40 417.9 40 417.4 40 C 416.8 40 416.6 40 416.0 40 C 415.5 40 415.2 40 414.7 40 C 414.1 40 413.9 40 413.3 40 C 412.8 40 412.5 40 412.0 40 C 411.4 40 411.2 40 410.6 40 C 410.1 40 409.8 40 409.3 40 C 408.7 40 408.5 40 407.9 40 C 407.4 40 407.1 40 406.6 40 C 406.0 40 405.8 40 405.2 40 C 404.7 40 404.4 40 403.9 40 C 403.3 40 403.1 40 402.5 40 C 402.0 40 401.7 40 401.2 40 C 400.6 40 400.4 40 399.8 40 C 399.3 40 399.0 40 398.5 40 C 397.9 40 397.7 40 397.1 40 C 396.6 40 396.3 40 395.8 40 C 395.2 40 395.0 40 394.4 40 C 393.9 40 393.6 40 393.1 40 C 392.5 40 392.3 40 391.7 40 C 391.2 40 390.9 40 390.4 40 C 389.8 40 389.6 40 389.0 40 C 388.5 40 388.2 40 387.7 40 C 387.1 40 386.9 40 386.3 40 C 385.8 40 385.5 40 385.0 40 C 384.4 40 384.2 40 383.6 40 C 383.1 40 382.8 40 382.3 40 C 381.7 40 381.5 40 380.9 40 C 380.4 40 380.1 40 379.6 40 C 379.0 40 378.7 40 378.2 40 C 377.7 40 377.4 40 376.9 40 C 376.3 40 376.0 40 375.5 40 C 375.0 40 374.7 40 374.2 40 C 373.6 40 373.3 40 372.8 40 C 372.3 40 372.0 40 371.5 40 C 370.9 40 370.6 40 370.1 40 C 369.6 40 369.3 40 368.8 40 C 368.2 40 367.9 40 367.4 40 C 366.9 40 366.6 40 366.1 40 C 365.5 40 365.2 40 364.7 40 C 364.2 40 363.9 40 363.3 40 C 362.8 40 362.5 40 362.0 40 C 361.5 40 361.2 40 360.6 40 C 360.1 40 359.8 40 359.3 40 C 358.8 40 358.5 40 357.9 40 C 357.4 40 357.1 40 356.6 40 C 356.1 40 355.8 40 355.2 40 C 354.7 40 354.4 40 353.9 40 C 353.4 40 353.1 40 352.5 40 C 352.0 40 351.7 40 351.2 40 C 350.6 40 350.4 40 349.8 40 C 349.3 40 349.0 40 348.5 40 C 347.9 40 347.7 40 347.1 40 C 346.6 40 346.3 40 345.8 40 C 345.2 40 345.0 40 344.4 40 C 343.9 40 343.6 40 343.1 40 C 342.5 40 342.3 40 341.7 40 C 341.2 40 340.9 40 340.4 40 C 339.8 40 339.6 40 339.0 40 C 338.5 40 338.2 40 337.7 40 C 337.1 40 336.9 40 336.3 40 C 335.8 40 335.5 40 335.0 40 C 334.4 40 334.2 40 333.6 40 C 333.1 40 332.8 40 332.3 40 C 331.7 40 331.5 40 330.9 40 C 330.4 40 330.1 40 329.6 40 C 329.0 40 328.8 40 328.2 40 C 327.7 40 327.4 40 326.9 40 C 326.3 40 326.1 40 325.5 40 C 325.0 40 324.7 40 324.2 40 C 323.6 40 323.4 40 322.8 40 C 322.3 40 322.0 40 321.5 40 C 320.9 40 320.7 40 320.1 40 C 319.6 40 319.3 40 318.8 40 C 318.2 40 318.0 40 317.4 40 C 316.9 40 316.6 40 316.1 40 C 315.5 40 315.3 40 314.7 40 C 314.2 40 313.9 40 313.4 40 C 312.8 40 312.6 40 312.0 40 C 311.5 40 311.2 40 310.7 40 C 310.1 40 309.9 40 309.3 40 C 308.8 40 308.5 40 308.0 40 C 307.4 40 307.2 40 306.6 40 C 306.1 40 305.8 40 305.3 40 C 304.7 40 304.4 40 303.9 40 C 303.4 40 303.1 40 302.6 40 C 302.0 40 301.7 40 301.2 40 C 300.7 40 300.4 40 299.9 40 C 299.3 40 299.0 40 298.5 40 C 298.0 40 297.7 40 297.2 40 C 296.6 40 296.3 40 295.8 40 C 295.3 40 295.0 40 294.5 40 C 293.9 40 293.6 40 293.1 40 C 292.6 40 292.3 40 291.7 40 C 291.2 40 290.9 40 290.4 40 C 289.9 40 289.6 40 289.0 40 C 288.5 40 288.2 40 287.7 40 C 287.2 40 286.9 40 286.3 40 C 285.8 40 285.5 40 285.0 40 C 284.5 40 284.2 40 283.6 40 C 283.1 40 282.8 40 282.3 40 C 281.8 40 281.5 40 280.9 40 C 280.4 40 280.1 40 279.6 40 C 279.1 40 278.8 40 278.2 40 C 277.7 40 277.4 40 276.9 40 C 276.3 40 276.1 40 275.5 40 C 275.0 40 274.7 40 274.2 40 C 273.6 40 273.4 40 272.8 40 C 272.3 40 272.0 40 271.5 40 C 270.9 40 270.7 40 270.1 40 C 269.6 40 269.3 40 268.8 40 C 268.2 40 268.0 40 267.4 40 C 266.9 40 266.6 40 266.1 40 C 265.5 40 265.3 40 264.7 40 C 264.2 40 263.9 40 263.4 40 C 262.8 40 262.6 40 262.0 40 C 261.5 40 261.2 40 260.7 40 C 260.1 40 259.9 40 259.3 40 C 258.8 40 258.5 40 258.0 40 C 257.4 40 257.2 40 256.6 40 C 256.1 40 255.8 40 255.3 40 C 254.7 40 254.5 40 253.9 40 C 253.4 40 253.1 40 252.6 40 C 252.0 40 251.8 40 251.2 40 C 250.7 40 250.4 40 249.9 40 C 249.3 40 249.1 40 248.5 40 C 248.0 40 247.7 40 247.2 40 C 246.6 40 246.4 40 245.8 40 C 245.3 40 245.0 40 244.5 40 C 243.9 40 243.7 40 243.1 40 C 242.6 40 242.3 40 241.8 40 C 241.2 40 241.0 40 240.4 40 C 239.9 40 239.6 40 239.1 40 C 238.5 40 238.3 40 237.7 40 C 237.2 40 236.9 40 236.4 40 C 235.8 40 235.6 40 235.0 40 C 234.5 40 234.2 40 233.7 40 C 233.1 40 232.8 40 232.3 40 C 231.8 40 231.5 40 231.0 40 C 230.4 40 230.1 40 229.6 40 C 229.1 40 228.8 40 228.3 40 C 227.7 40 227.4 40 226.9 40 C 226.4 40 226.1 40 225.6 40 C 225.0 40 224.7 40 224.2 40 C 223.7 40 223.4 40 222.9 40 C 222.3 40 222.0 40 221.5 40 C 221.0 40 220.7 40 220.2 40 C 219.6 40 219.3 40 218.8 40 C 218.3 40 218.0 40 217.4 40 C 216.9 40 216.6 40 216.1 40 C 215.6 40 215.3 40 214.7 40 C 214.2 40 213.9 40 213.4 40 C 212.9 40 212.6 40 212.0 40 C 211.5 40 211.2 40 210.7 40 C 210.2 40 209.9 40 209.3 40 C 208.8 40 208.5 40 208.0 40 C 207.5 40 207.2 40 206.6 40 C 206.1 40 205.8 40 205.3 40 C 204.8 40 204.5 40 203.9 40 C 203.4 40 203.1 40 202.6 40 C 202.0 40 201.8 40 201.2 40 C 200.7 40 200.4 40 199.9 40 C 199.3 40 199.1 40 198.5 40 C 198.0 40 197.7 40 197.2 40 C 196.6 40 196.4 40 195.8 40 C 195.3 40 195.0 40 194.5 40 C 193.9 40 193.7 40 193.1 40 C 192.6 40 192.3 40 191.8 40 C 191.2 40 191.0 40 190.4 40 C 189.9 40 189.6 40 189.1 40 C 188.5 40 188.3 40 187.7 40 C 187.2 40 186.9 40 186.4 40 C 185.8 40 185.6 40 185.0 40 C 184.5 40 184.2 40 183.7 40 C 183.1 40 182.9 40 182.3 40 C 181.8 40 181.5 40 181.0 40 C 180.4 40 180.2 40 179.6 40 C 179.1 40 178.8 40 178.3 40 C 177.7 40 177.5 40 176.9 40 C 176.4 40 176.1 40 175.6 40 C 175.0 40 174.8 40 174.2 40 C 173.7 40 173.4 40 172.9 40 C 172.3 40 172.1 40 171.5 40 C 171.0 40 170.7 40 170.2 40 C 169.6 40 169.4 40 168.8 40 C 168.3 40 168.0 40 167.5 40 C 166.9 40 166.7 40 166.1 40 C 165.6 40 165.3 40 164.8 40 C 164.2 40 164.0 40 163.4 40 C 162.9 40 162.6 40 162.1 40 C 161.5 40 161.3 40 160.7 40 C 160.2 40 159.9 40 159.4 40 C 158.8 40 158.5 40 158.0 40 C 157.5 40 157.2 40 156.7 40 C 156.1 40 155.8 40 155.3 40 C 154.8 40 154.5 40 154.0 40 C 153.4 40 153.1 40 152.6 40 C 152.1 40 151.8 40 151.3 40 C 150.7 40 150.4 40 149.9 40 C 149.4 40 149.1 40 148.6 40 C 148.0 40 147.7 40 147.2 40 C 146.7 40 146.4 40 145.8 40 C 145.3 40 145.0 40 144.5 40 C 144.0 40 143.7 40 143.1 40 C 142.6 40 142.3 40 141.8 40 C 141.3 40 141.0 40 140.4 40 C 139.9 40 139.6 40 139.1 40 C 138.6 40 138.3 40 137.7 40 C 137.2 40 136.9 40 136.4 40 C 135.9 40 135.6 40 135.0 40 C 134.5 40 134.2 40 133.7 40 C 133.2 40 132.9 40 132.3 40 C 131.8 40 131.5 40 131.0 40 C 130.4 40 130.2 40 129.6 40 C 129.1 40 128.8 40 128.3 40 C 127.7 40 127.5 40 126.9 40 C 126.4 40 126.1 40 125.6 40 C 125.0 40 124.8 40 124.2 40 C 123.7 40 123.4 40 122.9 40 C 122.3 40 122.1 40 121.5 40 C 121.0 40 120.7 40 120.2 40 C 119.6 40 119.4 40 118.8 40 C 118.3 40 118.0 40 117.5 40 C 116.9 40 116.7 40 116.1 40 C 115.6 40 115.3 40 114.8 40 C 114.2 40 114.0 40 113.4 40 C 112.9 40 112.6 40 112.1 40 C 111.5 40 111.3 40 110.7 40 C 110.2 40 109.9 40 109.4 40 C 108.8 40 108.6 40 108.0 40 C 107.5 40 107.2 40 106.7 40 C 106.1 40 105.9 40 105.3 40 C 104.8 40 104.5 40 104.0 40 C 103.4 40 103.2 40 102.6 40 C 102.1 40 101.8 40 101.3 40 C 100.7 40 100.5 40 99.9 40 C 99.4 40 99.1 40 98.6 40 C 98.0 40 97.8 40 97.2 40 C 96.7 40 96.4 40 95.9 40 C 95.3 40 95.1 40 94.5 40 C 94.0 40 93.7 40 93.2 40 C 92.6 40 92.4 40 91.8 40 C 91.3 40 91.0 40 90.5 40 C 89.9 40 89.7 40 89.1 40 C 88.6 40 88.3 40 87.8 40 C 87.2 40 86.9 40 86.4 40 C 85.9 40 85.6 40 85.1 40 C 84.5 40 84.2 40 83.7 40 C 83.2 40 82.9 40 82.4 40 C 81.8 40 81.5 40 81.0 40 C 80.5 40 80.2 40 79.7 40 C 79.1 40 78.8 40 78.3 40 C 77.8 40 77.5 40 77.0 40 C 76.4 40 76.1 40 75.6 40 C 75.1 40 74.8 40 74.3 40 C 73.7 40 73.4 40 72.9 40 C 72.4 40 72.1 40 71.5 40 C 71.0 40 70.7 40 70.2 40 C 69.7 40 69.4 40 68.8 40 C 68.3 40 68.0 40 67.5 40 C 67.0 40 66.7 40 66.1 40 C 65.6 40 65.3 40 64.8 40 C 64.3 40 64.0 40 63.4 40 C 62.9 40 62.6 40 62.1 40 C 61.6 40 61.3 40 60.7 40 C 60.2 40 59.9 40 59.4 40 C 58.9 40 58.6 40 58.0 40 C 57.5 40 57.2 40 56.7 40 C 56.1 40 55.9 40 55.3 40 C 54.8 40 54.5 40 54.0 40 C 53.4 40 53.2 40 52.6 40 C 52.1 40 51.8 40 51.3 40 C 50.7 40 50.5 40 49.9 40 C 49.4 40 49.1 40 48.6 40 C 48.0 40 47.8 40 47.2 40 C 46.7 40 46.4 40 45.9 40 C 45.3 40 45.1 40 44.5 40 C 44.0 40 43.7 40 43.2 40 C 42.6 40 42.4 40 41.8 40 C 41.3 40 41.0 40 40.5 40 C 39.9 40 39.7 40 39.1 40 C 38.6 40 38.3 40 37.8 40 C 37.2 40 37.0 40 36.4 40 C 35.9 40 35.6 40 35.1 40 C 34.5 40 34.3 40 33.7 40 C 33.2 40 32.9 40 32.4 40 C 31.8 40 31.6 40 31.0 40 C 30.5 40 30.2 40 29.7 40 C 29.1 40 28.9 40 28.3 40 C 27.8 40 27.5 40 27.0 40 C 26.4 40 26.2 40 25.6 40 C 25.1 40 24.8 40 24.3 40 C 23.7 40 23.5 40 22.9 40 C 22.4 40 22.1 40 21.6 40 C 21.0 40 20.8 40 20.2 40 C 19.7 40 19.4 40 18.9 40 C 18.3 40 18.1 40 17.5 40 C 17.0 40 16.7 40 16.2 40 C 15.6 40 15.4 40 14.8 40 C 14.3 40 14.0 40 13.5 40 C 12.9 40 12.6 40 12.1 40 C 11.6 40 11.3 40 10.8 40 C 10.2 40 9.9 40 9.4 40 C 8.9 40 8.6 40 8.1 40 C 7.5 40 7.2 40 6.7 40 C 6.2 40 5.9 40 5.4 40 C 4.8 40 4.5 40 4.0 40 C 3.5 40 3.2 40 2.7 40 C 2.1 40 1.8 40 1.3 40 C 0.8 40 0 40 0 40" fill-opacity="0.0">
			</path>
			<path fill="none" d="M 0 29.7 C 0 29.7 0.8 29.8 1.3 30.1 C 1.8 30.4 2.1 31.3 2.7 31.3 C 3.2 31.3 3.5 31.1 4.0 31.1 C 4.5 31.1 4.8 31.5 5.4 31.7 C 5.9 32.0 6.2 32.3 6.7 32.3 C 7.2 32.3 7.5 32.2 8.1 32.2 C 8.6 32.2 8.9 32.3 9.4 32.3 C 9.9 32.3 10.2 32.3 10.8 32.2 C 11.3 32.0 11.6 31.2 12.1 30.8 C 12.6 30.4 12.9 30.3 13.5 30.3 C 14.0 30.2 14.3 30.3 14.8 30.2 C 15.4 30.2 15.6 29.7 16.2 29.6 C 16.7 29.5 17.0 29.5 17.5 29.5 C 18.1 29.5 18.3 29.7 18.9 29.7 C 19.4 29.7 19.7 29.6 20.2 29.3 C 20.8 29.1 21.0 28.6 21.6 28.3 C 22.1 28.0 22.4 27.8 22.9 27.8 C 23.5 27.8 23.7 27.8 24.3 27.9 C 24.8 28.0 25.1 29.4 25.6 29.7 C 26.2 30.0 26.4 30.0 27.0 30.0 C 27.5 30.0 27.8 29.9 28.3 29.9 C 28.9 29.9 29.1 30.6 29.7 30.6 C 30.2 30.6 30.5 30.4 31.0 30.4 C 31.6 30.4 31.8 30.6 32.4 30.7 C 32.9 30.8 33.2 30.9 33.7 31.1 C 34.3 31.2 34.5 31.2 35.1 31.4 C 35.6 31.5 35.9 31.7 36.4 31.7 C 37.0 31.7 37.2 31.6 37.8 31.6 C 38.3 31.6 38.6 31.7 39.1 31.7 C 39.7 31.7 39.9 31.4 40.5 31.4 C 41.0 31.4 41.3 31.6 41.8 31.6 C 42.4 31.7 42.6 31.6 43.2 31.7 C 43.7 31.7 44.0 32.3 44.5 32.3 C 45.1 32.3 45.3 32.2 45.9 32.2 C 46.4 32.1 46.7 32.1 47.2 32.0 C 47.8 31.9 48.0 31.5 48.6 31.5 C 49.1 31.5 49.4 32.1 49.9 32.1 C 50.5 32.1 50.7 32.1 51.3 32.1 C 51.8 32.1 52.1 32.4 52.6 32.4 C 53.2 32.4 53.4 32.3 54.0 32.3 C 54.5 32.3 54.8 32.5 55.3 32.5 C 55.9 32.5 56.1 32.5 56.7 32.4 C 57.2 32.4 57.5 32.4 58.0 32.4 C 58.6 32.3 58.9 31.5 59.4 31.3 C 59.9 31.1 60.2 31.2 60.7 31.1 C 61.3 31.0 61.6 30.9 62.1 30.9 C 62.6 30.8 62.9 30.7 63.4 30.7 C 64.0 30.7 64.3 30.8 64.8 30.9 C 65.3 30.9 65.6 31.0 66.1 31.1 C 66.7 31.3 67.0 31.7 67.5 31.8 C 68.0 31.8 68.3 31.8 68.8 31.8 C 69.4 31.9 69.7 32.3 70.2 32.3 C 70.7 32.3 71.0 32.2 71.5 32.2 C 72.1 32.2 72.4 33.6 72.9 33.6 C 73.4 33.6 73.7 33.6 74.3 33.6 C 74.8 33.6 75.1 33.5 75.6 33.5 C 76.1 33.5 76.4 33.4 77.0 33.4 C 77.5 33.4 77.8 33.4 78.3 33.4 C 78.8 33.4 79.1 33.4 79.7 33.4 C 80.2 33.4 80.5 33.5 81.0 33.6 C 81.5 33.8 81.8 34.2 82.4 34.2 C 82.9 34.2 83.2 33.8 83.7 33.8 C 84.2 33.8 84.5 34.0 85.1 34.0 C 85.6 34.0 85.9 33.9 86.4 33.8 C 86.9 33.7 87.2 33.6 87.8 33.6 C 88.3 33.6 88.6 33.8 89.1 33.8 C 89.7 33.8 89.9 33.7 90.5 33.7 C 91.0 33.7 91.3 34.0 91.8 34.2 C 92.4 34.4 92.6 34.8 93.2 34.8 C 93.7 34.8 94.0 34.8 94.5 34.8 C 95.1 34.8 95.3 35.4 95.9 35.5 C 96.4 35.7 96.7 35.7 97.2 35.7 C 97.8 35.7 98.0 35.7 98.6 35.7 C 99.1 35.7 99.4 35.6 99.9 35.4 C 100.5 35.2 100.7 35.1 101.3 34.6 C 101.8 34.2 102.1 33.3 102.6 33.3 C 103.2 33.3 103.4 33.4 104.0 33.4 C 104.5 33.4 104.8 33.4 105.3 33.4 C 105.9 33.3 106.1 32.8 106.7 32.6 C 107.2 32.4 107.5 32.2 108.0 32.2 C 108.6 32.2 108.8 32.6 109.4 32.8 C 109.9 33.0 110.2 33.1 110.7 33.2 C 111.3 33.3 111.5 33.4 112.1 33.4 C 112.6 33.4 112.9 33.4 113.4 33.4 C 114.0 33.3 114.2 33.3 114.8 33.3 C 115.3 33.3 115.6 33.5 116.1 33.6 C 116.7 33.7 116.9 33.8 117.5 33.8 C 118.0 33.8 118.3 33.7 118.8 33.7 C 119.4 33.7 119.6 34.1 120.2 34.1 C 120.7 34.1 121.0 34.1 121.5 34.1 C 122.1 34.1 122.3 33.9 122.9 33.9 C 123.4 33.9 123.7 33.9 124.2 34.1 C 124.8 34.3 125.0 34.7 125.6 34.8 C 126.1 35.0 126.4 34.9 126.9 35.0 C 127.5 35.1 127.7 35.2 128.3 35.3 C 128.8 35.4 129.1 35.5 129.6 35.5 C 130.2 35.5 130.4 35.3 131.0 35.3 C 131.5 35.3 131.8 35.3 132.3 35.3 C 132.9 35.3 133.2 35.3 133.7 35.1 C 134.2 35.0 134.5 34.7 135.0 34.7 C 135.6 34.7 135.9 34.7 136.4 34.8 C 136.9 34.8 137.2 34.9 137.7 34.9 C 138.3 34.9 138.6 34.8 139.1 34.8 C 139.6 34.8 139.9 35.1 140.4 35.2 C 141.0 35.4 141.3 35.5 141.8 35.5 C 142.3 35.5 142.6 35.5 143.1 35.3 C 143.7 35.1 144.0 34.6 144.5 34.4 C 145.0 34.2 145.3 34.1 145.8 34.1 C 146.4 34.1 146.7 34.3 147.2 34.3 C 147.7 34.3 148.0 34.1 148.6 34.1 C 149.1 34.1 149.4 34.7 149.9 34.7 C 150.4 34.7 150.7 34.7 151.3 34.7 C 151.8 34.7 152.1 34.6 152.6 34.5 C 153.1 34.4 153.4 34.2 154.0 34.0 C 154.5 33.9 154.8 33.6 155.3 33.6 C 155.8 33.6 156.1 33.7 156.7 33.8 C 157.2 34.0 157.5 34.2 158.0 34.3 C 158.5 34.5 158.8 34.8 159.4 34.8 C 159.9 34.8 160.2 34.8 160.7 34.8 C 161.3 34.8 161.5 34.8 162.1 34.7 C 162.6 34.6 162.9 33.8 163.4 33.6 C 164.0 33.3 164.2 33.3 164.8 33.3 C 165.3 33.3 165.6 33.5 166.1 33.6 C 166.7 33.7 166.9 33.7 167.5 33.9 C 168.0 34.1 168.3 34.4 168.8 34.4 C 169.4 34.4 169.6 34.4 170.2 34.4 C 170.7 34.4 171.0 34.3 171.5 34.3 C 172.1 34.3 172.3 34.7 172.9 34.8 C 173.4 34.9 173.7 34.9 174.2 34.9 C 174.8 35.0 175.0 35.2 175.6 35.2 C 176.1 35.2 176.4 35.1 176.9 35.1 C 177.5 35.1 177.7 35.2 178.3 35.2 C 178.8 35.2 179.1 35.2 179.6 35.2 C 180.2 35.2 180.4 35.1 181.0 35.1 C 181.5 35.1 181.8 35.3 182.3 35.3 C 182.9 35.4 183.1 35.5 183.7 35.5 C 184.2 35.5 184.5 35.2 185.0 35.2 C 185.6 35.2 185.8 35.4 186.4 35.6 C 186.9 35.9 187.2 36.2 187.7 36.2 C 188.3 36.2 188.5 36.2 189.1 36.2 C 189.6 36.2 189.9 36.3 190.4 36.3 C 191.0 36.3 191.2 36.3 191.8 36.4 C 192.3 36.4 192.6 36.5 193.1 36.5 C 193.7 36.6 193.9 36.6 194.5 36.6 C 195.0 36.6 195.3 35.8 195.8 35.7 C 196.4 35.6 196.6 35.6 197.2 35.6 C 197.7 35.6 198.0 35.8 198.5 35.8 C 199.1 35.8 199.3 35.8 199.9 35.7 C 200.4 35.6 200.7 35.3 201.2 35.3 C 201.8 35.3 202.0 35.3 202.6 35.3 C 203.1 35.4 203.4 35.6 203.9 35.6 C 204.5 35.6 204.8 35.4 205.3 35.3 C 205.8 35.1 206.1 35.0 206.6 35.0 C 207.2 35.0 207.5 35.0 208.0 35.1 C 208.5 35.2 208.8 35.6 209.3 35.9 C 209.9 36.1 210.2 36.3 210.7 36.3 C 211.2 36.3 211.5 36.1 212.0 36.0 C 212.6 35.9 212.9 35.8 213.4 35.8 C 213.9 35.8 214.2 35.8 214.7 35.8 C 215.3 35.8 215.6 35.8 216.1 35.8 C 216.6 35.8 216.9 35.7 217.4 35.7 C 218.0 35.7 218.3 35.7 218.8 35.8 C 219.3 35.8 219.6 35.9 220.2 35.9 C 220.7 36.0 221.0 36.0 221.5 36.0 C 222.0 36.0 222.3 35.9 222.9 35.9 C 223.4 35.9 223.7 36.2 224.2 36.2 C 224.7 36.2 225.0 36.2 225.6 36.2 C 226.1 36.2 226.4 36.2 226.9 36.2 C 227.4 36.2 227.7 36.6 228.3 36.6 C 228.8 36.6 229.1 35.9 229.6 35.7 C 230.1 35.4 230.4 35.5 231.0 35.4 C 231.5 35.3 231.8 35.2 232.3 35.2 C 232.8 35.1 233.1 35.1 233.7 35.0 C 234.2 35.0 234.5 34.9 235.0 34.9 C 235.6 34.9 235.8 35.0 236.4 35.0 C 236.9 35.0 237.2 35.0 237.7 34.9 C 238.3 34.8 238.5 34.6 239.1 34.5 C 239.6 34.4 239.9 34.4 240.4 34.4 C 241.0 34.4 241.2 34.5 241.8 34.5 C 242.3 34.5 242.6 34.2 243.1 34.2 C 243.7 34.2 243.9 34.4 244.5 34.4 C 245.0 34.4 245.3 34.3 245.8 34.3 C 246.4 34.3 246.6 34.3 247.2 34.3 C 247.7 34.3 248.0 34.6 248.5 34.6 C 249.1 34.6 249.3 34.6 249.9 34.5 C 250.4 34.5 250.7 34.1 251.2 34.0 C 251.8 33.8 252.0 33.7 252.6 33.7 C 253.1 33.7 253.4 33.7 253.9 33.7 C 254.5 33.7 254.7 33.8 255.3 33.8 C 255.8 33.9 256.1 33.9 256.6 33.9 C 257.2 34.0 257.4 34.2 258.0 34.2 C 258.5 34.2 258.8 34.1 259.3 34.1 C 259.9 34.1 260.1 34.2 260.7 34.2 C 261.2 34.3 261.5 34.3 262.0 34.3 C 262.6 34.4 262.8 34.5 263.4 34.5 C 263.9 34.6 264.2 34.7 264.7 34.7 C 265.3 34.7 265.5 34.7 266.1 34.7 C 266.6 34.7 266.9 34.3 267.4 34.2 C 268.0 34.1 268.2 34.1 268.8 34.1 C 269.3 34.1 269.6 34.2 270.1 34.2 C 270.7 34.3 270.9 34.4 271.5 34.4 C 272.0 34.4 272.3 34.2 272.8 34.2 C 273.4 34.2 273.6 34.3 274.2 34.3 C 274.7 34.3 275.0 33.9 275.5 33.8 C 276.1 33.6 276.3 33.6 276.9 33.6 C 277.4 33.6 277.7 33.7 278.2 33.7 C 278.8 33.7 279.1 33.5 279.6 33.4 C 280.1 33.2 280.4 33.2 280.9 33.1 C 281.5 33.0 281.8 32.9 282.3 32.9 C 282.8 32.9 283.1 32.9 283.6 32.9 C 284.2 32.9 284.5 32.6 285.0 32.6 C 285.5 32.6 285.8 32.7 286.3 32.7 C 286.9 32.7 287.2 32.8 287.7 32.8 C 288.2 32.8 288.5 32.7 289.0 32.6 C 289.6 32.5 289.9 32.4 290.4 32.4 C 290.9 32.4 291.2 32.7 291.7 32.7 C 292.3 32.7 292.6 32.7 293.1 32.6 C 293.6 32.5 293.9 32.4 294.5 32.4 C 295.0 32.4 295.3 32.5 295.8 32.5 C 296.3 32.5 296.6 32.5 297.2 32.5 C 297.7 32.5 298.0 32.3 298.5 32.2 C 299.0 32.0 299.3 31.8 299.9 31.6 C 300.4 31.4 300.7 31.5 301.2 31.4 C 301.7 31.3 302.0 31.1 302.6 31.0 C 303.1 30.9 303.4 30.9 303.9 30.9 C 304.4 30.8 304.7 30.8 305.3 30.7 C 305.8 30.6 306.1 30.4 306.6 30.4 C 307.2 30.4 307.4 30.5 308.0 30.5 C 308.5 30.5 308.8 30.1 309.3 29.8 C 309.9 29.5 310.1 29.2 310.7 29.0 C 311.2 28.8 311.5 28.8 312.0 28.8 C 312.6 28.8 312.8 28.8 313.4 28.8 C 313.9 28.8 314.2 28.9 314.7 28.9 C 315.3 29.0 315.5 29.0 316.1 29.0 C 316.6 29.0 316.9 29.0 317.4 29.0 C 318.0 28.9 318.2 28.7 318.8 28.5 C 319.3 28.3 319.6 27.9 320.1 27.9 C 320.7 27.9 320.9 28.1 321.5 28.1 C 322.0 28.1 322.3 28.0 322.8 27.8 C 323.4 27.6 323.6 27.2 324.2 27.0 C 324.7 26.7 325.0 26.7 325.5 26.6 C 326.1 26.5 326.3 26.5 326.9 26.5 C 327.4 26.4 327.7 26.5 328.2 26.3 C 328.8 26.2 329.0 25.2 329.6 25.2 C 330.1 25.2 330.4 25.5 330.9 25.8 C 331.5 26.1 331.7 26.8 332.3 26.8 C 332.8 26.8 333.1 26.6 333.6 26.5 C 334.2 26.3 334.4 26.3 335.0 26.3 C 335.5 26.3 335.8 26.5 336.3 26.9 C 336.9 27.2 337.1 27.9 337.7 27.9 C 338.2 27.9 338.5 27.4 339.0 27.4 C 339.6 27.4 339.8 27.5 340.4 27.5 C 340.9 27.5 341.2 26.9 341.7 26.7 C 342.3 26.5 342.5 26.5 343.1 26.5 C 343.6 26.5 343.9 26.5 344.4 26.6 C 345.0 26.7 345.2 27.0 345.8 27.0 C 346.3 27.0 346.6 26.5 347.1 26.1 C 347.7 25.8 347.9 25.5 348.5 25.3 C 349.0 25.0 349.3 25.0 349.8 25.0 C 350.4 25.0 350.6 25.2 351.2 25.2 C 351.7 25.2 352.0 24.3 352.5 24.3 C 353.1 24.3 353.4 24.7 353.9 24.7 C 354.4 24.7 354.7 24.6 355.2 24.6 C 355.8 24.6 356.1 24.6 356.6 24.7 C 357.1 24.7 357.4 25.3 357.9 25.3 C 358.5 25.3 358.8 24.9 359.3 24.9 C 359.8 24.9 360.1 25.5 360.6 25.5 C 361.2 25.5 361.5 25.0 362.0 24.7 C 362.5 24.4 362.8 23.9 363.3 23.9 C 363.9 23.9 364.2 24.5 364.7 24.7 C 365.2 24.9 365.5 24.9 366.1 24.9 C 366.6 24.9 366.9 24.6 367.4 24.6 C 367.9 24.6 368.2 24.6 368.8 24.6 C 369.3 24.6 369.6 23.8 370.1 23.6 C 370.6 23.5 370.9 23.6 371.5 23.5 C 372.0 23.4 372.3 23.1 372.8 23.1 C 373.3 23.1 373.6 23.4 374.2 23.6 C 374.7 23.9 375.0 24.2 375.5 24.4 C 376.0 24.6 376.3 24.7 376.9 24.7 C 377.4 24.7 377.7 24.7 378.2 24.6 C 378.7 24.5 379.0 24.6 379.6 24.4 C 380.1 24.2 380.4 23.1 380.9 22.8 C 381.5 22.5 381.7 22.6 382.3 22.5 C 382.8 22.4 383.1 22.3 383.6 22.3 C 384.2 22.3 384.4 22.3 385.0 22.3 C 385.5 22.3 385.8 22.1 386.3 22.0 C 386.9 21.9 387.1 22.0 387.7 21.9 C 388.2 21.8 388.5 21.8 389.0 21.6 C 389.6 21.4 389.8 21.2 390.4 20.9 C 390.9 20.5 391.2 20.1 391.7 19.8 C 392.3 19.5 392.5 19.7 393.1 19.5 C 393.6 19.2 393.9 18.5 394.4 18.5 C 395.0 18.5 395.2 18.7 395.8 18.8 C 396.3 18.8 396.6 18.9 397.1 18.9 C 397.7 18.9 397.9 18.7 398.5 18.1 C 399.0 17.6 399.3 16.7 399.8 16.3 C 400.4 15.9 400.6 15.9 401.2 15.9 C 401.7 15.9 402.0 16.0 402.5 16.0 C 403.1 16.0 403.3 15.9 403.9 15.1 C 404.4 14.3 404.7 12.3 405.2 12.0 C 405.8 11.7 406.0 11.7 406.6 11.7 C 407.1 11.7 407.4 13.4 407.9 13.4 C 408.5 13.4 408.7 13.1 409.3 13.1 C 409.8 13.1 410.1 13.1 410.6 13.1 C 411.2 13.2 411.4 14.3 412.0 14.3 C 412.5 14.3 412.8 14.3 413.3 14.3 C 413.9 14.3 414.1 13.2 414.7 13.2 C 415.2 13.2 415.5 13.2 416.0 13.3 C 416.6 13.3 416.8 13.3 417.4 13.3 C 417.9 13.4 418.2 14.0 418.7 14.1 C 419.3 14.1 419.5 14.1 420.1 14.1 C 420.6 14.1 420.9 14.0 421.4 14.0 C 422.0 13.9 422.2 13.9 422.8 13.9 C 423.3 13.9 423.6 13.9 424.1 13.9 C 424.7 13.9 425.0 13.7 425.5 13.7 C 426.0 13.6 426.3 13.7 426.8 13.6 C 427.4 13.6 427.7 12.3 428.2 11.9 C 428.7 11.5 429.0 11.5 429.5 11.5 C 430.1 11.5 430.4 11.7 430.9 11.7 C 431.4 11.7 431.7 11.1 432.2 10.3 C 432.8 9.5 433.1 7.8 433.6 7.8 C 434.1 7.8 434.4 7.9 434.9 7.9 C 435.5 7.9 435.8 5.8 436.3 5.1 C 436.8 4.4 437.1 4.7 437.6 4.3 C 438.2 4.0 438.5 3.3 439.0 3.3 C 439.5 3.3 439.8 3.9 440.4 4.6 C 440.9 5.3 441.2 6.2 441.7 6.8 C 442.2 7.4 442.5 7.2 443.1 7.5 C 443.6 7.8 443.9 8.0 444.4 8.3 C 444.9 8.6 445.2 9.0 445.8 9.0 C 446.3 9.0 446.6 8.3 447.1 8.3 C 447.6 8.3 447.9 8.3 448.5 8.3 C 449.0 8.2 449.3 7.0 449.8 7.0 C 450.3 7.0 450.6 7.1 451.2 7.5 C 451.7 8.0 452.0 9.4 452.5 9.4 C 453.0 9.4 453.3 9.4 453.9 9.2 C 454.4 9.0 454.7 8.0 455.2 7.2 C 455.8 6.4 456.0 5.5 456.6 5.2 C 457.1 4.9 457.4 4.9 457.9 4.9 C 458.5 4.9 458.7 4.9 459.3 4.9 C 459.8 4.9 460.1 5.9 460.6 6.3 C 461.2 6.8 461.4 7.3 462.0 7.3 C 462.5 7.3 462.8 7.1 463.3 6.9 C 463.9 6.8 464.1 6.4 464.7 6.4 C 465.2 6.4 465.5 7.7 466.0 7.9 C 466.6 8.1 466.8 7.9 467.4 8.1 C 467.9 8.3 468.2 8.2 468.7 8.9 C 469.3 9.6 469.5 11.4 470.1 11.7 C 470.6 11.9 470.9 11.9 471.4 11.9 C 472.0 11.9 472.2 11.5 472.8 11.5 C 473.3 11.5 473.6 12.7 474.1 12.7 C 474.7 12.7 474.9 12.5 475.5 12.3 C 476.0 12.2 476.3 11.9 476.8 11.9 C 477.4 11.8 477.6 11.8 478.2 11.8 C 478.7 11.8 479.0 13.4 479.5 14.0 C 480.1 14.6 480.3 14.7 480.9 14.7 C 481.4 14.7 481.7 14.7 482.2 13.9 C 482.8 13.2 483.0 11.7 483.6 11.0 C 484.1 10.4 484.4 10.7 484.9 10.4 C 485.5 10.1 485.7 9.9 486.3 9.5 C 486.8 9.2 487.1 8.8 487.6 8.8 C 488.2 8.8 488.4 8.8 489.0 8.8 C 489.5 8.8 489.8 9.5 490.3 9.5 C 490.9 9.5 491.1 9.0 491.7 9.0 C 492.2 9.0 492.5 12.1 493.0 12.1 C 493.6 12.1 493.8 11.9 494.4 11.6 C 494.9 11.4 495.2 10.9 495.7 10.9 C 496.3 10.9 496.5 12.8 497.1 12.9 C 497.6 13.0 497.9 13.0 498.4 13.0 C 499.0 13.0 499.3 12.8 499.8 12.7 C 500.3 12.6 500.6 12.5 501.1 12.5 C 501.7 12.5 502.0 12.7 502.5 13.0 C 503.0 13.2 503.3 13.5 503.8 13.7 C 504.4 13.8 504.7 13.8 505.2 13.8 C 505.7 13.8 506.0 12.9 506.5 12.5 C 507.1 12.2 507.4 12.2 507.9 12.0 C 508.4 11.8 508.7 11.8 509.2 11.6 C 509.8 11.3 510.1 10.8 510.6 10.8 C 511.1 10.8 512 11.6 512 11.6" stroke="#4572A7" stroke-width="1" stroke-linejoin="round" stroke-linecap="round">
			</path>
		</g>
		<g class="highcharts-markers highcharts-series-1" transform="translate(24,331) scale(1 1)" clip-path="none">
		</g>
	</g>
	<g class="highcharts-navigator">
		<rect fill="rgb(128,179,236)" fill-opacity="0.3" style="cursor:ew-resize;" x="473" y="331" width="63" height="40">
		</rect>
		<path fill="none" stroke="#b2b1b6" stroke-width="1" d="M 10 331.5 L 472.5 331.5 472.5 385.5 L 535.5 385.5 L 535.5 331.5 550 331.5 M 473.5 331.5 L 535.5 331.5">
		</path>
	</g>
	<text x="292" text-anchor="middle" class="highcharts-title" style="color:#333333;font-size:16px;fill:#333333;width:520px;" y="22">
		<tspan>USD to EUR exchange rate
		</tspan>
	</text>
	<g class="highcharts-axis-labels highcharts-xaxis-labels">
		<text x="51.0" style="color:#606060;cursor:default;font-size:11px;fill:#606060;width:84px;text-overflow:clip;" text-anchor="middle" transform="translate(0,0)" y="304" opacity="1">
			<tspan> 6. Apr
			</tspan>
		</text>
		<text x="133.0" style="color:#606060;cursor:default;font-size:11px;fill:#606060;width:84px;text-overflow:clip;" text-anchor="middle" transform="translate(0,0)" y="304" opacity="1">
			<tspan>20. Apr
			</tspan>
		</text>
		<text x="215.0" style="color:#606060;cursor:default;font-size:11px;fill:#606060;width:84px;text-overflow:clip;" text-anchor="middle" transform="translate(0,0)" y="304" opacity="1">
			<tspan> 4. May
			</tspan>
		</text>
		<text x="297.0" style="color:#606060;cursor:default;font-size:11px;fill:#606060;width:84px;text-overflow:clip;" text-anchor="middle" transform="translate(0,0)" y="304" opacity="1">
			<tspan>18. May
			</tspan>
		</text>
		<text x="379.1" style="color:#606060;cursor:default;font-size:11px;fill:#606060;width:84px;text-overflow:clip;" text-anchor="middle" transform="translate(0,0)" y="304" opacity="1">
			<tspan> 1. Jun
			</tspan>
		</text>
		<text x="461.1" style="color:#606060;cursor:default;font-size:11px;fill:#606060;width:84px;text-overflow:clip;" text-anchor="middle" transform="translate(0,0)" y="304" opacity="1">
			<tspan>15. Jun
			</tspan>
		</text>
		<text x="543.1" style="color:#606060;cursor:default;font-size:11px;fill:#606060;width:84px;text-overflow:clip;" text-anchor="middle" transform="translate(0,0)" y="304" opacity="1">
			<tspan>29. Jun
			</tspan>
		</text>
	</g>
	<g class="highcharts-axis-labels highcharts-xaxis-labels">
		<text x="170.0" style="color:#888;cursor:default;font-size:11px;fill:#888;width:554px;text-overflow:clip;" text-anchor="start" transform="translate(0,0)" y="367" opacity="1">2014
		</text>
		<text x="416.6" style="color:#888;cursor:default;font-size:11px;fill:#888;width:554px;text-overflow:clip;" text-anchor="start" transform="translate(0,0)" y="367" opacity="1">2015
		</text>
	</g>
	<g class="highcharts-axis-labels highcharts-yaxis-labels">
		<text x="550" style="color:#606060;cursor:default;font-size:11px;fill:#606060;width:183px;text-overflow:clip;" text-anchor="end" transform="translate(0,0)" y="283" opacity="1">0.8
		</text>
		<text x="550" style="color:#606060;cursor:default;font-size:11px;fill:#606060;width:183px;text-overflow:clip;" text-anchor="end" transform="translate(0,0)" y="231" opacity="1">0.8
		</text>
		<text x="550" style="color:#606060;cursor:default;font-size:11px;fill:#606060;width:183px;text-overflow:clip;" text-anchor="end" transform="translate(0,0)" y="180" opacity="1">0.9
		</text>
		<text x="550" style="color:#606060;cursor:default;font-size:11px;fill:#606060;width:183px;text-overflow:clip;" text-anchor="end" transform="translate(0,0)" y="128" opacity="1">0.9
		</text>
		<text x="0" style="color:#606060;cursor:default;font-size:11px;fill:#606060;width:183px;text-overflow:clip;" text-anchor="end" transform="translate(0,0)" y="-9999">0.9
		</text>
	</g>
	<g class="highcharts-axis-labels highcharts-yaxis-labels">
	</g>
	<g class="highcharts-tooltip" style="cursor:default;padding:0;pointer-events:none;white-space:nowrap;" transform="translate(0,-9999)">
		<path fill="none" d="M 3.5 0.5 L 13.5 0.5 C 16.5 0.5 16.5 0.5 16.5 3.5 L 16.5 13.5 C 16.5 16.5 16.5 16.5 13.5 16.5 L 3.5 16.5 C 0.5 16.5 0.5 16.5 0.5 13.5 L 0.5 3.5 C 0.5 0.5 0.5 0.5 3.5 0.5"  stroke="black" stroke-opacity="0.0" stroke-width="5" transform="translate(1, 1)">
		</path>
		<path fill="none" d="M 3.5 0.5 L 13.5 0.5 C 16.5 0.5 16.5 0.5 16.5 3.5 L 16.5 13.5 C 16.5 16.5 16.5 16.5 13.5 16.5 L 3.5 16.5 C 0.5 16.5 0.5 16.5 0.5 13.5 L 0.5 3.5 C 0.5 0.5 0.5 0.5 3.5 0.5"  stroke="black" stroke-opacity="0.0" stroke-width="3" transform="translate(1, 1)">
		</path>
		<path fill="none" d="M 3.5 0.5 L 13.5 0.5 C 16.5 0.5 16.5 0.5 16.5 3.5 L 16.5 13.5 C 16.5 16.5 16.5 16.5 13.5 16.5 L 3.5 16.5 C 0.5 16.5 0.5 16.5 0.5 13.5 L 0.5 3.5 C 0.5 0.5 0.5 0.5 3.5 0.5"  stroke="black" stroke-opacity="0.1" stroke-width="1" transform="translate(1, 1)">
		</path>
		<path fill="rgb(249, 249, 249)" fill-opacity=" .85" d="M 3.5 0.5 L 13.5 0.5 C 16.5 0.5 16.5 0.5 16.5 3.5 L 16.5 13.5 C 16.5 16.5 16.5 16.5 13.5 16.5 L 3.5 16.5 C 0.5 16.5 0.5 16.5 0.5 13.5 L 0.5 3.5 C 0.5 0.5 0.5 0.5 3.5 0.5">
		</path>
		<text x="8" style="font-size:12px;color:#333333;fill:#333333;" y="20">
		</text>
	</g>
	<g class="highcharts-navigator-handle-right" style="cursor:ew-resize;" transform="translate(536,343)">
		<rect x="-4.5" y="0.5" width="8" height="15" fill="#ebe7e8" stroke="#b2b1b6" stroke-width="1">
		</rect>
		<path fill="#ebe7e8" d="M -1.5 4 L -1.5 12 M 0.5 4 L 0.5 12" stroke="#b2b1b6" stroke-width="1">
		</path>
	</g>
	<g class="highcharts-navigator-handle-left" style="cursor:ew-resize;" transform="translate(473,343)">
		<rect x="-4.5" y="0.5" width="8" height="15" fill="#ebe7e8" stroke="#b2b1b6" stroke-width="1">
		</rect>
		<path fill="#ebe7e8" d="M -1.5 4 L -1.5 12 M 0.5 4 L 0.5 12" stroke="#b2b1b6" stroke-width="1">
		</path>
	</g>
</svg>