
<svg version="1.1" style="font-family:&quot;lucida grande&quot;, &quot;lucida sans unicode&quot;, arial, helvetica, sans-serif;font-size:12px;" xmlns="http://www.w3.org/2000/svg" viewBox="0 0 584 400">
	<desc>Created with Highcharts 4.2.4
	</desc>
	<defs>
		<clipPath id="highcharts-1">
			<rect x="0" y="0" width="584" height="400">
			</rect>
		</clipPath>
	</defs>
	<rect x="0" y="0" width="584" height="400" fill="#FFFFFF" class=" highcharts-background" stroke="transparent">
	</rect>
	<g style="stroke:rgba(255,255,255,0);">
		<path fill="rgb(230,230,230)" fill-opacity="0" d="M 545.2 88.7 L 533.1 312.3 L 533.1 312.0 L 545.3 88.5 Z" stroke-linejoin="round">
		</path>
		<path fill="rgb(255,255,255)" fill-opacity="0" d="M 545.2 88.7 L 545.3 88.5 L 129.9 71.2 L 129.6 71.3 Z" stroke-linejoin="round">
		</path>
		<path fill="rgb(255,255,255)" fill-opacity="0" d="M 139.1 275.6 L 533.1 312.3 L 545.2 88.7 L 129.6 71.3 Z" stroke-linejoin="round">
		</path>
	</g>
	<g style="stroke:rgba(255,255,255,0);">
		<path fill="rgb(255,255,255)" fill-opacity="0" d="M 112.5 77.4 L 130.3 71.4 L 129.6 71.3 L 111.7 77.3 Z" stroke-linejoin="round">
		</path>
		<path fill="rgb(255,255,255)" fill-opacity="0" d="M 122.5 288.4 L 123.2 288.4 L 112.5 77.4 L 111.7 77.3 Z" stroke-linejoin="round">
		</path>
		<path fill="rgb(230,230,230)" fill-opacity="0" d="M 112.5 77.4 L 123.2 288.4 L 139.8 275.7 L 130.3 71.4 Z" stroke-linejoin="round">
		</path>
	</g>
	<g style="stroke:rgba(255,255,255,0);">
		<path fill="rgb(230,230,230)" fill-opacity="0" d="M 529.8 327 L 529.8 327.8 L 533.1 312.3 L 533.1 311.5 Z" stroke-linejoin="round">
		</path>
		<path fill="rgb(255,255,255)" fill-opacity="0" d="M 123.2 288.4 L 529.8 327.8 L 529.8 327 L 123.2 287.7 Z" stroke-linejoin="round">
		</path>
		<path fill="rgb(255,255,255)" fill-opacity="0" d="M 529.8 327 L 533.1 311.5 L 139.8 274.9 L 123.2 287.7 Z" stroke-linejoin="round">
		</path>
	</g>
	<g class="highcharts-grid">
		<path fill="none" d="M 148.7 72.1 L 148.7 72.1 L 157.3 276.6 L 141.2 289.4" stroke="#D8D8D8" stroke-width="1" opacity="1">
		</path>
		<path fill="none" d="M 212.1 74.8 L 212.1 74.8 L 217.6 282.2 L 203.4 295.4" stroke="#D8D8D8" stroke-width="1" opacity="1">
		</path>
		<path fill="none" d="M 276.7 77.5 L 276.7 77.5 L 279.1 287.9 L 266.9 301.6" stroke="#D8D8D8" stroke-width="1" opacity="1">
		</path>
		<path fill="none" d="M 344.3 80.3 L 344.3 80.3 L 343.2 293.8 L 333.1 308.0" stroke="#D8D8D8" stroke-width="1" opacity="1">
		</path>
		<path fill="none" d="M 413.4 83.2 L 413.4 83.2 L 408.5 299.9 L 400.7 314.5" stroke="#D8D8D8" stroke-width="1" opacity="1">
		</path>
		<path fill="none" d="M 485.6 86.2 L 485.6 86.2 L 476.8 306.3 L 471.4 321.3" stroke="#D8D8D8" stroke-width="1" opacity="1">
		</path>
	</g>
	<g class="highcharts-grid">
	</g>
	<g class="highcharts-grid">
		<path fill="none" d="M 123.2 288.1 L 139.8 275.3 L 533.1 311.9 L 533.1 311.9" stroke="#D8D8D8" stroke-width="1" opacity="1">
		</path>
		<path fill="none" d="M 121.2 247.9 L 138.0 236.4 L 535.4 269.5 L 535.4 269.5" stroke="#D8D8D8" stroke-width="1" opacity="1">
		</path>
		<path fill="none" d="M 119.1 206.9 L 136.2 196.6 L 537.8 226.1 L 537.8 226.1" stroke="#D8D8D8" stroke-width="1" opacity="1">
		</path>
		<path fill="none" d="M 116.9 164.2 L 134.2 155.3 L 540.2 180.9 L 540.2 180.9" stroke="#D8D8D8" stroke-width="1" opacity="1">
		</path>
		<path fill="none" d="M 114.8 121.5 L 132.3 114.0 L 542.7 135.5 L 542.7 135.5" stroke="#D8D8D8" stroke-width="1" opacity="1">
		</path>
		<path fill="none" d="M 112.5 76.9 L 130.3 71.0 L 545.3 88.2 L 545.3 88.2" stroke="#D8D8D8" stroke-width="1" opacity="1">
		</path>
	</g>
	<g class="highcharts-axis">
		<path fill="none" d="M 0 0" stroke="#C0D0E0" stroke-width="1">
		</path>
	</g>
	<g class="highcharts-axis">
	</g>
	<g class="highcharts-axis">
		<text x="72.1" text-anchor="middle" transform="translate(0,0) rotate(270 72.1 185.3)" class=" highcharts-yaxis-title" style="color:#707070;fill:#707070;" y="185.3" z="59.0">Values
		</text>
	</g>
	<g class="highcharts-series-group">
		<g class="highcharts-series highcharts-series-0 highcharts-tracker" transform="translate(70,61) scale(1 1)" style="" clip-path="url(#highcharts-1)">
			<g stroke="#7cb5ec" stroke-width="1" r="0">
				<path fill="#7cb5ec" d="M 64.2 227.8 L 78.9 229.2 L 77.9 205.0 L 63.0 203.6 Z" stroke-linejoin="round">
				</path>
				<path fill="rgb(149,206,255)" d="M 77.9 205.0 L 86.0 198.8 L 71.4 197.5 L 63.0 203.6 Z" stroke-linejoin="round">
				</path>
				<path fill="rgb(99,156,211)" d="M 77.9 205.0 L 78.9 229.2 L 87.0 222.7 L 86.0 198.8 Z" stroke-linejoin="round">
				</path>
			</g>
			<g stroke="#7cb5ec" stroke-width="1" r="0">
				<path fill="#7cb5ec" d="M 95.3 230.8 L 110.3 232.3 L 108.2 173.7 L 93.0 172.4 Z" stroke-linejoin="round">
				</path>
				<path fill="rgb(149,206,255)" d="M 108.2 173.7 L 115.9 168.0 L 100.9 166.7 L 93.0 172.4 Z" stroke-linejoin="round">
				</path>
				<path fill="rgb(99,156,211)" d="M 108.2 173.7 L 110.3 232.3 L 117.8 225.6 L 115.9 168.0 Z" stroke-linejoin="round">
				</path>
			</g>
			<g stroke="#7cb5ec" stroke-width="1" r="0">
				<path fill="rgb(149,206,255)" d="M 138.9 146.9 L 146.1 141.6 L 130.8 140.4 L 123.3 145.7 Z" stroke-linejoin="round">
				</path>
				<path fill="#7cb5ec" d="M 126.1 233.8 L 141.4 235.3 L 138.9 146.9 L 123.3 145.7 Z" stroke-linejoin="round">
				</path>
				<path fill="rgb(99,156,211)" d="M 138.9 146.9 L 141.4 235.3 L 148.4 228.5 L 146.1 141.6 Z" stroke-linejoin="round">
				</path>
			</g>
			<g stroke="#7cb5ec" stroke-width="1" r="0">
				<path fill="rgb(149,206,255)" d="M 170.7 129.9 L 177.5 124.8 L 161.9 123.7 L 154.8 128.8 Z" stroke-linejoin="round">
				</path>
				<path fill="#7cb5ec" d="M 157.5 236.8 L 172.9 238.3 L 170.7 129.9 L 154.8 128.8 Z" stroke-linejoin="round">
				</path>
				<path fill="rgb(99,156,211)" d="M 170.7 129.9 L 172.9 238.3 L 179.5 231.4 L 177.5 124.8 Z" stroke-linejoin="round">
				</path>
			</g>
			<g stroke="#7cb5ec" stroke-width="1" r="0">
				<path fill="rgb(149,206,255)" d="M 203.5 119.0 L 209.8 114.1 L 193.9 113.0 L 187.3 118.0 Z" stroke-linejoin="round">
				</path>
				<path fill="#7cb5ec" d="M 189.3 239.9 L 205.0 241.4 L 203.5 119.0 L 187.3 118.0 Z" stroke-linejoin="round">
				</path>
				<path fill="rgb(99,156,211)" d="M 203.5 119.0 L 205.0 241.4 L 211.0 234.4 L 209.8 114.1 Z" stroke-linejoin="round">
				</path>
			</g>
			<g stroke="#7cb5ec" stroke-width="1" r="0">
				<path fill="rgb(149,206,255)" d="M 237.0 92.8 L 242.7 88.2 L 226.5 87.3 L 220.4 91.8 Z" stroke-linejoin="round">
				</path>
				<path fill="#7cb5ec" d="M 221.6 243.0 L 237.5 244.6 L 237.0 92.8 L 220.4 91.8 Z" stroke-linejoin="round">
				</path>
				<path fill="rgb(99,156,211)" d="M 237.0 92.8 L 237.5 244.6 L 243.1 237.5 L 242.7 88.2 Z" stroke-linejoin="round">
				</path>
			</g>
			<g stroke="#7cb5ec" stroke-width="1" r="0">
				<path fill="rgb(149,206,255)" d="M 272.0 131.1 L 277.1 125.9 L 260.7 124.8 L 255.3 130.0 Z" stroke-linejoin="round">
				</path>
				<path fill="#7cb5ec" d="M 255.2 246.3 L 271.4 247.8 L 272.0 131.1 L 255.3 130.0 Z" stroke-linejoin="round">
				</path>
				<path fill="rgb(99,156,211)" d="M 272.0 131.1 L 271.4 247.8 L 276.4 240.6 L 277.1 125.9 Z" stroke-linejoin="round">
				</path>
			</g>
			<g stroke="#7cb5ec" stroke-width="1" r="0">
				<path fill="rgb(149,206,255)" d="M 306.9 121.7 L 311.4 116.6 L 294.6 115.5 L 289.8 120.6 Z" stroke-linejoin="round">
				</path>
				<path fill="#7cb5ec" d="M 288.6 249.5 L 305.1 251.1 L 306.9 121.7 L 289.8 120.6 Z" stroke-linejoin="round">
				</path>
				<path fill="rgb(99,156,211)" d="M 306.9 121.7 L 305.1 251.1 L 309.5 243.8 L 311.4 116.6 Z" stroke-linejoin="round">
				</path>
			</g>
			<g stroke="#7cb5ec" stroke-width="1" r="0">
				<path fill="rgb(149,206,255)" d="M 343.6 61.7 L 347.5 57.5 L 330.3 56.7 L 326.0 60.8 Z" stroke-linejoin="round">
				</path>
				<path fill="#7cb5ec" d="M 322.5 252.8 L 339.3 254.4 L 343.6 61.7 L 326.0 60.8 Z" stroke-linejoin="round">
				</path>
				<path fill="rgb(99,156,211)" d="M 343.6 61.7 L 339.3 254.4 L 343.1 246.9 L 347.5 57.5 Z" stroke-linejoin="round">
				</path>
			</g>
			<g stroke="#7cb5ec" stroke-width="1" r="0">
				<path fill="rgb(149,206,255)" d="M 379.5 83.8 L 382.7 79.3 L 365.3 78.3 L 361.7 82.8 Z" stroke-linejoin="round">
				</path>
				<path fill="#7cb5ec" d="M 357.0 256.1 L 374.0 257.7 L 379.5 83.8 L 361.7 82.8 Z" stroke-linejoin="round">
				</path>
				<path fill="rgb(99,156,211)" d="M 379.5 83.8 L 374.0 257.7 L 377.2 250.2 L 382.7 79.3 Z" stroke-linejoin="round">
				</path>
			</g>
			<g stroke="#7cb5ec" stroke-width="1" r="0">
				<path fill="rgb(149,206,255)" d="M 413.7 176.8 L 416.2 170.5 L 398.8 169.2 L 396.0 175.4 Z" stroke-linejoin="round">
				</path>
				<path fill="#7cb5ec" d="M 392.9 259.6 L 410.2 261.2 L 413.7 176.8 L 396.0 175.4 Z" stroke-linejoin="round">
				</path>
				<path fill="rgb(99,156,211)" d="M 413.7 176.8 L 410.2 261.2 L 412.8 253.6 L 416.2 170.5 Z" stroke-linejoin="round">
				</path>
			</g>
			<g stroke="#7cb5ec" stroke-width="1" r="0">
				<path fill="#7cb5ec" d="M 428.5 263.0 L 446.1 264.7 L 448.5 216.8 L 430.7 215.3 Z" stroke-linejoin="round">
				</path>
				<path fill="rgb(149,206,255)" d="M 448.5 216.8 L 450.4 209.8 L 432.9 208.3 L 430.7 215.3 Z" stroke-linejoin="round">
				</path>
				<path fill="rgb(99,156,211)" d="M 448.5 216.8 L 446.1 264.7 L 448.1 256.9 L 450.4 209.8 Z" stroke-linejoin="round">
				</path>
			</g>
		</g>
		<g class="highcharts-markers highcharts-series-0" transform="translate(70,61) scale(1 1)" clip-path="none">
		</g>
	</g>
	<text x="292" text-anchor="middle" class="highcharts-title" style="color:#333333;font-size:18px;fill:#333333;width:520px;" y="24">
		<tspan>Chart rotation demo
		</tspan>
	</text>
	<text x="292" text-anchor="middle" class="highcharts-subtitle" style="color:#555555;fill:#555555;width:520px;" y="45">
		<tspan>Test options by dragging the sliders below
		</tspan>
	</text>
	<g class="highcharts-legend" transform="translate(249,360)">
		<g>
			<g>
				<g class="highcharts-legend-item" transform="translate(8,3)">
					<text x="21" style="color:#333333;font-size:12px;font-weight:bold;cursor:pointer;fill:#333333;" text-anchor="start" y="15">
						<tspan>Series 1
						</tspan>
					</text>
					<rect x="0" y="4" width="16" height="12" fill="#7cb5ec">
					</rect>
				</g>
			</g>
		</g>
	</g>
	<g class="highcharts-axis-labels highcharts-xaxis-labels">
		<text x="142.3" style="color:#606060;cursor:default;font-size:11px;fill:#606060;width:91px;text-overflow:clip;" text-anchor="middle" transform="translate(0,0)" y="303.7" z="87.4" old="[object Object]" opacity="1">0
		</text>
		<text x="204.0" style="color:#606060;cursor:default;font-size:11px;fill:#606060;width:91px;text-overflow:clip;" text-anchor="middle" transform="translate(0,0)" y="309.9" z="69.7" old="[object Object]" opacity="1">2
		</text>
		<text x="267.6" style="color:#606060;cursor:default;font-size:11px;fill:#606060;width:91px;text-overflow:clip;" text-anchor="middle" transform="translate(0,0)" y="316.3" z="52.0" old="[object Object]" opacity="1">4
		</text>
		<text x="333.2" style="color:#606060;cursor:default;font-size:11px;fill:#606060;width:91px;text-overflow:clip;" text-anchor="middle" transform="translate(0,0)" y="322.8" z="34.3" old="[object Object]" opacity="1">6
		</text>
		<text x="400.9" style="color:#606060;cursor:default;font-size:11px;fill:#606060;width:91px;text-overflow:clip;" text-anchor="middle" transform="translate(0,0)" y="329.6" z="16.6" old="[object Object]" opacity="1">8
		</text>
		<text x="470.9" style="color:#606060;cursor:default;font-size:11px;fill:#606060;width:91px;text-overflow:clip;" text-anchor="middle" transform="translate(0,0)" y="336.6" z="-1.0" old="[object Object]" opacity="1">10
		</text>
	</g>
	<g class="highcharts-axis-labels highcharts-zaxis-labels">
	</g>
	<g class="highcharts-axis-labels highcharts-yaxis-labels">
		<text x="112.5" style="color:#606060;cursor:default;font-size:11px;fill:#606060;width:183px;text-overflow:clip;" text-anchor="end" transform="translate(0,0)" y="290.4" z="92.9" old="[object Object]" opacity="1">0
		</text>
		<text x="110.3" style="color:#606060;cursor:default;font-size:11px;fill:#606060;width:183px;text-overflow:clip;" text-anchor="end" transform="translate(0,0)" y="249.6" z="80.9" old="[object Object]" opacity="1">50
		</text>
		<text x="108.1" style="color:#606060;cursor:default;font-size:11px;fill:#606060;width:183px;text-overflow:clip;" text-anchor="end" transform="translate(0,0)" y="208.8" z="69.1" old="[object Object]" opacity="1">100
		</text>
		<text x="105.8" style="color:#606060;cursor:default;font-size:11px;fill:#606060;width:183px;text-overflow:clip;" text-anchor="end" transform="translate(0,0)" y="167.1" z="57.3" old="[object Object]" opacity="1">150
		</text>
		<text x="103.6" style="color:#606060;cursor:default;font-size:11px;fill:#606060;width:183px;text-overflow:clip;" text-anchor="end" transform="translate(0,0)" y="124.5" z="45.6" old="[object Object]" opacity="1">200
		</text>
		<text x="101.2" style="color:#606060;cursor:default;font-size:11px;fill:#606060;width:183px;text-overflow:clip;" text-anchor="end" transform="translate(0,0)" y="81.0" z="33.8" old="[object Object]" opacity="1">250
		</text>
	</g>
	<g class="highcharts-tooltip" style="cursor:default;padding:0;pointer-events:none;white-space:nowrap;" transform="translate(0,-9999)">
		<path fill="none" d="M 3.5 0.5 L 13.5 0.5 C 16.5 0.5 16.5 0.5 16.5 3.5 L 16.5 13.5 C 16.5 16.5 16.5 16.5 13.5 16.5 L 3.5 16.5 C 0.5 16.5 0.5 16.5 0.5 13.5 L 0.5 3.5 C 0.5 0.5 0.5 0.5 3.5 0.5"  stroke="black" stroke-opacity="0.0" stroke-width="5" transform="translate(1, 1)">
		</path>
		<path fill="none" d="M 3.5 0.5 L 13.5 0.5 C 16.5 0.5 16.5 0.5 16.5 3.5 L 16.5 13.5 C 16.5 16.5 16.5 16.5 13.5 16.5 L 3.5 16.5 C 0.5 16.5 0.5 16.5 0.5 13.5 L 0.5 3.5 C 0.5 0.5 0.5 0.5 3.5 0.5"  stroke="black" stroke-opacity="0.0" stroke-width="3" transform="translate(1, 1)">
		</path>
		<path fill="none" d="M 3.5 0.5 L 13.5 0.5 C 16.5 0.5 16.5 0.5 16.5 3.5 L 16.5 13.5 C 16.5 16.5 16.5 16.5 13.5 16.5 L 3.5 16.5 C 0.5 16.5 0.5 16.5 0.5 13.5 L 0.5 3.5 C 0.5 0.5 0.5 0.5 3.5 0.5"  stroke="black" stroke-opacity="0.1" stroke-width="1" transform="translate(1, 1)">
		</path>
		<path fill="rgb(249, 249, 249)" fill-opacity=" .85" d="M 3.5 0.5 L 13.5 0.5 C 16.5 0.5 16.5 0.5 16.5 3.5 L 16.5 13.5 C 16.5 16.5 16.5 16.5 13.5 16.5 L 3.5 16.5 C 0.5 16.5 0.5 16.5 0.5 13.5 L 0.5 3.5 C 0.5 0.5 0.5 0.5 3.5 0.5">
		</path>
		<text x="8" style="font-size:12px;color:#333333;fill:#333333;" y="20">
		</text>
	</g>
</svg>