
<svg version="1.1" style="font-family:&quot;lucida grande&quot;, &quot;lucida sans unicode&quot;, arial, helvetica, sans-serif;font-size:12px;" xmlns="http://www.w3.org/2000/svg" viewBox="0 0 584 400">
	<desc>Created with Highcharts 4.2.4
	</desc>
	<defs>
		<clipPath id="highcharts-1">
			<rect x="0" y="0" width="529" height="318">
			</rect>
		</clipPath>
	</defs>
	<rect x="0" y="0" width="584" height="400" fill="#FFFFFF" class=" highcharts-background">
	</rect>
	<g class="highcharts-grid">
	</g>
	<g class="highcharts-grid">
		<path fill="none" d="M 45 364.5 L 574 364.5" stroke="#D8D8D8" stroke-width="1" opacity="1">
		</path>
		<path fill="none" d="M 45 311.5 L 574 311.5" stroke="#D8D8D8" stroke-width="1" opacity="1">
		</path>
		<path fill="none" d="M 45 258.5 L 574 258.5" stroke="#D8D8D8" stroke-width="1" opacity="1">
		</path>
		<path fill="none" d="M 45 205.5 L 574 205.5" stroke="#D8D8D8" stroke-width="1" opacity="1">
		</path>
		<path fill="none" d="M 45 152.5 L 574 152.5" stroke="#D8D8D8" stroke-width="1" opacity="1">
		</path>
		<path fill="none" d="M 45 99.5 L 574 99.5" stroke="#D8D8D8" stroke-width="1" opacity="1">
		</path>
		<path fill="none" d="M 45 45.5 L 574 45.5" stroke="#D8D8D8" stroke-width="1" opacity="1">
		</path>
	</g>
	<g class="highcharts-axis">
		<path fill="none" d="M 49.5 364 L 49.5 374" stroke="#C0D0E0" stroke-width="1" opacity="1">
		</path>
		<path fill="none" d="M 133.5 364 L 133.5 374" stroke="#C0D0E0" stroke-width="1" opacity="1">
		</path>
		<path fill="none" d="M 220.5 364 L 220.5 374" stroke="#C0D0E0" stroke-width="1" opacity="1">
		</path>
		<path fill="none" d="M 307.5 364 L 307.5 374" stroke="#C0D0E0" stroke-width="1" opacity="1">
		</path>
		<path fill="none" d="M 395.5 364 L 395.5 374" stroke="#C0D0E0" stroke-width="1" opacity="1">
		</path>
		<path fill="none" d="M 482.5 364 L 482.5 374" stroke="#C0D0E0" stroke-width="1" opacity="1">
		</path>
		<path fill="none" d="M 569.5 364 L 569.5 374" stroke="#C0D0E0" stroke-width="1" opacity="1">
		</path>
		<path fill="none" d="M 45 364.5 L 574 364.5" stroke="#C0D0E0" stroke-width="1">
		</path>
	</g>
	<g class="highcharts-axis">
	</g>
	<g class="highcharts-series-group">
		<g class="highcharts-series highcharts-series-0" transform="translate(45,46) scale(1 1)" clip-path="url(#highcharts-1)">
			<path fill="#7cb5ec" d="M 5.1 206.1 L 6.6 202.4 L 8.0 202.9 L 9.4 198.2 L 10.8 194.5 L 12.3 196.1 L 13.7 191.3 L 15.1 191.3 L 16.5 215.1 L 18.0 214.6 L 19.4 213.5 L 20.8 246.4 L 22.2 250.6 L 23.7 250.6 L 25.1 253.8 L 26.5 236.9 L 27.9 218.3 L 29.4 224.1 L 30.8 222.6 L 32.2 239.0 L 33.6 235.3 L 35.1 245.9 L 36.5 228.9 L 37.9 241.1 L 39.3 235.3 L 40.8 233.2 L 42.2 230.0 L 43.6 221.0 L 45.0 228.4 L 46.5 237.4 L 47.9 249.1 L 49.3 226.3 L 50.7 218.8 L 52.2 204.0 L 53.6 214.6 L 55.0 213.0 L 56.4 208.2 L 57.9 207.2 L 59.3 202.9 L 60.7 200.3 L 62.1 196.1 L 63.6 204.5 L 65.0 208.8 L 66.4 211.4 L 67.8 193.9 L 69.3 201.4 L 70.7 206.1 L 72.1 206.1 L 73.5 226.8 L 75.0 238.5 L 76.4 242.2 L 77.8 215.7 L 79.2 204.0 L 80.7 182.8 L 82.1 183.9 L 83.5 202.9 L 84.9 193.9 L 86.3 193.9 L 87.8 188.1 L 89.2 200.8 L 90.6 208.8 L 92.0 205.6 L 93.5 198.2 L 94.9 191.3 L 96.3 183.9 L 97.7 197.6 L 99.2 190.8 L 100.6 179.6 L 102.0 189.7 L 103.4 198.7 L 104.9 210.9 L 106.3 218.3 L 107.7 209.8 L 109.1 210.9 L 110.6 212.5 L 112.0 206.7 L 113.4 217.8 L 114.8 222.0 L 116.3 210.4 L 117.7 199.2 L 119.1 195.0 L 120.5 202.9 L 122.0 213.5 L 123.4 224.7 L 124.8 221.0 L 126.2 190.2 L 127.7 188.6 L 129.1 194.5 L 130.5 196.1 L 131.9 204.5 L 133.3 218.3 L 134.7 200.3 L 136.2 217.3 L 137.6 221.5 L 139.0 210.9 L 140.4 192.3 L 141.9 181.2 L 143.3 183.3 L 144.7 188.1 L 146.1 191.3 L 147.6 188.1 L 149.0 177.0 L 150.4 192.3 L 151.8 192.9 L 153.3 193.4 L 154.7 204.0 L 156.1 186.0 L 157.5 193.4 L 159.0 204.0 L 160.4 202.9 L 161.8 204.5 L 163.2 196.1 L 164.7 182.3 L 166.1 181.7 L 167.5 188.1 L 168.9 195.5 L 170.4 187.0 L 171.8 186.0 L 173.2 175.9 L 174.6 197.1 L 176.1 226.3 L 177.5 222.0 L 178.9 188.1 L 180.3 215.1 L 181.8 190.8 L 183.2 182.8 L 184.6 177.5 L 186.0 195.0 L 187.5 200.8 L 188.9 177.5 L 190.3 181.7 L 191.7 178.6 L 193.2 183.9 L 194.6 180.2 L 196.0 201.9 L 197.4 173.8 L 198.8 164.8 L 200.3 163.7 L 201.7 167.4 L 203.1 175.9 L 204.5 171.7 L 206.0 153.1 L 207.4 162.7 L 208.8 156.8 L 210.2 181.7 L 211.7 170.1 L 213.1 185.5 L 214.5 171.7 L 215.9 181.7 L 217.4 187.6 L 218.8 174.9 L 220.2 184.9 L 221.6 177.0 L 223.1 160.5 L 224.5 161.1 L 225.9 143.1 L 227.3 143.6 L 228.8 166.9 L 230.2 163.2 L 231.6 156.3 L 233.0 173.3 L 234.5 147.8 L 235.9 153.1 L 237.3 159 L 238.7 181.2 L 240.2 172.7 L 241.6 157.4 L 243.0 170.6 L 244.4 150.5 L 245.9 160.0 L 247.3 155.2 L 248.7 164.3 L 250.1 184.9 L 251.6 159 L 253.0 184.4 L 254.4 178.6 L 255.8 182.8 L 257.3 167.4 L 258.7 174.3 L 260.1 179.6 L 261.5 167.4 L 263.0 171.7 L 264.4 169.0 L 265.8 152.6 L 267.2 178.0 L 268.7 144.6 L 270.1 130.9 L 271.5 131.9 L 272.9 154.7 L 274.4 128.2 L 275.8 128.2 L 277.2 131.4 L 278.6 133.0 L 280.1 142.5 L 281.5 129.8 L 282.9 134.0 L 284.3 135.6 L 285.8 145.2 L 287.2 138.3 L 288.6 152.1 L 290.0 141.5 L 291.5 141.5 L 292.9 137.8 L 294.3 137.2 L 295.7 130.3 L 297.2 121.9 L 298.6 124.0 L 300.0 141.5 L 301.4 122.9 L 302.9 127.2 L 304.3 135.6 L 305.7 144.1 L 307.1 145.2 L 308.6 151.5 L 310.0 138.3 L 311.4 145.7 L 312.8 146.8 L 314.3 144.1 L 315.7 153.7 L 317.1 134.0 L 318.5 153.1 L 320.0 140.4 L 321.4 139.3 L 322.8 144.1 L 324.2 147.8 L 325.7 165.3 L 327.1 168.5 L 328.5 154.2 L 329.9 155.2 L 331.4 153.7 L 332.8 147.8 L 334.2 152.6 L 335.6 159.5 L 337.1 175.4 L 338.5 164.8 L 339.9 168.5 L 341.3 167.4 L 342.8 177.0 L 344.2 178.0 M 358.4 140.9 L 359.9 142.0 L 361.3 148.9 L 362.7 164.3 L 364.1 180.7 L 365.6 175.9 L 367.0 157.4 L 368.4 165.8 L 369.8 170.1 L 371.3 180.2 L 372.7 187.0 L 374.1 190.8 L 375.5 188.1 L 376.9 195.5 L 378.4 166.9 L 379.8 171.7 L 381.2 205.1 L 382.6 201.4 L 384.1 185.5 L 385.5 178.0 L 386.9 168.5 L 388.3 164.8 L 389.8 159.5 L 391.2 184.4 L 392.6 187.6 L 394.0 165.3 L 395.5 191.3 L 396.9 197.6 L 398.3 157.9 L 399.7 161.1 L 401.2 162.7 L 402.6 169.0 L 404.0 176.4 L 405.4 190.8 L 406.9 178.6 L 408.3 177.0 L 409.7 177.0 L 411.1 180.7 L 412.6 205.6 L 414.0 212.5 L 415.4 217.3 L 416.8 221.0 L 418.3 215.1 L 419.7 175.4 L 421.1 171.1 L 422.5 191.8 L 424.0 179.1 L 425.4 177.5 L 426.8 170.1 L 428.2 179.6 L 429.7 157.4 L 431.2 174.3 L 432.6 212 L 434.0 212 L 435.4 191.3 L 436.9 190.8 L 438.3 186.5 L 439.7 174.9 L 441.1 196.1 L 442.6 197.1 L 444.0 207.7 L 445.4 213.0 L 446.8 215.1 L 448.2 177.0 L 449.7 183.3 L 451.1 196.1 L 452.5 209.8 L 453.9 212.5 L 455.4 186.5 L 456.8 187.6 L 458.2 189.2 L 459.6 194.5 L 461.1 214.1 L 462.5 201.9 L 463.9 213.0 L 465.3 218.8 L 466.8 221.5 L 468.2 226.3 L 469.6 210.4 L 471.0 193.9 L 472.5 207.7 L 473.9 217.3 L 475.3 209.8 L 476.7 218.3 L 478.2 217.8 L 479.6 215.7 L 481.0 209.3 L 482.4 204.5 L 483.9 188.1 L 485.3 209.8 L 486.7 198.7 L 488.1 206.1 L 489.6 201.4 L 491.0 204.5 L 492.4 208.2 L 493.8 201.9 L 495.3 213.0 L 496.7 212.5 L 498.1 217.3 L 499.5 209.3 L 501.0 221.0 L 502.4 210.4 L 503.8 227.9 L 505.2 217.8 L 506.7 207.7 L 508.1 207.2 L 509.5 210.4 L 510.9 208.8 L 512.4 204.0 M 516.6 234.2 L 518.1 266.0 L 519.5 256.5 L 520.9 239.5 L 522.3 205.1 L 523.8 203.5 L 523.8 203.5 L 523.8 189.7 L 522.3 198.7 L 520.9 199.2 L 519.5 233.7 L 518.1 239.5 L 516.6 233.7 L 516.6 234.2 M 512.4 204.0 L 512.4 188.6 L 510.9 183.9 L 509.5 191.3 L 508.1 188.6 L 506.7 193.9 L 505.2 204.0 L 503.8 209.8 L 502.4 197.1 L 501.0 182.3 L 499.5 183.3 L 498.1 191.8 L 496.7 202.9 L 495.3 192.3 L 493.8 191.3 L 492.4 187.6 L 491.0 200.3 L 489.6 188.6 L 488.1 185.5 L 486.7 192.3 L 485.3 159 L 483.9 157.9 L 482.4 195.0 L 481.0 198.7 L 479.6 202.4 L 478.2 197.1 L 476.7 201.9 L 475.3 195.5 L 473.9 205.1 L 472.5 179.6 L 471.0 177.5 L 469.6 198.7 L 468.2 205.1 L 466.8 207.2 L 465.3 200.8 L 463.9 192.3 L 462.5 187.0 L 461.1 195.0 L 459.6 172.2 L 458.2 171.1 L 456.8 166.9 L 455.4 165.3 L 453.9 175.9 L 452.5 195.0 L 451.1 167.4 L 449.7 173.3 L 448.2 157.4 L 446.8 182.8 L 445.4 196.6 L 444.0 186.5 L 442.6 180.7 L 441.1 160.0 L 439.7 166.9 L 438.3 152.6 L 436.9 186.5 L 435.4 187.6 L 434.0 181.7 L 432.6 158.4 L 431.2 141.5 L 429.7 142.5 L 428.2 154.2 L 426.8 155.2 L 425.4 163.2 L 424.0 166.4 L 422.5 160.5 L 421.1 156.3 L 419.7 158.4 L 418.3 172.2 L 416.8 168.0 L 415.4 162.1 L 414.0 163.2 L 412.6 155.8 L 411.1 156.8 L 409.7 157.4 L 408.3 155.2 L 406.9 157.9 L 405.4 159 L 404.0 152.6 L 402.6 144.6 L 401.2 119.2 L 399.7 117.1 L 398.3 115.5 L 396.9 116.0 L 395.5 146.8 L 394.0 147.8 L 392.6 149.9 L 391.2 145.7 L 389.8 127.7 L 388.3 149.4 L 386.9 141.5 L 385.5 158.4 L 384.1 154.7 L 382.6 154.2 L 381.2 145.2 L 379.8 138.8 L 378.4 147.3 L 376.9 126.6 L 375.5 117.1 L 374.1 112.3 L 372.7 106.5 L 371.3 105.4 L 369.8 110.7 L 368.4 117.1 L 367.0 106.5 L 365.6 126.1 L 364.1 119.2 L 362.7 127.7 L 361.3 111.8 L 359.9 121.3 L 358.4 140.9 L 358.4 140.9 M 344.2 178.0 L 344.2 107.5 L 342.8 106.5 L 341.3 108.6 L 339.9 118.7 L 338.5 130.9 L 337.1 128.7 L 335.6 124.0 L 334.2 135.6 L 332.8 134.0 L 331.4 111.8 L 329.9 126.6 L 328.5 125.6 L 327.1 105.4 L 325.7 93.2 L 324.2 112.8 L 322.8 108.1 L 321.4 89.5 L 320.0 102.2 L 318.5 86.9 L 317.1 93.2 L 315.7 103.8 L 314.3 88.5 L 312.8 87.9 L 311.4 106.5 L 310.0 111.8 L 308.6 107.5 L 307.1 116.6 L 305.7 116.0 L 304.3 111.3 L 302.9 91.1 L 301.4 95.9 L 300.0 76.3 L 298.6 68.3 L 297.2 71.5 L 295.7 47.1 L 294.3 54.0 L 292.9 59.3 L 291.5 54.5 L 290.0 66.7 L 288.6 69.4 L 287.2 82.6 L 285.8 113.9 L 284.3 122.9 L 282.9 105.4 L 281.5 87.4 L 280.1 66.7 L 278.6 63.0 L 277.2 50.3 L 275.8 58.3 L 274.4 54.5 L 272.9 91.1 L 271.5 109.1 L 270.1 96.9 L 268.7 89.5 L 267.2 133.0 L 265.8 116.0 L 264.4 98.0 L 263.0 88.5 L 261.5 92.2 L 260.1 101.7 L 258.7 88.5 L 257.3 107.5 L 255.8 100.1 L 254.4 99.1 L 253.0 94.8 L 251.6 109.7 L 250.1 141.5 L 248.7 129.8 L 247.3 135.6 L 245.9 127.2 L 244.4 107.5 L 243.0 122.9 L 241.6 95.9 L 240.2 105.4 L 238.7 87.9 L 237.3 102.2 L 235.9 141.5 L 234.5 115.5 L 233.0 87.9 L 231.6 95.4 L 230.2 98.5 L 228.8 89.0 L 227.3 115.5 L 225.9 106 L 224.5 97.5 L 223.1 94.3 L 221.6 81.6 L 220.2 102.8 L 218.8 95.4 L 217.4 106 L 215.9 95.9 L 214.5 95.4 L 213.1 92.7 L 211.7 117.1 L 210.2 109.1 L 208.8 109.7 L 207.4 136.2 L 206.0 124.5 L 204.5 137.2 L 203.1 98.0 L 201.7 117.1 L 200.3 103.3 L 198.8 131.4 L 197.4 160.0 L 196.0 171.1 L 194.6 137.2 L 193.2 130.9 L 191.7 130.9 L 190.3 126.1 L 188.9 129.3 L 187.5 140.4 L 186.0 135.1 L 184.6 142.0 L 183.2 161.6 L 181.8 160.5 L 180.3 156.8 L 178.9 166.9 L 177.5 154.2 L 176.1 156.3 L 174.6 163.2 L 173.2 129.3 L 171.8 124.0 L 170.4 111.8 L 168.9 118.7 L 167.5 125.0 L 166.1 120.8 L 164.7 112.3 L 163.2 114.4 L 161.8 127.2 L 160.4 129.3 L 159.0 142.5 L 157.5 148.4 L 156.1 162.1 L 154.7 157.9 L 153.3 168.0 L 151.8 176.4 L 150.4 173.3 L 149.0 167.4 L 147.6 169.6 L 146.1 167.4 L 144.7 147.3 L 143.3 165.8 L 141.9 151.5 L 140.4 178.0 L 139.0 171.1 L 137.6 161.6 L 136.2 158.4 L 134.7 171.7 L 133.3 165.3 L 131.9 156.8 L 130.5 145.7 L 129.1 153.7 L 127.7 137.8 L 126.2 159 L 124.8 157.4 L 123.4 166.4 L 122.0 170.1 L 120.5 192.9 L 119.1 163.2 L 117.7 176.4 L 116.3 188.1 L 114.8 210.4 L 113.4 178.6 L 112.0 182.3 L 110.6 180.2 L 109.1 184.9 L 107.7 176.4 L 106.3 175.4 L 104.9 174.9 L 103.4 164.3 L 102.0 171.7 L 100.6 155.2 L 99.2 166.4 L 97.7 174.3 L 96.3 159.5 L 94.9 161.6 L 93.5 173.3 L 92.0 162.1 L 90.6 179.6 L 89.2 164.8 L 87.8 169.6 L 86.3 173.3 L 84.9 162.7 L 83.5 153.1 L 82.1 149.9 L 80.7 165.3 L 79.2 170.6 L 77.8 191.3 L 76.4 210.9 L 75.0 211.4 L 73.5 198.2 L 72.1 188.6 L 70.7 187.0 L 69.3 180.7 L 67.8 173.3 L 66.4 170.6 L 65.0 184.9 L 63.6 183.3 L 62.1 177.0 L 60.7 165.3 L 59.3 191.3 L 57.9 181.7 L 56.4 186.5 L 55.0 184.4 L 53.6 183.9 L 52.2 171.1 L 50.7 168.5 L 49.3 198.2 L 47.9 226.8 L 46.5 222.0 L 45.0 191.3 L 43.6 198.2 L 42.2 207.7 L 40.8 206.1 L 39.3 199.2 L 37.9 216.2 L 36.5 214.6 L 35.1 226.3 L 33.6 214.6 L 32.2 222.6 L 30.8 210.4 L 29.4 212.5 L 27.9 209.8 L 26.5 207.2 L 25.1 234.2 L 23.7 224.1 L 22.2 230.0 L 20.8 214.1 L 19.4 199.2 L 18.0 183.9 L 16.5 188.1 L 15.1 182.8 L 13.7 180.2 L 12.3 170.1 L 10.8 162.7 L 9.4 172.7 L 8.0 175.4 L 6.6 178.0 L 5.1 187.0 L 5.1 206.1" fill-opacity="0.7">
			</path>
			<path fill="none" d="M 5.1 206.1 L 6.6 202.4 L 8.0 202.9 L 9.4 198.2 L 10.8 194.5 L 12.3 196.1 L 13.7 191.3 L 15.1 191.3 L 16.5 215.1 L 18.0 214.6 L 19.4 213.5 L 20.8 246.4 L 22.2 250.6 L 23.7 250.6 L 25.1 253.8 L 26.5 236.9 L 27.9 218.3 L 29.4 224.1 L 30.8 222.6 L 32.2 239.0 L 33.6 235.3 L 35.1 245.9 L 36.5 228.9 L 37.9 241.1 L 39.3 235.3 L 40.8 233.2 L 42.2 230.0 L 43.6 221.0 L 45.0 228.4 L 46.5 237.4 L 47.9 249.1 L 49.3 226.3 L 50.7 218.8 L 52.2 204.0 L 53.6 214.6 L 55.0 213.0 L 56.4 208.2 L 57.9 207.2 L 59.3 202.9 L 60.7 200.3 L 62.1 196.1 L 63.6 204.5 L 65.0 208.8 L 66.4 211.4 L 67.8 193.9 L 69.3 201.4 L 70.7 206.1 L 72.1 206.1 L 73.5 226.8 L 75.0 238.5 L 76.4 242.2 L 77.8 215.7 L 79.2 204.0 L 80.7 182.8 L 82.1 183.9 L 83.5 202.9 L 84.9 193.9 L 86.3 193.9 L 87.8 188.1 L 89.2 200.8 L 90.6 208.8 L 92.0 205.6 L 93.5 198.2 L 94.9 191.3 L 96.3 183.9 L 97.7 197.6 L 99.2 190.8 L 100.6 179.6 L 102.0 189.7 L 103.4 198.7 L 104.9 210.9 L 106.3 218.3 L 107.7 209.8 L 109.1 210.9 L 110.6 212.5 L 112.0 206.7 L 113.4 217.8 L 114.8 222.0 L 116.3 210.4 L 117.7 199.2 L 119.1 195.0 L 120.5 202.9 L 122.0 213.5 L 123.4 224.7 L 124.8 221.0 L 126.2 190.2 L 127.7 188.6 L 129.1 194.5 L 130.5 196.1 L 131.9 204.5 L 133.3 218.3 L 134.7 200.3 L 136.2 217.3 L 137.6 221.5 L 139.0 210.9 L 140.4 192.3 L 141.9 181.2 L 143.3 183.3 L 144.7 188.1 L 146.1 191.3 L 147.6 188.1 L 149.0 177.0 L 150.4 192.3 L 151.8 192.9 L 153.3 193.4 L 154.7 204.0 L 156.1 186.0 L 157.5 193.4 L 159.0 204.0 L 160.4 202.9 L 161.8 204.5 L 163.2 196.1 L 164.7 182.3 L 166.1 181.7 L 167.5 188.1 L 168.9 195.5 L 170.4 187.0 L 171.8 186.0 L 173.2 175.9 L 174.6 197.1 L 176.1 226.3 L 177.5 222.0 L 178.9 188.1 L 180.3 215.1 L 181.8 190.8 L 183.2 182.8 L 184.6 177.5 L 186.0 195.0 L 187.5 200.8 L 188.9 177.5 L 190.3 181.7 L 191.7 178.6 L 193.2 183.9 L 194.6 180.2 L 196.0 201.9 L 197.4 173.8 L 198.8 164.8 L 200.3 163.7 L 201.7 167.4 L 203.1 175.9 L 204.5 171.7 L 206.0 153.1 L 207.4 162.7 L 208.8 156.8 L 210.2 181.7 L 211.7 170.1 L 213.1 185.5 L 214.5 171.7 L 215.9 181.7 L 217.4 187.6 L 218.8 174.9 L 220.2 184.9 L 221.6 177.0 L 223.1 160.5 L 224.5 161.1 L 225.9 143.1 L 227.3 143.6 L 228.8 166.9 L 230.2 163.2 L 231.6 156.3 L 233.0 173.3 L 234.5 147.8 L 235.9 153.1 L 237.3 159 L 238.7 181.2 L 240.2 172.7 L 241.6 157.4 L 243.0 170.6 L 244.4 150.5 L 245.9 160.0 L 247.3 155.2 L 248.7 164.3 L 250.1 184.9 L 251.6 159 L 253.0 184.4 L 254.4 178.6 L 255.8 182.8 L 257.3 167.4 L 258.7 174.3 L 260.1 179.6 L 261.5 167.4 L 263.0 171.7 L 264.4 169.0 L 265.8 152.6 L 267.2 178.0 L 268.7 144.6 L 270.1 130.9 L 271.5 131.9 L 272.9 154.7 L 274.4 128.2 L 275.8 128.2 L 277.2 131.4 L 278.6 133.0 L 280.1 142.5 L 281.5 129.8 L 282.9 134.0 L 284.3 135.6 L 285.8 145.2 L 287.2 138.3 L 288.6 152.1 L 290.0 141.5 L 291.5 141.5 L 292.9 137.8 L 294.3 137.2 L 295.7 130.3 L 297.2 121.9 L 298.6 124.0 L 300.0 141.5 L 301.4 122.9 L 302.9 127.2 L 304.3 135.6 L 305.7 144.1 L 307.1 145.2 L 308.6 151.5 L 310.0 138.3 L 311.4 145.7 L 312.8 146.8 L 314.3 144.1 L 315.7 153.7 L 317.1 134.0 L 318.5 153.1 L 320.0 140.4 L 321.4 139.3 L 322.8 144.1 L 324.2 147.8 L 325.7 165.3 L 327.1 168.5 L 328.5 154.2 L 329.9 155.2 L 331.4 153.7 L 332.8 147.8 L 334.2 152.6 L 335.6 159.5 L 337.1 175.4 L 338.5 164.8 L 339.9 168.5 L 341.3 167.4 L 342.8 177.0 L 344.2 178.0 M 358.4 140.9 L 359.9 142.0 L 361.3 148.9 L 362.7 164.3 L 364.1 180.7 L 365.6 175.9 L 367.0 157.4 L 368.4 165.8 L 369.8 170.1 L 371.3 180.2 L 372.7 187.0 L 374.1 190.8 L 375.5 188.1 L 376.9 195.5 L 378.4 166.9 L 379.8 171.7 L 381.2 205.1 L 382.6 201.4 L 384.1 185.5 L 385.5 178.0 L 386.9 168.5 L 388.3 164.8 L 389.8 159.5 L 391.2 184.4 L 392.6 187.6 L 394.0 165.3 L 395.5 191.3 L 396.9 197.6 L 398.3 157.9 L 399.7 161.1 L 401.2 162.7 L 402.6 169.0 L 404.0 176.4 L 405.4 190.8 L 406.9 178.6 L 408.3 177.0 L 409.7 177.0 L 411.1 180.7 L 412.6 205.6 L 414.0 212.5 L 415.4 217.3 L 416.8 221.0 L 418.3 215.1 L 419.7 175.4 L 421.1 171.1 L 422.5 191.8 L 424.0 179.1 L 425.4 177.5 L 426.8 170.1 L 428.2 179.6 L 429.7 157.4 L 431.2 174.3 L 432.6 212 L 434.0 212 L 435.4 191.3 L 436.9 190.8 L 438.3 186.5 L 439.7 174.9 L 441.1 196.1 L 442.6 197.1 L 444.0 207.7 L 445.4 213.0 L 446.8 215.1 L 448.2 177.0 L 449.7 183.3 L 451.1 196.1 L 452.5 209.8 L 453.9 212.5 L 455.4 186.5 L 456.8 187.6 L 458.2 189.2 L 459.6 194.5 L 461.1 214.1 L 462.5 201.9 L 463.9 213.0 L 465.3 218.8 L 466.8 221.5 L 468.2 226.3 L 469.6 210.4 L 471.0 193.9 L 472.5 207.7 L 473.9 217.3 L 475.3 209.8 L 476.7 218.3 L 478.2 217.8 L 479.6 215.7 L 481.0 209.3 L 482.4 204.5 L 483.9 188.1 L 485.3 209.8 L 486.7 198.7 L 488.1 206.1 L 489.6 201.4 L 491.0 204.5 L 492.4 208.2 L 493.8 201.9 L 495.3 213.0 L 496.7 212.5 L 498.1 217.3 L 499.5 209.3 L 501.0 221.0 L 502.4 210.4 L 503.8 227.9 L 505.2 217.8 L 506.7 207.7 L 508.1 207.2 L 509.5 210.4 L 510.9 208.8 L 512.4 204.0 M 516.6 234.2 L 518.1 266.0 L 519.5 256.5 L 520.9 239.5 L 522.3 205.1 L 523.8 203.5 M 523.8 189.7 L 522.3 198.7 L 520.9 199.2 L 519.5 233.7 L 518.1 239.5 L 516.6 233.7 M 512.4 188.6 L 510.9 183.9 L 509.5 191.3 L 508.1 188.6 L 506.7 193.9 L 505.2 204.0 L 503.8 209.8 L 502.4 197.1 L 501.0 182.3 L 499.5 183.3 L 498.1 191.8 L 496.7 202.9 L 495.3 192.3 L 493.8 191.3 L 492.4 187.6 L 491.0 200.3 L 489.6 188.6 L 488.1 185.5 L 486.7 192.3 L 485.3 159 L 483.9 157.9 L 482.4 195.0 L 481.0 198.7 L 479.6 202.4 L 478.2 197.1 L 476.7 201.9 L 475.3 195.5 L 473.9 205.1 L 472.5 179.6 L 471.0 177.5 L 469.6 198.7 L 468.2 205.1 L 466.8 207.2 L 465.3 200.8 L 463.9 192.3 L 462.5 187.0 L 461.1 195.0 L 459.6 172.2 L 458.2 171.1 L 456.8 166.9 L 455.4 165.3 L 453.9 175.9 L 452.5 195.0 L 451.1 167.4 L 449.7 173.3 L 448.2 157.4 L 446.8 182.8 L 445.4 196.6 L 444.0 186.5 L 442.6 180.7 L 441.1 160.0 L 439.7 166.9 L 438.3 152.6 L 436.9 186.5 L 435.4 187.6 L 434.0 181.7 L 432.6 158.4 L 431.2 141.5 L 429.7 142.5 L 428.2 154.2 L 426.8 155.2 L 425.4 163.2 L 424.0 166.4 L 422.5 160.5 L 421.1 156.3 L 419.7 158.4 L 418.3 172.2 L 416.8 168.0 L 415.4 162.1 L 414.0 163.2 L 412.6 155.8 L 411.1 156.8 L 409.7 157.4 L 408.3 155.2 L 406.9 157.9 L 405.4 159 L 404.0 152.6 L 402.6 144.6 L 401.2 119.2 L 399.7 117.1 L 398.3 115.5 L 396.9 116.0 L 395.5 146.8 L 394.0 147.8 L 392.6 149.9 L 391.2 145.7 L 389.8 127.7 L 388.3 149.4 L 386.9 141.5 L 385.5 158.4 L 384.1 154.7 L 382.6 154.2 L 381.2 145.2 L 379.8 138.8 L 378.4 147.3 L 376.9 126.6 L 375.5 117.1 L 374.1 112.3 L 372.7 106.5 L 371.3 105.4 L 369.8 110.7 L 368.4 117.1 L 367.0 106.5 L 365.6 126.1 L 364.1 119.2 L 362.7 127.7 L 361.3 111.8 L 359.9 121.3 L 358.4 140.9 M 344.2 107.5 L 342.8 106.5 L 341.3 108.6 L 339.9 118.7 L 338.5 130.9 L 337.1 128.7 L 335.6 124.0 L 334.2 135.6 L 332.8 134.0 L 331.4 111.8 L 329.9 126.6 L 328.5 125.6 L 327.1 105.4 L 325.7 93.2 L 324.2 112.8 L 322.8 108.1 L 321.4 89.5 L 320.0 102.2 L 318.5 86.9 L 317.1 93.2 L 315.7 103.8 L 314.3 88.5 L 312.8 87.9 L 311.4 106.5 L 310.0 111.8 L 308.6 107.5 L 307.1 116.6 L 305.7 116.0 L 304.3 111.3 L 302.9 91.1 L 301.4 95.9 L 300.0 76.3 L 298.6 68.3 L 297.2 71.5 L 295.7 47.1 L 294.3 54.0 L 292.9 59.3 L 291.5 54.5 L 290.0 66.7 L 288.6 69.4 L 287.2 82.6 L 285.8 113.9 L 284.3 122.9 L 282.9 105.4 L 281.5 87.4 L 280.1 66.7 L 278.6 63.0 L 277.2 50.3 L 275.8 58.3 L 274.4 54.5 L 272.9 91.1 L 271.5 109.1 L 270.1 96.9 L 268.7 89.5 L 267.2 133.0 L 265.8 116.0 L 264.4 98.0 L 263.0 88.5 L 261.5 92.2 L 260.1 101.7 L 258.7 88.5 L 257.3 107.5 L 255.8 100.1 L 254.4 99.1 L 253.0 94.8 L 251.6 109.7 L 250.1 141.5 L 248.7 129.8 L 247.3 135.6 L 245.9 127.2 L 244.4 107.5 L 243.0 122.9 L 241.6 95.9 L 240.2 105.4 L 238.7 87.9 L 237.3 102.2 L 235.9 141.5 L 234.5 115.5 L 233.0 87.9 L 231.6 95.4 L 230.2 98.5 L 228.8 89.0 L 227.3 115.5 L 225.9 106 L 224.5 97.5 L 223.1 94.3 L 221.6 81.6 L 220.2 102.8 L 218.8 95.4 L 217.4 106 L 215.9 95.9 L 214.5 95.4 L 213.1 92.7 L 211.7 117.1 L 210.2 109.1 L 208.8 109.7 L 207.4 136.2 L 206.0 124.5 L 204.5 137.2 L 203.1 98.0 L 201.7 117.1 L 200.3 103.3 L 198.8 131.4 L 197.4 160.0 L 196.0 171.1 L 194.6 137.2 L 193.2 130.9 L 191.7 130.9 L 190.3 126.1 L 188.9 129.3 L 187.5 140.4 L 186.0 135.1 L 184.6 142.0 L 183.2 161.6 L 181.8 160.5 L 180.3 156.8 L 178.9 166.9 L 177.5 154.2 L 176.1 156.3 L 174.6 163.2 L 173.2 129.3 L 171.8 124.0 L 170.4 111.8 L 168.9 118.7 L 167.5 125.0 L 166.1 120.8 L 164.7 112.3 L 163.2 114.4 L 161.8 127.2 L 160.4 129.3 L 159.0 142.5 L 157.5 148.4 L 156.1 162.1 L 154.7 157.9 L 153.3 168.0 L 151.8 176.4 L 150.4 173.3 L 149.0 167.4 L 147.6 169.6 L 146.1 167.4 L 144.7 147.3 L 143.3 165.8 L 141.9 151.5 L 140.4 178.0 L 139.0 171.1 L 137.6 161.6 L 136.2 158.4 L 134.7 171.7 L 133.3 165.3 L 131.9 156.8 L 130.5 145.7 L 129.1 153.7 L 127.7 137.8 L 126.2 159 L 124.8 157.4 L 123.4 166.4 L 122.0 170.1 L 120.5 192.9 L 119.1 163.2 L 117.7 176.4 L 116.3 188.1 L 114.8 210.4 L 113.4 178.6 L 112.0 182.3 L 110.6 180.2 L 109.1 184.9 L 107.7 176.4 L 106.3 175.4 L 104.9 174.9 L 103.4 164.3 L 102.0 171.7 L 100.6 155.2 L 99.2 166.4 L 97.7 174.3 L 96.3 159.5 L 94.9 161.6 L 93.5 173.3 L 92.0 162.1 L 90.6 179.6 L 89.2 164.8 L 87.8 169.6 L 86.3 173.3 L 84.9 162.7 L 83.5 153.1 L 82.1 149.9 L 80.7 165.3 L 79.2 170.6 L 77.8 191.3 L 76.4 210.9 L 75.0 211.4 L 73.5 198.2 L 72.1 188.6 L 70.7 187.0 L 69.3 180.7 L 67.8 173.3 L 66.4 170.6 L 65.0 184.9 L 63.6 183.3 L 62.1 177.0 L 60.7 165.3 L 59.3 191.3 L 57.9 181.7 L 56.4 186.5 L 55.0 184.4 L 53.6 183.9 L 52.2 171.1 L 50.7 168.5 L 49.3 198.2 L 47.9 226.8 L 46.5 222.0 L 45.0 191.3 L 43.6 198.2 L 42.2 207.7 L 40.8 206.1 L 39.3 199.2 L 37.9 216.2 L 36.5 214.6 L 35.1 226.3 L 33.6 214.6 L 32.2 222.6 L 30.8 210.4 L 29.4 212.5 L 27.9 209.8 L 26.5 207.2 L 25.1 234.2 L 23.7 224.1 L 22.2 230.0 L 20.8 214.1 L 19.4 199.2 L 18.0 183.9 L 16.5 188.1 L 15.1 182.8 L 13.7 180.2 L 12.3 170.1 L 10.8 162.7 L 9.4 172.7 L 8.0 175.4 L 6.6 178.0 L 5.1 187.0" stroke="#7cb5ec" stroke-width="1" stroke-linejoin="round" stroke-linecap="round">
			</path>
			<path fill="rgb(192,192,192)" fill-opacity="0.0" d="M 5.1 206.1 L 6.6 202.4 L 8.0 202.9 L 9.4 198.2 L 10.8 194.5 L 12.3 196.1 L 13.7 191.3 L 15.1 191.3 L 16.5 215.1 L 18.0 214.6 L 19.4 213.5 L 20.8 246.4 L 22.2 250.6 L 23.7 250.6 L 25.1 253.8 L 26.5 236.9 L 27.9 218.3 L 29.4 224.1 L 30.8 222.6 L 32.2 239.0 L 33.6 235.3 L 35.1 245.9 L 36.5 228.9 L 37.9 241.1 L 39.3 235.3 L 40.8 233.2 L 42.2 230.0 L 43.6 221.0 L 45.0 228.4 L 46.5 237.4 L 47.9 249.1 L 49.3 226.3 L 50.7 218.8 L 52.2 204.0 L 53.6 214.6 L 55.0 213.0 L 56.4 208.2 L 57.9 207.2 L 59.3 202.9 L 60.7 200.3 L 62.1 196.1 L 63.6 204.5 L 65.0 208.8 L 66.4 211.4 L 67.8 193.9 L 69.3 201.4 L 70.7 206.1 L 72.1 206.1 L 73.5 226.8 L 75.0 238.5 L 76.4 242.2 L 77.8 215.7 L 79.2 204.0 L 80.7 182.8 L 82.1 183.9 L 83.5 202.9 L 84.9 193.9 L 86.3 193.9 L 87.8 188.1 L 89.2 200.8 L 90.6 208.8 L 92.0 205.6 L 93.5 198.2 L 94.9 191.3 L 96.3 183.9 L 97.7 197.6 L 99.2 190.8 L 100.6 179.6 L 102.0 189.7 L 103.4 198.7 L 104.9 210.9 L 106.3 218.3 L 107.7 209.8 L 109.1 210.9 L 110.6 212.5 L 112.0 206.7 L 113.4 217.8 L 114.8 222.0 L 116.3 210.4 L 117.7 199.2 L 119.1 195.0 L 120.5 202.9 L 122.0 213.5 L 123.4 224.7 L 124.8 221.0 L 126.2 190.2 L 127.7 188.6 L 129.1 194.5 L 130.5 196.1 L 131.9 204.5 L 133.3 218.3 L 134.7 200.3 L 136.2 217.3 L 137.6 221.5 L 139.0 210.9 L 140.4 192.3 L 141.9 181.2 L 143.3 183.3 L 144.7 188.1 L 146.1 191.3 L 147.6 188.1 L 149.0 177.0 L 150.4 192.3 L 151.8 192.9 L 153.3 193.4 L 154.7 204.0 L 156.1 186.0 L 157.5 193.4 L 159.0 204.0 L 160.4 202.9 L 161.8 204.5 L 163.2 196.1 L 164.7 182.3 L 166.1 181.7 L 167.5 188.1 L 168.9 195.5 L 170.4 187.0 L 171.8 186.0 L 173.2 175.9 L 174.6 197.1 L 176.1 226.3 L 177.5 222.0 L 178.9 188.1 L 180.3 215.1 L 181.8 190.8 L 183.2 182.8 L 184.6 177.5 L 186.0 195.0 L 187.5 200.8 L 188.9 177.5 L 190.3 181.7 L 191.7 178.6 L 193.2 183.9 L 194.6 180.2 L 196.0 201.9 L 197.4 173.8 L 198.8 164.8 L 200.3 163.7 L 201.7 167.4 L 203.1 175.9 L 204.5 171.7 L 206.0 153.1 L 207.4 162.7 L 208.8 156.8 L 210.2 181.7 L 211.7 170.1 L 213.1 185.5 L 214.5 171.7 L 215.9 181.7 L 217.4 187.6 L 218.8 174.9 L 220.2 184.9 L 221.6 177.0 L 223.1 160.5 L 224.5 161.1 L 225.9 143.1 L 227.3 143.6 L 228.8 166.9 L 230.2 163.2 L 231.6 156.3 L 233.0 173.3 L 234.5 147.8 L 235.9 153.1 L 237.3 159 L 238.7 181.2 L 240.2 172.7 L 241.6 157.4 L 243.0 170.6 L 244.4 150.5 L 245.9 160.0 L 247.3 155.2 L 248.7 164.3 L 250.1 184.9 L 251.6 159 L 253.0 184.4 L 254.4 178.6 L 255.8 182.8 L 257.3 167.4 L 258.7 174.3 L 260.1 179.6 L 261.5 167.4 L 263.0 171.7 L 264.4 169.0 L 265.8 152.6 L 267.2 178.0 L 268.7 144.6 L 270.1 130.9 L 271.5 131.9 L 272.9 154.7 L 274.4 128.2 L 275.8 128.2 L 277.2 131.4 L 278.6 133.0 L 280.1 142.5 L 281.5 129.8 L 282.9 134.0 L 284.3 135.6 L 285.8 145.2 L 287.2 138.3 L 288.6 152.1 L 290.0 141.5 L 291.5 141.5 L 292.9 137.8 L 294.3 137.2 L 295.7 130.3 L 297.2 121.9 L 298.6 124.0 L 300.0 141.5 L 301.4 122.9 L 302.9 127.2 L 304.3 135.6 L 305.7 144.1 L 307.1 145.2 L 308.6 151.5 L 310.0 138.3 L 311.4 145.7 L 312.8 146.8 L 314.3 144.1 L 315.7 153.7 L 317.1 134.0 L 318.5 153.1 L 320.0 140.4 L 321.4 139.3 L 322.8 144.1 L 324.2 147.8 L 325.7 165.3 L 327.1 168.5 L 328.5 154.2 L 329.9 155.2 L 331.4 153.7 L 332.8 147.8 L 334.2 152.6 L 335.6 159.5 L 337.1 175.4 L 338.5 164.8 L 339.9 168.5 L 341.3 167.4 L 342.8 177.0 L 344.2 178.0 M 358.4 140.9 L 359.9 142.0 L 361.3 148.9 L 362.7 164.3 L 364.1 180.7 L 365.6 175.9 L 367.0 157.4 L 368.4 165.8 L 369.8 170.1 L 371.3 180.2 L 372.7 187.0 L 374.1 190.8 L 375.5 188.1 L 376.9 195.5 L 378.4 166.9 L 379.8 171.7 L 381.2 205.1 L 382.6 201.4 L 384.1 185.5 L 385.5 178.0 L 386.9 168.5 L 388.3 164.8 L 389.8 159.5 L 391.2 184.4 L 392.6 187.6 L 394.0 165.3 L 395.5 191.3 L 396.9 197.6 L 398.3 157.9 L 399.7 161.1 L 401.2 162.7 L 402.6 169.0 L 404.0 176.4 L 405.4 190.8 L 406.9 178.6 L 408.3 177.0 L 409.7 177.0 L 411.1 180.7 L 412.6 205.6 L 414.0 212.5 L 415.4 217.3 L 416.8 221.0 L 418.3 215.1 L 419.7 175.4 L 421.1 171.1 L 422.5 191.8 L 424.0 179.1 L 425.4 177.5 L 426.8 170.1 L 428.2 179.6 L 429.7 157.4 L 431.2 174.3 L 432.6 212 L 434.0 212 L 435.4 191.3 L 436.9 190.8 L 438.3 186.5 L 439.7 174.9 L 441.1 196.1 L 442.6 197.1 L 444.0 207.7 L 445.4 213.0 L 446.8 215.1 L 448.2 177.0 L 449.7 183.3 L 451.1 196.1 L 452.5 209.8 L 453.9 212.5 L 455.4 186.5 L 456.8 187.6 L 458.2 189.2 L 459.6 194.5 L 461.1 214.1 L 462.5 201.9 L 463.9 213.0 L 465.3 218.8 L 466.8 221.5 L 468.2 226.3 L 469.6 210.4 L 471.0 193.9 L 472.5 207.7 L 473.9 217.3 L 475.3 209.8 L 476.7 218.3 L 478.2 217.8 L 479.6 215.7 L 481.0 209.3 L 482.4 204.5 L 483.9 188.1 L 485.3 209.8 L 486.7 198.7 L 488.1 206.1 L 489.6 201.4 L 491.0 204.5 L 492.4 208.2 L 493.8 201.9 L 495.3 213.0 L 496.7 212.5 L 498.1 217.3 L 499.5 209.3 L 501.0 221.0 L 502.4 210.4 L 503.8 227.9 L 505.2 217.8 L 506.7 207.7 L 508.1 207.2 L 509.5 210.4 L 510.9 208.8 L 512.4 204.0 M 516.6 234.2 L 518.1 266.0 L 519.5 256.5 L 520.9 239.5 L 522.3 205.1 L 523.8 203.5 L 523.8 203.5 L 523.8 189.7 L 522.3 198.7 L 520.9 199.2 L 519.5 233.7 L 518.1 239.5 L 516.6 233.7 L 516.6 234.2 M 512.4 204.0 L 512.4 188.6 L 510.9 183.9 L 509.5 191.3 L 508.1 188.6 L 506.7 193.9 L 505.2 204.0 L 503.8 209.8 L 502.4 197.1 L 501.0 182.3 L 499.5 183.3 L 498.1 191.8 L 496.7 202.9 L 495.3 192.3 L 493.8 191.3 L 492.4 187.6 L 491.0 200.3 L 489.6 188.6 L 488.1 185.5 L 486.7 192.3 L 485.3 159 L 483.9 157.9 L 482.4 195.0 L 481.0 198.7 L 479.6 202.4 L 478.2 197.1 L 476.7 201.9 L 475.3 195.5 L 473.9 205.1 L 472.5 179.6 L 471.0 177.5 L 469.6 198.7 L 468.2 205.1 L 466.8 207.2 L 465.3 200.8 L 463.9 192.3 L 462.5 187.0 L 461.1 195.0 L 459.6 172.2 L 458.2 171.1 L 456.8 166.9 L 455.4 165.3 L 453.9 175.9 L 452.5 195.0 L 451.1 167.4 L 449.7 173.3 L 448.2 157.4 L 446.8 182.8 L 445.4 196.6 L 444.0 186.5 L 442.6 180.7 L 441.1 160.0 L 439.7 166.9 L 438.3 152.6 L 436.9 186.5 L 435.4 187.6 L 434.0 181.7 L 432.6 158.4 L 431.2 141.5 L 429.7 142.5 L 428.2 154.2 L 426.8 155.2 L 425.4 163.2 L 424.0 166.4 L 422.5 160.5 L 421.1 156.3 L 419.7 158.4 L 418.3 172.2 L 416.8 168.0 L 415.4 162.1 L 414.0 163.2 L 412.6 155.8 L 411.1 156.8 L 409.7 157.4 L 408.3 155.2 L 406.9 157.9 L 405.4 159 L 404.0 152.6 L 402.6 144.6 L 401.2 119.2 L 399.7 117.1 L 398.3 115.5 L 396.9 116.0 L 395.5 146.8 L 394.0 147.8 L 392.6 149.9 L 391.2 145.7 L 389.8 127.7 L 388.3 149.4 L 386.9 141.5 L 385.5 158.4 L 384.1 154.7 L 382.6 154.2 L 381.2 145.2 L 379.8 138.8 L 378.4 147.3 L 376.9 126.6 L 375.5 117.1 L 374.1 112.3 L 372.7 106.5 L 371.3 105.4 L 369.8 110.7 L 368.4 117.1 L 367.0 106.5 L 365.6 126.1 L 364.1 119.2 L 362.7 127.7 L 361.3 111.8 L 359.9 121.3 L 358.4 140.9 L 358.4 140.9 M 344.2 178.0 L 344.2 107.5 L 342.8 106.5 L 341.3 108.6 L 339.9 118.7 L 338.5 130.9 L 337.1 128.7 L 335.6 124.0 L 334.2 135.6 L 332.8 134.0 L 331.4 111.8 L 329.9 126.6 L 328.5 125.6 L 327.1 105.4 L 325.7 93.2 L 324.2 112.8 L 322.8 108.1 L 321.4 89.5 L 320.0 102.2 L 318.5 86.9 L 317.1 93.2 L 315.7 103.8 L 314.3 88.5 L 312.8 87.9 L 311.4 106.5 L 310.0 111.8 L 308.6 107.5 L 307.1 116.6 L 305.7 116.0 L 304.3 111.3 L 302.9 91.1 L 301.4 95.9 L 300.0 76.3 L 298.6 68.3 L 297.2 71.5 L 295.7 47.1 L 294.3 54.0 L 292.9 59.3 L 291.5 54.5 L 290.0 66.7 L 288.6 69.4 L 287.2 82.6 L 285.8 113.9 L 284.3 122.9 L 282.9 105.4 L 281.5 87.4 L 280.1 66.7 L 278.6 63.0 L 277.2 50.3 L 275.8 58.3 L 274.4 54.5 L 272.9 91.1 L 271.5 109.1 L 270.1 96.9 L 268.7 89.5 L 267.2 133.0 L 265.8 116.0 L 264.4 98.0 L 263.0 88.5 L 261.5 92.2 L 260.1 101.7 L 258.7 88.5 L 257.3 107.5 L 255.8 100.1 L 254.4 99.1 L 253.0 94.8 L 251.6 109.7 L 250.1 141.5 L 248.7 129.8 L 247.3 135.6 L 245.9 127.2 L 244.4 107.5 L 243.0 122.9 L 241.6 95.9 L 240.2 105.4 L 238.7 87.9 L 237.3 102.2 L 235.9 141.5 L 234.5 115.5 L 233.0 87.9 L 231.6 95.4 L 230.2 98.5 L 228.8 89.0 L 227.3 115.5 L 225.9 106 L 224.5 97.5 L 223.1 94.3 L 221.6 81.6 L 220.2 102.8 L 218.8 95.4 L 217.4 106 L 215.9 95.9 L 214.5 95.4 L 213.1 92.7 L 211.7 117.1 L 210.2 109.1 L 208.8 109.7 L 207.4 136.2 L 206.0 124.5 L 204.5 137.2 L 203.1 98.0 L 201.7 117.1 L 200.3 103.3 L 198.8 131.4 L 197.4 160.0 L 196.0 171.1 L 194.6 137.2 L 193.2 130.9 L 191.7 130.9 L 190.3 126.1 L 188.9 129.3 L 187.5 140.4 L 186.0 135.1 L 184.6 142.0 L 183.2 161.6 L 181.8 160.5 L 180.3 156.8 L 178.9 166.9 L 177.5 154.2 L 176.1 156.3 L 174.6 163.2 L 173.2 129.3 L 171.8 124.0 L 170.4 111.8 L 168.9 118.7 L 167.5 125.0 L 166.1 120.8 L 164.7 112.3 L 163.2 114.4 L 161.8 127.2 L 160.4 129.3 L 159.0 142.5 L 157.5 148.4 L 156.1 162.1 L 154.7 157.9 L 153.3 168.0 L 151.8 176.4 L 150.4 173.3 L 149.0 167.4 L 147.6 169.6 L 146.1 167.4 L 144.7 147.3 L 143.3 165.8 L 141.9 151.5 L 140.4 178.0 L 139.0 171.1 L 137.6 161.6 L 136.2 158.4 L 134.7 171.7 L 133.3 165.3 L 131.9 156.8 L 130.5 145.7 L 129.1 153.7 L 127.7 137.8 L 126.2 159 L 124.8 157.4 L 123.4 166.4 L 122.0 170.1 L 120.5 192.9 L 119.1 163.2 L 117.7 176.4 L 116.3 188.1 L 114.8 210.4 L 113.4 178.6 L 112.0 182.3 L 110.6 180.2 L 109.1 184.9 L 107.7 176.4 L 106.3 175.4 L 104.9 174.9 L 103.4 164.3 L 102.0 171.7 L 100.6 155.2 L 99.2 166.4 L 97.7 174.3 L 96.3 159.5 L 94.9 161.6 L 93.5 173.3 L 92.0 162.1 L 90.6 179.6 L 89.2 164.8 L 87.8 169.6 L 86.3 173.3 L 84.9 162.7 L 83.5 153.1 L 82.1 149.9 L 80.7 165.3 L 79.2 170.6 L 77.8 191.3 L 76.4 210.9 L 75.0 211.4 L 73.5 198.2 L 72.1 188.6 L 70.7 187.0 L 69.3 180.7 L 67.8 173.3 L 66.4 170.6 L 65.0 184.9 L 63.6 183.3 L 62.1 177.0 L 60.7 165.3 L 59.3 191.3 L 57.9 181.7 L 56.4 186.5 L 55.0 184.4 L 53.6 183.9 L 52.2 171.1 L 50.7 168.5 L 49.3 198.2 L 47.9 226.8 L 46.5 222.0 L 45.0 191.3 L 43.6 198.2 L 42.2 207.7 L 40.8 206.1 L 39.3 199.2 L 37.9 216.2 L 36.5 214.6 L 35.1 226.3 L 33.6 214.6 L 32.2 222.6 L 30.8 210.4 L 29.4 212.5 L 27.9 209.8 L 26.5 207.2 L 25.1 234.2 L 23.7 224.1 L 22.2 230.0 L 20.8 214.1 L 19.4 199.2 L 18.0 183.9 L 16.5 188.1 L 15.1 182.8 L 13.7 180.2 L 12.3 170.1 L 10.8 162.7 L 9.4 172.7 L 8.0 175.4 L 6.6 178.0 L 5.1 187.0 L 5.1 206.1" stroke-linejoin="round" visibility="visible" stroke="rgb(192,192,192)" stroke-opacity="0.0" stroke-width="1" class=" highcharts-tracker" style="">
			</path>
		</g>
		<g class="highcharts-markers highcharts-series-0 highcharts-tracker" transform="translate(45,46) scale(1 1)" style="" clip-path="none">
		</g>
	</g>
	<text x="292" text-anchor="middle" class="highcharts-title" style="color:#333333;font-size:18px;fill:#333333;width:520px;" y="24">
		<tspan>Temperature variation by day
		</tspan>
	</text>
	<g class="highcharts-axis-labels highcharts-xaxis-labels">
		<text x="50.1" style="color:#606060;cursor:default;font-size:11px;fill:#606060;width:84px;text-overflow:clip;" text-anchor="middle" transform="translate(0,0)" y="383" opacity="1">
			<tspan>Jan '14
			</tspan>
		</text>
		<text x="134.1" style="color:#606060;cursor:default;font-size:11px;fill:#606060;width:84px;text-overflow:clip;" text-anchor="middle" transform="translate(0,0)" y="383" opacity="1">
			<tspan>Mar '14
			</tspan>
		</text>
		<text x="221.1" style="color:#606060;cursor:default;font-size:11px;fill:#606060;width:84px;text-overflow:clip;" text-anchor="middle" transform="translate(0,0)" y="383" opacity="1">
			<tspan>May '14
			</tspan>
		</text>
		<text x="308.0" style="color:#606060;cursor:default;font-size:11px;fill:#606060;width:84px;text-overflow:clip;" text-anchor="middle" transform="translate(0,0)" y="383" opacity="1">
			<tspan>Jul '14
			</tspan>
		</text>
		<text x="396.3" style="color:#606060;cursor:default;font-size:11px;fill:#606060;width:84px;text-overflow:clip;" text-anchor="middle" transform="translate(0,0)" y="383" opacity="1">
			<tspan>Sep '14
			</tspan>
		</text>
		<text x="483.2" style="color:#606060;cursor:default;font-size:11px;fill:#606060;width:84px;text-overflow:clip;" text-anchor="middle" transform="translate(0,0)" y="383" opacity="1">
			<tspan>Nov '14
			</tspan>
		</text>
		<text x="555.9" style="color:#606060;cursor:default;font-size:11px;fill:#606060;width:84px;text-overflow:clip;" text-anchor="middle" transform="translate(0,0)" y="383" opacity="1">
			<tspan>Jan '15
			</tspan>
		</text>
	</g>
	<g class="highcharts-axis-labels highcharts-yaxis-labels">
		<text x="30" style="color:#606060;cursor:default;font-size:11px;fill:#606060;width:183px;text-overflow:clip;" text-anchor="end" transform="translate(0,0)" y="369" opacity="1">-20
		</text>
		<text x="30" style="color:#606060;cursor:default;font-size:11px;fill:#606060;width:183px;text-overflow:clip;" text-anchor="end" transform="translate(0,0)" y="316" opacity="1">-10
		</text>
		<text x="30" style="color:#606060;cursor:default;font-size:11px;fill:#606060;width:183px;text-overflow:clip;" text-anchor="end" transform="translate(0,0)" y="263" opacity="1">0
		</text>
		<text x="30" style="color:#606060;cursor:default;font-size:11px;fill:#606060;width:183px;text-overflow:clip;" text-anchor="end" transform="translate(0,0)" y="210" opacity="1">10
		</text>
		<text x="30" style="color:#606060;cursor:default;font-size:11px;fill:#606060;width:183px;text-overflow:clip;" text-anchor="end" transform="translate(0,0)" y="157" opacity="1">20
		</text>
		<text x="30" style="color:#606060;cursor:default;font-size:11px;fill:#606060;width:183px;text-overflow:clip;" text-anchor="end" transform="translate(0,0)" y="104" opacity="1">30
		</text>
		<text x="30" style="color:#606060;cursor:default;font-size:11px;fill:#606060;width:183px;text-overflow:clip;" text-anchor="end" transform="translate(0,0)" y="51" opacity="1">40
		</text>
	</g>
	<g class="highcharts-tooltip" style="cursor:default;padding:0;pointer-events:none;white-space:nowrap;" transform="translate(0,-9999)">
		<path fill="none" d="M 3.5 0.5 L 13.5 0.5 C 16.5 0.5 16.5 0.5 16.5 3.5 L 16.5 13.5 C 16.5 16.5 16.5 16.5 13.5 16.5 L 3.5 16.5 C 0.5 16.5 0.5 16.5 0.5 13.5 L 0.5 3.5 C 0.5 0.5 0.5 0.5 3.5 0.5"  stroke="black" stroke-opacity="0.0" stroke-width="5" transform="translate(1, 1)">
		</path>
		<path fill="none" d="M 3.5 0.5 L 13.5 0.5 C 16.5 0.5 16.5 0.5 16.5 3.5 L 16.5 13.5 C 16.5 16.5 16.5 16.5 13.5 16.5 L 3.5 16.5 C 0.5 16.5 0.5 16.5 0.5 13.5 L 0.5 3.5 C 0.5 0.5 0.5 0.5 3.5 0.5"  stroke="black" stroke-opacity="0.0" stroke-width="3" transform="translate(1, 1)">
		</path>
		<path fill="none" d="M 3.5 0.5 L 13.5 0.5 C 16.5 0.5 16.5 0.5 16.5 3.5 L 16.5 13.5 C 16.5 16.5 16.5 16.5 13.5 16.5 L 3.5 16.5 C 0.5 16.5 0.5 16.5 0.5 13.5 L 0.5 3.5 C 0.5 0.5 0.5 0.5 3.5 0.5"  stroke="black" stroke-opacity="0.1" stroke-width="1" transform="translate(1, 1)">
		</path>
		<path fill="rgb(249, 249, 249)" fill-opacity=" .85" d="M 3.5 0.5 L 13.5 0.5 C 16.5 0.5 16.5 0.5 16.5 3.5 L 16.5 13.5 C 16.5 16.5 16.5 16.5 13.5 16.5 L 3.5 16.5 C 0.5 16.5 0.5 16.5 0.5 13.5 L 0.5 3.5 C 0.5 0.5 0.5 0.5 3.5 0.5">
		</path>
		<text x="8" style="font-size:12px;color:#333333;fill:#333333;" y="20">
		</text>
	</g>
</svg>