
<svg version="1.1" style="font-family:&quot;lucida grande&quot;, &quot;lucida sans unicode&quot;, arial, helvetica, sans-serif;font-size:12px;" xmlns="http://www.w3.org/2000/svg" viewBox="0 0 584 400">
	<desc>Created with Highcharts 4.2.4
	</desc>
	<defs>
		<clipPath id="highcharts-1">
			<rect x="0" y="0" width="299" height="489">
			</rect>
		</clipPath>
	</defs>
	<rect x="0" y="0" width="584" height="400" fill="#FFFFFF" class=" highcharts-background" stroke="transparent">
	</rect>
	<g class="highcharts-grid">
	</g>
	<g class="highcharts-grid">
		<path fill="none" d="M 84.5 46 L 84.5 345" stroke="#D8D8D8" stroke-width="1" opacity="1">
		</path>
		<path fill="none" d="M 154.5 46 L 154.5 345" stroke="#D8D8D8" stroke-width="1" opacity="1">
		</path>
		<path fill="none" d="M 224.5 46 L 224.5 345" stroke="#D8D8D8" stroke-width="1" opacity="1">
		</path>
		<path fill="none" d="M 294.5 46 L 294.5 345" stroke="#D8D8D8" stroke-width="1" opacity="1">
		</path>
		<path fill="none" d="M 363.5 46 L 363.5 345" stroke="#D8D8D8" stroke-width="1" opacity="1">
		</path>
		<path fill="none" d="M 433.5 46 L 433.5 345" stroke="#D8D8D8" stroke-width="1" opacity="1">
		</path>
		<path fill="none" d="M 503.5 46 L 503.5 345" stroke="#D8D8D8" stroke-width="1" opacity="1">
		</path>
		<path fill="none" d="M 574.5 46 L 574.5 345" stroke="#D8D8D8" stroke-width="1" opacity="1">
		</path>
	</g>
	<g class="highcharts-axis">
		<path fill="none" d="M 85 89.5 L 75 89.5" stroke="#C0D0E0" stroke-width="1" opacity="1">
		</path>
		<path fill="none" d="M 85 131.5 L 75 131.5" stroke="#C0D0E0" stroke-width="1" opacity="1">
		</path>
		<path fill="none" d="M 85 174.5 L 75 174.5" stroke="#C0D0E0" stroke-width="1" opacity="1">
		</path>
		<path fill="none" d="M 85 217.5 L 75 217.5" stroke="#C0D0E0" stroke-width="1" opacity="1">
		</path>
		<path fill="none" d="M 85 260.5 L 75 260.5" stroke="#C0D0E0" stroke-width="1" opacity="1">
		</path>
		<path fill="none" d="M 85 302.5 L 75 302.5" stroke="#C0D0E0" stroke-width="1" opacity="1">
		</path>
		<path fill="none" d="M 85 345.5 L 75 345.5" stroke="#C0D0E0" stroke-width="1" opacity="1">
		</path>
		<path fill="none" d="M 85 45.5 L 75 45.5" stroke="#C0D0E0" stroke-width="1" opacity="1">
		</path>
		<path fill="none" d="M 84.5 46 L 84.5 345" stroke="#C0D0E0" stroke-width="1">
		</path>
	</g>
	<g class="highcharts-axis">
		<text x="329.5" text-anchor="middle" transform="translate(0,0)" class=" highcharts-yaxis-title" style="color:#707070;fill:#707070;" y="382.9">
			<tspan>Number of units
			</tspan>
		</text>
	</g>
	<g class="highcharts-series-group">
		<g class="highcharts-series highcharts-series-0" transform="translate(574,345) rotate(90) scale(-1,1) scale(1 1)" width="489" height="299" clip-path="url(#highcharts-1)">
			<path fill="#7cb5ec" d="M 277.6 384.2 L 234.9 349.2 L 192.2 384.2 L 149.5 314.3 L 106.7 349.2 L 64.0 139.7 L 21.3 69.8 L 21.3 489 L 64.0 489 L 106.7 489 L 149.5 489 L 192.2 489 L 234.9 489 L 277.6 489" fill-opacity="0.5">
			</path>
			<path fill="none" d="M 277.6 384.2 L 234.9 349.2 L 192.2 384.2 L 149.5 314.3 L 106.7 349.2 L 64.0 139.7 L 21.3 69.8" stroke="#7cb5ec" stroke-width="2" stroke-linejoin="round" stroke-linecap="round">
			</path>
			<path fill="none" d="M 267.6 384.2 L 277.6 384.2 L 234.9 349.2 L 192.2 384.2 L 149.5 314.3 L 106.7 349.2 L 64.0 139.7 L 21.3 69.8 L 31.3 69.8" stroke-linejoin="round" visibility="visible" stroke="rgb(192,192,192)" stroke-opacity="0.0" stroke-width="22" class=" highcharts-tracker" style="">
			</path>
		</g>
		<g class="highcharts-markers highcharts-series-0 highcharts-tracker" transform="translate(574,345) rotate(90) scale(-1,1) scale(1 1)" style="" width="489" height="299" clip-path="none">
			<path fill="#7cb5ec" d="M 21 65.8 C 26.3 65.8 26.3 73.8 21 73.8 C 15.6 73.8 15.6 65.8 21 65.8 Z">
			</path>
			<path fill="#7cb5ec" d="M 64 135.7 C 69.3 135.7 69.3 143.7 64 143.7 C 58.6 143.7 58.6 135.7 64 135.7 Z">
			</path>
			<path fill="#7cb5ec" d="M 106 345.2 C 111.3 345.2 111.3 353.2 106 353.2 C 100.6 353.2 100.6 345.2 106 345.2 Z">
			</path>
			<path fill="#7cb5ec" d="M 149 310.3 C 154.3 310.3 154.3 318.3 149 318.3 C 143.6 318.3 143.6 310.3 149 310.3 Z">
			</path>
			<path fill="#7cb5ec" d="M 192 380.2 C 197.3 380.2 197.3 388.2 192 388.2 C 186.6 388.2 186.6 380.2 192 380.2 Z">
			</path>
			<path fill="#7cb5ec" d="M 234 345.2 C 239.3 345.2 239.3 353.2 234 353.2 C 228.6 353.2 228.6 345.2 234 345.2 Z">
			</path>
			<path fill="#7cb5ec" d="M 277 380.2 C 282.3 380.2 282.3 388.2 277 388.2 C 271.6 388.2 271.6 380.2 277 380.2 Z">
			</path>
		</g>
		<g class="highcharts-series highcharts-series-1" transform="translate(574,345) rotate(90) scale(-1,1) scale(1 1)" width="489" height="299" clip-path="url(#highcharts-1)">
			<path fill="#434348" d="M 277.6 454.0 L 234.9 384.2 L 192.2 349.2 L 149.5 384.2 L 106.7 384.2 L 64.0 314.3 L 21.3 349.2 L 21.3 489 L 64.0 489 L 106.7 489 L 149.5 489 L 192.2 489 L 234.9 489 L 277.6 489" fill-opacity="0.5">
			</path>
			<path fill="none" d="M 277.6 454.0 L 234.9 384.2 L 192.2 349.2 L 149.5 384.2 L 106.7 384.2 L 64.0 314.3 L 21.3 349.2" stroke="#434348" stroke-width="2" stroke-linejoin="round" stroke-linecap="round">
			</path>
			<path fill="none" d="M 267.6 454.0 L 277.6 454.0 L 234.9 384.2 L 192.2 349.2 L 149.5 384.2 L 106.7 384.2 L 64.0 314.3 L 21.3 349.2 L 31.3 349.2" stroke-linejoin="round" visibility="visible" stroke="rgb(192,192,192)" stroke-opacity="0.0" stroke-width="22" class=" highcharts-tracker" style="">
			</path>
		</g>
		<g class="highcharts-markers highcharts-series-1 highcharts-tracker" transform="translate(574,345) rotate(90) scale(-1,1) scale(1 1)" style="" width="489" height="299" clip-path="none">
			<path fill="#434348" d="M 21 345.2 L 25 349.2 21 353.2 17 349.2 Z">
			</path>
			<path fill="#434348" d="M 64 310.3 L 68 314.3 64 318.3 60 314.3 Z">
			</path>
			<path fill="#434348" d="M 106 380.2 L 110 384.2 106 388.2 102 384.2 Z">
			</path>
			<path fill="#434348" d="M 149 380.2 L 153 384.2 149 388.2 145 384.2 Z">
			</path>
			<path fill="#434348" d="M 192 345.2 L 196 349.2 192 353.2 188 349.2 Z">
			</path>
			<path fill="#434348" d="M 234 380.2 L 238 384.2 234 388.2 230 384.2 Z">
			</path>
			<path fill="#434348" d="M 277 450.0 L 281 454.0 277 458.0 273 454.0 Z">
			</path>
		</g>
	</g>
	<text x="292" text-anchor="middle" class="highcharts-title" style="color:#333333;font-size:18px;fill:#333333;width:520px;" y="24">
		<tspan>Average fruit consumption during one week
		</tspan>
	</text>
	<g class="highcharts-legend" transform="translate(359,110)">
		<rect x="0.5" y="0.5" width="64" height="38" stroke="#909090" stroke-width="1" fill="#FFFFFF" visibility="visible">
		</rect>
		<g>
			<g>
				<g class="highcharts-legend-item" transform="translate(8,3)">
					<text x="21" style="color:#333333;font-size:12px;font-weight:bold;cursor:pointer;fill:#333333;" text-anchor="start" y="15">John
					</text>
					<rect x="0" y="4" width="16" height="12" fill="#7cb5ec">
					</rect>
				</g>
				<g class="highcharts-legend-item" transform="translate(8,17)">
					<text x="21" y="15" style="color:#333333;font-size:12px;font-weight:bold;cursor:pointer;fill:#333333;" text-anchor="start">Jane
					</text>
					<rect x="0" y="4" width="16" height="12" fill="#434348">
					</rect>
				</g>
			</g>
		</g>
	</g>
	<g class="highcharts-axis-labels highcharts-xaxis-labels">
		<text x="70" style="color:#606060;cursor:default;font-size:11px;fill:#606060;width:183px;text-overflow:clip;" text-anchor="end" transform="translate(0,0)" y="72" opacity="1">Monday
		</text>
		<text x="70" style="color:#606060;cursor:default;font-size:11px;fill:#606060;width:183px;text-overflow:clip;" text-anchor="end" transform="translate(0,0)" y="115" opacity="1">Tuesday
		</text>
		<text x="70" style="color:#606060;cursor:default;font-size:11px;fill:#606060;width:183px;text-overflow:clip;" text-anchor="end" transform="translate(0,0)" y="157" opacity="1">Wednesday
		</text>
		<text x="70" style="color:#606060;cursor:default;font-size:11px;fill:#606060;width:183px;text-overflow:clip;" text-anchor="end" transform="translate(0,0)" y="200" opacity="1">Thursday
		</text>
		<text x="70" style="color:#606060;cursor:default;font-size:11px;fill:#606060;width:183px;text-overflow:clip;" text-anchor="end" transform="translate(0,0)" y="243" opacity="1">Friday
		</text>
		<text x="70" style="color:#606060;cursor:default;font-size:11px;fill:#606060;width:183px;text-overflow:clip;" text-anchor="end" transform="translate(0,0)" y="285" opacity="1">Saturday
		</text>
		<text x="70" style="color:#606060;cursor:default;font-size:11px;fill:#606060;width:183px;text-overflow:clip;" text-anchor="end" transform="translate(0,0)" y="328" opacity="1">Sunday
		</text>
	</g>
	<g class="highcharts-axis-labels highcharts-yaxis-labels">
		<text x="85" style="color:#606060;cursor:default;font-size:11px;fill:#606060;width:69.8;text-overflow:ellipsis;" text-anchor="middle" transform="translate(0,0)" y="364" opacity="1">
			<tspan>0
			</tspan>
		</text>
		<text x="154.8" style="color:#606060;cursor:default;font-size:11px;fill:#606060;width:69.8;text-overflow:ellipsis;" text-anchor="middle" transform="translate(0,0)" y="364" opacity="1">
			<tspan>2
			</tspan>
		</text>
		<text x="224.7" style="color:#606060;cursor:default;font-size:11px;fill:#606060;width:69.8;text-overflow:ellipsis;" text-anchor="middle" transform="translate(0,0)" y="364" opacity="1">
			<tspan>4
			</tspan>
		</text>
		<text x="294.5" style="color:#606060;cursor:default;font-size:11px;fill:#606060;width:69.8;text-overflow:ellipsis;" text-anchor="middle" transform="translate(0,0)" y="364" opacity="1">
			<tspan>6
			</tspan>
		</text>
		<text x="364.4" style="color:#606060;cursor:default;font-size:11px;fill:#606060;width:69.8;text-overflow:ellipsis;" text-anchor="middle" transform="translate(0,0)" y="364" opacity="1">
			<tspan>8
			</tspan>
		</text>
		<text x="434.2" style="color:#606060;cursor:default;font-size:11px;fill:#606060;width:69.8;text-overflow:ellipsis;" text-anchor="middle" transform="translate(0,0)" y="364" opacity="1">
			<tspan>10
			</tspan>
		</text>
		<text x="504.1" style="color:#606060;cursor:default;font-size:11px;fill:#606060;width:69.8;text-overflow:ellipsis;" text-anchor="middle" transform="translate(0,0)" y="364" opacity="1">
			<tspan>12
			</tspan>
		</text>
		<text x="567.0" style="color:#606060;cursor:default;font-size:11px;fill:#606060;width:34.9;text-overflow:ellipsis;" text-anchor="middle" transform="translate(0,0)" y="364" opacity="1">
			<tspan>14
			</tspan>
		</text>
	</g>
	<g class="highcharts-tooltip" style="cursor:default;padding:0;pointer-events:none;white-space:nowrap;" transform="translate(0,-9999)">
		<path fill="none" d="M 3.5 0.5 L 13.5 0.5 C 16.5 0.5 16.5 0.5 16.5 3.5 L 16.5 13.5 C 16.5 16.5 16.5 16.5 13.5 16.5 L 3.5 16.5 C 0.5 16.5 0.5 16.5 0.5 13.5 L 0.5 3.5 C 0.5 0.5 0.5 0.5 3.5 0.5"  stroke="black" stroke-opacity="0.0" stroke-width="5" transform="translate(1, 1)">
		</path>
		<path fill="none" d="M 3.5 0.5 L 13.5 0.5 C 16.5 0.5 16.5 0.5 16.5 3.5 L 16.5 13.5 C 16.5 16.5 16.5 16.5 13.5 16.5 L 3.5 16.5 C 0.5 16.5 0.5 16.5 0.5 13.5 L 0.5 3.5 C 0.5 0.5 0.5 0.5 3.5 0.5"  stroke="black" stroke-opacity="0.0" stroke-width="3" transform="translate(1, 1)">
		</path>
		<path fill="none" d="M 3.5 0.5 L 13.5 0.5 C 16.5 0.5 16.5 0.5 16.5 3.5 L 16.5 13.5 C 16.5 16.5 16.5 16.5 13.5 16.5 L 3.5 16.5 C 0.5 16.5 0.5 16.5 0.5 13.5 L 0.5 3.5 C 0.5 0.5 0.5 0.5 3.5 0.5"  stroke="black" stroke-opacity="0.1" stroke-width="1" transform="translate(1, 1)">
		</path>
		<path fill="rgb(249, 249, 249)" fill-opacity=" .85" d="M 3.5 0.5 L 13.5 0.5 C 16.5 0.5 16.5 0.5 16.5 3.5 L 16.5 13.5 C 16.5 16.5 16.5 16.5 13.5 16.5 L 3.5 16.5 C 0.5 16.5 0.5 16.5 0.5 13.5 L 0.5 3.5 C 0.5 0.5 0.5 0.5 3.5 0.5">
		</path>
		<text x="8" style="font-size:12px;color:#333333;fill:#333333;" y="20">
		</text>
	</g>
</svg>