
<svg version="1.1" style="font-family:&quot;lucida grande&quot;, &quot;lucida sans unicode&quot;, arial, helvetica, sans-serif;font-size:12px;" xmlns="http://www.w3.org/2000/svg" viewBox="0 0 584 400">
	<desc>Created with Highcharts 4.2.4
	</desc>
	<defs>
		<clipPath id="highcharts-1">
			<rect x="0" y="0" width="507" height="245">
			</rect>
		</clipPath>
	</defs>
	<rect x="0" y="0" width="584" height="400" fill="#FFFFFF" class=" highcharts-background" stroke="transparent">
	</rect>
	<g class="highcharts-grid">
	</g>
	<g class="highcharts-grid">
		<path fill="none" d="M 67 327.5 L 574 327.5" stroke="#D8D8D8" stroke-width="1" opacity="1">
		</path>
		<path fill="none" d="M 67 266.5 L 574 266.5" stroke="#D8D8D8" stroke-width="1" opacity="1">
		</path>
		<path fill="none" d="M 67 205.5 L 574 205.5" stroke="#D8D8D8" stroke-width="1" opacity="1">
		</path>
		<path fill="none" d="M 67 143.5 L 574 143.5" stroke="#D8D8D8" stroke-width="1" opacity="1">
		</path>
		<path fill="none" d="M 67 81.5 L 574 81.5" stroke="#D8D8D8" stroke-width="1" opacity="1">
		</path>
	</g>
	<g class="highcharts-axis">
		<path fill="none" d="M 102.5 327 L 102.5 337" stroke="#C0D0E0" stroke-width="1" opacity="1">
		</path>
		<path fill="none" d="M 175.5 327 L 175.5 337" stroke="#C0D0E0" stroke-width="1" opacity="1">
		</path>
		<path fill="none" d="M 247.5 327 L 247.5 337" stroke="#C0D0E0" stroke-width="1" opacity="1">
		</path>
		<path fill="none" d="M 320.5 327 L 320.5 337" stroke="#C0D0E0" stroke-width="1" opacity="1">
		</path>
		<path fill="none" d="M 392.5 327 L 392.5 337" stroke="#C0D0E0" stroke-width="1" opacity="1">
		</path>
		<path fill="none" d="M 464.5 327 L 464.5 337" stroke="#C0D0E0" stroke-width="1" opacity="1">
		</path>
		<path fill="none" d="M 537.5 327 L 537.5 337" stroke="#C0D0E0" stroke-width="1" opacity="1">
		</path>
		<path fill="none" d="M 67 327.5 L 574 327.5" stroke="#C0D0E0" stroke-width="1">
		</path>
	</g>
	<g class="highcharts-axis">
		<text x="24.6" text-anchor="middle" transform="translate(0,0) rotate(270 24.6 204.5)" class=" highcharts-yaxis-title" style="color:#707070;fill:#707070;" y="204.5">Billions
		</text>
	</g>
	<g class="highcharts-series-group">
		<g class="highcharts-series highcharts-series-0" transform="translate(67,82) scale(1 1)" clip-path="url(#highcharts-1)">
			<path fill="#7cb5ec" d="M 36.2 225.6 L 108.6 221.0 L 181.0 214.3 L 253.5 204.5 L 325.9 183.2 L 398.3 98.5 L 470.7 26.7 L 470.7 155.7 L 398.3 187.5 L 325.9 217.5 L 253.5 227.7 L 181.0 234.1 L 108.6 236.5 L 36.2 237.9" fill-opacity="0.7">
			</path>
			<path fill="none" d="M 36.2 225.6 L 108.6 221.0 L 181.0 214.3 L 253.5 204.5 L 325.9 183.2 L 398.3 98.5 L 470.7 26.7" stroke="#666666" stroke-width="1" stroke-linejoin="round" stroke-linecap="round">
			</path>
			<path fill="none" d="M 26.2 225.6 L 36.2 225.6 L 108.6 221.0 L 181.0 214.3 L 253.5 204.5 L 325.9 183.2 L 398.3 98.5 L 470.7 26.7 L 480.7 26.7" stroke-linejoin="round" visibility="visible" stroke="rgb(192,192,192)" stroke-opacity="0.0" stroke-width="21" class=" highcharts-tracker" style="">
			</path>
		</g>
		<g class="highcharts-markers highcharts-series-0 highcharts-tracker" transform="translate(67,82) scale(1 1)" style="" clip-path="none">
			<path fill="#7cb5ec" d="M 470 22.7 C 475.3 22.7 475.3 30.7 470 30.7 C 464.6 30.7 464.6 22.7 470 22.7 Z" stroke="#666666" stroke-width="1">
			</path>
			<path fill="#7cb5ec" d="M 398 94.5 C 403.3 94.5 403.3 102.5 398 102.5 C 392.6 102.5 392.6 94.5 398 94.5 Z" stroke="#666666" stroke-width="1">
			</path>
			<path fill="#7cb5ec" d="M 325 179.2 C 330.3 179.2 330.3 187.2 325 187.2 C 319.6 187.2 319.6 179.2 325 179.2 Z" stroke="#666666" stroke-width="1">
			</path>
			<path fill="#7cb5ec" d="M 253 200.5 C 258.3 200.5 258.3 208.5 253 208.5 C 247.6 208.5 247.6 200.5 253 200.5 Z" stroke="#666666" stroke-width="1">
			</path>
			<path fill="#7cb5ec" d="M 181 210.3 C 186.3 210.3 186.3 218.3 181 218.3 C 175.6 218.3 175.6 210.3 181 210.3 Z" stroke="#666666" stroke-width="1">
			</path>
			<path fill="#7cb5ec" d="M 108 217.0 C 113.3 217.0 113.3 225.0 108 225.0 C 102.6 225.0 102.6 217.0 108 217.0 Z" stroke="#666666" stroke-width="1">
			</path>
			<path fill="#7cb5ec" d="M 36 221.6 C 41.3 221.6 41.3 229.6 36 229.6 C 30.6 229.6 30.6 221.6 36 221.6 Z" stroke="#666666" stroke-width="1">
			</path>
		</g>
		<g class="highcharts-series highcharts-series-1" transform="translate(67,82) scale(1 1)" clip-path="url(#highcharts-1)">
			<path fill="#434348" d="M 36.2 237.9 L 108.6 236.5 L 181.0 234.1 L 253.5 227.7 L 325.9 217.5 L 398.3 187.5 L 470.7 155.7 L 470.7 199.0 L 398.3 206.3 L 325.9 222.9 L 253.5 231.0 L 181.0 236.8 L 108.6 239.2 L 36.2 240.5" fill-opacity="0.7">
			</path>
			<path fill="none" d="M 36.2 237.9 L 108.6 236.5 L 181.0 234.1 L 253.5 227.7 L 325.9 217.5 L 398.3 187.5 L 470.7 155.7" stroke="#666666" stroke-width="1" stroke-linejoin="round" stroke-linecap="round">
			</path>
			<path fill="none" d="M 26.2 237.9 L 36.2 237.9 L 108.6 236.5 L 181.0 234.1 L 253.5 227.7 L 325.9 217.5 L 398.3 187.5 L 470.7 155.7 L 480.7 155.7" stroke-linejoin="round" visibility="visible" stroke="rgb(192,192,192)" stroke-opacity="0.0" stroke-width="21" class=" highcharts-tracker" style="">
			</path>
		</g>
		<g class="highcharts-markers highcharts-series-1 highcharts-tracker" transform="translate(67,82) scale(1 1)" style="" clip-path="none">
			<path fill="#434348" d="M 470 151.7 L 474 155.7 470 159.7 466 155.7 Z" stroke="#666666" stroke-width="1">
			</path>
			<path fill="#434348" d="M 398 183.5 L 402 187.5 398 191.5 394 187.5 Z" stroke="#666666" stroke-width="1">
			</path>
			<path fill="#434348" d="M 325 213.5 L 329 217.5 325 221.5 321 217.5 Z" stroke="#666666" stroke-width="1">
			</path>
			<path fill="#434348" d="M 253 223.7 L 257 227.7 253 231.7 249 227.7 Z" stroke="#666666" stroke-width="1">
			</path>
			<path fill="#434348" d="M 181 230.1 L 185 234.1 181 238.1 177 234.1 Z" stroke="#666666" stroke-width="1">
			</path>
			<path fill="#434348" d="M 108 232.5 L 112 236.5 108 240.5 104 236.5 Z" stroke="#666666" stroke-width="1">
			</path>
			<path fill="#434348" d="M 36 233.9 L 40 237.9 36 241.9 32 237.9 Z" stroke="#666666" stroke-width="1">
			</path>
		</g>
		<g class="highcharts-series highcharts-series-2" transform="translate(67,82) scale(1 1)" clip-path="url(#highcharts-1)">
			<path fill="#90ed7d" d="M 36.2 240.5 L 108.6 239.2 L 181.0 236.8 L 253.5 231.0 L 325.9 222.9 L 398.3 206.3 L 470.7 199.0 L 470.7 214.4 L 398.3 224.2 L 325.9 236.3 L 253.5 241.0 L 181.0 243.6 L 108.6 244.1 L 36.2 244.5" fill-opacity="0.7">
			</path>
			<path fill="none" d="M 36.2 240.5 L 108.6 239.2 L 181.0 236.8 L 253.5 231.0 L 325.9 222.9 L 398.3 206.3 L 470.7 199.0" stroke="#666666" stroke-width="1" stroke-linejoin="round" stroke-linecap="round">
			</path>
			<path fill="none" d="M 26.2 240.5 L 36.2 240.5 L 108.6 239.2 L 181.0 236.8 L 253.5 231.0 L 325.9 222.9 L 398.3 206.3 L 470.7 199.0 L 480.7 199.0" stroke-linejoin="round" visibility="visible" stroke="rgb(192,192,192)" stroke-opacity="0.0" stroke-width="21" class=" highcharts-tracker" style="">
			</path>
		</g>
		<g class="highcharts-markers highcharts-series-2 highcharts-tracker" transform="translate(67,82) scale(1 1)" style="" clip-path="none">
			<path fill="#90ed7d" d="M 466 195.0 L 474 195.0 474 203.0 466 203.0 Z" stroke="#666666" stroke-width="1">
			</path>
			<path fill="#90ed7d" d="M 394 202.3 L 402 202.3 402 210.3 394 210.3 Z" stroke="#666666" stroke-width="1">
			</path>
			<path fill="#90ed7d" d="M 321 218.9 L 329 218.9 329 226.9 321 226.9 Z" stroke="#666666" stroke-width="1">
			</path>
			<path fill="#90ed7d" d="M 249 227.0 L 257 227.0 257 235.0 249 235.0 Z" stroke="#666666" stroke-width="1">
			</path>
			<path fill="#90ed7d" d="M 177 232.8 L 185 232.8 185 240.8 177 240.8 Z" stroke="#666666" stroke-width="1">
			</path>
			<path fill="#90ed7d" d="M 104 235.2 L 112 235.2 112 243.2 104 243.2 Z" stroke="#666666" stroke-width="1">
			</path>
			<path fill="#90ed7d" d="M 32 236.5 L 40 236.5 40 244.5 32 244.5 Z" stroke="#666666" stroke-width="1">
			</path>
		</g>
		<g class="highcharts-series highcharts-series-3" transform="translate(67,82) scale(1 1)" clip-path="url(#highcharts-1)">
			<path fill="#f7a35c" d="M 36.2 244.5 L 108.6 244.1 L 181.0 243.6 L 253.5 241.0 L 325.9 236.3 L 398.3 224.2 L 470.7 214.4 L 470.7 243.8 L 398.3 244.2 L 325.9 244.6 L 253.5 244.8 L 181.0 244.9 L 108.6 244.9 L 36.2 244.9" fill-opacity="0.7">
			</path>
			<path fill="none" d="M 36.2 244.5 L 108.6 244.1 L 181.0 243.6 L 253.5 241.0 L 325.9 236.3 L 398.3 224.2 L 470.7 214.4" stroke="#666666" stroke-width="1" stroke-linejoin="round" stroke-linecap="round">
			</path>
			<path fill="none" d="M 26.2 244.5 L 36.2 244.5 L 108.6 244.1 L 181.0 243.6 L 253.5 241.0 L 325.9 236.3 L 398.3 224.2 L 470.7 214.4 L 480.7 214.4" stroke-linejoin="round" visibility="visible" stroke="rgb(192,192,192)" stroke-opacity="0.0" stroke-width="21" class=" highcharts-tracker" style="">
			</path>
		</g>
		<g class="highcharts-markers highcharts-series-3 highcharts-tracker" transform="translate(67,82) scale(1 1)" style="" clip-path="none">
			<path fill="#f7a35c" d="M 470 210.4 L 474 218.4 466 218.4 Z" stroke="#666666" stroke-width="1">
			</path>
			<path fill="#f7a35c" d="M 398 220.2 L 402 228.2 394 228.2 Z" stroke="#666666" stroke-width="1">
			</path>
			<path fill="#f7a35c" d="M 325 232.3 L 329 240.3 321 240.3 Z" stroke="#666666" stroke-width="1">
			</path>
			<path fill="#f7a35c" d="M 253 237.0 L 257 245.0 249 245.0 Z" stroke="#666666" stroke-width="1">
			</path>
			<path fill="#f7a35c" d="M 181 239.6 L 185 247.6 177 247.6 Z" stroke="#666666" stroke-width="1">
			</path>
			<path fill="#f7a35c" d="M 108 240.1 L 112 248.1 104 248.1 Z" stroke="#666666" stroke-width="1">
			</path>
			<path fill="#f7a35c" d="M 36 240.5 L 40 248.5 32 248.5 Z" stroke="#666666" stroke-width="1">
			</path>
		</g>
		<g class="highcharts-series highcharts-series-4" transform="translate(67,82) scale(1 1)" clip-path="url(#highcharts-1)">
			<path fill="#8085e9" d="M 36.2 244.9 L 108.6 244.9 L 181.0 244.9 L 253.5 244.8 L 325.9 244.6 L 398.3 244.2 L 470.7 243.8 L 470.7 245 L 398.3 245 L 325.9 245 L 253.5 245 L 181.0 245 L 108.6 245 L 36.2 245" fill-opacity="0.7">
			</path>
			<path fill="none" d="M 36.2 244.9 L 108.6 244.9 L 181.0 244.9 L 253.5 244.8 L 325.9 244.6 L 398.3 244.2 L 470.7 243.8" stroke="#666666" stroke-width="1" stroke-linejoin="round" stroke-linecap="round">
			</path>
			<path fill="none" d="M 26.2 244.9 L 36.2 244.9 L 108.6 244.9 L 181.0 244.9 L 253.5 244.8 L 325.9 244.6 L 398.3 244.2 L 470.7 243.8 L 480.7 243.8" stroke-linejoin="round" visibility="visible" stroke="rgb(192,192,192)" stroke-opacity="0.0" stroke-width="21" class=" highcharts-tracker" style="">
			</path>
		</g>
		<g class="highcharts-markers highcharts-series-4 highcharts-tracker" transform="translate(67,82) scale(1 1)" style="" clip-path="none">
			<path fill="#8085e9" d="M 466 239.8 L 474 239.8 470 247.8 Z" stroke="#666666" stroke-width="1">
			</path>
			<path fill="#8085e9" d="M 394 240.2 L 402 240.2 398 248.2 Z" stroke="#666666" stroke-width="1">
			</path>
			<path fill="#8085e9" d="M 321 240.6 L 329 240.6 325 248.6 Z" stroke="#666666" stroke-width="1">
			</path>
			<path fill="#8085e9" d="M 249 240.8 L 257 240.8 253 248.8 Z" stroke="#666666" stroke-width="1">
			</path>
			<path fill="#8085e9" d="M 177 240.9 L 185 240.9 181 248.9 Z" stroke="#666666" stroke-width="1">
			</path>
			<path fill="#8085e9" d="M 104 240.9 L 112 240.9 108 248.9 Z" stroke="#666666" stroke-width="1">
			</path>
			<path fill="#8085e9" d="M 32 240.9 L 40 240.9 36 248.9 Z" stroke="#666666" stroke-width="1">
			</path>
		</g>
	</g>
	<text x="292" text-anchor="middle" class="highcharts-title" style="color:#333333;font-size:18px;fill:#333333;width:520px;" y="24">
		<tspan>Historic and Estimated Worldwide Population Growth by
		</tspan>
		<tspan dy="21" x="292">Region
		</tspan>
		<title>Historic and Estimated Worldwide Population Growth by Region
		</title>
	</text>
	<text x="292" text-anchor="middle" class="highcharts-subtitle" style="color:#555555;fill:#555555;width:520px;" y="66">
		<tspan>Source: Wikipedia.org
		</tspan>
	</text>
	<g class="highcharts-legend" transform="translate(89,360)">
		<g>
			<g>
				<g class="highcharts-legend-item" transform="translate(8,3)">
					<text x="21" style="color:#333333;font-size:12px;font-weight:bold;cursor:pointer;fill:#333333;" text-anchor="start" y="15">Asia
					</text>
					<rect x="0" y="4" width="16" height="12" fill="#7cb5ec">
					</rect>
				</g>
				<g class="highcharts-legend-item" transform="translate(75.5,3)">
					<text x="21" y="15" style="color:#333333;font-size:12px;font-weight:bold;cursor:pointer;fill:#333333;" text-anchor="start">Africa
					</text>
					<rect x="0" y="4" width="16" height="12" fill="#434348">
					</rect>
				</g>
				<g class="highcharts-legend-item" transform="translate(153.1,3)">
					<text x="21" y="15" style="color:#333333;font-size:12px;font-weight:bold;cursor:pointer;fill:#333333;" text-anchor="start">Europe
					</text>
					<rect x="0" y="4" width="16" height="12" fill="#90ed7d">
					</rect>
				</g>
				<g class="highcharts-legend-item" transform="translate(237.2,3)">
					<text x="21" y="15" style="color:#333333;font-size:12px;font-weight:bold;cursor:pointer;fill:#333333;" text-anchor="start">America
					</text>
					<rect x="0" y="4" width="16" height="12" fill="#f7a35c">
					</rect>
				</g>
				<g class="highcharts-legend-item" transform="translate(328.5,3)">
					<text x="21" y="15" style="color:#333333;font-size:12px;font-weight:bold;cursor:pointer;fill:#333333;" text-anchor="start">Oceania
					</text>
					<rect x="0" y="4" width="16" height="12" fill="#8085e9">
					</rect>
				</g>
			</g>
		</g>
	</g>
	<g class="highcharts-axis-labels highcharts-xaxis-labels">
		<text x="103.2" style="color:#606060;cursor:default;font-size:11px;fill:#606060;width:72.4;text-overflow:ellipsis;" text-anchor="middle" transform="translate(0,0)" y="346" opacity="1">
			<tspan>1750
			</tspan>
		</text>
		<text x="175.6" style="color:#606060;cursor:default;font-size:11px;fill:#606060;width:72.4;text-overflow:ellipsis;" text-anchor="middle" transform="translate(0,0)" y="346" opacity="1">
			<tspan>1800
			</tspan>
		</text>
		<text x="248.0" style="color:#606060;cursor:default;font-size:11px;fill:#606060;width:72.4;text-overflow:ellipsis;" text-anchor="middle" transform="translate(0,0)" y="346" opacity="1">
			<tspan>1850
			</tspan>
		</text>
		<text x="320.5" style="color:#606060;cursor:default;font-size:11px;fill:#606060;width:72.4;text-overflow:ellipsis;" text-anchor="middle" transform="translate(0,0)" y="346" opacity="1">
			<tspan>1900
			</tspan>
		</text>
		<text x="392.9" style="color:#606060;cursor:default;font-size:11px;fill:#606060;width:72.4;text-overflow:ellipsis;" text-anchor="middle" transform="translate(0,0)" y="346" opacity="1">
			<tspan>1950
			</tspan>
		</text>
		<text x="465.3" style="color:#606060;cursor:default;font-size:11px;fill:#606060;width:72.4;text-overflow:ellipsis;" text-anchor="middle" transform="translate(0,0)" y="346" opacity="1">
			<tspan>1999
			</tspan>
		</text>
		<text x="537.7" style="color:#606060;cursor:default;font-size:11px;fill:#606060;width:72.4;text-overflow:ellipsis;" text-anchor="middle" transform="translate(0,0)" y="346" opacity="1">
			<tspan>2050
			</tspan>
		</text>
	</g>
	<g class="highcharts-axis-labels highcharts-yaxis-labels">
		<text x="52" style="color:#606060;cursor:default;font-size:11px;fill:#606060;width:183px;text-overflow:clip;" text-anchor="end" transform="translate(0,0)" y="332" opacity="1">0
		</text>
		<text x="52" style="color:#606060;cursor:default;font-size:11px;fill:#606060;width:183px;text-overflow:clip;" text-anchor="end" transform="translate(0,0)" y="270" opacity="1">2.5
		</text>
		<text x="52" style="color:#606060;cursor:default;font-size:11px;fill:#606060;width:183px;text-overflow:clip;" text-anchor="end" transform="translate(0,0)" y="209" opacity="1">5
		</text>
		<text x="52" style="color:#606060;cursor:default;font-size:11px;fill:#606060;width:183px;text-overflow:clip;" text-anchor="end" transform="translate(0,0)" y="148" opacity="1">7.5
		</text>
		<text x="52" style="color:#606060;cursor:default;font-size:11px;fill:#606060;width:183px;text-overflow:clip;" text-anchor="end" transform="translate(0,0)" y="87" opacity="1">10
		</text>
	</g>
	<g class="highcharts-tooltip" style="cursor:default;padding:0;pointer-events:none;white-space:nowrap;" transform="translate(0,-9999)">
		<path fill="none" d="M 3.5 0.5 L 13.5 0.5 C 16.5 0.5 16.5 0.5 16.5 3.5 L 16.5 13.5 C 16.5 16.5 16.5 16.5 13.5 16.5 L 3.5 16.5 C 0.5 16.5 0.5 16.5 0.5 13.5 L 0.5 3.5 C 0.5 0.5 0.5 0.5 3.5 0.5"  stroke="black" stroke-opacity="0.0" stroke-width="5" transform="translate(1, 1)">
		</path>
		<path fill="none" d="M 3.5 0.5 L 13.5 0.5 C 16.5 0.5 16.5 0.5 16.5 3.5 L 16.5 13.5 C 16.5 16.5 16.5 16.5 13.5 16.5 L 3.5 16.5 C 0.5 16.5 0.5 16.5 0.5 13.5 L 0.5 3.5 C 0.5 0.5 0.5 0.5 3.5 0.5"  stroke="black" stroke-opacity="0.0" stroke-width="3" transform="translate(1, 1)">
		</path>
		<path fill="none" d="M 3.5 0.5 L 13.5 0.5 C 16.5 0.5 16.5 0.5 16.5 3.5 L 16.5 13.5 C 16.5 16.5 16.5 16.5 13.5 16.5 L 3.5 16.5 C 0.5 16.5 0.5 16.5 0.5 13.5 L 0.5 3.5 C 0.5 0.5 0.5 0.5 3.5 0.5"  stroke="black" stroke-opacity="0.1" stroke-width="1" transform="translate(1, 1)">
		</path>
		<path fill="rgb(249, 249, 249)" fill-opacity=" .85" d="M 3.5 0.5 L 13.5 0.5 C 16.5 0.5 16.5 0.5 16.5 3.5 L 16.5 13.5 C 16.5 16.5 16.5 16.5 13.5 16.5 L 3.5 16.5 C 0.5 16.5 0.5 16.5 0.5 13.5 L 0.5 3.5 C 0.5 0.5 0.5 0.5 3.5 0.5">
		</path>
		<text x="8" style="font-size:12px;color:#333333;fill:#333333;" y="20">
		</text>
	</g>
</svg>