
<svg version="1.1" style="font-family:&quot;lucida grande&quot;, &quot;lucida sans unicode&quot;, arial, helvetica, sans-serif;font-size:12px;" xmlns="http://www.w3.org/2000/svg" viewBox="0 0 584 400">
	<desc>Created with Highcharts 4.2.4
	</desc>
	<defs>
		<clipPath id="highcharts-1">
			<rect x="0" y="0" width="284" height="506">
			</rect>
		</clipPath>
	</defs>
	<rect x="0" y="0" width="584" height="400" fill="#FFFFFF" class=" highcharts-background" stroke="transparent">
	</rect>
	<g class="highcharts-grid">
	</g>
	<g class="highcharts-grid">
		<path fill="none" d="M 67.5 61 L 67.5 345" stroke="#D8D8D8" stroke-width="1" opacity="1">
		</path>
		<path fill="none" d="M 123.5 61 L 123.5 345" stroke="#D8D8D8" stroke-width="1" opacity="1">
		</path>
		<path fill="none" d="M 179.5 61 L 179.5 345" stroke="#D8D8D8" stroke-width="1" opacity="1">
		</path>
		<path fill="none" d="M 236.5 61 L 236.5 345" stroke="#D8D8D8" stroke-width="1" opacity="1">
		</path>
		<path fill="none" d="M 292.5 61 L 292.5 345" stroke="#D8D8D8" stroke-width="1" opacity="1">
		</path>
		<path fill="none" d="M 348.5 61 L 348.5 345" stroke="#D8D8D8" stroke-width="1" opacity="1">
		</path>
		<path fill="none" d="M 404.5 61 L 404.5 345" stroke="#D8D8D8" stroke-width="1" opacity="1">
		</path>
		<path fill="none" d="M 461.5 61 L 461.5 345" stroke="#D8D8D8" stroke-width="1" opacity="1">
		</path>
		<path fill="none" d="M 517.5 61 L 517.5 345" stroke="#D8D8D8" stroke-width="1" opacity="1">
		</path>
		<path fill="none" d="M 574.5 61 L 574.5 345" stroke="#D8D8D8" stroke-width="1" opacity="1">
		</path>
	</g>
	<g class="highcharts-axis">
		<path fill="none" d="M 68 118.5 L 58 118.5" stroke="#C0D0E0" stroke-width="1" opacity="1">
		</path>
		<path fill="none" d="M 68 175.5 L 58 175.5" stroke="#C0D0E0" stroke-width="1" opacity="1">
		</path>
		<path fill="none" d="M 68 231.5 L 58 231.5" stroke="#C0D0E0" stroke-width="1" opacity="1">
		</path>
		<path fill="none" d="M 68 288.5 L 58 288.5" stroke="#C0D0E0" stroke-width="1" opacity="1">
		</path>
		<path fill="none" d="M 68 345.5 L 58 345.5" stroke="#C0D0E0" stroke-width="1" opacity="1">
		</path>
		<path fill="none" d="M 68 60.5 L 58 60.5" stroke="#C0D0E0" stroke-width="1" opacity="1">
		</path>
		<path fill="none" d="M 67.5 61 L 67.5 345" stroke="#C0D0E0" stroke-width="1">
		</path>
	</g>
	<g class="highcharts-axis">
		<text x="574" text-anchor="end" transform="translate(0,0)" class=" highcharts-yaxis-title" style="color:#707070;fill:#707070;" y="382.9">
			<tspan>Population (millions)
			</tspan>
		</text>
	</g>
	<g class="highcharts-series-group">
		<g class="highcharts-series highcharts-series-0 highcharts-tracker" transform="translate(574,345) rotate(90) scale(-1,1) scale(1 1)" style="" width="506" height="284" clip-path="url(#highcharts-1)">
			<rect x="261.5" y="494.5" width="10" height="12" stroke="#FFFFFF" stroke-width="1" fill="#7cb5ec" rx="0" ry="0">
			</rect>
			<rect x="205.5" y="503.5" width="10" height="3" stroke="#FFFFFF" stroke-width="1" fill="#7cb5ec" rx="0" ry="0">
			</rect>
			<rect x="148.5" y="435.5" width="10" height="71" stroke="#FFFFFF" stroke-width="1" fill="#7cb5ec" rx="0" ry="0">
			</rect>
			<rect x="91.5" y="483.5" width="10" height="23" stroke="#FFFFFF" stroke-width="1" fill="#7cb5ec" rx="0" ry="0">
			</rect>
			<rect x="34.5" y="506.5" width="10" height="0" stroke="#FFFFFF" stroke-width="1" fill="#7cb5ec" rx="0" ry="0">
			</rect>
		</g>
		<g class="highcharts-markers highcharts-series-0" transform="translate(574,345) rotate(90) scale(-1,1) scale(1 1)" width="506" height="284" clip-path="none">
		</g>
		<g class="highcharts-series highcharts-series-1 highcharts-tracker" transform="translate(574,345) rotate(90) scale(-1,1) scale(1 1)" style="" width="506" height="284" clip-path="url(#highcharts-1)">
			<rect x="250.5" y="491.5" width="10" height="15" stroke="#FFFFFF" stroke-width="1" fill="#434348" rx="0" ry="0">
			</rect>
			<rect x="193.5" y="488.5" width="10" height="18" stroke="#FFFFFF" stroke-width="1" fill="#434348" rx="0" ry="0">
			</rect>
			<rect x="136.5" y="400.5" width="10" height="106" stroke="#FFFFFF" stroke-width="1" fill="#434348" rx="0" ry="0">
			</rect>
			<rect x="80.5" y="460.5" width="10" height="46" stroke="#FFFFFF" stroke-width="1" fill="#434348" rx="0" ry="0">
			</rect>
			<rect x="23.5" y="505.5" width="10" height="1" stroke="#FFFFFF" stroke-width="1" fill="#434348" rx="0" ry="0">
			</rect>
		</g>
		<g class="highcharts-markers highcharts-series-1" transform="translate(574,345) rotate(90) scale(-1,1) scale(1 1)" width="506" height="284" clip-path="none">
		</g>
		<g class="highcharts-series highcharts-series-2 highcharts-tracker" transform="translate(574,345) rotate(90) scale(-1,1) scale(1 1)" style="" width="506" height="284" clip-path="url(#highcharts-1)">
			<rect x="239.5" y="388.5" width="10" height="118" stroke="#FFFFFF" stroke-width="1" fill="#90ed7d" rx="0" ry="0">
			</rect>
			<rect x="182.5" y="399.5" width="10" height="107" stroke="#FFFFFF" stroke-width="1" fill="#90ed7d" rx="0" ry="0">
			</rect>
			<rect x="125.5" y="28.5" width="10" height="478" stroke="#FFFFFF" stroke-width="1" fill="#90ed7d" rx="0" ry="0">
			</rect>
			<rect x="68.5" y="423.5" width="10" height="83" stroke="#FFFFFF" stroke-width="1" fill="#90ed7d" rx="0" ry="0">
			</rect>
			<rect x="11.5" y="502.5" width="10" height="4" stroke="#FFFFFF" stroke-width="1" fill="#90ed7d" rx="0" ry="0">
			</rect>
		</g>
		<g class="highcharts-markers highcharts-series-2" transform="translate(574,345) rotate(90) scale(-1,1) scale(1 1)" width="506" height="284" clip-path="none">
		</g>
	</g>
	<text x="292" text-anchor="middle" class="highcharts-title" style="color:#333333;font-size:18px;fill:#333333;width:520px;" y="24">
		<tspan>Historic World Population by Region
		</tspan>
	</text>
	<text x="292" text-anchor="middle" class="highcharts-subtitle" style="color:#555555;fill:#555555;width:520px;" y="45">
		<tspan>Source: 
		</tspan>
		<tspan onclick="location.href=&quot;https://en.wikipedia.org/wiki/World_population&quot;" dx="0" style="cursor: pointer;">Wikipedia.org
		</tspan>
	</text>
	<g class="highcharts-data-labels highcharts-series-0 highcharts-tracker" visibility="visible" transform="translate(68,61) scale(1 1)" style="">
		<g style="" transform="translate(12,6)" opacity="0" visibility="hidden">
			<text x="5" style="font-size:11px;font-weight:bold;color:#000000;text-shadow:0 0 6px #ffffff, 0 0 3px #ffffff;fill:#000000;text-rendering:geometricprecision;" y="16">
				<tspan>107
				</tspan>
			</text>
		</g>
		<g style="" transform="translate(3,62)">
			<text x="5" style="font-size:11px;font-weight:bold;color:#000000;text-shadow:0 0 6px #ffffff, 0 0 3px #ffffff;fill:#000000;text-rendering:geometricprecision;" y="16">
				<tspan>31
				</tspan>
			</text>
		</g>
		<g style="" transform="translate(71,119)">
			<text x="5" style="font-size:11px;font-weight:bold;color:#000000;text-shadow:0 0 6px #ffffff, 0 0 3px #ffffff;fill:#000000;text-rendering:geometricprecision;" y="16">
				<tspan>635
				</tspan>
			</text>
		</g>
		<g style="" transform="translate(23,176)">
			<text x="5" style="font-size:11px;font-weight:bold;color:#000000;text-shadow:0 0 6px #ffffff, 0 0 3px #ffffff;fill:#000000;text-rendering:geometricprecision;" y="16">
				<tspan>203
				</tspan>
			</text>
		</g>
		<g style="" transform="translate(0,233)">
			<text x="5" style="font-size:11px;font-weight:bold;color:#000000;text-shadow:0 0 6px #ffffff, 0 0 3px #ffffff;fill:#000000;text-rendering:geometricprecision;" y="16">
				<tspan>2
				</tspan>
			</text>
		</g>
	</g>
	<g class="highcharts-data-labels highcharts-series-1 highcharts-tracker" visibility="visible" transform="translate(68,61) scale(1 1)" style="">
		<g style="" transform="translate(15,17)">
			<text x="5" style="font-size:11px;font-weight:bold;color:#000000;text-shadow:0 0 6px #ffffff, 0 0 3px #ffffff;fill:#000000;text-rendering:geometricprecision;" y="16">
				<tspan>133
				</tspan>
			</text>
		</g>
		<g style="" transform="translate(18,74)">
			<text x="5" style="font-size:11px;font-weight:bold;color:#000000;text-shadow:0 0 6px #ffffff, 0 0 3px #ffffff;fill:#000000;text-rendering:geometricprecision;" y="16">
				<tspan>156
				</tspan>
			</text>
		</g>
		<g style="" transform="translate(106,131)">
			<text x="5" style="font-size:11px;font-weight:bold;color:#000000;text-shadow:0 0 6px #ffffff, 0 0 3px #ffffff;fill:#000000;text-rendering:geometricprecision;" y="16">
				<tspan>947
				</tspan>
			</text>
		</g>
		<g style="" transform="translate(46,187)">
			<text x="5" style="font-size:11px;font-weight:bold;color:#000000;text-shadow:0 0 6px #ffffff, 0 0 3px #ffffff;fill:#000000;text-rendering:geometricprecision;" y="16">
				<tspan>408
				</tspan>
			</text>
		</g>
		<g style="" transform="translate(1,244)" opacity="0" visibility="hidden">
			<text x="5" style="font-size:11px;font-weight:bold;color:#000000;text-shadow:0 0 6px #ffffff, 0 0 3px #ffffff;fill:#000000;text-rendering:geometricprecision;" y="16">
				<tspan>6
				</tspan>
			</text>
		</g>
	</g>
	<g class="highcharts-data-labels highcharts-series-2 highcharts-tracker" visibility="visible" transform="translate(68,61) scale(1 1)" style="">
		<g style="" transform="translate(118,28)">
			<text x="5" style="font-size:11px;font-weight:bold;color:#000000;text-shadow:0 0 6px #ffffff, 0 0 3px #ffffff;fill:#000000;text-rendering:geometricprecision;" y="16">
				<tspan>1 052
				</tspan>
			</text>
		</g>
		<g style="" transform="translate(107,85)">
			<text x="5" style="font-size:11px;font-weight:bold;color:#000000;text-shadow:0 0 6px #ffffff, 0 0 3px #ffffff;fill:#000000;text-rendering:geometricprecision;" y="16">
				<tspan>954
				</tspan>
			</text>
		</g>
		<g style="" transform="translate(435,142)">
			<text x="5" style="font-size:11px;font-weight:bold;color:#000000;text-shadow:0 0 6px #ffffff, 0 0 3px #ffffff;fill:#000000;text-rendering:geometricprecision;" y="16">
				<tspan>4 250
				</tspan>
			</text>
		</g>
		<g style="" transform="translate(83,199)">
			<text x="5" style="font-size:11px;font-weight:bold;color:#000000;text-shadow:0 0 6px #ffffff, 0 0 3px #ffffff;fill:#000000;text-rendering:geometricprecision;" y="16">
				<tspan>740
				</tspan>
			</text>
		</g>
		<g style="" transform="translate(4,256)">
			<text x="5" style="font-size:11px;font-weight:bold;color:#000000;text-shadow:0 0 6px #ffffff, 0 0 3px #ffffff;fill:#000000;text-rendering:geometricprecision;" y="16">
				<tspan>38
				</tspan>
			</text>
		</g>
	</g>
	<g class="highcharts-legend" transform="translate(434,90)">
		<rect x="0.5" y="0.5" width="99" height="52" stroke="black" stroke-width="5" fill="none"  stroke-opacity="0.0" transform="translate(1, 1)" visibility="visible">
		</rect>
		<rect x="0.5" y="0.5" width="99" height="52" stroke="black" stroke-width="3" fill="none"  stroke-opacity="0.0" transform="translate(1, 1)" visibility="visible">
		</rect>
		<rect x="0.5" y="0.5" width="99" height="52" stroke="black" stroke-width="1" fill="none"  stroke-opacity="0.1" transform="translate(1, 1)" visibility="visible">
		</rect>
		<rect x="0.5" y="0.5" width="99" height="52" stroke="#909090" stroke-width="1" fill="#FFFFFF" visibility="visible">
		</rect>
		<g>
			<g>
				<g class="highcharts-legend-item" transform="translate(8,3)">
					<text x="21" style="color:#333333;font-size:12px;font-weight:bold;cursor:pointer;fill:#333333;" text-anchor="start" y="15">
						<tspan>Year 1800
						</tspan>
					</text>
					<rect x="0" y="4" width="16" height="12" fill="#7cb5ec">
					</rect>
				</g>
				<g class="highcharts-legend-item" transform="translate(8,17)">
					<text x="21" y="15" style="color:#333333;font-size:12px;font-weight:bold;cursor:pointer;fill:#333333;" text-anchor="start">
						<tspan>Year 1900
						</tspan>
					</text>
					<rect x="0" y="4" width="16" height="12" fill="#434348">
					</rect>
				</g>
				<g class="highcharts-legend-item" transform="translate(8,31)">
					<text x="21" y="15" style="color:#333333;font-size:12px;font-weight:bold;cursor:pointer;fill:#333333;" text-anchor="start">
						<tspan>Year 2012
						</tspan>
					</text>
					<rect x="0" y="4" width="16" height="12" fill="#90ed7d">
					</rect>
				</g>
			</g>
		</g>
	</g>
	<g class="highcharts-axis-labels highcharts-xaxis-labels">
		<text x="53" style="color:#606060;cursor:default;font-size:11px;fill:#606060;width:183px;text-overflow:clip;" text-anchor="end" transform="translate(0,0)" y="94" opacity="1">Africa
		</text>
		<text x="53" style="color:#606060;cursor:default;font-size:11px;fill:#606060;width:183px;text-overflow:clip;" text-anchor="end" transform="translate(0,0)" y="151" opacity="1">America
		</text>
		<text x="53" style="color:#606060;cursor:default;font-size:11px;fill:#606060;width:183px;text-overflow:clip;" text-anchor="end" transform="translate(0,0)" y="208" opacity="1">Asia
		</text>
		<text x="53" style="color:#606060;cursor:default;font-size:11px;fill:#606060;width:183px;text-overflow:clip;" text-anchor="end" transform="translate(0,0)" y="264" opacity="1">Europe
		</text>
		<text x="53" style="color:#606060;cursor:default;font-size:11px;fill:#606060;width:183px;text-overflow:clip;" text-anchor="end" transform="translate(0,0)" y="321" opacity="1">Oceania
		</text>
	</g>
	<g class="highcharts-axis-labels highcharts-yaxis-labels">
		<text x="68" style="color:#606060;cursor:default;font-size:11px;fill:#606060;" text-anchor="middle" transform="translate(0,0)" y="364" opacity="1">0
		</text>
		<text x="124.2" style="color:#606060;cursor:default;font-size:11px;fill:#606060;" text-anchor="middle" transform="translate(0,0)" y="364" opacity="1">500
		</text>
		<text x="180.4" style="color:#606060;cursor:default;font-size:11px;fill:#606060;" text-anchor="middle" transform="translate(0,0)" y="364" opacity="1">1000
		</text>
		<text x="236.6" style="color:#606060;cursor:default;font-size:11px;fill:#606060;" text-anchor="middle" transform="translate(0,0)" y="364" opacity="1">1500
		</text>
		<text x="292.8" style="color:#606060;cursor:default;font-size:11px;fill:#606060;" text-anchor="middle" transform="translate(0,0)" y="364" opacity="1">2000
		</text>
		<text x="349.1" style="color:#606060;cursor:default;font-size:11px;fill:#606060;" text-anchor="middle" transform="translate(0,0)" y="364" opacity="1">2500
		</text>
		<text x="405.3" style="color:#606060;cursor:default;font-size:11px;fill:#606060;" text-anchor="middle" transform="translate(0,0)" y="364" opacity="1">3000
		</text>
		<text x="461.5" style="color:#606060;cursor:default;font-size:11px;fill:#606060;" text-anchor="middle" transform="translate(0,0)" y="364" opacity="1">3500
		</text>
		<text x="517.7" style="color:#606060;cursor:default;font-size:11px;fill:#606060;" text-anchor="middle" transform="translate(0,0)" y="364" opacity="1">4000
		</text>
		<text x="560.0" style="color:#606060;cursor:default;font-size:11px;fill:#606060;" text-anchor="middle" transform="translate(0,0)" y="364" opacity="1">4500
		</text>
	</g>
	<g class="highcharts-tooltip" style="cursor:default;padding:0;pointer-events:none;white-space:nowrap;" transform="translate(0,-9999)">
		<path fill="none" d="M 3.5 0.5 L 13.5 0.5 C 16.5 0.5 16.5 0.5 16.5 3.5 L 16.5 13.5 C 16.5 16.5 16.5 16.5 13.5 16.5 L 3.5 16.5 C 0.5 16.5 0.5 16.5 0.5 13.5 L 0.5 3.5 C 0.5 0.5 0.5 0.5 3.5 0.5"  stroke="black" stroke-opacity="0.0" stroke-width="5" transform="translate(1, 1)">
		</path>
		<path fill="none" d="M 3.5 0.5 L 13.5 0.5 C 16.5 0.5 16.5 0.5 16.5 3.5 L 16.5 13.5 C 16.5 16.5 16.5 16.5 13.5 16.5 L 3.5 16.5 C 0.5 16.5 0.5 16.5 0.5 13.5 L 0.5 3.5 C 0.5 0.5 0.5 0.5 3.5 0.5"  stroke="black" stroke-opacity="0.0" stroke-width="3" transform="translate(1, 1)">
		</path>
		<path fill="none" d="M 3.5 0.5 L 13.5 0.5 C 16.5 0.5 16.5 0.5 16.5 3.5 L 16.5 13.5 C 16.5 16.5 16.5 16.5 13.5 16.5 L 3.5 16.5 C 0.5 16.5 0.5 16.5 0.5 13.5 L 0.5 3.5 C 0.5 0.5 0.5 0.5 3.5 0.5"  stroke="black" stroke-opacity="0.1" stroke-width="1" transform="translate(1, 1)">
		</path>
		<path fill="rgb(249, 249, 249)" fill-opacity=" .85" d="M 3.5 0.5 L 13.5 0.5 C 16.5 0.5 16.5 0.5 16.5 3.5 L 16.5 13.5 C 16.5 16.5 16.5 16.5 13.5 16.5 L 3.5 16.5 C 0.5 16.5 0.5 16.5 0.5 13.5 L 0.5 3.5 C 0.5 0.5 0.5 0.5 3.5 0.5">
		</path>
		<text x="8" style="font-size:12px;color:#333333;fill:#333333;" y="20">
		</text>
	</g>
</svg>