
<svg version="1.1" style="font-family:&quot;lucida grande&quot;, &quot;lucida sans unicode&quot;, arial, helvetica, sans-serif;font-size:12px;" xmlns="http://www.w3.org/2000/svg" viewBox="0 0 584 400">
	<desc>Created with Highcharts 4.2.4
	</desc>
	<defs>
		<clipPath id="highcharts-1">
			<rect x="0" y="0" width="266" height="466">
			</rect>
		</clipPath>
	</defs>
	<rect x="0" y="0" width="584" height="400" fill="#FFFFFF" class=" highcharts-background">
	</rect>
	<g class="highcharts-grid">
	</g>
	<g class="highcharts-grid">
	</g>
	<g class="highcharts-grid">
		<path fill="none" d="M 58.5 61 L 58.5 327" stroke="#D8D8D8" stroke-width="1" opacity="1">
		</path>
		<path fill="none" d="M 105.5 61 L 105.5 327" stroke="#D8D8D8" stroke-width="1" opacity="1">
		</path>
		<path fill="none" d="M 151.5 61 L 151.5 327" stroke="#D8D8D8" stroke-width="1" opacity="1">
		</path>
		<path fill="none" d="M 198.5 61 L 198.5 327" stroke="#D8D8D8" stroke-width="1" opacity="1">
		</path>
		<path fill="none" d="M 244.5 61 L 244.5 327" stroke="#D8D8D8" stroke-width="1" opacity="1">
		</path>
		<path fill="none" d="M 291.5 61 L 291.5 327" stroke="#D8D8D8" stroke-width="1" opacity="1">
		</path>
		<path fill="none" d="M 338.5 61 L 338.5 327" stroke="#D8D8D8" stroke-width="1" opacity="1">
		</path>
		<path fill="none" d="M 384.5 61 L 384.5 327" stroke="#D8D8D8" stroke-width="1" opacity="1">
		</path>
		<path fill="none" d="M 431.5 61 L 431.5 327" stroke="#D8D8D8" stroke-width="1" opacity="1">
		</path>
		<path fill="none" d="M 477.5 61 L 477.5 327" stroke="#D8D8D8" stroke-width="1" opacity="1">
		</path>
		<path fill="none" d="M 525.5 61 L 525.5 327" stroke="#D8D8D8" stroke-width="1" opacity="1">
		</path>
	</g>
	<g class="highcharts-axis">
		<path fill="none" d="M 59 314.5 L 49 314.5" stroke="#C0D0E0" stroke-width="1" opacity="1">
		</path>
		<path fill="none" d="M 59 302.5 L 49 302.5" stroke="#C0D0E0" stroke-width="1" opacity="1">
		</path>
		<path fill="none" d="M 59 289.5 L 49 289.5" stroke="#C0D0E0" stroke-width="1" opacity="1">
		</path>
		<path fill="none" d="M 59 276.5 L 49 276.5" stroke="#C0D0E0" stroke-width="1" opacity="1">
		</path>
		<path fill="none" d="M 59 264.5 L 49 264.5" stroke="#C0D0E0" stroke-width="1" opacity="1">
		</path>
		<path fill="none" d="M 59 251.5 L 49 251.5" stroke="#C0D0E0" stroke-width="1" opacity="1">
		</path>
		<path fill="none" d="M 59 238.5 L 49 238.5" stroke="#C0D0E0" stroke-width="1" opacity="1">
		</path>
		<path fill="none" d="M 59 226.5 L 49 226.5" stroke="#C0D0E0" stroke-width="1" opacity="1">
		</path>
		<path fill="none" d="M 59 213.5 L 49 213.5" stroke="#C0D0E0" stroke-width="1" opacity="1">
		</path>
		<path fill="none" d="M 59 200.5 L 49 200.5" stroke="#C0D0E0" stroke-width="1" opacity="1">
		</path>
		<path fill="none" d="M 59 188.5 L 49 188.5" stroke="#C0D0E0" stroke-width="1" opacity="1">
		</path>
		<path fill="none" d="M 59 175.5 L 49 175.5" stroke="#C0D0E0" stroke-width="1" opacity="1">
		</path>
		<path fill="none" d="M 59 162.5 L 49 162.5" stroke="#C0D0E0" stroke-width="1" opacity="1">
		</path>
		<path fill="none" d="M 59 150.5 L 49 150.5" stroke="#C0D0E0" stroke-width="1" opacity="1">
		</path>
		<path fill="none" d="M 59 137.5 L 49 137.5" stroke="#C0D0E0" stroke-width="1" opacity="1">
		</path>
		<path fill="none" d="M 59 124.5 L 49 124.5" stroke="#C0D0E0" stroke-width="1" opacity="1">
		</path>
		<path fill="none" d="M 59 112.5 L 49 112.5" stroke="#C0D0E0" stroke-width="1" opacity="1">
		</path>
		<path fill="none" d="M 59 99.5 L 49 99.5" stroke="#C0D0E0" stroke-width="1" opacity="1">
		</path>
		<path fill="none" d="M 59 86.5 L 49 86.5" stroke="#C0D0E0" stroke-width="1" opacity="1">
		</path>
		<path fill="none" d="M 59 74.5 L 49 74.5" stroke="#C0D0E0" stroke-width="1" opacity="1">
		</path>
		<path fill="none" d="M 59 61.5 L 49 61.5" stroke="#C0D0E0" stroke-width="1" opacity="1">
		</path>
		<path fill="none" d="M 59 327.5 L 49 327.5" stroke="#C0D0E0" stroke-width="1" opacity="1">
		</path>
		<path fill="none" d="M 58.5 61 L 58.5 327" stroke="#C0D0E0" stroke-width="1">
		</path>
	</g>
	<g class="highcharts-axis">
		<path fill="none" d="M 525 314.5 L 535 314.5" stroke="#C0D0E0" stroke-width="1" opacity="1">
		</path>
		<path fill="none" d="M 525 302.5 L 535 302.5" stroke="#C0D0E0" stroke-width="1" opacity="1">
		</path>
		<path fill="none" d="M 525 289.5 L 535 289.5" stroke="#C0D0E0" stroke-width="1" opacity="1">
		</path>
		<path fill="none" d="M 525 276.5 L 535 276.5" stroke="#C0D0E0" stroke-width="1" opacity="1">
		</path>
		<path fill="none" d="M 525 264.5 L 535 264.5" stroke="#C0D0E0" stroke-width="1" opacity="1">
		</path>
		<path fill="none" d="M 525 251.5 L 535 251.5" stroke="#C0D0E0" stroke-width="1" opacity="1">
		</path>
		<path fill="none" d="M 525 238.5 L 535 238.5" stroke="#C0D0E0" stroke-width="1" opacity="1">
		</path>
		<path fill="none" d="M 525 226.5 L 535 226.5" stroke="#C0D0E0" stroke-width="1" opacity="1">
		</path>
		<path fill="none" d="M 525 213.5 L 535 213.5" stroke="#C0D0E0" stroke-width="1" opacity="1">
		</path>
		<path fill="none" d="M 525 200.5 L 535 200.5" stroke="#C0D0E0" stroke-width="1" opacity="1">
		</path>
		<path fill="none" d="M 525 188.5 L 535 188.5" stroke="#C0D0E0" stroke-width="1" opacity="1">
		</path>
		<path fill="none" d="M 525 175.5 L 535 175.5" stroke="#C0D0E0" stroke-width="1" opacity="1">
		</path>
		<path fill="none" d="M 525 162.5 L 535 162.5" stroke="#C0D0E0" stroke-width="1" opacity="1">
		</path>
		<path fill="none" d="M 525 150.5 L 535 150.5" stroke="#C0D0E0" stroke-width="1" opacity="1">
		</path>
		<path fill="none" d="M 525 137.5 L 535 137.5" stroke="#C0D0E0" stroke-width="1" opacity="1">
		</path>
		<path fill="none" d="M 525 124.5 L 535 124.5" stroke="#C0D0E0" stroke-width="1" opacity="1">
		</path>
		<path fill="none" d="M 525 112.5 L 535 112.5" stroke="#C0D0E0" stroke-width="1" opacity="1">
		</path>
		<path fill="none" d="M 525 99.5 L 535 99.5" stroke="#C0D0E0" stroke-width="1" opacity="1">
		</path>
		<path fill="none" d="M 525 86.5 L 535 86.5" stroke="#C0D0E0" stroke-width="1" opacity="1">
		</path>
		<path fill="none" d="M 525 74.5 L 535 74.5" stroke="#C0D0E0" stroke-width="1" opacity="1">
		</path>
		<path fill="none" d="M 525 61.5 L 535 61.5" stroke="#C0D0E0" stroke-width="1" opacity="1">
		</path>
		<path fill="none" d="M 525 327.5 L 535 327.5" stroke="#C0D0E0" stroke-width="1" opacity="1">
		</path>
		<path fill="none" d="M 525.5 61 L 525.5 327" stroke="#C0D0E0" stroke-width="1">
		</path>
	</g>
	<g class="highcharts-axis">
	</g>
	<g class="highcharts-series-group">
		<g class="highcharts-series highcharts-series-0 highcharts-tracker" transform="translate(525,327) rotate(90) scale(-1,1) scale(1 1)" style="" width="466" height="266" clip-path="url(#highcharts-1)">
			<rect x="2.5" y="233.5" width="7" height="103" stroke="#FFFFFF" stroke-width="1" fill="#7cb5ec" rx="0" ry="0">
			</rect>
			<rect x="15.5" y="233.5" width="7" height="103" stroke="#FFFFFF" stroke-width="1" fill="#7cb5ec" rx="0" ry="0">
			</rect>
			<rect x="28.5" y="233.5" width="7" height="107" stroke="#FFFFFF" stroke-width="1" fill="#7cb5ec" rx="0" ry="0">
			</rect>
			<rect x="40.5" y="233.5" width="7" height="117" stroke="#FFFFFF" stroke-width="1" fill="#7cb5ec" rx="0" ry="0">
			</rect>
			<rect x="53.5" y="233.5" width="7" height="126" stroke="#FFFFFF" stroke-width="1" fill="#7cb5ec" rx="0" ry="0">
			</rect>
			<rect x="66.5" y="233.5" width="7" height="144" stroke="#FFFFFF" stroke-width="1" fill="#7cb5ec" rx="0" ry="0">
			</rect>
			<rect x="78.5" y="233.5" width="7" height="149" stroke="#FFFFFF" stroke-width="1" fill="#7cb5ec" rx="0" ry="0">
			</rect>
			<rect x="91.5" y="233.5" width="7" height="140" stroke="#FFFFFF" stroke-width="1" fill="#7cb5ec" rx="0" ry="0">
			</rect>
			<rect x="104.5" y="233.5" width="7" height="149" stroke="#FFFFFF" stroke-width="1" fill="#7cb5ec" rx="0" ry="0">
			</rect>
			<rect x="116.5" y="233.5" width="7" height="200" stroke="#FFFFFF" stroke-width="1" fill="#7cb5ec" rx="0" ry="0">
			</rect>
			<rect x="129.5" y="233.5" width="7" height="205" stroke="#FFFFFF" stroke-width="1" fill="#7cb5ec" rx="0" ry="0">
			</rect>
			<rect x="142.5" y="233.5" width="7" height="168" stroke="#FFFFFF" stroke-width="1" fill="#7cb5ec" rx="0" ry="0">
			</rect>
			<rect x="154.5" y="233.5" width="7" height="144" stroke="#FFFFFF" stroke-width="1" fill="#7cb5ec" rx="0" ry="0">
			</rect>
			<rect x="167.5" y="233.5" width="7" height="112" stroke="#FFFFFF" stroke-width="1" fill="#7cb5ec" rx="0" ry="0">
			</rect>
			<rect x="180.5" y="233.5" width="7" height="117" stroke="#FFFFFF" stroke-width="1" fill="#7cb5ec" rx="0" ry="0">
			</rect>
			<rect x="192.5" y="233.5" width="7" height="107" stroke="#FFFFFF" stroke-width="1" fill="#7cb5ec" rx="0" ry="0">
			</rect>
			<rect x="205.5" y="233.5" width="7" height="56" stroke="#FFFFFF" stroke-width="1" fill="#7cb5ec" rx="0" ry="0">
			</rect>
			<rect x="218.5" y="233.5" width="7" height="28" stroke="#FFFFFF" stroke-width="1" fill="#7cb5ec" rx="0" ry="0">
			</rect>
			<rect x="230.5" y="233.5" width="7" height="9" stroke="#FFFFFF" stroke-width="1" fill="#7cb5ec" rx="0" ry="0">
			</rect>
			<rect x="243.5" y="228.5" width="7" height="0" stroke="#FFFFFF" stroke-width="1" fill="#7cb5ec" rx="0" ry="0">
			</rect>
			<rect x="256.5" y="233.5" width="7" height="0" stroke="#FFFFFF" stroke-width="1" fill="#7cb5ec" rx="0" ry="0">
			</rect>
		</g>
		<g class="highcharts-markers highcharts-series-0" transform="translate(525,327) rotate(90) scale(-1,1) scale(1 1)" width="466" height="266" clip-path="none">
		</g>
		<g class="highcharts-series highcharts-series-1 highcharts-tracker" transform="translate(525,327) rotate(90) scale(-1,1) scale(1 1)" style="" width="466" height="266" clip-path="url(#highcharts-1)">
			<rect x="2.5" y="135.5" width="7" height="98" stroke="#FFFFFF" stroke-width="1" fill="#434348" rx="0" ry="0">
			</rect>
			<rect x="15.5" y="140.5" width="7" height="93" stroke="#FFFFFF" stroke-width="1" fill="#434348" rx="0" ry="0">
			</rect>
			<rect x="28.5" y="130.5" width="7" height="103" stroke="#FFFFFF" stroke-width="1" fill="#434348" rx="0" ry="0">
			</rect>
			<rect x="40.5" y="121.5" width="7" height="112" stroke="#FFFFFF" stroke-width="1" fill="#434348" rx="0" ry="0">
			</rect>
			<rect x="53.5" y="112.5" width="7" height="121" stroke="#FFFFFF" stroke-width="1" fill="#434348" rx="0" ry="0">
			</rect>
			<rect x="66.5" y="93.5" width="7" height="140" stroke="#FFFFFF" stroke-width="1" fill="#434348" rx="0" ry="0">
			</rect>
			<rect x="78.5" y="89.5" width="7" height="144" stroke="#FFFFFF" stroke-width="1" fill="#434348" rx="0" ry="0">
			</rect>
			<rect x="91.5" y="98.5" width="7" height="135" stroke="#FFFFFF" stroke-width="1" fill="#434348" rx="0" ry="0">
			</rect>
			<rect x="104.5" y="89.5" width="7" height="144" stroke="#FFFFFF" stroke-width="1" fill="#434348" rx="0" ry="0">
			</rect>
			<rect x="116.5" y="42.5" width="7" height="191" stroke="#FFFFFF" stroke-width="1" fill="#434348" rx="0" ry="0">
			</rect>
			<rect x="129.5" y="33.5" width="7" height="200" stroke="#FFFFFF" stroke-width="1" fill="#434348" rx="0" ry="0">
			</rect>
			<rect x="142.5" y="65.5" width="7" height="168" stroke="#FFFFFF" stroke-width="1" fill="#434348" rx="0" ry="0">
			</rect>
			<rect x="154.5" y="75.5" width="7" height="158" stroke="#FFFFFF" stroke-width="1" fill="#434348" rx="0" ry="0">
			</rect>
			<rect x="167.5" y="112.5" width="7" height="121" stroke="#FFFFFF" stroke-width="1" fill="#434348" rx="0" ry="0">
			</rect>
			<rect x="180.5" y="98.5" width="7" height="135" stroke="#FFFFFF" stroke-width="1" fill="#434348" rx="0" ry="0">
			</rect>
			<rect x="192.5" y="98.5" width="7" height="135" stroke="#FFFFFF" stroke-width="1" fill="#434348" rx="0" ry="0">
			</rect>
			<rect x="205.5" y="149.5" width="7" height="84" stroke="#FFFFFF" stroke-width="1" fill="#434348" rx="0" ry="0">
			</rect>
			<rect x="218.5" y="177.5" width="7" height="56" stroke="#FFFFFF" stroke-width="1" fill="#434348" rx="0" ry="0">
			</rect>
			<rect x="230.5" y="205.5" width="7" height="28" stroke="#FFFFFF" stroke-width="1" fill="#434348" rx="0" ry="0">
			</rect>
			<rect x="243.5" y="228.5" width="7" height="5" stroke="#FFFFFF" stroke-width="1" fill="#434348" rx="0" ry="0">
			</rect>
			<rect x="256.5" y="233.5" width="7" height="0" stroke="#FFFFFF" stroke-width="1" fill="#434348" rx="0" ry="0">
			</rect>
		</g>
		<g class="highcharts-markers highcharts-series-1" transform="translate(525,327) rotate(90) scale(-1,1) scale(1 1)" width="466" height="266" clip-path="none">
		</g>
	</g>
	<text x="292" text-anchor="middle" class="highcharts-title" style="color:#333333;font-size:18px;fill:#333333;width:520px;" y="24">
		<tspan>Population pyramid for Germany, 2015
		</tspan>
	</text>
	<text x="292" text-anchor="middle" class="highcharts-subtitle" style="color:#555555;fill:#555555;width:520px;" y="45">
		<tspan>Source: 
		</tspan>
		<tspan onclick="location.href=&quot;http://populationpyramid.net/germany/2015/&quot;" dx="0" style="cursor: pointer;">Population Pyramids of the World from 1950 to 2100
		</tspan>
	</text>
	<g class="highcharts-legend" transform="translate(217,360)">
		<g>
			<g>
				<g class="highcharts-legend-item" transform="translate(8,3)">
					<text x="21" style="color:#333333;font-size:12px;font-weight:bold;cursor:pointer;fill:#333333;" text-anchor="start" y="15">Male
					</text>
					<rect x="0" y="4" width="16" height="12" fill="#7cb5ec">
					</rect>
				</g>
				<g class="highcharts-legend-item" transform="translate(77.8,3)">
					<text x="21" y="15" style="color:#333333;font-size:12px;font-weight:bold;cursor:pointer;fill:#333333;" text-anchor="start">Female
					</text>
					<rect x="0" y="4" width="16" height="12" fill="#434348">
					</rect>
				</g>
			</g>
		</g>
	</g>
	<g class="highcharts-axis-labels highcharts-xaxis-labels">
		<text x="44" style="color:#606060;cursor:default;font-size:11px;fill:#606060;width:183px;text-overflow:ellipsis;" text-anchor="end" transform="translate(0,0)" y="325" opacity="1">
			<tspan>0-4
			</tspan>
		</text>
		<text x="44" style="color:#606060;cursor:default;font-size:11px;fill:#606060;width:183px;text-overflow:ellipsis;" text-anchor="end" transform="translate(0,0)" y="313" opacity="1">
			<tspan>5-9
			</tspan>
		</text>
		<text x="44" style="color:#606060;cursor:default;font-size:11px;fill:#606060;width:183px;text-overflow:ellipsis;" text-anchor="end" transform="translate(0,0)" y="300" opacity="1">
			<tspan>10-14
			</tspan>
		</text>
		<text x="44" style="color:#606060;cursor:default;font-size:11px;fill:#606060;width:183px;text-overflow:ellipsis;" text-anchor="end" transform="translate(0,0)" y="287" opacity="1">
			<tspan>15-19
			</tspan>
		</text>
		<text x="44" style="color:#606060;cursor:default;font-size:11px;fill:#606060;width:183px;text-overflow:ellipsis;" text-anchor="end" transform="translate(0,0)" y="275" opacity="1">
			<tspan>20-24
			</tspan>
		</text>
		<text x="44" style="color:#606060;cursor:default;font-size:11px;fill:#606060;width:183px;text-overflow:ellipsis;" text-anchor="end" transform="translate(0,0)" y="262" opacity="1">
			<tspan>25-29
			</tspan>
		</text>
		<text x="44" style="color:#606060;cursor:default;font-size:11px;fill:#606060;width:183px;text-overflow:ellipsis;" text-anchor="end" transform="translate(0,0)" y="249" opacity="1">
			<tspan>30-34
			</tspan>
		</text>
		<text x="44" style="color:#606060;cursor:default;font-size:11px;fill:#606060;width:183px;text-overflow:ellipsis;" text-anchor="end" transform="translate(0,0)" y="237" opacity="1">
			<tspan>35-39
			</tspan>
		</text>
		<text x="44" style="color:#606060;cursor:default;font-size:11px;fill:#606060;width:183px;text-overflow:ellipsis;" text-anchor="end" transform="translate(0,0)" y="224" opacity="1">
			<tspan>40-44
			</tspan>
		</text>
		<text x="44" style="color:#606060;cursor:default;font-size:11px;fill:#606060;width:183px;text-overflow:ellipsis;" text-anchor="end" transform="translate(0,0)" y="211" opacity="1">
			<tspan>45-49
			</tspan>
		</text>
		<text x="44" style="color:#606060;cursor:default;font-size:11px;fill:#606060;width:183px;text-overflow:ellipsis;" text-anchor="end" transform="translate(0,0)" y="199" opacity="1">
			<tspan>50-54
			</tspan>
		</text>
		<text x="44" style="color:#606060;cursor:default;font-size:11px;fill:#606060;width:183px;text-overflow:ellipsis;" text-anchor="end" transform="translate(0,0)" y="186" opacity="1">
			<tspan>55-59
			</tspan>
		</text>
		<text x="44" style="color:#606060;cursor:default;font-size:11px;fill:#606060;width:183px;text-overflow:ellipsis;" text-anchor="end" transform="translate(0,0)" y="173" opacity="1">
			<tspan>60-64
			</tspan>
		</text>
		<text x="44" style="color:#606060;cursor:default;font-size:11px;fill:#606060;width:183px;text-overflow:ellipsis;" text-anchor="end" transform="translate(0,0)" y="161" opacity="1">
			<tspan>65-69
			</tspan>
		</text>
		<text x="44" style="color:#606060;cursor:default;font-size:11px;fill:#606060;width:183px;text-overflow:ellipsis;" text-anchor="end" transform="translate(0,0)" y="148" opacity="1">
			<tspan>70-74
			</tspan>
		</text>
		<text x="44" style="color:#606060;cursor:default;font-size:11px;fill:#606060;width:183px;text-overflow:ellipsis;" text-anchor="end" transform="translate(0,0)" y="135" opacity="1">
			<tspan>75-79
			</tspan>
		</text>
		<text x="44" style="color:#606060;cursor:default;font-size:11px;fill:#606060;width:183px;text-overflow:ellipsis;" text-anchor="end" transform="translate(0,0)" y="123" opacity="1">
			<tspan>80-84
			</tspan>
		</text>
		<text x="44" style="color:#606060;cursor:default;font-size:11px;fill:#606060;width:183px;text-overflow:ellipsis;" text-anchor="end" transform="translate(0,0)" y="110" opacity="1">
			<tspan>85-89
			</tspan>
		</text>
		<text x="44" style="color:#606060;cursor:default;font-size:11px;fill:#606060;width:183px;text-overflow:ellipsis;" text-anchor="end" transform="translate(0,0)" y="97" opacity="1">
			<tspan>90-94
			</tspan>
		</text>
		<text x="44" style="color:#606060;cursor:default;font-size:11px;fill:#606060;width:183px;text-overflow:ellipsis;" text-anchor="end" transform="translate(0,0)" y="85" opacity="1">
			<tspan>95-99
			</tspan>
		</text>
		<text x="44" style="color:#606060;cursor:default;font-size:11px;fill:#606060;width:183px;text-overflow:ellipsis;" text-anchor="end" transform="translate(0,0)" y="72" opacity="1">
			<tspan>100 + 
			</tspan>
		</text>
	</g>
	<g class="highcharts-axis-labels highcharts-xaxis-labels">
		<text x="540" style="color:#606060;cursor:default;font-size:11px;fill:#606060;width:183px;text-overflow:ellipsis;" text-anchor="start" transform="translate(0,0)" y="325" opacity="1">
			<tspan>0-4
			</tspan>
		</text>
		<text x="540" style="color:#606060;cursor:default;font-size:11px;fill:#606060;width:183px;text-overflow:ellipsis;" text-anchor="start" transform="translate(0,0)" y="313" opacity="1">
			<tspan>5-9
			</tspan>
		</text>
		<text x="540" style="color:#606060;cursor:default;font-size:11px;fill:#606060;width:183px;text-overflow:ellipsis;" text-anchor="start" transform="translate(0,0)" y="300" opacity="1">
			<tspan>10-14
			</tspan>
		</text>
		<text x="540" style="color:#606060;cursor:default;font-size:11px;fill:#606060;width:183px;text-overflow:ellipsis;" text-anchor="start" transform="translate(0,0)" y="287" opacity="1">
			<tspan>15-19
			</tspan>
		</text>
		<text x="540" style="color:#606060;cursor:default;font-size:11px;fill:#606060;width:183px;text-overflow:ellipsis;" text-anchor="start" transform="translate(0,0)" y="275" opacity="1">
			<tspan>20-24
			</tspan>
		</text>
		<text x="540" style="color:#606060;cursor:default;font-size:11px;fill:#606060;width:183px;text-overflow:ellipsis;" text-anchor="start" transform="translate(0,0)" y="262" opacity="1">
			<tspan>25-29
			</tspan>
		</text>
		<text x="540" style="color:#606060;cursor:default;font-size:11px;fill:#606060;width:183px;text-overflow:ellipsis;" text-anchor="start" transform="translate(0,0)" y="249" opacity="1">
			<tspan>30-34
			</tspan>
		</text>
		<text x="540" style="color:#606060;cursor:default;font-size:11px;fill:#606060;width:183px;text-overflow:ellipsis;" text-anchor="start" transform="translate(0,0)" y="237" opacity="1">
			<tspan>35-39
			</tspan>
		</text>
		<text x="540" style="color:#606060;cursor:default;font-size:11px;fill:#606060;width:183px;text-overflow:ellipsis;" text-anchor="start" transform="translate(0,0)" y="224" opacity="1">
			<tspan>40-44
			</tspan>
		</text>
		<text x="540" style="color:#606060;cursor:default;font-size:11px;fill:#606060;width:183px;text-overflow:ellipsis;" text-anchor="start" transform="translate(0,0)" y="211" opacity="1">
			<tspan>45-49
			</tspan>
		</text>
		<text x="540" style="color:#606060;cursor:default;font-size:11px;fill:#606060;width:183px;text-overflow:ellipsis;" text-anchor="start" transform="translate(0,0)" y="199" opacity="1">
			<tspan>50-54
			</tspan>
		</text>
		<text x="540" style="color:#606060;cursor:default;font-size:11px;fill:#606060;width:183px;text-overflow:ellipsis;" text-anchor="start" transform="translate(0,0)" y="186" opacity="1">
			<tspan>55-59
			</tspan>
		</text>
		<text x="540" style="color:#606060;cursor:default;font-size:11px;fill:#606060;width:183px;text-overflow:ellipsis;" text-anchor="start" transform="translate(0,0)" y="173" opacity="1">
			<tspan>60-64
			</tspan>
		</text>
		<text x="540" style="color:#606060;cursor:default;font-size:11px;fill:#606060;width:183px;text-overflow:ellipsis;" text-anchor="start" transform="translate(0,0)" y="161" opacity="1">
			<tspan>65-69
			</tspan>
		</text>
		<text x="540" style="color:#606060;cursor:default;font-size:11px;fill:#606060;width:183px;text-overflow:ellipsis;" text-anchor="start" transform="translate(0,0)" y="148" opacity="1">
			<tspan>70-74
			</tspan>
		</text>
		<text x="540" style="color:#606060;cursor:default;font-size:11px;fill:#606060;width:183px;text-overflow:ellipsis;" text-anchor="start" transform="translate(0,0)" y="135" opacity="1">
			<tspan>75-79
			</tspan>
		</text>
		<text x="540" style="color:#606060;cursor:default;font-size:11px;fill:#606060;width:183px;text-overflow:ellipsis;" text-anchor="start" transform="translate(0,0)" y="123" opacity="1">
			<tspan>80-84
			</tspan>
		</text>
		<text x="540" style="color:#606060;cursor:default;font-size:11px;fill:#606060;width:183px;text-overflow:ellipsis;" text-anchor="start" transform="translate(0,0)" y="110" opacity="1">
			<tspan>85-89
			</tspan>
		</text>
		<text x="540" style="color:#606060;cursor:default;font-size:11px;fill:#606060;width:183px;text-overflow:ellipsis;" text-anchor="start" transform="translate(0,0)" y="97" opacity="1">
			<tspan>90-94
			</tspan>
		</text>
		<text x="540" style="color:#606060;cursor:default;font-size:11px;fill:#606060;width:183px;text-overflow:ellipsis;" text-anchor="start" transform="translate(0,0)" y="85" opacity="1">
			<tspan>95-99
			</tspan>
		</text>
		<text x="540" style="color:#606060;cursor:default;font-size:11px;fill:#606060;width:183px;text-overflow:ellipsis;" text-anchor="start" transform="translate(0,0)" y="72" opacity="1">
			<tspan>100 + 
			</tspan>
		</text>
	</g>
	<g class="highcharts-axis-labels highcharts-yaxis-labels">
		<text x="59" style="color:#606060;cursor:default;font-size:11px;fill:#606060;" text-anchor="middle" transform="translate(0,0)" y="346" opacity="1">5%
		</text>
		<text x="105.6" style="color:#606060;cursor:default;font-size:11px;fill:#606060;" text-anchor="middle" transform="translate(0,0)" y="346" opacity="1">4%
		</text>
		<text x="152.2" style="color:#606060;cursor:default;font-size:11px;fill:#606060;" text-anchor="middle" transform="translate(0,0)" y="346" opacity="1">3%
		</text>
		<text x="198.8" style="color:#606060;cursor:default;font-size:11px;fill:#606060;" text-anchor="middle" transform="translate(0,0)" y="346" opacity="1">2%
		</text>
		<text x="245.4" style="color:#606060;cursor:default;font-size:11px;fill:#606060;" text-anchor="middle" transform="translate(0,0)" y="346" opacity="1">1%
		</text>
		<text x="292" style="color:#606060;cursor:default;font-size:11px;fill:#606060;" text-anchor="middle" transform="translate(0,0)" y="346" opacity="1">0%
		</text>
		<text x="338.6" style="color:#606060;cursor:default;font-size:11px;fill:#606060;" text-anchor="middle" transform="translate(0,0)" y="346" opacity="1">1%
		</text>
		<text x="385.2" style="color:#606060;cursor:default;font-size:11px;fill:#606060;" text-anchor="middle" transform="translate(0,0)" y="346" opacity="1">2%
		</text>
		<text x="431.8" style="color:#606060;cursor:default;font-size:11px;fill:#606060;" text-anchor="middle" transform="translate(0,0)" y="346" opacity="1">3%
		</text>
		<text x="478.4" style="color:#606060;cursor:default;font-size:11px;fill:#606060;" text-anchor="middle" transform="translate(0,0)" y="346" opacity="1">4%
		</text>
		<text x="525" style="color:#606060;cursor:default;font-size:11px;fill:#606060;" text-anchor="middle" transform="translate(0,0)" y="346" opacity="1">5%
		</text>
	</g>
	<g class="highcharts-tooltip" style="cursor:default;padding:0;pointer-events:none;white-space:nowrap;" transform="translate(0,-9999)">
		<path fill="none" d="M 3.5 0.5 L 13.5 0.5 C 16.5 0.5 16.5 0.5 16.5 3.5 L 16.5 13.5 C 16.5 16.5 16.5 16.5 13.5 16.5 L 3.5 16.5 C 0.5 16.5 0.5 16.5 0.5 13.5 L 0.5 3.5 C 0.5 0.5 0.5 0.5 3.5 0.5"  stroke="black" stroke-opacity="0.0" stroke-width="5" transform="translate(1, 1)">
		</path>
		<path fill="none" d="M 3.5 0.5 L 13.5 0.5 C 16.5 0.5 16.5 0.5 16.5 3.5 L 16.5 13.5 C 16.5 16.5 16.5 16.5 13.5 16.5 L 3.5 16.5 C 0.5 16.5 0.5 16.5 0.5 13.5 L 0.5 3.5 C 0.5 0.5 0.5 0.5 3.5 0.5"  stroke="black" stroke-opacity="0.0" stroke-width="3" transform="translate(1, 1)">
		</path>
		<path fill="none" d="M 3.5 0.5 L 13.5 0.5 C 16.5 0.5 16.5 0.5 16.5 3.5 L 16.5 13.5 C 16.5 16.5 16.5 16.5 13.5 16.5 L 3.5 16.5 C 0.5 16.5 0.5 16.5 0.5 13.5 L 0.5 3.5 C 0.5 0.5 0.5 0.5 3.5 0.5"  stroke="black" stroke-opacity="0.1" stroke-width="1" transform="translate(1, 1)">
		</path>
		<path fill="rgb(249, 249, 249)" fill-opacity=" .85" d="M 3.5 0.5 L 13.5 0.5 C 16.5 0.5 16.5 0.5 16.5 3.5 L 16.5 13.5 C 16.5 16.5 16.5 16.5 13.5 16.5 L 3.5 16.5 C 0.5 16.5 0.5 16.5 0.5 13.5 L 0.5 3.5 C 0.5 0.5 0.5 0.5 3.5 0.5">
		</path>
		<text x="8" style="font-size:12px;color:#333333;fill:#333333;" y="20">
		</text>
	</g>
</svg>