
<svg version="1.1" style="font-family:&quot;lucida grande&quot;, &quot;lucida sans unicode&quot;, arial, helvetica, sans-serif;font-size:12px;" xmlns="http://www.w3.org/2000/svg" viewBox="0 0 584 400">
	<desc>Created with Highcharts 4.2.4
	</desc>
	<defs>
		<clipPath id="highcharts-1">
			<rect x="0" y="0" width="501" height="318">
			</rect>
		</clipPath>
	</defs>
	<rect x="0" y="0" width="584" height="400" fill="#FFFFFF" class=" highcharts-background" stroke="transparent">
	</rect>
	<g class="highcharts-grid">
	</g>
	<g class="highcharts-grid">
		<path fill="none" d="M 73 364.5 L 574 364.5" stroke="#D8D8D8" stroke-width="1" opacity="1">
		</path>
		<path fill="none" d="M 73 300.5 L 574 300.5" stroke="#D8D8D8" stroke-width="1" opacity="1">
		</path>
		<path fill="none" d="M 73 237.5 L 574 237.5" stroke="#D8D8D8" stroke-width="1" opacity="1">
		</path>
		<path fill="none" d="M 73 173.5 L 574 173.5" stroke="#D8D8D8" stroke-width="1" opacity="1">
		</path>
		<path fill="none" d="M 73 110.5 L 574 110.5" stroke="#D8D8D8" stroke-width="1" opacity="1">
		</path>
		<path fill="none" d="M 73 45.5 L 574 45.5" stroke="#D8D8D8" stroke-width="1" opacity="1">
		</path>
	</g>
	<g class="highcharts-axis">
		<path fill="none" d="M 172.5 364 L 172.5 374" stroke="#C0D0E0" stroke-width="1" opacity="1">
		</path>
		<path fill="none" d="M 272.5 364 L 272.5 374" stroke="#C0D0E0" stroke-width="1" opacity="1">
		</path>
		<path fill="none" d="M 373.5 364 L 373.5 374" stroke="#C0D0E0" stroke-width="1" opacity="1">
		</path>
		<path fill="none" d="M 473.5 364 L 473.5 374" stroke="#C0D0E0" stroke-width="1" opacity="1">
		</path>
		<path fill="none" d="M 574.5 364 L 574.5 374" stroke="#C0D0E0" stroke-width="1" opacity="1">
		</path>
		<path fill="none" d="M 72.5 364 L 72.5 374" stroke="#C0D0E0" stroke-width="1" opacity="1">
		</path>
		<path fill="none" d="M 73 364.5 L 574 364.5" stroke="#C0D0E0" stroke-width="1">
		</path>
	</g>
	<g class="highcharts-axis">
		<text x="23.6" text-anchor="middle" transform="translate(0,0) rotate(270 23.6 205)" class=" highcharts-yaxis-title" style="color:#707070;fill:#707070;" y="205">
			<tspan>Total fruit consumption
			</tspan>
		</text>
	</g>
	<g class="highcharts-series-group">
		<g class="highcharts-series highcharts-series-0 highcharts-tracker" transform="translate(73,46) scale(1 1)" style="" clip-path="url(#highcharts-1)">
			<rect x="25.5" y="64.5" width="49" height="127" stroke="#FFFFFF" stroke-width="1" fill="#7cb5ec" rx="0" ry="0">
			</rect>
			<rect x="125.5" y="89.5" width="49" height="76" stroke="#FFFFFF" stroke-width="1" fill="#7cb5ec" rx="0" ry="0">
			</rect>
			<rect x="225.5" y="38.5" width="49" height="102" stroke="#FFFFFF" stroke-width="1" fill="#7cb5ec" rx="0" ry="0">
			</rect>
			<rect x="326.5" y="38.5" width="49" height="178" stroke="#FFFFFF" stroke-width="1" fill="#7cb5ec" rx="0" ry="0">
			</rect>
			<rect x="426.5" y="114.5" width="49" height="51" stroke="#FFFFFF" stroke-width="1" fill="#7cb5ec" rx="0" ry="0">
			</rect>
		</g>
		<g class="highcharts-markers highcharts-series-0" transform="translate(73,46) scale(1 1)" clip-path="none">
		</g>
		<g class="highcharts-series highcharts-series-1 highcharts-tracker" transform="translate(73,46) scale(1 1)" style="" clip-path="url(#highcharts-1)">
			<rect x="25.5" y="191.5" width="49" height="51" stroke="#FFFFFF" stroke-width="1" fill="#434348" rx="0" ry="0">
			</rect>
			<rect x="125.5" y="165.5" width="49" height="51" stroke="#FFFFFF" stroke-width="1" fill="#434348" rx="0" ry="0">
			</rect>
			<rect x="225.5" y="140.5" width="49" height="76" stroke="#FFFFFF" stroke-width="1" fill="#434348" rx="0" ry="0">
			</rect>
			<rect x="326.5" y="216.5" width="49" height="51" stroke="#FFFFFF" stroke-width="1" fill="#434348" rx="0" ry="0">
			</rect>
			<rect x="426.5" y="165.5" width="49" height="26" stroke="#FFFFFF" stroke-width="1" fill="#434348" rx="0" ry="0">
			</rect>
		</g>
		<g class="highcharts-markers highcharts-series-1" transform="translate(73,46) scale(1 1)" clip-path="none">
		</g>
		<g class="highcharts-series highcharts-series-2 highcharts-tracker" transform="translate(73,46) scale(1 1)" style="" clip-path="url(#highcharts-1)">
			<rect x="25.5" y="242.5" width="49" height="76" stroke="#FFFFFF" stroke-width="1" fill="#90ed7d" rx="0" ry="0">
			</rect>
			<rect x="125.5" y="216.5" width="49" height="102" stroke="#FFFFFF" stroke-width="1" fill="#90ed7d" rx="0" ry="0">
			</rect>
			<rect x="225.5" y="216.5" width="49" height="102" stroke="#FFFFFF" stroke-width="1" fill="#90ed7d" rx="0" ry="0">
			</rect>
			<rect x="326.5" y="267.5" width="49" height="51" stroke="#FFFFFF" stroke-width="1" fill="#90ed7d" rx="0" ry="0">
			</rect>
			<rect x="426.5" y="191.5" width="49" height="127" stroke="#FFFFFF" stroke-width="1" fill="#90ed7d" rx="0" ry="0">
			</rect>
		</g>
		<g class="highcharts-markers highcharts-series-2" transform="translate(73,46) scale(1 1)" clip-path="none">
		</g>
	</g>
	<text x="292" text-anchor="middle" class="highcharts-title" style="color:#333333;font-size:18px;fill:#333333;width:520px;" y="24">
		<tspan>Stacked column chart
		</tspan>
	</text>
	<g class="highcharts-stack-labels" visibility="visible" transform="translate(73,46)">
		<text x="50" style="color:gray;font-size:11px;font-weight:bold;text-shadow:0 0 6px #ffffff, 0 0 3px #ffffff;fill:gray;text-rendering:geometricprecision;" text-anchor="middle" transform="translate(0,0)" y="58">
			<tspan>10
			</tspan>
		</text>
		<text x="150" style="color:gray;font-size:11px;font-weight:bold;text-shadow:0 0 6px #ffffff, 0 0 3px #ffffff;fill:gray;text-rendering:geometricprecision;" text-anchor="middle" transform="translate(0,0)" y="83">
			<tspan>9
			</tspan>
		</text>
		<text x="251" style="color:gray;font-size:11px;font-weight:bold;text-shadow:0 0 6px #ffffff, 0 0 3px #ffffff;fill:gray;text-rendering:geometricprecision;" text-anchor="middle" transform="translate(0,0)" y="32">
			<tspan>11
			</tspan>
		</text>
		<text x="351" style="color:gray;font-size:11px;font-weight:bold;text-shadow:0 0 6px #ffffff, 0 0 3px #ffffff;fill:gray;text-rendering:geometricprecision;" text-anchor="middle" transform="translate(0,0)" y="32">
			<tspan>11
			</tspan>
		</text>
		<text x="451" style="color:gray;font-size:11px;font-weight:bold;text-shadow:0 0 6px #ffffff, 0 0 3px #ffffff;fill:gray;text-rendering:geometricprecision;" text-anchor="middle" transform="translate(0,0)" y="108">
			<tspan>8
			</tspan>
		</text>
	</g>
	<g class="highcharts-data-labels highcharts-series-0 highcharts-tracker" visibility="visible" transform="translate(73,46) scale(1 1)" style="">
		<g style="" transform="translate(42,117)">
			<text x="5" style="font-size:11px;font-weight:bold;color:white;text-shadow:0 0 3px black;fill:white;text-rendering:geometricprecision;" y="16">
				<tspan>5
				</tspan>
			</text>
		</g>
		<g style="" transform="translate(142,116)">
			<text x="5" style="font-size:11px;font-weight:bold;color:white;text-shadow:0 0 3px black;fill:white;text-rendering:geometricprecision;" y="16">
				<tspan>3
				</tspan>
			</text>
		</g>
		<g style="" transform="translate(242,78)">
			<text x="5" style="font-size:11px;font-weight:bold;color:white;text-shadow:0 0 3px black;fill:white;text-rendering:geometricprecision;" y="16">
				<tspan>4
				</tspan>
			</text>
		</g>
		<g style="" transform="translate(343,116)">
			<text x="5" style="font-size:11px;font-weight:bold;color:white;text-shadow:0 0 3px black;fill:white;text-rendering:geometricprecision;" y="16">
				<tspan>7
				</tspan>
			</text>
		</g>
		<g style="" transform="translate(443,129)">
			<text x="5" style="font-size:11px;font-weight:bold;color:white;text-shadow:0 0 3px black;fill:white;text-rendering:geometricprecision;" y="16">
				<tspan>2
				</tspan>
			</text>
		</g>
	</g>
	<g class="highcharts-data-labels highcharts-series-1 highcharts-tracker" visibility="visible" transform="translate(73,46) scale(1 1)" style="">
		<g style="" transform="translate(42,206)">
			<text x="5" style="font-size:11px;font-weight:bold;color:white;text-shadow:0 0 3px black;fill:white;text-rendering:geometricprecision;" y="16">
				<tspan>2
				</tspan>
			</text>
		</g>
		<g style="" transform="translate(142,180)">
			<text x="5" style="font-size:11px;font-weight:bold;color:white;text-shadow:0 0 3px black;fill:white;text-rendering:geometricprecision;" y="16">
				<tspan>2
				</tspan>
			</text>
		</g>
		<g style="" transform="translate(242,167)">
			<text x="5" style="font-size:11px;font-weight:bold;color:white;text-shadow:0 0 3px black;fill:white;text-rendering:geometricprecision;" y="16">
				<tspan>3
				</tspan>
			</text>
		</g>
		<g style="" transform="translate(343,231)">
			<text x="5" style="font-size:11px;font-weight:bold;color:white;text-shadow:0 0 3px black;fill:white;text-rendering:geometricprecision;" y="16">
				<tspan>2
				</tspan>
			</text>
		</g>
		<g style="" transform="translate(443,167)">
			<text x="5" style="font-size:11px;font-weight:bold;color:white;text-shadow:0 0 3px black;fill:white;text-rendering:geometricprecision;" y="16">
				<tspan>1
				</tspan>
			</text>
		</g>
	</g>
	<g class="highcharts-data-labels highcharts-series-2 highcharts-tracker" visibility="visible" transform="translate(73,46) scale(1 1)" style="">
		<g style="" transform="translate(42,269)">
			<text x="5" style="font-size:11px;font-weight:bold;color:white;text-shadow:0 0 3px black;fill:white;text-rendering:geometricprecision;" y="16">
				<tspan>3
				</tspan>
			</text>
		</g>
		<g style="" transform="translate(142,256)">
			<text x="5" style="font-size:11px;font-weight:bold;color:white;text-shadow:0 0 3px black;fill:white;text-rendering:geometricprecision;" y="16">
				<tspan>4
				</tspan>
			</text>
		</g>
		<g style="" transform="translate(242,256)">
			<text x="5" style="font-size:11px;font-weight:bold;color:white;text-shadow:0 0 3px black;fill:white;text-rendering:geometricprecision;" y="16">
				<tspan>4
				</tspan>
			</text>
		</g>
		<g style="" transform="translate(343,281)">
			<text x="5" style="font-size:11px;font-weight:bold;color:white;text-shadow:0 0 3px black;fill:white;text-rendering:geometricprecision;" y="16">
				<tspan>2
				</tspan>
			</text>
		</g>
		<g style="" transform="translate(443,243)">
			<text x="5" style="font-size:11px;font-weight:bold;color:white;text-shadow:0 0 3px black;fill:white;text-rendering:geometricprecision;" y="16">
				<tspan>5
				</tspan>
			</text>
		</g>
	</g>
	<g class="highcharts-legend" transform="translate(350,35)">
		<rect x="0.5" y="0.5" width="193" height="24" stroke="#CCC" stroke-width="1" fill="white" visibility="visible">
		</rect>
		<g>
			<g>
				<g class="highcharts-legend-item" transform="translate(8,3)">
					<text x="21" style="color:#333333;font-size:12px;font-weight:bold;cursor:pointer;fill:#333333;" text-anchor="start" y="15">John
					</text>
					<rect x="0" y="4" width="16" height="12" fill="#7cb5ec">
					</rect>
				</g>
				<g class="highcharts-legend-item" transform="translate(77.4,3)">
					<text x="21" y="15" style="color:#333333;font-size:12px;font-weight:bold;cursor:pointer;fill:#333333;" text-anchor="start">Jane
					</text>
					<rect x="0" y="4" width="16" height="12" fill="#434348">
					</rect>
				</g>
				<g class="highcharts-legend-item" transform="translate(145.3,3)">
					<text x="21" y="15" style="color:#333333;font-size:12px;font-weight:bold;cursor:pointer;fill:#333333;" text-anchor="start">Joe
					</text>
					<rect x="0" y="4" width="16" height="12" fill="#90ed7d">
					</rect>
				</g>
			</g>
		</g>
	</g>
	<g class="highcharts-axis-labels highcharts-xaxis-labels">
		<text x="123.1" style="color:#606060;cursor:default;font-size:11px;fill:#606060;width:90px;text-overflow:clip;" text-anchor="middle" transform="translate(0,0)" y="383" opacity="1">Apples
		</text>
		<text x="223.2" style="color:#606060;cursor:default;font-size:11px;fill:#606060;width:90px;text-overflow:clip;" text-anchor="middle" transform="translate(0,0)" y="383" opacity="1">Oranges
		</text>
		<text x="323.5" style="color:#606060;cursor:default;font-size:11px;fill:#606060;width:90px;text-overflow:clip;" text-anchor="middle" transform="translate(0,0)" y="383" opacity="1">Pears
		</text>
		<text x="423.7" style="color:#606060;cursor:default;font-size:11px;fill:#606060;width:90px;text-overflow:clip;" text-anchor="middle" transform="translate(0,0)" y="383" opacity="1">Grapes
		</text>
		<text x="523.9" style="color:#606060;cursor:default;font-size:11px;fill:#606060;width:90px;text-overflow:clip;" text-anchor="middle" transform="translate(0,0)" y="383" opacity="1">Bananas
		</text>
	</g>
	<g class="highcharts-axis-labels highcharts-yaxis-labels">
		<text x="58" style="color:#606060;cursor:default;font-size:11px;fill:#606060;width:183px;text-overflow:clip;" text-anchor="end" transform="translate(0,0)" y="369" opacity="1">0
		</text>
		<text x="58" style="color:#606060;cursor:default;font-size:11px;fill:#606060;width:183px;text-overflow:clip;" text-anchor="end" transform="translate(0,0)" y="305" opacity="1">2.5
		</text>
		<text x="58" style="color:#606060;cursor:default;font-size:11px;fill:#606060;width:183px;text-overflow:clip;" text-anchor="end" transform="translate(0,0)" y="241" opacity="1">5
		</text>
		<text x="58" style="color:#606060;cursor:default;font-size:11px;fill:#606060;width:183px;text-overflow:clip;" text-anchor="end" transform="translate(0,0)" y="178" opacity="1">7.5
		</text>
		<text x="58" style="color:#606060;cursor:default;font-size:11px;fill:#606060;width:183px;text-overflow:clip;" text-anchor="end" transform="translate(0,0)" y="114" opacity="1">10
		</text>
		<text x="58" style="color:#606060;cursor:default;font-size:11px;fill:#606060;width:183px;text-overflow:clip;" text-anchor="end" transform="translate(0,0)" y="51" opacity="1">12.5
		</text>
	</g>
	<g class="highcharts-tooltip" style="cursor:default;padding:0;pointer-events:none;white-space:nowrap;" transform="translate(0,-9999)">
		<path fill="none" d="M 3.5 0.5 L 13.5 0.5 C 16.5 0.5 16.5 0.5 16.5 3.5 L 16.5 13.5 C 16.5 16.5 16.5 16.5 13.5 16.5 L 3.5 16.5 C 0.5 16.5 0.5 16.5 0.5 13.5 L 0.5 3.5 C 0.5 0.5 0.5 0.5 3.5 0.5"  stroke="black" stroke-opacity="0.0" stroke-width="5" transform="translate(1, 1)">
		</path>
		<path fill="none" d="M 3.5 0.5 L 13.5 0.5 C 16.5 0.5 16.5 0.5 16.5 3.5 L 16.5 13.5 C 16.5 16.5 16.5 16.5 13.5 16.5 L 3.5 16.5 C 0.5 16.5 0.5 16.5 0.5 13.5 L 0.5 3.5 C 0.5 0.5 0.5 0.5 3.5 0.5"  stroke="black" stroke-opacity="0.0" stroke-width="3" transform="translate(1, 1)">
		</path>
		<path fill="none" d="M 3.5 0.5 L 13.5 0.5 C 16.5 0.5 16.5 0.5 16.5 3.5 L 16.5 13.5 C 16.5 16.5 16.5 16.5 13.5 16.5 L 3.5 16.5 C 0.5 16.5 0.5 16.5 0.5 13.5 L 0.5 3.5 C 0.5 0.5 0.5 0.5 3.5 0.5"  stroke="black" stroke-opacity="0.1" stroke-width="1" transform="translate(1, 1)">
		</path>
		<path fill="rgb(249, 249, 249)" fill-opacity=" .85" d="M 3.5 0.5 L 13.5 0.5 C 16.5 0.5 16.5 0.5 16.5 3.5 L 16.5 13.5 C 16.5 16.5 16.5 16.5 13.5 16.5 L 3.5 16.5 C 0.5 16.5 0.5 16.5 0.5 13.5 L 0.5 3.5 C 0.5 0.5 0.5 0.5 3.5 0.5">
		</path>
		<text x="8" style="font-size:12px;color:#333333;fill:#333333;" y="20">
		</text>
	</g>
</svg>