
<svg version="1.1" style="font-family:&quot;lucida grande&quot;, &quot;lucida sans unicode&quot;, arial, helvetica, sans-serif;font-size:12px;" xmlns="http://www.w3.org/2000/svg" viewBox="0 0 584 400">
	<desc>Created with Highcharts 4.2.4
	</desc>
	<defs>
		<clipPath id="highcharts-1">
			<rect x="0" y="0" width="327" height="292">
			</rect>
		</clipPath>
	</defs>
	<rect x="0" y="0" width="584" height="400" fill="#FFFFFF" class=" highcharts-background" stroke="transparent">
	</rect>
	<g class="highcharts-grid">
	</g>
	<g class="highcharts-grid">
		<path fill="none" d="M 94 353.5 L 421 353.5" stroke="#D8D8D8" stroke-width="1" opacity="1">
		</path>
		<path fill="none" d="M 94 295.5 L 421 295.5" stroke="#D8D8D8" stroke-width="1" opacity="1">
		</path>
		<path fill="none" d="M 94 236.5 L 421 236.5" stroke="#D8D8D8" stroke-width="1" opacity="1">
		</path>
		<path fill="none" d="M 94 178.5 L 421 178.5" stroke="#D8D8D8" stroke-width="1" opacity="1">
		</path>
		<path fill="none" d="M 94 119.5 L 421 119.5" stroke="#D8D8D8" stroke-width="1" opacity="1">
		</path>
		<path fill="none" d="M 94 60.5 L 421 60.5" stroke="#D8D8D8" stroke-width="1" opacity="1">
		</path>
	</g>
	<g class="highcharts-grid">
	</g>
	<g class="highcharts-grid">
	</g>
	<g class="highcharts-axis">
		<path fill="none" d="M 120.5 353 L 120.5 363" stroke="#C0D0E0" stroke-width="1" opacity="1">
		</path>
		<path fill="none" d="M 148.5 353 L 148.5 363" stroke="#C0D0E0" stroke-width="1" opacity="1">
		</path>
		<path fill="none" d="M 175.5 353 L 175.5 363" stroke="#C0D0E0" stroke-width="1" opacity="1">
		</path>
		<path fill="none" d="M 202.5 353 L 202.5 363" stroke="#C0D0E0" stroke-width="1" opacity="1">
		</path>
		<path fill="none" d="M 229.5 353 L 229.5 363" stroke="#C0D0E0" stroke-width="1" opacity="1">
		</path>
		<path fill="none" d="M 257.5 353 L 257.5 363" stroke="#C0D0E0" stroke-width="1" opacity="1">
		</path>
		<path fill="none" d="M 284.5 353 L 284.5 363" stroke="#C0D0E0" stroke-width="1" opacity="1">
		</path>
		<path fill="none" d="M 311.5 353 L 311.5 363" stroke="#C0D0E0" stroke-width="1" opacity="1">
		</path>
		<path fill="none" d="M 338.5 353 L 338.5 363" stroke="#C0D0E0" stroke-width="1" opacity="1">
		</path>
		<path fill="none" d="M 366.5 353 L 366.5 363" stroke="#C0D0E0" stroke-width="1" opacity="1">
		</path>
		<path fill="none" d="M 393.5 353 L 393.5 363" stroke="#C0D0E0" stroke-width="1" opacity="1">
		</path>
		<path fill="none" d="M 421.5 353 L 421.5 363" stroke="#C0D0E0" stroke-width="1" opacity="1">
		</path>
		<path fill="none" d="M 93.5 353 L 93.5 363" stroke="#C0D0E0" stroke-width="1" opacity="1">
		</path>
		<path fill="none" d="M 94 353.5 L 421 353.5" stroke="#C0D0E0" stroke-width="1">
		</path>
	</g>
	<g class="highcharts-axis">
		<text x="472.2" text-anchor="middle" transform="translate(0,0) rotate(90 472.2 207)" class=" highcharts-yaxis-title" style="color:#90ed7d;fill:#90ed7d;" y="207">Temperature
		</text>
	</g>
	<g class="highcharts-axis">
		<text x="24.1" text-anchor="middle" transform="translate(0,0) rotate(270 24.1 207)" class=" highcharts-yaxis-title" style="color:#7cb5ec;fill:#7cb5ec;" y="207">Rainfall
		</text>
	</g>
	<g class="highcharts-axis">
		<text x="559.8" text-anchor="middle" transform="translate(0,0) rotate(90 559.8 207)" class=" highcharts-yaxis-title" style="color:#434348;fill:#434348;" y="207">
			<tspan>Sea-Level Pressure
			</tspan>
		</text>
	</g>
	<g class="highcharts-series-group">
		<g class="highcharts-series highcharts-series-0 highcharts-tracker" transform="translate(94,61) scale(1 1)" style="" clip-path="url(#highcharts-1)">
			<rect x="6.5" y="234.5" width="14" height="58" stroke="#FFFFFF" stroke-width="1" fill="#7cb5ec" rx="0" ry="0">
			</rect>
			<rect x="33.5" y="208.5" width="14" height="84" stroke="#FFFFFF" stroke-width="1" fill="#7cb5ec" rx="0" ry="0">
			</rect>
			<rect x="61.5" y="168.5" width="14" height="124" stroke="#FFFFFF" stroke-width="1" fill="#7cb5ec" rx="0" ry="0">
			</rect>
			<rect x="88.5" y="141.5" width="14" height="151" stroke="#FFFFFF" stroke-width="1" fill="#7cb5ec" rx="0" ry="0">
			</rect>
			<rect x="115.5" y="124.5" width="14" height="168" stroke="#FFFFFF" stroke-width="1" fill="#7cb5ec" rx="0" ry="0">
			</rect>
			<rect x="142.5" y="86.5" width="14" height="206" stroke="#FFFFFF" stroke-width="1" fill="#7cb5ec" rx="0" ry="0">
			</rect>
			<rect x="170.5" y="134.5" width="14" height="158" stroke="#FFFFFF" stroke-width="1" fill="#7cb5ec" rx="0" ry="0">
			</rect>
			<rect x="197.5" y="119.5" width="14" height="173" stroke="#FFFFFF" stroke-width="1" fill="#7cb5ec" rx="0" ry="0">
			</rect>
			<rect x="224.5" y="39.5" width="14" height="253" stroke="#FFFFFF" stroke-width="1" fill="#7cb5ec" rx="0" ry="0">
			</rect>
			<rect x="251.5" y="65.5" width="14" height="227" stroke="#FFFFFF" stroke-width="1" fill="#7cb5ec" rx="0" ry="0">
			</rect>
			<rect x="279.5" y="180.5" width="14" height="112" stroke="#FFFFFF" stroke-width="1" fill="#7cb5ec" rx="0" ry="0">
			</rect>
			<rect x="306.5" y="228.5" width="14" height="64" stroke="#FFFFFF" stroke-width="1" fill="#7cb5ec" rx="0" ry="0">
			</rect>
		</g>
		<g class="highcharts-markers highcharts-series-0" transform="translate(94,61) scale(1 1)" clip-path="none">
		</g>
		<g class="highcharts-series highcharts-series-1" transform="translate(94,61) scale(1 1)" clip-path="url(#highcharts-1)">
			<path fill="none" d="M 13.6 175.2 C 13.6 175.2 29.9 175.2 40.8 175.2 C 51.7 175.2 57.2 175.2 68.1 176.6 C 79.0 178.1 84.4 176.6 95.3 182.5 C 106.2 188.3 111.7 211.7 122.6 229.2 C 133.5 246.7 138.9 270.1 149.8 270.1 C 160.7 270.1 166.2 270.1 177.1 268.6 C 188.0 267.1 193.4 268.6 204.3 259.8 C 215.2 251.1 220.7 237.1 231.6 217.5 C 242.5 197.9 247.9 176.9 258.8 162.0 C 269.7 147.1 275.2 143.0 286.1 143.0 C 297.0 143.0 313.3 164.9 313.3 164.9" stroke="#434348" stroke-width="2" stroke-dasharray="2,2">
			</path>
			<path fill="none" d="M 3.6 175.2 L 13.6 175.2 C 13.6 175.2 29.9 175.2 40.8 175.2 C 51.7 175.2 57.2 175.2 68.1 176.6 C 79.0 178.1 84.4 176.6 95.3 182.5 C 106.2 188.3 111.7 211.7 122.6 229.2 C 133.5 246.7 138.9 270.1 149.8 270.1 C 160.7 270.1 166.2 270.1 177.1 268.6 C 188.0 267.1 193.4 268.6 204.3 259.8 C 215.2 251.1 220.7 237.1 231.6 217.5 C 242.5 197.9 247.9 176.9 258.8 162.0 C 269.7 147.1 275.2 143.0 286.1 143.0 C 297.0 143.0 313.3 164.9 313.3 164.9 L 323.3 164.9" stroke-linejoin="round" visibility="visible" stroke="rgb(192,192,192)" stroke-opacity="0.0" stroke-width="22" class=" highcharts-tracker" style="">
			</path>
		</g>
		<g class="highcharts-markers highcharts-series-1 highcharts-tracker" transform="translate(94,61) scale(1 1)" style="" clip-path="none">
		</g>
		<g class="highcharts-series highcharts-series-2" transform="translate(94,61) scale(1 1)" clip-path="url(#highcharts-1)">
			<path fill="none" d="M 13.6 268.6 C 13.6 268.6 29.9 269.8 40.8 269.8 C 51.7 269.8 57.2 257.1 68.1 239.4 C 79.0 221.6 84.4 201.3 95.3 181.0 C 106.2 160.7 111.7 154.1 122.6 137.8 C 133.5 121.4 138.9 115.6 149.8 99.2 C 160.7 82.9 166.2 67.7 177.1 56.0 C 188.0 44.3 193.4 40.8 204.3 40.8 C 215.2 40.8 220.7 59.1 231.6 78.2 C 242.5 97.4 247.9 114.6 258.8 136.6 C 269.7 158.6 275.2 167.7 286.1 188.0 C 297.0 208.3 313.3 238.2 313.3 238.2" stroke="#90ed7d" stroke-width="2" stroke-linejoin="round" stroke-linecap="round">
			</path>
			<path fill="none" d="M 3.6 268.6 L 13.6 268.6 C 13.6 268.6 29.9 269.8 40.8 269.8 C 51.7 269.8 57.2 257.1 68.1 239.4 C 79.0 221.6 84.4 201.3 95.3 181.0 C 106.2 160.7 111.7 154.1 122.6 137.8 C 133.5 121.4 138.9 115.6 149.8 99.2 C 160.7 82.9 166.2 67.7 177.1 56.0 C 188.0 44.3 193.4 40.8 204.3 40.8 C 215.2 40.8 220.7 59.1 231.6 78.2 C 242.5 97.4 247.9 114.6 258.8 136.6 C 269.7 158.6 275.2 167.7 286.1 188.0 C 297.0 208.3 313.3 238.2 313.3 238.2 L 323.3 238.2" stroke-linejoin="round" visibility="visible" stroke="rgb(192,192,192)" stroke-opacity="0.0" stroke-width="22" class=" highcharts-tracker" style="">
			</path>
		</g>
		<g class="highcharts-markers highcharts-series-2 highcharts-tracker" transform="translate(94,61) scale(1 1)" style="" clip-path="none">
			<path fill="#90ed7d" d="M 313 234.2 L 317 238.2 313 242.2 309 238.2 Z">
			</path>
			<path fill="#90ed7d" d="M 286 184.0 L 290 188.0 286 192.0 282 188.0 Z">
			</path>
			<path fill="#90ed7d" d="M 258 132.6 L 262 136.6 258 140.6 254 136.6 Z">
			</path>
			<path fill="#90ed7d" d="M 231 74.2 L 235 78.2 231 82.2 227 78.2 Z">
			</path>
			<path fill="#90ed7d" d="M 204 36.8 L 208 40.8 204 44.8 200 40.8 Z">
			</path>
			<path fill="#90ed7d" d="M 177 52.0 L 181 56.0 177 60.0 173 56.0 Z">
			</path>
			<path fill="#90ed7d" d="M 149 95.2 L 153 99.2 149 103.2 145 99.2 Z">
			</path>
			<path fill="#90ed7d" d="M 122 133.8 L 126 137.8 122 141.8 118 137.8 Z">
			</path>
			<path fill="#90ed7d" d="M 95 177.0 L 99 181.0 95 185.0 91 181.0 Z">
			</path>
			<path fill="#90ed7d" d="M 68 235.4 L 72 239.4 68 243.4 64 239.4 Z">
			</path>
			<path fill="#90ed7d" d="M 40 265.8 L 44 269.8 40 273.8 36 269.8 Z">
			</path>
			<path fill="#90ed7d" d="M 13 264.6 L 17 268.6 13 272.6 9 268.6 Z">
			</path>
		</g>
	</g>
	<text x="292" text-anchor="middle" class="highcharts-title" style="color:#333333;font-size:18px;fill:#333333;width:520px;" y="24">
		<tspan>Average Monthly Weather Data for Tokyo
		</tspan>
	</text>
	<text x="292" text-anchor="middle" class="highcharts-subtitle" style="color:#555555;fill:#555555;width:520px;" y="45">
		<tspan>Source: WorldClimate.com
		</tspan>
	</text>
	<g class="highcharts-legend" transform="translate(90,65)">
		<rect x="0" y="0" width="155" height="53" fill="#FFFFFF" visibility="visible">
		</rect>
		<g>
			<g>
				<g class="highcharts-legend-item" transform="translate(8,3)">
					<text x="21" style="color:#333333;font-size:12px;font-weight:bold;cursor:pointer;fill:#333333;" text-anchor="start" y="15">Rainfall
					</text>
					<rect x="0" y="4" width="16" height="12" fill="#7cb5ec">
					</rect>
				</g>
				<g class="highcharts-legend-item" transform="translate(8,17)">
					<path fill="none" d="M 0 11 L 16 11" stroke-dasharray="2,2" stroke="#434348" stroke-width="2">
					</path>
					<text x="21" y="15" style="color:#333333;font-size:12px;font-weight:bold;cursor:pointer;fill:#333333;" text-anchor="start">
						<tspan>Sea-Level Pressure
						</tspan>
					</text>
				</g>
				<g class="highcharts-legend-item" transform="translate(8,31)">
					<path fill="none" d="M 0 11 L 16 11" stroke="#90ed7d" stroke-width="2">
					</path>
					<path fill="#90ed7d" d="M 8 7 L 12 11 8 15 4 11 Z">
					</path>
					<text x="21" y="15" style="color:#333333;font-size:12px;font-weight:bold;cursor:pointer;fill:#333333;" text-anchor="start">Temperature
					</text>
				</g>
			</g>
		</g>
	</g>
	<g class="highcharts-axis-labels highcharts-xaxis-labels">
		<text x="110.2" style="color:#606060;cursor:default;font-size:11px;fill:#606060;width:400px;text-overflow:ellipsis;" text-anchor="end" transform="translate(0,0) rotate(-45 110.2 369)" y="369" opacity="1">
			<tspan>Jan
			</tspan>
		</text>
		<text x="137.4" style="color:#606060;cursor:default;font-size:11px;fill:#606060;width:400px;text-overflow:ellipsis;" text-anchor="end" transform="translate(0,0) rotate(-45 137.4 369)" y="369" opacity="1">
			<tspan>Feb
			</tspan>
		</text>
		<text x="164.7" style="color:#606060;cursor:default;font-size:11px;fill:#606060;width:400px;text-overflow:ellipsis;" text-anchor="end" transform="translate(0,0) rotate(-45 164.7 369)" y="369" opacity="1">
			<tspan>Mar
			</tspan>
		</text>
		<text x="191.9" style="color:#606060;cursor:default;font-size:11px;fill:#606060;width:400px;text-overflow:ellipsis;" text-anchor="end" transform="translate(0,0) rotate(-45 191.9 369)" y="369" opacity="1">
			<tspan>Apr
			</tspan>
		</text>
		<text x="219.2" style="color:#606060;cursor:default;font-size:11px;fill:#606060;width:400px;text-overflow:ellipsis;" text-anchor="end" transform="translate(0,0) rotate(-45 219.2 369)" y="369" opacity="1">
			<tspan>May
			</tspan>
		</text>
		<text x="246.4" style="color:#606060;cursor:default;font-size:11px;fill:#606060;width:400px;text-overflow:ellipsis;" text-anchor="end" transform="translate(0,0) rotate(-45 246.4 369)" y="369" opacity="1">
			<tspan>Jun
			</tspan>
		</text>
		<text x="273.7" style="color:#606060;cursor:default;font-size:11px;fill:#606060;width:400px;text-overflow:ellipsis;" text-anchor="end" transform="translate(0,0) rotate(-45 273.7 369)" y="369" opacity="1">
			<tspan>Jul
			</tspan>
		</text>
		<text x="300.9" style="color:#606060;cursor:default;font-size:11px;fill:#606060;width:400px;text-overflow:ellipsis;" text-anchor="end" transform="translate(0,0) rotate(-45 300.9 369)" y="369" opacity="1">
			<tspan>Aug
			</tspan>
		</text>
		<text x="328.2" style="color:#606060;cursor:default;font-size:11px;fill:#606060;width:400px;text-overflow:ellipsis;" text-anchor="end" transform="translate(0,0) rotate(-45 328.2 369)" y="369" opacity="1">
			<tspan>Sep
			</tspan>
		</text>
		<text x="355.4" style="color:#606060;cursor:default;font-size:11px;fill:#606060;width:400px;text-overflow:ellipsis;" text-anchor="end" transform="translate(0,0) rotate(-45 355.4 369)" y="369" opacity="1">
			<tspan>Oct
			</tspan>
		</text>
		<text x="382.7" style="color:#606060;cursor:default;font-size:11px;fill:#606060;width:400px;text-overflow:ellipsis;" text-anchor="end" transform="translate(0,0) rotate(-45 382.7 369)" y="369" opacity="1">
			<tspan>Nov
			</tspan>
		</text>
		<text x="409.9" style="color:#606060;cursor:default;font-size:11px;fill:#606060;width:400px;text-overflow:ellipsis;" text-anchor="end" transform="translate(0,0) rotate(-45 409.9 369)" y="369" opacity="1">
			<tspan>Dec
			</tspan>
		</text>
	</g>
	<g class="highcharts-axis-labels highcharts-yaxis-labels">
		<text x="436" style="color:#90ed7d;cursor:default;font-size:11px;fill:#90ed7d;width:183px;text-overflow:clip;" text-anchor="start" transform="translate(0,0)" y="358" opacity="1">5°C
		</text>
		<text x="436" style="color:#90ed7d;cursor:default;font-size:11px;fill:#90ed7d;width:183px;text-overflow:clip;" text-anchor="start" transform="translate(0,0)" y="299" opacity="1">10°C
		</text>
		<text x="436" style="color:#90ed7d;cursor:default;font-size:11px;fill:#90ed7d;width:183px;text-overflow:clip;" text-anchor="start" transform="translate(0,0)" y="241" opacity="1">15°C
		</text>
		<text x="436" style="color:#90ed7d;cursor:default;font-size:11px;fill:#90ed7d;width:183px;text-overflow:clip;" text-anchor="start" transform="translate(0,0)" y="182" opacity="1">20°C
		</text>
		<text x="436" style="color:#90ed7d;cursor:default;font-size:11px;fill:#90ed7d;width:183px;text-overflow:clip;" text-anchor="start" transform="translate(0,0)" y="124" opacity="1">25°C
		</text>
		<text x="436" style="color:#90ed7d;cursor:default;font-size:11px;fill:#90ed7d;width:183px;text-overflow:clip;" text-anchor="start" transform="translate(0,0)" y="66" opacity="1">30°C
		</text>
	</g>
	<g class="highcharts-axis-labels highcharts-yaxis-labels">
		<text x="79" style="color:#7cb5ec;cursor:default;font-size:11px;fill:#7cb5ec;width:183px;text-overflow:clip;" text-anchor="end" transform="translate(0,0)" y="358" opacity="1">
			<tspan>0 mm
			</tspan>
		</text>
		<text x="79" style="color:#7cb5ec;cursor:default;font-size:11px;fill:#7cb5ec;width:183px;text-overflow:clip;" text-anchor="end" transform="translate(0,0)" y="299" opacity="1">
			<tspan>50 mm
			</tspan>
		</text>
		<text x="79" style="color:#7cb5ec;cursor:default;font-size:11px;fill:#7cb5ec;width:183px;text-overflow:clip;" text-anchor="end" transform="translate(0,0)" y="241" opacity="1">
			<tspan>100 mm
			</tspan>
		</text>
		<text x="79" style="color:#7cb5ec;cursor:default;font-size:11px;fill:#7cb5ec;width:183px;text-overflow:clip;" text-anchor="end" transform="translate(0,0)" y="182" opacity="1">
			<tspan>150 mm
			</tspan>
		</text>
		<text x="79" style="color:#7cb5ec;cursor:default;font-size:11px;fill:#7cb5ec;width:183px;text-overflow:clip;" text-anchor="end" transform="translate(0,0)" y="124" opacity="1">
			<tspan>200 mm
			</tspan>
		</text>
		<text x="79" style="color:#7cb5ec;cursor:default;font-size:11px;fill:#7cb5ec;width:183px;text-overflow:clip;" text-anchor="end" transform="translate(0,0)" y="66" opacity="1">
			<tspan>250 mm
			</tspan>
		</text>
	</g>
	<g class="highcharts-axis-labels highcharts-yaxis-labels">
		<text x="501.4" style="color:#434348;cursor:default;font-size:11px;fill:#434348;width:183px;text-overflow:clip;" text-anchor="start" transform="translate(0,0)" y="358" opacity="1">
			<tspan>1008 mb
			</tspan>
		</text>
		<text x="501.4" style="color:#434348;cursor:default;font-size:11px;fill:#434348;width:183px;text-overflow:clip;" text-anchor="start" transform="translate(0,0)" y="299" opacity="1">
			<tspan>1012 mb
			</tspan>
		</text>
		<text x="501.4" style="color:#434348;cursor:default;font-size:11px;fill:#434348;width:183px;text-overflow:clip;" text-anchor="start" transform="translate(0,0)" y="241" opacity="1">
			<tspan>1016 mb
			</tspan>
		</text>
		<text x="501.4" style="color:#434348;cursor:default;font-size:11px;fill:#434348;width:183px;text-overflow:clip;" text-anchor="start" transform="translate(0,0)" y="182" opacity="1">
			<tspan>1020 mb
			</tspan>
		</text>
		<text x="501.4" style="color:#434348;cursor:default;font-size:11px;fill:#434348;width:183px;text-overflow:clip;" text-anchor="start" transform="translate(0,0)" y="124" opacity="1">
			<tspan>1024 mb
			</tspan>
		</text>
		<text x="501.4" style="color:#434348;cursor:default;font-size:11px;fill:#434348;width:183px;text-overflow:clip;" text-anchor="start" transform="translate(0,0)" y="66" opacity="1">
			<tspan>1028 mb
			</tspan>
		</text>
	</g>
	<g class="highcharts-tooltip" style="cursor:default;padding:0;pointer-events:none;white-space:nowrap;" transform="translate(0,-9999)">
		<path fill="none" d="M 3.5 0.5 L 13.5 0.5 C 16.5 0.5 16.5 0.5 16.5 3.5 L 16.5 13.5 C 16.5 16.5 16.5 16.5 13.5 16.5 L 3.5 16.5 C 0.5 16.5 0.5 16.5 0.5 13.5 L 0.5 3.5 C 0.5 0.5 0.5 0.5 3.5 0.5"  stroke="black" stroke-opacity="0.0" stroke-width="5" transform="translate(1, 1)">
		</path>
		<path fill="none" d="M 3.5 0.5 L 13.5 0.5 C 16.5 0.5 16.5 0.5 16.5 3.5 L 16.5 13.5 C 16.5 16.5 16.5 16.5 13.5 16.5 L 3.5 16.5 C 0.5 16.5 0.5 16.5 0.5 13.5 L 0.5 3.5 C 0.5 0.5 0.5 0.5 3.5 0.5"  stroke="black" stroke-opacity="0.0" stroke-width="3" transform="translate(1, 1)">
		</path>
		<path fill="none" d="M 3.5 0.5 L 13.5 0.5 C 16.5 0.5 16.5 0.5 16.5 3.5 L 16.5 13.5 C 16.5 16.5 16.5 16.5 13.5 16.5 L 3.5 16.5 C 0.5 16.5 0.5 16.5 0.5 13.5 L 0.5 3.5 C 0.5 0.5 0.5 0.5 3.5 0.5"  stroke="black" stroke-opacity="0.1" stroke-width="1" transform="translate(1, 1)">
		</path>
		<path fill="rgb(249, 249, 249)" fill-opacity=" .85" d="M 3.5 0.5 L 13.5 0.5 C 16.5 0.5 16.5 0.5 16.5 3.5 L 16.5 13.5 C 16.5 16.5 16.5 16.5 13.5 16.5 L 3.5 16.5 C 0.5 16.5 0.5 16.5 0.5 13.5 L 0.5 3.5 C 0.5 0.5 0.5 0.5 3.5 0.5">
		</path>
		<text x="8" style="font-size:12px;color:#333333;fill:#333333;" y="20">
		</text>
	</g>
</svg>