
<svg version="1.1" style="font-family:&quot;lucida grande&quot;, &quot;lucida sans unicode&quot;, arial, helvetica, sans-serif;font-size:12px;" xmlns="http://www.w3.org/2000/svg" viewBox="0 0 584 400">
	<desc>Created with Highcharts 4.2.4
	</desc>
	<defs>
		<clipPath id="highcharts-1">
			<rect x="0" y="0" width="504" height="281">
			</rect>
		</clipPath>
	</defs>
	<rect x="0" y="0" width="584" height="400" fill="#FFFFFF" class=" highcharts-background" stroke="transparent">
	</rect>
	<g class="highcharts-grid">
	</g>
	<g class="highcharts-grid">
		<path fill="none" d="M 70 327.5 L 574 327.5" stroke="#E0E0E0" stroke-width="1" opacity="1">
		</path>
		<path fill="none" d="M 70 306.5 L 574 306.5" stroke="#E0E0E0" stroke-width="1" opacity="1">
		</path>
		<path fill="none" d="M 70 293.5 L 574 293.5" stroke="#E0E0E0" stroke-width="1" opacity="1">
		</path>
		<path fill="none" d="M 70 285.5 L 574 285.5" stroke="#E0E0E0" stroke-width="1" opacity="1">
		</path>
		<path fill="none" d="M 70 278.5 L 574 278.5" stroke="#E0E0E0" stroke-width="1" opacity="1">
		</path>
		<path fill="none" d="M 70 272.5 L 574 272.5" stroke="#E0E0E0" stroke-width="1" opacity="1">
		</path>
		<path fill="none" d="M 70 268.5 L 574 268.5" stroke="#E0E0E0" stroke-width="1" opacity="1">
		</path>
		<path fill="none" d="M 70 264.5 L 574 264.5" stroke="#E0E0E0" stroke-width="1" opacity="1">
		</path>
		<path fill="none" d="M 70 260.5 L 574 260.5" stroke="#E0E0E0" stroke-width="1" opacity="1">
		</path>
		<path fill="none" d="M 70 257.5 L 574 257.5" stroke="#E0E0E0" stroke-width="1" opacity="1">
		</path>
		<path fill="none" d="M 70 236.5 L 574 236.5" stroke="#E0E0E0" stroke-width="1" opacity="1">
		</path>
		<path fill="none" d="M 70 223.5 L 574 223.5" stroke="#E0E0E0" stroke-width="1" opacity="1">
		</path>
		<path fill="none" d="M 70 214.5 L 574 214.5" stroke="#E0E0E0" stroke-width="1" opacity="1">
		</path>
		<path fill="none" d="M 70 208.5 L 574 208.5" stroke="#E0E0E0" stroke-width="1" opacity="1">
		</path>
		<path fill="none" d="M 70 202.5 L 574 202.5" stroke="#E0E0E0" stroke-width="1" opacity="1">
		</path>
		<path fill="none" d="M 70 197.5 L 574 197.5" stroke="#E0E0E0" stroke-width="1" opacity="1">
		</path>
		<path fill="none" d="M 70 193.5 L 574 193.5" stroke="#E0E0E0" stroke-width="1" opacity="1">
		</path>
		<path fill="none" d="M 70 190.5 L 574 190.5" stroke="#E0E0E0" stroke-width="1" opacity="1">
		</path>
		<path fill="none" d="M 70 187.5 L 574 187.5" stroke="#E0E0E0" stroke-width="1" opacity="1">
		</path>
		<path fill="none" d="M 70 165.5 L 574 165.5" stroke="#E0E0E0" stroke-width="1" opacity="1">
		</path>
		<path fill="none" d="M 70 153.5 L 574 153.5" stroke="#E0E0E0" stroke-width="1" opacity="1">
		</path>
		<path fill="none" d="M 70 144.5 L 574 144.5" stroke="#E0E0E0" stroke-width="1" opacity="1">
		</path>
		<path fill="none" d="M 70 137.5 L 574 137.5" stroke="#E0E0E0" stroke-width="1" opacity="1">
		</path>
		<path fill="none" d="M 70 132.5 L 574 132.5" stroke="#E0E0E0" stroke-width="1" opacity="1">
		</path>
		<path fill="none" d="M 70 127.5 L 574 127.5" stroke="#E0E0E0" stroke-width="1" opacity="1">
		</path>
		<path fill="none" d="M 70 123.5 L 574 123.5" stroke="#E0E0E0" stroke-width="1" opacity="1">
		</path>
		<path fill="none" d="M 70 119.5 L 574 119.5" stroke="#E0E0E0" stroke-width="1" opacity="1">
		</path>
		<path fill="none" d="M 70 116.5 L 574 116.5" stroke="#E0E0E0" stroke-width="1" opacity="1">
		</path>
		<path fill="none" d="M 70 95.5 L 574 95.5" stroke="#E0E0E0" stroke-width="1" opacity="1">
		</path>
		<path fill="none" d="M 70 83.5 L 574 83.5" stroke="#E0E0E0" stroke-width="1" opacity="1">
		</path>
		<path fill="none" d="M 70 74.5 L 574 74.5" stroke="#E0E0E0" stroke-width="1" opacity="1">
		</path>
		<path fill="none" d="M 70 67.5 L 574 67.5" stroke="#E0E0E0" stroke-width="1" opacity="1">
		</path>
		<path fill="none" d="M 70 62.5 L 574 62.5" stroke="#E0E0E0" stroke-width="1" opacity="1">
		</path>
		<path fill="none" d="M 70 57.5 L 574 57.5" stroke="#E0E0E0" stroke-width="1" opacity="1">
		</path>
		<path fill="none" d="M 70 53.5 L 574 53.5" stroke="#E0E0E0" stroke-width="1" opacity="1">
		</path>
		<path fill="none" d="M 70 49.5 L 574 49.5" stroke="#E0E0E0" stroke-width="1" opacity="1">
		</path>
		<path fill="none" d="M 70 46.5 L 574 46.5" stroke="#E0E0E0" stroke-width="1" opacity="1">
		</path>
		<path fill="none" d="M 70 327.5 L 574 327.5" stroke="#D8D8D8" stroke-width="1" opacity="1">
		</path>
		<path fill="none" d="M 70 257.5 L 574 257.5" stroke="#D8D8D8" stroke-width="1" opacity="1">
		</path>
		<path fill="none" d="M 70 187.5 L 574 187.5" stroke="#D8D8D8" stroke-width="1" opacity="1">
		</path>
		<path fill="none" d="M 70 116.5 L 574 116.5" stroke="#D8D8D8" stroke-width="1" opacity="1">
		</path>
		<path fill="none" d="M 70 45.5 L 574 45.5" stroke="#D8D8D8" stroke-width="1" opacity="1">
		</path>
	</g>
	<g class="highcharts-axis">
		<path fill="none" d="M 74.5 327 L 74.5 337" stroke="#C0D0E0" stroke-width="1" opacity="1">
		</path>
		<path fill="none" d="M 129.5 327 L 129.5 337" stroke="#C0D0E0" stroke-width="1" opacity="1">
		</path>
		<path fill="none" d="M 184.5 327 L 184.5 337" stroke="#C0D0E0" stroke-width="1" opacity="1">
		</path>
		<path fill="none" d="M 239.5 327 L 239.5 337" stroke="#C0D0E0" stroke-width="1" opacity="1">
		</path>
		<path fill="none" d="M 294.5 327 L 294.5 337" stroke="#C0D0E0" stroke-width="1" opacity="1">
		</path>
		<path fill="none" d="M 348.5 327 L 348.5 337" stroke="#C0D0E0" stroke-width="1" opacity="1">
		</path>
		<path fill="none" d="M 403.5 327 L 403.5 337" stroke="#C0D0E0" stroke-width="1" opacity="1">
		</path>
		<path fill="none" d="M 458.5 327 L 458.5 337" stroke="#C0D0E0" stroke-width="1" opacity="1">
		</path>
		<path fill="none" d="M 513.5 327 L 513.5 337" stroke="#C0D0E0" stroke-width="1" opacity="1">
		</path>
		<path fill="none" d="M 568.5 327 L 568.5 337" stroke="#C0D0E0" stroke-width="1" opacity="1">
		</path>
		<path fill="none" d="M 70 327.5 L 574 327.5" stroke="#C0D0E0" stroke-width="1">
		</path>
	</g>
	<g class="highcharts-axis">
		<text x="24.1" text-anchor="middle" transform="translate(0,0) rotate(270 24.1 186.5)" class=" highcharts-yaxis-title" style="color:#707070;fill:#707070;" y="186.5">Values
		</text>
	</g>
	<g class="highcharts-series-group">
		<g class="highcharts-series highcharts-series-0" transform="translate(70,46) scale(1 1)" clip-path="url(#highcharts-1)">
			<path fill="none" d="M 4.9 210.7 L 59.8 189.6 L 114.7 168.4 L 169.6 147.3 L 224.5 126.1 L 279.4 105.0 L 334.3 83.8 L 389.2 62.7 L 444.1 41.5 L 499.0 20.4" stroke="#7cb5ec" stroke-width="2" stroke-linejoin="round" stroke-linecap="round">
			</path>
			<path fill="none" d="M -5.0 210.7 L 4.9 210.7 L 59.8 189.6 L 114.7 168.4 L 169.6 147.3 L 224.5 126.1 L 279.4 105.0 L 334.3 83.8 L 389.2 62.7 L 444.1 41.5 L 499.0 20.4 L 509.0 20.4" stroke-linejoin="round" visibility="visible" stroke="rgb(192,192,192)" stroke-opacity="0.0" stroke-width="22" class=" highcharts-tracker" style="">
			</path>
		</g>
		<g class="highcharts-markers highcharts-series-0 highcharts-tracker" transform="translate(70,46) scale(1 1)" style="" clip-path="none">
			<path fill="#7cb5ec" d="M 499 16.4 C 504.3 16.4 504.3 24.4 499 24.4 C 493.6 24.4 493.6 16.4 499 16.4 Z">
			</path>
			<path fill="#7cb5ec" d="M 444 37.5 C 449.3 37.5 449.3 45.5 444 45.5 C 438.6 45.5 438.6 37.5 444 37.5 Z">
			</path>
			<path fill="#7cb5ec" d="M 389 58.7 C 394.3 58.7 394.3 66.7 389 66.7 C 383.6 66.7 383.6 58.7 389 58.7 Z">
			</path>
			<path fill="#7cb5ec" d="M 334 79.8 C 339.3 79.8 339.3 87.8 334 87.8 C 328.6 87.8 328.6 79.8 334 79.8 Z">
			</path>
			<path fill="#7cb5ec" d="M 279 101.0 C 284.3 101.0 284.3 109.0 279 109.0 C 273.6 109.0 273.6 101.0 279 101.0 Z">
			</path>
			<path fill="#7cb5ec" d="M 224 122.1 C 229.3 122.1 229.3 130.1 224 130.1 C 218.6 130.1 218.6 122.1 224 122.1 Z">
			</path>
			<path fill="#7cb5ec" d="M 169 143.3 C 174.3 143.3 174.3 151.3 169 151.3 C 163.6 151.3 163.6 143.3 169 143.3 Z">
			</path>
			<path fill="#7cb5ec" d="M 114 164.4 C 119.3 164.4 119.3 172.4 114 172.4 C 108.6 172.4 108.6 164.4 114 164.4 Z">
			</path>
			<path fill="#7cb5ec" d="M 59 185.6 C 64.3 185.6 64.3 193.6 59 193.6 C 53.6 193.6 53.6 185.6 59 185.6 Z">
			</path>
			<path fill="#7cb5ec" d="M 4 206.7 C 9.3 206.7 9.3 214.7 4 214.7 C -1.3 214.7 -1.3 206.7 4 206.7 Z">
			</path>
		</g>
	</g>
	<text x="292" text-anchor="middle" class="highcharts-title" style="color:#333333;font-size:18px;fill:#333333;width:520px;" y="24">
		<tspan>Logarithmic axis demo
		</tspan>
	</text>
	<g class="highcharts-legend" transform="translate(249,360)">
		<g>
			<g>
				<g class="highcharts-legend-item" transform="translate(8,3)">
					<path fill="none" d="M 0 11 L 16 11" stroke="#7cb5ec" stroke-width="2">
					</path>
					<path fill="#7cb5ec" d="M 8 7 C 13.3 7 13.3 15 8 15 C 2.6 15 2.6 7 8 7 Z">
					</path>
					<text x="21" style="color:#333333;font-size:12px;font-weight:bold;cursor:pointer;fill:#333333;" text-anchor="start" y="15">
						<tspan>Series 1
						</tspan>
					</text>
				</g>
			</g>
		</g>
	</g>
	<g class="highcharts-axis-labels highcharts-xaxis-labels">
		<text x="74.9" style="color:#606060;cursor:default;font-size:11px;fill:#606060;" text-anchor="middle" transform="translate(0,0)" y="346" opacity="1">1
		</text>
		<text x="129.8" style="color:#606060;cursor:default;font-size:11px;fill:#606060;" text-anchor="middle" transform="translate(0,0)" y="346" opacity="1">2
		</text>
		<text x="184.7" style="color:#606060;cursor:default;font-size:11px;fill:#606060;" text-anchor="middle" transform="translate(0,0)" y="346" opacity="1">3
		</text>
		<text x="239.6" style="color:#606060;cursor:default;font-size:11px;fill:#606060;" text-anchor="middle" transform="translate(0,0)" y="346" opacity="1">4
		</text>
		<text x="294.5" style="color:#606060;cursor:default;font-size:11px;fill:#606060;" text-anchor="middle" transform="translate(0,0)" y="346" opacity="1">5
		</text>
		<text x="349.4" style="color:#606060;cursor:default;font-size:11px;fill:#606060;" text-anchor="middle" transform="translate(0,0)" y="346" opacity="1">6
		</text>
		<text x="404.3" style="color:#606060;cursor:default;font-size:11px;fill:#606060;" text-anchor="middle" transform="translate(0,0)" y="346" opacity="1">7
		</text>
		<text x="459.2" style="color:#606060;cursor:default;font-size:11px;fill:#606060;" text-anchor="middle" transform="translate(0,0)" y="346" opacity="1">8
		</text>
		<text x="514.1" style="color:#606060;cursor:default;font-size:11px;fill:#606060;" text-anchor="middle" transform="translate(0,0)" y="346" opacity="1">9
		</text>
		<text x="567.0" style="color:#606060;cursor:default;font-size:11px;fill:#606060;" text-anchor="middle" transform="translate(0,0)" y="346" opacity="1">10
		</text>
	</g>
	<g class="highcharts-axis-labels highcharts-yaxis-labels">
		<text x="55" style="color:#606060;cursor:default;font-size:11px;fill:#606060;width:183px;text-overflow:clip;" text-anchor="end" transform="translate(0,0)" y="332" opacity="1">0.1
		</text>
		<text x="55" style="color:#606060;cursor:default;font-size:11px;fill:#606060;width:183px;text-overflow:clip;" text-anchor="end" transform="translate(0,0)" y="261" opacity="1">1
		</text>
		<text x="55" style="color:#606060;cursor:default;font-size:11px;fill:#606060;width:183px;text-overflow:clip;" text-anchor="end" transform="translate(0,0)" y="191" opacity="1">10
		</text>
		<text x="55" style="color:#606060;cursor:default;font-size:11px;fill:#606060;width:183px;text-overflow:clip;" text-anchor="end" transform="translate(0,0)" y="121" opacity="1">100
		</text>
		<text x="55" style="color:#606060;cursor:default;font-size:11px;fill:#606060;width:183px;text-overflow:clip;" text-anchor="end" transform="translate(0,0)" y="51" opacity="1">1k
		</text>
	</g>
	<g class="highcharts-tooltip" style="cursor:default;padding:0;pointer-events:none;white-space:nowrap;" transform="translate(0,-9999)">
		<path fill="none" d="M 3.5 0.5 L 13.5 0.5 C 16.5 0.5 16.5 0.5 16.5 3.5 L 16.5 13.5 C 16.5 16.5 16.5 16.5 13.5 16.5 L 3.5 16.5 C 0.5 16.5 0.5 16.5 0.5 13.5 L 0.5 3.5 C 0.5 0.5 0.5 0.5 3.5 0.5"  stroke="black" stroke-opacity="0.0" stroke-width="5" transform="translate(1, 1)">
		</path>
		<path fill="none" d="M 3.5 0.5 L 13.5 0.5 C 16.5 0.5 16.5 0.5 16.5 3.5 L 16.5 13.5 C 16.5 16.5 16.5 16.5 13.5 16.5 L 3.5 16.5 C 0.5 16.5 0.5 16.5 0.5 13.5 L 0.5 3.5 C 0.5 0.5 0.5 0.5 3.5 0.5"  stroke="black" stroke-opacity="0.0" stroke-width="3" transform="translate(1, 1)">
		</path>
		<path fill="none" d="M 3.5 0.5 L 13.5 0.5 C 16.5 0.5 16.5 0.5 16.5 3.5 L 16.5 13.5 C 16.5 16.5 16.5 16.5 13.5 16.5 L 3.5 16.5 C 0.5 16.5 0.5 16.5 0.5 13.5 L 0.5 3.5 C 0.5 0.5 0.5 0.5 3.5 0.5"  stroke="black" stroke-opacity="0.1" stroke-width="1" transform="translate(1, 1)">
		</path>
		<path fill="rgb(249, 249, 249)" fill-opacity=" .85" d="M 3.5 0.5 L 13.5 0.5 C 16.5 0.5 16.5 0.5 16.5 3.5 L 16.5 13.5 C 16.5 16.5 16.5 16.5 13.5 16.5 L 3.5 16.5 C 0.5 16.5 0.5 16.5 0.5 13.5 L 0.5 3.5 C 0.5 0.5 0.5 0.5 3.5 0.5">
		</path>
		<text x="8" style="font-size:12px;color:#333333;fill:#333333;" y="20">
		</text>
	</g>
</svg>