
<svg version="1.1" style="font-family:&quot;lucida grande&quot;, &quot;lucida sans unicode&quot;, arial, helvetica, sans-serif;font-size:12px;" xmlns="http://www.w3.org/2000/svg" viewBox="0 0 584 400">
	<desc>Created with Highcharts 4.2.4
	</desc>
	<defs>
		<clipPath id="highcharts-1">
			<rect x="0" y="0" width="511" height="266">
			</rect>
		</clipPath>
	</defs>
	<rect x="0" y="0" width="584" height="400" fill="#FFFFFF" class=" highcharts-background" stroke="transparent">
	</rect>
	<g class="highcharts-grid">
	</g>
	<g class="highcharts-grid">
		<path fill="none" d="M 63 327.5 L 574 327.5" stroke="#D8D8D8" stroke-width="1" opacity="1">
		</path>
		<path fill="none" d="M 63 283.5 L 574 283.5" stroke="#D8D8D8" stroke-width="1" opacity="1">
		</path>
		<path fill="none" d="M 63 238.5 L 574 238.5" stroke="#D8D8D8" stroke-width="1" opacity="1">
		</path>
		<path fill="none" d="M 63 194.5 L 574 194.5" stroke="#D8D8D8" stroke-width="1" opacity="1">
		</path>
		<path fill="none" d="M 63 150.5 L 574 150.5" stroke="#D8D8D8" stroke-width="1" opacity="1">
		</path>
		<path fill="none" d="M 63 105.5 L 574 105.5" stroke="#D8D8D8" stroke-width="1" opacity="1">
		</path>
		<path fill="none" d="M 63 60.5 L 574 60.5" stroke="#D8D8D8" stroke-width="1" opacity="1">
		</path>
	</g>
	<g class="highcharts-axis">
		<path fill="none" d="M 105.5 327 L 105.5 337" stroke="#C0D0E0" stroke-width="1" opacity="1">
		</path>
		<path fill="none" d="M 147.5 327 L 147.5 337" stroke="#C0D0E0" stroke-width="1" opacity="1">
		</path>
		<path fill="none" d="M 190.5 327 L 190.5 337" stroke="#C0D0E0" stroke-width="1" opacity="1">
		</path>
		<path fill="none" d="M 232.5 327 L 232.5 337" stroke="#C0D0E0" stroke-width="1" opacity="1">
		</path>
		<path fill="none" d="M 275.5 327 L 275.5 337" stroke="#C0D0E0" stroke-width="1" opacity="1">
		</path>
		<path fill="none" d="M 318.5 327 L 318.5 337" stroke="#C0D0E0" stroke-width="1" opacity="1">
		</path>
		<path fill="none" d="M 360.5 327 L 360.5 337" stroke="#C0D0E0" stroke-width="1" opacity="1">
		</path>
		<path fill="none" d="M 403.5 327 L 403.5 337" stroke="#C0D0E0" stroke-width="1" opacity="1">
		</path>
		<path fill="none" d="M 445.5 327 L 445.5 337" stroke="#C0D0E0" stroke-width="1" opacity="1">
		</path>
		<path fill="none" d="M 488.5 327 L 488.5 337" stroke="#C0D0E0" stroke-width="1" opacity="1">
		</path>
		<path fill="none" d="M 530.5 327 L 530.5 337" stroke="#C0D0E0" stroke-width="1" opacity="1">
		</path>
		<path fill="none" d="M 574.5 327 L 574.5 337" stroke="#C0D0E0" stroke-width="1" opacity="1">
		</path>
		<path fill="none" d="M 62.5 327 L 62.5 337" stroke="#C0D0E0" stroke-width="1" opacity="1">
		</path>
		<path fill="none" d="M 63 327.5 L 574 327.5" stroke="#C0D0E0" stroke-width="1">
		</path>
	</g>
	<g class="highcharts-axis">
		<text x="24.0" text-anchor="middle" transform="translate(0,0) rotate(270 24.0 194)" class=" highcharts-yaxis-title" style="color:#707070;fill:#707070;" y="194">
			<tspan>Temperature (°C)
			</tspan>
		</text>
	</g>
	<g class="highcharts-series-group">
		<g class="highcharts-series highcharts-series-0" transform="translate(63,61) scale(1 1)" clip-path="url(#highcharts-1)">
			<path fill="none" d="M 21.2 203.9 L 63.8 204.8 L 106.4 181.7 L 149.0 137.4 L 191.6 102.8 L 234.2 75.3 L 276.7 42.5 L 319.3 31.0 L 361.9 59.4 L 404.5 103.7 L 447.1 142.7 L 489.7 180.8" stroke="#7cb5ec" stroke-width="2" stroke-linejoin="round" stroke-linecap="round">
			</path>
		</g>
		<g class="highcharts-markers highcharts-series-0" transform="translate(63,61) scale(1 1)" clip-path="none">
			<path fill="#7cb5ec" d="M 489 176.8 C 494.3 176.8 494.3 184.8 489 184.8 C 483.6 184.8 483.6 176.8 489 176.8 Z">
			</path>
			<path fill="#7cb5ec" d="M 447 138.7 C 452.3 138.7 452.3 146.7 447 146.7 C 441.6 146.7 441.6 138.7 447 138.7 Z">
			</path>
			<path fill="#7cb5ec" d="M 404 99.7 C 409.3 99.7 409.3 107.7 404 107.7 C 398.6 107.7 398.6 99.7 404 99.7 Z">
			</path>
			<path fill="#7cb5ec" d="M 361 55.4 C 366.3 55.4 366.3 63.4 361 63.4 C 355.6 63.4 355.6 55.4 361 55.4 Z">
			</path>
			<path fill="#7cb5ec" d="M 319 27.0 C 324.3 27.0 324.3 35.0 319 35.0 C 313.6 35.0 313.6 27.0 319 27.0 Z">
			</path>
			<path fill="#7cb5ec" d="M 276 38.5 C 281.3 38.5 281.3 46.5 276 46.5 C 270.6 46.5 270.6 38.5 276 38.5 Z">
			</path>
			<path fill="#7cb5ec" d="M 234 71.3 C 239.3 71.3 239.3 79.3 234 79.3 C 228.6 79.3 228.6 71.3 234 71.3 Z">
			</path>
			<path fill="#7cb5ec" d="M 191 98.8 C 196.3 98.8 196.3 106.8 191 106.8 C 185.6 106.8 185.6 98.8 191 98.8 Z">
			</path>
			<path fill="#7cb5ec" d="M 149 133.4 C 154.3 133.4 154.3 141.4 149 141.4 C 143.6 141.4 143.6 133.4 149 133.4 Z">
			</path>
			<path fill="#7cb5ec" d="M 106 177.7 C 111.3 177.7 111.3 185.7 106 185.7 C 100.6 185.7 100.6 177.7 106 177.7 Z">
			</path>
			<path fill="#7cb5ec" d="M 63 200.8 C 68.3 200.8 68.3 208.8 63 208.8 C 57.6 208.8 57.6 200.8 63 200.8 Z">
			</path>
			<path fill="#7cb5ec" d="M 21 199.9 C 26.3 199.9 26.3 207.9 21 207.9 C 15.6 207.9 15.6 199.9 21 199.9 Z">
			</path>
		</g>
		<g class="highcharts-series highcharts-series-1" transform="translate(63,61) scale(1 1)" clip-path="url(#highcharts-1)">
			<path fill="none" d="M 21.2 231.4 L 63.8 228.7 L 106.4 215.4 L 149.0 190.6 L 191.6 160.4 L 234.2 131.2 L 276.7 115.2 L 319.3 118.8 L 361.9 140.0 L 404.5 174.6 L 447.1 207.4 L 489.7 223.4" stroke="#434348" stroke-width="2" stroke-linejoin="round" stroke-linecap="round">
			</path>
		</g>
		<g class="highcharts-markers highcharts-series-1" transform="translate(63,61) scale(1 1)" clip-path="none">
			<path fill="#434348" d="M 489 219.4 L 493 223.4 489 227.4 485 223.4 Z">
			</path>
			<path fill="#434348" d="M 447 203.4 L 451 207.4 447 211.4 443 207.4 Z">
			</path>
			<path fill="#434348" d="M 404 170.6 L 408 174.6 404 178.6 400 174.6 Z">
			</path>
			<path fill="#434348" d="M 361 136.0 L 365 140.0 361 144.0 357 140.0 Z">
			</path>
			<path fill="#434348" d="M 319 114.8 L 323 118.8 319 122.8 315 118.8 Z">
			</path>
			<path fill="#434348" d="M 276 111.2 L 280 115.2 276 119.2 272 115.2 Z">
			</path>
			<path fill="#434348" d="M 234 127.2 L 238 131.2 234 135.2 230 131.2 Z">
			</path>
			<path fill="#434348" d="M 191 156.4 L 195 160.4 191 164.4 187 160.4 Z">
			</path>
			<path fill="#434348" d="M 149 186.6 L 153 190.6 149 194.6 145 190.6 Z">
			</path>
			<path fill="#434348" d="M 106 211.4 L 110 215.4 106 219.4 102 215.4 Z">
			</path>
			<path fill="#434348" d="M 63 224.7 L 67 228.7 63 232.7 59 228.7 Z">
			</path>
			<path fill="#434348" d="M 21 227.4 L 25 231.4 21 235.4 17 231.4 Z">
			</path>
		</g>
	</g>
	<text x="292" text-anchor="middle" class="highcharts-title" style="color:#333333;font-size:18px;fill:#333333;width:520px;" y="24">
		<tspan>Monthly Average Temperature
		</tspan>
	</text>
	<text x="292" text-anchor="middle" class="highcharts-subtitle" style="color:#555555;fill:#555555;width:520px;" y="45">
		<tspan>Source: WorldClimate.com
		</tspan>
	</text>
	<g class="highcharts-data-labels highcharts-series-0" visibility="visible" transform="translate(63,61) scale(1 1)">
		<g style="" transform="translate(13,181)">
			<text x="5" style="font-size:11px;font-weight:bold;color:#000000;text-shadow:0 0 6px #ffffff, 0 0 3px #ffffff;fill:#000000;text-rendering:geometricprecision;" y="16">
				<tspan>7
				</tspan>
			</text>
		</g>
		<g style="" transform="translate(50,182)">
			<text x="5" style="font-size:11px;font-weight:bold;color:#000000;text-shadow:0 0 6px #ffffff, 0 0 3px #ffffff;fill:#000000;text-rendering:geometricprecision;" y="16">
				<tspan>6.9
				</tspan>
			</text>
		</g>
		<g style="" transform="translate(93,159)">
			<text x="5" style="font-size:11px;font-weight:bold;color:#000000;text-shadow:0 0 6px #ffffff, 0 0 3px #ffffff;fill:#000000;text-rendering:geometricprecision;" y="16">
				<tspan>9.5
				</tspan>
			</text>
		</g>
		<g style="" transform="translate(132,114)">
			<text x="5" style="font-size:11px;font-weight:bold;color:#000000;text-shadow:0 0 6px #ffffff, 0 0 3px #ffffff;fill:#000000;text-rendering:geometricprecision;" y="16">
				<tspan>14.5
				</tspan>
			</text>
		</g>
		<g style="" transform="translate(174,80)">
			<text x="5" style="font-size:11px;font-weight:bold;color:#000000;text-shadow:0 0 6px #ffffff, 0 0 3px #ffffff;fill:#000000;text-rendering:geometricprecision;" y="16">
				<tspan>18.4
				</tspan>
			</text>
		</g>
		<g style="" transform="translate(217,52)">
			<text x="5" style="font-size:11px;font-weight:bold;color:#000000;text-shadow:0 0 6px #ffffff, 0 0 3px #ffffff;fill:#000000;text-rendering:geometricprecision;" y="16">
				<tspan>21.5
				</tspan>
			</text>
		</g>
		<g style="" transform="translate(260,20)">
			<text x="5" style="font-size:11px;font-weight:bold;color:#000000;text-shadow:0 0 6px #ffffff, 0 0 3px #ffffff;fill:#000000;text-rendering:geometricprecision;" y="16">
				<tspan>25.2
				</tspan>
			</text>
		</g>
		<g style="" transform="translate(302,8)">
			<text x="5" style="font-size:11px;font-weight:bold;color:#000000;text-shadow:0 0 6px #ffffff, 0 0 3px #ffffff;fill:#000000;text-rendering:geometricprecision;" y="16">
				<tspan>26.5
				</tspan>
			</text>
		</g>
		<g style="" transform="translate(345,36)">
			<text x="5" style="font-size:11px;font-weight:bold;color:#000000;text-shadow:0 0 6px #ffffff, 0 0 3px #ffffff;fill:#000000;text-rendering:geometricprecision;" y="16">
				<tspan>23.3
				</tspan>
			</text>
		</g>
		<g style="" transform="translate(387,81)">
			<text x="5" style="font-size:11px;font-weight:bold;color:#000000;text-shadow:0 0 6px #ffffff, 0 0 3px #ffffff;fill:#000000;text-rendering:geometricprecision;" y="16">
				<tspan>18.3
				</tspan>
			</text>
		</g>
		<g style="" transform="translate(430,120)">
			<text x="5" style="font-size:11px;font-weight:bold;color:#000000;text-shadow:0 0 6px #ffffff, 0 0 3px #ffffff;fill:#000000;text-rendering:geometricprecision;" y="16">
				<tspan>13.9
				</tspan>
			</text>
		</g>
		<g style="" transform="translate(476,158)">
			<text x="5" style="font-size:11px;font-weight:bold;color:#000000;text-shadow:0 0 6px #ffffff, 0 0 3px #ffffff;fill:#000000;text-rendering:geometricprecision;" y="16">
				<tspan>9.6
				</tspan>
			</text>
		</g>
	</g>
	<g class="highcharts-data-labels highcharts-series-1" visibility="visible" transform="translate(63,61) scale(1 1)">
		<g style="" transform="translate(8,208)">
			<text x="5" style="font-size:11px;font-weight:bold;color:#000000;text-shadow:0 0 6px #ffffff, 0 0 3px #ffffff;fill:#000000;text-rendering:geometricprecision;" y="16">
				<tspan>3.9
				</tspan>
			</text>
		</g>
		<g style="" transform="translate(50,206)">
			<text x="5" style="font-size:11px;font-weight:bold;color:#000000;text-shadow:0 0 6px #ffffff, 0 0 3px #ffffff;fill:#000000;text-rendering:geometricprecision;" y="16">
				<tspan>4.2
				</tspan>
			</text>
		</g>
		<g style="" transform="translate(93,192)">
			<text x="5" style="font-size:11px;font-weight:bold;color:#000000;text-shadow:0 0 6px #ffffff, 0 0 3px #ffffff;fill:#000000;text-rendering:geometricprecision;" y="16">
				<tspan>5.7
				</tspan>
			</text>
		</g>
		<g style="" transform="translate(135,168)">
			<text x="5" style="font-size:11px;font-weight:bold;color:#000000;text-shadow:0 0 6px #ffffff, 0 0 3px #ffffff;fill:#000000;text-rendering:geometricprecision;" y="16">
				<tspan>8.5
				</tspan>
			</text>
		</g>
		<g style="" transform="translate(174,137)">
			<text x="5" style="font-size:11px;font-weight:bold;color:#000000;text-shadow:0 0 6px #ffffff, 0 0 3px #ffffff;fill:#000000;text-rendering:geometricprecision;" y="16">
				<tspan>11.9
				</tspan>
			</text>
		</g>
		<g style="" transform="translate(217,108)">
			<text x="5" style="font-size:11px;font-weight:bold;color:#000000;text-shadow:0 0 6px #ffffff, 0 0 3px #ffffff;fill:#000000;text-rendering:geometricprecision;" y="16">
				<tspan>15.2
				</tspan>
			</text>
		</g>
		<g style="" transform="translate(265,92)">
			<text x="5" style="font-size:11px;font-weight:bold;color:#000000;text-shadow:0 0 6px #ffffff, 0 0 3px #ffffff;fill:#000000;text-rendering:geometricprecision;" y="16">
				<tspan>17
				</tspan>
			</text>
		</g>
		<g style="" transform="translate(302,96)">
			<text x="5" style="font-size:11px;font-weight:bold;color:#000000;text-shadow:0 0 6px #ffffff, 0 0 3px #ffffff;fill:#000000;text-rendering:geometricprecision;" y="16">
				<tspan>16.6
				</tspan>
			</text>
		</g>
		<g style="" transform="translate(345,117)">
			<text x="5" style="font-size:11px;font-weight:bold;color:#000000;text-shadow:0 0 6px #ffffff, 0 0 3px #ffffff;fill:#000000;text-rendering:geometricprecision;" y="16">
				<tspan>14.2
				</tspan>
			</text>
		</g>
		<g style="" transform="translate(387,152)">
			<text x="5" style="font-size:11px;font-weight:bold;color:#000000;text-shadow:0 0 6px #ffffff, 0 0 3px #ffffff;fill:#000000;text-rendering:geometricprecision;" y="16">
				<tspan>10.3
				</tspan>
			</text>
		</g>
		<g style="" transform="translate(434,184)">
			<text x="5" style="font-size:11px;font-weight:bold;color:#000000;text-shadow:0 0 6px #ffffff, 0 0 3px #ffffff;fill:#000000;text-rendering:geometricprecision;" y="16">
				<tspan>6.6
				</tspan>
			</text>
		</g>
		<g style="" transform="translate(476,200)">
			<text x="5" style="font-size:11px;font-weight:bold;color:#000000;text-shadow:0 0 6px #ffffff, 0 0 3px #ffffff;fill:#000000;text-rendering:geometricprecision;" y="16">
				<tspan>4.8
				</tspan>
			</text>
		</g>
	</g>
	<g class="highcharts-legend" transform="translate(211,360)">
		<g>
			<g>
				<g class="highcharts-legend-item" transform="translate(8,3)">
					<path fill="none" d="M 0 11 L 16 11" stroke="#7cb5ec" stroke-width="2">
					</path>
					<path fill="#7cb5ec" d="M 8 7 C 13.3 7 13.3 15 8 15 C 2.6 15 2.6 7 8 7 Z">
					</path>
					<text x="21" style="color:#333333;font-size:12px;font-weight:bold;cursor:pointer;fill:#333333;" text-anchor="start" y="15">Tokyo
					</text>
				</g>
				<g class="highcharts-legend-item" transform="translate(87.1,3)">
					<path fill="none" d="M 0 11 L 16 11" stroke="#434348" stroke-width="2">
					</path>
					<path fill="#434348" d="M 8 7 L 12 11 8 15 4 11 Z">
					</path>
					<text x="21" y="15" style="color:#333333;font-size:12px;font-weight:bold;cursor:pointer;fill:#333333;" text-anchor="start">London
					</text>
				</g>
			</g>
		</g>
	</g>
	<g class="highcharts-axis-labels highcharts-xaxis-labels">
		<text x="84.2" style="color:#606060;cursor:default;font-size:11px;fill:#606060;" text-anchor="middle" transform="translate(0,0)" y="346" opacity="1">Jan
		</text>
		<text x="126.8" style="color:#606060;cursor:default;font-size:11px;fill:#606060;" text-anchor="middle" transform="translate(0,0)" y="346" opacity="1">Feb
		</text>
		<text x="169.4" style="color:#606060;cursor:default;font-size:11px;fill:#606060;" text-anchor="middle" transform="translate(0,0)" y="346" opacity="1">Mar
		</text>
		<text x="212.0" style="color:#606060;cursor:default;font-size:11px;fill:#606060;" text-anchor="middle" transform="translate(0,0)" y="346" opacity="1">Apr
		</text>
		<text x="254.6" style="color:#606060;cursor:default;font-size:11px;fill:#606060;" text-anchor="middle" transform="translate(0,0)" y="346" opacity="1">May
		</text>
		<text x="297.2" style="color:#606060;cursor:default;font-size:11px;fill:#606060;" text-anchor="middle" transform="translate(0,0)" y="346" opacity="1">Jun
		</text>
		<text x="339.7" style="color:#606060;cursor:default;font-size:11px;fill:#606060;" text-anchor="middle" transform="translate(0,0)" y="346" opacity="1">Jul
		</text>
		<text x="382.3" style="color:#606060;cursor:default;font-size:11px;fill:#606060;" text-anchor="middle" transform="translate(0,0)" y="346" opacity="1">Aug
		</text>
		<text x="424.9" style="color:#606060;cursor:default;font-size:11px;fill:#606060;" text-anchor="middle" transform="translate(0,0)" y="346" opacity="1">Sep
		</text>
		<text x="467.5" style="color:#606060;cursor:default;font-size:11px;fill:#606060;" text-anchor="middle" transform="translate(0,0)" y="346" opacity="1">Oct
		</text>
		<text x="510.1" style="color:#606060;cursor:default;font-size:11px;fill:#606060;" text-anchor="middle" transform="translate(0,0)" y="346" opacity="1">Nov
		</text>
		<text x="552.7" style="color:#606060;cursor:default;font-size:11px;fill:#606060;" text-anchor="middle" transform="translate(0,0)" y="346" opacity="1">Dec
		</text>
	</g>
	<g class="highcharts-axis-labels highcharts-yaxis-labels">
		<text x="48" style="color:#606060;cursor:default;font-size:11px;fill:#606060;width:183px;text-overflow:clip;" text-anchor="end" transform="translate(0,0)" y="332" opacity="1">0
		</text>
		<text x="48" style="color:#606060;cursor:default;font-size:11px;fill:#606060;width:183px;text-overflow:clip;" text-anchor="end" transform="translate(0,0)" y="287" opacity="1">5
		</text>
		<text x="48" style="color:#606060;cursor:default;font-size:11px;fill:#606060;width:183px;text-overflow:clip;" text-anchor="end" transform="translate(0,0)" y="243" opacity="1">10
		</text>
		<text x="48" style="color:#606060;cursor:default;font-size:11px;fill:#606060;width:183px;text-overflow:clip;" text-anchor="end" transform="translate(0,0)" y="199" opacity="1">15
		</text>
		<text x="48" style="color:#606060;cursor:default;font-size:11px;fill:#606060;width:183px;text-overflow:clip;" text-anchor="end" transform="translate(0,0)" y="154" opacity="1">20
		</text>
		<text x="48" style="color:#606060;cursor:default;font-size:11px;fill:#606060;width:183px;text-overflow:clip;" text-anchor="end" transform="translate(0,0)" y="110" opacity="1">25
		</text>
		<text x="48" style="color:#606060;cursor:default;font-size:11px;fill:#606060;width:183px;text-overflow:clip;" text-anchor="end" transform="translate(0,0)" y="66" opacity="1">30
		</text>
	</g>
	<g class="highcharts-tooltip" style="cursor:default;padding:0;pointer-events:none;white-space:nowrap;" transform="translate(0,-9999)">
		<path fill="none" d="M 3.5 0.5 L 13.5 0.5 C 16.5 0.5 16.5 0.5 16.5 3.5 L 16.5 13.5 C 16.5 16.5 16.5 16.5 13.5 16.5 L 3.5 16.5 C 0.5 16.5 0.5 16.5 0.5 13.5 L 0.5 3.5 C 0.5 0.5 0.5 0.5 3.5 0.5"  stroke="black" stroke-opacity="0.0" stroke-width="5" transform="translate(1, 1)">
		</path>
		<path fill="none" d="M 3.5 0.5 L 13.5 0.5 C 16.5 0.5 16.5 0.5 16.5 3.5 L 16.5 13.5 C 16.5 16.5 16.5 16.5 13.5 16.5 L 3.5 16.5 C 0.5 16.5 0.5 16.5 0.5 13.5 L 0.5 3.5 C 0.5 0.5 0.5 0.5 3.5 0.5"  stroke="black" stroke-opacity="0.0" stroke-width="3" transform="translate(1, 1)">
		</path>
		<path fill="none" d="M 3.5 0.5 L 13.5 0.5 C 16.5 0.5 16.5 0.5 16.5 3.5 L 16.5 13.5 C 16.5 16.5 16.5 16.5 13.5 16.5 L 3.5 16.5 C 0.5 16.5 0.5 16.5 0.5 13.5 L 0.5 3.5 C 0.5 0.5 0.5 0.5 3.5 0.5"  stroke="black" stroke-opacity="0.1" stroke-width="1" transform="translate(1, 1)">
		</path>
		<path fill="rgb(249, 249, 249)" fill-opacity=" .85" d="M 3.5 0.5 L 13.5 0.5 C 16.5 0.5 16.5 0.5 16.5 3.5 L 16.5 13.5 C 16.5 16.5 16.5 16.5 13.5 16.5 L 3.5 16.5 C 0.5 16.5 0.5 16.5 0.5 13.5 L 0.5 3.5 C 0.5 0.5 0.5 0.5 3.5 0.5">
		</path>
		<text x="8" style="font-size:12px;color:#333333;fill:#333333;" y="20">
		</text>
	</g>
</svg>