
<svg version="1.1" style="font-family:&quot;lucida grande&quot;, &quot;lucida sans unicode&quot;, arial, helvetica, sans-serif;font-size:12px;" xmlns="http://www.w3.org/2000/svg" viewBox="0 0 584 400">
	<desc>Created with Highcharts 4.2.4
	</desc>
	<defs>
		<clipPath id="highcharts-1">
			<rect x="0" y="0" width="403" height="303">
			</rect>
		</clipPath>
	</defs>
	<rect x="0" y="0" width="584" height="400" fill="#FFFFFF" class=" highcharts-background" stroke="transparent">
	</rect>
	<path fill="none" d="M 63 321.5 L 466 321.5" stroke="#808080" stroke-width="1">
	</path>
	<g class="highcharts-grid">
	</g>
	<g class="highcharts-grid">
		<path fill="none" d="M 63 364.5 L 466 364.5" stroke="#D8D8D8" stroke-width="1" opacity="1">
		</path>
		<path fill="none" d="M 63 321.5 L 466 321.5" stroke="#D8D8D8" stroke-width="1" opacity="1">
		</path>
		<path fill="none" d="M 63 277.5 L 466 277.5" stroke="#D8D8D8" stroke-width="1" opacity="1">
		</path>
		<path fill="none" d="M 63 234.5 L 466 234.5" stroke="#D8D8D8" stroke-width="1" opacity="1">
		</path>
		<path fill="none" d="M 63 191.5 L 466 191.5" stroke="#D8D8D8" stroke-width="1" opacity="1">
		</path>
		<path fill="none" d="M 63 148.5 L 466 148.5" stroke="#D8D8D8" stroke-width="1" opacity="1">
		</path>
		<path fill="none" d="M 63 104.5 L 466 104.5" stroke="#D8D8D8" stroke-width="1" opacity="1">
		</path>
		<path fill="none" d="M 63 60.5 L 466 60.5" stroke="#D8D8D8" stroke-width="1" opacity="1">
		</path>
	</g>
	<g class="highcharts-axis">
		<path fill="none" d="M 96.5 364 L 96.5 374" stroke="#C0D0E0" stroke-width="1" opacity="1">
		</path>
		<path fill="none" d="M 129.5 364 L 129.5 374" stroke="#C0D0E0" stroke-width="1" opacity="1">
		</path>
		<path fill="none" d="M 163.5 364 L 163.5 374" stroke="#C0D0E0" stroke-width="1" opacity="1">
		</path>
		<path fill="none" d="M 196.5 364 L 196.5 374" stroke="#C0D0E0" stroke-width="1" opacity="1">
		</path>
		<path fill="none" d="M 230.5 364 L 230.5 374" stroke="#C0D0E0" stroke-width="1" opacity="1">
		</path>
		<path fill="none" d="M 264.5 364 L 264.5 374" stroke="#C0D0E0" stroke-width="1" opacity="1">
		</path>
		<path fill="none" d="M 297.5 364 L 297.5 374" stroke="#C0D0E0" stroke-width="1" opacity="1">
		</path>
		<path fill="none" d="M 331.5 364 L 331.5 374" stroke="#C0D0E0" stroke-width="1" opacity="1">
		</path>
		<path fill="none" d="M 364.5 364 L 364.5 374" stroke="#C0D0E0" stroke-width="1" opacity="1">
		</path>
		<path fill="none" d="M 398.5 364 L 398.5 374" stroke="#C0D0E0" stroke-width="1" opacity="1">
		</path>
		<path fill="none" d="M 431.5 364 L 431.5 374" stroke="#C0D0E0" stroke-width="1" opacity="1">
		</path>
		<path fill="none" d="M 465.5 364 L 465.5 374" stroke="#C0D0E0" stroke-width="1" opacity="1">
		</path>
		<path fill="none" d="M 62.5 364 L 62.5 374" stroke="#C0D0E0" stroke-width="1" opacity="1">
		</path>
		<path fill="none" d="M 63 364.5 L 466 364.5" stroke="#C0D0E0" stroke-width="1">
		</path>
	</g>
	<g class="highcharts-axis">
		<text x="24.0" text-anchor="middle" transform="translate(0,0) rotate(270 24.0 212.5)" class=" highcharts-yaxis-title" style="color:#707070;fill:#707070;" y="212.5">
			<tspan>Temperature (°C)
			</tspan>
		</text>
	</g>
	<g class="highcharts-series-group">
		<g class="highcharts-series highcharts-series-0" transform="translate(63,61) scale(1 1)" clip-path="url(#highcharts-1)">
			<path fill="none" d="M 16.7 199.1 L 50.3 199.9 L 83.9 177.4 L 117.5 134.1 L 151.1 102.1 L 184.7 73.5 L 218.2 41.5 L 251.8 30.3 L 285.4 58.0 L 319.0 101.2 L 352.6 139.3 L 386.2 176.6" stroke="#7cb5ec" stroke-width="2" stroke-linejoin="round" stroke-linecap="round">
			</path>
			<path fill="none" d="M 6.7 199.1 L 16.7 199.1 L 50.3 199.9 L 83.9 177.4 L 117.5 134.1 L 151.1 102.1 L 184.7 73.5 L 218.2 41.5 L 251.8 30.3 L 285.4 58.0 L 319.0 101.2 L 352.6 139.3 L 386.2 176.6 L 396.2 176.6" stroke-linejoin="round" visibility="visible" stroke="rgb(192,192,192)" stroke-opacity="0.0" stroke-width="22" class=" highcharts-tracker" style="">
			</path>
		</g>
		<g class="highcharts-markers highcharts-series-0 highcharts-tracker" transform="translate(63,61) scale(1 1)" style="" clip-path="none">
			<path fill="#7cb5ec" d="M 386 172.6 C 391.3 172.6 391.3 180.6 386 180.6 C 380.6 180.6 380.6 172.6 386 172.6 Z">
			</path>
			<path fill="#7cb5ec" d="M 352 135.3 C 357.3 135.3 357.3 143.3 352 143.3 C 346.6 143.3 346.6 135.3 352 135.3 Z">
			</path>
			<path fill="#7cb5ec" d="M 319 97.2 C 324.3 97.2 324.3 105.2 319 105.2 C 313.6 105.2 313.6 97.2 319 97.2 Z">
			</path>
			<path fill="#7cb5ec" d="M 285 54.0 C 290.3 54.0 290.3 62.0 285 62.0 C 279.6 62.0 279.6 54.0 285 54.0 Z">
			</path>
			<path fill="#7cb5ec" d="M 251 26.3 C 256.3 26.3 256.3 34.3 251 34.3 C 245.6 34.3 245.6 26.3 251 26.3 Z">
			</path>
			<path fill="#7cb5ec" d="M 218 37.5 C 223.3 37.5 223.3 45.5 218 45.5 C 212.6 45.5 212.6 37.5 218 37.5 Z">
			</path>
			<path fill="#7cb5ec" d="M 184 69.5 C 189.3 69.5 189.3 77.5 184 77.5 C 178.6 77.5 178.6 69.5 184 69.5 Z">
			</path>
			<path fill="#7cb5ec" d="M 151 98.1 C 156.3 98.1 156.3 106.1 151 106.1 C 145.6 106.1 145.6 98.1 151 98.1 Z">
			</path>
			<path fill="#7cb5ec" d="M 117 130.1 C 122.3 130.1 122.3 138.1 117 138.1 C 111.6 138.1 111.6 130.1 117 130.1 Z">
			</path>
			<path fill="#7cb5ec" d="M 83 173.4 C 88.3 173.4 88.3 181.4 83 181.4 C 77.6 181.4 77.6 173.4 83 173.4 Z">
			</path>
			<path fill="#7cb5ec" d="M 50 195.9 C 55.3 195.9 55.3 203.9 50 203.9 C 44.6 203.9 44.6 195.9 50 195.9 Z">
			</path>
			<path fill="#7cb5ec" d="M 16 195.1 C 21.3 195.1 21.3 203.1 16 203.1 C 10.6 203.1 10.6 195.1 16 195.1 Z">
			</path>
		</g>
		<g class="highcharts-series highcharts-series-1" transform="translate(63,61) scale(1 1)" clip-path="url(#highcharts-1)">
			<path fill="none" d="M 16.7 261.4 L 50.3 252.7 L 83.9 210.3 L 117.5 161.8 L 151.1 112.5 L 184.7 69.2 L 218.2 45.0 L 251.8 51.0 L 285.4 85.7 L 319.0 137.6 L 352.6 185.2 L 386.2 238.0" stroke="#434348" stroke-width="2" stroke-linejoin="round" stroke-linecap="round">
			</path>
			<path fill="none" d="M 6.7 261.4 L 16.7 261.4 L 50.3 252.7 L 83.9 210.3 L 117.5 161.8 L 151.1 112.5 L 184.7 69.2 L 218.2 45.0 L 251.8 51.0 L 285.4 85.7 L 319.0 137.6 L 352.6 185.2 L 386.2 238.0 L 396.2 238.0" stroke-linejoin="round" visibility="visible" stroke="rgb(192,192,192)" stroke-opacity="0.0" stroke-width="22" class=" highcharts-tracker" style="">
			</path>
		</g>
		<g class="highcharts-markers highcharts-series-1 highcharts-tracker" transform="translate(63,61) scale(1 1)" style="" clip-path="none">
			<path fill="#434348" d="M 386 234.0 L 390 238.0 386 242.0 382 238.0 Z">
			</path>
			<path fill="#434348" d="M 352 181.2 L 356 185.2 352 189.2 348 185.2 Z">
			</path>
			<path fill="#434348" d="M 319 133.6 L 323 137.6 319 141.6 315 137.6 Z">
			</path>
			<path fill="#434348" d="M 285 81.7 L 289 85.7 285 89.7 281 85.7 Z">
			</path>
			<path fill="#434348" d="M 251 47.0 L 255 51.0 251 55.0 247 51.0 Z">
			</path>
			<path fill="#434348" d="M 218 41.0 L 222 45.0 218 49.0 214 45.0 Z">
			</path>
			<path fill="#434348" d="M 184 65.2 L 188 69.2 184 73.2 180 69.2 Z">
			</path>
			<path fill="#434348" d="M 151 108.5 L 155 112.5 151 116.5 147 112.5 Z">
			</path>
			<path fill="#434348" d="M 117 157.8 L 121 161.8 117 165.8 113 161.8 Z">
			</path>
			<path fill="#434348" d="M 83 206.3 L 87 210.3 83 214.3 79 210.3 Z">
			</path>
			<path fill="#434348" d="M 50 248.7 L 54 252.7 50 256.7 46 252.7 Z">
			</path>
			<path fill="#434348" d="M 16 257.4 L 20 261.4 16 265.4 12 261.4 Z">
			</path>
		</g>
		<g class="highcharts-series highcharts-series-2" transform="translate(63,61) scale(1 1)" clip-path="url(#highcharts-1)">
			<path fill="none" d="M 16.7 267.5 L 50.3 254.5 L 83.9 229.4 L 117.5 186.9 L 151.1 142.8 L 184.7 112.5 L 218.2 98.6 L 251.8 104.7 L 285.4 135.9 L 319.0 181.8 L 352.6 225.9 L 386.2 251.0" stroke="#90ed7d" stroke-width="2" stroke-linejoin="round" stroke-linecap="round">
			</path>
			<path fill="none" d="M 6.7 267.5 L 16.7 267.5 L 50.3 254.5 L 83.9 229.4 L 117.5 186.9 L 151.1 142.8 L 184.7 112.5 L 218.2 98.6 L 251.8 104.7 L 285.4 135.9 L 319.0 181.8 L 352.6 225.9 L 386.2 251.0 L 396.2 251.0" stroke-linejoin="round" visibility="visible" stroke="rgb(192,192,192)" stroke-opacity="0.0" stroke-width="22" class=" highcharts-tracker" style="">
			</path>
		</g>
		<g class="highcharts-markers highcharts-series-2 highcharts-tracker" transform="translate(63,61) scale(1 1)" style="" clip-path="none">
			<path fill="#90ed7d" d="M 382 247.0 L 390 247.0 390 255.0 382 255.0 Z">
			</path>
			<path fill="#90ed7d" d="M 348 221.9 L 356 221.9 356 229.9 348 229.9 Z">
			</path>
			<path fill="#90ed7d" d="M 315 177.8 L 323 177.8 323 185.8 315 185.8 Z">
			</path>
			<path fill="#90ed7d" d="M 281 131.9 L 289 131.9 289 139.9 281 139.9 Z">
			</path>
			<path fill="#90ed7d" d="M 247 100.7 L 255 100.7 255 108.7 247 108.7 Z">
			</path>
			<path fill="#90ed7d" d="M 214 94.6 L 222 94.6 222 102.6 214 102.6 Z">
			</path>
			<path fill="#90ed7d" d="M 180 108.5 L 188 108.5 188 116.5 180 116.5 Z">
			</path>
			<path fill="#90ed7d" d="M 147 138.8 L 155 138.8 155 146.8 147 146.8 Z">
			</path>
			<path fill="#90ed7d" d="M 113 182.9 L 121 182.9 121 190.9 113 190.9 Z">
			</path>
			<path fill="#90ed7d" d="M 79 225.4 L 87 225.4 87 233.4 79 233.4 Z">
			</path>
			<path fill="#90ed7d" d="M 46 250.5 L 54 250.5 54 258.5 46 258.5 Z">
			</path>
			<path fill="#90ed7d" d="M 12 263.5 L 20 263.5 20 271.5 12 271.5 Z">
			</path>
		</g>
		<g class="highcharts-series highcharts-series-3" transform="translate(63,61) scale(1 1)" clip-path="url(#highcharts-1)">
			<path fill="none" d="M 16.7 225.9 L 50.3 223.3 L 83.9 210.3 L 117.5 186.1 L 151.1 156.6 L 184.7 128.1 L 218.2 112.5 L 251.8 116.0 L 285.4 136.7 L 319.0 170.5 L 352.6 202.5 L 386.2 218.1" stroke="#f7a35c" stroke-width="2" stroke-linejoin="round" stroke-linecap="round">
			</path>
			<path fill="none" d="M 6.7 225.9 L 16.7 225.9 L 50.3 223.3 L 83.9 210.3 L 117.5 186.1 L 151.1 156.6 L 184.7 128.1 L 218.2 112.5 L 251.8 116.0 L 285.4 136.7 L 319.0 170.5 L 352.6 202.5 L 386.2 218.1 L 396.2 218.1" stroke-linejoin="round" visibility="visible" stroke="rgb(192,192,192)" stroke-opacity="0.0" stroke-width="22" class=" highcharts-tracker" style="">
			</path>
		</g>
		<g class="highcharts-markers highcharts-series-3 highcharts-tracker" transform="translate(63,61) scale(1 1)" style="" clip-path="none">
			<path fill="#f7a35c" d="M 386 214.1 L 390 222.1 382 222.1 Z">
			</path>
			<path fill="#f7a35c" d="M 352 198.5 L 356 206.5 348 206.5 Z">
			</path>
			<path fill="#f7a35c" d="M 319 166.5 L 323 174.5 315 174.5 Z">
			</path>
			<path fill="#f7a35c" d="M 285 132.7 L 289 140.7 281 140.7 Z">
			</path>
			<path fill="#f7a35c" d="M 251 112.0 L 255 120.0 247 120.0 Z">
			</path>
			<path fill="#f7a35c" d="M 218 108.5 L 222 116.5 214 116.5 Z">
			</path>
			<path fill="#f7a35c" d="M 184 124.1 L 188 132.1 180 132.1 Z">
			</path>
			<path fill="#f7a35c" d="M 151 152.6 L 155 160.6 147 160.6 Z">
			</path>
			<path fill="#f7a35c" d="M 117 182.1 L 121 190.1 113 190.1 Z">
			</path>
			<path fill="#f7a35c" d="M 83 206.3 L 87 214.3 79 214.3 Z">
			</path>
			<path fill="#f7a35c" d="M 50 219.3 L 54 227.3 46 227.3 Z">
			</path>
			<path fill="#f7a35c" d="M 16 221.9 L 20 229.9 12 229.9 Z">
			</path>
		</g>
	</g>
	<text x="272" text-anchor="middle" class="highcharts-title" style="color:#333333;font-size:18px;fill:#333333;width:520px;" y="24">
		<tspan>Monthly Average Temperature
		</tspan>
	</text>
	<text x="272" text-anchor="middle" class="highcharts-subtitle" style="color:#555555;fill:#555555;width:520px;" y="45">
		<tspan>Source: WorldClimate.com
		</tspan>
	</text>
	<g class="highcharts-legend" transform="translate(478,164)">
		<g>
			<g>
				<g class="highcharts-legend-item" transform="translate(8,3)">
					<path fill="none" d="M 0 11 L 16 11" stroke="#7cb5ec" stroke-width="2">
					</path>
					<path fill="#7cb5ec" d="M 8 7 C 13.3 7 13.3 15 8 15 C 2.6 15 2.6 7 8 7 Z">
					</path>
					<text x="21" style="color:#333333;font-size:12px;font-weight:bold;cursor:pointer;fill:#333333;" text-anchor="start" y="15">Tokyo
					</text>
				</g>
				<g class="highcharts-legend-item" transform="translate(8,17)">
					<path fill="none" d="M 0 11 L 16 11" stroke="#434348" stroke-width="2">
					</path>
					<path fill="#434348" d="M 8 7 L 12 11 8 15 4 11 Z">
					</path>
					<text x="21" y="15" style="color:#333333;font-size:12px;font-weight:bold;cursor:pointer;fill:#333333;" text-anchor="start">
						<tspan>New York
						</tspan>
					</text>
				</g>
				<g class="highcharts-legend-item" transform="translate(8,31)">
					<path fill="none" d="M 0 11 L 16 11" stroke="#90ed7d" stroke-width="2">
					</path>
					<path fill="#90ed7d" d="M 4 7 L 12 7 12 15 4 15 Z">
					</path>
					<text x="21" y="15" style="color:#333333;font-size:12px;font-weight:bold;cursor:pointer;fill:#333333;" text-anchor="start">Berlin
					</text>
				</g>
				<g class="highcharts-legend-item" transform="translate(8,45)">
					<path fill="none" d="M 0 11 L 16 11" stroke="#f7a35c" stroke-width="2">
					</path>
					<path fill="#f7a35c" d="M 8 7 L 12 15 4 15 Z">
					</path>
					<text x="21" y="15" style="color:#333333;font-size:12px;font-weight:bold;cursor:pointer;fill:#333333;" text-anchor="start">London
					</text>
				</g>
			</g>
		</g>
	</g>
	<g class="highcharts-axis-labels highcharts-xaxis-labels">
		<text x="79.7" style="color:#606060;cursor:default;font-size:11px;fill:#606060;" text-anchor="middle" transform="translate(0,0)" y="383" opacity="1">Jan
		</text>
		<text x="113.3" style="color:#606060;cursor:default;font-size:11px;fill:#606060;" text-anchor="middle" transform="translate(0,0)" y="383" opacity="1">Feb
		</text>
		<text x="146.9" style="color:#606060;cursor:default;font-size:11px;fill:#606060;" text-anchor="middle" transform="translate(0,0)" y="383" opacity="1">Mar
		</text>
		<text x="180.5" style="color:#606060;cursor:default;font-size:11px;fill:#606060;" text-anchor="middle" transform="translate(0,0)" y="383" opacity="1">Apr
		</text>
		<text x="214.1" style="color:#606060;cursor:default;font-size:11px;fill:#606060;" text-anchor="middle" transform="translate(0,0)" y="383" opacity="1">May
		</text>
		<text x="247.7" style="color:#606060;cursor:default;font-size:11px;fill:#606060;" text-anchor="middle" transform="translate(0,0)" y="383" opacity="1">Jun
		</text>
		<text x="281.2" style="color:#606060;cursor:default;font-size:11px;fill:#606060;" text-anchor="middle" transform="translate(0,0)" y="383" opacity="1">Jul
		</text>
		<text x="314.8" style="color:#606060;cursor:default;font-size:11px;fill:#606060;" text-anchor="middle" transform="translate(0,0)" y="383" opacity="1">Aug
		</text>
		<text x="348.4" style="color:#606060;cursor:default;font-size:11px;fill:#606060;" text-anchor="middle" transform="translate(0,0)" y="383" opacity="1">Sep
		</text>
		<text x="382.0" style="color:#606060;cursor:default;font-size:11px;fill:#606060;" text-anchor="middle" transform="translate(0,0)" y="383" opacity="1">Oct
		</text>
		<text x="415.6" style="color:#606060;cursor:default;font-size:11px;fill:#606060;" text-anchor="middle" transform="translate(0,0)" y="383" opacity="1">Nov
		</text>
		<text x="449.2" style="color:#606060;cursor:default;font-size:11px;fill:#606060;" text-anchor="middle" transform="translate(0,0)" y="383" opacity="1">Dec
		</text>
	</g>
	<g class="highcharts-axis-labels highcharts-yaxis-labels">
		<text x="48" style="color:#606060;cursor:default;font-size:11px;fill:#606060;width:183px;text-overflow:clip;" text-anchor="end" transform="translate(0,0)" y="369" opacity="1">-5
		</text>
		<text x="48" style="color:#606060;cursor:default;font-size:11px;fill:#606060;width:183px;text-overflow:clip;" text-anchor="end" transform="translate(0,0)" y="325" opacity="1">0
		</text>
		<text x="48" style="color:#606060;cursor:default;font-size:11px;fill:#606060;width:183px;text-overflow:clip;" text-anchor="end" transform="translate(0,0)" y="282" opacity="1">5
		</text>
		<text x="48" style="color:#606060;cursor:default;font-size:11px;fill:#606060;width:183px;text-overflow:clip;" text-anchor="end" transform="translate(0,0)" y="239" opacity="1">10
		</text>
		<text x="48" style="color:#606060;cursor:default;font-size:11px;fill:#606060;width:183px;text-overflow:clip;" text-anchor="end" transform="translate(0,0)" y="195" opacity="1">15
		</text>
		<text x="48" style="color:#606060;cursor:default;font-size:11px;fill:#606060;width:183px;text-overflow:clip;" text-anchor="end" transform="translate(0,0)" y="152" opacity="1">20
		</text>
		<text x="48" style="color:#606060;cursor:default;font-size:11px;fill:#606060;width:183px;text-overflow:clip;" text-anchor="end" transform="translate(0,0)" y="109" opacity="1">25
		</text>
		<text x="48" style="color:#606060;cursor:default;font-size:11px;fill:#606060;width:183px;text-overflow:clip;" text-anchor="end" transform="translate(0,0)" y="66" opacity="1">30
		</text>
	</g>
	<g class="highcharts-tooltip" style="cursor:default;padding:0;pointer-events:none;white-space:nowrap;" transform="translate(0,-9999)">
		<path fill="none" d="M 3.5 0.5 L 13.5 0.5 C 16.5 0.5 16.5 0.5 16.5 3.5 L 16.5 13.5 C 16.5 16.5 16.5 16.5 13.5 16.5 L 3.5 16.5 C 0.5 16.5 0.5 16.5 0.5 13.5 L 0.5 3.5 C 0.5 0.5 0.5 0.5 3.5 0.5"  stroke="black" stroke-opacity="0.0" stroke-width="5" transform="translate(1, 1)">
		</path>
		<path fill="none" d="M 3.5 0.5 L 13.5 0.5 C 16.5 0.5 16.5 0.5 16.5 3.5 L 16.5 13.5 C 16.5 16.5 16.5 16.5 13.5 16.5 L 3.5 16.5 C 0.5 16.5 0.5 16.5 0.5 13.5 L 0.5 3.5 C 0.5 0.5 0.5 0.5 3.5 0.5"  stroke="black" stroke-opacity="0.0" stroke-width="3" transform="translate(1, 1)">
		</path>
		<path fill="none" d="M 3.5 0.5 L 13.5 0.5 C 16.5 0.5 16.5 0.5 16.5 3.5 L 16.5 13.5 C 16.5 16.5 16.5 16.5 13.5 16.5 L 3.5 16.5 C 0.5 16.5 0.5 16.5 0.5 13.5 L 0.5 3.5 C 0.5 0.5 0.5 0.5 3.5 0.5"  stroke="black" stroke-opacity="0.1" stroke-width="1" transform="translate(1, 1)">
		</path>
		<path fill="rgb(249, 249, 249)" fill-opacity=" .85" d="M 3.5 0.5 L 13.5 0.5 C 16.5 0.5 16.5 0.5 16.5 3.5 L 16.5 13.5 C 16.5 16.5 16.5 16.5 13.5 16.5 L 3.5 16.5 C 0.5 16.5 0.5 16.5 0.5 13.5 L 0.5 3.5 C 0.5 0.5 0.5 0.5 3.5 0.5">
		</path>
		<text x="8" style="font-size:12px;color:#333333;fill:#333333;" y="20">
		</text>
	</g>
</svg>