
<svg version="1.1" style="font-family:&quot;lucida grande&quot;, &quot;lucida sans unicode&quot;, arial, helvetica, sans-serif;font-size:12px;" xmlns="http://www.w3.org/2000/svg" viewBox="0 0 584 400">
	<desc>Created with Highcharts 4.2.4
	</desc>
	<defs>
		<clipPath id="highcharts-1">
			<rect x="0" y="0" width="564" height="324">
			</rect>
		</clipPath>
	</defs>
	<rect x="0" y="0" width="584" height="400" fill="#FFFFFF" class=" highcharts-background">
	</rect>
	<g class="highcharts-grid">
		<path fill="none" d="M 51.5 61 L 51.5 385" stroke="#D8D8D8" stroke-width="1" opacity="1">
		</path>
		<path fill="none" d="M 180.5 61 L 180.5 385" stroke="#D8D8D8" stroke-width="1" opacity="1">
		</path>
		<path fill="none" d="M 309.5 61 L 309.5 385" stroke="#D8D8D8" stroke-width="1" opacity="1">
		</path>
		<path fill="none" d="M 438.5 61 L 438.5 385" stroke="#D8D8D8" stroke-width="1" opacity="1">
		</path>
		<path fill="none" d="M 567.5 61 L 567.5 385" stroke="#D8D8D8" stroke-width="1" opacity="1">
		</path>
	</g>
	<g class="highcharts-grid">
		<path fill="none" d="M 10 385.5 L 574 385.5" stroke="#D8D8D8" stroke-width="1" opacity="1">
		</path>
		<path fill="none" d="M 10 304.5 L 574 304.5" stroke="#D8D8D8" stroke-width="1" opacity="1">
		</path>
		<path fill="none" d="M 10 223.5 L 574 223.5" stroke="#D8D8D8" stroke-width="1" opacity="1">
		</path>
		<path fill="none" d="M 10 142.5 L 574 142.5" stroke="#D8D8D8" stroke-width="1" opacity="1">
		</path>
		<path fill="none" d="M 10 60.5 L 574 60.5" stroke="#D8D8D8" stroke-width="1" opacity="1">
		</path>
	</g>
	<g class="highcharts-grid">
	</g>
	<g class="highcharts-axis">
		<path fill="none" d="M 10 385.5 L 574 385.5" stroke="#C0D0E0" stroke-width="1">
		</path>
	</g>
	<g class="highcharts-axis">
	</g>
	<g class="highcharts-axis">
	</g>
	<g class="highcharts-series-group">
		<g class="highcharts-series highcharts-series-0" transform="translate(10,61) scale(1 1)" clip-path="url(#highcharts-1)">
			<path fill="none" d="M 5.5 231.8 L 23.9 236.4 L 42.3 71.7 L 60.8 61.3 L 79.2 57.8 L 97.6 56.9 L 116.1 85.2 L 134.5 229.4 L 152.9 234.2 L 171.4 71.9 L 189.8 17.1 L 208.2 49.0 L 226.7 39.2 L 245.1 40.3 L 263.5 217.0 L 282 224.2 L 300.4 42.8 L 318.8 37.9 L 337.2 49.8 L 355.7 65.3 L 374.1 129.1 L 392.5 229.4 L 411.0 246.2 L 429.4 112.8 L 447.8 48.9 L 466.3 46.9 L 484.7 69.6 L 503.1 91.0 L 521.6 228.5 L 540.0 214.1 L 558.4 63.6" stroke="#7cb5ec" stroke-width="4" stroke-linejoin="round" stroke-linecap="round">
			</path>
			<path fill="none" d="M -4.4 231.8 L 5.5 231.8 L 23.9 236.4 L 42.3 71.7 L 60.8 61.3 L 79.2 57.8 L 97.6 56.9 L 116.1 85.2 L 134.5 229.4 L 152.9 234.2 L 171.4 71.9 L 189.8 17.1 L 208.2 49.0 L 226.7 39.2 L 245.1 40.3 L 263.5 217.0 L 282 224.2 L 300.4 42.8 L 318.8 37.9 L 337.2 49.8 L 355.7 65.3 L 374.1 129.1 L 392.5 229.4 L 411.0 246.2 L 429.4 112.8 L 447.8 48.9 L 466.3 46.9 L 484.7 69.6 L 503.1 91.0 L 521.6 228.5 L 540.0 214.1 L 558.4 63.6 L 568.4 63.6" stroke-linejoin="round" visibility="visible" stroke="rgb(192,192,192)" stroke-opacity="0.0" stroke-width="24" class=" highcharts-tracker" style="cursor:pointer;">
			</path>
		</g>
		<g class="highcharts-markers highcharts-series-0 highcharts-tracker" transform="translate(10,61) scale(1 1)" style="cursor:pointer;" clip-path="none">
			<path fill="#7cb5ec" d="M 558 59.6 C 563.3 59.6 563.3 67.6 558 67.6 C 552.6 67.6 552.6 59.6 558 59.6 Z" stroke="#FFFFFF" stroke-width="1">
			</path>
			<path fill="#7cb5ec" d="M 540 210.1 C 545.3 210.1 545.3 218.1 540 218.1 C 534.6 218.1 534.6 210.1 540 210.1 Z" stroke="#FFFFFF" stroke-width="1">
			</path>
			<path fill="#7cb5ec" d="M 521 224.5 C 526.3 224.5 526.3 232.5 521 232.5 C 515.6 232.5 515.6 224.5 521 224.5 Z" stroke="#FFFFFF" stroke-width="1">
			</path>
			<path fill="#7cb5ec" d="M 503 87.0 C 508.3 87.0 508.3 95.0 503 95.0 C 497.6 95.0 497.6 87.0 503 87.0 Z" stroke="#FFFFFF" stroke-width="1">
			</path>
			<path fill="#7cb5ec" d="M 484 65.6 C 489.3 65.6 489.3 73.6 484 73.6 C 478.6 73.6 478.6 65.6 484 65.6 Z" stroke="#FFFFFF" stroke-width="1">
			</path>
			<path fill="#7cb5ec" d="M 466 42.9 C 471.3 42.9 471.3 50.9 466 50.9 C 460.6 50.9 460.6 42.9 466 42.9 Z" stroke="#FFFFFF" stroke-width="1">
			</path>
			<path fill="#7cb5ec" d="M 447 44.9 C 452.3 44.9 452.3 52.9 447 52.9 C 441.6 52.9 441.6 44.9 447 44.9 Z" stroke="#FFFFFF" stroke-width="1">
			</path>
			<path fill="#7cb5ec" d="M 429 108.8 C 434.3 108.8 434.3 116.8 429 116.8 C 423.6 116.8 423.6 108.8 429 108.8 Z" stroke="#FFFFFF" stroke-width="1">
			</path>
			<path fill="#7cb5ec" d="M 411 242.2 C 416.3 242.2 416.3 250.2 411 250.2 C 405.6 250.2 405.6 242.2 411 242.2 Z" stroke="#FFFFFF" stroke-width="1">
			</path>
			<path fill="#7cb5ec" d="M 392 225.4 C 397.3 225.4 397.3 233.4 392 233.4 C 386.6 233.4 386.6 225.4 392 225.4 Z" stroke="#FFFFFF" stroke-width="1">
			</path>
			<path fill="#7cb5ec" d="M 374 125.1 C 379.3 125.1 379.3 133.1 374 133.1 C 368.6 133.1 368.6 125.1 374 125.1 Z" stroke="#FFFFFF" stroke-width="1">
			</path>
			<path fill="#7cb5ec" d="M 355 61.3 C 360.3 61.3 360.3 69.3 355 69.3 C 349.6 69.3 349.6 61.3 355 61.3 Z" stroke="#FFFFFF" stroke-width="1">
			</path>
			<path fill="#7cb5ec" d="M 337 45.8 C 342.3 45.8 342.3 53.8 337 53.8 C 331.6 53.8 331.6 45.8 337 45.8 Z" stroke="#FFFFFF" stroke-width="1">
			</path>
			<path fill="#7cb5ec" d="M 318 33.9 C 323.3 33.9 323.3 41.9 318 41.9 C 312.6 41.9 312.6 33.9 318 33.9 Z" stroke="#FFFFFF" stroke-width="1">
			</path>
			<path fill="#7cb5ec" d="M 300 38.8 C 305.3 38.8 305.3 46.8 300 46.8 C 294.6 46.8 294.6 38.8 300 38.8 Z" stroke="#FFFFFF" stroke-width="1">
			</path>
			<path fill="#7cb5ec" d="M 282 220.2 C 287.3 220.2 287.3 228.2 282 228.2 C 276.6 228.2 276.6 220.2 282 220.2 Z" stroke="#FFFFFF" stroke-width="1">
			</path>
			<path fill="#7cb5ec" d="M 263 213.0 C 268.3 213.0 268.3 221.0 263 221.0 C 257.6 221.0 257.6 213.0 263 213.0 Z" stroke="#FFFFFF" stroke-width="1">
			</path>
			<path fill="#7cb5ec" d="M 245 36.3 C 250.3 36.3 250.3 44.3 245 44.3 C 239.6 44.3 239.6 36.3 245 36.3 Z" stroke="#FFFFFF" stroke-width="1">
			</path>
			<path fill="#7cb5ec" d="M 226 35.2 C 231.3 35.2 231.3 43.2 226 43.2 C 220.6 43.2 220.6 35.2 226 35.2 Z" stroke="#FFFFFF" stroke-width="1">
			</path>
			<path fill="#7cb5ec" d="M 208 45.0 C 213.3 45.0 213.3 53.0 208 53.0 C 202.6 53.0 202.6 45.0 208 45.0 Z" stroke="#FFFFFF" stroke-width="1">
			</path>
			<path fill="#7cb5ec" d="M 189 13.1 C 194.3 13.1 194.3 21.1 189 21.1 C 183.6 21.1 183.6 13.1 189 13.1 Z" stroke="#FFFFFF" stroke-width="1">
			</path>
			<path fill="#7cb5ec" d="M 171 67.9 C 176.3 67.9 176.3 75.9 171 75.9 C 165.6 75.9 165.6 67.9 171 67.9 Z" stroke="#FFFFFF" stroke-width="1">
			</path>
			<path fill="#7cb5ec" d="M 152 230.2 C 157.3 230.2 157.3 238.2 152 238.2 C 146.6 238.2 146.6 230.2 152 230.2 Z" stroke="#FFFFFF" stroke-width="1">
			</path>
			<path fill="#7cb5ec" d="M 134 225.4 C 139.3 225.4 139.3 233.4 134 233.4 C 128.6 233.4 128.6 225.4 134 225.4 Z" stroke="#FFFFFF" stroke-width="1">
			</path>
			<path fill="#7cb5ec" d="M 116 81.2 C 121.3 81.2 121.3 89.2 116 89.2 C 110.6 89.2 110.6 81.2 116 81.2 Z" stroke="#FFFFFF" stroke-width="1">
			</path>
			<path fill="#7cb5ec" d="M 97 52.9 C 102.3 52.9 102.3 60.9 97 60.9 C 91.6 60.9 91.6 52.9 97 52.9 Z" stroke="#FFFFFF" stroke-width="1">
			</path>
			<path fill="#7cb5ec" d="M 79 53.8 C 84.3 53.8 84.3 61.8 79 61.8 C 73.6 61.8 73.6 53.8 79 53.8 Z" stroke="#FFFFFF" stroke-width="1">
			</path>
			<path fill="#7cb5ec" d="M 60 57.3 C 65.3 57.3 65.3 65.3 60 65.3 C 54.6 65.3 54.6 57.3 60 57.3 Z" stroke="#FFFFFF" stroke-width="1">
			</path>
			<path fill="#7cb5ec" d="M 42 67.7 C 47.3 67.7 47.3 75.7 42 75.7 C 36.6 75.7 36.6 67.7 42 67.7 Z" stroke="#FFFFFF" stroke-width="1">
			</path>
			<path fill="#7cb5ec" d="M 23 232.4 C 28.3 232.4 28.3 240.4 23 240.4 C 17.6 240.4 17.6 232.4 23 232.4 Z" stroke="#FFFFFF" stroke-width="1">
			</path>
			<path fill="#7cb5ec" d="M 5 227.8 C 10.3 227.8 10.3 235.8 5 235.8 C -0.3 235.8 -0.3 227.8 5 227.8 Z" stroke="#FFFFFF" stroke-width="1">
			</path>
		</g>
		<g class="highcharts-series highcharts-series-1" transform="translate(10,61) scale(1 1)" clip-path="url(#highcharts-1)">
			<path fill="none" d="M 5.5 253.5 L 23.9 257.3 L 42.3 140.0 L 60.8 131.6 L 79.2 130.1 L 97.6 128.2 L 116.1 147.1 L 134.5 250.9 L 152.9 255.9 L 171.4 137.3 L 189.8 90.2 L 208.2 119.8 L 226.7 111.8 L 245.1 109.6 L 263.5 239.5 L 282 246.1 L 300.4 119.2 L 318.8 117.1 L 337.2 123.2 L 355.7 134.6 L 374.1 179.9 L 392.5 250.8 L 411.0 264.6 L 429.4 170.0 L 447.8 118.8 L 466.3 119.3 L 484.7 139.4 L 503.1 153.4 L 521.6 250.7 L 540.0 241.2 L 558.4 136.0" stroke="#434348" stroke-width="2" stroke-linejoin="round" stroke-linecap="round">
			</path>
			<path fill="none" d="M -4.4 253.5 L 5.5 253.5 L 23.9 257.3 L 42.3 140.0 L 60.8 131.6 L 79.2 130.1 L 97.6 128.2 L 116.1 147.1 L 134.5 250.9 L 152.9 255.9 L 171.4 137.3 L 189.8 90.2 L 208.2 119.8 L 226.7 111.8 L 245.1 109.6 L 263.5 239.5 L 282 246.1 L 300.4 119.2 L 318.8 117.1 L 337.2 123.2 L 355.7 134.6 L 374.1 179.9 L 392.5 250.8 L 411.0 264.6 L 429.4 170.0 L 447.8 118.8 L 466.3 119.3 L 484.7 139.4 L 503.1 153.4 L 521.6 250.7 L 540.0 241.2 L 558.4 136.0 L 568.4 136.0" stroke-linejoin="round" visibility="visible" stroke="rgb(192,192,192)" stroke-opacity="0.0" stroke-width="22" class=" highcharts-tracker" style="cursor:pointer;">
			</path>
		</g>
		<g class="highcharts-markers highcharts-series-1 highcharts-tracker" transform="translate(10,61) scale(1 1)" style="cursor:pointer;" clip-path="none">
			<path fill="#434348" d="M 558 132.0 L 562 136.0 558 140.0 554 136.0 Z" stroke="#FFFFFF" stroke-width="1">
			</path>
			<path fill="#434348" d="M 540 237.2 L 544 241.2 540 245.2 536 241.2 Z" stroke="#FFFFFF" stroke-width="1">
			</path>
			<path fill="#434348" d="M 521 246.7 L 525 250.7 521 254.7 517 250.7 Z" stroke="#FFFFFF" stroke-width="1">
			</path>
			<path fill="#434348" d="M 503 149.4 L 507 153.4 503 157.4 499 153.4 Z" stroke="#FFFFFF" stroke-width="1">
			</path>
			<path fill="#434348" d="M 484 135.4 L 488 139.4 484 143.4 480 139.4 Z" stroke="#FFFFFF" stroke-width="1">
			</path>
			<path fill="#434348" d="M 466 115.3 L 470 119.3 466 123.3 462 119.3 Z" stroke="#FFFFFF" stroke-width="1">
			</path>
			<path fill="#434348" d="M 447 114.8 L 451 118.8 447 122.8 443 118.8 Z" stroke="#FFFFFF" stroke-width="1">
			</path>
			<path fill="#434348" d="M 429 166.0 L 433 170.0 429 174.0 425 170.0 Z" stroke="#FFFFFF" stroke-width="1">
			</path>
			<path fill="#434348" d="M 411 260.6 L 415 264.6 411 268.6 407 264.6 Z" stroke="#FFFFFF" stroke-width="1">
			</path>
			<path fill="#434348" d="M 392 246.8 L 396 250.8 392 254.8 388 250.8 Z" stroke="#FFFFFF" stroke-width="1">
			</path>
			<path fill="#434348" d="M 374 175.9 L 378 179.9 374 183.9 370 179.9 Z" stroke="#FFFFFF" stroke-width="1">
			</path>
			<path fill="#434348" d="M 355 130.6 L 359 134.6 355 138.6 351 134.6 Z" stroke="#FFFFFF" stroke-width="1">
			</path>
			<path fill="#434348" d="M 337 119.2 L 341 123.2 337 127.2 333 123.2 Z" stroke="#FFFFFF" stroke-width="1">
			</path>
			<path fill="#434348" d="M 318 113.1 L 322 117.1 318 121.1 314 117.1 Z" stroke="#FFFFFF" stroke-width="1">
			</path>
			<path fill="#434348" d="M 300 115.2 L 304 119.2 300 123.2 296 119.2 Z" stroke="#FFFFFF" stroke-width="1">
			</path>
			<path fill="#434348" d="M 282 242.1 L 286 246.1 282 250.1 278 246.1 Z" stroke="#FFFFFF" stroke-width="1">
			</path>
			<path fill="#434348" d="M 263 235.5 L 267 239.5 263 243.5 259 239.5 Z" stroke="#FFFFFF" stroke-width="1">
			</path>
			<path fill="#434348" d="M 245 105.6 L 249 109.6 245 113.6 241 109.6 Z" stroke="#FFFFFF" stroke-width="1">
			</path>
			<path fill="#434348" d="M 226 107.8 L 230 111.8 226 115.8 222 111.8 Z" stroke="#FFFFFF" stroke-width="1">
			</path>
			<path fill="#434348" d="M 208 115.8 L 212 119.8 208 123.8 204 119.8 Z" stroke="#FFFFFF" stroke-width="1">
			</path>
			<path fill="#434348" d="M 189 86.2 L 193 90.2 189 94.2 185 90.2 Z" stroke="#FFFFFF" stroke-width="1">
			</path>
			<path fill="#434348" d="M 171 133.3 L 175 137.3 171 141.3 167 137.3 Z" stroke="#FFFFFF" stroke-width="1">
			</path>
			<path fill="#434348" d="M 152 251.9 L 156 255.9 152 259.9 148 255.9 Z" stroke="#FFFFFF" stroke-width="1">
			</path>
			<path fill="#434348" d="M 134 246.9 L 138 250.9 134 254.9 130 250.9 Z" stroke="#FFFFFF" stroke-width="1">
			</path>
			<path fill="#434348" d="M 116 143.1 L 120 147.1 116 151.1 112 147.1 Z" stroke="#FFFFFF" stroke-width="1">
			</path>
			<path fill="#434348" d="M 97 124.2 L 101 128.2 97 132.2 93 128.2 Z" stroke="#FFFFFF" stroke-width="1">
			</path>
			<path fill="#434348" d="M 79 126.1 L 83 130.1 79 134.1 75 130.1 Z" stroke="#FFFFFF" stroke-width="1">
			</path>
			<path fill="#434348" d="M 60 127.6 L 64 131.6 60 135.6 56 131.6 Z" stroke="#FFFFFF" stroke-width="1">
			</path>
			<path fill="#434348" d="M 42 136.0 L 46 140.0 42 144.0 38 140.0 Z" stroke="#FFFFFF" stroke-width="1">
			</path>
			<path fill="#434348" d="M 23 253.3 L 27 257.3 23 261.3 19 257.3 Z" stroke="#FFFFFF" stroke-width="1">
			</path>
			<path fill="#434348" d="M 5 249.5 L 9 253.5 5 257.5 1 253.5 Z" stroke="#FFFFFF" stroke-width="1">
			</path>
		</g>
	</g>
	<text x="292" text-anchor="middle" class="highcharts-title" style="color:#333333;font-size:18px;fill:#333333;width:520px;" y="24">
		<tspan>Daily visits at www.highcharts.com
		</tspan>
	</text>
	<text x="292" text-anchor="middle" class="highcharts-subtitle" style="color:#555555;fill:#555555;width:520px;" y="45">
		<tspan>Source: Google Analytics
		</tspan>
	</text>
	<g class="highcharts-legend" transform="translate(10,30)">
		<g>
			<g>
				<g class="highcharts-legend-item" transform="translate(8,3)">
					<path fill="none" d="M 0 11 L 16 11" stroke="#7cb5ec" stroke-width="4">
					</path>
					<path fill="#7cb5ec" d="M 8 7 C 13.3 7 13.3 15 8 15 C 2.6 15 2.6 7 8 7 Z" stroke="#FFFFFF" stroke-width="1">
					</path>
					<text x="21" style="color:#333333;font-size:12px;font-weight:bold;cursor:pointer;fill:#333333;" text-anchor="start" y="15">Visits
					</text>
				</g>
				<g class="highcharts-legend-item" transform="translate(83.5,3)">
					<path fill="none" d="M 0 11 L 16 11" stroke="#434348" stroke-width="2">
					</path>
					<path fill="#434348" d="M 8 7 L 12 11 8 15 4 11 Z" stroke="#FFFFFF" stroke-width="1">
					</path>
					<text x="21" y="15" style="color:#333333;font-size:12px;font-weight:bold;cursor:pointer;fill:#333333;" text-anchor="start">
						<tspan>Unique Visitors
						</tspan>
					</text>
				</g>
			</g>
		</g>
	</g>
	<g class="highcharts-axis-labels highcharts-xaxis-labels">
		<text x="55.3" style="color:#606060;cursor:default;font-size:11px;fill:#606060;width:131px;text-overflow:clip;" text-anchor="start" transform="translate(0,0)" y="382" opacity="1">
			<tspan>11. Mar
			</tspan>
		</text>
		<text x="184.4" style="color:#606060;cursor:default;font-size:11px;fill:#606060;width:131px;text-overflow:clip;" text-anchor="start" transform="translate(0,0)" y="382" opacity="1">
			<tspan>18. Mar
			</tspan>
		</text>
		<text x="313.4" style="color:#606060;cursor:default;font-size:11px;fill:#606060;width:131px;text-overflow:clip;" text-anchor="start" transform="translate(0,0)" y="382" opacity="1">
			<tspan>25. Mar
			</tspan>
		</text>
		<text x="442.4" style="color:#606060;cursor:default;font-size:11px;fill:#606060;width:131px;text-overflow:clip;" text-anchor="start" transform="translate(0,0)" y="382" opacity="1">
			<tspan> 1. Apr
			</tspan>
		</text>
		<text x="571.4" style="color:#606060;cursor:default;font-size:11px;fill:#606060;width:2.5;text-overflow:ellipsis;" text-anchor="start" transform="translate(0,0)" y="382" opacity="1">
			<tspan>
			</tspan>
			<title> 8. Apr
			</title>
		</text>
	</g>
	<g class="highcharts-axis-labels highcharts-yaxis-labels">
		<text x="0" style="color:#606060;cursor:default;font-size:11px;fill:#606060;width:183px;text-overflow:clip;" text-anchor="start" transform="translate(0,0)" y="-9999">0
		</text>
		<text x="13" style="color:#606060;cursor:default;font-size:11px;fill:#606060;width:183px;text-overflow:clip;" text-anchor="start" transform="translate(0,0)" y="320" opacity="1">
			<tspan>5 000
			</tspan>
		</text>
		<text x="13" style="color:#606060;cursor:default;font-size:11px;fill:#606060;width:183px;text-overflow:clip;" text-anchor="start" transform="translate(0,0)" y="239" opacity="1">
			<tspan>10 000
			</tspan>
		</text>
		<text x="13" style="color:#606060;cursor:default;font-size:11px;fill:#606060;width:183px;text-overflow:clip;" text-anchor="start" transform="translate(0,0)" y="158" opacity="1">
			<tspan>15 000
			</tspan>
		</text>
		<text x="13" style="color:#606060;cursor:default;font-size:11px;fill:#606060;width:183px;text-overflow:clip;" text-anchor="start" transform="translate(0,0)" y="77" opacity="1">
			<tspan>20 000
			</tspan>
		</text>
	</g>
	<g class="highcharts-axis-labels highcharts-yaxis-labels">
		<text x="0" style="color:#606060;cursor:default;font-size:11px;fill:#606060;width:183px;text-overflow:clip;" text-anchor="end" transform="translate(0,0)" y="-9999">0
		</text>
		<text x="571" style="color:#606060;cursor:default;font-size:11px;fill:#606060;width:183px;text-overflow:clip;" text-anchor="end" transform="translate(0,0)" y="320" opacity="1">
			<tspan>5 000
			</tspan>
		</text>
		<text x="571" style="color:#606060;cursor:default;font-size:11px;fill:#606060;width:183px;text-overflow:clip;" text-anchor="end" transform="translate(0,0)" y="239" opacity="1">
			<tspan>10 000
			</tspan>
		</text>
		<text x="571" style="color:#606060;cursor:default;font-size:11px;fill:#606060;width:183px;text-overflow:clip;" text-anchor="end" transform="translate(0,0)" y="158" opacity="1">
			<tspan>15 000
			</tspan>
		</text>
		<text x="571" style="color:#606060;cursor:default;font-size:11px;fill:#606060;width:183px;text-overflow:clip;" text-anchor="end" transform="translate(0,0)" y="77" opacity="1">
			<tspan>20 000
			</tspan>
		</text>
	</g>
	<g class="highcharts-tooltip" style="cursor:default;padding:0;pointer-events:none;white-space:nowrap;" transform="translate(0,-9999)">
		<path fill="none" d="M 3.5 0.5 L 13.5 0.5 C 16.5 0.5 16.5 0.5 16.5 3.5 L 16.5 13.5 C 16.5 16.5 16.5 16.5 13.5 16.5 L 3.5 16.5 C 0.5 16.5 0.5 16.5 0.5 13.5 L 0.5 3.5 C 0.5 0.5 0.5 0.5 3.5 0.5"  stroke="black" stroke-opacity="0.0" stroke-width="5" transform="translate(1, 1)">
		</path>
		<path fill="none" d="M 3.5 0.5 L 13.5 0.5 C 16.5 0.5 16.5 0.5 16.5 3.5 L 16.5 13.5 C 16.5 16.5 16.5 16.5 13.5 16.5 L 3.5 16.5 C 0.5 16.5 0.5 16.5 0.5 13.5 L 0.5 3.5 C 0.5 0.5 0.5 0.5 3.5 0.5"  stroke="black" stroke-opacity="0.0" stroke-width="3" transform="translate(1, 1)">
		</path>
		<path fill="none" d="M 3.5 0.5 L 13.5 0.5 C 16.5 0.5 16.5 0.5 16.5 3.5 L 16.5 13.5 C 16.5 16.5 16.5 16.5 13.5 16.5 L 3.5 16.5 C 0.5 16.5 0.5 16.5 0.5 13.5 L 0.5 3.5 C 0.5 0.5 0.5 0.5 3.5 0.5"  stroke="black" stroke-opacity="0.1" stroke-width="1" transform="translate(1, 1)">
		</path>
		<path fill="rgb(249, 249, 249)" fill-opacity=" .85" d="M 3.5 0.5 L 13.5 0.5 C 16.5 0.5 16.5 0.5 16.5 3.5 L 16.5 13.5 C 16.5 16.5 16.5 16.5 13.5 16.5 L 3.5 16.5 C 0.5 16.5 0.5 16.5 0.5 13.5 L 0.5 3.5 C 0.5 0.5 0.5 0.5 3.5 0.5">
		</path>
		<text x="8" style="font-size:12px;color:#333333;fill:#333333;" y="20">
		</text>
	</g>
</svg>