
<svg version="1.1" style="font-family:&quot;lucida grande&quot;, &quot;lucida sans unicode&quot;, arial, helvetica, sans-serif;font-size:12px;" xmlns="http://www.w3.org/2000/svg" viewBox="0 0 584 400">
	<desc>Created with Highcharts 4.2.4
	</desc>
	<defs>
		<clipPath id="highcharts-1">
			<rect x="1" y="0" width="283" height="494">
			</rect>
		</clipPath>
	</defs>
	<rect x="0" y="0" width="584" height="400" fill="#FFFFFF" class=" highcharts-background" stroke="transparent">
	</rect>
	<g class="highcharts-grid">
	</g>
	<g class="highcharts-grid">
		<path fill="none" d="M 79.5 61 L 79.5 345" stroke="#D8D8D8" stroke-width="1" opacity="1">
		</path>
		<path fill="none" d="M 124.5 61 L 124.5 345" stroke="#D8D8D8" stroke-width="1" opacity="1">
		</path>
		<path fill="none" d="M 169.5 61 L 169.5 345" stroke="#D8D8D8" stroke-width="1" opacity="1">
		</path>
		<path fill="none" d="M 214.5 61 L 214.5 345" stroke="#D8D8D8" stroke-width="1" opacity="1">
		</path>
		<path fill="none" d="M 259.5 61 L 259.5 345" stroke="#D8D8D8" stroke-width="1" opacity="1">
		</path>
		<path fill="none" d="M 304.5 61 L 304.5 345" stroke="#D8D8D8" stroke-width="1" opacity="1">
		</path>
		<path fill="none" d="M 348.5 61 L 348.5 345" stroke="#D8D8D8" stroke-width="1" opacity="1">
		</path>
		<path fill="none" d="M 393.5 61 L 393.5 345" stroke="#D8D8D8" stroke-width="1" opacity="1">
		</path>
		<path fill="none" d="M 438.5 61 L 438.5 345" stroke="#D8D8D8" stroke-width="1" opacity="1">
		</path>
		<path fill="none" d="M 483.5 61 L 483.5 345" stroke="#D8D8D8" stroke-width="1" opacity="1">
		</path>
		<path fill="none" d="M 528.5 61 L 528.5 345" stroke="#D8D8D8" stroke-width="1" opacity="1">
		</path>
		<path fill="none" d="M 574.5 61 L 574.5 345" stroke="#D8D8D8" stroke-width="1" opacity="1">
		</path>
	</g>
	<g class="highcharts-axis">
		<path fill="none" d="M 80 342.5 L 70 342.5" stroke="#C0D0E0" stroke-width="1" opacity="1">
		</path>
		<path fill="none" d="M 80 259.5 L 70 259.5" stroke="#C0D0E0" stroke-width="1" opacity="1">
		</path>
		<path fill="none" d="M 80 175.5 L 70 175.5" stroke="#C0D0E0" stroke-width="1" opacity="1">
		</path>
		<path fill="none" d="M 80 91.5 L 70 91.5" stroke="#C0D0E0" stroke-width="1" opacity="1">
		</path>
		<text x="24.4" text-anchor="middle" transform="translate(0,0) rotate(270 24.4 203)" class=" highcharts-xaxis-title" style="color:#707070;fill:#707070;" y="203">Altitude
		</text>
		<path fill="none" d="M 79.5 61 L 79.5 345" stroke="#C0D0E0" stroke-width="1">
		</path>
	</g>
	<g class="highcharts-axis">
		<text x="327" text-anchor="middle" transform="translate(0,0)" class=" highcharts-yaxis-title" style="color:#707070;fill:#707070;" y="382.9">Temperature
		</text>
		<path fill="none" d="M 80 345 L 574 345" stroke="#C0D0E0" stroke-width="2">
		</path>
	</g>
	<g class="highcharts-series-group">
		<g class="highcharts-series highcharts-series-0" transform="translate(574,345) rotate(90) scale(-1,1) scale(1 1)" width="494" height="284" clip-path="url(#highcharts-1)">
			<path fill="none" d="M 2.6 22.4 C 2.6 22.4 22.7 285.1 36.1 314.3 C 49.5 343.5 56.2 343.5 69.6 343.5 C 83.0 343.5 89.7 329.5 103.1 298.6 C 116.5 267.7 123.2 228.5 136.6 189.0 C 150.0 149.5 156.7 101.0 170.1 101.0 C 183.5 101.0 190.2 166.4 203.6 214.2 C 217.0 261.9 223.7 296.1 237.1 339.9 C 250.5 383.7 270.6 433.3 270.6 433.3" stroke="#7cb5ec" stroke-width="2" stroke-linejoin="round" stroke-linecap="round">
			</path>
			<path fill="none" d="M -7.3 22.4 L 2.6 22.4 C 2.6 22.4 22.7 285.1 36.1 314.3 C 49.5 343.5 56.2 343.5 69.6 343.5 C 83.0 343.5 89.7 329.5 103.1 298.6 C 116.5 267.7 123.2 228.5 136.6 189.0 C 150.0 149.5 156.7 101.0 170.1 101.0 C 183.5 101.0 190.2 166.4 203.6 214.2 C 217.0 261.9 223.7 296.1 237.1 339.9 C 250.5 383.7 270.6 433.3 270.6 433.3 L 280.6 433.3" stroke-linejoin="round" visibility="visible" stroke="rgb(192,192,192)" stroke-opacity="0.0" stroke-width="22" class=" highcharts-tracker" style="">
			</path>
		</g>
		<g class="highcharts-markers highcharts-series-0 highcharts-tracker" transform="translate(574,345) rotate(90) scale(-1,1) scale(1 1)" style="" width="494" height="284" clip-path="none">
			<path fill="#7cb5ec" d="M 270 429.3 C 275.3 429.3 275.3 437.3 270 437.3 C 264.6 437.3 264.6 429.3 270 429.3 Z">
			</path>
			<path fill="#7cb5ec" d="M 237 335.9 C 242.3 335.9 242.3 343.9 237 343.9 C 231.6 343.9 231.6 335.9 237 335.9 Z">
			</path>
			<path fill="#7cb5ec" d="M 203 210.2 C 208.3 210.2 208.3 218.2 203 218.2 C 197.6 218.2 197.6 210.2 203 210.2 Z">
			</path>
			<path fill="#7cb5ec" d="M 170 97.0 C 175.3 97.0 175.3 105.0 170 105.0 C 164.6 105.0 164.6 97.0 170 97.0 Z">
			</path>
			<path fill="#7cb5ec" d="M 136 185.0 C 141.3 185.0 141.3 193.0 136 193.0 C 130.6 193.0 130.6 185.0 136 185.0 Z">
			</path>
			<path fill="#7cb5ec" d="M 103 294.6 C 108.3 294.6 108.3 302.6 103 302.6 C 97.6 302.6 97.6 294.6 103 294.6 Z">
			</path>
			<path fill="#7cb5ec" d="M 69 339.5 C 74.3 339.5 74.3 347.5 69 347.5 C 63.6 347.5 63.6 339.5 69 339.5 Z">
			</path>
			<path fill="#7cb5ec" d="M 36 310.3 C 41.3 310.3 41.3 318.3 36 318.3 C 30.6 318.3 30.6 310.3 36 310.3 Z">
			</path>
			<path fill="#7cb5ec" d="M 2 18.4 C 7.3 18.4 7.3 26.4 2 26.4 C -3.3 26.4 -3.3 18.4 2 18.4 Z">
			</path>
		</g>
	</g>
	<text x="292" text-anchor="middle" class="highcharts-title" style="color:#333333;font-size:18px;fill:#333333;width:520px;" y="24">
		<tspan>Atmosphere Temperature by Altitude
		</tspan>
	</text>
	<text x="292" text-anchor="middle" class="highcharts-subtitle" style="color:#555555;fill:#555555;width:520px;" y="45">
		<tspan>According to the Standard Atmosphere Model
		</tspan>
	</text>
	<g class="highcharts-axis-labels highcharts-xaxis-labels">
		<text x="65" style="color:#606060;cursor:default;font-size:11px;fill:#606060;width:183px;text-overflow:clip;" text-anchor="end" transform="translate(0,0)" y="347" opacity="1">0km
		</text>
		<text x="65" style="color:#606060;cursor:default;font-size:11px;fill:#606060;width:183px;text-overflow:clip;" text-anchor="end" transform="translate(0,0)" y="263" opacity="1">25km
		</text>
		<text x="65" style="color:#606060;cursor:default;font-size:11px;fill:#606060;width:183px;text-overflow:clip;" text-anchor="end" transform="translate(0,0)" y="179" opacity="1">50km
		</text>
		<text x="65" style="color:#606060;cursor:default;font-size:11px;fill:#606060;width:183px;text-overflow:clip;" text-anchor="end" transform="translate(0,0)" y="96" opacity="1">75km
		</text>
	</g>
	<g class="highcharts-axis-labels highcharts-yaxis-labels">
		<text x="80" style="color:#606060;cursor:default;font-size:11px;fill:#606060;" text-anchor="middle" transform="translate(0,0)" y="364" opacity="1">-90°
		</text>
		<text x="124.9" style="color:#606060;cursor:default;font-size:11px;fill:#606060;" text-anchor="middle" transform="translate(0,0)" y="364" opacity="1">-80°
		</text>
		<text x="169.8" style="color:#606060;cursor:default;font-size:11px;fill:#606060;" text-anchor="middle" transform="translate(0,0)" y="364" opacity="1">-70°
		</text>
		<text x="214.7" style="color:#606060;cursor:default;font-size:11px;fill:#606060;" text-anchor="middle" transform="translate(0,0)" y="364" opacity="1">-60°
		</text>
		<text x="259.6" style="color:#606060;cursor:default;font-size:11px;fill:#606060;" text-anchor="middle" transform="translate(0,0)" y="364" opacity="1">-50°
		</text>
		<text x="304.5" style="color:#606060;cursor:default;font-size:11px;fill:#606060;" text-anchor="middle" transform="translate(0,0)" y="364" opacity="1">-40°
		</text>
		<text x="349.4" style="color:#606060;cursor:default;font-size:11px;fill:#606060;" text-anchor="middle" transform="translate(0,0)" y="364" opacity="1">-30°
		</text>
		<text x="394.3" style="color:#606060;cursor:default;font-size:11px;fill:#606060;" text-anchor="middle" transform="translate(0,0)" y="364" opacity="1">-20°
		</text>
		<text x="439.2" style="color:#606060;cursor:default;font-size:11px;fill:#606060;" text-anchor="middle" transform="translate(0,0)" y="364" opacity="1">-10°
		</text>
		<text x="484.1" style="color:#606060;cursor:default;font-size:11px;fill:#606060;" text-anchor="middle" transform="translate(0,0)" y="364" opacity="1">0°
		</text>
		<text x="529.0" style="color:#606060;cursor:default;font-size:11px;fill:#606060;" text-anchor="middle" transform="translate(0,0)" y="364" opacity="1">10°
		</text>
		<text x="564.6" style="color:#606060;cursor:default;font-size:11px;fill:#606060;" text-anchor="middle" transform="translate(0,0)" y="364" opacity="1">20°
		</text>
	</g>
	<g class="highcharts-tooltip" style="cursor:default;padding:0;pointer-events:none;white-space:nowrap;" transform="translate(0,-9999)">
		<path fill="none" d="M 3.5 0.5 L 13.5 0.5 C 16.5 0.5 16.5 0.5 16.5 3.5 L 16.5 13.5 C 16.5 16.5 16.5 16.5 13.5 16.5 L 3.5 16.5 C 0.5 16.5 0.5 16.5 0.5 13.5 L 0.5 3.5 C 0.5 0.5 0.5 0.5 3.5 0.5"  stroke="black" stroke-opacity="0.0" stroke-width="5" transform="translate(1, 1)">
		</path>
		<path fill="none" d="M 3.5 0.5 L 13.5 0.5 C 16.5 0.5 16.5 0.5 16.5 3.5 L 16.5 13.5 C 16.5 16.5 16.5 16.5 13.5 16.5 L 3.5 16.5 C 0.5 16.5 0.5 16.5 0.5 13.5 L 0.5 3.5 C 0.5 0.5 0.5 0.5 3.5 0.5"  stroke="black" stroke-opacity="0.0" stroke-width="3" transform="translate(1, 1)">
		</path>
		<path fill="none" d="M 3.5 0.5 L 13.5 0.5 C 16.5 0.5 16.5 0.5 16.5 3.5 L 16.5 13.5 C 16.5 16.5 16.5 16.5 13.5 16.5 L 3.5 16.5 C 0.5 16.5 0.5 16.5 0.5 13.5 L 0.5 3.5 C 0.5 0.5 0.5 0.5 3.5 0.5"  stroke="black" stroke-opacity="0.1" stroke-width="1" transform="translate(1, 1)">
		</path>
		<path fill="rgb(249, 249, 249)" fill-opacity=" .85" d="M 3.5 0.5 L 13.5 0.5 C 16.5 0.5 16.5 0.5 16.5 3.5 L 16.5 13.5 C 16.5 16.5 16.5 16.5 13.5 16.5 L 3.5 16.5 C 0.5 16.5 0.5 16.5 0.5 13.5 L 0.5 3.5 C 0.5 0.5 0.5 0.5 3.5 0.5">
		</path>
		<text x="8" style="font-size:12px;color:#333333;fill:#333333;" y="20">
		</text>
	</g>
</svg>