
<svg version="1.1" style="font-family:&quot;lucida grande&quot;, &quot;lucida sans unicode&quot;, arial, helvetica, sans-serif;font-size:12px;" xmlns="http://www.w3.org/2000/svg" viewBox="0 0 584 400">
	<desc>Created with Highcharts 4.2.4
	</desc>
	<defs>
		<clipPath id="highcharts-1">
			<rect x="0" y="0" width="518" height="247">
			</rect>
		</clipPath>
	</defs>
	<rect x="0" y="0" width="584" height="400" fill="#FFFFFF" class=" highcharts-background" stroke="transparent">
	</rect>
	<g class="highcharts-grid">
	</g>
	<g class="highcharts-grid">
		<path fill="none" d="M 56 308.5 L 574 308.5" stroke="#D8D8D8" stroke-width="1" opacity="1">
		</path>
		<path fill="none" d="M 56 226.5 L 574 226.5" stroke="#D8D8D8" stroke-width="1" opacity="1">
		</path>
		<path fill="none" d="M 56 143.5 L 574 143.5" stroke="#D8D8D8" stroke-width="1" opacity="1">
		</path>
		<path fill="none" d="M 56 60.5 L 574 60.5" stroke="#D8D8D8" stroke-width="1" opacity="1">
		</path>
	</g>
	<g class="highcharts-axis">
		<path fill="none" d="M 83.5 308 L 83.5 318" stroke="#C0D0E0" stroke-width="1" opacity="1">
		</path>
		<path fill="none" d="M 209.5 308 L 209.5 318" stroke="#C0D0E0" stroke-width="1" opacity="1">
		</path>
		<path fill="none" d="M 332.5 308 L 332.5 318" stroke="#C0D0E0" stroke-width="1" opacity="1">
		</path>
		<path fill="none" d="M 458.5 308 L 458.5 318" stroke="#C0D0E0" stroke-width="1" opacity="1">
		</path>
		<text x="315" text-anchor="middle" transform="translate(0,0)" class=" highcharts-xaxis-title" style="color:#707070;fill:#707070;" y="345.9">Date
		</text>
		<path fill="none" d="M 56 308.5 L 574 308.5" stroke="#C0D0E0" stroke-width="1">
		</path>
	</g>
	<g class="highcharts-axis">
		<text x="24.0" text-anchor="middle" transform="translate(0,0) rotate(270 24.0 184.5)" class=" highcharts-yaxis-title" style="color:#707070;fill:#707070;" y="184.5">
			<tspan>Snow depth (m)
			</tspan>
		</text>
	</g>
	<g class="highcharts-series-group">
		<g class="highcharts-series highcharts-series-0" transform="translate(56,61) scale(1 1)" clip-path="url(#highcharts-1)">
			<path fill="none" d="M 5.0 247 C 5.0 247 22.4 223.9 34.0 223.9 C 38.2 223.9 40.3 225.8 44.4 226.4 C 59.3 228.4 66.8 230.5 81.7 230.5 C 85.9 230.5 87.9 223.9 92.1 223.9 C 112.0 223.9 121.9 223.9 141.8 223.9 C 144.3 223.9 145.6 211.4 148.1 208.3 C 158.8 194.6 164.2 181.9 175.0 181.9 C 187.4 181.9 193.7 187.7 206.1 187.7 C 212.7 187.7 216.0 169.6 222.7 163.0 C 229.3 156.4 232.6 156.9 239.3 154.7 C 250.9 151.0 256.7 148.2 268.3 148.2 C 279.9 148.2 285.7 149.8 297.3 149.8 C 323.0 149.8 335.9 149.8 361.6 149.0 C 378.1 148.2 386.4 122.9 403.0 94.6 C 406.3 89.0 408.0 64.2 411.3 64.2 C 422.9 64.2 428.7 117.0 440.3 152.3 C 452.8 190.1 471.4 247 471.4 247" stroke="#7cb5ec" stroke-width="2" stroke-linejoin="round" stroke-linecap="round">
			</path>
			<path fill="none" d="M -4.9 247 L 5.0 247 C 5.0 247 22.4 223.9 34.0 223.9 C 38.2 223.9 40.3 225.8 44.4 226.4 C 59.3 228.4 66.8 230.5 81.7 230.5 C 85.9 230.5 87.9 223.9 92.1 223.9 C 112.0 223.9 121.9 223.9 141.8 223.9 C 144.3 223.9 145.6 211.4 148.1 208.3 C 158.8 194.6 164.2 181.9 175.0 181.9 C 187.4 181.9 193.7 187.7 206.1 187.7 C 212.7 187.7 216.0 169.6 222.7 163.0 C 229.3 156.4 232.6 156.9 239.3 154.7 C 250.9 151.0 256.7 148.2 268.3 148.2 C 279.9 148.2 285.7 149.8 297.3 149.8 C 323.0 149.8 335.9 149.8 361.6 149.0 C 378.1 148.2 386.4 122.9 403.0 94.6 C 406.3 89.0 408.0 64.2 411.3 64.2 C 422.9 64.2 428.7 117.0 440.3 152.3 C 452.8 190.1 471.4 247 471.4 247 L 481.4 247" stroke-linejoin="round" visibility="visible" stroke="rgb(192,192,192)" stroke-opacity="0.0" stroke-width="22" class=" highcharts-tracker" style="">
			</path>
		</g>
		<g class="highcharts-markers highcharts-series-0 highcharts-tracker" transform="translate(56,61) scale(1 1)" style="" clip-path="none">
			<path fill="#7cb5ec" d="M 471 243 C 476.3 243 476.3 251 471 251 C 465.6 251 465.6 243 471 243 Z">
			</path>
			<path fill="#7cb5ec" d="M 440 148.3 C 445.3 148.3 445.3 156.3 440 156.3 C 434.6 156.3 434.6 148.3 440 148.3 Z">
			</path>
			<path fill="#7cb5ec" d="M 411 60.2 C 416.3 60.2 416.3 68.2 411 68.2 C 405.6 68.2 405.6 60.2 411 60.2 Z">
			</path>
			<path fill="#7cb5ec" d="M 403 90.6 C 408.3 90.6 408.3 98.6 403 98.6 C 397.6 98.6 397.6 90.6 403 90.6 Z">
			</path>
			<path fill="#7cb5ec" d="M 361 145.0 C 366.3 145.0 366.3 153.0 361 153.0 C 355.6 153.0 355.6 145.0 361 145.0 Z">
			</path>
			<path fill="#7cb5ec" d="M 297 145.8 C 302.3 145.8 302.3 153.8 297 153.8 C 291.6 153.8 291.6 145.8 297 145.8 Z">
			</path>
			<path fill="#7cb5ec" d="M 268 144.2 C 273.3 144.2 273.3 152.2 268 152.2 C 262.6 152.2 262.6 144.2 268 144.2 Z">
			</path>
			<path fill="#7cb5ec" d="M 239 150.7 C 244.3 150.7 244.3 158.7 239 158.7 C 233.6 158.7 233.6 150.7 239 150.7 Z">
			</path>
			<path fill="#7cb5ec" d="M 222 159.0 C 227.3 159.0 227.3 167.0 222 167.0 C 216.6 167.0 216.6 159.0 222 159.0 Z">
			</path>
			<path fill="#7cb5ec" d="M 206 183.7 C 211.3 183.7 211.3 191.7 206 191.7 C 200.6 191.7 200.6 183.7 206 183.7 Z">
			</path>
			<path fill="#7cb5ec" d="M 175 177.9 C 180.3 177.9 180.3 185.9 175 185.9 C 169.6 185.9 169.6 177.9 175 177.9 Z">
			</path>
			<path fill="#7cb5ec" d="M 148 204.3 C 153.3 204.3 153.3 212.3 148 212.3 C 142.6 212.3 142.6 204.3 148 204.3 Z">
			</path>
			<path fill="#7cb5ec" d="M 141 219.9 C 146.3 219.9 146.3 227.9 141 227.9 C 135.6 227.9 135.6 219.9 141 219.9 Z">
			</path>
			<path fill="#7cb5ec" d="M 92 219.9 C 97.3 219.9 97.3 227.9 92 227.9 C 86.6 227.9 86.6 219.9 92 219.9 Z">
			</path>
			<path fill="#7cb5ec" d="M 81 226.5 C 86.3 226.5 86.3 234.5 81 234.5 C 75.6 234.5 75.6 226.5 81 226.5 Z">
			</path>
			<path fill="#7cb5ec" d="M 44 222.4 C 49.3 222.4 49.3 230.4 44 230.4 C 38.6 230.4 38.6 222.4 44 222.4 Z">
			</path>
			<path fill="#7cb5ec" d="M 34 219.9 C 39.3 219.9 39.3 227.9 34 227.9 C 28.6 227.9 28.6 219.9 34 219.9 Z">
			</path>
			<path fill="#7cb5ec" d="M 5 243 C 10.3 243 10.3 251 5 251 C -0.3 251 -0.3 243 5 243 Z">
			</path>
		</g>
		<g class="highcharts-series highcharts-series-1" transform="translate(56,61) scale(1 1)" clip-path="url(#highcharts-1)">
			<path fill="none" d="M 21.6 247 C 21.6 247 35.3 214.0 44.4 214.0 C 62.7 214.0 71.8 226.4 90.0 226.4 C 115.7 226.4 128.6 149.8 154.3 110.3 C 161.7 98.8 165.5 98.8 172.9 98.8 C 206.1 98.8 222.7 102.0 255.8 102.0 C 284.0 102.0 298.1 31.2 326.3 31.2 C 347.0 31.2 357.4 35.5 378.1 48.5 C 387.3 54.3 391.8 67.9 400.9 78.2 C 412.5 91.3 418.4 88.7 430.0 107.0 C 438.2 120.0 442.4 135.6 450.7 156.4 C 464.8 191.6 485.9 247 485.9 247" stroke="#434348" stroke-width="2" stroke-linejoin="round" stroke-linecap="round">
			</path>
			<path fill="none" d="M 11.6 247 L 21.6 247 C 21.6 247 35.3 214.0 44.4 214.0 C 62.7 214.0 71.8 226.4 90.0 226.4 C 115.7 226.4 128.6 149.8 154.3 110.3 C 161.7 98.8 165.5 98.8 172.9 98.8 C 206.1 98.8 222.7 102.0 255.8 102.0 C 284.0 102.0 298.1 31.2 326.3 31.2 C 347.0 31.2 357.4 35.5 378.1 48.5 C 387.3 54.3 391.8 67.9 400.9 78.2 C 412.5 91.3 418.4 88.7 430.0 107.0 C 438.2 120.0 442.4 135.6 450.7 156.4 C 464.8 191.6 485.9 247 485.9 247 L 495.9 247" stroke-linejoin="round" visibility="visible" stroke="rgb(192,192,192)" stroke-opacity="0.0" stroke-width="22" class=" highcharts-tracker" style="">
			</path>
		</g>
		<g class="highcharts-markers highcharts-series-1 highcharts-tracker" transform="translate(56,61) scale(1 1)" style="" clip-path="none">
			<path fill="#434348" d="M 485 243 L 489 247 485 251 481 247 Z">
			</path>
			<path fill="#434348" d="M 450 152.4 L 454 156.4 450 160.4 446 156.4 Z">
			</path>
			<path fill="#434348" d="M 430 103.0 L 434 107.0 430 111.0 426 107.0 Z">
			</path>
			<path fill="#434348" d="M 400 74.2 L 404 78.2 400 82.2 396 78.2 Z">
			</path>
			<path fill="#434348" d="M 378 44.5 L 382 48.5 378 52.5 374 48.5 Z">
			</path>
			<path fill="#434348" d="M 326 27.2 L 330 31.2 326 35.2 322 31.2 Z">
			</path>
			<path fill="#434348" d="M 255 98.0 L 259 102.0 255 106.0 251 102.0 Z">
			</path>
			<path fill="#434348" d="M 172 94.8 L 176 98.8 172 102.8 168 98.8 Z">
			</path>
			<path fill="#434348" d="M 154 106.3 L 158 110.3 154 114.3 150 110.3 Z">
			</path>
			<path fill="#434348" d="M 90 222.4 L 94 226.4 90 230.4 86 226.4 Z">
			</path>
			<path fill="#434348" d="M 44 210.0 L 48 214.0 44 218.0 40 214.0 Z">
			</path>
			<path fill="#434348" d="M 21 243 L 25 247 21 251 17 247 Z">
			</path>
		</g>
		<g class="highcharts-series highcharts-series-2" transform="translate(56,61) scale(1 1)" clip-path="url(#highcharts-1)">
			<path fill="none" d="M 77.6 247 C 77.6 247 91.3 246.8 100.4 226.4 C 112.0 200.4 117.8 164.6 129.4 130.9 C 133.5 118.8 135.6 111.9 139.8 111.9 C 148.1 111.9 152.2 115.2 160.5 115.2 C 171.3 115.2 176.7 42.8 187.4 37.0 C 193.2 31.2 196.1 31.2 201.9 31.2 C 211.1 31.2 215.6 37.7 224.7 41.1 C 233.0 44.3 237.2 47.7 245.5 47.7 C 262.1 47.7 270.4 21.4 286.9 21.4 C 293.6 21.4 296.9 29.6 303.5 31.2 C 311.8 32.9 316.0 32.9 324.2 32.9 C 331.7 32.9 335.4 15.6 342.9 15.6 C 351.2 15.6 355.3 30.4 363.6 30.4 C 376.9 30.4 383.5 18.9 396.8 18.9 C 402.6 18.9 405.5 22.3 411.3 26.3 C 415.4 29.2 417.5 31.4 421.7 36.2 C 425.8 41.0 427.9 45.9 432.0 50.2 C 436.2 54.5 438.2 54.5 442.4 57.6 C 455.7 67.4 462.3 71.0 475.6 82.3 C 479.7 85.8 481.8 86.2 485.9 94.6 C 490.1 103.0 492.1 114.5 496.3 124.3 C 502.9 139.9 512.9 158.0 512.9 158.0" stroke="#90ed7d" stroke-width="2" stroke-linejoin="round" stroke-linecap="round">
			</path>
			<path fill="none" d="M 67.6 247 L 77.6 247 C 77.6 247 91.3 246.8 100.4 226.4 C 112.0 200.4 117.8 164.6 129.4 130.9 C 133.5 118.8 135.6 111.9 139.8 111.9 C 148.1 111.9 152.2 115.2 160.5 115.2 C 171.3 115.2 176.7 42.8 187.4 37.0 C 193.2 31.2 196.1 31.2 201.9 31.2 C 211.1 31.2 215.6 37.7 224.7 41.1 C 233.0 44.3 237.2 47.7 245.5 47.7 C 262.1 47.7 270.4 21.4 286.9 21.4 C 293.6 21.4 296.9 29.6 303.5 31.2 C 311.8 32.9 316.0 32.9 324.2 32.9 C 331.7 32.9 335.4 15.6 342.9 15.6 C 351.2 15.6 355.3 30.4 363.6 30.4 C 376.9 30.4 383.5 18.9 396.8 18.9 C 402.6 18.9 405.5 22.3 411.3 26.3 C 415.4 29.2 417.5 31.4 421.7 36.2 C 425.8 41.0 427.9 45.9 432.0 50.2 C 436.2 54.5 438.2 54.5 442.4 57.6 C 455.7 67.4 462.3 71.0 475.6 82.3 C 479.7 85.8 481.8 86.2 485.9 94.6 C 490.1 103.0 492.1 114.5 496.3 124.3 C 502.9 139.9 512.9 158.0 512.9 158.0 L 522.9 158.0" stroke-linejoin="round" visibility="visible" stroke="rgb(192,192,192)" stroke-opacity="0.0" stroke-width="22" class=" highcharts-tracker" style="">
			</path>
		</g>
		<g class="highcharts-markers highcharts-series-2 highcharts-tracker" transform="translate(56,61) scale(1 1)" style="" clip-path="none">
			<path fill="#90ed7d" d="M 508 154.0 L 516 154.0 516 162.0 508 162.0 Z">
			</path>
			<path fill="#90ed7d" d="M 492 120.3 L 500 120.3 500 128.3 492 128.3 Z">
			</path>
			<path fill="#90ed7d" d="M 481 90.6 L 489 90.6 489 98.6 481 98.6 Z">
			</path>
			<path fill="#90ed7d" d="M 471 78.3 L 479 78.3 479 86.3 471 86.3 Z">
			</path>
			<path fill="#90ed7d" d="M 438 53.6 L 446 53.6 446 61.6 438 61.6 Z">
			</path>
			<path fill="#90ed7d" d="M 428 46.2 L 436 46.2 436 54.2 428 54.2 Z">
			</path>
			<path fill="#90ed7d" d="M 417 32.2 L 425 32.2 425 40.2 417 40.2 Z">
			</path>
			<path fill="#90ed7d" d="M 407 22.3 L 415 22.3 415 30.3 407 30.3 Z">
			</path>
			<path fill="#90ed7d" d="M 392 14.9 L 400 14.9 400 22.9 392 22.9 Z">
			</path>
			<path fill="#90ed7d" d="M 359 26.4 L 367 26.4 367 34.4 359 34.4 Z">
			</path>
			<path fill="#90ed7d" d="M 338 11.6 L 346 11.6 346 19.6 338 19.6 Z">
			</path>
			<path fill="#90ed7d" d="M 320 28.9 L 328 28.9 328 36.9 320 36.9 Z">
			</path>
			<path fill="#90ed7d" d="M 299 27.2 L 307 27.2 307 35.2 299 35.2 Z">
			</path>
			<path fill="#90ed7d" d="M 282 17.4 L 290 17.4 290 25.4 282 25.4 Z">
			</path>
			<path fill="#90ed7d" d="M 241 43.7 L 249 43.7 249 51.7 241 51.7 Z">
			</path>
			<path fill="#90ed7d" d="M 220 37.1 L 228 37.1 228 45.1 220 45.1 Z">
			</path>
			<path fill="#90ed7d" d="M 197 27.2 L 205 27.2 205 35.2 197 35.2 Z">
			</path>
			<path fill="#90ed7d" d="M 183 33.0 L 191 33.0 191 41.0 183 41.0 Z">
			</path>
			<path fill="#90ed7d" d="M 156 111.2 L 164 111.2 164 119.2 156 119.2 Z">
			</path>
			<path fill="#90ed7d" d="M 135 107.9 L 143 107.9 143 115.9 135 115.9 Z">
			</path>
			<path fill="#90ed7d" d="M 125 126.9 L 133 126.9 133 134.9 125 134.9 Z">
			</path>
			<path fill="#90ed7d" d="M 96 222.4 L 104 222.4 104 230.4 96 230.4 Z">
			</path>
			<path fill="#90ed7d" d="M 73 243 L 81 243 81 251 73 251 Z">
			</path>
		</g>
	</g>
	<text x="292" text-anchor="middle" class="highcharts-title" style="color:#333333;font-size:18px;fill:#333333;width:520px;" y="24">
		<tspan>Snow depth at Vikjafjellet, Norway
		</tspan>
	</text>
	<text x="292" text-anchor="middle" class="highcharts-subtitle" style="color:#555555;fill:#555555;width:520px;" y="45">
		<tspan>Irregular time data in Highcharts JS
		</tspan>
	</text>
	<g class="highcharts-legend" transform="translate(60,360)">
		<g>
			<g>
				<g class="highcharts-legend-item" transform="translate(8,3)">
					<path fill="none" d="M 0 11 L 16 11" stroke="#7cb5ec" stroke-width="2">
					</path>
					<path fill="#7cb5ec" d="M 8 7 C 13.3 7 13.3 15 8 15 C 2.6 15 2.6 7 8 7 Z">
					</path>
					<text x="21" style="color:#333333;font-size:12px;font-weight:bold;cursor:pointer;fill:#333333;" text-anchor="start" y="15">
						<tspan>Winter 2012-2013
						</tspan>
					</text>
				</g>
				<g class="highcharts-legend-item" transform="translate(163.8,3)">
					<path fill="none" d="M 0 11 L 16 11" stroke="#434348" stroke-width="2">
					</path>
					<path fill="#434348" d="M 8 7 L 12 11 8 15 4 11 Z">
					</path>
					<text x="21" y="15" style="color:#333333;font-size:12px;font-weight:bold;cursor:pointer;fill:#333333;" text-anchor="start">
						<tspan>Winter 2013-2014
						</tspan>
					</text>
				</g>
				<g class="highcharts-legend-item" transform="translate(319.6,3)">
					<path fill="none" d="M 0 11 L 16 11" stroke="#90ed7d" stroke-width="2">
					</path>
					<path fill="#90ed7d" d="M 4 7 L 12 7 12 15 4 15 Z">
					</path>
					<text x="21" y="15" style="color:#333333;font-size:12px;font-weight:bold;cursor:pointer;fill:#333333;" text-anchor="start">
						<tspan>Winter 2014-2015
						</tspan>
					</text>
				</g>
			</g>
		</g>
	</g>
	<g class="highcharts-axis-labels highcharts-xaxis-labels">
		<text x="83.8" style="color:#606060;cursor:default;font-size:11px;fill:#606060;width:163px;text-overflow:clip;" text-anchor="middle" transform="translate(0,0)" y="327" opacity="1">
			<tspan> 1. Nov
			</tspan>
		</text>
		<text x="210.3" style="color:#606060;cursor:default;font-size:11px;fill:#606060;width:163px;text-overflow:clip;" text-anchor="middle" transform="translate(0,0)" y="327" opacity="1">
			<tspan> 1. Jan
			</tspan>
		</text>
		<text x="332.6" style="color:#606060;cursor:default;font-size:11px;fill:#606060;width:163px;text-overflow:clip;" text-anchor="middle" transform="translate(0,0)" y="327" opacity="1">
			<tspan> 1. Mar
			</tspan>
		</text>
		<text x="459.0" style="color:#606060;cursor:default;font-size:11px;fill:#606060;width:163px;text-overflow:clip;" text-anchor="middle" transform="translate(0,0)" y="327" opacity="1">
			<tspan> 1. May
			</tspan>
		</text>
	</g>
	<g class="highcharts-axis-labels highcharts-yaxis-labels">
		<text x="41" style="color:#606060;cursor:default;font-size:11px;fill:#606060;width:183px;text-overflow:clip;" text-anchor="end" transform="translate(0,0)" y="313" opacity="1">0
		</text>
		<text x="41" style="color:#606060;cursor:default;font-size:11px;fill:#606060;width:183px;text-overflow:clip;" text-anchor="end" transform="translate(0,0)" y="230" opacity="1">1
		</text>
		<text x="41" style="color:#606060;cursor:default;font-size:11px;fill:#606060;width:183px;text-overflow:clip;" text-anchor="end" transform="translate(0,0)" y="148" opacity="1">2
		</text>
		<text x="41" style="color:#606060;cursor:default;font-size:11px;fill:#606060;width:183px;text-overflow:clip;" text-anchor="end" transform="translate(0,0)" y="66" opacity="1">3
		</text>
	</g>
	<g class="highcharts-tooltip" style="cursor:default;padding:0;pointer-events:none;white-space:nowrap;" transform="translate(0,-9999)">
		<path fill="none" d="M 3.5 0.5 L 13.5 0.5 C 16.5 0.5 16.5 0.5 16.5 3.5 L 16.5 13.5 C 16.5 16.5 16.5 16.5 13.5 16.5 L 3.5 16.5 C 0.5 16.5 0.5 16.5 0.5 13.5 L 0.5 3.5 C 0.5 0.5 0.5 0.5 3.5 0.5"  stroke="black" stroke-opacity="0.0" stroke-width="5" transform="translate(1, 1)">
		</path>
		<path fill="none" d="M 3.5 0.5 L 13.5 0.5 C 16.5 0.5 16.5 0.5 16.5 3.5 L 16.5 13.5 C 16.5 16.5 16.5 16.5 13.5 16.5 L 3.5 16.5 C 0.5 16.5 0.5 16.5 0.5 13.5 L 0.5 3.5 C 0.5 0.5 0.5 0.5 3.5 0.5"  stroke="black" stroke-opacity="0.0" stroke-width="3" transform="translate(1, 1)">
		</path>
		<path fill="none" d="M 3.5 0.5 L 13.5 0.5 C 16.5 0.5 16.5 0.5 16.5 3.5 L 16.5 13.5 C 16.5 16.5 16.5 16.5 13.5 16.5 L 3.5 16.5 C 0.5 16.5 0.5 16.5 0.5 13.5 L 0.5 3.5 C 0.5 0.5 0.5 0.5 3.5 0.5"  stroke="black" stroke-opacity="0.1" stroke-width="1" transform="translate(1, 1)">
		</path>
		<path fill="rgb(249, 249, 249)" fill-opacity=" .85" d="M 3.5 0.5 L 13.5 0.5 C 16.5 0.5 16.5 0.5 16.5 3.5 L 16.5 13.5 C 16.5 16.5 16.5 16.5 13.5 16.5 L 3.5 16.5 C 0.5 16.5 0.5 16.5 0.5 13.5 L 0.5 3.5 C 0.5 0.5 0.5 0.5 3.5 0.5">
		</path>
		<text x="8" style="font-size:12px;color:#333333;fill:#333333;" y="20">
		</text>
	</g>
</svg>