
<svg version="1.1" style="font-family:&quot;lucida grande&quot;, &quot;lucida sans unicode&quot;, arial, helvetica, sans-serif;font-size:12px;" xmlns="http://www.w3.org/2000/svg" viewBox="0 0 584 400">
	<desc>Created with Highcharts 4.2.4
	</desc>
	<defs>
		<clipPath id="highcharts-1">
			<rect x="0" y="0" width="584" height="400">
			</rect>
		</clipPath>
	</defs>
	<rect x="0" y="0" width="584" height="400" fill="#FFFFFF" class=" highcharts-background" stroke="transparent">
	</rect>
	<g style="stroke:rgba(255,255,255,0);">
		<path fill="rgb(230,230,230)" fill-opacity="0" d="M 533.7 90.6 L 527.5 320.2 L 527.8 320.0 L 534.0 90.5 Z" stroke-linejoin="round">
		</path>
		<path fill="rgb(255,255,255)" fill-opacity="0" d="M 533.7 90.6 L 534.0 90.5 L 122.3 71.7 L 121.9 71.7 Z" stroke-linejoin="round">
		</path>
		<path fill="rgb(255,255,255)" fill-opacity="0" d="M 126.2 275.2 L 527.5 320.2 L 533.7 90.6 L 121.9 71.7 Z" stroke-linejoin="round">
		</path>
	</g>
	<g style="stroke:rgba(255,255,255,0);">
		<path fill="rgb(255,255,255)" fill-opacity="0" d="M 97.1 286.5 L 97.7 286.6 L 92.6 76.5 L 91.9 76.5 Z" stroke-linejoin="round">
		</path>
		<path fill="rgb(255,255,255)" fill-opacity="0" d="M 92.6 76.5 L 122.6 71.8 L 121.9 71.7 L 91.9 76.5 Z" stroke-linejoin="round">
		</path>
		<path fill="rgb(230,230,230)" fill-opacity="0" d="M 92.6 76.5 L 97.7 286.6 L 126.9 275.2 L 122.6 71.8 Z" stroke-linejoin="round">
		</path>
	</g>
	<g style="stroke:rgba(255,255,255,0);">
		<path fill="rgb(230,230,230)" fill-opacity="0" d="M 509.5 333.9 L 509.5 334.8 L 527.5 320.2 L 527.6 319.3 Z" stroke-linejoin="round">
		</path>
		<path fill="rgb(255,255,255)" fill-opacity="0" d="M 97.7 286.6 L 509.5 334.8 L 509.5 333.9 L 97.7 285.8 Z" stroke-linejoin="round">
		</path>
		<path fill="rgb(255,255,255)" fill-opacity="0" d="M 509.5 333.9 L 527.6 319.3 L 126.9 274.5 L 97.7 285.8 Z" stroke-linejoin="round">
		</path>
	</g>
	<g class="highcharts-grid">
		<path fill="none" d="M 158.8 73.4 L 158.8 73.4 L 162.2 278.5 L 133.9 290.1" stroke="#D8D8D8" stroke-width="1" opacity="1">
		</path>
		<path fill="none" d="M 196.2 75.1 L 196.2 75.1 L 198.8 282.5 L 171.4 294.4" stroke="#D8D8D8" stroke-width="1" opacity="1">
		</path>
		<path fill="none" d="M 235.3 76.9 L 235.3 76.9 L 236.9 286.8 L 210.5 299.0" stroke="#D8D8D8" stroke-width="1" opacity="1">
		</path>
		<path fill="none" d="M 274.6 78.7 L 274.6 78.7 L 275.3 291.1 L 249.8 303.6" stroke="#D8D8D8" stroke-width="1" opacity="1">
		</path>
		<path fill="none" d="M 314.9 80.6 L 314.9 80.6 L 314.6 295.5 L 290.2 308.3" stroke="#D8D8D8" stroke-width="1" opacity="1">
		</path>
		<path fill="none" d="M 356.2 82.5 L 356.2 82.5 L 354.8 300.0 L 331.6 313.1" stroke="#D8D8D8" stroke-width="1" opacity="1">
		</path>
		<path fill="none" d="M 398.5 84.4 L 398.5 84.4 L 396.1 304.6 L 374.0 318.1" stroke="#D8D8D8" stroke-width="1" opacity="1">
		</path>
		<path fill="none" d="M 442.8 86.4 L 442.8 86.4 L 439.2 309.4 L 418.4 323.3" stroke="#D8D8D8" stroke-width="1" opacity="1">
		</path>
		<path fill="none" d="M 487.5 88.5 L 487.5 88.5 L 482.6 314.3 L 463.1 328.5" stroke="#D8D8D8" stroke-width="1" opacity="1">
		</path>
		<path fill="none" d="M 534.2 90.6 L 534.2 90.6 L 528.0 319.4 L 510.0 333.9" stroke="#D8D8D8" stroke-width="1" opacity="1">
		</path>
		<path fill="none" d="M 122.3 71.7 L 122.3 71.7 L 126.5 274.5 L 97.4 285.8" stroke="#D8D8D8" stroke-width="1" opacity="1">
		</path>
	</g>
	<g class="highcharts-grid">
	</g>
	<g class="highcharts-grid">
		<path fill="none" d="M 97.7 286.2 L 126.9 274.9 L 527.6 319.7 L 527.6 319.7" stroke="#D8D8D8" stroke-width="1" opacity="1">
		</path>
		<path fill="none" d="M 96.5 235.3 L 125.8 225.5 L 529.1 264.2 L 529.1 264.2" stroke="#D8D8D8" stroke-width="1" opacity="1">
		</path>
		<path fill="none" d="M 95.2 182.9 L 124.8 174.7 L 530.6 207.0 L 530.6 207.0" stroke="#D8D8D8" stroke-width="1" opacity="1">
		</path>
		<path fill="none" d="M 93.9 130.6 L 123.7 124.1 L 532.1 149.8 L 532.1 149.8" stroke="#D8D8D8" stroke-width="1" opacity="1">
		</path>
		<path fill="none" d="M 92.6 76.1 L 122.6 71.4 L 533.7 90.2 L 533.7 90.2" stroke="#D8D8D8" stroke-width="1" opacity="1">
		</path>
	</g>
	<g class="highcharts-axis">
		<path fill="none" d="M 0 0" stroke="#C0D0E0" stroke-width="1">
		</path>
	</g>
	<g class="highcharts-axis">
	</g>
	<g class="highcharts-axis">
	</g>
	<g class="highcharts-series-group">
		<g class="highcharts-series highcharts-series-0 highcharts-tracker" transform="translate(32,61) scale(1 1)" style="" clip-path="url(#highcharts-1)">
			<g stroke="#7cb5ec" stroke-width="1" r="0">
				<path fill="#7cb5ec" d="M 75.2 226.1 L 93.5 228.3 L 92.4 176.9 L 74.0 175.0 Z" stroke-linejoin="round">
				</path>
				<path fill="rgb(149,206,255)" d="M 92.4 176.9 L 102.9 173.2 L 84.6 171.4 L 74.0 175.0 Z" stroke-linejoin="round">
				</path>
				<path fill="rgb(99,156,211)" d="M 92.4 176.9 L 93.5 228.3 L 103.9 224.0 L 102.9 173.2 Z" stroke-linejoin="round">
				</path>
			</g>
			<g stroke="#7cb5ec" stroke-width="1" r="0">
				<path fill="#7cb5ec" d="M 112.0 230.4 L 130.7 232.6 L 129.4 153.6 L 110.5 151.8 Z" stroke-linejoin="round">
				</path>
				<path fill="rgb(149,206,255)" d="M 129.4 153.6 L 139.6 150.2 L 120.8 148.5 L 110.5 151.8 Z" stroke-linejoin="round">
				</path>
				<path fill="rgb(99,156,211)" d="M 129.4 153.6 L 130.7 232.6 L 140.8 228.3 L 139.6 150.2 Z" stroke-linejoin="round">
				</path>
			</g>
			<g stroke="#7cb5ec" stroke-width="1" r="0">
				<path fill="#7cb5ec" d="M 189.0 239.4 L 208.7 241.7 L 207.8 133.7 L 187.9 132.0 Z" stroke-linejoin="round">
				</path>
				<path fill="rgb(149,206,255)" d="M 207.8 133.7 L 217.3 130.4 L 197.6 128.8 L 187.9 132.0 Z" stroke-linejoin="round">
				</path>
				<path fill="rgb(99,156,211)" d="M 207.8 133.7 L 208.7 241.7 L 218.0 237.2 L 217.3 130.4 Z" stroke-linejoin="round">
				</path>
			</g>
			<g stroke="#7cb5ec" stroke-width="1" r="0">
				<path fill="#7cb5ec" d="M 0 0" stroke-linejoin="round">
				</path>
				<path fill="rgb(99,156,211)" d="M 0 0" stroke-linejoin="round">
				</path>
				<path fill="rgb(149,206,255)" d="M 248.7 246.4 L 257.7 241.7 L 237.7 239.4 L 228.6 244.0 Z" stroke-linejoin="round">
				</path>
			</g>
			<g stroke="#7cb5ec" stroke-width="1" r="0">
				<path fill="rgb(149,206,255)" d="M 290.2 112.6 L 298.9 109.5 L 278.1 108.0 L 269.1 111.0 Z" stroke-linejoin="round">
				</path>
				<path fill="#7cb5ec" d="M 269.2 248.8 L 289.8 251.2 L 290.2 112.6 L 269.1 111.0 Z" stroke-linejoin="round">
				</path>
				<path fill="rgb(99,156,211)" d="M 290.2 112.6 L 289.8 251.2 L 298.4 246.4 L 298.9 109.5 Z" stroke-linejoin="round">
				</path>
			</g>
			<g stroke="#7cb5ec" stroke-width="1" r="0">
				<path fill="#7cb5ec" d="M 310.8 253.6 L 332.0 256.1 L 332.2 228.6 L 310.9 226.3 Z" stroke-linejoin="round">
				</path>
				<path fill="rgb(99,156,211)" d="M 332.2 228.6 L 332.0 256.1 L 340.2 251.2 L 340.4 224.0 Z" stroke-linejoin="round">
				</path>
				<path fill="rgb(149,206,255)" d="M 332.2 228.6 L 340.4 224.0 L 319.3 221.8 L 310.9 226.3 Z" stroke-linejoin="round">
				</path>
			</g>
			<g stroke="#7cb5ec" stroke-width="1" r="0">
				<path fill="rgb(149,206,255)" d="M 376.7 147.7 L 384.5 144.1 L 362.7 142.3 L 354.6 145.8 Z" stroke-linejoin="round">
				</path>
				<path fill="#7cb5ec" d="M 353.5 258.6 L 375.3 261.1 L 376.7 147.7 L 354.6 145.8 Z" stroke-linejoin="round">
				</path>
				<path fill="rgb(99,156,211)" d="M 376.7 147.7 L 375.3 261.1 L 383.0 256.1 L 384.5 144.1 Z" stroke-linejoin="round">
				</path>
			</g>
			<g stroke="#7cb5ec" stroke-width="1" r="0">
				<path fill="rgb(149,206,255)" d="M 423.7 93.2 L 431.0 90.3 L 408.4 88.8 L 400.8 91.7 Z" stroke-linejoin="round">
				</path>
				<path fill="#7cb5ec" d="M 398.2 263.8 L 420.5 266.4 L 423.7 93.2 L 400.8 91.7 Z" stroke-linejoin="round">
				</path>
				<path fill="rgb(99,156,211)" d="M 423.7 93.2 L 420.5 266.4 L 427.8 261.3 L 431.0 90.3 Z" stroke-linejoin="round">
				</path>
			</g>
			<g stroke="#7cb5ec" stroke-width="1" r="0">
				<path fill="#7cb5ec" d="M 443.2 269.1 L 466.2 271.8 L 468.2 184.5 L 445.0 182.4 Z" stroke-linejoin="round">
				</path>
				<path fill="rgb(149,206,255)" d="M 468.2 184.5 L 475.0 180.3 L 452.0 178.3 L 445.0 182.4 Z" stroke-linejoin="round">
				</path>
				<path fill="rgb(99,156,211)" d="M 468.2 184.5 L 466.2 271.8 L 472.9 266.5 L 475.0 180.3 Z" stroke-linejoin="round">
				</path>
			</g>
		</g>
		<g class="highcharts-markers highcharts-series-0" transform="translate(32,61) scale(1 1)" clip-path="none">
		</g>
	</g>
	<text x="292" text-anchor="middle" class="highcharts-title" style="color:#333333;font-size:18px;fill:#333333;width:520px;" y="24">
		<tspan>3D chart with null values
		</tspan>
	</text>
	<text x="292" text-anchor="middle" class="highcharts-subtitle" style="color:#555555;fill:#555555;width:520px;" y="45">
		<tspan>Notice the difference between a 0 value and a null point
		</tspan>
	</text>
	<g class="highcharts-legend" transform="translate(258,360)">
		<g>
			<g>
				<g class="highcharts-legend-item" transform="translate(8,3)">
					<text x="21" style="color:#333333;font-size:12px;font-weight:bold;cursor:pointer;fill:#333333;" text-anchor="start" y="15">Sales
					</text>
					<rect x="0" y="4" width="16" height="12" fill="#7cb5ec">
					</rect>
				</g>
			</g>
		</g>
	</g>
	<g class="highcharts-axis-labels highcharts-xaxis-labels">
		<text x="116.3" style="color:#606060;cursor:default;font-size:11px;fill:#606060;" text-anchor="middle" transform="translate(0,0)" y="302.6" z="117.2" old="[object Object]" opacity="1">Jan
		</text>
		<text x="153.4" style="color:#606060;cursor:default;font-size:11px;fill:#606060;" text-anchor="middle" transform="translate(0,0)" y="307.1" z="98.0" old="[object Object]" opacity="1">Feb
		</text>
		<text x="191.4" style="color:#606060;cursor:default;font-size:11px;fill:#606060;" text-anchor="middle" transform="translate(0,0)" y="311.7" z="78.8" old="[object Object]" opacity="1">Mar
		</text>
		<text x="230.3" style="color:#606060;cursor:default;font-size:11px;fill:#606060;" text-anchor="middle" transform="translate(0,0)" y="316.5" z="59.6" old="[object Object]" opacity="1">Apr
		</text>
		<text x="270.2" style="color:#606060;cursor:default;font-size:11px;fill:#606060;" text-anchor="middle" transform="translate(0,0)" y="321.3" z="40.4" old="[object Object]" opacity="1">May
		</text>
		<text x="311.2" style="color:#606060;cursor:default;font-size:11px;fill:#606060;" text-anchor="middle" transform="translate(0,0)" y="326.3" z="21.2" old="[object Object]" opacity="1">Jun
		</text>
		<text x="353.2" style="color:#606060;cursor:default;font-size:11px;fill:#606060;" text-anchor="middle" transform="translate(0,0)" y="331.4" z="2.0" old="[object Object]" opacity="1">Jul
		</text>
		<text x="396.3" style="color:#606060;cursor:default;font-size:11px;fill:#606060;" text-anchor="middle" transform="translate(0,0)" y="336.6" z="-17.1" old="[object Object]" opacity="1">Aug
		</text>
		<text x="440.5" style="color:#606060;cursor:default;font-size:11px;fill:#606060;" text-anchor="middle" transform="translate(0,0)" y="342.0" z="-36.3" old="[object Object]" opacity="1">Sep
		</text>
		<text x="485.9" style="color:#606060;cursor:default;font-size:11px;fill:#606060;" text-anchor="middle" transform="translate(0,0)" y="347.5" z="-55.5" old="[object Object]" opacity="1">Oct
		</text>
	</g>
	<g class="highcharts-axis-labels highcharts-zaxis-labels">
	</g>
	<g class="highcharts-axis-labels highcharts-yaxis-labels">
		<text x="87.8" style="color:#606060;cursor:default;font-size:11px;fill:#606060;width:183px;text-overflow:clip;" text-anchor="end" transform="translate(0,0)" y="288.5" z="130.1" old="[object Object]" opacity="1">0
		</text>
		<text x="86.5" style="color:#606060;cursor:default;font-size:11px;fill:#606060;width:183px;text-overflow:clip;" text-anchor="end" transform="translate(0,0)" y="237.0" z="120.2" old="[object Object]" opacity="1">2
		</text>
		<text x="85.2" style="color:#606060;cursor:default;font-size:11px;fill:#606060;width:183px;text-overflow:clip;" text-anchor="end" transform="translate(0,0)" y="185.6" z="110.4" old="[object Object]" opacity="1">4
		</text>
		<text x="83.8" style="color:#606060;cursor:default;font-size:11px;fill:#606060;width:183px;text-overflow:clip;" text-anchor="end" transform="translate(0,0)" y="132.7" z="100.5" old="[object Object]" opacity="1">6
		</text>
		<text x="82.5" style="color:#606060;cursor:default;font-size:11px;fill:#606060;width:183px;text-overflow:clip;" text-anchor="end" transform="translate(0,0)" y="80.0" z="90.7" old="[object Object]" opacity="1">8
		</text>
	</g>
	<g class="highcharts-tooltip" style="cursor:default;padding:0;pointer-events:none;white-space:nowrap;" transform="translate(0,-9999)">
		<path fill="none" d="M 3.5 0.5 L 13.5 0.5 C 16.5 0.5 16.5 0.5 16.5 3.5 L 16.5 13.5 C 16.5 16.5 16.5 16.5 13.5 16.5 L 3.5 16.5 C 0.5 16.5 0.5 16.5 0.5 13.5 L 0.5 3.5 C 0.5 0.5 0.5 0.5 3.5 0.5"  stroke="black" stroke-opacity="0.0" stroke-width="5" transform="translate(1, 1)">
		</path>
		<path fill="none" d="M 3.5 0.5 L 13.5 0.5 C 16.5 0.5 16.5 0.5 16.5 3.5 L 16.5 13.5 C 16.5 16.5 16.5 16.5 13.5 16.5 L 3.5 16.5 C 0.5 16.5 0.5 16.5 0.5 13.5 L 0.5 3.5 C 0.5 0.5 0.5 0.5 3.5 0.5"  stroke="black" stroke-opacity="0.0" stroke-width="3" transform="translate(1, 1)">
		</path>
		<path fill="none" d="M 3.5 0.5 L 13.5 0.5 C 16.5 0.5 16.5 0.5 16.5 3.5 L 16.5 13.5 C 16.5 16.5 16.5 16.5 13.5 16.5 L 3.5 16.5 C 0.5 16.5 0.5 16.5 0.5 13.5 L 0.5 3.5 C 0.5 0.5 0.5 0.5 3.5 0.5"  stroke="black" stroke-opacity="0.1" stroke-width="1" transform="translate(1, 1)">
		</path>
		<path fill="rgb(249, 249, 249)" fill-opacity=" .85" d="M 3.5 0.5 L 13.5 0.5 C 16.5 0.5 16.5 0.5 16.5 3.5 L 16.5 13.5 C 16.5 16.5 16.5 16.5 13.5 16.5 L 3.5 16.5 C 0.5 16.5 0.5 16.5 0.5 13.5 L 0.5 3.5 C 0.5 0.5 0.5 0.5 3.5 0.5">
		</path>
		<text x="8" style="font-size:12px;color:#333333;fill:#333333;" y="20">
		</text>
	</g>
</svg>