
<svg version="1.1" style="font-family:&quot;lucida grande&quot;, &quot;lucida sans unicode&quot;, arial, helvetica, sans-serif;font-size:12px;" xmlns="http://www.w3.org/2000/svg" viewBox="0 0 584 400">
	<desc>Created with Highcharts 4.2.4
	</desc>
	<defs>
		<clipPath id="highcharts-1">
			<rect x="0" y="0" width="584" height="400">
			</rect>
		</clipPath>
	</defs>
	<rect x="0" y="0" width="584" height="400" fill="#FFFFFF" class=" highcharts-background" stroke="transparent">
	</rect>
	<g style="stroke:rgba(255,255,255,0);">
		<path fill="rgb(230,230,230)" fill-opacity="0" d="M 0 0" stroke-linejoin="round">
		</path>
		<path fill="rgb(255,255,255)" fill-opacity="0" d="M 551.2 72.3 L 551.2 72.2 L 121.6 58.0 L 121.2 58.1 Z" stroke-linejoin="round">
		</path>
		<path fill="rgb(255,255,255)" fill-opacity="0" d="M 133.9 273.6 L 534.4 314.0 L 551.2 72.3 L 121.2 58.1 Z" stroke-linejoin="round">
		</path>
	</g>
	<g style="stroke:rgba(255,255,255,0);">
		<path fill="rgb(255,255,255)" fill-opacity="0" d="M 106.1 61.9 L 122.0 58.1 L 121.2 58.1 L 105.4 61.9 Z" stroke-linejoin="round">
		</path>
		<path fill="rgb(255,255,255)" fill-opacity="0" d="M 119.5 284.4 L 120.2 284.5 L 106.1 61.9 L 105.4 61.9 Z" stroke-linejoin="round">
		</path>
		<path fill="rgb(230,230,230)" fill-opacity="0" d="M 106.1 61.9 L 120.2 284.5 L 134.6 273.6 L 122.0 58.1 Z" stroke-linejoin="round">
		</path>
	</g>
	<g style="stroke:rgba(255,255,255,0);">
		<path fill="rgb(230,230,230)" fill-opacity="0" d="M 0 0" stroke-linejoin="round">
		</path>
		<path fill="rgb(255,255,255)" fill-opacity="0" d="M 120.2 284.5 L 533.5 327.8 L 533.5 327 L 120.2 283.7 Z" stroke-linejoin="round">
		</path>
		<path fill="rgb(255,255,255)" fill-opacity="0" d="M 533.5 327 L 534.5 313.2 L 134.5 272.9 L 120.2 283.7 Z" stroke-linejoin="round">
		</path>
	</g>
	<g class="highcharts-grid">
		<path fill="none" d="M 198.9 60.7 L 198.9 60.7 L 206.7 280.2 L 194.5 291.5" stroke="#D8D8D8" stroke-width="1" opacity="1">
		</path>
		<path fill="none" d="M 280.0 63.3 L 280.0 63.3 L 282.6 287.8 L 272.7 299.7" stroke="#D8D8D8" stroke-width="1" opacity="1">
		</path>
		<path fill="none" d="M 366.1 66.2 L 366.1 66.2 L 362.9 295.9 L 355.7 308.4" stroke="#D8D8D8" stroke-width="1" opacity="1">
		</path>
		<path fill="none" d="M 456.0 69.1 L 456.0 69.1 L 446.4 304.3 L 442.1 317.4" stroke="#D8D8D8" stroke-width="1" opacity="1">
		</path>
		<path fill="none" d="M 551.7 72.3 L 551.7 72.3 L 534.9 313.2 L 534.0 327.0" stroke="#D8D8D8" stroke-width="1" opacity="1">
		</path>
		<path fill="none" d="M 121.6 58.1 L 121.6 58.1 L 134.2 272.9 L 119.8 283.7" stroke="#D8D8D8" stroke-width="1" opacity="1">
		</path>
	</g>
	<g class="highcharts-grid">
	</g>
	<g class="highcharts-grid">
		<path fill="none" d="M 120.2 284.1 L 134.6 273.3 L 534.5 313.6 L 534.5 313.6" stroke="#D8D8D8" stroke-width="1" opacity="1">
		</path>
		<path fill="none" d="M 118.0 249.1 L 132.6 239.3 L 537.1 275.7 L 537.1 275.7" stroke="#D8D8D8" stroke-width="1" opacity="1">
		</path>
		<path fill="none" d="M 115.7 213.2 L 130.5 204.6 L 539.8 237.0 L 539.8 237.0" stroke="#D8D8D8" stroke-width="1" opacity="1">
		</path>
		<path fill="none" d="M 113.4 177.4 L 128.5 169.8 L 542.5 198.1 L 542.5 198.1" stroke="#D8D8D8" stroke-width="1" opacity="1">
		</path>
		<path fill="none" d="M 111.1 139.9 L 126.4 133.6 L 545.3 157.4 L 545.3 157.4" stroke="#D8D8D8" stroke-width="1" opacity="1">
		</path>
		<path fill="none" d="M 108.6 101.6 L 124.2 96.5 L 548.2 115.6 L 548.2 115.6" stroke="#D8D8D8" stroke-width="1" opacity="1">
		</path>
		<path fill="none" d="M 106.1 61.5 L 122.0 57.7 L 551.3 71.8 L 551.3 71.8" stroke="#D8D8D8" stroke-width="1" opacity="1">
		</path>
	</g>
	<g class="highcharts-axis">
		<path fill="none" d="M 0 0" stroke="#C0D0E0" stroke-width="1">
		</path>
	</g>
	<g class="highcharts-axis">
	</g>
	<g class="highcharts-axis">
		<text x="74.5" text-anchor="middle" transform="translate(0,0) rotate(270 74.5 176.6)" class=" highcharts-yaxis-title" style="color:#707070;fill:#707070;" y="176.6" z="59.1">
			<tspan>Number of fruits
			</tspan>
		</text>
	</g>
	<g class="highcharts-series-group">
		<g class="highcharts-series highcharts-series-1 highcharts-tracker" transform="translate(63,46) scale(1 1)" style="" clip-path="url(#highcharts-1)">
			<g stroke="#434348" stroke-width="1" r="0">
				<path fill="#434348" d="M 74.4 239.6 L 92.6 241.5 L 89.8 188.5 L 71.4 186.9 Z" stroke-linejoin="round">
				</path>
				<path fill="rgb(92,92,97)" d="M 89.8 188.5 L 103.5 179.1 L 85.6 177.6 L 71.4 186.9 Z" stroke-linejoin="round">
				</path>
				<path fill="rgb(42,42,47)" d="M 89.8 188.5 L 92.6 241.5 L 105.9 230.4 L 103.5 179.1 Z" stroke-linejoin="round">
				</path>
			</g>
			<g stroke="#434348" stroke-width="1" r="0">
				<path fill="#434348" d="M 149.9 247.5 L 168.9 249.5 L 166.9 176.4 L 147.4 174.8 Z" stroke-linejoin="round">
				</path>
				<path fill="rgb(92,92,97)" d="M 166.9 176.4 L 178.3 167.1 L 159.4 165.6 L 147.4 174.8 Z" stroke-linejoin="round">
				</path>
				<path fill="rgb(42,42,47)" d="M 166.9 176.4 L 168.9 249.5 L 180.0 237.9 L 178.3 167.1 Z" stroke-linejoin="round">
				</path>
			</g>
			<g stroke="#434348" stroke-width="1" r="0">
				<path fill="#434348" d="M 229.0 255.7 L 248.9 257.8 L 248.8 183.1 L 228.3 181.4 Z" stroke-linejoin="round">
				</path>
				<path fill="rgb(92,92,97)" d="M 248.8 183.1 L 257.5 173.4 L 237.8 171.8 L 228.3 181.4 Z" stroke-linejoin="round">
				</path>
				<path fill="rgb(42,42,47)" d="M 248.8 183.1 L 248.9 257.8 L 257.5 245.7 L 257.5 173.4 Z" stroke-linejoin="round">
				</path>
			</g>
			<g stroke="#434348" stroke-width="1" r="0">
				<path fill="#434348" d="M 312.0 264.4 L 333.0 266.6 L 333.9 228.9 L 312.7 226.9 Z" stroke-linejoin="round">
				</path>
				<path fill="rgb(92,92,97)" d="M 333.9 228.9 L 339.8 217.3 L 319.2 215.5 L 312.7 226.9 Z" stroke-linejoin="round">
				</path>
				<path fill="rgb(42,42,47)" d="M 333.9 228.9 L 333.0 266.6 L 338.8 253.9 L 339.8 217.3 Z" stroke-linejoin="round">
				</path>
			</g>
			<g stroke="#434348" stroke-width="1" r="0">
				<path fill="#434348" d="M 399.3 273.6 L 421.4 275.9 L 426.6 177.9 L 403.8 176.2 Z" stroke-linejoin="round">
				</path>
				<path fill="rgb(92,92,97)" d="M 426.6 177.9 L 429.2 167.8 L 407.3 166.2 L 403.8 176.2 Z" stroke-linejoin="round">
				</path>
				<path fill="rgb(42,42,47)" d="M 426.6 177.9 L 421.4 275.9 L 424.1 262.5 L 429.2 167.8 Z" stroke-linejoin="round">
				</path>
			</g>
		</g>
		<g class="highcharts-markers highcharts-series-1" transform="translate(63,46) scale(1 1)" clip-path="none">
		</g>
		<g class="highcharts-series highcharts-series-0 highcharts-tracker" transform="translate(63,46) scale(1 1)" style="" clip-path="url(#highcharts-1)">
			<g stroke="#7cb5ec" stroke-width="1" r="0">
				<path fill="#7cb5ec" d="M 71.4 186.9 L 89.8 188.5 L 85.0 95.9 L 66.1 94.8 Z" stroke-linejoin="round">
				</path>
				<path fill="rgb(149,206,255)" d="M 85.0 95.9 L 99.2 89.4 L 80.9 88.4 L 66.1 94.8 Z" stroke-linejoin="round">
				</path>
				<path fill="rgb(99,156,211)" d="M 85.0 95.9 L 89.8 188.5 L 103.5 179.1 L 99.2 89.4 Z" stroke-linejoin="round">
				</path>
			</g>
			<g stroke="#7cb5ec" stroke-width="1" r="0">
				<path fill="#7cb5ec" d="M 147.4 174.8 L 166.9 176.4 L 165.3 119.7 L 145.5 118.4 Z" stroke-linejoin="round">
				</path>
				<path fill="rgb(149,206,255)" d="M 165.3 119.7 L 176.9 112.2 L 157.8 111.0 L 145.5 118.4 Z" stroke-linejoin="round">
				</path>
				<path fill="rgb(99,156,211)" d="M 165.3 119.7 L 166.9 176.4 L 178.3 167.1 L 176.9 112.2 Z" stroke-linejoin="round">
				</path>
			</g>
			<g stroke="#7cb5ec" stroke-width="1" r="0">
				<path fill="#7cb5ec" d="M 228.3 181.4 L 248.8 183.1 L 248.6 105.6 L 227.7 104.3 Z" stroke-linejoin="round">
				</path>
				<path fill="rgb(149,206,255)" d="M 248.6 105.6 L 257.6 98.4 L 237.3 97.3 L 227.7 104.3 Z" stroke-linejoin="round">
				</path>
				<path fill="rgb(99,156,211)" d="M 248.6 105.6 L 248.8 183.1 L 257.5 173.4 L 257.6 98.4 Z" stroke-linejoin="round">
				</path>
			</g>
			<g stroke="#7cb5ec" stroke-width="1" r="0">
				<path fill="rgb(149,206,255)" d="M 337.4 89.6 L 343.3 82.8 L 321.9 81.8 L 315.2 88.5 Z" stroke-linejoin="round">
				</path>
				<path fill="#7cb5ec" d="M 312.7 226.9 L 333.9 228.9 L 337.4 89.6 L 315.2 88.5 Z" stroke-linejoin="round">
				</path>
				<path fill="rgb(99,156,211)" d="M 337.4 89.6 L 333.9 228.9 L 339.8 217.3 L 343.3 82.8 Z" stroke-linejoin="round">
				</path>
			</g>
			<g stroke="#7cb5ec" stroke-width="1" r="0">
				<path fill="#7cb5ec" d="M 403.8 176.2 L 426.6 177.9 L 428.9 136.8 L 405.7 135.3 Z" stroke-linejoin="round">
				</path>
				<path fill="rgb(149,206,255)" d="M 428.9 136.8 L 431.4 128.1 L 409.1 126.7 L 405.7 135.3 Z" stroke-linejoin="round">
				</path>
				<path fill="rgb(99,156,211)" d="M 428.9 136.8 L 426.6 177.9 L 429.2 167.8 L 431.4 128.1 Z" stroke-linejoin="round">
				</path>
			</g>
		</g>
		<g class="highcharts-markers highcharts-series-0" transform="translate(63,46) scale(1 1)" clip-path="none">
		</g>
		<g class="highcharts-series highcharts-series-3 highcharts-tracker" transform="translate(63,46) scale(1 1)" style="" clip-path="url(#highcharts-1)">
			<g stroke="#f7a35c" stroke-width="1" r="0">
				<path fill="#f7a35c" d="M 96.2 241.9 L 114.7 243.8 L 112.3 190.5 L 93.6 188.8 Z" stroke-linejoin="round">
				</path>
				<path fill="rgb(255,188,117)" d="M 112.3 190.5 L 125.3 180.9 L 107.1 179.4 L 93.6 188.8 Z" stroke-linejoin="round">
				</path>
				<path fill="rgb(222,138,67)" d="M 112.3 190.5 L 114.7 243.8 L 127.4 232.6 L 125.3 180.9 Z" stroke-linejoin="round">
				</path>
			</g>
			<g stroke="#f7a35c" stroke-width="1" r="0">
				<path fill="#f7a35c" d="M 0 0" stroke-linejoin="round">
				</path>
				<path fill="rgb(222,138,67)" d="M 0 0" stroke-linejoin="round">
				</path>
				<path fill="rgb(255,188,117)" d="M 192.0 251.9 L 202.4 240.2 L 183.7 238.3 L 172.7 249.9 Z" stroke-linejoin="round">
				</path>
			</g>
			<g stroke="#f7a35c" stroke-width="1" r="0">
				<path fill="#f7a35c" d="M 253.8 258.3 L 274.0 260.5 L 274.5 185.2 L 253.7 183.5 Z" stroke-linejoin="round">
				</path>
				<path fill="rgb(255,188,117)" d="M 274.5 185.2 L 282.4 175.3 L 262.3 173.7 L 253.7 183.5 Z" stroke-linejoin="round">
				</path>
				<path fill="rgb(222,138,67)" d="M 274.5 185.2 L 274.0 260.5 L 281.8 248.2 L 282.4 175.3 Z" stroke-linejoin="round">
				</path>
			</g>
			<g stroke="#f7a35c" stroke-width="1" r="0">
				<path fill="#f7a35c" d="M 338.1 267.1 L 359.4 269.4 L 362.0 192.4 L 340.1 190.6 Z" stroke-linejoin="round">
				</path>
				<path fill="rgb(255,188,117)" d="M 362.0 192.4 L 366.9 182.0 L 345.8 180.3 L 340.1 190.6 Z" stroke-linejoin="round">
				</path>
				<path fill="rgb(222,138,67)" d="M 362.0 192.4 L 359.4 269.4 L 364.3 256.5 L 366.9 182.0 Z" stroke-linejoin="round">
				</path>
			</g>
			<g stroke="#f7a35c" stroke-width="1" r="0">
				<path fill="#f7a35c" d="M 426.7 276.4 L 449.2 278.8 L 452.8 220.5 L 430.0 218.5 Z" stroke-linejoin="round">
				</path>
				<path fill="rgb(255,188,117)" d="M 452.8 220.5 L 454.4 208.8 L 432.4 207.0 L 430.0 218.5 Z" stroke-linejoin="round">
				</path>
				<path fill="rgb(222,138,67)" d="M 452.8 220.5 L 449.2 278.8 L 450.9 265.2 L 454.4 208.8 Z" stroke-linejoin="round">
				</path>
			</g>
		</g>
		<g class="highcharts-markers highcharts-series-3" transform="translate(63,46) scale(1 1)" clip-path="none">
		</g>
		<g class="highcharts-series highcharts-series-2 highcharts-tracker" transform="translate(63,46) scale(1 1)" style="" clip-path="url(#highcharts-1)">
			<g stroke="#90ed7d" stroke-width="1" r="0">
				<path fill="#90ed7d" d="M 93.6 188.8 L 112.3 190.5 L 110.6 153.7 L 91.7 152.2 Z" stroke-linejoin="round">
				</path>
				<path fill="rgb(169,255,150)" d="M 110.6 153.7 L 123.8 145.3 L 105.5 143.9 L 91.7 152.2 Z" stroke-linejoin="round">
				</path>
				<path fill="rgb(119,212,100)" d="M 110.6 153.7 L 112.3 190.5 L 125.3 180.9 L 123.8 145.3 Z" stroke-linejoin="round">
				</path>
			</g>
			<g stroke="#90ed7d" stroke-width="1" r="0">
				<path fill="#90ed7d" d="M 172.7 249.9 L 192.0 251.9 L 190.2 159.8 L 170.3 158.3 Z" stroke-linejoin="round">
				</path>
				<path fill="rgb(169,255,150)" d="M 190.2 159.8 L 200.9 151.0 L 181.6 149.5 L 170.3 158.3 Z" stroke-linejoin="round">
				</path>
				<path fill="rgb(119,212,100)" d="M 190.2 159.8 L 192.0 251.9 L 202.4 240.2 L 200.9 151.0 Z" stroke-linejoin="round">
				</path>
			</g>
			<g stroke="#90ed7d" stroke-width="1" r="0">
				<path fill="rgb(169,255,150)" d="M 275.2 66.2 L 283.4 60.3 L 262.6 59.4 L 253.7 65.2 Z" stroke-linejoin="round">
				</path>
				<path fill="#90ed7d" d="M 253.7 183.5 L 274.5 185.2 L 275.2 66.2 L 253.7 65.2 Z" stroke-linejoin="round">
				</path>
				<path fill="rgb(119,212,100)" d="M 275.2 66.2 L 274.5 185.2 L 282.4 175.3 L 283.4 60.3 Z" stroke-linejoin="round">
				</path>
			</g>
			<g stroke="#90ed7d" stroke-width="1" r="0">
				<path fill="#90ed7d" d="M 340.1 190.6 L 362.0 192.4 L 363.3 153.3 L 341.1 151.8 Z" stroke-linejoin="round">
				</path>
				<path fill="rgb(169,255,150)" d="M 363.3 153.3 L 368.2 144.3 L 346.8 142.8 L 341.1 151.8 Z" stroke-linejoin="round">
				</path>
				<path fill="rgb(119,212,100)" d="M 363.3 153.3 L 362.0 192.4 L 366.9 182.0 L 368.2 144.3 Z" stroke-linejoin="round">
				</path>
			</g>
			<g stroke="#90ed7d" stroke-width="1" r="0">
				<path fill="#90ed7d" d="M 430.0 218.5 L 452.8 220.5 L 454.1 200.0 L 431.1 198.1 Z" stroke-linejoin="round">
				</path>
				<path fill="rgb(119,212,100)" d="M 454.1 200.0 L 452.8 220.5 L 454.4 208.8 L 455.7 189.0 Z" stroke-linejoin="round">
				</path>
				<path fill="rgb(169,255,150)" d="M 454.1 200.0 L 455.7 189.0 L 433.5 187.3 L 431.1 198.1 Z" stroke-linejoin="round">
				</path>
			</g>
		</g>
		<g class="highcharts-markers highcharts-series-2" transform="translate(63,46) scale(1 1)" clip-path="none">
		</g>
	</g>
	<text x="292" text-anchor="middle" class="highcharts-title" style="color:#333333;font-size:18px;fill:#333333;width:520px;" y="24">
		<tspan>Total fruit consumption, grouped by gender
		</tspan>
	</text>
	<g class="highcharts-legend" transform="translate(159,360)">
		<g>
			<g>
				<g class="highcharts-legend-item" transform="translate(8,3)">
					<text x="21" style="color:#333333;font-size:12px;font-weight:bold;cursor:pointer;fill:#333333;" text-anchor="start" y="15">John
					</text>
					<rect x="0" y="4" width="16" height="12" fill="#7cb5ec">
					</rect>
				</g>
				<g class="highcharts-legend-item" transform="translate(77.4,3)">
					<text x="21" y="15" style="color:#333333;font-size:12px;font-weight:bold;cursor:pointer;fill:#333333;" text-anchor="start">Joe
					</text>
					<rect x="0" y="4" width="16" height="12" fill="#434348">
					</rect>
				</g>
				<g class="highcharts-legend-item" transform="translate(138.1,3)">
					<text x="21" y="15" style="color:#333333;font-size:12px;font-weight:bold;cursor:pointer;fill:#333333;" text-anchor="start">Jane
					</text>
					<rect x="0" y="4" width="16" height="12" fill="#90ed7d">
					</rect>
				</g>
				<g class="highcharts-legend-item" transform="translate(206.0,3)">
					<text x="21" y="15" style="color:#333333;font-size:12px;font-weight:bold;cursor:pointer;fill:#333333;" text-anchor="start">Janet
					</text>
					<rect x="0" y="4" width="16" height="12" fill="#f7a35c">
					</rect>
				</g>
			</g>
		</g>
	</g>
	<g class="highcharts-axis-labels highcharts-xaxis-labels">
		<text x="157.9" style="color:#606060;cursor:default;font-size:11px;fill:#606060;width:92px;text-overflow:clip;" text-anchor="middle" transform="translate(0,0)" y="301.7" z="83.9" old="[object Object]" opacity="1">Apples
		</text>
		<text x="234.1" style="color:#606060;cursor:default;font-size:11px;fill:#606060;width:92px;text-overflow:clip;" text-anchor="middle" transform="translate(0,0)" y="310.0" z="61.7" old="[object Object]" opacity="1">Oranges
		</text>
		<text x="314.1" style="color:#606060;cursor:default;font-size:11px;fill:#606060;width:92px;text-overflow:clip;" text-anchor="middle" transform="translate(0,0)" y="318.7" z="39.6" old="[object Object]" opacity="1">Pears
		</text>
		<text x="398.2" style="color:#606060;cursor:default;font-size:11px;fill:#606060;width:92px;text-overflow:clip;" text-anchor="middle" transform="translate(0,0)" y="327.9" z="17.4" old="[object Object]" opacity="1">Grapes
		</text>
		<text x="486.5" style="color:#606060;cursor:default;font-size:11px;fill:#606060;width:92px;text-overflow:clip;" text-anchor="middle" transform="translate(0,0)" y="337.5" z="-4.6" old="[object Object]" opacity="1">Bananas
		</text>
	</g>
	<g class="highcharts-axis-labels highcharts-zaxis-labels">
	</g>
	<g class="highcharts-axis-labels highcharts-yaxis-labels">
		<text x="109.7" style="color:#606060;cursor:default;font-size:11px;fill:#606060;width:183px;text-overflow:clip;" text-anchor="end" transform="translate(0,0)" y="286.3" z="95.0" old="[object Object]" opacity="1">0
		</text>
		<text x="107.4" style="color:#606060;cursor:default;font-size:11px;fill:#606060;width:183px;text-overflow:clip;" text-anchor="end" transform="translate(0,0)" y="251.4" z="84.5" old="[object Object]" opacity="1">2
		</text>
		<text x="105.0" style="color:#606060;cursor:default;font-size:11px;fill:#606060;width:183px;text-overflow:clip;" text-anchor="end" transform="translate(0,0)" y="215.8" z="74.0" old="[object Object]" opacity="1">4
		</text>
		<text x="102.6" style="color:#606060;cursor:default;font-size:11px;fill:#606060;width:183px;text-overflow:clip;" text-anchor="end" transform="translate(0,0)" y="179.3" z="63.4" old="[object Object]" opacity="1">6
		</text>
		<text x="100.1" style="color:#606060;cursor:default;font-size:11px;fill:#606060;width:183px;text-overflow:clip;" text-anchor="end" transform="translate(0,0)" y="142.1" z="52.9" old="[object Object]" opacity="1">8
		</text>
		<text x="97.6" style="color:#606060;cursor:default;font-size:11px;fill:#606060;width:183px;text-overflow:clip;" text-anchor="end" transform="translate(0,0)" y="103.9" z="42.3" old="[object Object]" opacity="1">10
		</text>
		<text x="95.0" style="color:#606060;cursor:default;font-size:11px;fill:#606060;width:183px;text-overflow:clip;" text-anchor="end" transform="translate(0,0)" y="65.7" z="32.0" old="[object Object]" opacity="1">12
		</text>
	</g>
	<g class="highcharts-tooltip" style="cursor:default;padding:0;pointer-events:none;white-space:nowrap;" transform="translate(0,-9999)">
		<path fill="none" d="M 3.5 0.5 L 13.5 0.5 C 16.5 0.5 16.5 0.5 16.5 3.5 L 16.5 13.5 C 16.5 16.5 16.5 16.5 13.5 16.5 L 3.5 16.5 C 0.5 16.5 0.5 16.5 0.5 13.5 L 0.5 3.5 C 0.5 0.5 0.5 0.5 3.5 0.5"  stroke="black" stroke-opacity="0.0" stroke-width="5" transform="translate(1, 1)">
		</path>
		<path fill="none" d="M 3.5 0.5 L 13.5 0.5 C 16.5 0.5 16.5 0.5 16.5 3.5 L 16.5 13.5 C 16.5 16.5 16.5 16.5 13.5 16.5 L 3.5 16.5 C 0.5 16.5 0.5 16.5 0.5 13.5 L 0.5 3.5 C 0.5 0.5 0.5 0.5 3.5 0.5"  stroke="black" stroke-opacity="0.0" stroke-width="3" transform="translate(1, 1)">
		</path>
		<path fill="none" d="M 3.5 0.5 L 13.5 0.5 C 16.5 0.5 16.5 0.5 16.5 3.5 L 16.5 13.5 C 16.5 16.5 16.5 16.5 13.5 16.5 L 3.5 16.5 C 0.5 16.5 0.5 16.5 0.5 13.5 L 0.5 3.5 C 0.5 0.5 0.5 0.5 3.5 0.5"  stroke="black" stroke-opacity="0.1" stroke-width="1" transform="translate(1, 1)">
		</path>
		<path fill="rgb(249, 249, 249)" fill-opacity=" .85" d="M 3.5 0.5 L 13.5 0.5 C 16.5 0.5 16.5 0.5 16.5 3.5 L 16.5 13.5 C 16.5 16.5 16.5 16.5 13.5 16.5 L 3.5 16.5 C 0.5 16.5 0.5 16.5 0.5 13.5 L 0.5 3.5 C 0.5 0.5 0.5 0.5 3.5 0.5">
		</path>
		<text x="8" style="font-size:12px;color:#333333;fill:#333333;" y="20">
		</text>
	</g>
</svg>