
<svg version="1.1" style="font-family:&quot;lucida grande&quot;, &quot;lucida sans unicode&quot;, arial, helvetica, sans-serif;font-size:12px;" xmlns="http://www.w3.org/2000/svg" viewBox="0 0 584 400">
	<desc>Created with Highcharts 4.2.4
	</desc>
	<defs>
		<clipPath id="highcharts-1">
			<rect x="0" y="0" width="501" height="281">
			</rect>
		</clipPath>
	</defs>
	<rect x="0" y="0" width="584" height="400" fill="#FFFFFF" class=" highcharts-background" stroke="transparent">
	</rect>
	<g class="highcharts-grid">
	</g>
	<g class="highcharts-grid">
		<path fill="none" d="M 73 327.5 L 574 327.5" stroke="#D8D8D8" stroke-width="1" opacity="1">
		</path>
		<path fill="none" d="M 73 271.5 L 574 271.5" stroke="#D8D8D8" stroke-width="1" opacity="1">
		</path>
		<path fill="none" d="M 73 215.5 L 574 215.5" stroke="#D8D8D8" stroke-width="1" opacity="1">
		</path>
		<path fill="none" d="M 73 158.5 L 574 158.5" stroke="#D8D8D8" stroke-width="1" opacity="1">
		</path>
		<path fill="none" d="M 73 102.5 L 574 102.5" stroke="#D8D8D8" stroke-width="1" opacity="1">
		</path>
		<path fill="none" d="M 73 45.5 L 574 45.5" stroke="#D8D8D8" stroke-width="1" opacity="1">
		</path>
	</g>
	<g class="highcharts-axis">
		<path fill="none" d="M 172.5 327 L 172.5 337" stroke="#C0D0E0" stroke-width="1" opacity="1">
		</path>
		<path fill="none" d="M 272.5 327 L 272.5 337" stroke="#C0D0E0" stroke-width="1" opacity="1">
		</path>
		<path fill="none" d="M 373.5 327 L 373.5 337" stroke="#C0D0E0" stroke-width="1" opacity="1">
		</path>
		<path fill="none" d="M 473.5 327 L 473.5 337" stroke="#C0D0E0" stroke-width="1" opacity="1">
		</path>
		<path fill="none" d="M 574.5 327 L 574.5 337" stroke="#C0D0E0" stroke-width="1" opacity="1">
		</path>
		<path fill="none" d="M 72.5 327 L 72.5 337" stroke="#C0D0E0" stroke-width="1" opacity="1">
		</path>
		<path fill="none" d="M 73 327.5 L 574 327.5" stroke="#C0D0E0" stroke-width="1">
		</path>
	</g>
	<g class="highcharts-axis">
		<text x="24.2" text-anchor="middle" transform="translate(0,0) rotate(270 24.2 186.5)" class=" highcharts-yaxis-title" style="color:#707070;fill:#707070;" y="186.5">Values
		</text>
	</g>
	<g class="highcharts-series-group">
		<g class="highcharts-series highcharts-series-0" transform="translate(73,46) scale(1 1)" clip-path="url(#highcharts-1)">
			<path fill="#7cb5ec" d="M 50.1 56.1 L 150.3 101.1 L 250.5 78.6 L 350.7 11.2 L 450.9 123.6 L 450.9 168.6 L 350.7 168.6 L 250.5 168.6 L 150.3 168.6 L 50.1 168.6" fill-opacity="0.7">
			</path>
			<path fill="none" d="M 50.1 56.1 L 150.3 101.1 L 250.5 78.6 L 350.7 11.2 L 450.9 123.6" stroke="#7cb5ec" stroke-width="2" stroke-linejoin="round" stroke-linecap="round">
			</path>
			<path fill="none" d="M 40.1 56.1 L 50.1 56.1 L 150.3 101.1 L 250.5 78.6 L 350.7 11.2 L 450.9 123.6 L 460.9 123.6" stroke-linejoin="round" visibility="visible" stroke="rgb(192,192,192)" stroke-opacity="0.0" stroke-width="22" class=" highcharts-tracker" style="">
			</path>
		</g>
		<g class="highcharts-markers highcharts-series-0 highcharts-tracker" transform="translate(73,46) scale(1 1)" style="" clip-path="none">
			<path fill="#7cb5ec" d="M 450 119.6 C 455.3 119.6 455.3 127.6 450 127.6 C 444.6 127.6 444.6 119.6 450 119.6 Z">
			</path>
			<path fill="#7cb5ec" d="M 350 7.2 C 355.3 7.2 355.3 15.2 350 15.2 C 344.6 15.2 344.6 7.2 350 7.2 Z">
			</path>
			<path fill="#7cb5ec" d="M 250 74.6 C 255.3 74.6 255.3 82.6 250 82.6 C 244.6 82.6 244.6 74.6 250 74.6 Z">
			</path>
			<path fill="#7cb5ec" d="M 150 97.1 C 155.3 97.1 155.3 105.1 150 105.1 C 144.6 105.1 144.6 97.1 150 97.1 Z">
			</path>
			<path fill="#7cb5ec" d="M 50 52.1 C 55.3 52.1 55.3 60.1 50 60.1 C 44.6 60.1 44.6 52.1 50 52.1 Z">
			</path>
		</g>
		<g class="highcharts-series highcharts-series-1" transform="translate(73,46) scale(1 1)" clip-path="url(#highcharts-1)">
			<path fill="#434348" d="M 50.1 123.6 L 150.3 213.5 L 250.5 236.0 L 350.7 123.6 L 450.9 146.1 L 450.9 168.6 L 350.7 168.6 L 250.5 168.6 L 150.3 168.6 L 50.1 168.6" fill-opacity="0.7">
			</path>
			<path fill="none" d="M 50.1 123.6 L 150.3 213.5 L 250.5 236.0 L 350.7 123.6 L 450.9 146.1" stroke="#434348" stroke-width="2" stroke-linejoin="round" stroke-linecap="round">
			</path>
			<path fill="none" d="M 40.1 123.6 L 50.1 123.6 L 150.3 213.5 L 250.5 236.0 L 350.7 123.6 L 450.9 146.1 L 460.9 146.1" stroke-linejoin="round" visibility="visible" stroke="rgb(192,192,192)" stroke-opacity="0.0" stroke-width="22" class=" highcharts-tracker" style="">
			</path>
		</g>
		<g class="highcharts-markers highcharts-series-1 highcharts-tracker" transform="translate(73,46) scale(1 1)" style="" clip-path="none">
			<path fill="#434348" d="M 450 142.1 L 454 146.1 450 150.1 446 146.1 Z">
			</path>
			<path fill="#434348" d="M 350 119.6 L 354 123.6 350 127.6 346 123.6 Z">
			</path>
			<path fill="#434348" d="M 250 232.0 L 254 236.0 250 240.0 246 236.0 Z">
			</path>
			<path fill="#434348" d="M 150 209.5 L 154 213.5 150 217.5 146 213.5 Z">
			</path>
			<path fill="#434348" d="M 50 119.6 L 54 123.6 50 127.6 46 123.6 Z">
			</path>
		</g>
		<g class="highcharts-series highcharts-series-2" transform="translate(73,46) scale(1 1)" clip-path="url(#highcharts-1)">
			<path fill="#90ed7d" d="M 50.1 101.1 L 150.3 78.6 L 250.5 78.6 L 350.7 213.5 L 450.9 56.1 L 450.9 168.6 L 350.7 168.6 L 250.5 168.6 L 150.3 168.6 L 50.1 168.6" fill-opacity="0.7">
			</path>
			<path fill="none" d="M 50.1 101.1 L 150.3 78.6 L 250.5 78.6 L 350.7 213.5 L 450.9 56.1" stroke="#90ed7d" stroke-width="2" stroke-linejoin="round" stroke-linecap="round">
			</path>
			<path fill="none" d="M 40.1 101.1 L 50.1 101.1 L 150.3 78.6 L 250.5 78.6 L 350.7 213.5 L 450.9 56.1 L 460.9 56.1" stroke-linejoin="round" visibility="visible" stroke="rgb(192,192,192)" stroke-opacity="0.0" stroke-width="22" class=" highcharts-tracker" style="">
			</path>
		</g>
		<g class="highcharts-markers highcharts-series-2 highcharts-tracker" transform="translate(73,46) scale(1 1)" style="" clip-path="none">
			<path fill="#90ed7d" d="M 446 52.1 L 454 52.1 454 60.1 446 60.1 Z">
			</path>
			<path fill="#90ed7d" d="M 346 209.5 L 354 209.5 354 217.5 346 217.5 Z">
			</path>
			<path fill="#90ed7d" d="M 246 74.6 L 254 74.6 254 82.6 246 82.6 Z">
			</path>
			<path fill="#90ed7d" d="M 146 74.6 L 154 74.6 154 82.6 146 82.6 Z">
			</path>
			<path fill="#90ed7d" d="M 46 97.1 L 54 97.1 54 105.1 46 105.1 Z">
			</path>
		</g>
	</g>
	<text x="292" text-anchor="middle" class="highcharts-title" style="color:#333333;font-size:18px;fill:#333333;width:520px;" y="24">
		<tspan>Area chart with negative values
		</tspan>
	</text>
	<g class="highcharts-legend" transform="translate(195,360)">
		<g>
			<g>
				<g class="highcharts-legend-item" transform="translate(8,3)">
					<text x="21" style="color:#333333;font-size:12px;font-weight:bold;cursor:pointer;fill:#333333;" text-anchor="start" y="15">John
					</text>
					<rect x="0" y="4" width="16" height="12" fill="#7cb5ec">
					</rect>
				</g>
				<g class="highcharts-legend-item" transform="translate(77.4,3)">
					<text x="21" y="15" style="color:#333333;font-size:12px;font-weight:bold;cursor:pointer;fill:#333333;" text-anchor="start">Jane
					</text>
					<rect x="0" y="4" width="16" height="12" fill="#434348">
					</rect>
				</g>
				<g class="highcharts-legend-item" transform="translate(145.3,3)">
					<text x="21" y="15" style="color:#333333;font-size:12px;font-weight:bold;cursor:pointer;fill:#333333;" text-anchor="start">Joe
					</text>
					<rect x="0" y="4" width="16" height="12" fill="#90ed7d">
					</rect>
				</g>
			</g>
		</g>
	</g>
	<g class="highcharts-axis-labels highcharts-xaxis-labels">
		<text x="123.1" style="color:#606060;cursor:default;font-size:11px;fill:#606060;width:90px;text-overflow:clip;" text-anchor="middle" transform="translate(0,0)" y="346" opacity="1">Apples
		</text>
		<text x="223.2" style="color:#606060;cursor:default;font-size:11px;fill:#606060;width:90px;text-overflow:clip;" text-anchor="middle" transform="translate(0,0)" y="346" opacity="1">Oranges
		</text>
		<text x="323.5" style="color:#606060;cursor:default;font-size:11px;fill:#606060;width:90px;text-overflow:clip;" text-anchor="middle" transform="translate(0,0)" y="346" opacity="1">Pears
		</text>
		<text x="423.7" style="color:#606060;cursor:default;font-size:11px;fill:#606060;width:90px;text-overflow:clip;" text-anchor="middle" transform="translate(0,0)" y="346" opacity="1">Grapes
		</text>
		<text x="523.9" style="color:#606060;cursor:default;font-size:11px;fill:#606060;width:90px;text-overflow:clip;" text-anchor="middle" transform="translate(0,0)" y="346" opacity="1">Bananas
		</text>
	</g>
	<g class="highcharts-axis-labels highcharts-yaxis-labels">
		<text x="58" style="color:#606060;cursor:default;font-size:11px;fill:#606060;width:183px;text-overflow:clip;" text-anchor="end" transform="translate(0,0)" y="332" opacity="1">-5
		</text>
		<text x="58" style="color:#606060;cursor:default;font-size:11px;fill:#606060;width:183px;text-overflow:clip;" text-anchor="end" transform="translate(0,0)" y="275" opacity="1">-2.5
		</text>
		<text x="58" style="color:#606060;cursor:default;font-size:11px;fill:#606060;width:183px;text-overflow:clip;" text-anchor="end" transform="translate(0,0)" y="219" opacity="1">0
		</text>
		<text x="58" style="color:#606060;cursor:default;font-size:11px;fill:#606060;width:183px;text-overflow:clip;" text-anchor="end" transform="translate(0,0)" y="163" opacity="1">2.5
		</text>
		<text x="58" style="color:#606060;cursor:default;font-size:11px;fill:#606060;width:183px;text-overflow:clip;" text-anchor="end" transform="translate(0,0)" y="107" opacity="1">5
		</text>
		<text x="58" style="color:#606060;cursor:default;font-size:11px;fill:#606060;width:183px;text-overflow:clip;" text-anchor="end" transform="translate(0,0)" y="51" opacity="1">7.5
		</text>
	</g>
	<g class="highcharts-tooltip" style="cursor:default;padding:0;pointer-events:none;white-space:nowrap;" transform="translate(0,-9999)">
		<path fill="none" d="M 3.5 0.5 L 13.5 0.5 C 16.5 0.5 16.5 0.5 16.5 3.5 L 16.5 13.5 C 16.5 16.5 16.5 16.5 13.5 16.5 L 3.5 16.5 C 0.5 16.5 0.5 16.5 0.5 13.5 L 0.5 3.5 C 0.5 0.5 0.5 0.5 3.5 0.5"  stroke="black" stroke-opacity="0.0" stroke-width="5" transform="translate(1, 1)">
		</path>
		<path fill="none" d="M 3.5 0.5 L 13.5 0.5 C 16.5 0.5 16.5 0.5 16.5 3.5 L 16.5 13.5 C 16.5 16.5 16.5 16.5 13.5 16.5 L 3.5 16.5 C 0.5 16.5 0.5 16.5 0.5 13.5 L 0.5 3.5 C 0.5 0.5 0.5 0.5 3.5 0.5"  stroke="black" stroke-opacity="0.0" stroke-width="3" transform="translate(1, 1)">
		</path>
		<path fill="none" d="M 3.5 0.5 L 13.5 0.5 C 16.5 0.5 16.5 0.5 16.5 3.5 L 16.5 13.5 C 16.5 16.5 16.5 16.5 13.5 16.5 L 3.5 16.5 C 0.5 16.5 0.5 16.5 0.5 13.5 L 0.5 3.5 C 0.5 0.5 0.5 0.5 3.5 0.5"  stroke="black" stroke-opacity="0.1" stroke-width="1" transform="translate(1, 1)">
		</path>
		<path fill="rgb(249, 249, 249)" fill-opacity=" .85" d="M 3.5 0.5 L 13.5 0.5 C 16.5 0.5 16.5 0.5 16.5 3.5 L 16.5 13.5 C 16.5 16.5 16.5 16.5 13.5 16.5 L 3.5 16.5 C 0.5 16.5 0.5 16.5 0.5 13.5 L 0.5 3.5 C 0.5 0.5 0.5 0.5 3.5 0.5">
		</path>
		<text x="8" style="font-size:12px;color:#333333;fill:#333333;" y="20">
		</text>
	</g>
</svg>