
<svg version="1.1" style="font-family:&quot;lucida grande&quot;, &quot;lucida sans unicode&quot;, arial, helvetica, sans-serif;font-size:12px;" xmlns="http://www.w3.org/2000/svg" viewBox="0 0 584 400">
	<desc>Created with Highcharts 4.2.4
	</desc>
	<defs>
		<radialGradient cx="0.4" cy="0.3" r="0.7" id="highcharts-1">
			<stop offset="0" stop-color="rgb(255,255,255)" stop-opacity="0.5">
			</stop>
			<stop offset="1" stop-color="rgb(124,181,236)" stop-opacity="0.5">
			</stop>
		</radialGradient>
		<radialGradient cx="0.4" cy="0.3" r="0.7" id="highcharts-2">
			<stop offset="0" stop-color="rgb(255,255,255)" stop-opacity="0.5">
			</stop>
			<stop offset="1" stop-color="rgb(67,67,72)" stop-opacity="0.5">
			</stop>
		</radialGradient>
		<clipPath id="highcharts-3">
			<rect x="0" y="0" width="504" height="281">
			</rect>
		</clipPath>
	</defs>
	<rect x="0" y="0" width="584" height="400" fill="#FFFFFF" class=" highcharts-background" stroke="transparent">
	</rect>
	<g class="highcharts-grid">
		<path fill="none" d="M 91.5 46 L 91.5 327" stroke="#D8D8D8" stroke-width="1" opacity="1">
		</path>
		<path fill="none" d="M 183.5 46 L 183.5 327" stroke="#D8D8D8" stroke-width="1" opacity="1">
		</path>
		<path fill="none" d="M 275.5 46 L 275.5 327" stroke="#D8D8D8" stroke-width="1" opacity="1">
		</path>
		<path fill="none" d="M 367.5 46 L 367.5 327" stroke="#D8D8D8" stroke-width="1" opacity="1">
		</path>
		<path fill="none" d="M 459.5 46 L 459.5 327" stroke="#D8D8D8" stroke-width="1" opacity="1">
		</path>
		<path fill="none" d="M 551.5 46 L 551.5 327" stroke="#D8D8D8" stroke-width="1" opacity="1">
		</path>
	</g>
	<g class="highcharts-grid">
		<path fill="none" d="M 70 294.5 L 574 294.5" stroke="#D8D8D8" stroke-width="1" opacity="1">
		</path>
		<path fill="none" d="M 70 236.5 L 574 236.5" stroke="#D8D8D8" stroke-width="1" opacity="1">
		</path>
		<path fill="none" d="M 70 178.5 L 574 178.5" stroke="#D8D8D8" stroke-width="1" opacity="1">
		</path>
		<path fill="none" d="M 70 120.5 L 574 120.5" stroke="#D8D8D8" stroke-width="1" opacity="1">
		</path>
		<path fill="none" d="M 70 63.5 L 574 63.5" stroke="#D8D8D8" stroke-width="1" opacity="1">
		</path>
	</g>
	<rect x="69.5" y="45.5" width="505" height="282" stroke="#C0C0C0" stroke-width="1" fill="none">
	</rect>
	<g class="highcharts-axis">
		<path fill="none" d="M 91.5 327 L 91.5 337" stroke="#C0D0E0" stroke-width="1" opacity="1">
		</path>
		<path fill="none" d="M 183.5 327 L 183.5 337" stroke="#C0D0E0" stroke-width="1" opacity="1">
		</path>
		<path fill="none" d="M 275.5 327 L 275.5 337" stroke="#C0D0E0" stroke-width="1" opacity="1">
		</path>
		<path fill="none" d="M 367.5 327 L 367.5 337" stroke="#C0D0E0" stroke-width="1" opacity="1">
		</path>
		<path fill="none" d="M 459.5 327 L 459.5 337" stroke="#C0D0E0" stroke-width="1" opacity="1">
		</path>
		<path fill="none" d="M 551.5 327 L 551.5 337" stroke="#C0D0E0" stroke-width="1" opacity="1">
		</path>
		<path fill="none" d="M 70 327.5 L 574 327.5" stroke="#C0D0E0" stroke-width="1">
		</path>
	</g>
	<g class="highcharts-axis">
		<text x="24.1" text-anchor="middle" transform="translate(0,0) rotate(270 24.1 186.5)" class=" highcharts-yaxis-title" style="color:#707070;fill:#707070;" y="186.5">Values
		</text>
	</g>
	<g class="highcharts-series-group">
		<g class="highcharts-series highcharts-series-0 highcharts-tracker" transform="translate(70,46) scale(1 1)" style="" clip-path="url(#highcharts-3)">
			<circle cx="63.2" cy="60.5" r="23.5" stroke="#7cb5ec" stroke-width="1" fill="url(#highcharts-1)">
			</circle>
			<circle cx="472.5" cy="236.2" r="27" stroke="#7cb5ec" stroke-width="1" fill="url(#highcharts-1)">
			</circle>
			<circle cx="256.4" cy="132.2" r="25" stroke="#7cb5ec" stroke-width="1" fill="url(#highcharts-1)">
			</circle>
			<circle cx="210.4" cy="196.9" r="13" stroke="#7cb5ec" stroke-width="1" fill="url(#highcharts-1)">
			</circle>
			<circle cx="288.6" cy="192.3" r="15" stroke="#7cb5ec" stroke-width="1" fill="url(#highcharts-1)">
			</circle>
			<circle cx="380.6" cy="162.2" r="18.5" stroke="#7cb5ec" stroke-width="1" fill="url(#highcharts-1)">
			</circle>
			<circle cx="274.8" cy="118.3" r="22" stroke="#7cb5ec" stroke-width="1" fill="url(#highcharts-1)">
			</circle>
			<circle cx="104.6" cy="143.7" r="24.5" stroke="#7cb5ec" stroke-width="1" fill="url(#highcharts-1)">
			</circle>
			<circle cx="215.0" cy="146.0" r="17" stroke="#7cb5ec" stroke-width="1" fill="url(#highcharts-1)">
			</circle>
			<circle cx="35.7" cy="127.5" r="23" stroke="#7cb5ec" stroke-width="1" fill="url(#highcharts-1)">
			</circle>
			<circle cx="164.4" cy="206.2" r="28" stroke="#7cb5ec" stroke-width="1" fill="url(#highcharts-1)">
			</circle>
			<circle cx="385.2" cy="37.3" r="23.5" stroke="#7cb5ec" stroke-width="1" fill="url(#highcharts-1)">
			</circle>
			<circle cx="449.5" cy="194.6" r="15.5" stroke="#7cb5ec" stroke-width="1" fill="url(#highcharts-1)">
			</circle>
			<circle cx="224.2" cy="55.8" r="15.5" stroke="#7cb5ec" stroke-width="1" fill="url(#highcharts-1)">
			</circle>
		</g>
		<g class="highcharts-markers highcharts-series-0" transform="translate(70,46) scale(1 1)" clip-path="none">
		</g>
		<g class="highcharts-series highcharts-series-1 highcharts-tracker" transform="translate(70,46) scale(1 1)" style="" clip-path="url(#highcharts-3)">
			<circle cx="215.0" cy="159.9" r="15" stroke="#434348" stroke-width="1" fill="url(#highcharts-2)">
			</circle>
			<circle cx="49.5" cy="206.2" r="4" stroke="#434348" stroke-width="1" fill="url(#highcharts-2)">
			</circle>
			<circle cx="26.5" cy="32.7" r="22" stroke="#434348" stroke-width="1" fill="url(#highcharts-2)">
			</circle>
			<circle cx="284.0" cy="243.2" r="27.5" stroke="#434348" stroke-width="1" fill="url(#highcharts-2)">
			</circle>
			<circle cx="389.8" cy="72.0" r="15.5" stroke="#434348" stroke-width="1" fill="url(#highcharts-2)">
			</circle>
			<circle cx="72.4" cy="76.7" r="28" stroke="#434348" stroke-width="1" fill="url(#highcharts-2)">
			</circle>
			<circle cx="426.6" cy="118.3" r="11.5" stroke="#434348" stroke-width="1" fill="url(#highcharts-2)">
			</circle>
			<circle cx="159.8" cy="139.1" r="21" stroke="#434348" stroke-width="1" fill="url(#highcharts-2)">
			</circle>
			<circle cx="284.0" cy="104.4" r="28.5" stroke="#434348" stroke-width="1" fill="url(#highcharts-2)">
			</circle>
			<circle cx="40.3" cy="210.8" r="13.5" stroke="#434348" stroke-width="1" fill="url(#highcharts-2)">
			</circle>
			<circle cx="233.4" cy="224.7" r="12" stroke="#434348" stroke-width="1" fill="url(#highcharts-2)">
			</circle>
			<circle cx="123.0" cy="46.6" r="27" stroke="#434348" stroke-width="1" fill="url(#highcharts-2)">
			</circle>
			<circle cx="284.0" cy="37.3" r="26.5" stroke="#434348" stroke-width="1" fill="url(#highcharts-2)">
			</circle>
			<circle cx="228.8" cy="213.1" r="28.5" stroke="#434348" stroke-width="1" fill="url(#highcharts-2)">
			</circle>
		</g>
		<g class="highcharts-markers highcharts-series-1" transform="translate(70,46) scale(1 1)" clip-path="none">
		</g>
	</g>
	<text x="292" text-anchor="middle" class="highcharts-title" style="color:#333333;font-size:18px;fill:#333333;width:520px;" y="24">
		<tspan>Highcharts bubbles with radial gradient fill
		</tspan>
	</text>
	<g class="highcharts-legend" transform="translate(204,360)">
		<g>
			<g>
				<g class="highcharts-legend-item" transform="translate(8,3)">
					<text x="21" style="color:#333333;font-size:12px;font-weight:bold;cursor:pointer;fill:#333333;" text-anchor="start" y="15">
						<tspan>Series 1
						</tspan>
					</text>
					<circle cx="6" cy="9" r="6" fill="url(#highcharts-1)" stroke="#7cb5ec" stroke-width="1">
					</circle>
				</g>
				<g class="highcharts-legend-item" transform="translate(97.8,3)">
					<text x="21" y="15" style="color:#333333;font-size:12px;font-weight:bold;cursor:pointer;fill:#333333;" text-anchor="start">
						<tspan>Series 2
						</tspan>
					</text>
					<circle cx="6" cy="9" r="6" fill="url(#highcharts-2)" stroke="#434348" stroke-width="1">
					</circle>
				</g>
			</g>
		</g>
	</g>
	<g class="highcharts-axis-labels highcharts-xaxis-labels">
		<text x="91.9" style="color:#606060;cursor:default;font-size:11px;fill:#606060;width:91px;text-overflow:clip;" text-anchor="middle" transform="translate(0,0)" y="346" opacity="1">0
		</text>
		<text x="183.8" style="color:#606060;cursor:default;font-size:11px;fill:#606060;width:91px;text-overflow:clip;" text-anchor="middle" transform="translate(0,0)" y="346" opacity="1">20
		</text>
		<text x="275.8" style="color:#606060;cursor:default;font-size:11px;fill:#606060;width:91px;text-overflow:clip;" text-anchor="middle" transform="translate(0,0)" y="346" opacity="1">40
		</text>
		<text x="367.8" style="color:#606060;cursor:default;font-size:11px;fill:#606060;width:91px;text-overflow:clip;" text-anchor="middle" transform="translate(0,0)" y="346" opacity="1">60
		</text>
		<text x="459.8" style="color:#606060;cursor:default;font-size:11px;fill:#606060;width:91px;text-overflow:clip;" text-anchor="middle" transform="translate(0,0)" y="346" opacity="1">80
		</text>
		<text x="551.7" style="color:#606060;cursor:default;font-size:11px;fill:#606060;width:91px;text-overflow:clip;" text-anchor="middle" transform="translate(0,0)" y="346" opacity="1">100
		</text>
	</g>
	<g class="highcharts-axis-labels highcharts-yaxis-labels">
		<text x="55" style="color:#606060;cursor:default;font-size:11px;fill:#606060;width:183px;text-overflow:clip;" text-anchor="end" transform="translate(0,0)" y="298" opacity="1">0
		</text>
		<text x="55" style="color:#606060;cursor:default;font-size:11px;fill:#606060;width:183px;text-overflow:clip;" text-anchor="end" transform="translate(0,0)" y="241" opacity="1">25
		</text>
		<text x="55" style="color:#606060;cursor:default;font-size:11px;fill:#606060;width:183px;text-overflow:clip;" text-anchor="end" transform="translate(0,0)" y="183" opacity="1">50
		</text>
		<text x="55" style="color:#606060;cursor:default;font-size:11px;fill:#606060;width:183px;text-overflow:clip;" text-anchor="end" transform="translate(0,0)" y="125" opacity="1">75
		</text>
		<text x="55" style="color:#606060;cursor:default;font-size:11px;fill:#606060;width:183px;text-overflow:clip;" text-anchor="end" transform="translate(0,0)" y="67" opacity="1">100
		</text>
	</g>
	<g class="highcharts-tooltip" style="cursor:default;padding:0;pointer-events:none;white-space:nowrap;" transform="translate(0,-9999)">
		<path fill="none" d="M 3.5 0.5 L 13.5 0.5 C 16.5 0.5 16.5 0.5 16.5 3.5 L 16.5 13.5 C 16.5 16.5 16.5 16.5 13.5 16.5 L 3.5 16.5 C 0.5 16.5 0.5 16.5 0.5 13.5 L 0.5 3.5 C 0.5 0.5 0.5 0.5 3.5 0.5"  stroke="black" stroke-opacity="0.0" stroke-width="5" transform="translate(1, 1)">
		</path>
		<path fill="none" d="M 3.5 0.5 L 13.5 0.5 C 16.5 0.5 16.5 0.5 16.5 3.5 L 16.5 13.5 C 16.5 16.5 16.5 16.5 13.5 16.5 L 3.5 16.5 C 0.5 16.5 0.5 16.5 0.5 13.5 L 0.5 3.5 C 0.5 0.5 0.5 0.5 3.5 0.5"  stroke="black" stroke-opacity="0.0" stroke-width="3" transform="translate(1, 1)">
		</path>
		<path fill="none" d="M 3.5 0.5 L 13.5 0.5 C 16.5 0.5 16.5 0.5 16.5 3.5 L 16.5 13.5 C 16.5 16.5 16.5 16.5 13.5 16.5 L 3.5 16.5 C 0.5 16.5 0.5 16.5 0.5 13.5 L 0.5 3.5 C 0.5 0.5 0.5 0.5 3.5 0.5"  stroke="black" stroke-opacity="0.1" stroke-width="1" transform="translate(1, 1)">
		</path>
		<path fill="rgb(249, 249, 249)" fill-opacity=" .85" d="M 3.5 0.5 L 13.5 0.5 C 16.5 0.5 16.5 0.5 16.5 3.5 L 16.5 13.5 C 16.5 16.5 16.5 16.5 13.5 16.5 L 3.5 16.5 C 0.5 16.5 0.5 16.5 0.5 13.5 L 0.5 3.5 C 0.5 0.5 0.5 0.5 3.5 0.5">
		</path>
		<text x="8" style="font-size:12px;color:#333333;fill:#333333;" y="20">
		</text>
	</g>
</svg>