
<svg version="1.1" style="font-family:&quot;lucida grande&quot;, &quot;lucida sans unicode&quot;, arial, helvetica, sans-serif;font-size:12px;" xmlns="http://www.w3.org/2000/svg" viewBox="0 0 584 400">
	<desc>Created with Highcharts 4.2.4
	</desc>
	<defs>
		<clipPath id="highcharts-1">
			<rect x="0" y="0" width="489" height="284">
			</rect>
		</clipPath>
	</defs>
	<rect x="0" y="0" width="584" height="400" fill="#FFFFFF" class=" highcharts-background" stroke="transparent">
	</rect>
	<g class="highcharts-grid">
		<path fill="none" d="M 128.5 61 L 128.5 345" stroke="#D8D8D8" stroke-width="1" opacity="1">
		</path>
		<path fill="none" d="M 200.5 61 L 200.5 345" stroke="#D8D8D8" stroke-width="1" opacity="1">
		</path>
		<path fill="none" d="M 271.5 61 L 271.5 345" stroke="#D8D8D8" stroke-width="1" opacity="1">
		</path>
		<path fill="none" d="M 342.5 61 L 342.5 345" stroke="#D8D8D8" stroke-width="1" opacity="1">
		</path>
		<path fill="none" d="M 413.5 61 L 413.5 345" stroke="#D8D8D8" stroke-width="1" opacity="1">
		</path>
		<path fill="none" d="M 484.5 61 L 484.5 345" stroke="#D8D8D8" stroke-width="1" opacity="1">
		</path>
		<path fill="none" d="M 555.5 61 L 555.5 345" stroke="#D8D8D8" stroke-width="1" opacity="1">
		</path>
	</g>
	<g class="highcharts-grid">
		<path fill="none" d="M 85 267.5 L 574 267.5" stroke="#D8D8D8" stroke-width="1" opacity="1">
		</path>
		<path fill="none" d="M 85 177.5 L 574 177.5" stroke="#D8D8D8" stroke-width="1" opacity="1">
		</path>
		<path fill="none" d="M 85 87.5 L 574 87.5" stroke="#D8D8D8" stroke-width="1" opacity="1">
		</path>
	</g>
	<rect x="84.5" y="60.5" width="490" height="285" stroke="#C0C0C0" stroke-width="1" fill="none">
	</rect>
	<g class="highcharts-axis">
		<path fill="none" d="M 128.5 345 L 128.5 355" stroke="#C0D0E0" stroke-width="1" opacity="1">
		</path>
		<path fill="none" d="M 200.5 345 L 200.5 355" stroke="#C0D0E0" stroke-width="1" opacity="1">
		</path>
		<path fill="none" d="M 271.5 345 L 271.5 355" stroke="#C0D0E0" stroke-width="1" opacity="1">
		</path>
		<path fill="none" d="M 342.5 345 L 342.5 355" stroke="#C0D0E0" stroke-width="1" opacity="1">
		</path>
		<path fill="none" d="M 413.5 345 L 413.5 355" stroke="#C0D0E0" stroke-width="1" opacity="1">
		</path>
		<path fill="none" d="M 484.5 345 L 484.5 355" stroke="#C0D0E0" stroke-width="1" opacity="1">
		</path>
		<path fill="none" d="M 555.5 345 L 555.5 355" stroke="#C0D0E0" stroke-width="1" opacity="1">
		</path>
		<text x="329.5" text-anchor="middle" transform="translate(0,0)" class=" highcharts-xaxis-title" style="color:#707070;fill:#707070;" y="382.9">
			<tspan>Daily fat intake
			</tspan>
		</text>
		<path fill="none" d="M 85 345.5 L 574 345.5" stroke="#C0D0E0" stroke-width="1">
		</path>
	</g>
	<g class="highcharts-axis">
		<text x="24.3" text-anchor="middle" transform="translate(0,0) rotate(270 24.3 203)" class=" highcharts-yaxis-title" style="color:#707070;fill:#707070;" y="203">
			<tspan>Daily sugar intake
			</tspan>
		</text>
	</g>
	<path fill="none" d="M 129 61 L 129 345" stroke="black" stroke-width="2" stroke-dasharray="2,6">
	</path>
	<text x="133" text-anchor="undefined" transform="translate(0,0)" style="font-style:italic;" y="76" visibility="visible">
		<tspan>Safe fat intake 65g/day
		</tspan>
	</text>
	<path fill="none" d="M 85 267 L 574 267" stroke="black" stroke-width="2" stroke-dasharray="2,6">
	</path>
	<text x="564" text-anchor="end" transform="translate(0,0)" style="font-style:italic;" y="263" visibility="visible">
		<tspan>Safe sugar intake 50g/day
		</tspan>
	</text>
	<g class="highcharts-series-group">
		<g class="highcharts-series highcharts-series-0 highcharts-tracker" transform="translate(85,61) scale(1 1)" style="" clip-path="url(#highcharts-1)">
			<circle cx="470.9" cy="124.7" r="13.5" stroke="#7cb5ec" stroke-width="1" fill="rgb(124,181,236)" fill-opacity="0.5">
			</circle>
			<circle cx="350.1" cy="110.5" r="15" stroke="#7cb5ec" stroke-width="1" fill="rgb(124,181,236)" fill-opacity="0.5">
			</circle>
			<circle cx="269.0" cy="131.0" r="16" stroke="#7cb5ec" stroke-width="1" fill="rgb(124,181,236)" fill-opacity="0.5">
			</circle>
			<circle cx="263.3" cy="111.2" r="11" stroke="#7cb5ec" stroke-width="1" fill="rgb(124,181,236)" fill-opacity="0.5">
			</circle>
			<circle cx="261.9" cy="140.8" r="11" stroke="#7cb5ec" stroke-width="1" fill="rgb(124,181,236)" fill-opacity="0.5">
			</circle>
			<circle cx="234.9" cy="169.6" r="16.5" stroke="#7cb5ec" stroke-width="1" fill="rgb(124,181,236)" fill-opacity="0.5">
			</circle>
			<circle cx="175.2" cy="172.5" r="14.5" stroke="#7cb5ec" stroke-width="1" fill="rgb(124,181,236)" fill-opacity="0.5">
			</circle>
			<circle cx="165.2" cy="146.2" r="4" stroke="#7cb5ec" stroke-width="1" fill="rgb(124,181,236)" fill-opacity="0.5">
			</circle>
			<circle cx="129.7" cy="128.0" r="23" stroke="#7cb5ec" stroke-width="1" fill="rgb(124,181,236)" fill-opacity="0.5">
			</circle>
			<circle cx="104.1" cy="192.1" r="7.5" stroke="#7cb5ec" stroke-width="1" fill="rgb(124,181,236)" fill-opacity="0.5">
			</circle>
			<circle cx="95.6" cy="259.8" r="16" stroke="#7cb5ec" stroke-width="1" fill="rgb(124,181,236)" fill-opacity="0.5">
			</circle>
			<circle cx="51.5" cy="68.2" r="28.5" stroke="#7cb5ec" stroke-width="1" fill="rgb(124,181,236)" fill-opacity="0.5">
			</circle>
			<circle cx="50.1" cy="204.3" r="25" stroke="#7cb5ec" stroke-width="1" fill="rgb(124,181,236)" fill-opacity="0.5">
			</circle>
			<circle cx="21.6" cy="202.5" r="15.5" stroke="#7cb5ec" stroke-width="1" fill="rgb(124,181,236)" fill-opacity="0.5">
			</circle>
			<circle cx="30.2" cy="146.5" r="26.5" stroke="#7cb5ec" stroke-width="1" fill="rgb(124,181,236)" fill-opacity="0.5">
			</circle>
		</g>
		<g class="highcharts-markers highcharts-series-0" transform="translate(85,61) scale(1 1)" clip-path="none">
		</g>
	</g>
	<text x="292" text-anchor="middle" class="highcharts-title" style="color:#333333;font-size:18px;fill:#333333;width:520px;" y="24">
		<tspan>Sugar and fat intake per country
		</tspan>
	</text>
	<text x="292" text-anchor="middle" class="highcharts-subtitle" style="color:#555555;fill:#555555;width:520px;" y="45">
		<tspan>Source: 
		</tspan>
		<tspan onclick="location.href=&quot;http://www.euromonitor.com/&quot;" dx="0" style="cursor: pointer;">Euromonitor
		</tspan>
		<tspan dx="0"> and 
		</tspan>
		<tspan onclick="location.href=&quot;https://data.oecd.org/&quot;" dx="0" style="cursor: pointer;">OECD
		</tspan>
	</text>
	<g class="highcharts-data-labels highcharts-series-0 highcharts-tracker" visibility="visible" transform="translate(85,61) scale(1 1)" style="">
		<g style="" transform="translate(459,113)">
			<text x="5" style="font-size:11px;font-weight:bold;color:#000000;text-shadow:0 0 6px #ffffff, 0 0 3px #ffffff;fill:#000000;text-rendering:geometricprecision;" y="16">
				<tspan>BE
				</tspan>
			</text>
		</g>
		<g style="" transform="translate(337,99)">
			<text x="5" style="font-size:11px;font-weight:bold;color:#000000;text-shadow:0 0 6px #ffffff, 0 0 3px #ffffff;fill:#000000;text-rendering:geometricprecision;" y="16">
				<tspan>DE
				</tspan>
			</text>
		</g>
		<g style="" transform="translate(259,120)">
			<text x="5" style="font-size:11px;font-weight:bold;color:#000000;text-shadow:0 0 6px #ffffff, 0 0 3px #ffffff;fill:#000000;text-rendering:geometricprecision;" y="16">
				<tspan>FI
				</tspan>
			</text>
		</g>
		<g style="" transform="translate(251,100)">
			<text x="5" style="font-size:11px;font-weight:bold;color:#000000;text-shadow:0 0 6px #ffffff, 0 0 3px #ffffff;fill:#000000;text-rendering:geometricprecision;" y="16">
				<tspan>NL
				</tspan>
			</text>
		</g>
		<g style="" transform="translate(251,129)" opacity="0" visibility="hidden">
			<text x="5" style="font-size:11px;font-weight:bold;color:#000000;text-shadow:0 0 6px #ffffff, 0 0 3px #ffffff;fill:#000000;text-rendering:geometricprecision;" y="16">
				<tspan>SE
				</tspan>
			</text>
		</g>
		<g style="" transform="translate(224,158)">
			<text x="5" style="font-size:11px;font-weight:bold;color:#000000;text-shadow:0 0 6px #ffffff, 0 0 3px #ffffff;fill:#000000;text-rendering:geometricprecision;" y="16">
				<tspan>ES
				</tspan>
			</text>
		</g>
		<g style="" transform="translate(163,161)">
			<text x="5" style="font-size:11px;font-weight:bold;color:#000000;text-shadow:0 0 6px #ffffff, 0 0 3px #ffffff;fill:#000000;text-rendering:geometricprecision;" y="16">
				<tspan>FR
				</tspan>
			</text>
		</g>
		<g style="" transform="translate(152,135)">
			<text x="5" style="font-size:11px;font-weight:bold;color:#000000;text-shadow:0 0 6px #ffffff, 0 0 3px #ffffff;fill:#000000;text-rendering:geometricprecision;" y="16">
				<tspan>NO
				</tspan>
			</text>
		</g>
		<g style="" transform="translate(117,117)">
			<text x="5" style="font-size:11px;font-weight:bold;color:#000000;text-shadow:0 0 6px #ffffff, 0 0 3px #ffffff;fill:#000000;text-rendering:geometricprecision;" y="16">
				<tspan>UK
				</tspan>
			</text>
		</g>
		<g style="" transform="translate(94,181)">
			<text x="5" style="font-size:11px;font-weight:bold;color:#000000;text-shadow:0 0 6px #ffffff, 0 0 3px #ffffff;fill:#000000;text-rendering:geometricprecision;" y="16">
				<tspan>IT
				</tspan>
			</text>
		</g>
		<g style="" transform="translate(83,248)">
			<text x="5" style="font-size:11px;font-weight:bold;color:#000000;text-shadow:0 0 6px #ffffff, 0 0 3px #ffffff;fill:#000000;text-rendering:geometricprecision;" y="16">
				<tspan>RU
				</tspan>
			</text>
		</g>
		<g style="" transform="translate(39,57)">
			<text x="5" style="font-size:11px;font-weight:bold;color:#000000;text-shadow:0 0 6px #ffffff, 0 0 3px #ffffff;fill:#000000;text-rendering:geometricprecision;" y="16">
				<tspan>US
				</tspan>
			</text>
		</g>
		<g style="" transform="translate(37,193)">
			<text x="5" style="font-size:11px;font-weight:bold;color:#000000;text-shadow:0 0 6px #ffffff, 0 0 3px #ffffff;fill:#000000;text-rendering:geometricprecision;" y="16">
				<tspan>HU
				</tspan>
			</text>
		</g>
		<g style="" transform="translate(10,191)">
			<text x="5" style="font-size:11px;font-weight:bold;color:#000000;text-shadow:0 0 6px #ffffff, 0 0 3px #ffffff;fill:#000000;text-rendering:geometricprecision;" y="16">
				<tspan>PT
				</tspan>
			</text>
		</g>
		<g style="" transform="translate(17,135)">
			<text x="5" style="font-size:11px;font-weight:bold;color:#000000;text-shadow:0 0 6px #ffffff, 0 0 3px #ffffff;fill:#000000;text-rendering:geometricprecision;" y="16">
				<tspan>NZ
				</tspan>
			</text>
		</g>
	</g>
	<g class="highcharts-axis-labels highcharts-xaxis-labels">
		<text x="129.4" style="color:#606060;cursor:default;font-size:11px;fill:#606060;width:81.5;text-overflow:ellipsis;" text-anchor="middle" transform="translate(0,0)" y="364" opacity="1">
			<tspan>65 gr
			</tspan>
		</text>
		<text x="200.5" style="color:#606060;cursor:default;font-size:11px;fill:#606060;width:81.5;text-overflow:ellipsis;" text-anchor="middle" transform="translate(0,0)" y="364" opacity="1">
			<tspan>70 gr
			</tspan>
		</text>
		<text x="271.6" style="color:#606060;cursor:default;font-size:11px;fill:#606060;width:81.5;text-overflow:ellipsis;" text-anchor="middle" transform="translate(0,0)" y="364" opacity="1">
			<tspan>75 gr
			</tspan>
		</text>
		<text x="342.6" style="color:#606060;cursor:default;font-size:11px;fill:#606060;width:81.5;text-overflow:ellipsis;" text-anchor="middle" transform="translate(0,0)" y="364" opacity="1">
			<tspan>80 gr
			</tspan>
		</text>
		<text x="413.7" style="color:#606060;cursor:default;font-size:11px;fill:#606060;width:81.5;text-overflow:ellipsis;" text-anchor="middle" transform="translate(0,0)" y="364" opacity="1">
			<tspan>85 gr
			</tspan>
		</text>
		<text x="484.8" style="color:#606060;cursor:default;font-size:11px;fill:#606060;width:81.5;text-overflow:ellipsis;" text-anchor="middle" transform="translate(0,0)" y="364" opacity="1">
			<tspan>90 gr
			</tspan>
		</text>
		<text x="555.9" style="color:#606060;cursor:default;font-size:11px;fill:#606060;width:81.5;text-overflow:ellipsis;" text-anchor="middle" transform="translate(0,0)" y="364" opacity="1">
			<tspan>95 gr
			</tspan>
		</text>
	</g>
	<g class="highcharts-axis-labels highcharts-yaxis-labels">
		<text x="70" style="color:#606060;cursor:default;font-size:11px;fill:#606060;width:183px;text-overflow:clip;" text-anchor="end" transform="translate(0,0)" y="271" opacity="1">
			<tspan>50 gr
			</tspan>
		</text>
		<text x="70" style="color:#606060;cursor:default;font-size:11px;fill:#606060;width:183px;text-overflow:clip;" text-anchor="end" transform="translate(0,0)" y="181" opacity="1">
			<tspan>100 gr
			</tspan>
		</text>
		<text x="70" style="color:#606060;cursor:default;font-size:11px;fill:#606060;width:183px;text-overflow:clip;" text-anchor="end" transform="translate(0,0)" y="91" opacity="1">
			<tspan>150 gr
			</tspan>
		</text>
	</g>
	<g class="highcharts-tooltip" style="cursor:default;padding:0;pointer-events:none;white-space:nowrap;" transform="translate(0,-9999)">
		<path fill="none" d="M 3.5 0.5 L 13.5 0.5 C 16.5 0.5 16.5 0.5 16.5 3.5 L 16.5 13.5 C 16.5 16.5 16.5 16.5 13.5 16.5 L 3.5 16.5 C 0.5 16.5 0.5 16.5 0.5 13.5 L 0.5 3.5 C 0.5 0.5 0.5 0.5 3.5 0.5"  stroke="black" stroke-opacity="0.0" stroke-width="5" transform="translate(1, 1)">
		</path>
		<path fill="none" d="M 3.5 0.5 L 13.5 0.5 C 16.5 0.5 16.5 0.5 16.5 3.5 L 16.5 13.5 C 16.5 16.5 16.5 16.5 13.5 16.5 L 3.5 16.5 C 0.5 16.5 0.5 16.5 0.5 13.5 L 0.5 3.5 C 0.5 0.5 0.5 0.5 3.5 0.5"  stroke="black" stroke-opacity="0.0" stroke-width="3" transform="translate(1, 1)">
		</path>
		<path fill="none" d="M 3.5 0.5 L 13.5 0.5 C 16.5 0.5 16.5 0.5 16.5 3.5 L 16.5 13.5 C 16.5 16.5 16.5 16.5 13.5 16.5 L 3.5 16.5 C 0.5 16.5 0.5 16.5 0.5 13.5 L 0.5 3.5 C 0.5 0.5 0.5 0.5 3.5 0.5"  stroke="black" stroke-opacity="0.1" stroke-width="1" transform="translate(1, 1)">
		</path>
		<path fill="rgb(249, 249, 249)" fill-opacity=" .85" d="M 3.5 0.5 L 13.5 0.5 C 16.5 0.5 16.5 0.5 16.5 3.5 L 16.5 13.5 C 16.5 16.5 16.5 16.5 13.5 16.5 L 3.5 16.5 C 0.5 16.5 0.5 16.5 0.5 13.5 L 0.5 3.5 C 0.5 0.5 0.5 0.5 3.5 0.5">
		</path>
	</g>
</svg>