
<svg version="1.1" style="font-family:&quot;lucida grande&quot;, &quot;lucida sans unicode&quot;, arial, helvetica, sans-serif;font-size:12px;" xmlns="http://www.w3.org/2000/svg" viewBox="0 0 584 400">
	<desc>Created with Highcharts 4.2.4
	</desc>
	<defs>
		<clipPath id="highcharts-1">
			<rect x="0" y="0" width="511" height="252">
			</rect>
		</clipPath>
	</defs>
	<rect x="0" y="0" width="584" height="400" fill="#FFFFFF" class=" highcharts-background" stroke="transparent">
	</rect>
	<g class="highcharts-grid">
	</g>
	<g class="highcharts-grid">
		<path fill="none" d="M 63 313.5 L 574 313.5" stroke="#D8D8D8" stroke-width="1" opacity="1">
		</path>
		<path fill="none" d="M 63 263.5 L 574 263.5" stroke="#D8D8D8" stroke-width="1" opacity="1">
		</path>
		<path fill="none" d="M 63 212.5 L 574 212.5" stroke="#D8D8D8" stroke-width="1" opacity="1">
		</path>
		<path fill="none" d="M 63 162.5 L 574 162.5" stroke="#D8D8D8" stroke-width="1" opacity="1">
		</path>
		<path fill="none" d="M 63 111.5 L 574 111.5" stroke="#D8D8D8" stroke-width="1" opacity="1">
		</path>
		<path fill="none" d="M 63 60.5 L 574 60.5" stroke="#D8D8D8" stroke-width="1" opacity="1">
		</path>
	</g>
	<g class="highcharts-axis">
		<path fill="none" d="M 88.5 313 L 88.5 323" stroke="#C0D0E0" stroke-width="1" opacity="1">
		</path>
		<path fill="none" d="M 113.5 313 L 113.5 323" stroke="#C0D0E0" stroke-width="1" opacity="1">
		</path>
		<path fill="none" d="M 139.5 313 L 139.5 323" stroke="#C0D0E0" stroke-width="1" opacity="1">
		</path>
		<path fill="none" d="M 164.5 313 L 164.5 323" stroke="#C0D0E0" stroke-width="1" opacity="1">
		</path>
		<path fill="none" d="M 190.5 313 L 190.5 323" stroke="#C0D0E0" stroke-width="1" opacity="1">
		</path>
		<path fill="none" d="M 215.5 313 L 215.5 323" stroke="#C0D0E0" stroke-width="1" opacity="1">
		</path>
		<path fill="none" d="M 241.5 313 L 241.5 323" stroke="#C0D0E0" stroke-width="1" opacity="1">
		</path>
		<path fill="none" d="M 266.5 313 L 266.5 323" stroke="#C0D0E0" stroke-width="1" opacity="1">
		</path>
		<path fill="none" d="M 292.5 313 L 292.5 323" stroke="#C0D0E0" stroke-width="1" opacity="1">
		</path>
		<path fill="none" d="M 318.5 313 L 318.5 323" stroke="#C0D0E0" stroke-width="1" opacity="1">
		</path>
		<path fill="none" d="M 343.5 313 L 343.5 323" stroke="#C0D0E0" stroke-width="1" opacity="1">
		</path>
		<path fill="none" d="M 369.5 313 L 369.5 323" stroke="#C0D0E0" stroke-width="1" opacity="1">
		</path>
		<path fill="none" d="M 394.5 313 L 394.5 323" stroke="#C0D0E0" stroke-width="1" opacity="1">
		</path>
		<path fill="none" d="M 420.5 313 L 420.5 323" stroke="#C0D0E0" stroke-width="1" opacity="1">
		</path>
		<path fill="none" d="M 445.5 313 L 445.5 323" stroke="#C0D0E0" stroke-width="1" opacity="1">
		</path>
		<path fill="none" d="M 471.5 313 L 471.5 323" stroke="#C0D0E0" stroke-width="1" opacity="1">
		</path>
		<path fill="none" d="M 496.5 313 L 496.5 323" stroke="#C0D0E0" stroke-width="1" opacity="1">
		</path>
		<path fill="none" d="M 522.5 313 L 522.5 323" stroke="#C0D0E0" stroke-width="1" opacity="1">
		</path>
		<path fill="none" d="M 547.5 313 L 547.5 323" stroke="#C0D0E0" stroke-width="1" opacity="1">
		</path>
		<path fill="none" d="M 574.5 313 L 574.5 323" stroke="#C0D0E0" stroke-width="1" opacity="1">
		</path>
		<path fill="none" d="M 62.5 313 L 62.5 323" stroke="#C0D0E0" stroke-width="1" opacity="1">
		</path>
		<path fill="none" d="M 63 313.5 L 574 313.5" stroke="#C0D0E0" stroke-width="1">
		</path>
	</g>
	<g class="highcharts-axis">
		<text x="24.0" text-anchor="middle" transform="translate(0,0) rotate(270 24.0 187)" class=" highcharts-yaxis-title" style="color:#707070;fill:#707070;" y="187">
			<tspan>Population (millions)
			</tspan>
		</text>
	</g>
	<g class="highcharts-series-group">
		<g class="highcharts-series highcharts-series-0 highcharts-tracker" transform="translate(63,61) scale(1 1)" style="" clip-path="url(#highcharts-1)">
			<rect x="6.5" y="13.5" width="13" height="239" stroke="#FFFFFF" stroke-width="1" fill="#7cb5ec" rx="0" ry="0">
			</rect>
			<rect x="31.5" y="90.5" width="13" height="162" stroke="#FFFFFF" stroke-width="1" fill="#7cb5ec" rx="0" ry="0">
			</rect>
			<rect x="57.5" y="109.5" width="13" height="143" stroke="#FFFFFF" stroke-width="1" fill="#7cb5ec" rx="0" ry="0">
			</rect>
			<rect x="82.5" y="111.5" width="13" height="141" stroke="#FFFFFF" stroke-width="1" fill="#7cb5ec" rx="0" ry="0">
			</rect>
			<rect x="108.5" y="126.5" width="13" height="126" stroke="#FFFFFF" stroke-width="1" fill="#7cb5ec" rx="0" ry="0">
			</rect>
			<rect x="133.5" y="130.5" width="13" height="122" stroke="#FFFFFF" stroke-width="1" fill="#7cb5ec" rx="0" ry="0">
			</rect>
			<rect x="159.5" y="133.5" width="13" height="119" stroke="#FFFFFF" stroke-width="1" fill="#7cb5ec" rx="0" ry="0">
			</rect>
			<rect x="184.5" y="134.5" width="13" height="118" stroke="#FFFFFF" stroke-width="1" fill="#7cb5ec" rx="0" ry="0">
			</rect>
			<rect x="210.5" y="140.5" width="13" height="112" stroke="#FFFFFF" stroke-width="1" fill="#7cb5ec" rx="0" ry="0">
			</rect>
			<rect x="236.5" y="140.5" width="13" height="112" stroke="#FFFFFF" stroke-width="1" fill="#7cb5ec" rx="0" ry="0">
			</rect>
			<rect x="261.5" y="146.5" width="13" height="106" stroke="#FFFFFF" stroke-width="1" fill="#7cb5ec" rx="0" ry="0">
			</rect>
			<rect x="287.5" y="147.5" width="13" height="105" stroke="#FFFFFF" stroke-width="1" fill="#7cb5ec" rx="0" ry="0">
			</rect>
			<rect x="312.5" y="151.5" width="13" height="101" stroke="#FFFFFF" stroke-width="1" fill="#7cb5ec" rx="0" ry="0">
			</rect>
			<rect x="338.5" y="158.5" width="13" height="94" stroke="#FFFFFF" stroke-width="1" fill="#7cb5ec" rx="0" ry="0">
			</rect>
			<rect x="363.5" y="158.5" width="13" height="94" stroke="#FFFFFF" stroke-width="1" fill="#7cb5ec" rx="0" ry="0">
			</rect>
			<rect x="389.5" y="161.5" width="13" height="91" stroke="#FFFFFF" stroke-width="1" fill="#7cb5ec" rx="0" ry="0">
			</rect>
			<rect x="414.5" y="162.5" width="13" height="90" stroke="#FFFFFF" stroke-width="1" fill="#7cb5ec" rx="0" ry="0">
			</rect>
			<rect x="440.5" y="162.5" width="13" height="90" stroke="#FFFFFF" stroke-width="1" fill="#7cb5ec" rx="0" ry="0">
			</rect>
			<rect x="466.5" y="162.5" width="13" height="90" stroke="#FFFFFF" stroke-width="1" fill="#7cb5ec" rx="0" ry="0">
			</rect>
			<rect x="491.5" y="162.5" width="13" height="90" stroke="#FFFFFF" stroke-width="1" fill="#7cb5ec" rx="0" ry="0">
			</rect>
		</g>
		<g class="highcharts-markers highcharts-series-0" transform="translate(63,61) scale(1 1)" clip-path="none">
		</g>
	</g>
	<text x="292" text-anchor="middle" class="highcharts-title" style="color:#333333;font-size:18px;fill:#333333;width:520px;" y="24">
		<tspan>World's largest cities per 2014
		</tspan>
	</text>
	<text x="292" text-anchor="middle" class="highcharts-subtitle" style="color:#555555;fill:#555555;width:520px;" y="45">
		<tspan>Source: 
		</tspan>
		<tspan onclick="location.href=&quot;http://en.wikipedia.org/wiki/List_of_cities_proper_by_population&quot;" dx="0" style="cursor: pointer;">Wikipedia
		</tspan>
	</text>
	<g class="highcharts-data-labels highcharts-series-0 highcharts-tracker" visibility="visible" transform="translate(63,61) scale(1 1)" style="">
		<text x="17.3" y="23.5" r="0" padding="5" transform="translate(0,0) rotate(-90 17.3 23.5)" style="color:#ffffff;font-size:13px;font-weight:bold;text-shadow:0 0 6px #000000, 0 0 3px #000000;font-family:verdana, sans-serif;fill:#ffffff;text-rendering:geometricprecision;" text-anchor="end">
			<tspan>23.7
			</tspan>
		</text>
		<text x="42.3" y="100.5" r="0" padding="5" transform="translate(0,0) rotate(-90 42.3 100.5)" style="color:#ffffff;font-size:13px;font-weight:bold;text-shadow:0 0 6px #000000, 0 0 3px #000000;font-family:verdana, sans-serif;fill:#ffffff;text-rendering:geometricprecision;" text-anchor="end">
			<tspan>16.1
			</tspan>
		</text>
		<text x="68.3" y="119.5" r="0" padding="5" transform="translate(0,0) rotate(-90 68.3 119.5)" style="color:#ffffff;font-size:13px;font-weight:bold;text-shadow:0 0 6px #000000, 0 0 3px #000000;font-family:verdana, sans-serif;fill:#ffffff;text-rendering:geometricprecision;" text-anchor="end">
			<tspan>14.2
			</tspan>
		</text>
		<text x="93.3" y="121.5" r="0" padding="5" transform="translate(0,0) rotate(-90 93.3 121.5)" style="color:#ffffff;font-size:13px;font-weight:bold;text-shadow:0 0 6px #000000, 0 0 3px #000000;font-family:verdana, sans-serif;fill:#ffffff;text-rendering:geometricprecision;" text-anchor="end">
			<tspan>14.0
			</tspan>
		</text>
		<text x="119.3" y="136.5" r="0" padding="5" transform="translate(0,0) rotate(-90 119.3 136.5)" style="color:#ffffff;font-size:13px;font-weight:bold;text-shadow:0 0 6px #000000, 0 0 3px #000000;font-family:verdana, sans-serif;fill:#ffffff;text-rendering:geometricprecision;" text-anchor="end">
			<tspan>12.5
			</tspan>
		</text>
		<text x="144.3" y="140.5" r="0" padding="5" transform="translate(0,0) rotate(-90 144.3 140.5)" style="color:#ffffff;font-size:13px;font-weight:bold;text-shadow:0 0 6px #000000, 0 0 3px #000000;font-family:verdana, sans-serif;fill:#ffffff;text-rendering:geometricprecision;" text-anchor="end">
			<tspan>12.1
			</tspan>
		</text>
		<text x="170.3" y="143.5" r="0" padding="5" transform="translate(0,0) rotate(-90 170.3 143.5)" style="color:#ffffff;font-size:13px;font-weight:bold;text-shadow:0 0 6px #000000, 0 0 3px #000000;font-family:verdana, sans-serif;fill:#ffffff;text-rendering:geometricprecision;" text-anchor="end">
			<tspan>11.8
			</tspan>
		</text>
		<text x="195.3" y="144.5" r="0" padding="5" transform="translate(0,0) rotate(-90 195.3 144.5)" style="color:#ffffff;font-size:13px;font-weight:bold;text-shadow:0 0 6px #000000, 0 0 3px #000000;font-family:verdana, sans-serif;fill:#ffffff;text-rendering:geometricprecision;" text-anchor="end">
			<tspan>11.7
			</tspan>
		</text>
		<text x="221.3" y="150.5" r="0" padding="5" transform="translate(0,0) rotate(-90 221.3 150.5)" style="color:#ffffff;font-size:13px;font-weight:bold;text-shadow:0 0 6px #000000, 0 0 3px #000000;font-family:verdana, sans-serif;fill:#ffffff;text-rendering:geometricprecision;" text-anchor="end">
			<tspan>11.1
			</tspan>
		</text>
		<text x="247.3" y="150.5" r="0" padding="5" transform="translate(0,0) rotate(-90 247.3 150.5)" style="color:#ffffff;font-size:13px;font-weight:bold;text-shadow:0 0 6px #000000, 0 0 3px #000000;font-family:verdana, sans-serif;fill:#ffffff;text-rendering:geometricprecision;" text-anchor="end">
			<tspan>11.1
			</tspan>
		</text>
		<text x="272.3" y="156.5" r="0" padding="5" transform="translate(0,0) rotate(-90 272.3 156.5)" style="color:#ffffff;font-size:13px;font-weight:bold;text-shadow:0 0 6px #000000, 0 0 3px #000000;font-family:verdana, sans-serif;fill:#ffffff;text-rendering:geometricprecision;" text-anchor="end">
			<tspan>10.5
			</tspan>
		</text>
		<text x="298.3" y="157.5" r="0" padding="5" transform="translate(0,0) rotate(-90 298.3 157.5)" style="color:#ffffff;font-size:13px;font-weight:bold;text-shadow:0 0 6px #000000, 0 0 3px #000000;font-family:verdana, sans-serif;fill:#ffffff;text-rendering:geometricprecision;" text-anchor="end">
			<tspan>10.4
			</tspan>
		</text>
		<text x="323.3" y="161.5" r="0" padding="5" transform="translate(0,0) rotate(-90 323.3 161.5)" style="color:#ffffff;font-size:13px;font-weight:bold;text-shadow:0 0 6px #000000, 0 0 3px #000000;font-family:verdana, sans-serif;fill:#ffffff;text-rendering:geometricprecision;" text-anchor="end">
			<tspan>10.0
			</tspan>
		</text>
		<text x="349.3" y="168.5" r="0" padding="5" transform="translate(0,0) rotate(-90 349.3 168.5)" style="color:#ffffff;font-size:13px;font-weight:bold;text-shadow:0 0 6px #000000, 0 0 3px #000000;font-family:verdana, sans-serif;fill:#ffffff;text-rendering:geometricprecision;" text-anchor="end">
			<tspan>9.3
			</tspan>
		</text>
		<text x="374.3" y="168.5" r="0" padding="5" transform="translate(0,0) rotate(-90 374.3 168.5)" style="color:#ffffff;font-size:13px;font-weight:bold;text-shadow:0 0 6px #000000, 0 0 3px #000000;font-family:verdana, sans-serif;fill:#ffffff;text-rendering:geometricprecision;" text-anchor="end">
			<tspan>9.3
			</tspan>
		</text>
		<text x="400.3" y="171.5" r="0" padding="5" transform="translate(0,0) rotate(-90 400.3 171.5)" style="color:#ffffff;font-size:13px;font-weight:bold;text-shadow:0 0 6px #000000, 0 0 3px #000000;font-family:verdana, sans-serif;fill:#ffffff;text-rendering:geometricprecision;" text-anchor="end">
			<tspan>9.0
			</tspan>
		</text>
		<text x="425.3" y="172.5" r="0" padding="5" transform="translate(0,0) rotate(-90 425.3 172.5)" style="color:#ffffff;font-size:13px;font-weight:bold;text-shadow:0 0 6px #000000, 0 0 3px #000000;font-family:verdana, sans-serif;fill:#ffffff;text-rendering:geometricprecision;" text-anchor="end">
			<tspan>8.9
			</tspan>
		</text>
		<text x="451.3" y="172.5" r="0" padding="5" transform="translate(0,0) rotate(-90 451.3 172.5)" style="color:#ffffff;font-size:13px;font-weight:bold;text-shadow:0 0 6px #000000, 0 0 3px #000000;font-family:verdana, sans-serif;fill:#ffffff;text-rendering:geometricprecision;" text-anchor="end">
			<tspan>8.9
			</tspan>
		</text>
		<text x="477.3" y="172.5" r="0" padding="5" transform="translate(0,0) rotate(-90 477.3 172.5)" style="color:#ffffff;font-size:13px;font-weight:bold;text-shadow:0 0 6px #000000, 0 0 3px #000000;font-family:verdana, sans-serif;fill:#ffffff;text-rendering:geometricprecision;" text-anchor="end">
			<tspan>8.9
			</tspan>
		</text>
		<text x="502.3" y="172.5" r="0" padding="5" transform="translate(0,0) rotate(-90 502.3 172.5)" style="color:#ffffff;font-size:13px;font-weight:bold;text-shadow:0 0 6px #000000, 0 0 3px #000000;font-family:verdana, sans-serif;fill:#ffffff;text-rendering:geometricprecision;" text-anchor="end">
			<tspan>8.9
			</tspan>
		</text>
	</g>
	<g class="highcharts-axis-labels highcharts-xaxis-labels">
		<text x="78.8" style="color:#606060;cursor:default;font-size:13px;font-family:verdana, sans-serif;fill:#606060;width:400px;text-overflow:ellipsis;" text-anchor="end" transform="translate(0,0) rotate(-45 78.8 330)" y="330" opacity="1">
			<tspan>Shanghai
			</tspan>
		</text>
		<text x="104.3" style="color:#606060;cursor:default;font-size:13px;font-family:verdana, sans-serif;fill:#606060;width:400px;text-overflow:ellipsis;" text-anchor="end" transform="translate(0,0) rotate(-45 104.3 330)" y="330" opacity="1">
			<tspan>Lagos
			</tspan>
		</text>
		<text x="129.9" style="color:#606060;cursor:default;font-size:13px;font-family:verdana, sans-serif;fill:#606060;width:400px;text-overflow:ellipsis;" text-anchor="end" transform="translate(0,0) rotate(-45 129.9 330)" y="330" opacity="1">
			<tspan>Istanbul
			</tspan>
		</text>
		<text x="155.4" style="color:#606060;cursor:default;font-size:13px;font-family:verdana, sans-serif;fill:#606060;width:400px;text-overflow:ellipsis;" text-anchor="end" transform="translate(0,0) rotate(-45 155.4 330)" y="330" opacity="1">
			<tspan>Karachi
			</tspan>
		</text>
		<text x="181.0" style="color:#606060;cursor:default;font-size:13px;font-family:verdana, sans-serif;fill:#606060;width:400px;text-overflow:ellipsis;" text-anchor="end" transform="translate(0,0) rotate(-45 181.0 330)" y="330" opacity="1">
			<tspan>Mumbai
			</tspan>
		</text>
		<text x="206.5" style="color:#606060;cursor:default;font-size:13px;font-family:verdana, sans-serif;fill:#606060;width:400px;text-overflow:ellipsis;" text-anchor="end" transform="translate(0,0) rotate(-45 206.5 330)" y="330" opacity="1">
			<tspan>Moscow
			</tspan>
		</text>
		<text x="232.1" style="color:#606060;cursor:default;font-size:13px;font-family:verdana, sans-serif;fill:#606060;width:400px;text-overflow:ellipsis;" text-anchor="end" transform="translate(0,0) rotate(-45 232.1 330)" y="330" opacity="1">
			<tspan>São Paulo
			</tspan>
		</text>
		<text x="257.6" style="color:#606060;cursor:default;font-size:13px;font-family:verdana, sans-serif;fill:#606060;width:400px;text-overflow:ellipsis;" text-anchor="end" transform="translate(0,0) rotate(-45 257.6 330)" y="330" opacity="1">
			<tspan>Beijing
			</tspan>
		</text>
		<text x="283.2" style="color:#606060;cursor:default;font-size:13px;font-family:verdana, sans-serif;fill:#606060;width:400px;text-overflow:ellipsis;" text-anchor="end" transform="translate(0,0) rotate(-45 283.2 330)" y="330" opacity="1">
			<tspan>Guangzhou
			</tspan>
		</text>
		<text x="308.7" style="color:#606060;cursor:default;font-size:13px;font-family:verdana, sans-serif;fill:#606060;width:400px;text-overflow:ellipsis;" text-anchor="end" transform="translate(0,0) rotate(-45 308.7 330)" y="330" opacity="1">
			<tspan>Delhi
			</tspan>
		</text>
		<text x="334.3" style="color:#606060;cursor:default;font-size:13px;font-family:verdana, sans-serif;fill:#606060;width:400px;text-overflow:ellipsis;" text-anchor="end" transform="translate(0,0) rotate(-45 334.3 330)" y="330" opacity="1">
			<tspan>Shenzhen
			</tspan>
		</text>
		<text x="359.8" style="color:#606060;cursor:default;font-size:13px;font-family:verdana, sans-serif;fill:#606060;width:400px;text-overflow:ellipsis;" text-anchor="end" transform="translate(0,0) rotate(-45 359.8 330)" y="330" opacity="1">
			<tspan>Seoul
			</tspan>
		</text>
		<text x="385.4" style="color:#606060;cursor:default;font-size:13px;font-family:verdana, sans-serif;fill:#606060;width:400px;text-overflow:ellipsis;" text-anchor="end" transform="translate(0,0) rotate(-45 385.4 330)" y="330" opacity="1">
			<tspan>Jakarta
			</tspan>
		</text>
		<text x="410.9" style="color:#606060;cursor:default;font-size:13px;font-family:verdana, sans-serif;fill:#606060;width:400px;text-overflow:ellipsis;" text-anchor="end" transform="translate(0,0) rotate(-45 410.9 330)" y="330" opacity="1">
			<tspan>Kinshasa
			</tspan>
		</text>
		<text x="436.5" style="color:#606060;cursor:default;font-size:13px;font-family:verdana, sans-serif;fill:#606060;width:400px;text-overflow:ellipsis;" text-anchor="end" transform="translate(0,0) rotate(-45 436.5 330)" y="330" opacity="1">
			<tspan>Tianjin
			</tspan>
		</text>
		<text x="462.0" style="color:#606060;cursor:default;font-size:13px;font-family:verdana, sans-serif;fill:#606060;width:400px;text-overflow:ellipsis;" text-anchor="end" transform="translate(0,0) rotate(-45 462.0 330)" y="330" opacity="1">
			<tspan>Tokyo
			</tspan>
		</text>
		<text x="487.6" style="color:#606060;cursor:default;font-size:13px;font-family:verdana, sans-serif;fill:#606060;width:400px;text-overflow:ellipsis;" text-anchor="end" transform="translate(0,0) rotate(-45 487.6 330)" y="330" opacity="1">
			<tspan>Cairo
			</tspan>
		</text>
		<text x="513.1" style="color:#606060;cursor:default;font-size:13px;font-family:verdana, sans-serif;fill:#606060;width:400px;text-overflow:ellipsis;" text-anchor="end" transform="translate(0,0) rotate(-45 513.1 330)" y="330" opacity="1">
			<tspan>Dhaka
			</tspan>
		</text>
		<text x="538.7" style="color:#606060;cursor:default;font-size:13px;font-family:verdana, sans-serif;fill:#606060;width:400px;text-overflow:ellipsis;" text-anchor="end" transform="translate(0,0) rotate(-45 538.7 330)" y="330" opacity="1">
			<tspan>Mexico City
			</tspan>
		</text>
		<text x="564.2" style="color:#606060;cursor:default;font-size:13px;font-family:verdana, sans-serif;fill:#606060;width:400px;text-overflow:ellipsis;" text-anchor="end" transform="translate(0,0) rotate(-45 564.2 330)" y="330" opacity="1">
			<tspan>Lima
			</tspan>
		</text>
	</g>
	<g class="highcharts-axis-labels highcharts-yaxis-labels">
		<text x="48" style="color:#606060;cursor:default;font-size:11px;fill:#606060;width:183px;text-overflow:clip;" text-anchor="end" transform="translate(0,0)" y="318" opacity="1">0
		</text>
		<text x="48" style="color:#606060;cursor:default;font-size:11px;fill:#606060;width:183px;text-overflow:clip;" text-anchor="end" transform="translate(0,0)" y="267" opacity="1">5
		</text>
		<text x="48" style="color:#606060;cursor:default;font-size:11px;fill:#606060;width:183px;text-overflow:clip;" text-anchor="end" transform="translate(0,0)" y="217" opacity="1">10
		</text>
		<text x="48" style="color:#606060;cursor:default;font-size:11px;fill:#606060;width:183px;text-overflow:clip;" text-anchor="end" transform="translate(0,0)" y="166" opacity="1">15
		</text>
		<text x="48" style="color:#606060;cursor:default;font-size:11px;fill:#606060;width:183px;text-overflow:clip;" text-anchor="end" transform="translate(0,0)" y="116" opacity="1">20
		</text>
		<text x="48" style="color:#606060;cursor:default;font-size:11px;fill:#606060;width:183px;text-overflow:clip;" text-anchor="end" transform="translate(0,0)" y="66" opacity="1">25
		</text>
	</g>
	<g class="highcharts-tooltip" style="cursor:default;padding:0;pointer-events:none;white-space:nowrap;" transform="translate(0,-9999)">
		<path fill="none" d="M 3.5 0.5 L 13.5 0.5 C 16.5 0.5 16.5 0.5 16.5 3.5 L 16.5 13.5 C 16.5 16.5 16.5 16.5 13.5 16.5 L 3.5 16.5 C 0.5 16.5 0.5 16.5 0.5 13.5 L 0.5 3.5 C 0.5 0.5 0.5 0.5 3.5 0.5"  stroke="black" stroke-opacity="0.0" stroke-width="5" transform="translate(1, 1)">
		</path>
		<path fill="none" d="M 3.5 0.5 L 13.5 0.5 C 16.5 0.5 16.5 0.5 16.5 3.5 L 16.5 13.5 C 16.5 16.5 16.5 16.5 13.5 16.5 L 3.5 16.5 C 0.5 16.5 0.5 16.5 0.5 13.5 L 0.5 3.5 C 0.5 0.5 0.5 0.5 3.5 0.5"  stroke="black" stroke-opacity="0.0" stroke-width="3" transform="translate(1, 1)">
		</path>
		<path fill="none" d="M 3.5 0.5 L 13.5 0.5 C 16.5 0.5 16.5 0.5 16.5 3.5 L 16.5 13.5 C 16.5 16.5 16.5 16.5 13.5 16.5 L 3.5 16.5 C 0.5 16.5 0.5 16.5 0.5 13.5 L 0.5 3.5 C 0.5 0.5 0.5 0.5 3.5 0.5"  stroke="black" stroke-opacity="0.1" stroke-width="1" transform="translate(1, 1)">
		</path>
		<path fill="rgb(249, 249, 249)" fill-opacity=" .85" d="M 3.5 0.5 L 13.5 0.5 C 16.5 0.5 16.5 0.5 16.5 3.5 L 16.5 13.5 C 16.5 16.5 16.5 16.5 13.5 16.5 L 3.5 16.5 C 0.5 16.5 0.5 16.5 0.5 13.5 L 0.5 3.5 C 0.5 0.5 0.5 0.5 3.5 0.5">
		</path>
		<text x="8" style="font-size:12px;color:#333333;fill:#333333;" y="20">
		</text>
	</g>
</svg>