
<svg version="1.1" style="font-family:&quot;lucida grande&quot;, &quot;lucida sans unicode&quot;, arial, helvetica, sans-serif;font-size:12px;" xmlns="http://www.w3.org/2000/svg" viewBox="0 0 584 400">
	<desc>Created with Highcharts 4.2.4
	</desc>
	<defs>
		<clipPath id="highcharts-1">
			<rect x="0" y="0" width="504" height="266">
			</rect>
		</clipPath>
	</defs>
	<rect x="0" y="0" width="584" height="400" fill="#FFFFFF" class=" highcharts-background" stroke="transparent">
	</rect>
	<g class="highcharts-grid">
	</g>
	<g class="highcharts-grid">
		<path fill="none" d="M 70 327.5 L 574 327.5" stroke="#D8D8D8" stroke-width="1" opacity="1">
		</path>
		<path fill="none" d="M 70 274.5 L 574 274.5" stroke="#D8D8D8" stroke-width="1" opacity="1">
		</path>
		<path fill="none" d="M 70 221.5 L 574 221.5" stroke="#D8D8D8" stroke-width="1" opacity="1">
		</path>
		<path fill="none" d="M 70 167.5 L 574 167.5" stroke="#D8D8D8" stroke-width="1" opacity="1">
		</path>
		<path fill="none" d="M 70 114.5 L 574 114.5" stroke="#D8D8D8" stroke-width="1" opacity="1">
		</path>
		<path fill="none" d="M 70 60.5 L 574 60.5" stroke="#D8D8D8" stroke-width="1" opacity="1">
		</path>
	</g>
	<g class="highcharts-axis">
		<path fill="none" d="M 111.5 327 L 111.5 337" stroke="#C0D0E0" stroke-width="1" opacity="1">
		</path>
		<path fill="none" d="M 153.5 327 L 153.5 337" stroke="#C0D0E0" stroke-width="1" opacity="1">
		</path>
		<path fill="none" d="M 195.5 327 L 195.5 337" stroke="#C0D0E0" stroke-width="1" opacity="1">
		</path>
		<path fill="none" d="M 237.5 327 L 237.5 337" stroke="#C0D0E0" stroke-width="1" opacity="1">
		</path>
		<path fill="none" d="M 279.5 327 L 279.5 337" stroke="#C0D0E0" stroke-width="1" opacity="1">
		</path>
		<path fill="none" d="M 321.5 327 L 321.5 337" stroke="#C0D0E0" stroke-width="1" opacity="1">
		</path>
		<path fill="none" d="M 363.5 327 L 363.5 337" stroke="#C0D0E0" stroke-width="1" opacity="1">
		</path>
		<path fill="none" d="M 405.5 327 L 405.5 337" stroke="#C0D0E0" stroke-width="1" opacity="1">
		</path>
		<path fill="none" d="M 447.5 327 L 447.5 337" stroke="#C0D0E0" stroke-width="1" opacity="1">
		</path>
		<path fill="none" d="M 489.5 327 L 489.5 337" stroke="#C0D0E0" stroke-width="1" opacity="1">
		</path>
		<path fill="none" d="M 531.5 327 L 531.5 337" stroke="#C0D0E0" stroke-width="1" opacity="1">
		</path>
		<path fill="none" d="M 574.5 327 L 574.5 337" stroke="#C0D0E0" stroke-width="1" opacity="1">
		</path>
		<path fill="none" d="M 69.5 327 L 69.5 337" stroke="#C0D0E0" stroke-width="1" opacity="1">
		</path>
		<path fill="none" d="M 70 327.5 L 574 327.5" stroke="#C0D0E0" stroke-width="1">
		</path>
	</g>
	<g class="highcharts-axis">
		<text x="24.1" text-anchor="middle" transform="translate(0,0) rotate(270 24.1 194)" class=" highcharts-yaxis-title" style="color:#707070;fill:#707070;" y="194">
			<tspan>Rainfall (mm)
			</tspan>
		</text>
	</g>
	<g class="highcharts-series-group">
		<g class="highcharts-series highcharts-series-0 highcharts-tracker" transform="translate(70,61) scale(1 1)" style="" clip-path="url(#highcharts-1)">
			<rect x="10" y="214" width="4" height="53" fill="#7cb5ec" rx="0" ry="0">
			</rect>
			<rect x="52" y="191" width="4" height="76" fill="#7cb5ec" rx="0" ry="0">
			</rect>
			<rect x="94" y="154" width="4" height="113" fill="#7cb5ec" rx="0" ry="0">
			</rect>
			<rect x="136" y="130" width="4" height="137" fill="#7cb5ec" rx="0" ry="0">
			</rect>
			<rect x="178" y="114" width="4" height="153" fill="#7cb5ec" rx="0" ry="0">
			</rect>
			<rect x="220" y="80" width="4" height="187" fill="#7cb5ec" rx="0" ry="0">
			</rect>
			<rect x="262" y="123" width="4" height="144" fill="#7cb5ec" rx="0" ry="0">
			</rect>
			<rect x="304" y="109" width="4" height="158" fill="#7cb5ec" rx="0" ry="0">
			</rect>
			<rect x="346" y="37" width="4" height="230" fill="#7cb5ec" rx="0" ry="0">
			</rect>
			<rect x="388" y="60" width="4" height="207" fill="#7cb5ec" rx="0" ry="0">
			</rect>
			<rect x="430" y="165" width="4" height="102" fill="#7cb5ec" rx="0" ry="0">
			</rect>
			<rect x="472" y="209" width="4" height="58" fill="#7cb5ec" rx="0" ry="0">
			</rect>
		</g>
		<g class="highcharts-markers highcharts-series-0" transform="translate(70,61) scale(1 1)" clip-path="none">
		</g>
		<g class="highcharts-series highcharts-series-1 highcharts-tracker" transform="translate(70,61) scale(1 1)" style="" clip-path="url(#highcharts-1)">
			<rect x="16" y="178" width="4" height="89" fill="#434348" rx="0" ry="0">
			</rect>
			<rect x="58" y="183" width="4" height="84" fill="#434348" rx="0" ry="0">
			</rect>
			<rect x="100" y="162" width="4" height="105" fill="#434348" rx="0" ry="0">
			</rect>
			<rect x="142" y="168" width="4" height="99" fill="#434348" rx="0" ry="0">
			</rect>
			<rect x="184" y="154" width="4" height="113" fill="#434348" rx="0" ry="0">
			</rect>
			<rect x="226" y="177" width="4" height="90" fill="#434348" rx="0" ry="0">
			</rect>
			<rect x="268" y="155" width="4" height="112" fill="#434348" rx="0" ry="0">
			</rect>
			<rect x="310" y="156" width="4" height="111" fill="#434348" rx="0" ry="0">
			</rect>
			<rect x="352" y="170" width="4" height="97" fill="#434348" rx="0" ry="0">
			</rect>
			<rect x="394" y="178" width="4" height="89" fill="#434348" rx="0" ry="0">
			</rect>
			<rect x="436" y="154" width="4" height="113" fill="#434348" rx="0" ry="0">
			</rect>
			<rect x="478" y="169" width="4" height="98" fill="#434348" rx="0" ry="0">
			</rect>
		</g>
		<g class="highcharts-markers highcharts-series-1" transform="translate(70,61) scale(1 1)" clip-path="none">
		</g>
		<g class="highcharts-series highcharts-series-2 highcharts-tracker" transform="translate(70,61) scale(1 1)" style="" clip-path="url(#highcharts-1)">
			<rect x="22" y="215" width="4" height="52" fill="#90ed7d" rx="0" ry="0">
			</rect>
			<rect x="64" y="226" width="4" height="41" fill="#90ed7d" rx="0" ry="0">
			</rect>
			<rect x="106" y="225" width="4" height="42" fill="#90ed7d" rx="0" ry="0">
			</rect>
			<rect x="148" y="223" width="4" height="44" fill="#90ed7d" rx="0" ry="0">
			</rect>
			<rect x="190" y="217" width="4" height="50" fill="#90ed7d" rx="0" ry="0">
			</rect>
			<rect x="232" y="216" width="4" height="51" fill="#90ed7d" rx="0" ry="0">
			</rect>
			<rect x="274" y="204" width="4" height="63" fill="#90ed7d" rx="0" ry="0">
			</rect>
			<rect x="316" y="204" width="4" height="63" fill="#90ed7d" rx="0" ry="0">
			</rect>
			<rect x="358" y="211" width="4" height="56" fill="#90ed7d" rx="0" ry="0">
			</rect>
			<rect x="400" y="198" width="4" height="69" fill="#90ed7d" rx="0" ry="0">
			</rect>
			<rect x="442" y="204" width="4" height="63" fill="#90ed7d" rx="0" ry="0">
			</rect>
			<rect x="484" y="213" width="4" height="54" fill="#90ed7d" rx="0" ry="0">
			</rect>
		</g>
		<g class="highcharts-markers highcharts-series-2" transform="translate(70,61) scale(1 1)" clip-path="none">
		</g>
		<g class="highcharts-series highcharts-series-3 highcharts-tracker" transform="translate(70,61) scale(1 1)" style="" clip-path="url(#highcharts-1)">
			<rect x="29" y="222" width="4" height="45" fill="#f7a35c" rx="0" ry="0">
			</rect>
			<rect x="71" y="232" width="4" height="35" fill="#f7a35c" rx="0" ry="0">
			</rect>
			<rect x="113" y="230" width="4" height="37" fill="#f7a35c" rx="0" ry="0">
			</rect>
			<rect x="155" y="225" width="4" height="42" fill="#f7a35c" rx="0" ry="0">
			</rect>
			<rect x="197" y="211" width="4" height="56" fill="#f7a35c" rx="0" ry="0">
			</rect>
			<rect x="239" y="187" width="4" height="80" fill="#f7a35c" rx="0" ry="0">
			</rect>
			<rect x="281" y="206" width="4" height="61" fill="#f7a35c" rx="0" ry="0">
			</rect>
			<rect x="323" y="203" width="4" height="64" fill="#f7a35c" rx="0" ry="0">
			</rect>
			<rect x="365" y="216" width="4" height="51" fill="#f7a35c" rx="0" ry="0">
			</rect>
			<rect x="407" y="225" width="4" height="42" fill="#f7a35c" rx="0" ry="0">
			</rect>
			<rect x="449" y="217" width="4" height="50" fill="#f7a35c" rx="0" ry="0">
			</rect>
			<rect x="491" y="213" width="4" height="54" fill="#f7a35c" rx="0" ry="0">
			</rect>
		</g>
		<g class="highcharts-markers highcharts-series-3" transform="translate(70,61) scale(1 1)" clip-path="none">
		</g>
	</g>
	<text x="292" text-anchor="middle" class="highcharts-title" style="color:#333333;font-size:18px;fill:#333333;width:520px;" y="24">
		<tspan>Monthly Average Rainfall
		</tspan>
	</text>
	<text x="292" text-anchor="middle" class="highcharts-subtitle" style="color:#555555;fill:#555555;width:520px;" y="45">
		<tspan>Source: WorldClimate.com
		</tspan>
	</text>
	<g class="highcharts-legend" transform="translate(122,360)">
		<g>
			<g>
				<g class="highcharts-legend-item" transform="translate(8,3)">
					<text x="21" style="color:#333333;font-size:12px;font-weight:bold;cursor:pointer;fill:#333333;" text-anchor="start" y="15">Tokyo
					</text>
					<rect x="0" y="4" width="16" height="12" fill="#7cb5ec">
					</rect>
				</g>
				<g class="highcharts-legend-item" transform="translate(87.1,3)">
					<text x="21" y="15" style="color:#333333;font-size:12px;font-weight:bold;cursor:pointer;fill:#333333;" text-anchor="start">
						<tspan>New York
						</tspan>
					</text>
					<rect x="0" y="4" width="16" height="12" fill="#434348">
					</rect>
				</g>
				<g class="highcharts-legend-item" transform="translate(187.6,3)">
					<text x="21" y="15" style="color:#333333;font-size:12px;font-weight:bold;cursor:pointer;fill:#333333;" text-anchor="start">London
					</text>
					<rect x="0" y="4" width="16" height="12" fill="#90ed7d">
					</rect>
				</g>
				<g class="highcharts-legend-item" transform="translate(274.6,3)">
					<text x="21" y="15" style="color:#333333;font-size:12px;font-weight:bold;cursor:pointer;fill:#333333;" text-anchor="start">Berlin
					</text>
					<rect x="0" y="4" width="16" height="12" fill="#f7a35c">
					</rect>
				</g>
			</g>
		</g>
	</g>
	<g class="highcharts-axis-labels highcharts-xaxis-labels">
		<text x="91" style="color:#606060;cursor:default;font-size:11px;fill:#606060;" text-anchor="middle" transform="translate(0,0)" y="346" opacity="1">Jan
		</text>
		<text x="133" style="color:#606060;cursor:default;font-size:11px;fill:#606060;" text-anchor="middle" transform="translate(0,0)" y="346" opacity="1">Feb
		</text>
		<text x="175" style="color:#606060;cursor:default;font-size:11px;fill:#606060;" text-anchor="middle" transform="translate(0,0)" y="346" opacity="1">Mar
		</text>
		<text x="217" style="color:#606060;cursor:default;font-size:11px;fill:#606060;" text-anchor="middle" transform="translate(0,0)" y="346" opacity="1">Apr
		</text>
		<text x="259" style="color:#606060;cursor:default;font-size:11px;fill:#606060;" text-anchor="middle" transform="translate(0,0)" y="346" opacity="1">May
		</text>
		<text x="301" style="color:#606060;cursor:default;font-size:11px;fill:#606060;" text-anchor="middle" transform="translate(0,0)" y="346" opacity="1">Jun
		</text>
		<text x="343" style="color:#606060;cursor:default;font-size:11px;fill:#606060;" text-anchor="middle" transform="translate(0,0)" y="346" opacity="1">Jul
		</text>
		<text x="385" style="color:#606060;cursor:default;font-size:11px;fill:#606060;" text-anchor="middle" transform="translate(0,0)" y="346" opacity="1">Aug
		</text>
		<text x="427" style="color:#606060;cursor:default;font-size:11px;fill:#606060;" text-anchor="middle" transform="translate(0,0)" y="346" opacity="1">Sep
		</text>
		<text x="469" style="color:#606060;cursor:default;font-size:11px;fill:#606060;" text-anchor="middle" transform="translate(0,0)" y="346" opacity="1">Oct
		</text>
		<text x="511" style="color:#606060;cursor:default;font-size:11px;fill:#606060;" text-anchor="middle" transform="translate(0,0)" y="346" opacity="1">Nov
		</text>
		<text x="553" style="color:#606060;cursor:default;font-size:11px;fill:#606060;" text-anchor="middle" transform="translate(0,0)" y="346" opacity="1">Dec
		</text>
	</g>
	<g class="highcharts-axis-labels highcharts-yaxis-labels">
		<text x="55" style="color:#606060;cursor:default;font-size:11px;fill:#606060;width:183px;text-overflow:clip;" text-anchor="end" transform="translate(0,0)" y="332" opacity="1">0
		</text>
		<text x="55" style="color:#606060;cursor:default;font-size:11px;fill:#606060;width:183px;text-overflow:clip;" text-anchor="end" transform="translate(0,0)" y="278" opacity="1">50
		</text>
		<text x="55" style="color:#606060;cursor:default;font-size:11px;fill:#606060;width:183px;text-overflow:clip;" text-anchor="end" transform="translate(0,0)" y="225" opacity="1">100
		</text>
		<text x="55" style="color:#606060;cursor:default;font-size:11px;fill:#606060;width:183px;text-overflow:clip;" text-anchor="end" transform="translate(0,0)" y="172" opacity="1">150
		</text>
		<text x="55" style="color:#606060;cursor:default;font-size:11px;fill:#606060;width:183px;text-overflow:clip;" text-anchor="end" transform="translate(0,0)" y="119" opacity="1">200
		</text>
		<text x="55" style="color:#606060;cursor:default;font-size:11px;fill:#606060;width:183px;text-overflow:clip;" text-anchor="end" transform="translate(0,0)" y="66" opacity="1">250
		</text>
	</g>
	<g class="highcharts-tooltip" style="cursor:default;padding:0;pointer-events:none;white-space:nowrap;" transform="translate(0,-9999)">
		<path fill="none" d="M 3.5 0.5 L 13.5 0.5 C 16.5 0.5 16.5 0.5 16.5 3.5 L 16.5 13.5 C 16.5 16.5 16.5 16.5 13.5 16.5 L 3.5 16.5 C 0.5 16.5 0.5 16.5 0.5 13.5 L 0.5 3.5 C 0.5 0.5 0.5 0.5 3.5 0.5"  stroke="black" stroke-opacity="0.0" stroke-width="5" transform="translate(1, 1)">
		</path>
		<path fill="none" d="M 3.5 0.5 L 13.5 0.5 C 16.5 0.5 16.5 0.5 16.5 3.5 L 16.5 13.5 C 16.5 16.5 16.5 16.5 13.5 16.5 L 3.5 16.5 C 0.5 16.5 0.5 16.5 0.5 13.5 L 0.5 3.5 C 0.5 0.5 0.5 0.5 3.5 0.5"  stroke="black" stroke-opacity="0.0" stroke-width="3" transform="translate(1, 1)">
		</path>
		<path fill="none" d="M 3.5 0.5 L 13.5 0.5 C 16.5 0.5 16.5 0.5 16.5 3.5 L 16.5 13.5 C 16.5 16.5 16.5 16.5 13.5 16.5 L 3.5 16.5 C 0.5 16.5 0.5 16.5 0.5 13.5 L 0.5 3.5 C 0.5 0.5 0.5 0.5 3.5 0.5"  stroke="black" stroke-opacity="0.1" stroke-width="1" transform="translate(1, 1)">
		</path>
		<path fill="rgb(249, 249, 249)" fill-opacity=" .85" d="M 3.5 0.5 L 13.5 0.5 C 16.5 0.5 16.5 0.5 16.5 3.5 L 16.5 13.5 C 16.5 16.5 16.5 16.5 13.5 16.5 L 3.5 16.5 C 0.5 16.5 0.5 16.5 0.5 13.5 L 0.5 3.5 C 0.5 0.5 0.5 0.5 3.5 0.5">
		</path>
	</g>
</svg>