
<svg version="1.1" style="font-family:&quot;lucida grande&quot;, &quot;lucida sans unicode&quot;, arial, helvetica, sans-serif;font-size:12px;" xmlns="http://www.w3.org/2000/svg" viewBox="0 0 584 400">
	<desc>Created with Highcharts 4.2.4
	</desc>
	<defs>
		<clipPath id="highcharts-1">
			<rect x="0" y="0" width="511" height="281">
			</rect>
		</clipPath>
	</defs>
	<rect x="0" y="0" width="584" height="400" fill="#FFFFFF" class=" highcharts-background" stroke="transparent">
	</rect>
	<g class="highcharts-grid">
	</g>
	<g class="highcharts-grid">
		<path fill="none" d="M 63 327.5 L 574 327.5" stroke="#D8D8D8" stroke-width="1" opacity="1">
		</path>
		<path fill="none" d="M 63 280.5 L 574 280.5" stroke="#D8D8D8" stroke-width="1" opacity="1">
		</path>
		<path fill="none" d="M 63 233.5 L 574 233.5" stroke="#D8D8D8" stroke-width="1" opacity="1">
		</path>
		<path fill="none" d="M 63 187.5 L 574 187.5" stroke="#D8D8D8" stroke-width="1" opacity="1">
		</path>
		<path fill="none" d="M 63 140.5 L 574 140.5" stroke="#D8D8D8" stroke-width="1" opacity="1">
		</path>
		<path fill="none" d="M 63 93.5 L 574 93.5" stroke="#D8D8D8" stroke-width="1" opacity="1">
		</path>
		<path fill="none" d="M 63 45.5 L 574 45.5" stroke="#D8D8D8" stroke-width="1" opacity="1">
		</path>
	</g>
	<g class="highcharts-axis">
		<path fill="none" d="M 164.5 327 L 164.5 337" stroke="#C0D0E0" stroke-width="1" opacity="1">
		</path>
		<path fill="none" d="M 266.5 327 L 266.5 337" stroke="#C0D0E0" stroke-width="1" opacity="1">
		</path>
		<path fill="none" d="M 369.5 327 L 369.5 337" stroke="#C0D0E0" stroke-width="1" opacity="1">
		</path>
		<path fill="none" d="M 471.5 327 L 471.5 337" stroke="#C0D0E0" stroke-width="1" opacity="1">
		</path>
		<path fill="none" d="M 574.5 327 L 574.5 337" stroke="#C0D0E0" stroke-width="1" opacity="1">
		</path>
		<path fill="none" d="M 62.5 327 L 62.5 337" stroke="#C0D0E0" stroke-width="1" opacity="1">
		</path>
		<path fill="none" d="M 63 327.5 L 574 327.5" stroke="#C0D0E0" stroke-width="1">
		</path>
	</g>
	<g class="highcharts-axis">
		<text x="24.0" text-anchor="middle" transform="translate(0,0) rotate(270 24.0 186.5)" class=" highcharts-yaxis-title" style="color:#707070;fill:#707070;" y="186.5">
			<tspan>Number of fruits
			</tspan>
		</text>
	</g>
	<g class="highcharts-series-group">
		<g class="highcharts-series highcharts-series-0 highcharts-tracker" transform="translate(63,46) scale(1 1)" style="" clip-path="url(#highcharts-1)">
			<rect x="23.5" y="94.5" width="25" height="117" stroke="#FFFFFF" stroke-width="1" fill="#7cb5ec" rx="0" ry="0">
			</rect>
			<rect x="125.5" y="117.5" width="25" height="70" stroke="#FFFFFF" stroke-width="1" fill="#7cb5ec" rx="0" ry="0">
			</rect>
			<rect x="227.5" y="94.5" width="25" height="93" stroke="#FFFFFF" stroke-width="1" fill="#7cb5ec" rx="0" ry="0">
			</rect>
			<rect x="329.5" y="70.5" width="25" height="164" stroke="#FFFFFF" stroke-width="1" fill="#7cb5ec" rx="0" ry="0">
			</rect>
			<rect x="431.5" y="117.5" width="25" height="47" stroke="#FFFFFF" stroke-width="1" fill="#7cb5ec" rx="0" ry="0">
			</rect>
		</g>
		<g class="highcharts-markers highcharts-series-0" transform="translate(63,46) scale(1 1)" clip-path="none">
		</g>
		<g class="highcharts-series highcharts-series-1 highcharts-tracker" transform="translate(63,46) scale(1 1)" style="" clip-path="url(#highcharts-1)">
			<rect x="23.5" y="211.5" width="25" height="70" stroke="#FFFFFF" stroke-width="1" fill="#434348" rx="0" ry="0">
			</rect>
			<rect x="125.5" y="187.5" width="25" height="94" stroke="#FFFFFF" stroke-width="1" fill="#434348" rx="0" ry="0">
			</rect>
			<rect x="227.5" y="187.5" width="25" height="94" stroke="#FFFFFF" stroke-width="1" fill="#434348" rx="0" ry="0">
			</rect>
			<rect x="329.5" y="234.5" width="25" height="47" stroke="#FFFFFF" stroke-width="1" fill="#434348" rx="0" ry="0">
			</rect>
			<rect x="431.5" y="164.5" width="25" height="117" stroke="#FFFFFF" stroke-width="1" fill="#434348" rx="0" ry="0">
			</rect>
		</g>
		<g class="highcharts-markers highcharts-series-1" transform="translate(63,46) scale(1 1)" clip-path="none">
		</g>
		<g class="highcharts-series highcharts-series-2 highcharts-tracker" transform="translate(63,46) scale(1 1)" style="" clip-path="url(#highcharts-1)">
			<rect x="53.5" y="164.5" width="25" height="47" stroke="#FFFFFF" stroke-width="1" fill="#90ed7d" rx="0" ry="0">
			</rect>
			<rect x="155.5" y="164.5" width="25" height="117" stroke="#FFFFFF" stroke-width="1" fill="#90ed7d" rx="0" ry="0">
			</rect>
			<rect x="258.5" y="47.5" width="25" height="140" stroke="#FFFFFF" stroke-width="1" fill="#90ed7d" rx="0" ry="0">
			</rect>
			<rect x="360.5" y="141.5" width="25" height="46" stroke="#FFFFFF" stroke-width="1" fill="#90ed7d" rx="0" ry="0">
			</rect>
			<rect x="462.5" y="187.5" width="25" height="24" stroke="#FFFFFF" stroke-width="1" fill="#90ed7d" rx="0" ry="0">
			</rect>
		</g>
		<g class="highcharts-markers highcharts-series-2" transform="translate(63,46) scale(1 1)" clip-path="none">
		</g>
		<g class="highcharts-series highcharts-series-3 highcharts-tracker" transform="translate(63,46) scale(1 1)" style="" clip-path="url(#highcharts-1)">
			<rect x="53.5" y="211.5" width="25" height="70" stroke="#FFFFFF" stroke-width="1" fill="#f7a35c" rx="0" ry="0">
			</rect>
			<rect x="155.5" y="281.5" width="25" height="0" stroke="#FFFFFF" stroke-width="1" fill="#f7a35c" rx="0" ry="0">
			</rect>
			<rect x="258.5" y="187.5" width="25" height="94" stroke="#FFFFFF" stroke-width="1" fill="#f7a35c" rx="0" ry="0">
			</rect>
			<rect x="360.5" y="187.5" width="25" height="94" stroke="#FFFFFF" stroke-width="1" fill="#f7a35c" rx="0" ry="0">
			</rect>
			<rect x="462.5" y="211.5" width="25" height="70" stroke="#FFFFFF" stroke-width="1" fill="#f7a35c" rx="0" ry="0">
			</rect>
		</g>
		<g class="highcharts-markers highcharts-series-3" transform="translate(63,46) scale(1 1)" clip-path="none">
		</g>
	</g>
	<text x="292" text-anchor="middle" class="highcharts-title" style="color:#333333;font-size:18px;fill:#333333;width:520px;" y="24">
		<tspan>Total fruit consumtion, grouped by gender
		</tspan>
	</text>
	<g class="highcharts-legend" transform="translate(159,360)">
		<g>
			<g>
				<g class="highcharts-legend-item" transform="translate(8,3)">
					<text x="21" style="color:#333333;font-size:12px;font-weight:bold;cursor:pointer;fill:#333333;" text-anchor="start" y="15">John
					</text>
					<rect x="0" y="4" width="16" height="12" fill="#7cb5ec">
					</rect>
				</g>
				<g class="highcharts-legend-item" transform="translate(77.4,3)">
					<text x="21" y="15" style="color:#333333;font-size:12px;font-weight:bold;cursor:pointer;fill:#333333;" text-anchor="start">Joe
					</text>
					<rect x="0" y="4" width="16" height="12" fill="#434348">
					</rect>
				</g>
				<g class="highcharts-legend-item" transform="translate(138.1,3)">
					<text x="21" y="15" style="color:#333333;font-size:12px;font-weight:bold;cursor:pointer;fill:#333333;" text-anchor="start">Jane
					</text>
					<rect x="0" y="4" width="16" height="12" fill="#90ed7d">
					</rect>
				</g>
				<g class="highcharts-legend-item" transform="translate(206.0,3)">
					<text x="21" y="15" style="color:#333333;font-size:12px;font-weight:bold;cursor:pointer;fill:#333333;" text-anchor="start">Janet
					</text>
					<rect x="0" y="4" width="16" height="12" fill="#f7a35c">
					</rect>
				</g>
			</g>
		</g>
	</g>
	<g class="highcharts-axis-labels highcharts-xaxis-labels">
		<text x="114.1" style="color:#606060;cursor:default;font-size:11px;fill:#606060;width:92px;text-overflow:clip;" text-anchor="middle" transform="translate(0,0)" y="346" opacity="1">Apples
		</text>
		<text x="216.2" style="color:#606060;cursor:default;font-size:11px;fill:#606060;width:92px;text-overflow:clip;" text-anchor="middle" transform="translate(0,0)" y="346" opacity="1">Oranges
		</text>
		<text x="318.5" style="color:#606060;cursor:default;font-size:11px;fill:#606060;width:92px;text-overflow:clip;" text-anchor="middle" transform="translate(0,0)" y="346" opacity="1">Pears
		</text>
		<text x="420.7" style="color:#606060;cursor:default;font-size:11px;fill:#606060;width:92px;text-overflow:clip;" text-anchor="middle" transform="translate(0,0)" y="346" opacity="1">Grapes
		</text>
		<text x="522.9" style="color:#606060;cursor:default;font-size:11px;fill:#606060;width:92px;text-overflow:clip;" text-anchor="middle" transform="translate(0,0)" y="346" opacity="1">Bananas
		</text>
	</g>
	<g class="highcharts-axis-labels highcharts-yaxis-labels">
		<text x="48" style="color:#606060;cursor:default;font-size:11px;fill:#606060;width:183px;text-overflow:clip;" text-anchor="end" transform="translate(0,0)" y="332" opacity="1">0
		</text>
		<text x="48" style="color:#606060;cursor:default;font-size:11px;fill:#606060;width:183px;text-overflow:clip;" text-anchor="end" transform="translate(0,0)" y="285" opacity="1">2
		</text>
		<text x="48" style="color:#606060;cursor:default;font-size:11px;fill:#606060;width:183px;text-overflow:clip;" text-anchor="end" transform="translate(0,0)" y="238" opacity="1">4
		</text>
		<text x="48" style="color:#606060;cursor:default;font-size:11px;fill:#606060;width:183px;text-overflow:clip;" text-anchor="end" transform="translate(0,0)" y="191" opacity="1">6
		</text>
		<text x="48" style="color:#606060;cursor:default;font-size:11px;fill:#606060;width:183px;text-overflow:clip;" text-anchor="end" transform="translate(0,0)" y="144" opacity="1">8
		</text>
		<text x="48" style="color:#606060;cursor:default;font-size:11px;fill:#606060;width:183px;text-overflow:clip;" text-anchor="end" transform="translate(0,0)" y="97" opacity="1">10
		</text>
		<text x="48" style="color:#606060;cursor:default;font-size:11px;fill:#606060;width:183px;text-overflow:clip;" text-anchor="end" transform="translate(0,0)" y="51" opacity="1">12
		</text>
	</g>
	<g class="highcharts-tooltip" style="cursor:default;padding:0;pointer-events:none;white-space:nowrap;" transform="translate(0,-9999)">
		<path fill="none" d="M 3.5 0.5 L 13.5 0.5 C 16.5 0.5 16.5 0.5 16.5 3.5 L 16.5 13.5 C 16.5 16.5 16.5 16.5 13.5 16.5 L 3.5 16.5 C 0.5 16.5 0.5 16.5 0.5 13.5 L 0.5 3.5 C 0.5 0.5 0.5 0.5 3.5 0.5"  stroke="black" stroke-opacity="0.0" stroke-width="5" transform="translate(1, 1)">
		</path>
		<path fill="none" d="M 3.5 0.5 L 13.5 0.5 C 16.5 0.5 16.5 0.5 16.5 3.5 L 16.5 13.5 C 16.5 16.5 16.5 16.5 13.5 16.5 L 3.5 16.5 C 0.5 16.5 0.5 16.5 0.5 13.5 L 0.5 3.5 C 0.5 0.5 0.5 0.5 3.5 0.5"  stroke="black" stroke-opacity="0.0" stroke-width="3" transform="translate(1, 1)">
		</path>
		<path fill="none" d="M 3.5 0.5 L 13.5 0.5 C 16.5 0.5 16.5 0.5 16.5 3.5 L 16.5 13.5 C 16.5 16.5 16.5 16.5 13.5 16.5 L 3.5 16.5 C 0.5 16.5 0.5 16.5 0.5 13.5 L 0.5 3.5 C 0.5 0.5 0.5 0.5 3.5 0.5"  stroke="black" stroke-opacity="0.1" stroke-width="1" transform="translate(1, 1)">
		</path>
		<path fill="rgb(249, 249, 249)" fill-opacity=" .85" d="M 3.5 0.5 L 13.5 0.5 C 16.5 0.5 16.5 0.5 16.5 3.5 L 16.5 13.5 C 16.5 16.5 16.5 16.5 13.5 16.5 L 3.5 16.5 C 0.5 16.5 0.5 16.5 0.5 13.5 L 0.5 3.5 C 0.5 0.5 0.5 0.5 3.5 0.5">
		</path>
		<text x="8" style="font-size:12px;color:#333333;fill:#333333;" y="20">
		</text>
	</g>
</svg>