
<svg version="1.1" style="font-family:&quot;lucida grande&quot;, &quot;lucida sans unicode&quot;, arial, helvetica, sans-serif;font-size:12px;" xmlns="http://www.w3.org/2000/svg" viewBox="0 0 584 400">
	<desc>Created with Highcharts 4.2.4
	</desc>
	<defs>
		<clipPath id="highcharts-1">
			<rect x="0" y="0" width="507" height="281">
			</rect>
		</clipPath>
	</defs>
	<rect x="0" y="0" width="584" height="400" fill="#FFFFFF" class=" highcharts-background" stroke="transparent">
	</rect>
	<g class="highcharts-grid">
	</g>
	<g class="highcharts-grid">
		<path fill="none" d="M 67 327.5 L 574 327.5" stroke="#D8D8D8" stroke-width="1" opacity="1">
		</path>
		<path fill="none" d="M 67 257.5 L 574 257.5" stroke="#D8D8D8" stroke-width="1" opacity="1">
		</path>
		<path fill="none" d="M 67 187.5 L 574 187.5" stroke="#D8D8D8" stroke-width="1" opacity="1">
		</path>
		<path fill="none" d="M 67 116.5 L 574 116.5" stroke="#D8D8D8" stroke-width="1" opacity="1">
		</path>
		<path fill="none" d="M 67 45.5 L 574 45.5" stroke="#D8D8D8" stroke-width="1" opacity="1">
		</path>
	</g>
	<g class="highcharts-axis">
		<path fill="none" d="M 167.5 327 L 167.5 337" stroke="#C0D0E0" stroke-width="1" opacity="1">
		</path>
		<path fill="none" d="M 269.5 327 L 269.5 337" stroke="#C0D0E0" stroke-width="1" opacity="1">
		</path>
		<path fill="none" d="M 370.5 327 L 370.5 337" stroke="#C0D0E0" stroke-width="1" opacity="1">
		</path>
		<path fill="none" d="M 472.5 327 L 472.5 337" stroke="#C0D0E0" stroke-width="1" opacity="1">
		</path>
		<path fill="none" d="M 574.5 327 L 574.5 337" stroke="#C0D0E0" stroke-width="1" opacity="1">
		</path>
		<path fill="none" d="M 66.5 327 L 66.5 337" stroke="#C0D0E0" stroke-width="1" opacity="1">
		</path>
		<path fill="none" d="M 67 327.5 L 574 327.5" stroke="#C0D0E0" stroke-width="1">
		</path>
	</g>
	<g class="highcharts-axis">
		<text x="24.6" text-anchor="middle" transform="translate(0,0) rotate(270 24.6 186.5)" class=" highcharts-yaxis-title" style="color:#707070;fill:#707070;" y="186.5">Values
		</text>
	</g>
	<text x="117" y="76" style="position:absolute;color:black;fill:black;">
		<tspan>Total fruit consumption
		</tspan>
	</text>
	<g class="highcharts-series-group">
		<g class="highcharts-series highcharts-series-0 highcharts-tracker" transform="translate(67,46) scale(1 1)" style="" clip-path="url(#highcharts-1)">
			<rect x="21.5" y="197.5" width="17" height="84" stroke="#FFFFFF" stroke-width="1" fill="#7cb5ec" rx="0" ry="0">
			</rect>
			<rect x="123.5" y="225.5" width="17" height="56" stroke="#FFFFFF" stroke-width="1" fill="#7cb5ec" rx="0" ry="0">
			</rect>
			<rect x="224.5" y="253.5" width="17" height="28" stroke="#FFFFFF" stroke-width="1" fill="#7cb5ec" rx="0" ry="0">
			</rect>
			<rect x="326.5" y="197.5" width="17" height="84" stroke="#FFFFFF" stroke-width="1" fill="#7cb5ec" rx="0" ry="0">
			</rect>
			<rect x="427.5" y="169.5" width="17" height="112" stroke="#FFFFFF" stroke-width="1" fill="#7cb5ec" rx="0" ry="0">
			</rect>
		</g>
		<g class="highcharts-markers highcharts-series-0" transform="translate(67,46) scale(1 1)" clip-path="none">
		</g>
		<g class="highcharts-series highcharts-series-1 highcharts-tracker" transform="translate(67,46) scale(1 1)" style="" clip-path="url(#highcharts-1)">
			<rect x="42.5" y="225.5" width="17" height="56" stroke="#FFFFFF" stroke-width="1" fill="#434348" rx="0" ry="0">
			</rect>
			<rect x="143.5" y="197.5" width="17" height="84" stroke="#FFFFFF" stroke-width="1" fill="#434348" rx="0" ry="0">
			</rect>
			<rect x="244.5" y="141.5" width="17" height="140" stroke="#FFFFFF" stroke-width="1" fill="#434348" rx="0" ry="0">
			</rect>
			<rect x="346.5" y="84.5" width="17" height="197" stroke="#FFFFFF" stroke-width="1" fill="#434348" rx="0" ry="0">
			</rect>
			<rect x="447.5" y="112.5" width="17" height="169" stroke="#FFFFFF" stroke-width="1" fill="#434348" rx="0" ry="0">
			</rect>
		</g>
		<g class="highcharts-markers highcharts-series-1" transform="translate(67,46) scale(1 1)" clip-path="none">
		</g>
		<g class="highcharts-series highcharts-series-2 highcharts-tracker" transform="translate(67,46) scale(1 1)" style="" clip-path="url(#highcharts-1)">
			<rect x="62.5" y="169.5" width="17" height="112" stroke="#FFFFFF" stroke-width="1" fill="#90ed7d" rx="0" ry="0">
			</rect>
			<rect x="163.5" y="197.5" width="17" height="84" stroke="#FFFFFF" stroke-width="1" fill="#90ed7d" rx="0" ry="0">
			</rect>
			<rect x="265.5" y="197.5" width="17" height="84" stroke="#FFFFFF" stroke-width="1" fill="#90ed7d" rx="0" ry="0">
			</rect>
			<rect x="366.5" y="28.5" width="17" height="253" stroke="#FFFFFF" stroke-width="1" fill="#90ed7d" rx="0" ry="0">
			</rect>
			<rect x="467.5" y="281.5" width="17" height="0" stroke="#FFFFFF" stroke-width="1" fill="#90ed7d" rx="0" ry="0">
			</rect>
		</g>
		<g class="highcharts-markers highcharts-series-2" transform="translate(67,46) scale(1 1)" clip-path="none">
		</g>
		<g class="highcharts-series highcharts-series-3" transform="translate(67,46) scale(1 1)" clip-path="url(#highcharts-1)">
			<path fill="none" d="M 50.7 196.7 C 50.7 196.7 111.5 205.9 152.1 205.9 C 192.6 205.9 212.9 205.9 253.5 196.7 C 294.0 187.4 314.3 103.1 354.9 103.1 C 395.4 103.1 456.3 187.4 456.3 187.4" stroke="#f7a35c" stroke-width="2" stroke-linejoin="round" stroke-linecap="round">
			</path>
			<path fill="none" d="M 40.7 196.7 L 50.7 196.7 C 50.7 196.7 111.5 205.9 152.1 205.9 C 192.6 205.9 212.9 205.9 253.5 196.7 C 294.0 187.4 314.3 103.1 354.9 103.1 C 395.4 103.1 456.3 187.4 456.3 187.4 L 466.3 187.4" stroke-linejoin="round" visibility="visible" stroke="rgb(192,192,192)" stroke-opacity="0.0" stroke-width="22" class=" highcharts-tracker" style="">
			</path>
		</g>
		<g class="highcharts-markers highcharts-series-3 highcharts-tracker" transform="translate(67,46) scale(1 1)" style="" clip-path="none">
			<path fill="white" d="M 456 183.4 C 461.3 183.4 461.3 191.4 456 191.4 C 450.6 191.4 450.6 183.4 456 183.4 Z" stroke="#f7a35c" stroke-width="2">
			</path>
			<path fill="white" d="M 354 99.1 C 359.3 99.1 359.3 107.1 354 107.1 C 348.6 107.1 348.6 99.1 354 99.1 Z" stroke="#f7a35c" stroke-width="2">
			</path>
			<path fill="white" d="M 253 192.7 C 258.3 192.7 258.3 200.7 253 200.7 C 247.6 200.7 247.6 192.7 253 192.7 Z" stroke="#f7a35c" stroke-width="2">
			</path>
			<path fill="white" d="M 152 201.9 C 157.3 201.9 157.3 209.9 152 209.9 C 146.6 209.9 146.6 201.9 152 201.9 Z" stroke="#f7a35c" stroke-width="2">
			</path>
			<path fill="white" d="M 50 192.7 C 55.3 192.7 55.3 200.7 50 200.7 C 44.6 200.7 44.6 192.7 50 192.7 Z" stroke="#f7a35c" stroke-width="2">
			</path>
		</g>
		<g class="highcharts-series highcharts-series-4 highcharts-tracker" transform="translate(67,46) scale(1 1)" style="">
			<path fill="#7cb5ec" d="M 119.9 50.0 A 50 50 0 0 1 169.8 95.6 L 120 100 A 0 0 0 0 0 120 100 Z" stroke="#FFFFFF" stroke-width="1" stroke-linejoin="round" transform="translate(0,0)">
			</path>
			<path fill="#434348" d="M 169.8 95.7 A 50 50 0 0 1 78.7 128.2 L 120 100 A 0 0 0 0 0 120 100 Z" stroke="#FFFFFF" stroke-width="1" stroke-linejoin="round" transform="translate(0,0)">
			</path>
			<path fill="#90ed7d" d="M 78.7 128.2 A 50 50 0 0 1 119.9 50.0 L 120 100 A 0 0 0 0 0 120 100 Z" stroke="#FFFFFF" stroke-width="1" stroke-linejoin="round" transform="translate(0,0)">
			</path>
		</g>
		<g class="highcharts-markers highcharts-series-4" transform="translate(67,46) scale(1 1)">
		</g>
	</g>
	<text x="292" text-anchor="middle" class="highcharts-title" style="color:#333333;font-size:18px;fill:#333333;width:520px;" y="24">
		<tspan>Combination chart
		</tspan>
	</text>
	<g class="highcharts-legend" transform="translate(149,360)">
		<g>
			<g>
				<g class="highcharts-legend-item" transform="translate(8,3)">
					<text x="21" style="color:#333333;font-size:12px;font-weight:bold;cursor:pointer;fill:#333333;" text-anchor="start" y="15">Jane
					</text>
					<rect x="0" y="4" width="16" height="12" fill="#7cb5ec">
					</rect>
				</g>
				<g class="highcharts-legend-item" transform="translate(75.9,3)">
					<text x="21" y="15" style="color:#333333;font-size:12px;font-weight:bold;cursor:pointer;fill:#333333;" text-anchor="start">John
					</text>
					<rect x="0" y="4" width="16" height="12" fill="#434348">
					</rect>
				</g>
				<g class="highcharts-legend-item" transform="translate(145.3,3)">
					<text x="21" y="15" style="color:#333333;font-size:12px;font-weight:bold;cursor:pointer;fill:#333333;" text-anchor="start">Joe
					</text>
					<rect x="0" y="4" width="16" height="12" fill="#90ed7d">
					</rect>
				</g>
				<g class="highcharts-legend-item" transform="translate(206.0,3)">
					<path fill="none" d="M 0 11 L 16 11" stroke="#f7a35c" stroke-width="2">
					</path>
					<path fill="white" d="M 8 7 C 13.3 7 13.3 15 8 15 C 2.6 15 2.6 7 8 7 Z" stroke="#f7a35c" stroke-width="2">
					</path>
					<text x="21" y="15" style="color:#333333;font-size:12px;font-weight:bold;cursor:pointer;fill:#333333;" text-anchor="start">Average
					</text>
				</g>
			</g>
		</g>
	</g>
	<g class="highcharts-axis-labels highcharts-xaxis-labels">
		<text x="117.7" style="color:#606060;cursor:default;font-size:11px;fill:#606060;width:91px;text-overflow:clip;" text-anchor="middle" transform="translate(0,0)" y="346" opacity="1">Apples
		</text>
		<text x="219.1" style="color:#606060;cursor:default;font-size:11px;fill:#606060;width:91px;text-overflow:clip;" text-anchor="middle" transform="translate(0,0)" y="346" opacity="1">Oranges
		</text>
		<text x="320.5" style="color:#606060;cursor:default;font-size:11px;fill:#606060;width:91px;text-overflow:clip;" text-anchor="middle" transform="translate(0,0)" y="346" opacity="1">Pears
		</text>
		<text x="421.9" style="color:#606060;cursor:default;font-size:11px;fill:#606060;width:91px;text-overflow:clip;" text-anchor="middle" transform="translate(0,0)" y="346" opacity="1">Bananas
		</text>
		<text x="523.3" style="color:#606060;cursor:default;font-size:11px;fill:#606060;width:91px;text-overflow:clip;" text-anchor="middle" transform="translate(0,0)" y="346" opacity="1">Plums
		</text>
	</g>
	<g class="highcharts-axis-labels highcharts-yaxis-labels">
		<text x="52" style="color:#606060;cursor:default;font-size:11px;fill:#606060;width:183px;text-overflow:clip;" text-anchor="end" transform="translate(0,0)" y="332" opacity="1">0
		</text>
		<text x="52" style="color:#606060;cursor:default;font-size:11px;fill:#606060;width:183px;text-overflow:clip;" text-anchor="end" transform="translate(0,0)" y="261" opacity="1">2.5
		</text>
		<text x="52" style="color:#606060;cursor:default;font-size:11px;fill:#606060;width:183px;text-overflow:clip;" text-anchor="end" transform="translate(0,0)" y="191" opacity="1">5
		</text>
		<text x="52" style="color:#606060;cursor:default;font-size:11px;fill:#606060;width:183px;text-overflow:clip;" text-anchor="end" transform="translate(0,0)" y="121" opacity="1">7.5
		</text>
		<text x="52" style="color:#606060;cursor:default;font-size:11px;fill:#606060;width:183px;text-overflow:clip;" text-anchor="end" transform="translate(0,0)" y="51" opacity="1">10
		</text>
	</g>
	<g class="highcharts-tooltip" style="cursor:default;padding:0;pointer-events:none;white-space:nowrap;" transform="translate(0,-9999)">
		<path fill="none" d="M 3.5 0.5 L 13.5 0.5 C 16.5 0.5 16.5 0.5 16.5 3.5 L 16.5 13.5 C 16.5 16.5 16.5 16.5 13.5 16.5 L 3.5 16.5 C 0.5 16.5 0.5 16.5 0.5 13.5 L 0.5 3.5 C 0.5 0.5 0.5 0.5 3.5 0.5"  stroke="black" stroke-opacity="0.0" stroke-width="5" transform="translate(1, 1)">
		</path>
		<path fill="none" d="M 3.5 0.5 L 13.5 0.5 C 16.5 0.5 16.5 0.5 16.5 3.5 L 16.5 13.5 C 16.5 16.5 16.5 16.5 13.5 16.5 L 3.5 16.5 C 0.5 16.5 0.5 16.5 0.5 13.5 L 0.5 3.5 C 0.5 0.5 0.5 0.5 3.5 0.5"  stroke="black" stroke-opacity="0.0" stroke-width="3" transform="translate(1, 1)">
		</path>
		<path fill="none" d="M 3.5 0.5 L 13.5 0.5 C 16.5 0.5 16.5 0.5 16.5 3.5 L 16.5 13.5 C 16.5 16.5 16.5 16.5 13.5 16.5 L 3.5 16.5 C 0.5 16.5 0.5 16.5 0.5 13.5 L 0.5 3.5 C 0.5 0.5 0.5 0.5 3.5 0.5"  stroke="black" stroke-opacity="0.1" stroke-width="1" transform="translate(1, 1)">
		</path>
		<path fill="rgb(249, 249, 249)" fill-opacity=" .85" d="M 3.5 0.5 L 13.5 0.5 C 16.5 0.5 16.5 0.5 16.5 3.5 L 16.5 13.5 C 16.5 16.5 16.5 16.5 13.5 16.5 L 3.5 16.5 C 0.5 16.5 0.5 16.5 0.5 13.5 L 0.5 3.5 C 0.5 0.5 0.5 0.5 3.5 0.5">
		</path>
		<text x="8" style="font-size:12px;color:#333333;fill:#333333;" y="20">
		</text>
	</g>
</svg>