
<svg version="1.1" style="font-family:&quot;lucida grande&quot;, &quot;lucida sans unicode&quot;, arial, helvetica, sans-serif;font-size:12px;" xmlns="http://www.w3.org/2000/svg" viewBox="0 0 584 400">
	<desc>Created with Highcharts 4.2.4
	</desc>
	<defs>
		<clipPath id="highcharts-1">
			<rect x="0" y="0" width="501" height="318">
			</rect>
		</clipPath>
	</defs>
	<rect x="0" y="0" width="584" height="400" fill="#FFFFFF" class=" highcharts-background">
	</rect>
	<path fill="none" d="M 73 364.5 L 574 364.5" stroke="#808080" stroke-width="1">
	</path>
	<g class="highcharts-grid">
	</g>
	<g class="highcharts-grid">
		<path fill="none" d="M 73 364.5 L 574 364.5" stroke="#D8D8D8" stroke-width="1" opacity="1">
		</path>
		<path fill="none" d="M 73 300.5 L 574 300.5" stroke="#D8D8D8" stroke-width="1" opacity="1">
		</path>
		<path fill="none" d="M 73 237.5 L 574 237.5" stroke="#D8D8D8" stroke-width="1" opacity="1">
		</path>
		<path fill="none" d="M 73 173.5 L 574 173.5" stroke="#D8D8D8" stroke-width="1" opacity="1">
		</path>
		<path fill="none" d="M 73 110.5 L 574 110.5" stroke="#D8D8D8" stroke-width="1" opacity="1">
		</path>
		<path fill="none" d="M 73 45.5 L 574 45.5" stroke="#D8D8D8" stroke-width="1" opacity="1">
		</path>
	</g>
	<g class="highcharts-axis">
		<path fill="none" d="M 189.5 364 L 189.5 374" stroke="#C0D0E0" stroke-width="1" opacity="1">
		</path>
		<path fill="none" d="M 318.5 364 L 318.5 374" stroke="#C0D0E0" stroke-width="1" opacity="1">
		</path>
		<path fill="none" d="M 447.5 364 L 447.5 374" stroke="#C0D0E0" stroke-width="1" opacity="1">
		</path>
		<path fill="none" d="M 73 364.5 L 574 364.5" stroke="#C0D0E0" stroke-width="1">
		</path>
	</g>
	<g class="highcharts-axis">
		<text x="23.6" text-anchor="middle" transform="translate(0,0) rotate(270 23.6 205)" class=" highcharts-yaxis-title" style="color:#707070;fill:#707070;" y="205">Value
		</text>
	</g>
	<g class="highcharts-series-group">
		<g class="highcharts-series highcharts-series-0" transform="translate(73,46) scale(1 1)" clip-path="url(#highcharts-1)">
			<path fill="none" d="M 4.9 170.0 C 4.9 170.0 20.4 255.0 30.7 255.0 C 41.1 255.0 46.2 153.9 56.6 153.9 C 66.9 153.9 72.1 315.5 82.4 315.5 C 92.8 315.5 97.9 304.1 108.3 269.4 C 118.6 234.6 123.8 173.9 134.1 141.8 C 144.5 109.7 149.6 113.1 160.0 108.8 C 170.3 104.5 175.5 104.5 185.8 104.5 C 196.2 104.5 201.3 114.2 211.7 140.8 C 222.0 167.5 227.2 237.7 237.5 237.7 C 247.9 237.7 253.0 237.7 263.4 237.1 C 273.7 236.6 278.9 121.9 289.2 121.9 C 299.6 121.9 304.7 256.4 315.1 268.3 C 325.4 280.2 330.6 280.2 340.9 280.2 C 351.3 280.2 356.4 118.4 366.8 118.4 C 377.1 118.4 382.3 299.4 392.6 299.4 C 403.0 299.4 408.1 105.1 418.5 105.1 C 428.8 105.1 434.0 137.9 444.3 137.9 C 454.7 137.9 459.8 74.0 470.2 74.0 C 480.5 74.0 496.0 289.4 496.0 289.4" stroke="#7cb5ec" stroke-width="2" stroke-linejoin="round" stroke-linecap="round">
			</path>
			<path fill="none" d="M -5.0 170.0 L 4.9 170.0 C 4.9 170.0 20.4 255.0 30.7 255.0 C 41.1 255.0 46.2 153.9 56.6 153.9 C 66.9 153.9 72.1 315.5 82.4 315.5 C 92.8 315.5 97.9 304.1 108.3 269.4 C 118.6 234.6 123.8 173.9 134.1 141.8 C 144.5 109.7 149.6 113.1 160.0 108.8 C 170.3 104.5 175.5 104.5 185.8 104.5 C 196.2 104.5 201.3 114.2 211.7 140.8 C 222.0 167.5 227.2 237.7 237.5 237.7 C 247.9 237.7 253.0 237.7 263.4 237.1 C 273.7 236.6 278.9 121.9 289.2 121.9 C 299.6 121.9 304.7 256.4 315.1 268.3 C 325.4 280.2 330.6 280.2 340.9 280.2 C 351.3 280.2 356.4 118.4 366.8 118.4 C 377.1 118.4 382.3 299.4 392.6 299.4 C 403.0 299.4 408.1 105.1 418.5 105.1 C 428.8 105.1 434.0 137.9 444.3 137.9 C 454.7 137.9 459.8 74.0 470.2 74.0 C 480.5 74.0 496.0 289.4 496.0 289.4 L 506.0 289.4" stroke-linejoin="round" visibility="visible" stroke="rgb(192,192,192)" stroke-opacity="0.0" stroke-width="22" class=" highcharts-tracker" style="">
			</path>
		</g>
		<g class="highcharts-markers highcharts-series-0 highcharts-tracker" transform="translate(73,46) scale(1 1)" style="" clip-path="none">
			<path fill="#7cb5ec" d="M 496 285.4 C 501.3 285.4 501.3 293.4 496 293.4 C 490.6 293.4 490.6 285.4 496 285.4 Z">
			</path>
			<path fill="#7cb5ec" d="M 470 70.0 C 475.3 70.0 475.3 78.0 470 78.0 C 464.6 78.0 464.6 70.0 470 70.0 Z">
			</path>
			<path fill="#7cb5ec" d="M 444 133.9 C 449.3 133.9 449.3 141.9 444 141.9 C 438.6 141.9 438.6 133.9 444 133.9 Z">
			</path>
			<path fill="#7cb5ec" d="M 418 101.1 C 423.3 101.1 423.3 109.1 418 109.1 C 412.6 109.1 412.6 101.1 418 101.1 Z">
			</path>
			<path fill="#7cb5ec" d="M 392 295.4 C 397.3 295.4 397.3 303.4 392 303.4 C 386.6 303.4 386.6 295.4 392 295.4 Z">
			</path>
			<path fill="#7cb5ec" d="M 366 114.4 C 371.3 114.4 371.3 122.4 366 122.4 C 360.6 122.4 360.6 114.4 366 114.4 Z">
			</path>
			<path fill="#7cb5ec" d="M 340 276.2 C 345.3 276.2 345.3 284.2 340 284.2 C 334.6 284.2 334.6 276.2 340 276.2 Z">
			</path>
			<path fill="#7cb5ec" d="M 315 264.3 C 320.3 264.3 320.3 272.3 315 272.3 C 309.6 272.3 309.6 264.3 315 264.3 Z">
			</path>
			<path fill="#7cb5ec" d="M 289 117.9 C 294.3 117.9 294.3 125.9 289 125.9 C 283.6 125.9 283.6 117.9 289 117.9 Z">
			</path>
			<path fill="#7cb5ec" d="M 263 233.1 C 268.3 233.1 268.3 241.1 263 241.1 C 257.6 241.1 257.6 233.1 263 233.1 Z">
			</path>
			<path fill="#7cb5ec" d="M 237 233.7 C 242.3 233.7 242.3 241.7 237 241.7 C 231.6 241.7 231.6 233.7 237 233.7 Z">
			</path>
			<path fill="#7cb5ec" d="M 211 136.8 C 216.3 136.8 216.3 144.8 211 144.8 C 205.6 144.8 205.6 136.8 211 136.8 Z">
			</path>
			<path fill="#7cb5ec" d="M 185 100.5 C 190.3 100.5 190.3 108.5 185 108.5 C 179.6 108.5 179.6 100.5 185 100.5 Z">
			</path>
			<path fill="#7cb5ec" d="M 160 104.8 C 165.3 104.8 165.3 112.8 160 112.8 C 154.6 112.8 154.6 104.8 160 104.8 Z">
			</path>
			<path fill="#7cb5ec" d="M 134 137.8 C 139.3 137.8 139.3 145.8 134 145.8 C 128.6 145.8 128.6 137.8 134 137.8 Z">
			</path>
			<path fill="#7cb5ec" d="M 108 265.4 C 113.3 265.4 113.3 273.4 108 273.4 C 102.6 273.4 102.6 265.4 108 265.4 Z">
			</path>
			<path fill="#7cb5ec" d="M 82 311.5 C 87.3 311.5 87.3 319.5 82 319.5 C 76.6 319.5 76.6 311.5 82 311.5 Z">
			</path>
			<path fill="#7cb5ec" d="M 56 149.9 C 61.3 149.9 61.3 157.9 56 157.9 C 50.6 157.9 50.6 149.9 56 149.9 Z">
			</path>
			<path fill="#7cb5ec" d="M 30 251.0 C 35.3 251.0 35.3 259.0 30 259.0 C 24.6 259.0 24.6 251.0 30 251.0 Z">
			</path>
			<path fill="#7cb5ec" d="M 4 166.0 C 9.3 166.0 9.3 174.0 4 174.0 C -1.3 174.0 -1.3 166.0 4 166.0 Z">
			</path>
		</g>
	</g>
	<text x="292" text-anchor="middle" class="highcharts-title" style="color:#333333;font-size:18px;fill:#333333;width:520px;" y="24">
		<tspan>Live random data
		</tspan>
	</text>
	<g class="highcharts-axis-labels highcharts-xaxis-labels">
		<text x="189.8" style="color:#606060;cursor:default;font-size:11px;fill:#606060;width:241px;text-overflow:clip;" text-anchor="middle" transform="translate(0,0)" y="383" opacity="1">15:04:55
		</text>
		<text x="319.1" style="color:#606060;cursor:default;font-size:11px;fill:#606060;width:241px;text-overflow:clip;" text-anchor="middle" transform="translate(0,0)" y="383" opacity="1">15:05:00
		</text>
		<text x="448.4" style="color:#606060;cursor:default;font-size:11px;fill:#606060;width:241px;text-overflow:clip;" text-anchor="middle" transform="translate(0,0)" y="383" opacity="1">15:05:05
		</text>
	</g>
	<g class="highcharts-axis-labels highcharts-yaxis-labels">
		<text x="58" style="color:#606060;cursor:default;font-size:11px;fill:#606060;width:183px;text-overflow:clip;" text-anchor="end" transform="translate(0,0)" y="369" opacity="1">0
		</text>
		<text x="58" style="color:#606060;cursor:default;font-size:11px;fill:#606060;width:183px;text-overflow:clip;" text-anchor="end" transform="translate(0,0)" y="305" opacity="1">0.2
		</text>
		<text x="58" style="color:#606060;cursor:default;font-size:11px;fill:#606060;width:183px;text-overflow:clip;" text-anchor="end" transform="translate(0,0)" y="241" opacity="1">0.5
		</text>
		<text x="58" style="color:#606060;cursor:default;font-size:11px;fill:#606060;width:183px;text-overflow:clip;" text-anchor="end" transform="translate(0,0)" y="178" opacity="1">0.7
		</text>
		<text x="58" style="color:#606060;cursor:default;font-size:11px;fill:#606060;width:183px;text-overflow:clip;" text-anchor="end" transform="translate(0,0)" y="114" opacity="1">1
		</text>
		<text x="58" style="color:#606060;cursor:default;font-size:11px;fill:#606060;width:183px;text-overflow:clip;" text-anchor="end" transform="translate(0,0)" y="51" opacity="1">1.2
		</text>
	</g>
	<g class="highcharts-tooltip" style="cursor:default;padding:0;pointer-events:none;white-space:nowrap;" transform="translate(0,-9999)">
		<path fill="none" d="M 3.5 0.5 L 13.5 0.5 C 16.5 0.5 16.5 0.5 16.5 3.5 L 16.5 13.5 C 16.5 16.5 16.5 16.5 13.5 16.5 L 3.5 16.5 C 0.5 16.5 0.5 16.5 0.5 13.5 L 0.5 3.5 C 0.5 0.5 0.5 0.5 3.5 0.5"  stroke="black" stroke-opacity="0.0" stroke-width="5" transform="translate(1, 1)">
		</path>
		<path fill="none" d="M 3.5 0.5 L 13.5 0.5 C 16.5 0.5 16.5 0.5 16.5 3.5 L 16.5 13.5 C 16.5 16.5 16.5 16.5 13.5 16.5 L 3.5 16.5 C 0.5 16.5 0.5 16.5 0.5 13.5 L 0.5 3.5 C 0.5 0.5 0.5 0.5 3.5 0.5"  stroke="black" stroke-opacity="0.0" stroke-width="3" transform="translate(1, 1)">
		</path>
		<path fill="none" d="M 3.5 0.5 L 13.5 0.5 C 16.5 0.5 16.5 0.5 16.5 3.5 L 16.5 13.5 C 16.5 16.5 16.5 16.5 13.5 16.5 L 3.5 16.5 C 0.5 16.5 0.5 16.5 0.5 13.5 L 0.5 3.5 C 0.5 0.5 0.5 0.5 3.5 0.5"  stroke="black" stroke-opacity="0.1" stroke-width="1" transform="translate(1, 1)">
		</path>
		<path fill="rgb(249, 249, 249)" fill-opacity=" .85" d="M 3.5 0.5 L 13.5 0.5 C 16.5 0.5 16.5 0.5 16.5 3.5 L 16.5 13.5 C 16.5 16.5 16.5 16.5 13.5 16.5 L 3.5 16.5 C 0.5 16.5 0.5 16.5 0.5 13.5 L 0.5 3.5 C 0.5 0.5 0.5 0.5 3.5 0.5">
		</path>
		<text x="8" style="font-size:12px;color:#333333;fill:#333333;" y="20">
		</text>
	</g>
</svg>