
<svg version="1.1" style="font-family:&quot;lucida grande&quot;, &quot;lucida sans unicode&quot;, arial, helvetica, sans-serif;font-size:12px;" xmlns="http://www.w3.org/2000/svg" viewBox="0 0 584 400">
	<desc>Created with Highcharts 4.2.4
	</desc>
	<defs>
		<clipPath id="highcharts-1">
			<rect x="0" y="0" width="501" height="303">
			</rect>
		</clipPath>
		<linearGradient x1="0" y1="0" x2="0" y2="1" id="highcharts-2">
			<stop offset="0" stop-color="#7cb5ec" stop-opacity="1">
			</stop>
			<stop offset="1" stop-color="rgb(124,181,236)" stop-opacity="0">
			</stop>
		</linearGradient>
	</defs>
	<rect x="0" y="0" width="584" height="400" fill="#FFFFFF" class=" highcharts-background">
	</rect>
	<g class="highcharts-grid">
	</g>
	<g class="highcharts-grid">
		<path fill="none" d="M 73 364.5 L 574 364.5" stroke="#D8D8D8" stroke-width="1" opacity="1">
		</path>
		<path fill="none" d="M 73 313.5 L 574 313.5" stroke="#D8D8D8" stroke-width="1" opacity="1">
		</path>
		<path fill="none" d="M 73 263.5 L 574 263.5" stroke="#D8D8D8" stroke-width="1" opacity="1">
		</path>
		<path fill="none" d="M 73 213.5 L 574 213.5" stroke="#D8D8D8" stroke-width="1" opacity="1">
		</path>
		<path fill="none" d="M 73 162.5 L 574 162.5" stroke="#D8D8D8" stroke-width="1" opacity="1">
		</path>
		<path fill="none" d="M 73 112.5 L 574 112.5" stroke="#D8D8D8" stroke-width="1" opacity="1">
		</path>
		<path fill="none" d="M 73 60.5 L 574 60.5" stroke="#D8D8D8" stroke-width="1" opacity="1">
		</path>
	</g>
	<g class="highcharts-axis">
		<path fill="none" d="M 96.5 364 L 96.5 374" stroke="#C0D0E0" stroke-width="1" opacity="1">
		</path>
		<path fill="none" d="M 215.5 364 L 215.5 374" stroke="#C0D0E0" stroke-width="1" opacity="1">
		</path>
		<path fill="none" d="M 332.5 364 L 332.5 374" stroke="#C0D0E0" stroke-width="1" opacity="1">
		</path>
		<path fill="none" d="M 451.5 364 L 451.5 374" stroke="#C0D0E0" stroke-width="1" opacity="1">
		</path>
		<path fill="none" d="M 569.5 364 L 569.5 374" stroke="#C0D0E0" stroke-width="1" opacity="1">
		</path>
		<path fill="none" d="M 73 364.5 L 574 364.5" stroke="#C0D0E0" stroke-width="1">
		</path>
	</g>
	<g class="highcharts-axis">
		<text x="23.6" text-anchor="middle" transform="translate(0,0) rotate(270 23.6 212.5)" class=" highcharts-yaxis-title" style="color:#707070;fill:#707070;" y="212.5">
			<tspan>Exchange rate
			</tspan>
		</text>
	</g>
	<g class="highcharts-series-group">
		<g class="highcharts-series highcharts-series-0" transform="translate(73,61) scale(1 1)" clip-path="url(#highcharts-1)">
			<path fill="url(#highcharts-2)" d="M 4.9 232.8 L 5.5 237.5 L 6.2 237.8 L 6.8 238.5 L 7.5 247.5 L 8.1 246.2 L 9.4 245.0 L 10.0 248.1 L 10.7 251.4 L 11.3 252.7 L 12.0 254.8 L 12.6 253.3 L 13.9 253.8 L 14.6 254.5 L 15.2 255.9 L 15.9 250.3 L 16.5 246.0 L 17.2 240.2 L 18.5 239.3 L 19.1 240.0 L 19.8 237.9 L 20.4 233.8 L 21.1 235.2 L 21.7 233.6 L 23.0 233.6 L 23.7 236.9 L 24.3 231.7 L 24.9 233.6 L 25.6 227.8 L 26.2 222.9 L 27.5 221.7 L 28.2 225.2 L 28.8 219.7 L 29.5 231.7 L 30.1 238.8 L 30.8 237.1 L 32.1 236.7 L 32.7 236.8 L 33.4 242.6 L 34.0 240.4 L 34.7 239.5 L 35.3 241.4 L 36.6 242.5 L 37.3 244.0 L 37.9 246.2 L 38.6 244.9 L 39.2 249.3 L 39.9 249.4 L 41.1 249.8 L 41.8 248.4 L 42.4 248.4 L 43.1 250.6 L 43.7 245.3 L 44.4 249.5 L 45.7 249.2 L 46.3 248.2 L 47.0 250.9 L 47.6 252.7 L 48.3 255.2 L 48.9 253.1 L 50.2 252.8 L 50.9 250.5 L 51.5 248.4 L 52.2 248.1 L 52.8 253.3 L 53.5 252.2 L 54.8 252.1 L 55.4 252.6 L 56.1 257.2 L 56.7 253.8 L 57.3 253.8 L 58.0 255.3 L 59.3 255.4 L 59.9 254.5 L 60.6 255.8 L 61.2 252.8 L 61.9 247.2 L 62.5 246.2 L 63.8 245.2 L 64.5 244.3 L 65.1 243.1 L 65.8 245.3 L 66.4 240.1 L 67.1 243.6 L 68.4 243.3 L 69.0 248.0 L 69.7 248.7 L 70.3 251.2 L 71.0 250.5 L 71.6 250.2 L 72.9 253.9 L 73.5 252.4 L 74.2 253.9 L 74.8 263.0 L 75.5 263.5 L 76.1 263.2 L 77.4 263.7 L 78.1 261.4 L 78.7 260.3 L 79.4 263.3 L 80.0 261.2 L 80.7 263.0 L 82.0 261.5 L 82.6 263.3 L 83.3 263.3 L 83.9 266.1 L 84.6 268.3 L 85.2 265.0 L 86.5 265.6 L 87.2 266.4 L 87.8 265.8 L 88.5 263.3 L 89.1 262.9 L 89.7 264.1 L 91.0 264.9 L 91.7 265.2 L 92.3 263.1 L 93.0 263.7 L 93.6 271.4 L 94.3 271.9 L 95.6 271.7 L 96.2 271.8 L 96.9 277.1 L 97.5 276.9 L 98.2 278.0 L 98.8 278.3 L 100.1 278.3 L 100.8 277.2 L 101.4 275.2 L 102.1 274.7 L 102.7 266.5 L 103.4 261.0 L 104.7 261.4 L 105.3 262.7 L 105.9 260.4 L 106.6 262.5 L 107.2 257.3 L 107.9 254.6 L 109.2 253.3 L 109.8 256.5 L 110.5 258.3 L 111.1 261.0 L 111.8 259.6 L 112.4 261.5 L 113.7 260.8 L 114.4 262.0 L 115.0 264.0 L 115.7 258.4 L 116.3 260.7 L 117.0 265.0 L 118.3 264.7 L 118.9 262.7 L 119.6 265.7 L 120.2 266.1 L 120.9 267.6 L 121.5 266.8 L 122.8 266.4 L 123.4 264.1 L 124.1 266.7 L 124.7 266.9 L 125.4 270.9 L 126.0 273.0 L 127.3 273.1 L 128.0 274.8 L 128.6 276.0 L 129.3 277.3 L 129.9 275.7 L 130.6 275.1 L 131.9 274.9 L 132.5 276.0 L 133.2 276.4 L 133.8 271.9 L 134.5 270.7 L 135.1 271.1 L 136.4 271.5 L 137.1 272.5 L 137.7 271.8 L 138.3 271.6 L 139.0 272.2 L 139.6 275.0 L 140.9 275.5 L 141.6 278.3 L 142.2 275.2 L 142.9 275.6 L 143.5 271.2 L 144.2 266.7 L 145.5 267.1 L 146.1 268.8 L 146.8 268.1 L 147.4 266.0 L 148.1 267.7 L 148.7 271.0 L 150.0 271.1 L 150.7 271.1 L 151.3 271.6 L 152.0 267.6 L 152.6 268.5 L 153.3 264.1 L 154.5 263.4 L 155.2 264.7 L 155.8 265.3 L 156.5 264.5 L 157.1 272.5 L 157.8 271.5 L 159.1 272.0 L 159.7 271.2 L 160.4 271.0 L 161.0 270.7 L 161.7 264.9 L 162.3 261.0 L 163.6 261.1 L 164.3 263.3 L 164.9 262.9 L 165.6 263.7 L 166.2 266.8 L 166.9 269.2 L 168.2 268.3 L 168.8 269.8 L 169.5 269.4 L 170.1 267.0 L 170.7 271.7 L 171.4 272.2 L 172.7 272.7 L 173.3 273.2 L 174.0 275.9 L 174.6 274.6 L 175.3 273.8 L 175.9 274.9 L 177.2 274.7 L 177.9 274.7 L 178.5 275.2 L 179.2 272.0 L 179.8 273.2 L 180.5 278.2 L 181.8 276.8 L 182.4 274.7 L 183.1 275.1 L 183.7 274.5 L 184.4 281.2 L 185.0 282.1 L 186.3 282.1 L 186.9 282.0 L 187.6 281.1 L 188.2 283.6 L 188.9 281.7 L 189.5 284.1 L 190.8 284.0 L 191.5 284.5 L 192.1 285.1 L 192.8 279.8 L 193.4 276.9 L 194.1 277.8 L 195.4 278.0 L 196.0 280.1 L 196.7 279.5 L 197.3 277.2 L 198.0 274.9 L 198.6 275.6 L 199.9 275.5 L 200.6 276.6 L 201.2 277.7 L 201.9 276.3 L 202.5 273.8 L 203.1 272.9 L 204.4 272.9 L 205.1 274.9 L 205.7 277.9 L 206.4 280.9 L 207.0 282.7 L 207.7 282.5 L 209.0 280.5 L 209.6 279.1 L 210.3 278.8 L 210.9 278.9 L 211.6 278.9 L 212.2 278.9 L 213.5 278.8 L 214.2 277.7 L 214.8 278.3 L 215.5 278.9 L 216.1 279.8 L 216.8 279.8 L 218.1 280.1 L 218.7 280.7 L 219.3 278.7 L 220.0 281.6 L 220.6 281.7 L 221.3 281.8 L 222.6 281.8 L 223.2 282.0 L 223.9 284.8 L 224.5 284.0 L 225.2 280.2 L 225.8 275.9 L 227.1 276.0 L 227.8 275.8 L 228.4 273.0 L 229.1 273.6 L 229.7 273.3 L 230.4 272.4 L 231.7 272.9 L 232.3 273.2 L 233.0 272.9 L 233.6 271.9 L 234.3 270.3 L 234.9 269.1 L 236.2 268.8 L 236.8 269.7 L 237.5 269.1 L 238.1 266.8 L 238.8 267.5 L 239.4 268.9 L 240.7 268.8 L 241.4 267.1 L 242.0 268.8 L 242.7 267.3 L 243.3 270.5 L 244.0 269.6 L 245.3 269.9 L 245.9 267.0 L 246.6 264.5 L 247.2 263.7 L 247.9 264.7 L 248.5 264.2 L 249.8 263.8 L 250.5 265.9 L 251.1 264.4 L 251.7 267.0 L 252.4 267.7 L 253.0 267.3 L 254.3 266.9 L 255.0 267.6 L 255.6 267.6 L 256.3 268.9 L 256.9 267.9 L 257.6 269.9 L 258.9 269.6 L 259.5 272.2 L 260.2 271.6 L 260.8 270.6 L 261.5 267.9 L 262.1 267.0 L 263.4 266.6 L 264.1 267.6 L 264.7 268.0 L 265.4 269.7 L 266.0 267.8 L 266.6 267.7 L 267.9 267.4 L 268.6 268.4 L 269.2 265.7 L 269.9 263.3 L 270.5 263.4 L 271.2 263.2 L 272.5 263.6 L 273.1 263.1 L 273.8 259.8 L 274.4 259.8 L 275.1 259.7 L 275.7 257.9 L 277.0 257.8 L 277.7 258.5 L 278.3 256.7 L 279.0 256.1 L 279.6 255.6 L 280.3 257.9 L 281.6 257.8 L 282.2 257.5 L 282.8 254.8 L 283.5 255.3 L 284.1 254.2 L 284.8 256.8 L 286.1 256.5 L 286.7 255.5 L 287.4 254.5 L 288.0 254.3 L 288.7 254.3 L 289.3 256.2 L 290.6 255.6 L 291.3 254.2 L 291.9 251.6 L 292.6 248.3 L 293.2 249.5 L 293.9 247.3 L 295.2 244.7 L 295.8 244.4 L 296.5 243.1 L 297.1 244.4 L 297.8 243.9 L 298.4 240.9 L 299.7 240.5 L 300.3 240.5 L 301.0 240.9 L 301.6 241.9 L 302.3 229.7 L 302.9 230.0 L 304.2 230.1 L 304.9 226.9 L 305.5 229.2 L 306.2 228.0 L 306.8 228.6 L 307.5 230.9 L 308.8 230.5 L 309.4 229.5 L 310.1 230.6 L 310.7 225.0 L 311.4 228.3 L 312.0 222.8 L 313.3 223.4 L 314.0 224.0 L 314.6 223.8 L 315.2 219.7 L 315.9 217.8 L 316.5 213.7 L 317.8 213.0 L 318.5 213.8 L 319.1 210.4 L 319.8 209.8 L 320.4 212.8 L 321.1 203.1 L 322.4 202.8 L 323.0 211.7 L 323.7 212.8 L 324.3 216.8 L 325.0 214.1 L 325.6 210.1 L 326.9 210.8 L 327.6 217.9 L 328.2 212.0 L 328.9 223.2 L 329.5 221.5 L 330.2 218.6 L 331.4 217.7 L 332.1 220.8 L 332.7 215.7 L 333.4 211.5 L 334.0 211.3 L 334.7 212.8 L 336.0 213.2 L 336.6 214.6 L 337.3 216.8 L 337.9 210.4 L 338.6 209.1 L 339.2 203.6 L 340.5 202.1 L 341.2 200.7 L 341.8 204.9 L 342.5 201.0 L 343.1 193.8 L 343.8 198.9 L 345.1 199.4 L 345.7 196.8 L 346.4 200.3 L 347.0 197.9 L 347.6 200.4 L 348.3 203.5 L 349.6 203.2 L 350.2 198.7 L 350.9 204.4 L 351.5 205.5 L 352.2 204.5 L 352.8 194.8 L 354.1 193.7 L 354.8 198.2 L 355.4 200.3 L 356.1 202.4 L 356.7 199.7 L 357.4 198.8 L 358.7 197.9 L 359.3 199.9 L 360.0 194.4 L 360.6 189.5 L 361.3 194.1 L 361.9 187.9 L 363.2 188.3 L 363.8 189.9 L 364.5 193.8 L 365.1 198.5 L 365.8 196.2 L 366.4 199.5 L 367.7 199.5 L 368.4 197.9 L 369.0 202.7 L 369.7 191.6 L 370.3 187.9 L 371.0 184.1 L 372.3 183.8 L 372.9 184.2 L 373.6 180.2 L 374.2 181.8 L 374.9 183.6 L 375.5 180.4 L 376.8 179.9 L 377.5 178.8 L 378.1 179.2 L 378.8 175.1 L 379.4 175.5 L 380.0 168.5 L 381.3 164.5 L 382.0 163.6 L 382.6 160.4 L 383.3 156.8 L 383.9 153.5 L 384.6 157.0 L 385.9 159.0 L 386.5 156.4 L 387.2 152.0 L 387.8 153.3 L 388.5 141.6 L 389.1 137.0 L 390.4 136.5 L 391.1 139.6 L 391.7 135.5 L 392.4 140.0 L 393.0 121.4 L 393.7 108.8 L 395.0 102.0 L 395.6 111.3 L 396.2 122.5 L 396.9 115.2 L 397.5 117.7 L 398.2 115.2 L 399.5 116.8 L 400.1 119.4 L 400.8 130.2 L 401.4 119.8 L 402.1 129.9 L 402.7 117.4 L 404.0 117.2 L 404.7 118.0 L 405.3 117.8 L 406.0 118.8 L 406.6 124.2 L 407.3 122.9 L 408.6 123.8 L 409.2 120.4 L 409.9 125.0 L 410.5 123.8 L 411.2 121.4 L 411.8 122.5 L 413.1 122.5 L 413.7 118.7 L 414.4 119.3 L 415.0 121.0 L 415.7 107.9 L 416.3 107.8 L 417.6 105.0 L 418.3 106.9 L 418.9 106.2 L 419.6 98.3 L 420.2 94.3 L 420.9 78.5 L 422.2 78.6 L 422.8 79.3 L 423.5 65.9 L 424.1 52.3 L 424.8 60.2 L 425.4 47.6 L 426.7 46.3 L 427.4 54.3 L 428.0 57.0 L 428.6 80.4 L 429.3 62.5 L 429.9 76.6 L 431.2 77.0 L 431.9 87.3 L 432.5 85.6 L 433.2 89.4 L 433.8 82.0 L 434.5 82.4 L 435.8 82.0 L 436.4 77.6 L 437.1 68.7 L 437.7 71.6 L 438.4 82.0 L 439.0 89.9 L 440.3 91.8 L 441.0 85.4 L 441.6 76.1 L 442.3 73.1 L 442.9 62.4 L 443.6 57.4 L 444.8 57.9 L 445.5 54.2 L 446.1 62.0 L 446.8 64.9 L 447.4 71.4 L 448.1 75.3 L 449.4 75.6 L 450.0 69.4 L 450.7 69.1 L 451.3 68.3 L 452.0 77.1 L 452.6 81.2 L 453.9 80.6 L 454.6 82.4 L 455.2 90.2 L 455.9 102.7 L 456.5 110.1 L 457.2 108.2 L 458.5 106.9 L 459.1 103.8 L 459.8 107.0 L 460.4 120.3 L 461.0 113.5 L 461.7 108.5 L 463.0 107.6 L 463.6 104.6 L 464.3 109.3 L 464.9 120.6 L 465.6 124.8 L 466.2 128.0 L 467.5 127.5 L 468.2 117.3 L 468.8 104.1 L 469.5 99.5 L 470.1 101.1 L 470.8 93.3 L 472.1 91.1 L 472.7 89.8 L 473.4 81.2 L 474.0 83.8 L 474.7 87.5 L 475.3 90.7 L 476.6 88.2 L 477.2 85.7 L 477.9 104.5 L 478.5 114.0 L 479.2 111.3 L 479.8 101.1 L 481.1 100.5 L 481.8 115.4 L 482.4 114.9 L 483.1 118.2 L 483.7 112.9 L 484.4 113.8 L 485.7 109.7 L 486.3 114.9 L 487.0 112.0 L 487.6 119.0 L 488.3 120.9 L 488.9 120.3 L 490.2 121.8 L 490.9 119.3 L 491.5 105.8 L 492.2 108.6 L 492.8 108.5 L 493.4 105.5 L 494.7 89.5 L 495.4 111.0 L 496.0 106.0 L 496.0 303 L 495.4 303 L 494.7 303 L 493.4 303 L 492.8 303 L 492.2 303 L 491.5 303 L 490.9 303 L 490.2 303 L 488.9 303 L 488.3 303 L 487.6 303 L 487.0 303 L 486.3 303 L 485.7 303 L 484.4 303 L 483.7 303 L 483.1 303 L 482.4 303 L 481.8 303 L 481.1 303 L 479.8 303 L 479.2 303 L 478.5 303 L 477.9 303 L 477.2 303 L 476.6 303 L 475.3 303 L 474.7 303 L 474.0 303 L 473.4 303 L 472.7 303 L 472.1 303 L 470.8 303 L 470.1 303 L 469.5 303 L 468.8 303 L 468.2 303 L 467.5 303 L 466.2 303 L 465.6 303 L 464.9 303 L 464.3 303 L 463.6 303 L 463.0 303 L 461.7 303 L 461.0 303 L 460.4 303 L 459.8 303 L 459.1 303 L 458.5 303 L 457.2 303 L 456.5 303 L 455.9 303 L 455.2 303 L 454.6 303 L 453.9 303 L 452.6 303 L 452.0 303 L 451.3 303 L 450.7 303 L 450.0 303 L 449.4 303 L 448.1 303 L 447.4 303 L 446.8 303 L 446.1 303 L 445.5 303 L 444.8 303 L 443.6 303 L 442.9 303 L 442.3 303 L 441.6 303 L 441.0 303 L 440.3 303 L 439.0 303 L 438.4 303 L 437.7 303 L 437.1 303 L 436.4 303 L 435.8 303 L 434.5 303 L 433.8 303 L 433.2 303 L 432.5 303 L 431.9 303 L 431.2 303 L 429.9 303 L 429.3 303 L 428.6 303 L 428.0 303 L 427.4 303 L 426.7 303 L 425.4 303 L 424.8 303 L 424.1 303 L 423.5 303 L 422.8 303 L 422.2 303 L 420.9 303 L 420.2 303 L 419.6 303 L 418.9 303 L 418.3 303 L 417.6 303 L 416.3 303 L 415.7 303 L 415.0 303 L 414.4 303 L 413.7 303 L 413.1 303 L 411.8 303 L 411.2 303 L 410.5 303 L 409.9 303 L 409.2 303 L 408.6 303 L 407.3 303 L 406.6 303 L 406.0 303 L 405.3 303 L 404.7 303 L 404.0 303 L 402.7 303 L 402.1 303 L 401.4 303 L 400.8 303 L 400.1 303 L 399.5 303 L 398.2 303 L 397.5 303 L 396.9 303 L 396.2 303 L 395.6 303 L 395.0 303 L 393.7 303 L 393.0 303 L 392.4 303 L 391.7 303 L 391.1 303 L 390.4 303 L 389.1 303 L 388.5 303 L 387.8 303 L 387.2 303 L 386.5 303 L 385.9 303 L 384.6 303 L 383.9 303 L 383.3 303 L 382.6 303 L 382.0 303 L 381.3 303 L 380.0 303 L 379.4 303 L 378.8 303 L 378.1 303 L 377.5 303 L 376.8 303 L 375.5 303 L 374.9 303 L 374.2 303 L 373.6 303 L 372.9 303 L 372.3 303 L 371.0 303 L 370.3 303 L 369.7 303 L 369.0 303 L 368.4 303 L 367.7 303 L 366.4 303 L 365.8 303 L 365.1 303 L 364.5 303 L 363.8 303 L 363.2 303 L 361.9 303 L 361.3 303 L 360.6 303 L 360.0 303 L 359.3 303 L 358.7 303 L 357.4 303 L 356.7 303 L 356.1 303 L 355.4 303 L 354.8 303 L 354.1 303 L 352.8 303 L 352.2 303 L 351.5 303 L 350.9 303 L 350.2 303 L 349.6 303 L 348.3 303 L 347.6 303 L 347.0 303 L 346.4 303 L 345.7 303 L 345.1 303 L 343.8 303 L 343.1 303 L 342.5 303 L 341.8 303 L 341.2 303 L 340.5 303 L 339.2 303 L 338.6 303 L 337.9 303 L 337.3 303 L 336.6 303 L 336.0 303 L 334.7 303 L 334.0 303 L 333.4 303 L 332.7 303 L 332.1 303 L 331.4 303 L 330.2 303 L 329.5 303 L 328.9 303 L 328.2 303 L 327.6 303 L 326.9 303 L 325.6 303 L 325.0 303 L 324.3 303 L 323.7 303 L 323.0 303 L 322.4 303 L 321.1 303 L 320.4 303 L 319.8 303 L 319.1 303 L 318.5 303 L 317.8 303 L 316.5 303 L 315.9 303 L 315.2 303 L 314.6 303 L 314.0 303 L 313.3 303 L 312.0 303 L 311.4 303 L 310.7 303 L 310.1 303 L 309.4 303 L 308.8 303 L 307.5 303 L 306.8 303 L 306.2 303 L 305.5 303 L 304.9 303 L 304.2 303 L 302.9 303 L 302.3 303 L 301.6 303 L 301.0 303 L 300.3 303 L 299.7 303 L 298.4 303 L 297.8 303 L 297.1 303 L 296.5 303 L 295.8 303 L 295.2 303 L 293.9 303 L 293.2 303 L 292.6 303 L 291.9 303 L 291.3 303 L 290.6 303 L 289.3 303 L 288.7 303 L 288.0 303 L 287.4 303 L 286.7 303 L 286.1 303 L 284.8 303 L 284.1 303 L 283.5 303 L 282.8 303 L 282.2 303 L 281.6 303 L 280.3 303 L 279.6 303 L 279.0 303 L 278.3 303 L 277.7 303 L 277.0 303 L 275.7 303 L 275.1 303 L 274.4 303 L 273.8 303 L 273.1 303 L 272.5 303 L 271.2 303 L 270.5 303 L 269.9 303 L 269.2 303 L 268.6 303 L 267.9 303 L 266.6 303 L 266.0 303 L 265.4 303 L 264.7 303 L 264.1 303 L 263.4 303 L 262.1 303 L 261.5 303 L 260.8 303 L 260.2 303 L 259.5 303 L 258.9 303 L 257.6 303 L 256.9 303 L 256.3 303 L 255.6 303 L 255.0 303 L 254.3 303 L 253.0 303 L 252.4 303 L 251.7 303 L 251.1 303 L 250.5 303 L 249.8 303 L 248.5 303 L 247.9 303 L 247.2 303 L 246.6 303 L 245.9 303 L 245.3 303 L 244.0 303 L 243.3 303 L 242.7 303 L 242.0 303 L 241.4 303 L 240.7 303 L 239.4 303 L 238.8 303 L 238.1 303 L 237.5 303 L 236.8 303 L 236.2 303 L 234.9 303 L 234.3 303 L 233.6 303 L 233.0 303 L 232.3 303 L 231.7 303 L 230.4 303 L 229.7 303 L 229.1 303 L 228.4 303 L 227.8 303 L 227.1 303 L 225.8 303 L 225.2 303 L 224.5 303 L 223.9 303 L 223.2 303 L 222.6 303 L 221.3 303 L 220.6 303 L 220.0 303 L 219.3 303 L 218.7 303 L 218.1 303 L 216.8 303 L 216.1 303 L 215.5 303 L 214.8 303 L 214.2 303 L 213.5 303 L 212.2 303 L 211.6 303 L 210.9 303 L 210.3 303 L 209.6 303 L 209.0 303 L 207.7 303 L 207.0 303 L 206.4 303 L 205.7 303 L 205.1 303 L 204.4 303 L 203.1 303 L 202.5 303 L 201.9 303 L 201.2 303 L 200.6 303 L 199.9 303 L 198.6 303 L 198.0 303 L 197.3 303 L 196.7 303 L 196.0 303 L 195.4 303 L 194.1 303 L 193.4 303 L 192.8 303 L 192.1 303 L 191.5 303 L 190.8 303 L 189.5 303 L 188.9 303 L 188.2 303 L 187.6 303 L 186.9 303 L 186.3 303 L 185.0 303 L 184.4 303 L 183.7 303 L 183.1 303 L 182.4 303 L 181.8 303 L 180.5 303 L 179.8 303 L 179.2 303 L 178.5 303 L 177.9 303 L 177.2 303 L 175.9 303 L 175.3 303 L 174.6 303 L 174.0 303 L 173.3 303 L 172.7 303 L 171.4 303 L 170.7 303 L 170.1 303 L 169.5 303 L 168.8 303 L 168.2 303 L 166.9 303 L 166.2 303 L 165.6 303 L 164.9 303 L 164.3 303 L 163.6 303 L 162.3 303 L 161.7 303 L 161.0 303 L 160.4 303 L 159.7 303 L 159.1 303 L 157.8 303 L 157.1 303 L 156.5 303 L 155.8 303 L 155.2 303 L 154.5 303 L 153.3 303 L 152.6 303 L 152.0 303 L 151.3 303 L 150.7 303 L 150.0 303 L 148.7 303 L 148.1 303 L 147.4 303 L 146.8 303 L 146.1 303 L 145.5 303 L 144.2 303 L 143.5 303 L 142.9 303 L 142.2 303 L 141.6 303 L 140.9 303 L 139.6 303 L 139.0 303 L 138.3 303 L 137.7 303 L 137.1 303 L 136.4 303 L 135.1 303 L 134.5 303 L 133.8 303 L 133.2 303 L 132.5 303 L 131.9 303 L 130.6 303 L 129.9 303 L 129.3 303 L 128.6 303 L 128.0 303 L 127.3 303 L 126.0 303 L 125.4 303 L 124.7 303 L 124.1 303 L 123.4 303 L 122.8 303 L 121.5 303 L 120.9 303 L 120.2 303 L 119.6 303 L 118.9 303 L 118.3 303 L 117.0 303 L 116.3 303 L 115.7 303 L 115.0 303 L 114.4 303 L 113.7 303 L 112.4 303 L 111.8 303 L 111.1 303 L 110.5 303 L 109.8 303 L 109.2 303 L 107.9 303 L 107.2 303 L 106.6 303 L 105.9 303 L 105.3 303 L 104.7 303 L 103.4 303 L 102.7 303 L 102.1 303 L 101.4 303 L 100.8 303 L 100.1 303 L 98.8 303 L 98.2 303 L 97.5 303 L 96.9 303 L 96.2 303 L 95.6 303 L 94.3 303 L 93.6 303 L 93.0 303 L 92.3 303 L 91.7 303 L 91.0 303 L 89.7 303 L 89.1 303 L 88.5 303 L 87.8 303 L 87.2 303 L 86.5 303 L 85.2 303 L 84.6 303 L 83.9 303 L 83.3 303 L 82.6 303 L 82.0 303 L 80.7 303 L 80.0 303 L 79.4 303 L 78.7 303 L 78.1 303 L 77.4 303 L 76.1 303 L 75.5 303 L 74.8 303 L 74.2 303 L 73.5 303 L 72.9 303 L 71.6 303 L 71.0 303 L 70.3 303 L 69.7 303 L 69.0 303 L 68.4 303 L 67.1 303 L 66.4 303 L 65.8 303 L 65.1 303 L 64.5 303 L 63.8 303 L 62.5 303 L 61.9 303 L 61.2 303 L 60.6 303 L 59.9 303 L 59.3 303 L 58.0 303 L 57.3 303 L 56.7 303 L 56.1 303 L 55.4 303 L 54.8 303 L 53.5 303 L 52.8 303 L 52.2 303 L 51.5 303 L 50.9 303 L 50.2 303 L 48.9 303 L 48.3 303 L 47.6 303 L 47.0 303 L 46.3 303 L 45.7 303 L 44.4 303 L 43.7 303 L 43.1 303 L 42.4 303 L 41.8 303 L 41.1 303 L 39.9 303 L 39.2 303 L 38.6 303 L 37.9 303 L 37.3 303 L 36.6 303 L 35.3 303 L 34.7 303 L 34.0 303 L 33.4 303 L 32.7 303 L 32.1 303 L 30.8 303 L 30.1 303 L 29.5 303 L 28.8 303 L 28.2 303 L 27.5 303 L 26.2 303 L 25.6 303 L 24.9 303 L 24.3 303 L 23.7 303 L 23.0 303 L 21.7 303 L 21.1 303 L 20.4 303 L 19.8 303 L 19.1 303 L 18.5 303 L 17.2 303 L 16.5 303 L 15.9 303 L 15.2 303 L 14.6 303 L 13.9 303 L 12.6 303 L 12.0 303 L 11.3 303 L 10.7 303 L 10.0 303 L 9.4 303 L 8.1 303 L 7.5 303 L 6.8 303 L 6.2 303 L 5.5 303 L 4.9 303">
			</path>
			<path fill="none" d="M 4.9 232.8 L 5.5 237.5 L 6.2 237.8 L 6.8 238.5 L 7.5 247.5 L 8.1 246.2 L 9.4 245.0 L 10.0 248.1 L 10.7 251.4 L 11.3 252.7 L 12.0 254.8 L 12.6 253.3 L 13.9 253.8 L 14.6 254.5 L 15.2 255.9 L 15.9 250.3 L 16.5 246.0 L 17.2 240.2 L 18.5 239.3 L 19.1 240.0 L 19.8 237.9 L 20.4 233.8 L 21.1 235.2 L 21.7 233.6 L 23.0 233.6 L 23.7 236.9 L 24.3 231.7 L 24.9 233.6 L 25.6 227.8 L 26.2 222.9 L 27.5 221.7 L 28.2 225.2 L 28.8 219.7 L 29.5 231.7 L 30.1 238.8 L 30.8 237.1 L 32.1 236.7 L 32.7 236.8 L 33.4 242.6 L 34.0 240.4 L 34.7 239.5 L 35.3 241.4 L 36.6 242.5 L 37.3 244.0 L 37.9 246.2 L 38.6 244.9 L 39.2 249.3 L 39.9 249.4 L 41.1 249.8 L 41.8 248.4 L 42.4 248.4 L 43.1 250.6 L 43.7 245.3 L 44.4 249.5 L 45.7 249.2 L 46.3 248.2 L 47.0 250.9 L 47.6 252.7 L 48.3 255.2 L 48.9 253.1 L 50.2 252.8 L 50.9 250.5 L 51.5 248.4 L 52.2 248.1 L 52.8 253.3 L 53.5 252.2 L 54.8 252.1 L 55.4 252.6 L 56.1 257.2 L 56.7 253.8 L 57.3 253.8 L 58.0 255.3 L 59.3 255.4 L 59.9 254.5 L 60.6 255.8 L 61.2 252.8 L 61.9 247.2 L 62.5 246.2 L 63.8 245.2 L 64.5 244.3 L 65.1 243.1 L 65.8 245.3 L 66.4 240.1 L 67.1 243.6 L 68.4 243.3 L 69.0 248.0 L 69.7 248.7 L 70.3 251.2 L 71.0 250.5 L 71.6 250.2 L 72.9 253.9 L 73.5 252.4 L 74.2 253.9 L 74.8 263.0 L 75.5 263.5 L 76.1 263.2 L 77.4 263.7 L 78.1 261.4 L 78.7 260.3 L 79.4 263.3 L 80.0 261.2 L 80.7 263.0 L 82.0 261.5 L 82.6 263.3 L 83.3 263.3 L 83.9 266.1 L 84.6 268.3 L 85.2 265.0 L 86.5 265.6 L 87.2 266.4 L 87.8 265.8 L 88.5 263.3 L 89.1 262.9 L 89.7 264.1 L 91.0 264.9 L 91.7 265.2 L 92.3 263.1 L 93.0 263.7 L 93.6 271.4 L 94.3 271.9 L 95.6 271.7 L 96.2 271.8 L 96.9 277.1 L 97.5 276.9 L 98.2 278.0 L 98.8 278.3 L 100.1 278.3 L 100.8 277.2 L 101.4 275.2 L 102.1 274.7 L 102.7 266.5 L 103.4 261.0 L 104.7 261.4 L 105.3 262.7 L 105.9 260.4 L 106.6 262.5 L 107.2 257.3 L 107.9 254.6 L 109.2 253.3 L 109.8 256.5 L 110.5 258.3 L 111.1 261.0 L 111.8 259.6 L 112.4 261.5 L 113.7 260.8 L 114.4 262.0 L 115.0 264.0 L 115.7 258.4 L 116.3 260.7 L 117.0 265.0 L 118.3 264.7 L 118.9 262.7 L 119.6 265.7 L 120.2 266.1 L 120.9 267.6 L 121.5 266.8 L 122.8 266.4 L 123.4 264.1 L 124.1 266.7 L 124.7 266.9 L 125.4 270.9 L 126.0 273.0 L 127.3 273.1 L 128.0 274.8 L 128.6 276.0 L 129.3 277.3 L 129.9 275.7 L 130.6 275.1 L 131.9 274.9 L 132.5 276.0 L 133.2 276.4 L 133.8 271.9 L 134.5 270.7 L 135.1 271.1 L 136.4 271.5 L 137.1 272.5 L 137.7 271.8 L 138.3 271.6 L 139.0 272.2 L 139.6 275.0 L 140.9 275.5 L 141.6 278.3 L 142.2 275.2 L 142.9 275.6 L 143.5 271.2 L 144.2 266.7 L 145.5 267.1 L 146.1 268.8 L 146.8 268.1 L 147.4 266.0 L 148.1 267.7 L 148.7 271.0 L 150.0 271.1 L 150.7 271.1 L 151.3 271.6 L 152.0 267.6 L 152.6 268.5 L 153.3 264.1 L 154.5 263.4 L 155.2 264.7 L 155.8 265.3 L 156.5 264.5 L 157.1 272.5 L 157.8 271.5 L 159.1 272.0 L 159.7 271.2 L 160.4 271.0 L 161.0 270.7 L 161.7 264.9 L 162.3 261.0 L 163.6 261.1 L 164.3 263.3 L 164.9 262.9 L 165.6 263.7 L 166.2 266.8 L 166.9 269.2 L 168.2 268.3 L 168.8 269.8 L 169.5 269.4 L 170.1 267.0 L 170.7 271.7 L 171.4 272.2 L 172.7 272.7 L 173.3 273.2 L 174.0 275.9 L 174.6 274.6 L 175.3 273.8 L 175.9 274.9 L 177.2 274.7 L 177.9 274.7 L 178.5 275.2 L 179.2 272.0 L 179.8 273.2 L 180.5 278.2 L 181.8 276.8 L 182.4 274.7 L 183.1 275.1 L 183.7 274.5 L 184.4 281.2 L 185.0 282.1 L 186.3 282.1 L 186.9 282.0 L 187.6 281.1 L 188.2 283.6 L 188.9 281.7 L 189.5 284.1 L 190.8 284.0 L 191.5 284.5 L 192.1 285.1 L 192.8 279.8 L 193.4 276.9 L 194.1 277.8 L 195.4 278.0 L 196.0 280.1 L 196.7 279.5 L 197.3 277.2 L 198.0 274.9 L 198.6 275.6 L 199.9 275.5 L 200.6 276.6 L 201.2 277.7 L 201.9 276.3 L 202.5 273.8 L 203.1 272.9 L 204.4 272.9 L 205.1 274.9 L 205.7 277.9 L 206.4 280.9 L 207.0 282.7 L 207.7 282.5 L 209.0 280.5 L 209.6 279.1 L 210.3 278.8 L 210.9 278.9 L 211.6 278.9 L 212.2 278.9 L 213.5 278.8 L 214.2 277.7 L 214.8 278.3 L 215.5 278.9 L 216.1 279.8 L 216.8 279.8 L 218.1 280.1 L 218.7 280.7 L 219.3 278.7 L 220.0 281.6 L 220.6 281.7 L 221.3 281.8 L 222.6 281.8 L 223.2 282.0 L 223.9 284.8 L 224.5 284.0 L 225.2 280.2 L 225.8 275.9 L 227.1 276.0 L 227.8 275.8 L 228.4 273.0 L 229.1 273.6 L 229.7 273.3 L 230.4 272.4 L 231.7 272.9 L 232.3 273.2 L 233.0 272.9 L 233.6 271.9 L 234.3 270.3 L 234.9 269.1 L 236.2 268.8 L 236.8 269.7 L 237.5 269.1 L 238.1 266.8 L 238.8 267.5 L 239.4 268.9 L 240.7 268.8 L 241.4 267.1 L 242.0 268.8 L 242.7 267.3 L 243.3 270.5 L 244.0 269.6 L 245.3 269.9 L 245.9 267.0 L 246.6 264.5 L 247.2 263.7 L 247.9 264.7 L 248.5 264.2 L 249.8 263.8 L 250.5 265.9 L 251.1 264.4 L 251.7 267.0 L 252.4 267.7 L 253.0 267.3 L 254.3 266.9 L 255.0 267.6 L 255.6 267.6 L 256.3 268.9 L 256.9 267.9 L 257.6 269.9 L 258.9 269.6 L 259.5 272.2 L 260.2 271.6 L 260.8 270.6 L 261.5 267.9 L 262.1 267.0 L 263.4 266.6 L 264.1 267.6 L 264.7 268.0 L 265.4 269.7 L 266.0 267.8 L 266.6 267.7 L 267.9 267.4 L 268.6 268.4 L 269.2 265.7 L 269.9 263.3 L 270.5 263.4 L 271.2 263.2 L 272.5 263.6 L 273.1 263.1 L 273.8 259.8 L 274.4 259.8 L 275.1 259.7 L 275.7 257.9 L 277.0 257.8 L 277.7 258.5 L 278.3 256.7 L 279.0 256.1 L 279.6 255.6 L 280.3 257.9 L 281.6 257.8 L 282.2 257.5 L 282.8 254.8 L 283.5 255.3 L 284.1 254.2 L 284.8 256.8 L 286.1 256.5 L 286.7 255.5 L 287.4 254.5 L 288.0 254.3 L 288.7 254.3 L 289.3 256.2 L 290.6 255.6 L 291.3 254.2 L 291.9 251.6 L 292.6 248.3 L 293.2 249.5 L 293.9 247.3 L 295.2 244.7 L 295.8 244.4 L 296.5 243.1 L 297.1 244.4 L 297.8 243.9 L 298.4 240.9 L 299.7 240.5 L 300.3 240.5 L 301.0 240.9 L 301.6 241.9 L 302.3 229.7 L 302.9 230.0 L 304.2 230.1 L 304.9 226.9 L 305.5 229.2 L 306.2 228.0 L 306.8 228.6 L 307.5 230.9 L 308.8 230.5 L 309.4 229.5 L 310.1 230.6 L 310.7 225.0 L 311.4 228.3 L 312.0 222.8 L 313.3 223.4 L 314.0 224.0 L 314.6 223.8 L 315.2 219.7 L 315.9 217.8 L 316.5 213.7 L 317.8 213.0 L 318.5 213.8 L 319.1 210.4 L 319.8 209.8 L 320.4 212.8 L 321.1 203.1 L 322.4 202.8 L 323.0 211.7 L 323.7 212.8 L 324.3 216.8 L 325.0 214.1 L 325.6 210.1 L 326.9 210.8 L 327.6 217.9 L 328.2 212.0 L 328.9 223.2 L 329.5 221.5 L 330.2 218.6 L 331.4 217.7 L 332.1 220.8 L 332.7 215.7 L 333.4 211.5 L 334.0 211.3 L 334.7 212.8 L 336.0 213.2 L 336.6 214.6 L 337.3 216.8 L 337.9 210.4 L 338.6 209.1 L 339.2 203.6 L 340.5 202.1 L 341.2 200.7 L 341.8 204.9 L 342.5 201.0 L 343.1 193.8 L 343.8 198.9 L 345.1 199.4 L 345.7 196.8 L 346.4 200.3 L 347.0 197.9 L 347.6 200.4 L 348.3 203.5 L 349.6 203.2 L 350.2 198.7 L 350.9 204.4 L 351.5 205.5 L 352.2 204.5 L 352.8 194.8 L 354.1 193.7 L 354.8 198.2 L 355.4 200.3 L 356.1 202.4 L 356.7 199.7 L 357.4 198.8 L 358.7 197.9 L 359.3 199.9 L 360.0 194.4 L 360.6 189.5 L 361.3 194.1 L 361.9 187.9 L 363.2 188.3 L 363.8 189.9 L 364.5 193.8 L 365.1 198.5 L 365.8 196.2 L 366.4 199.5 L 367.7 199.5 L 368.4 197.9 L 369.0 202.7 L 369.7 191.6 L 370.3 187.9 L 371.0 184.1 L 372.3 183.8 L 372.9 184.2 L 373.6 180.2 L 374.2 181.8 L 374.9 183.6 L 375.5 180.4 L 376.8 179.9 L 377.5 178.8 L 378.1 179.2 L 378.8 175.1 L 379.4 175.5 L 380.0 168.5 L 381.3 164.5 L 382.0 163.6 L 382.6 160.4 L 383.3 156.8 L 383.9 153.5 L 384.6 157.0 L 385.9 159.0 L 386.5 156.4 L 387.2 152.0 L 387.8 153.3 L 388.5 141.6 L 389.1 137.0 L 390.4 136.5 L 391.1 139.6 L 391.7 135.5 L 392.4 140.0 L 393.0 121.4 L 393.7 108.8 L 395.0 102.0 L 395.6 111.3 L 396.2 122.5 L 396.9 115.2 L 397.5 117.7 L 398.2 115.2 L 399.5 116.8 L 400.1 119.4 L 400.8 130.2 L 401.4 119.8 L 402.1 129.9 L 402.7 117.4 L 404.0 117.2 L 404.7 118.0 L 405.3 117.8 L 406.0 118.8 L 406.6 124.2 L 407.3 122.9 L 408.6 123.8 L 409.2 120.4 L 409.9 125.0 L 410.5 123.8 L 411.2 121.4 L 411.8 122.5 L 413.1 122.5 L 413.7 118.7 L 414.4 119.3 L 415.0 121.0 L 415.7 107.9 L 416.3 107.8 L 417.6 105.0 L 418.3 106.9 L 418.9 106.2 L 419.6 98.3 L 420.2 94.3 L 420.9 78.5 L 422.2 78.6 L 422.8 79.3 L 423.5 65.9 L 424.1 52.3 L 424.8 60.2 L 425.4 47.6 L 426.7 46.3 L 427.4 54.3 L 428.0 57.0 L 428.6 80.4 L 429.3 62.5 L 429.9 76.6 L 431.2 77.0 L 431.9 87.3 L 432.5 85.6 L 433.2 89.4 L 433.8 82.0 L 434.5 82.4 L 435.8 82.0 L 436.4 77.6 L 437.1 68.7 L 437.7 71.6 L 438.4 82.0 L 439.0 89.9 L 440.3 91.8 L 441.0 85.4 L 441.6 76.1 L 442.3 73.1 L 442.9 62.4 L 443.6 57.4 L 444.8 57.9 L 445.5 54.2 L 446.1 62.0 L 446.8 64.9 L 447.4 71.4 L 448.1 75.3 L 449.4 75.6 L 450.0 69.4 L 450.7 69.1 L 451.3 68.3 L 452.0 77.1 L 452.6 81.2 L 453.9 80.6 L 454.6 82.4 L 455.2 90.2 L 455.9 102.7 L 456.5 110.1 L 457.2 108.2 L 458.5 106.9 L 459.1 103.8 L 459.8 107.0 L 460.4 120.3 L 461.0 113.5 L 461.7 108.5 L 463.0 107.6 L 463.6 104.6 L 464.3 109.3 L 464.9 120.6 L 465.6 124.8 L 466.2 128.0 L 467.5 127.5 L 468.2 117.3 L 468.8 104.1 L 469.5 99.5 L 470.1 101.1 L 470.8 93.3 L 472.1 91.1 L 472.7 89.8 L 473.4 81.2 L 474.0 83.8 L 474.7 87.5 L 475.3 90.7 L 476.6 88.2 L 477.2 85.7 L 477.9 104.5 L 478.5 114.0 L 479.2 111.3 L 479.8 101.1 L 481.1 100.5 L 481.8 115.4 L 482.4 114.9 L 483.1 118.2 L 483.7 112.9 L 484.4 113.8 L 485.7 109.7 L 486.3 114.9 L 487.0 112.0 L 487.6 119.0 L 488.3 120.9 L 488.9 120.3 L 490.2 121.8 L 490.9 119.3 L 491.5 105.8 L 492.2 108.6 L 492.8 108.5 L 493.4 105.5 L 494.7 89.5 L 495.4 111.0 L 496.0 106.0" stroke="#7cb5ec" stroke-width="1" stroke-linejoin="round" stroke-linecap="round">
			</path>
			<path fill="none" d="M -5.0 232.8 L 4.9 232.8 L 5.5 237.5 L 6.2 237.8 L 6.8 238.5 L 7.5 247.5 L 8.1 246.2 L 9.4 245.0 L 10.0 248.1 L 10.7 251.4 L 11.3 252.7 L 12.0 254.8 L 12.6 253.3 L 13.9 253.8 L 14.6 254.5 L 15.2 255.9 L 15.9 250.3 L 16.5 246.0 L 17.2 240.2 L 18.5 239.3 L 19.1 240.0 L 19.8 237.9 L 20.4 233.8 L 21.1 235.2 L 21.7 233.6 L 23.0 233.6 L 23.7 236.9 L 24.3 231.7 L 24.9 233.6 L 25.6 227.8 L 26.2 222.9 L 27.5 221.7 L 28.2 225.2 L 28.8 219.7 L 29.5 231.7 L 30.1 238.8 L 30.8 237.1 L 32.1 236.7 L 32.7 236.8 L 33.4 242.6 L 34.0 240.4 L 34.7 239.5 L 35.3 241.4 L 36.6 242.5 L 37.3 244.0 L 37.9 246.2 L 38.6 244.9 L 39.2 249.3 L 39.9 249.4 L 41.1 249.8 L 41.8 248.4 L 42.4 248.4 L 43.1 250.6 L 43.7 245.3 L 44.4 249.5 L 45.7 249.2 L 46.3 248.2 L 47.0 250.9 L 47.6 252.7 L 48.3 255.2 L 48.9 253.1 L 50.2 252.8 L 50.9 250.5 L 51.5 248.4 L 52.2 248.1 L 52.8 253.3 L 53.5 252.2 L 54.8 252.1 L 55.4 252.6 L 56.1 257.2 L 56.7 253.8 L 57.3 253.8 L 58.0 255.3 L 59.3 255.4 L 59.9 254.5 L 60.6 255.8 L 61.2 252.8 L 61.9 247.2 L 62.5 246.2 L 63.8 245.2 L 64.5 244.3 L 65.1 243.1 L 65.8 245.3 L 66.4 240.1 L 67.1 243.6 L 68.4 243.3 L 69.0 248.0 L 69.7 248.7 L 70.3 251.2 L 71.0 250.5 L 71.6 250.2 L 72.9 253.9 L 73.5 252.4 L 74.2 253.9 L 74.8 263.0 L 75.5 263.5 L 76.1 263.2 L 77.4 263.7 L 78.1 261.4 L 78.7 260.3 L 79.4 263.3 L 80.0 261.2 L 80.7 263.0 L 82.0 261.5 L 82.6 263.3 L 83.3 263.3 L 83.9 266.1 L 84.6 268.3 L 85.2 265.0 L 86.5 265.6 L 87.2 266.4 L 87.8 265.8 L 88.5 263.3 L 89.1 262.9 L 89.7 264.1 L 91.0 264.9 L 91.7 265.2 L 92.3 263.1 L 93.0 263.7 L 93.6 271.4 L 94.3 271.9 L 95.6 271.7 L 96.2 271.8 L 96.9 277.1 L 97.5 276.9 L 98.2 278.0 L 98.8 278.3 L 100.1 278.3 L 100.8 277.2 L 101.4 275.2 L 102.1 274.7 L 102.7 266.5 L 103.4 261.0 L 104.7 261.4 L 105.3 262.7 L 105.9 260.4 L 106.6 262.5 L 107.2 257.3 L 107.9 254.6 L 109.2 253.3 L 109.8 256.5 L 110.5 258.3 L 111.1 261.0 L 111.8 259.6 L 112.4 261.5 L 113.7 260.8 L 114.4 262.0 L 115.0 264.0 L 115.7 258.4 L 116.3 260.7 L 117.0 265.0 L 118.3 264.7 L 118.9 262.7 L 119.6 265.7 L 120.2 266.1 L 120.9 267.6 L 121.5 266.8 L 122.8 266.4 L 123.4 264.1 L 124.1 266.7 L 124.7 266.9 L 125.4 270.9 L 126.0 273.0 L 127.3 273.1 L 128.0 274.8 L 128.6 276.0 L 129.3 277.3 L 129.9 275.7 L 130.6 275.1 L 131.9 274.9 L 132.5 276.0 L 133.2 276.4 L 133.8 271.9 L 134.5 270.7 L 135.1 271.1 L 136.4 271.5 L 137.1 272.5 L 137.7 271.8 L 138.3 271.6 L 139.0 272.2 L 139.6 275.0 L 140.9 275.5 L 141.6 278.3 L 142.2 275.2 L 142.9 275.6 L 143.5 271.2 L 144.2 266.7 L 145.5 267.1 L 146.1 268.8 L 146.8 268.1 L 147.4 266.0 L 148.1 267.7 L 148.7 271.0 L 150.0 271.1 L 150.7 271.1 L 151.3 271.6 L 152.0 267.6 L 152.6 268.5 L 153.3 264.1 L 154.5 263.4 L 155.2 264.7 L 155.8 265.3 L 156.5 264.5 L 157.1 272.5 L 157.8 271.5 L 159.1 272.0 L 159.7 271.2 L 160.4 271.0 L 161.0 270.7 L 161.7 264.9 L 162.3 261.0 L 163.6 261.1 L 164.3 263.3 L 164.9 262.9 L 165.6 263.7 L 166.2 266.8 L 166.9 269.2 L 168.2 268.3 L 168.8 269.8 L 169.5 269.4 L 170.1 267.0 L 170.7 271.7 L 171.4 272.2 L 172.7 272.7 L 173.3 273.2 L 174.0 275.9 L 174.6 274.6 L 175.3 273.8 L 175.9 274.9 L 177.2 274.7 L 177.9 274.7 L 178.5 275.2 L 179.2 272.0 L 179.8 273.2 L 180.5 278.2 L 181.8 276.8 L 182.4 274.7 L 183.1 275.1 L 183.7 274.5 L 184.4 281.2 L 185.0 282.1 L 186.3 282.1 L 186.9 282.0 L 187.6 281.1 L 188.2 283.6 L 188.9 281.7 L 189.5 284.1 L 190.8 284.0 L 191.5 284.5 L 192.1 285.1 L 192.8 279.8 L 193.4 276.9 L 194.1 277.8 L 195.4 278.0 L 196.0 280.1 L 196.7 279.5 L 197.3 277.2 L 198.0 274.9 L 198.6 275.6 L 199.9 275.5 L 200.6 276.6 L 201.2 277.7 L 201.9 276.3 L 202.5 273.8 L 203.1 272.9 L 204.4 272.9 L 205.1 274.9 L 205.7 277.9 L 206.4 280.9 L 207.0 282.7 L 207.7 282.5 L 209.0 280.5 L 209.6 279.1 L 210.3 278.8 L 210.9 278.9 L 211.6 278.9 L 212.2 278.9 L 213.5 278.8 L 214.2 277.7 L 214.8 278.3 L 215.5 278.9 L 216.1 279.8 L 216.8 279.8 L 218.1 280.1 L 218.7 280.7 L 219.3 278.7 L 220.0 281.6 L 220.6 281.7 L 221.3 281.8 L 222.6 281.8 L 223.2 282.0 L 223.9 284.8 L 224.5 284.0 L 225.2 280.2 L 225.8 275.9 L 227.1 276.0 L 227.8 275.8 L 228.4 273.0 L 229.1 273.6 L 229.7 273.3 L 230.4 272.4 L 231.7 272.9 L 232.3 273.2 L 233.0 272.9 L 233.6 271.9 L 234.3 270.3 L 234.9 269.1 L 236.2 268.8 L 236.8 269.7 L 237.5 269.1 L 238.1 266.8 L 238.8 267.5 L 239.4 268.9 L 240.7 268.8 L 241.4 267.1 L 242.0 268.8 L 242.7 267.3 L 243.3 270.5 L 244.0 269.6 L 245.3 269.9 L 245.9 267.0 L 246.6 264.5 L 247.2 263.7 L 247.9 264.7 L 248.5 264.2 L 249.8 263.8 L 250.5 265.9 L 251.1 264.4 L 251.7 267.0 L 252.4 267.7 L 253.0 267.3 L 254.3 266.9 L 255.0 267.6 L 255.6 267.6 L 256.3 268.9 L 256.9 267.9 L 257.6 269.9 L 258.9 269.6 L 259.5 272.2 L 260.2 271.6 L 260.8 270.6 L 261.5 267.9 L 262.1 267.0 L 263.4 266.6 L 264.1 267.6 L 264.7 268.0 L 265.4 269.7 L 266.0 267.8 L 266.6 267.7 L 267.9 267.4 L 268.6 268.4 L 269.2 265.7 L 269.9 263.3 L 270.5 263.4 L 271.2 263.2 L 272.5 263.6 L 273.1 263.1 L 273.8 259.8 L 274.4 259.8 L 275.1 259.7 L 275.7 257.9 L 277.0 257.8 L 277.7 258.5 L 278.3 256.7 L 279.0 256.1 L 279.6 255.6 L 280.3 257.9 L 281.6 257.8 L 282.2 257.5 L 282.8 254.8 L 283.5 255.3 L 284.1 254.2 L 284.8 256.8 L 286.1 256.5 L 286.7 255.5 L 287.4 254.5 L 288.0 254.3 L 288.7 254.3 L 289.3 256.2 L 290.6 255.6 L 291.3 254.2 L 291.9 251.6 L 292.6 248.3 L 293.2 249.5 L 293.9 247.3 L 295.2 244.7 L 295.8 244.4 L 296.5 243.1 L 297.1 244.4 L 297.8 243.9 L 298.4 240.9 L 299.7 240.5 L 300.3 240.5 L 301.0 240.9 L 301.6 241.9 L 302.3 229.7 L 302.9 230.0 L 304.2 230.1 L 304.9 226.9 L 305.5 229.2 L 306.2 228.0 L 306.8 228.6 L 307.5 230.9 L 308.8 230.5 L 309.4 229.5 L 310.1 230.6 L 310.7 225.0 L 311.4 228.3 L 312.0 222.8 L 313.3 223.4 L 314.0 224.0 L 314.6 223.8 L 315.2 219.7 L 315.9 217.8 L 316.5 213.7 L 317.8 213.0 L 318.5 213.8 L 319.1 210.4 L 319.8 209.8 L 320.4 212.8 L 321.1 203.1 L 322.4 202.8 L 323.0 211.7 L 323.7 212.8 L 324.3 216.8 L 325.0 214.1 L 325.6 210.1 L 326.9 210.8 L 327.6 217.9 L 328.2 212.0 L 328.9 223.2 L 329.5 221.5 L 330.2 218.6 L 331.4 217.7 L 332.1 220.8 L 332.7 215.7 L 333.4 211.5 L 334.0 211.3 L 334.7 212.8 L 336.0 213.2 L 336.6 214.6 L 337.3 216.8 L 337.9 210.4 L 338.6 209.1 L 339.2 203.6 L 340.5 202.1 L 341.2 200.7 L 341.8 204.9 L 342.5 201.0 L 343.1 193.8 L 343.8 198.9 L 345.1 199.4 L 345.7 196.8 L 346.4 200.3 L 347.0 197.9 L 347.6 200.4 L 348.3 203.5 L 349.6 203.2 L 350.2 198.7 L 350.9 204.4 L 351.5 205.5 L 352.2 204.5 L 352.8 194.8 L 354.1 193.7 L 354.8 198.2 L 355.4 200.3 L 356.1 202.4 L 356.7 199.7 L 357.4 198.8 L 358.7 197.9 L 359.3 199.9 L 360.0 194.4 L 360.6 189.5 L 361.3 194.1 L 361.9 187.9 L 363.2 188.3 L 363.8 189.9 L 364.5 193.8 L 365.1 198.5 L 365.8 196.2 L 366.4 199.5 L 367.7 199.5 L 368.4 197.9 L 369.0 202.7 L 369.7 191.6 L 370.3 187.9 L 371.0 184.1 L 372.3 183.8 L 372.9 184.2 L 373.6 180.2 L 374.2 181.8 L 374.9 183.6 L 375.5 180.4 L 376.8 179.9 L 377.5 178.8 L 378.1 179.2 L 378.8 175.1 L 379.4 175.5 L 380.0 168.5 L 381.3 164.5 L 382.0 163.6 L 382.6 160.4 L 383.3 156.8 L 383.9 153.5 L 384.6 157.0 L 385.9 159.0 L 386.5 156.4 L 387.2 152.0 L 387.8 153.3 L 388.5 141.6 L 389.1 137.0 L 390.4 136.5 L 391.1 139.6 L 391.7 135.5 L 392.4 140.0 L 393.0 121.4 L 393.7 108.8 L 395.0 102.0 L 395.6 111.3 L 396.2 122.5 L 396.9 115.2 L 397.5 117.7 L 398.2 115.2 L 399.5 116.8 L 400.1 119.4 L 400.8 130.2 L 401.4 119.8 L 402.1 129.9 L 402.7 117.4 L 404.0 117.2 L 404.7 118.0 L 405.3 117.8 L 406.0 118.8 L 406.6 124.2 L 407.3 122.9 L 408.6 123.8 L 409.2 120.4 L 409.9 125.0 L 410.5 123.8 L 411.2 121.4 L 411.8 122.5 L 413.1 122.5 L 413.7 118.7 L 414.4 119.3 L 415.0 121.0 L 415.7 107.9 L 416.3 107.8 L 417.6 105.0 L 418.3 106.9 L 418.9 106.2 L 419.6 98.3 L 420.2 94.3 L 420.9 78.5 L 422.2 78.6 L 422.8 79.3 L 423.5 65.9 L 424.1 52.3 L 424.8 60.2 L 425.4 47.6 L 426.7 46.3 L 427.4 54.3 L 428.0 57.0 L 428.6 80.4 L 429.3 62.5 L 429.9 76.6 L 431.2 77.0 L 431.9 87.3 L 432.5 85.6 L 433.2 89.4 L 433.8 82.0 L 434.5 82.4 L 435.8 82.0 L 436.4 77.6 L 437.1 68.7 L 437.7 71.6 L 438.4 82.0 L 439.0 89.9 L 440.3 91.8 L 441.0 85.4 L 441.6 76.1 L 442.3 73.1 L 442.9 62.4 L 443.6 57.4 L 444.8 57.9 L 445.5 54.2 L 446.1 62.0 L 446.8 64.9 L 447.4 71.4 L 448.1 75.3 L 449.4 75.6 L 450.0 69.4 L 450.7 69.1 L 451.3 68.3 L 452.0 77.1 L 452.6 81.2 L 453.9 80.6 L 454.6 82.4 L 455.2 90.2 L 455.9 102.7 L 456.5 110.1 L 457.2 108.2 L 458.5 106.9 L 459.1 103.8 L 459.8 107.0 L 460.4 120.3 L 461.0 113.5 L 461.7 108.5 L 463.0 107.6 L 463.6 104.6 L 464.3 109.3 L 464.9 120.6 L 465.6 124.8 L 466.2 128.0 L 467.5 127.5 L 468.2 117.3 L 468.8 104.1 L 469.5 99.5 L 470.1 101.1 L 470.8 93.3 L 472.1 91.1 L 472.7 89.8 L 473.4 81.2 L 474.0 83.8 L 474.7 87.5 L 475.3 90.7 L 476.6 88.2 L 477.2 85.7 L 477.9 104.5 L 478.5 114.0 L 479.2 111.3 L 479.8 101.1 L 481.1 100.5 L 481.8 115.4 L 482.4 114.9 L 483.1 118.2 L 483.7 112.9 L 484.4 113.8 L 485.7 109.7 L 486.3 114.9 L 487.0 112.0 L 487.6 119.0 L 488.3 120.9 L 488.9 120.3 L 490.2 121.8 L 490.9 119.3 L 491.5 105.8 L 492.2 108.6 L 492.8 108.5 L 493.4 105.5 L 494.7 89.5 L 495.4 111.0 L 496.0 106.0 L 506.0 106.0" stroke-linejoin="round" visibility="visible" stroke="rgb(192,192,192)" stroke-opacity="0.0" stroke-width="21" class=" highcharts-tracker" style="">
			</path>
		</g>
		<g class="highcharts-markers highcharts-series-0 highcharts-tracker" transform="translate(73,61) scale(1 1)" style="" clip-path="none">
		</g>
	</g>
	<text x="292" text-anchor="middle" class="highcharts-title" style="color:#333333;font-size:18px;fill:#333333;width:520px;" y="24">
		<tspan>USD to EUR exchange rate over time
		</tspan>
	</text>
	<text x="292" text-anchor="middle" class="highcharts-subtitle" style="color:#555555;fill:#555555;width:520px;" y="45">
		<tspan>Pinch the chart to zoom in
		</tspan>
	</text>
	<g class="highcharts-axis-labels highcharts-xaxis-labels">
		<text x="215.9" style="color:#606060;cursor:default;font-size:11px;fill:#606060;width:115px;text-overflow:clip;" text-anchor="middle" transform="translate(0,0)" y="383" opacity="1">
			<tspan>Jan '14
			</tspan>
		</text>
		<text x="452.4" style="color:#606060;cursor:default;font-size:11px;fill:#606060;width:115px;text-overflow:clip;" text-anchor="middle" transform="translate(0,0)" y="383" opacity="1">
			<tspan>Jan '15
			</tspan>
		</text>
		<text x="96.7" style="color:#606060;cursor:default;font-size:11px;fill:#606060;width:115px;text-overflow:clip;" text-anchor="middle" transform="translate(0,0)" y="383" opacity="1">
			<tspan>Jul '13
			</tspan>
		</text>
		<text x="333.2" style="color:#606060;cursor:default;font-size:11px;fill:#606060;width:115px;text-overflow:clip;" text-anchor="middle" transform="translate(0,0)" y="383" opacity="1">
			<tspan>Jul '14
			</tspan>
		</text>
		<text x="557.3" style="color:#606060;cursor:default;font-size:11px;fill:#606060;width:115px;text-overflow:clip;" text-anchor="middle" transform="translate(0,0)" y="383" opacity="1">
			<tspan>Jul '15
			</tspan>
		</text>
	</g>
	<g class="highcharts-axis-labels highcharts-yaxis-labels">
		<text x="58" style="color:#606060;cursor:default;font-size:11px;fill:#606060;width:183px;text-overflow:clip;" text-anchor="end" transform="translate(0,0)" y="369" opacity="1">0.7
		</text>
		<text x="58" style="color:#606060;cursor:default;font-size:11px;fill:#606060;width:183px;text-overflow:clip;" text-anchor="end" transform="translate(0,0)" y="318" opacity="1">0.7
		</text>
		<text x="58" style="color:#606060;cursor:default;font-size:11px;fill:#606060;width:183px;text-overflow:clip;" text-anchor="end" transform="translate(0,0)" y="268" opacity="1">0.8
		</text>
		<text x="58" style="color:#606060;cursor:default;font-size:11px;fill:#606060;width:183px;text-overflow:clip;" text-anchor="end" transform="translate(0,0)" y="217" opacity="1">0.8
		</text>
		<text x="58" style="color:#606060;cursor:default;font-size:11px;fill:#606060;width:183px;text-overflow:clip;" text-anchor="end" transform="translate(0,0)" y="167" opacity="1">0.9
		</text>
		<text x="58" style="color:#606060;cursor:default;font-size:11px;fill:#606060;width:183px;text-overflow:clip;" text-anchor="end" transform="translate(0,0)" y="116" opacity="1">0.9
		</text>
		<text x="58" style="color:#606060;cursor:default;font-size:11px;fill:#606060;width:183px;text-overflow:clip;" text-anchor="end" transform="translate(0,0)" y="66" opacity="1">1
		</text>
	</g>
	<g class="highcharts-tooltip" style="cursor:default;padding:0;pointer-events:none;white-space:nowrap;" transform="translate(0,-9999)">
		<path fill="none" d="M 3.5 0.5 L 13.5 0.5 C 16.5 0.5 16.5 0.5 16.5 3.5 L 16.5 13.5 C 16.5 16.5 16.5 16.5 13.5 16.5 L 3.5 16.5 C 0.5 16.5 0.5 16.5 0.5 13.5 L 0.5 3.5 C 0.5 0.5 0.5 0.5 3.5 0.5"  stroke="black" stroke-opacity="0.0" stroke-width="5" transform="translate(1, 1)">
		</path>
		<path fill="none" d="M 3.5 0.5 L 13.5 0.5 C 16.5 0.5 16.5 0.5 16.5 3.5 L 16.5 13.5 C 16.5 16.5 16.5 16.5 13.5 16.5 L 3.5 16.5 C 0.5 16.5 0.5 16.5 0.5 13.5 L 0.5 3.5 C 0.5 0.5 0.5 0.5 3.5 0.5"  stroke="black" stroke-opacity="0.0" stroke-width="3" transform="translate(1, 1)">
		</path>
		<path fill="none" d="M 3.5 0.5 L 13.5 0.5 C 16.5 0.5 16.5 0.5 16.5 3.5 L 16.5 13.5 C 16.5 16.5 16.5 16.5 13.5 16.5 L 3.5 16.5 C 0.5 16.5 0.5 16.5 0.5 13.5 L 0.5 3.5 C 0.5 0.5 0.5 0.5 3.5 0.5"  stroke="black" stroke-opacity="0.1" stroke-width="1" transform="translate(1, 1)">
		</path>
		<path fill="rgb(249, 249, 249)" fill-opacity=" .85" d="M 3.5 0.5 L 13.5 0.5 C 16.5 0.5 16.5 0.5 16.5 3.5 L 16.5 13.5 C 16.5 16.5 16.5 16.5 13.5 16.5 L 3.5 16.5 C 0.5 16.5 0.5 16.5 0.5 13.5 L 0.5 3.5 C 0.5 0.5 0.5 0.5 3.5 0.5">
		</path>
		<text x="8" style="font-size:12px;color:#333333;fill:#333333;" y="20">
		</text>
	</g>
</svg>