
<svg version="1.1" style="font-family:&quot;lucida grande&quot;, &quot;lucida sans unicode&quot;, arial, helvetica, sans-serif;font-size:12px;" xmlns="http://www.w3.org/2000/svg" viewBox="0 0 584 400">
	<desc>Created with Highcharts 4.2.4
	</desc>
	<defs>
		<clipPath id="highcharts-1">
			<rect x="0" y="0" width="564" height="339">
			</rect>
		</clipPath>
	</defs>
	<rect x="0" y="0" width="584" height="400" fill="#FFFFFF" class=" highcharts-background" stroke="transparent">
	</rect>
	<g class="highcharts-series-group">
		<g class="highcharts-series highcharts-series-0 highcharts-tracker" transform="translate(10,46) scale(1 1)" style="cursor:pointer;">
			<path fill="#7cb5ec" d="M 229.9 82.5 A 92.5 92.5 0 1 1 184.0 255.2 L 230 175 A 0 0 0 1 0 230 175 Z" stroke="#FFFFFF" stroke-width="1" stroke-linejoin="round" transform="translate(0,0)">
			</path>
			<path fill="#434348" d="M 183.9 255.2 A 92.5 92.5 0 0 1 149.3 129.6 L 230 175 A 0 0 0 0 0 230 175 Z" stroke="#FFFFFF" stroke-width="1" stroke-linejoin="round" transform="translate(-10,3)">
			</path>
			<path fill="#90ed7d" d="M 149.4 129.5 A 92.5 92.5 0 0 1 195.3 89.2 L 230 175 A 0 0 0 0 0 230 175 Z" stroke="#FFFFFF" stroke-width="1" stroke-linejoin="round" transform="translate(0,0)">
			</path>
			<path fill="#f7a35c" d="M 195.4 89.1 A 92.5 92.5 0 0 1 223.2 82.7 L 230 175 A 0 0 0 0 0 230 175 Z" stroke="#FFFFFF" stroke-width="1" stroke-linejoin="round" transform="translate(0,0)">
			</path>
			<path fill="#8085e9" d="M 223.3 82.7 A 92.5 92.5 0 0 1 228.6 82.5 L 230 175 A 0 0 0 0 0 230 175 Z" stroke="#FFFFFF" stroke-width="1" stroke-linejoin="round" transform="translate(0,0)">
			</path>
			<path fill="#f15c80" d="M 228.7 82.5 A 92.5 92.5 0 0 1 229.8 82.5 L 230 175 A 0 0 0 0 0 230 175 Z" stroke="#FFFFFF" stroke-width="1" stroke-linejoin="round" transform="translate(0,0)">
			</path>
		</g>
		<g class="highcharts-markers highcharts-series-0" transform="translate(10,46) scale(1 1)">
		</g>
	</g>
	<text x="292" text-anchor="middle" class="highcharts-title" style="color:#333333;font-size:18px;fill:#333333;width:520px;" y="24">
		<tspan>Browser market shares January, 2015 to May, 2015
		</tspan>
	</text>
	<g class="highcharts-data-labels highcharts-series-0 highcharts-tracker" visibility="visible" transform="translate(10,46) scale(1 1)" style="cursor:pointer;">
		<path fill="none" d="M 353.3 206.5 C 348.3 206.5 340.6 204.5 330.0 201.6 L 319.3 198.8" stroke="#7cb5ec" stroke-width="1">
		</path>
		<path fill="none" d="M 106.8 207.4 C 111.8 207.4 119.5 205.3 130.1 202.3 L 140.8 199.4" stroke="#434348" stroke-width="1">
		</path>
		<path fill="none" d="M 114.8 121.3 C 119.8 121.3 154.5 88.9 161.7 97.1 L 169.0 105.4" stroke="#90ed7d" stroke-width="1">
		</path>
		<path fill="none" d="M 129.4 98.3 C 134.4 98.3 204.1 63.4 206.6 74.1 L 209.1 84.8" stroke="#f7a35c" stroke-width="1">
		</path>
		<path fill="none" d="M 153.6 75.4 C 158.6 75.4 225.1 60.6 225.5 71.5 L 226.0 82.5" stroke="#8085e9" stroke-width="1">
		</path>
		<path fill="none" d="M 224.2 52.5 C 229.2 52.5 229.2 60.5 229.3 71.5 L 229.3 82.5" stroke="#f15c80" stroke-width="1">
		</path>
		<g style="cursor:pointer;" transform="translate(358,197)">
			<text x="5" style="font-size:11px;font-weight:bold;color:black;text-shadow:0 0 6px #ffffff, 0 0 3px #ffffff;fill:black;text-rendering:geometricprecision;" y="16">
				<tspan style="font-weight:bold">Microsoft Internet Explorer
				</tspan>
				<tspan dx="0">: 58.3 %
				</tspan>
			</text>
		</g>
		<g style="cursor:pointer;" transform="translate(5,197)">
			<text x="5" style="font-size:11px;font-weight:bold;color:black;text-shadow:0 0 6px #ffffff, 0 0 3px #ffffff;fill:black;text-rendering:geometricprecision;" y="16">
				<tspan style="font-weight:bold">Chrome
				</tspan>
				<tspan dx="0">: 24.9 %
				</tspan>
			</text>
		</g>
		<g style="cursor:pointer;" transform="translate(18,111)">
			<text x="5" style="font-size:11px;font-weight:bold;color:black;text-shadow:0 0 6px #ffffff, 0 0 3px #ffffff;fill:black;text-rendering:geometricprecision;" y="16">
				<tspan style="font-weight:bold">Firefox
				</tspan>
				<tspan dx="0">: 10.7 %
				</tspan>
			</text>
		</g>
		<g style="cursor:pointer;" transform="translate(46,88)">
			<text x="5" style="font-size:11px;font-weight:bold;color:black;text-shadow:0 0 6px #ffffff, 0 0 3px #ffffff;fill:black;text-rendering:geometricprecision;" y="16">
				<tspan style="font-weight:bold">Safari
				</tspan>
				<tspan dx="0">: 4.9 %
				</tspan>
			</text>
		</g>
		<g style="cursor:pointer;" transform="translate(69,65)">
			<text x="5" style="font-size:11px;font-weight:bold;color:black;text-shadow:0 0 6px #ffffff, 0 0 3px #ffffff;fill:black;text-rendering:geometricprecision;" y="16">
				<tspan style="font-weight:bold">Opera
				</tspan>
				<tspan dx="0">: 0.9 %
				</tspan>
			</text>
		</g>
		<g style="cursor:pointer;" transform="translate(17,43)">
			<text x="5" style="font-size:11px;font-weight:bold;color:black;text-shadow:0 0 6px #ffffff, 0 0 3px #ffffff;fill:black;text-rendering:geometricprecision;" y="16">
				<tspan style="font-weight:bold">Proprietary or Undetectable
				</tspan>
				<tspan dx="0">: 0.2 %
				</tspan>
			</text>
		</g>
	</g>
	<g class="highcharts-legend">
		<g>
			<g>
			</g>
		</g>
	</g>
	<g class="highcharts-tooltip" style="cursor:default;padding:0;pointer-events:none;white-space:nowrap;" transform="translate(0,-9999)">
		<path fill="none" d="M 3.5 0.5 L 13.5 0.5 C 16.5 0.5 16.5 0.5 16.5 3.5 L 16.5 13.5 C 16.5 16.5 16.5 16.5 13.5 16.5 L 3.5 16.5 C 0.5 16.5 0.5 16.5 0.5 13.5 L 0.5 3.5 C 0.5 0.5 0.5 0.5 3.5 0.5"  stroke="black" stroke-opacity="0.0" stroke-width="5" transform="translate(1, 1)">
		</path>
		<path fill="none" d="M 3.5 0.5 L 13.5 0.5 C 16.5 0.5 16.5 0.5 16.5 3.5 L 16.5 13.5 C 16.5 16.5 16.5 16.5 13.5 16.5 L 3.5 16.5 C 0.5 16.5 0.5 16.5 0.5 13.5 L 0.5 3.5 C 0.5 0.5 0.5 0.5 3.5 0.5"  stroke="black" stroke-opacity="0.0" stroke-width="3" transform="translate(1, 1)">
		</path>
		<path fill="none" d="M 3.5 0.5 L 13.5 0.5 C 16.5 0.5 16.5 0.5 16.5 3.5 L 16.5 13.5 C 16.5 16.5 16.5 16.5 13.5 16.5 L 3.5 16.5 C 0.5 16.5 0.5 16.5 0.5 13.5 L 0.5 3.5 C 0.5 0.5 0.5 0.5 3.5 0.5"  stroke="black" stroke-opacity="0.1" stroke-width="1" transform="translate(1, 1)">
		</path>
		<path fill="rgb(249, 249, 249)" fill-opacity=" .85" d="M 3.5 0.5 L 13.5 0.5 C 16.5 0.5 16.5 0.5 16.5 3.5 L 16.5 13.5 C 16.5 16.5 16.5 16.5 13.5 16.5 L 3.5 16.5 C 0.5 16.5 0.5 16.5 0.5 13.5 L 0.5 3.5 C 0.5 0.5 0.5 0.5 3.5 0.5">
		</path>
		<text x="8" style="font-size:12px;color:#333333;fill:#333333;" y="20">
		</text>
	</g>
</svg>